<?xml version="1.0" encoding="utf-8"?>
<!-- Generator: Adobe Illustrator 22.1.0, SVG Export Plug-In . SVG Version: 6.00 Build 0)  -->
<svg width="224px" height="293px" version="1.1" id="Layer_1" xmlns="http://www.w3.org/2000/svg" xmlns:xlink="http://www.w3.org/1999/xlink" x="0px" y="0px"
	 viewBox="0 0 224 292.3" style="enable-background:new 0 0 224 292.3;" xml:space="preserve">
<style type="text/css">
	.st0{fill:#D17575;}
	.st1{fill:#CC5B5D;}
	.st2{fill:#D0D1D3;}
	.st3{fill:#4C2405;}
</style>
<g>
	<g>
		<polygon class="st0" points="18,59.5 19.7,94.9 9.4,109.3 13.7,122.4 12.4,133.8 19.7,141.7 12.8,157 20.1,165.8 15.4,175 
			16.3,183.3 22.7,185.5 15.8,192.5 17.1,199 23.6,203.4 16.3,213.5 18,218.7 19.7,224.4 17.6,233.2 18,241 22.3,245 22.7,252.8 
			74.1,265.5 135.8,267.7 173.3,258.5 208.3,244.1 217.7,232.7 214.7,217.4 221.2,203.8 215.2,194.6 219,185 212.6,175 216,164.5 
			210.8,156.2 215.6,149.6 211.3,137.3 214.7,123.8 211.7,115 213,106.3 205.2,96.2 209.5,87.9 199.2,78.3 188.8,35.8 173.3,51.6 
			108.2,71.7 41.7,65.1 		"/>
		<path class="st1" d="M90.5,184.5c-2.2,1.3-4-0.3-4.9-2.5c-1.8-4.8,3.1-16.5,9-16.6C94.3,166.1,81.1,179.7,90.5,184.5L90.5,184.5z
			 M126.7,172.8c-2.4,1.3-2-8.3-1.7-8.9c2.1,0.2,2.3,1.3,2.6,3.8C127.8,169.3,127.9,172.1,126.7,172.8L126.7,172.8z M86.8,150.6
			c0.8-3,1.7-0.6,1.7-4.5c-3.3,0.4-9.4,5.8-11.2,7.9c-2.9,3.3-5.6,9-6.1,13.7c-0.5,4.4-2.6,14.1-0.8,18.3
			c3.1,7.2,10.8,17.7,18.8,20.2c4.5,1.5,10.7,3.7,15.5,4c6.5,0.4,11.4-1.1,16.7-2.8c7.9-2.6,17.8-10.9,21.6-17.4
			c6.2-10.6,9.2-18.5,6.2-30.4c-1.5-6-1.9-10.6-6.3-13.7c-3.2-2.2-8-6.9-11.6-8.1c-3.6-1.2-14.4-1.3-18.4-0.3l-14.3,5.3
			C87.8,147.9,91.7,150.5,86.8,150.6z"/>
		<path class="st2" d="M101,23.7c2.2,2.5,2.5,0.8,7,1.8c4.4,1,9.2,0.1,13.5,2.1c7.2,3.2,4.3,0,10.3,6c1.9,1.9,2.1,2,1.7,5.6
			c-0.4,2.7,0.9,4.5-0.3,6.4c-0.7,1.2-3.5,2.3-4.8,3.7c-2.4,2.4-5.9,6.2-8.2,7.5c-4.3,2.5-5.7,4.1-11.5,4.9
			c-2.5,0.3-2.4,1.6-12.8,2.8c-5.1,0.6-8.5,2.2-13,3.3c3,2.5,9.8,1.8,13.5,1.8c0.4,0,1.2,0,1.6,0c3.8-0.4,3.7-1.7,12.3-1.5
			c6.7,0.2,24.8-4.4,31-7.3c2.4-1.1,2.8-1.3,5.7-2l12.1-3.6c7.5-2.4,14.8-7.7,18.4-13.3c1.2-1.9,2.5-2.7,3.2-4.2c0.7-1.4,2.1-5,2-6
			c-0.2-4.3-5.7-4.8-8.8-7.2c-4.3-3.2-18.8-8.1-22.7-8.1c-3.1,0-3.8-0.2-6.2-1.1l-14.3-1c-1.9,0.5-3.6,1.5-5.9,2
			c-5.5,1.2-4.7,0-12.1,3.5C106,22.8,105.7,22,101,23.7z"/>
		<path class="st2" d="M25.4,257.4c-4.6,9.1,0,10,4.7,13.2c7.9,5.3,6.4,3.7,16.3,6c2.1,0.5,3.8,1.2,5.6,1.7c2.4,0.6,4.6,0.2,6.8,0.7
			c8.5,1.7,18,1.8,27,2.5c32.8,2.7,37.1,0.9,67.1-3.7c4.4-0.7,7.9-1.7,12.1-2.5c9-1.8,19.1-4.8,26.5-10.4l8.7-9.9
			c1.4-1.6,0.7-0.4,1.5-2.4c-3.6,0-10.7,3.1-13.7,4.6c-9.9,4.8-19.6,4-28.1,7.3c-4.2,1.6-8.1,4-13.2,4h-0.6
			c-5.6-0.1-11.2,0.1-16.2,1.3c-4.2,1-11.8,0.5-16.6,0.9c-11.2,1.1-21.1,1.2-32.1-0.2c-16.6-2.1-21.3-5-28.6-6.2
			c-4.2-0.7-11.1-1.5-14.3-3.1C35.3,259.3,29.1,257.1,25.4,257.4z"/>
		<path class="st2" d="M19.5,49.1c1.3,1.6,3.5,2.8,6.4,2.8c1.2-0.4,12.3-13.1,19.2-17.3l14.5-7.4L76,21.4c2-0.6,3.7-1.1,5.6-1.7
			l5.5-1.8c0.1,0,1-0.4,1.2-0.5c5.5-1.7,5.6-2.4,13.2-3.1c3.2-0.3,3,0.4,3.4,0.7c-0.5,0.3,0,0.1-1.1,0.6c-1.9,0.8-2.6,0.5-4.4,0.7
			c-2.6,0.3-4,1-6,1.7l-2.2,0.6c-0.1,0-0.3,0.1-0.4,0.1L89,19.4C76.7,22.9,58.2,29.6,47.7,36l-12,9.4c-1.5,1.6-1.5,2.4-3.4,3.9
			c-1.7,1.3-2.6,1.8-3.1,4.4c2.4,2.9,2.2,0.4,9.2,4.4l9.4,4.1c2.6,0.8,5.2,1.3,8.1,1.5c-0.9-4.6-2-1.6-5.2-6.7
			c-0.9-1.5-1.8-7.3-1.8-9.5l0.6-0.6c0-0.1,0.2-0.2,0.3-0.3c0.1-0.1,0.2-0.2,0.3-0.3l8.8-6.4c0,0,1-0.5,1.2-0.5l2.5-1.5
			c5.1-2.5,12.9-5,18.9-8l14.4-7c4.4-2.4,6.1-2.3,10.9-3.7c2.6-0.8,7.1-2.9,10-4.1c4.9-2,6.4-0.8,9.8-4.9C121.2,9,91,14.3,86.5,15.9
			c-8.1,2.9-13.7,2.9-20.8,6.7c-6.9,3.7-9.1,1.3-24.7,11.8C35.5,38.1,22.6,44.3,19.5,49.1z"/>
		<path class="st2" d="M78.9,42.9c0.2,3-0.9,6.3-4,7.7c-3.1,1.3-6.4,2.9-7.9-0.7c-1.8-4.1,1.4-5.8,3.8-7.4
			C75.3,39.3,76.6,41,78.9,42.9L78.9,42.9z M98.9,36.2c2.4-1,7.7-1.3,10.7-0.6c0.5,0.1,8.1,3.2,6.4,6.7c-0.8,1.5-2.9,3.1-4.6,3.9
			c-4.3,1.9-9.9,7.1-16.7,4c-12.9-5.9-6.3-7.1-3.2-10C95.2,36.9,94.5,38.1,98.9,36.2L98.9,36.2z M54.8,51.1c0.3,3.7,1.9,4,6.8,5.8
			c2,0.7,20.1,1.4,22,1.3c6.6-0.3,14.5-3.4,19.3-4.6c5-1.3,15.4-2.2,19-5.3c2.3-2,3.8-4.4,6.1-6.2c0.4-5.5-1-7.1-4.4-9.1
			c-9-5.3-10.4-1.2-14.8-1c-5.8,0.3-10.7-0.1-18,2.3c-13.1,4.3-19,3.7-28,11.4C57.8,49.7,56.5,49.6,54.8,51.1z"/>
		<path class="st2" d="M128.7,10.4c2.1,1.7,12.1,1.1,14.7,1.8c2.1,0.6,3.6,1.4,6.1,1.7c2.6,0.3,5.6-0.4,8,0.5l11.7,4.6
			c7.7,2.3,6.7,4.3,11.8,5.3c-0.5-4.7-2.5-3.3-8.9-7.7c-8.9-6-19.7-5.2-27.5-6.1C141.5,10.1,131.5,8.7,128.7,10.4z"/>
	</g>
	<g>
		<path class="st3" d="M22.6,257.4c3.7-0.2,10,2,13.2,3.6c3.2,1.7,10.2,2.5,14.5,3.1c7.4,1.2,12.1,4.1,29,6.2
			c11.1,1.4,21.2,1.3,32.5,0.2c4.8-0.5,12.7,0.1,16.9-0.9c5.1-1.2,10.8-1.4,16.4-1.3h0.6c5.1,0.1,9.1-2.3,13.4-4
			c8.6-3.3,18.5-2.5,28.5-7.3c3.1-1.5,10.3-4.6,13.9-4.6c-0.8,2.1,0,0.8-1.5,2.4l-8.8,9.9c-7.5,5.6-17.8,8.6-26.9,10.4
			c-4.2,0.8-7.9,1.8-12.3,2.5c-30.5,4.7-34.8,6.4-68.1,3.7c-9.2-0.7-18.7-0.8-27.4-2.5c-2.2-0.4-4.4,0-6.9-0.7
			c-1.8-0.5-3.5-1.2-5.7-1.7c-10-2.3-8.5-0.7-16.5-6C22.6,267.4,17.9,266.5,22.6,257.4L22.6,257.4z M52.4,51.1c1.8-1.5,3-1.4,8-5.6
			c9.1-7.7,15.1-7.1,28.4-11.4c7.4-2.4,12.4-2,18.3-2.3c4.5-0.2,5.9-4.3,15,1c3.5,2,4.9,3.6,4.5,9.1c-2.3,1.9-3.8,4.2-6.2,6.2
			c-3.7,3.1-14.2,4-19.3,5.3c-4.8,1.2-12.8,4.3-19.5,4.6c-1.9,0.1-20.3-0.6-22.3-1.3C54.3,55.1,52.7,54.8,52.4,51.1L52.4,51.1z
			 M111.1,19.6c-6.8,3.2-7,2.4-11.9,4.1c2.2,2.5,2.5,0.8,7.1,1.8c4.5,1,9.3,0.1,13.7,2.1c7.3,3.2,4.4,0,10.4,6
			c1.9,1.9,2.1,2,1.7,5.6c-0.4,2.7,0.9,4.5-0.3,6.4c-0.7,1.2-3.5,2.3-4.8,3.7c-2.4,2.4-6,6.2-8.3,7.5c-4.4,2.5-5.7,4.1-11.7,4.9
			c-2.6,0.3-2.4,1.6-13,2.8c-5.2,0.6-8.7,2.2-13.2,3.3c3.1,2.5,9.9,1.8,13.7,1.8c0.5,0,1.2,0,1.7,0c3.8-0.4,3.7-1.7,12.5-1.5
			c6.8,0.2,25.1-4.4,31.4-7.3c2.4-1.1,2.8-1.3,5.8-2l12.2-3.6c7.6-2.4,15-7.7,18.7-13.3c1.2-1.9,2.5-2.7,3.2-4.2c0.7-1.4,2.1-5,2-6
			c-0.2-4.3-5.7-4.8-8.9-7.2c-4.4-3.2-19-8.1-23.1-8.1c-3.2,0-3.8-0.2-6.3-1.1l-14.5-1c-1.9,0.5-3.6,1.5-6,2
			C117.8,17.3,118.7,16,111.1,19.6L111.1,19.6z M142.3,12.2c-2.7-0.7-12.8-0.1-14.9-1.8c2.9-1.7,12.9-0.3,16.1,0.1
			c8,0.8,19,0,27.9,6.1c6.5,4.4,8.5,3,9.1,7.7c-5.2-1-4.2-3-12-5.3l-11.9-4.6c-2.4-0.9-5.4-0.2-8.1-0.5
			C145.9,13.6,144.5,12.8,142.3,12.2L142.3,12.2z M16.6,49.1c1.3,1.6,3.5,2.8,6.5,2.8c1.2-0.4,12.5-13.1,19.5-17.3l14.7-7.4
			l16.6-5.6c2-0.6,3.8-1.1,5.7-1.7l5.6-1.8c0.1,0,1-0.4,1.2-0.5c5.6-1.7,5.7-2.4,13.4-3.1c3.3-0.3,3,0.4,3.5,0.7
			c-0.5,0.3,0,0.1-1.2,0.6c-1.9,0.8-2.7,0.5-4.5,0.7c-2.6,0.3-4.1,1-6,1.7l-2.2,0.6c-0.1,0-0.3,0.1-0.5,0.1l-1.8,0.5
			C74.6,22.9,55.8,29.6,45.2,36l-12.2,9.4c-1.5,1.6-1.6,2.4-3.5,3.9c-1.8,1.3-2.7,1.8-3.1,4.4c2.4,2.9,2.2,0.4,9.3,4.4l9.6,4.1
			c2.6,0.8,5.3,1.3,8.2,1.5c-0.9-4.6-2.1-1.6-5.2-6.7c-0.9-1.5-1.8-7.3-1.9-9.5l0.5-0.6c0.1-0.1,0.2-0.2,0.3-0.3
			c0.1-0.1,0.2-0.2,0.3-0.3l8.9-6.4c0,0,1.1-0.5,1.2-0.5l2.5-1.5c5.2-2.5,13.1-5,19.2-8L94,23c4.5-2.4,6.1-2.3,11-3.7
			c2.7-0.8,7.2-2.9,10.1-4.1c5-2,6.5-0.8,9.9-4.9C119.8,9,89.2,14.4,84.7,16c-8.2,2.9-13.9,2.9-21,6.7c-7.1,3.7-9.2,1.3-25,11.8
			C32.9,38.1,19.7,44.3,16.6,49.1L16.6,49.1z M17.9,63.7c2.6-0.1,3.5,1,5.3,1.8c5.7,2.6,11,4.7,17,6.4c4.5,1.2,8.7,1.6,13.2,2.6
			c5.4,1.2,7.3,1.8,13.4,2.2c10.2,0.7,18.5,1.7,29.6,1c31-1.9,17.5-0.8,39.7-7.3c11.1-3.2,34.8-12.5,43.4-19
			c1.7-1.3,2.3-2.4,4.2-3.8c3.1-2.2,5.3-4.4,7.3-8c1.7-3,1-3.4-0.1-5.8c-1.6-3.5-2.3-8-3.4-12.2c-0.7-2.7-1.6-2.7-3-4.8
			c-2.6-4-3.6-5.4-7.9-8c-1.3-0.8-3.5-1.8-4.9-2.3c-3.4-1.3-8.9-1.8-12.8-3.1c-5.1-1.7-23.7-1-29.3,0c-4.4,0.8-9.1,1.2-14,1.3
			c-10.2,0.2-17.5,4.2-26.7,4.5c-5.4,0.2-7.6,2.4-12.1,3.8c-4.2,1.2-8.3,1.3-12.2,3L53.4,21c-2.3,0.8-3.8,1.2-6,2
			c-2.2,0.8-3.7,1-5.4,1.8l-15.9,7.8c-0.5,0.2-1.3,0.6-1.5,0.7c-0.5,0.2-0.6,0.2-1.2,0.6c-3.8,2-6.7,5.8-9.4,9.3
			c-7.9,10.5-4.1,11.1-2.9,14.4c2.7,7-0.4,2.1,0.8,15.1l1.6,16.6c0.2,2.3,0.7,2.4,0.6,5.3c-5.2,2.9-9.5,6-10.5,13.3
			C2,119.5,11,122,8.8,126.1c-4.1,7.6-6.2,11,3.1,16.9c-0.1,3.3-1.6,4.2-2.6,6.9c-0.3,0.8-0.2,0.9-0.5,1.8l-0.6,1.7
			c-3.6,9.1,4,7.7,6.9,12.5c-2.6,4.3-10.7,10.2-2.7,17.4c1.4,1.2,0.7,0.3,1.7,1.9c-1.4,4.2-5.1,3.3-5,10.2c0.1,4.9,2,6.6,6.1,8.3
			c-0.3,4-4.3,6.8-4.5,10.4c-0.3,4.8,6.2,7.7,3.6,11.6l-1.2,1.6c-1.8,2.3-2.2,5-2,8.3c0.4,5.6,3.2,6.4,5.7,9.7
			c0.6,1.8-1.7,7.7-2.8,9.6c-0.1,0.1-0.4,0.5-0.4,0.7c-2.1,4.1,1,10,3.8,13c9.3,10,14.3,10.1,26.6,14.7c2.5,1,4.2,2.3,6.9,3.1
			c12.4,3.8,25.4,2.6,38.2,3.8c3.4,0.3,7.3,0.2,10.6,0.1l27.4-3.1c2.1-0.4,3.3-0.1,5.2-0.5c9.7-1.7,39.5-6.6,46.6-10.6
			c7.8-4.4,20.4-9.3,25.2-16.2c2.5-3.7,7.2-8.1,8.4-12.7c1.4-5.1,1.1-3.5,4-6.8l2.9-4.4c1.1-2.4,1.4-3.9,0.4-6.1
			c-1.1-2.3-0.8-0.9-1-4.2c-0.2-5.3-2.3-7.9-2.3-8c-0.2-3.3,6.7-8,3.8-18.4c-0.8-3-1.8-2.5-2.9-4.8c1.7-3,5.6-4.5,4.4-10.7
			c-1.1-5.7-3.1-5.2-5.7-9.2c0.8-3,4.7-4.9,2.7-10.1c-1.6-4.1-5-5.1-6.2-8l2.3-1.9c0.4-0.3,2-1.6,2.1-1.8c1.9-2.6-0.7-8.1-1.3-11.2
			c-0.8-4.4-1.1-2.3-2.3-5c0-1.9,9.2-12,1.9-21.3c-0.6-0.8-0.3-0.2-1-1.2c-2.1-3,4.8-4.2-0.6-10.8c-1.3-1.6-1.4-2.3-2.7-4.1
			c-1-1.4-2.6-2.1-3.5-3.5c0.8-1.6,0-0.1,1-1.5c0.5-0.7,0.5-0.4,0.9-1.2c0.4-0.9,0.5-2.4,0.7-3.5c0.3-2.4,1-4.7,0.1-6.9
			c-1.7-3.8-5.3-6-10.4-6c-0.6-2.6-1.4-5-2.2-8.1c-2.1-8.6-1-22.3-6.3-23.5c-3,2.3-0.7,2.2-1.9,6.4c-0.5,1.7-0.8,0.6-0.8,3
			c-0.1,3.8,1.7,14.7,2.2,18.3c1,6.2-0.7,9.7,5.7,10.3c6.8,0.7,9.3,0.5,9.2,8c-1.5,1.3-1.7,1.8-3.9,2.8c-6.3,3-3.4,3.2-1.5,5
			c3.7,3.5,7.4,1.9,8.5,5.3l0.4,4.7c-1,6.2-8.9,3.9-10.2,9.7c3,3.7,5.4,1.3,9.4,3c7.7,3.1,3.9,11.4-0.6,14.5c-2.4,1.7-6.2,1.5-8,3.5
			c0.3,1.5,0.7,1.5,1.4,2.6l8.3-0.7c3.4,4.4,6.6,6.2-0.8,10.1c-4.5,2.3-6,0.1-7.4,4.4c0.5,0.8,2.5,3.4,3.3,4c2,1.6,2.8,0.3,6,0.3
			c2.3,3.4,4.7,4.7,0.4,9.3c-5.1,5.4-4.7,2.4-8.9,4.7c-0.1,3.3,0.5,1.5,2.3,3.5c1.2,1.3,0.7,1.6,2.5,2.8c2.9-1.4,3.5-2.8,6.7-0.2
			c2.5,2,2.5,3.1,0.9,5.8c-1.6,2.5-2.1,3.6-4.4,5.3c-2.4,1.9-3.8,1.7-5.8,3.1c0.2,4.8,4.2,2.5,7.5,3.3c3.1,0.7,5,4,5.6,6.8
			c0.9,4.4-4.2,9.3-7.6,10.9c-2.5,1.2-5.8,0.8-3.5,4.5c0.6,0.9,1.1,1.2,1.7,1.9c1.7-0.4,1.8-0.7,3.7-1.1c2.4,3.7,5.4,6.2,0.5,10.6
			c-4.4,4-1.4,8.5-17.6,15.4c-3.8,1.6-7.3,3.3-10.9,4.9c-5.7,2.4-19.6,5.7-26,7c-9.3,1.9-17.7,3.4-27.6,4.8
			c-9.1,1.2-27.9-1.5-30.6,0c-1.8,1,1.1,0.1-1.6,0.8c-2.2,0.5-21.9-3.2-26.6-3.3c-7.9-0.2-27.6-3.6-35.6-6.1
			c-2.9-0.9-2.9-1.5-5.4-2.5c-10.4-4.2-4.7-3.4-8.8-6.8c1.6-1.7,2.8-2.5,3-5.3l-0.1-0.8c-0.4-3.1-4,1-7.9-1.6
			c-0.6-5.5-1.2-6,1.7-9.6c1.1-1.3,1.9-2.9,3.1-3.7c2.2-1.5,6-1.8,2.9-8.6c-4.4,0.1-4.5,0.4-8.2-0.9c-0.1-4.6,2.8-7.3,5.7-10
			c0.9-0.9,1.7-1.1,2.8-1.8V199c-2.8-1.7-2.7-0.8-6.6-1.4c-1.6-1.7-3.6-4.1-1.8-7.5c1.2-2.3,4.1-2.4,6.3-3.9c0-1.2-0.1-2.4-0.5-3.4
			c-0.9-2.3-4.6-1.9-7.4-3.9c-0.7-5.4,1-7.3,4.1-9.6c4.3-3.1,2.8-4,4.2-9.2c-4.7-2.2-12.5-7.5-5.6-12.6c2.4-1.8,1.4-0.1,2.4-3.4
			c0.4-1.3,0.4-3.3,0.8-3.9c0.3-0.6,0.8-0.6,1.2-1.5c0.2-0.5,0.1-0.5,0.1-1.2c0-3.7-4.9-0.5-7.5-1.4c-2.7-0.9-2.2-4.2-2-7.5
			c2.4-2.2,3-2,5.8-3.8c9.9-6.5-2.1-4.4-4.9-7.5c-5.6-6.2-0.7-14,5.2-17.7c1.6-1,1.6-0.5,3.3-1.7l-2.2-16.9
			C18.3,75.4,17.5,70.2,17.9,63.7z"/>
		<path class="st3" d="M84.9,150.6c4.9-0.1,0.9-2.7,12-7.9l14.5-5.3c4-1,15-0.9,18.6,0.3c3.7,1.2,8.6,5.9,11.8,8.1
			c4.4,3,4.8,7.6,6.3,13.7c3,12,0,19.8-6.3,30.4c-3.9,6.5-13.9,14.8-21.9,17.4c-5.4,1.8-10.4,3.2-16.9,2.8c-4.8-0.3-11.1-2.6-15.7-4
			c-8.1-2.5-15.9-13-19.1-20.2c-1.8-4.2,0.3-13.9,0.8-18.3c0.5-4.7,3.3-10.3,6.2-13.7c1.8-2.1,8-7.5,11.4-7.9
			C86.6,150,85.7,147.6,84.9,150.6L84.9,150.6z M150.9,159.7c0.8-1.9-4.2-11.6-6.2-13.8c-1.6-1.7-9.1-8.2-11.5-9.4
			c-3.9-2-12.9-2.6-18.3-2.5c-3.9,0-6.1,2-8.6,2.2c-3.6,0.2-2.2-2.1-7.7,0.1c-1.9,0.7-1.9,1-3.9,1.8l-9.6,5.6
			c-12.3,8.6-11.6,5.9-15.8,15.8c-1.3,2.9-2.4,3.6-2.9,7.2c-0.7,4.9-2.3,14.2-0.7,19.1c1.9,5.7,4.8,9.3,7.7,13.9
			c4.1,6.7,12.9,9.5,20.2,11.2l8.2,1.9c7.6,0.7,12-1,17.9-2.8c3.5-1.1,10.8-5.6,13.3-7.7c3.6-3.1,7.6-6.6,10.1-10.9
			c3.4-5.8,8.5-15.7,8.4-23.1C151.5,165.4,149.9,162.1,150.9,159.7z"/>
		<path class="st3" d="M175.2,229.5c1-2.7,5.3-1.8,6.2-1.1C179.9,229.2,176.5,230.2,175.2,229.5L175.2,229.5z M131.4,241.1
			c2.5,0,6.8-2.1,18.1-2.1c15,0,18.4-5.5,32.2-8.1c6.6-1.2,7.9-3.6,10.9-4.2c1.7-0.4,2.4-0.2,3.8-0.7c0-4.1-4.3-2.5-7.9-1.7
			c-12.6,2.8-7.9,1.2-17.5,5.3c-9,3.8-4.1,1.5-8.7,2.7c-1.7,0.4-2.4,1.1-4.6,1.6l-14.5,2.5c-6.8,1.6-12.4,2.6-19.9,1.9
			c-6.8-0.6-14.3,1.3-22,1.1c-7.7-0.2-14.2,0.6-22.1,0.6c-8.9,0-17.7-1.1-22.1-1.1c-3.8,0-7.6,0-11.4-0.1c-5.8-0.2-5.3-1.5-9.2-2.2
			l-1.3,2c6.8,4.4,13.6,2.7,23,3.1c17.6,0.7,20.3,1.1,37.5-0.2c4.7-0.4,8.1,0.6,11.9,0.3c3.7-0.3,8.2-0.9,11.9-1.2
			C123.9,240.2,127.3,241.1,131.4,241.1z"/>
		<path class="st3" d="M28,87.1c4.3,4.3,9.2,4.4,15,5.6c5.8,1.2,12.6,2.3,18.7,2.9l20.4,1.1c14.2-1,17.9-0.7,31.2-0.9
			c3.6,0,25.8-4.2,28.3-4.3c7.5-0.3,18.5-4.1,26.7-5.5c3-0.5,6.7-0.5,5.1-4.3c-2.9-1.2-3.1,1.1-6.8,2.2c-2.8,0.8-6.2,1.4-9,2
			c-1.9,0.4-2.1,0.6-4,1.1c-10.8,2.7-21.2,3.3-31.7,5.2c-3.4,0.6-4.6,1.4-9.3,1.5c-3.6,0-7.2-0.1-10.8-0.1
			c-19.8,0.1-18.3,1.7-41-0.5c-4.4-0.4-23.2-3.3-26.8-5C31.5,86.8,30.3,84.3,28,87.1z"/>
		<path class="st3" d="M97.2,36.2c-4.5,1.9-3.8,0.7-7.5,3.9c-3.2,2.8-9.8,4.1,3.2,10c7,3.1,12.6-2.1,16.9-4c1.8-0.8,3.9-2.4,4.7-3.9
			c1.8-3.4-5.9-6.5-6.5-6.7C104.9,35,99.6,35.2,97.2,36.2z"/>
		<path class="st3" d="M187.5,193.9c3.7-3.7-0.4-38.3-0.9-45.5c-0.3-4.2-0.6-6.2-0.7-10.8c-0.2-6-2.8-27.8-6.9-31.4
			c0.6,3.1,0.9,6.4,1.8,9.5c3.9,12.2,3.8,41.3,5.7,55.1C187.5,178.2,186.9,185.9,187.5,193.9z"/>
		<path class="st3" d="M43,221.9c1.5-1.7,1.3-6.3,0.6-8.9c-1.9-7-3.3-29.6-3.2-37.9c0-4.6-0.7-5.4-0.9-9c-0.1-1.6-0.6-16.7-1.2-18
			c-1.6,7.5,0.5,20.8,0.8,28.7c0.5,13,0,14,1.7,29C41.8,215,40,220.7,43,221.9z"/>
		<path class="st3" d="M76.9,42.9c-2.4-1.8-3.7-3.5-8.2-0.4c-2.4,1.6-5.6,3.3-3.9,7.4c1.5,3.6,4.8,2.1,8,0.7
			C76,49.1,77.1,45.9,76.9,42.9z"/>
		<path class="st3" d="M163.1,185.8c-0.2-3.7-0.2-4.3-0.1-7.9c0.1-3.3-0.7-19.5-1.6-22.1c-0.4-1.2-0.1-0.5-0.5-1.2
			c-0.1,0.1-0.1,0.3-0.1,0.4l0.7,15.7c0.7,5.2-0.7,16.6,1,23.9c0.5,2.3,0.8,5,1.1,7.4c0.5,4.1-0.7,12.6,3,13.8
			C167.6,213.7,163.5,193.4,163.1,185.8z"/>
		<path class="st3" d="M160.9,153.5c0.7-1.1-0.5-45.6-4.5-50.9c-1.1,2.2,0.8,8.9,1.2,11.7c0.5,3.7,1,9.3,1.2,13.1l1,19.9
			c0,1.1,0,2.2,0.2,3.2C160.7,154.9,158.8,150.3,160.9,153.5z"/>
		<path class="st3" d="M59,152.4l-1.2-17.4c-0.7-6-1.6-11.2-2.1-17.5c-5-0.5-0.1,8.5,0.2,16.6c0.2,3.9,0.4,7.4,0.5,10.8
			C56.5,148,56,152.6,59,152.4z"/>
		<path class="st3" d="M38.3,144.8c1.8-4.2-0.7-3.8-0.1-9.6c0.8-6.9-0.8-17.6-0.7-23.2c0.1-2.8,1.1-8.8-1.6-9.3
			c-1.3,2.8,0.1,17.5,0.6,21.1C37.2,128.7,36.9,141.3,38.3,144.8z"/>
		<path class="st3" d="M88.6,184.5c-9.5-4.7,3.9-18.4,4.1-19c-5.9,0.1-10.9,11.8-9.1,16.6C84.5,184.2,86.4,185.8,88.6,184.5z"/>
		<path class="st3" d="M140.5,214.2c-1.6,0.5-1.5,0.1-1.6,2.2c-0.2,2.3-0.2,9,1.7,10.4C141.4,225,141.7,216.2,140.5,214.2z"/>
		<path class="st3" d="M123.6,163.9c-0.3,0.6-0.7,10.3,1.7,8.9c1.3-0.7,1.1-3.5,0.9-5.1C126,165.2,125.8,164.2,123.6,163.9z"/>
		<path class="st3" d="M130.2,117.6c-0.4-2.6-1.2-2.4-1.9-5.4c-0.6-2.7,0.3-4.9-1.9-5.7c-0.8,1.7-0.3,4.2,0.2,6.4
			C127.1,115.3,127.6,117.4,130.2,117.6z"/>
		<path class="st3" d="M83.2,217c-4.3-3.2-4.3,2.8-3.5,4.8c0.8,2-0.2,1.1,1.9,1.3L83.2,217z"/>
		<path class="st3" d="M79.6,122.1c0.2-2.4-0.3-4-0.6-6c-0.3-2.6-0.1-4-2.1-5c-1,1.7,0.2,3.8,0.6,5.6
			C78.2,120,76.9,121.1,79.6,122.1z"/>
		<path class="st3" d="M108.8,222.7c-2.2,0.6-1.6,0.9-1.6,4c0,2.7-0.5,3.1,1.5,3.7c0.8-1.3,0.7-1.6,0.8-3.7
			C109.7,222.5,109.1,223.2,108.8,222.7z"/>
	</g>
</g>
</svg>
