<?xml version="1.0" encoding="utf-8"?>
<!-- Generator: Adobe Illustrator 22.1.0, SVG Export Plug-In . SVG Version: 6.00 Build 0)  -->
<svg width="615px" height="826px" version="1.1" id="Layer_1" xmlns="http://www.w3.org/2000/svg" xmlns:xlink="http://www.w3.org/1999/xlink" x="0px" y="0px"
	 viewBox="0 0 615.3 826" style="enable-background:new 0 0 615.3 826;" xml:space="preserve">
<style type="text/css">
	.st0{fill:#D17575;}
	.st1{fill:#CC5B5D;}
	.st2{fill:#D0D1D3;}
	.st3{fill:#4C2405;}
</style>
<g>
	<g>
		<polygon class="st0" points="60.7,166.4 65.4,266.3 37.2,307.1 48.9,344.2 45.4,376.4 65.4,398.7 46.6,441.9 66.5,466.7 
			53.6,492.7 56,516.2 73.6,522.4 54.8,542.1 58.3,560.7 75.9,573.1 56,601.5 60.7,616.4 65.4,632.4 59.5,657.2 60.7,679.4 
			72.4,690.6 73.6,712.8 213.2,748.7 381,754.9 483,728.9 578.1,688.1 603.9,655.9 595.7,612.7 613.3,574.3 596.9,548.3 
			607.4,521.1 589.8,492.7 599.2,463 585.1,439.5 598,420.9 586.3,386.3 595.7,347.9 587.5,323.2 591,298.5 569.9,270 581.6,246.5 
			553.4,219.3 525.3,99.3 483,143.8 305.9,200.7 125.2,182.2 		"/>
		<path class="st1" d="M257.9,519.5c-6.1,3.8-11-0.8-13.3-7c-5-13.5,8.5-46.6,24.4-46.8C268.3,467.5,232.4,506.1,257.9,519.5
			L257.9,519.5z M356.3,486.5c-6.5,3.8-5.4-23.5-4.6-25.2c5.8,0.7,6.2,3.7,7.1,10.7C359.3,476.6,359.7,484.6,356.3,486.5
			L356.3,486.5z M247.9,423.8c2.2-8.6,4.6-1.8,4.6-12.8c-9,1.1-25.5,16.4-30.5,22.4c-7.8,9.4-15.1,25.4-16.5,38.6
			c-1.3,12.4-7,39.8-2.1,51.7c8.4,20.4,29.4,49.9,51.1,57.1c12.2,4.1,29.1,10.6,42.1,11.4c17.6,1.1,31-3,45.4-8
			c21.6-7.4,48.4-30.8,58.7-49.3c16.8-30.1,24.9-52.2,16.9-86c-4-17-5.2-30-17-38.6c-8.6-6.3-21.7-19.4-31.6-22.9
			c-9.7-3.4-39.2-3.6-50-0.8l-39,14.9C250.4,416.1,261,423.5,247.9,423.8z"/>
		<path class="st2" d="M286.4,65c6,7.1,6.8,2.3,19.1,5.1c11.9,2.7,24.9,0.4,36.8,5.9c19.5,9,11.8,0,27.9,17
			c5.1,5.4,5.7,5.7,4.5,15.7c-1,7.7,2.4,12.8-0.7,18.2c-1.9,3.3-9.5,6.6-13,10.4c-6.4,6.9-16.1,17.5-22.4,21.3
			c-11.8,7.2-15.4,11.6-31.3,13.8c-6.9,0.9-6.5,4.4-34.8,7.9c-13.9,1.7-23.2,6.1-35.3,9.3c8.2,7.2,26.6,5,36.7,5.1
			c1.2,0,3.3,0,4.4-0.1c10.2-1,10-4.9,33.5-4.2c18.2,0.5,67.4-12.5,84.3-20.5c6.5-3,7.6-3.8,15.6-5.7l32.8-10.3
			c20.4-6.8,40.3-21.9,50.1-37.6c3.3-5.4,6.7-7.7,8.6-11.9c1.8-4,5.6-14.1,5.4-17.1c-0.6-12.1-15.4-13.7-24-20.3
			c-11.6-9-51.1-23-61.8-23c-8.5,0-10.2-0.6-16.8-3.1l-38.9-2.8c-5.1,1.3-9.7,4.1-16.1,5.6c-15,3.5-12.8-0.1-33,10
			C300,62.6,299.3,60.2,286.4,65z"/>
		<path class="st2" d="M80.8,725.6c-12.6,25.7,0.1,28.4,12.9,37.3c21.5,15,17.5,10.5,44.3,17c5.7,1.4,10.3,3.5,15.2,4.8
			c6.6,1.8,12.6,0.7,18.5,1.9c23.2,4.7,48.9,5,73.4,7c89.2,7.6,100.9,2.6,182.6-10.6c11.9-1.9,21.6-4.7,33-7.1
			c24.6-5.1,52-13.5,72.1-29.3l23.6-28.1c3.9-4.4,1.9-1,4-6.8c-9.8-0.1-29.1,8.8-37.3,12.9c-26.9,13.5-53.4,11.3-76.4,20.6
			c-11.4,4.6-22.1,11.4-35.9,11.3l-1.5,0c-15.2-0.2-30.5,0.4-44.1,3.7c-11.3,2.7-32.2,1.3-45.2,2.6c-30.5,3-57.4,3.4-87.2-0.6
			c-45.1-6-57.8-14-77.7-17.5c-11.4-2-30.2-4.2-38.8-8.9C107.6,731.2,90.8,724.9,80.8,725.6z"/>
		<path class="st2" d="M64.7,136.8c3.6,4.5,9.4,7.9,17.5,7.8c3.3-1.1,33.5-36.9,52.2-49l39.5-21l44.4-15.9c5.4-1.7,10.1-3,15.2-4.8
			l14.9-5.1c0.4-0.1,2.6-1,3.3-1.3c15-4.9,15.3-6.9,36-8.8c8.7-0.8,8.2,1.1,9.3,2c-1.3,0.9,0.1,0.4-3.1,1.8c-5.3,2.3-7.1,1.5-12.1,2
			c-7,0.8-10.9,2.8-16.2,4.9l-6,1.8c-0.4,0.1-0.8,0.2-1.2,0.3l-4.7,1.4c-33.5,10-83.8,28.8-112.2,46.9l-32.6,26.5
			c-4,4.5-4.2,6.9-9.3,11c-4.7,3.8-7.1,5-8.4,12.3c6.4,8.2,5.9,1.2,25.1,12.4l25.6,11.7c7,2.2,14.1,3.7,21.9,4.1
			c-2.4-13.1-5.5-4.4-14.1-18.9c-2.4-4.1-4.8-20.5-5-26.9l1.5-1.6c0.1-0.2,0.5-0.6,0.7-0.8c0.2-0.2,0.5-0.6,0.7-0.8l23.9-18
			c0.1,0,2.8-1.3,3.2-1.5l6.7-4.2c14-7.2,35.1-14.2,51.4-22.5L272,62.9c11.9-6.7,16.5-6.5,29.6-10.6c7.1-2.2,19.3-8.1,27.1-11.5
			C342,35.1,346,38.6,355.3,27c-13.9-3.6-96.1,11.6-108.2,16.1c-22.1,8.3-37.3,8.2-56.5,18.8c-18.9,10.4-24.7,3.7-67.1,33.4
			C108.4,105.8,73.1,123.3,64.7,136.8z"/>
		<path class="st2" d="M226.4,119.2c0.6,8.6-2.5,17.9-11,21.7c-8.5,3.8-17.3,8.2-21.4-2c-4.8-11.7,3.9-16.3,10.3-21
			C216.4,109.3,220.1,114.1,226.4,119.2L226.4,119.2z M280.7,100.5c6.5-2.9,20.9-3.6,29.2-1.7c1.4,0.3,22.1,9.1,17.3,18.8
			c-2.1,4.2-7.9,8.7-12.6,10.9c-11.6,5.4-26.8,20.1-45.4,11.3c-35-16.6-17.2-20.2-8.6-28.2C270.6,102.4,268.8,105.9,280.7,100.5
			L280.7,100.5z M160.7,142.5c0.7,10.6,5.1,11.4,18.4,16.3c5.4,2,54.6,4,59.8,3.7c18-0.9,39.4-9.6,52.4-13
			c13.7-3.6,41.8-6.1,51.8-15c6.3-5.6,10.4-12.3,16.5-17.6c1-15.5-2.8-20.1-12.1-25.8c-24.4-15-28.2-3.5-40.3-2.9
			c-15.8,0.9-29.2-0.4-49,6.4c-35.6,12.2-51.6,10.4-76.1,32.1C168.8,138.5,165.5,138.3,160.7,142.5z"/>
		<path class="st2" d="M361.8,27.4c5.8,4.7,32.8,3,40,5.1c5.7,1.7,9.7,4,16.6,4.8c7,0.8,15.3-1.2,21.7,1.5l31.9,12.9
			c20.9,6.4,18.1,12.1,32.1,14.9c-1.4-13.4-6.9-9.4-24.3-21.8c-24.1-17.1-53.5-14.8-74.9-17.2C396.5,26.7,369.5,22.7,361.8,27.4z"/>
	</g>
	<g>
		<path class="st3" d="M51.9,725.6c10.6-0.7,28.3,5.6,37.4,10.3c9.1,4.7,28.9,7,40.9,8.9c20.9,3.5,34.3,11.5,81.9,17.5
			c31.5,3.9,59.8,3.6,92,0.6c13.7-1.3,35.8,0.2,47.7-2.6c14.3-3.3,30.5-3.9,46.5-3.7l1.6,0c14.5,0.2,25.8-6.6,37.8-11.3
			c24.3-9.4,52.2-7.2,80.5-20.6c8.7-4.1,29-13,39.4-12.9c-2.2,5.8-0.1,2.4-4.2,6.8l-24.8,28.1c-21.3,15.8-50.2,24.2-76.1,29.3
			c-12,2.4-22.3,5.2-34.8,7.1c-86.2,13.2-98.5,18.2-192.5,10.6c-25.9-2.1-52.9-2.3-77.4-7c-6.2-1.2-12.5-0.1-19.5-1.9
			c-5.1-1.3-10-3.4-16-4.8c-28.3-6.5-24-2-46.7-17C52,754,38.6,751.3,51.9,725.6L51.9,725.6z M136.1,142.5c5.1-4.2,8.6-4,22.5-15.8
			c25.8-21.8,42.7-20,80.2-32.1c20.9-6.8,35-5.6,51.7-6.4c12.8-0.7,16.8-12.1,42.5,2.9c9.8,5.7,13.9,10.3,12.8,25.8
			c-6.4,5.3-10.7,12-17.4,17.6c-10.6,8.9-40.2,11.4-54.6,15c-13.7,3.4-36.2,12.1-55.2,13c-5.5,0.3-57.4-1.7-63.1-3.7
			C141.5,153.9,136.9,153.1,136.1,142.5L136.1,142.5z M302.1,53.5c-19.1,9.1-19.9,6.8-33.5,11.5c6.3,7.1,7.2,2.3,20.2,5.1
			c12.6,2.7,26.3,0.4,38.8,5.9c20.5,9,12.5,0,29.4,17c5.4,5.4,6,5.7,4.7,15.7c-1,7.7,2.5,12.8-0.8,18.2c-2.1,3.3-10,6.6-13.7,10.4
			c-6.7,6.9-17,17.5-23.6,21.3c-12.4,7.2-16.2,11.6-33,13.8c-7.3,0.9-6.9,4.4-36.7,7.9c-14.7,1.7-24.5,6.1-37.2,9.3
			c8.7,7.2,28.1,5,38.7,5.1c1.3,0,3.5,0,4.7-0.1c10.8-1,10.5-4.9,35.3-4.2c19.2,0.5,71-12.5,88.8-20.5c6.8-3,8-3.8,16.4-5.7
			l34.6-10.3c21.5-6.8,42.5-21.9,52.8-37.6c3.5-5.4,7.1-7.7,9.1-11.9c1.9-4,5.9-14.1,5.7-17.1c-0.6-12.1-16.2-13.7-25.3-20.3
			c-12.3-9-53.8-23-65.2-23c-9,0-10.7-0.6-17.7-3.1l-41-2.8c-5.4,1.3-10.2,4.1-16.9,5.6C321.1,46.9,323.5,43.3,302.1,53.5
			L302.1,53.5z M390.3,32.5c-7.6-2.1-36.1-0.4-42.2-5.1c8.2-4.8,36.6-0.8,45.4,0.2c22.6,2.4,53.6,0.1,79,17.2
			c18.3,12.4,24.1,8.4,25.6,21.8c-14.8-2.8-11.9-8.5-33.8-14.9l-33.6-12.9c-6.8-2.6-15.4-0.6-22.9-1.5
			C400.5,36.5,396.4,34.2,390.3,32.5L390.3,32.5z M35,136.8c3.8,4.5,10,7.9,18.4,7.8c3.5-1.1,35.3-36.9,55-49l41.6-21l46.8-15.9
			c5.7-1.7,10.7-3,16.1-4.8l15.7-5.1c0.4-0.1,2.7-1,3.5-1.3c15.8-4.9,16.2-6.9,38-8.8c9.2-0.8,8.6,1.1,9.8,2
			c-1.4,0.9,0.1,0.4-3.3,1.8c-5.5,2.3-7.5,1.5-12.7,2c-7.4,0.8-11.5,2.8-17.1,4.9l-6.3,1.8c-0.4,0.1-0.8,0.2-1.3,0.3l-5,1.4
			c-35.3,10-88.3,28.8-118.3,46.9l-34.4,26.5c-4.2,4.5-4.4,6.9-9.8,11c-5,3.8-7.5,5-8.8,12.3c6.8,8.2,6.3,1.2,26.4,12.4l27,11.7
			c7.4,2.2,14.9,3.7,23.1,4.1c-2.5-13.1-5.8-4.4-14.8-18.9c-2.6-4.1-5.1-20.5-5.3-26.9l1.5-1.6c0.2-0.2,0.6-0.6,0.8-0.8
			c0.2-0.2,0.5-0.6,0.8-0.8l25.2-18c0.1,0,3-1.3,3.3-1.5l7-4.2c14.8-7.2,37-14.2,54.2-22.5l41.6-19.5c12.6-6.7,17.3-6.5,31.2-10.6
			c7.5-2.2,20.3-8.1,28.6-11.5c14-5.7,18.3-2.3,28-13.8c-14.7-3.6-101.3,11.6-114.1,16.1c-23.3,8.3-39.3,8.2-59.5,18.8
			c-20,10.4-26.1,3.7-70.8,33.4C81.1,105.8,43.8,123.3,35,136.8L35,136.8z M38.6,178.1c7.3-0.4,9.9,2.9,14.9,5.2
			c16,7.4,31,13.4,48,18c12.6,3.4,24.6,4.5,37.2,7.4c15.2,3.5,20.5,5.1,37.8,6.3c28.8,2,52.3,4.9,83.8,2.9
			c87.7-5.4,49.5-2.3,112.2-20.5c31.3-9.1,98.3-35.3,122.6-53.6c4.8-3.6,6.6-6.8,11.8-10.7c8.7-6.3,15-12.5,20.6-22.6
			c4.8-8.6,2.8-9.6-0.2-16.3c-4.4-9.9-6.4-22.6-9.5-34.4c-2-7.5-4.5-7.6-8.5-13.6c-7.4-11.2-10.3-15.4-22.2-22.5
			c-3.7-2.2-9.9-5.2-13.8-6.6c-9.7-3.6-25.2-5-36.2-8.7c-14.5-4.8-67.1-2.9-82.7,0c-12.4,2.3-25.6,3.5-39.6,3.8
			c-28.9,0.6-49.4,11.8-75.4,12.6c-15.4,0.5-21.4,6.9-34.3,10.7c-11.9,3.5-23.4,3.6-34.6,8.4l-31.4,13.5c-6.5,2.2-10.7,3.3-16.9,5.6
			c-6.2,2.3-10.4,2.7-15.4,5.2l-45,22.1c-1.3,0.6-3.6,1.8-4.3,2.1c-1.5,0.7-1.8,0.7-3.3,1.6c-10.7,5.7-18.9,16.4-26.5,26.4
			C5.3,150,16,151.8,19.6,161c7.6,19.7-1.1,6,2.3,42.7l4.6,46.8c0.6,6.5,1.9,6.9,1.6,15c-14.8,8.2-26.8,17-29.7,37.7
			c-4.6,32.8,20.7,39.8,14.5,51.3c-11.7,21.6-17.4,31.2,8.9,47.9c-0.4,9.4-4.6,11.9-7.3,19.5c-0.8,2.4-0.7,2.6-1.4,5.1l-1.6,4.7
			c-10.1,25.7,11.2,21.9,19.4,35.4c-7.3,12.2-30.3,28.8-7.6,49.2c3.9,3.5,2,0.8,4.9,5.3c-4,11.9-14.4,9.2-14.2,28.9
			c0.2,13.8,5.7,18.7,17.2,23.6c-0.8,11.3-12.2,19.2-12.8,29.4c-0.9,13.6,17.6,21.7,10.1,32.9l-3.5,4.5c-5,6.4-6.2,14.1-5.6,23.4
			c1.1,15.9,9.1,18.2,16,27.3c1.7,5.1-4.8,21.7-8,27.2c-0.2,0.4-1,1.5-1.2,2c-6,11.7,2.9,28.4,10.7,36.8
			c26.2,28.4,40.3,28.5,75.1,41.6c7.1,2.7,11.8,6.5,19.6,8.9c35,10.8,71.9,7.4,107.9,10.7c9.6,0.9,20.5,0.6,30.1,0.3l77.4-8.7
			c5.8-1.2,9.4-0.4,14.8-1.4c27.5-4.8,111.7-18.7,131.7-30c22-12.4,57.7-26.2,71.1-45.9c7.2-10.6,20.3-22.9,23.8-35.8
			c3.9-14.5,3.1-9.9,11.2-19.1l8.1-12.3c3-6.7,4-11,1.2-17.2c-3-6.5-2.4-2.6-2.8-11.8c-0.7-15-6.4-22.2-6.5-22.5
			c-0.7-9.3,19-22.7,10.8-52.1c-2.4-8.6-5.2-7-8.2-13.6c4.8-8.6,15.7-12.6,12.3-30.3c-3.2-16.1-8.8-14.7-16-25.9
			c2.4-8.4,13.3-13.8,7.5-28.6c-4.6-11.6-14-14.3-17.6-22.7l6.5-5.3c1-0.8,5.6-4.6,5.9-5.1c5.5-7.4-2-22.9-3.7-31.6
			c-2.4-12.5-3.2-6.5-6.6-14.2c-0.1-5.4,26-34,5.5-60.2c-1.8-2.3-0.9-0.5-2.9-3.4c-5.8-8.4,13.7-12-1.7-30.4
			c-3.8-4.6-3.9-6.5-7.6-11.7c-2.7-3.9-7.4-5.9-10-9.8c2.2-4.4,0-0.4,2.8-4.2c1.4-2,1.4-1.1,2.5-3.5c1.1-2.5,1.5-6.7,1.9-9.8
			c0.8-6.7,2.8-13.4,0.2-19.6c-4.7-10.8-15-17-29.3-17c-1.7-7.3-4-14-6.2-23c-5.9-24.2-2.7-63-17.7-66.5c-8.6,6.6-2.1,6.2-5.4,18.1
			c-1.4,4.9-2.2,1.8-2.4,8.5c-0.4,10.8,4.7,41.6,6.3,51.6c2.8,17.5-2.1,27.3,16.1,29.2c19.1,2,26.4,1.4,25.9,22.7
			c-4.3,3.8-4.7,5-11,8c-17.9,8.5-9.6,9.1-4.3,14.1c10.6,10,20.9,5.5,23.9,15.1l1.1,13.2c-2.9,17.5-25.2,11-28.9,27.4
			c8.6,10.4,15.2,3.8,26.5,8.4c21.7,8.8,10.9,32.2-1.7,41c-6.9,4.8-17.4,4.3-22.6,10c0.8,4.3,1.9,4.2,3.9,7.4l23.5-1.9
			c9.5,12.5,18.6,17.5-2.3,28.5c-12.6,6.6-16.9,0.2-20.9,12.5c1.4,2.2,7,9.6,9.2,11.4c5.6,4.5,7.8,0.9,16.9,0.9
			c6.5,9.6,13.4,13.2,1,26.3c-14.4,15.2-13.4,6.8-25.1,13.3c-0.3,9.2,1.5,4.3,6.6,9.8c3.5,3.8,1.9,4.5,7.1,8c8.1-3.9,10-7.9,19-0.6
			c7.1,5.6,7.2,8.9,2.5,16.5c-4.4,7.2-6,10.1-12.3,15.1c-6.7,5.4-10.7,4.9-16.5,8.8c0.5,13.5,11.9,7.2,21.2,9.3
			c8.8,1.9,14.1,11.2,15.7,19.1c2.5,12.5-12,26.3-21.4,30.8c-7,3.4-16.4,2.3-9.9,12.7c1.6,2.5,3,3.5,4.9,5.4c4.7-1,5-1.9,10.4-3
			c6.8,10.6,15.2,17.5,1.4,30.1c-12.3,11.2-4,24.1-49.8,43.4c-10.8,4.6-20.5,9.4-30.9,13.9c-16.2,6.9-55.5,16.2-73.4,19.9
			c-26.2,5.4-50.1,9.7-78,13.5c-25.6,3.4-78.9-4.3-86.4-0.1c-5.1,2.9,3.2,0.4-4.5,2.3c-6.3,1.5-61.8-9.1-75.2-9.4
			c-22.4-0.6-78.1-10.3-100.5-17.3c-8.2-2.6-8.1-4.3-15.4-7.2c-29.4-11.8-13.3-9.5-24.8-19.3c4.4-4.9,8-7.2,8.5-15l-0.2-2.2
			c-1-8.8-11.3,2.9-22.4-4.5c-1.6-15.6-3.5-17,4.9-27.2c3-3.7,5.3-8.2,8.7-10.5c6.3-4.3,17.1-5,8.1-24.2c-12.5,0.4-12.7,1-23.2-2.5
			c-0.3-13,7.9-20.6,16.1-28.4c2.6-2.5,4.8-3.1,7.9-5.1l0-13c-7.8-4.8-7.6-2.3-18.6-3.9c-4.5-4.7-10.3-11.5-5.2-21.1
			c3.4-6.5,11.7-6.7,17.9-10.9c0-3.5-0.4-6.9-1.5-9.6c-2.6-6.5-13-5.5-20.8-11.1c-2-15.4,2.7-20.7,11.5-27.1
			c12.2-8.9,7.8-11.4,11.8-25.9c-13.3-6.3-35.4-21.3-15.7-35.7c6.8-5,4-0.2,6.8-9.6c1.1-3.7,1.2-9.3,2.2-11.1
			c0.9-1.7,2.2-1.6,3.3-4.1c0.6-1.3,0.4-1.5,0.4-3.3c0-10.6-13.8-1.4-21.3-4c-7.6-2.6-6.3-11.9-5.7-21.2c6.8-6.1,8.6-5.6,16.3-10.7
			c27.9-18.5-5.8-12.4-13.8-21.3c-15.7-17.5-1.9-39.7,14.8-49.9c4.5-2.7,4.5-1.4,9.2-4.9l-6.1-47.8
			C39.7,211.1,37.6,196.5,38.6,178.1z"/>
		<path class="st3" d="M228.1,423.8c13.8-0.3,2.6-7.7,34-22.3l41.1-14.9c11.4-2.8,42.4-2.6,52.7,0.8c10.4,3.5,24.3,16.6,33.4,22.9
			c12.4,8.6,13.7,21.6,17.9,38.6c8.4,33.8-0.1,55.9-17.8,86c-10.9,18.5-39.2,41.9-61.9,49.3c-15.2,5-29.3,9.1-47.9,8
			c-13.7-0.8-31.5-7.3-44.4-11.4c-22.9-7.2-45-36.7-53.9-57.1c-5.2-11.9,0.9-39.3,2.3-51.7c1.5-13.3,9.2-29.2,17.4-38.6
			c5.2-6,22.6-21.3,32.1-22.4C232.9,422,230.3,415.2,228.1,423.8L228.1,423.8z M414.6,449.5c2.3-5.4-11.8-32.8-17.5-39
			c-4.6-4.9-25.7-23.3-32.4-26.7c-10.9-5.6-36.5-7.3-51.6-7.1c-11,0.1-17.2,5.7-24.2,6.2c-10.2,0.6-6.2-6-21.9,0.2
			c-5.3,2.1-5.3,2.9-11,5L229,404c-34.9,24.3-32.7,16.8-44.7,44.8c-3.6,8.3-6.7,10.2-8.1,20.4c-1.9,13.8-6.5,40.1-2,53.9
			c5.4,16.1,13.7,26.3,21.7,39.2c11.7,19,36.4,26.9,57.2,31.6l23.3,5.4c21.6,2,33.9-2.8,50.5-7.8c9.9-3,30.5-15.7,37.5-21.7
			c10.1-8.7,21.4-18.7,28.5-30.8c9.6-16.3,24.1-44.3,23.7-65.2C416.4,465.6,411.7,456.4,414.6,449.5z"/>
		<path class="st3" d="M483.3,646.8c2.8-7.7,14.9-5.1,17.5-3C496.7,646,487.1,648.8,483.3,646.8L483.3,646.8z M359.6,679.6
			c7,0,19.3-5.9,51.3-5.9c42.3-0.1,52.1-15.5,91.1-22.8c18.7-3.5,22.4-10.2,30.9-12c4.8-1,6.7-0.5,10.7-2
			c-0.1-11.6-12.1-7.2-22.4-4.9c-35.7,7.8-22.2,3.3-49.6,14.9c-25.5,10.8-11.7,4.1-24.5,7.5c-4.7,1.2-6.7,3.1-13,4.4l-41.1,7.2
			c-19.3,4.4-35.1,7.4-56.2,5.5c-19.2-1.7-40.4,3.7-62.2,3.1c-21.7-0.6-40.1,1.8-62.5,1.7c-25.3,0-50-3.1-62.5-3.1
			c-10.8,0-21.4,0.1-32.2-0.3c-16.3-0.6-15.1-4.2-25.9-6.3l-3.8,5.7c19.1,12.3,38.4,7.7,65,8.7c49.8,1.9,57.5,3.1,105.9-0.7
			c13.2-1,22.8,1.8,33.6,0.9c10.6-0.9,23.1-2.5,33.6-3.3C338.2,677.2,347.9,679.5,359.6,679.6z"/>
		<path class="st3" d="M67.2,244.3c12.2,12.1,26.1,12.3,42.3,15.7c16.4,3.4,35.6,6.4,53,8.1l57.6,3c40-2.8,50.6-2.1,88.3-2.5
			c10.1-0.1,72.9-11.8,80.1-12.1c21.1-0.8,52.4-11.5,75.4-15.6c8.5-1.5,18.8-1.3,14.4-12.2c-8.2-3.4-8.8,3.2-19.2,6.3
			c-7.8,2.3-17.4,4-25.4,5.7c-5.3,1.1-6,1.8-11.2,3.1c-30.5,7.5-60,9.3-89.6,14.7c-9.5,1.7-12.9,4-26.2,4.2
			c-10.1,0.1-20.4-0.4-30.5-0.4c-55.9,0.4-51.7,4.7-115.9-1.3c-12.3-1.1-65.5-9.2-75.7-14C77,243.4,73.8,236.5,67.2,244.3z"/>
		<path class="st3" d="M262.7,100.5c-12.6,5.3-10.7,1.9-21.2,11.1c-9.1,8-27.8,11.6,9.1,28.2c19.7,8.8,35.6-5.9,47.9-11.3
			c5-2.2,11.1-6.8,13.3-10.9c5-9.6-16.8-18.4-18.3-18.8C284.7,96.9,269.5,97.6,262.7,100.5z"/>
		<path class="st3" d="M518,546.1c10.5-10.4-1.2-108.3-2.6-128.7c-0.8-11.9-1.6-17.5-2.1-30.4c-0.7-17.1-7.8-78.5-19.4-88.7
			c1.7,8.8,2.5,18.2,5.2,26.8c10.9,34.4,10.7,116.7,16.1,155.8C518.1,501.9,516.4,523.7,518,546.1z"/>
		<path class="st3" d="M109.5,625.4c4.2-4.7,3.6-17.9,1.6-25.3c-5.3-19.9-9.2-83.6-9.1-107.2c0.1-13.1-2.1-15.4-2.5-25.5
			c-0.2-4.5-1.6-47.3-3.4-50.8c-4.4,21.2,1.5,58.7,2.4,81.1c1.4,36.7,0,39.7,4.7,82.1C106.2,605.7,101.2,622,109.5,625.4z"/>
		<path class="st3" d="M205.4,119.2c-6.7-5.1-10.6-9.9-23.3-1.2c-6.8,4.6-15.9,9.2-10.9,21c4.3,10.2,13.7,5.8,22.6,2
			C202.8,137,206,127.8,205.4,119.2z"/>
		<path class="st3" d="M449.1,523.3c-0.5-10.6-0.6-12.1-0.3-22.4c0.2-9.3-2.1-55.2-4.4-62.5c-1.1-3.5-0.2-1.4-1.5-3.5
			c-0.2,0.4-0.3,0.9-0.4,1.2l2.1,44.3c1.9,14.8-2.1,46.9,2.7,67.6c1.5,6.6,2.3,14,3.2,20.8c1.5,11.6-2,35.7,8.4,39
			C461.8,602.2,450.2,544.8,449.1,523.3z"/>
		<path class="st3" d="M443,431.9c2-3.1-1.3-129-12.7-143.9c-3.2,6.2,2.2,25.1,3.3,33.2c1.5,10.6,2.9,26.3,3.5,36.9l2.7,56.2
			c0,3.1,0.1,6.1,0.5,9.1C442.2,435.9,436.8,422.8,443,431.9z"/>
		<path class="st3" d="M154.7,429l-3.5-49.1c-2-16.9-4.4-31.7-5.8-49.6c-14-1.3-0.4,23.9,0.6,46.9c0.5,10.9,1.1,20.9,1.5,30.5
			C147.8,416.4,146.4,429.5,154.7,429z"/>
		<path class="st3" d="M96.2,407.4c5.1-11.8-2.1-10.8-0.2-27.1c2.2-19.4-2.4-49.7-2.1-65.5c0.2-8,3.1-25-4.5-26.4
			c-3.6,7.8,0.2,49.6,1.7,59.7C93.1,361.9,92.4,397.6,96.2,407.4z"/>
		<path class="st3" d="M238.6,519.5c-26.9-13.4,11-52,11.7-53.7c-16.7,0.2-30.9,33.3-25.7,46.8C227,518.7,232.2,523.3,238.6,519.5z"
			/>
		<path class="st3" d="M385.3,603.6c-4.5,1.4-4.1,0.3-4.6,6.2c-0.6,6.4-0.5,25.5,4.9,29.3C387.8,634.1,388.6,609.2,385.3,603.6z"/>
		<path class="st3" d="M337.5,461.3c-0.9,1.7-2,29,4.8,25.2c3.6-2,3.2-9.9,2.6-14.5C344.1,465,343.6,462.1,337.5,461.3z"/>
		<path class="st3" d="M356.2,330.6c-1-7.4-3.4-6.7-5.3-15.2c-1.7-7.7,0.8-13.9-5.4-16.1c-2.4,4.7-0.9,11.9,0.5,18.2
			C347.3,323.9,348.8,329.9,356.2,330.6z"/>
		<path class="st3" d="M223.1,611.5c-12.1-9.1-12.1,7.9-9.9,13.5c2.2,5.7-0.6,3.2,5.3,3.7L223.1,611.5z"/>
		<path class="st3" d="M213.1,343.1c0.6-6.8-0.9-11.3-1.6-17.1c-0.8-7.4-0.2-11.3-5.8-14c-2.7,4.8,0.7,10.8,1.6,15.9
			C209,337.3,205.4,340.5,213.1,343.1z"/>
		<path class="st3" d="M295.5,627.6c-6.1,1.8-4.6,2.5-4.6,11.2c0,7.5-1.4,8.8,4.2,10.5c2.4-3.7,2-4.4,2.3-10.4
			C298,626.9,296.5,629,295.5,627.6z"/>
	</g>
</g>
</svg>
