<?xml version="1.0" encoding="utf-8"?>
<!-- Generator: Adobe Illustrator 22.1.0, SVG Export Plug-In . SVG Version: 6.00 Build 0)  -->
<svg version="1.1" width="288px" height="505px" id="Layer_1" xmlns="http://www.w3.org/2000/svg" xmlns:xlink="http://www.w3.org/1999/xlink" x="0px" y="0px"
	 viewBox="0 0 288.3 504.9" style="enable-background:new 0 0 288.3 504.9;" xml:space="preserve">
<style type="text/css">
	.st0{fill:#3D4C3C;}
	.st1{fill:#5B6D5A;}
	.st2{fill:#ED6306;}
	.st3{fill:#CE4500;}
	.st4{fill:#77DB0E;}
	.st5{fill:#89ED14;}
	.st6{fill:#56CC09;}
	.st7{fill:#1EA50A;}
	.st8{fill:#E5490C;}
	.st9{fill:#FF8500;}
	.st10{fill:#21BC19;}
	.st11{fill:#20A814;}
	.st12{fill:#1A5784;}
	.st13{fill:#0C486D;}
	.st14{fill:#5BC914;}
	.st15{fill:#073951;}
</style>
<path class="st0" d="M56.7,227.6c6.3,0,11.8,5.5,11.8,11.8V360c0,28.4-22.8,51.2-51.2,51.2c-6.3,0-11.8-5.5-11.8-11.8
	c0-6.3,5.5-11.8,11.8-11.8c15,0,27.6-12.6,27.6-27.6V239.5C44.9,233.2,49.6,227.6,56.7,227.6z"/>
<path class="st1" d="M55.9,308.8c-6.3,0-11.8-5.5-11.8-11.8V176.4c0-28.4,22.8-51.2,51.2-51.2c6.3,0,11.8,5.5,11.8,11.8
	s-5.5,11.8-11.8,11.8c-15,0-27.6,12.6-27.6,27.6V297C67.7,303.3,63,308.8,55.9,308.8z"/>
<path class="st2" d="M120.5,150.4c0,4.7-3.9,8.7-8.7,8.7H100c-4.7,0-8.7-3.9-8.7-8.7v-26.8c0-4.7,3.9-8.7,8.7-8.7h11.8
	c4.7,0,8.7,3.9,8.7,8.7V150.4z"/>
<path class="st3" d="M111.9,114.2c4.7,0,8.7,3.9,8.7,8.7v26.8c0,4.7-3.9,8.7-8.7,8.7H100c-4.7,0-8.7-3.9-8.7-8.7"/>
<path class="st4" d="M286.7,457.6c0,25.2-20.5,46.5-46.5,46.5H152c-25.2,0-46.5-20.5-46.5-46.5v-356c0-25.2,20.5-46.5,46.5-46.5h89
	c25.2,0,46.5,20.5,46.5,46.5v356H286.7z"/>
<path class="st5" d="M125.2,457.6v-356c0-18.1,11-33.9,26.8-41.7v-4.7c-25.2,0-46.5,20.5-46.5,46.5v356.8
	c0,25.2,20.5,46.5,46.5,46.5v-4.7C136.3,492.3,125.2,476.6,125.2,457.6z"/>
<path class="st6" d="M152,55.1h89c25.2,0,46.5,20.5,46.5,46.5v356.8c0,25.2-20.5,46.5-46.5,46.5"/>
<path class="st4" d="M248.9,48.8c0,3.9-3.2,7.1-7.1,7.1h-91.4c-3.9,0-7.1-3.2-7.1-7.1l0,0c0-3.9,3.2-7.1,7.1-7.1h91.4
	C245.8,41.7,248.9,44.9,248.9,48.8L248.9,48.8z"/>
<path class="st7" d="M248.9,48.8c0,3.9-3.2,7.1-7.1,7.1h-91.4c-3.9,0-7.1-3.2-7.1-7.1l0,0c0-3.9,3.2-7.1,7.1-7.1h91.4
	C245.8,41.7,248.9,44.9,248.9,48.8L248.9,48.8z"/>
<path class="st8" d="M263.9,44.1c0,1.6-1.6,3.2-3.2,3.2H131.5c-1.6,0-3.2-1.6-3.2-3.2v-41c0-1.6,1.6-3.2,3.2-3.2h129.2
	c1.6,0,3.2,1.6,3.2,3.2L263.9,44.1L263.9,44.1z"/>
<path class="st2" d="M131.5,47.3c-1.6,0-3.2-1.6-3.2-3.2v-41c0-1.6,1.6-3.2,3.2-3.2h129.2c1.6,0,3.2,1.6,3.2,3.2"/>
<path class="st9" d="M128.4,3.2c0-1.6,1.6-3.2,3.2-3.2h129.2c1.6,0,3.2,1.6,3.2,3.2"/>
<g>
	<path class="st10" d="M267,457.6v-356c0-18.1-11-33.9-26.8-41.7v-4.7c25.2,0,46.5,20.5,46.5,46.5v356.8c0,25.2-20.5,46.5-46.5,46.5
		v-4.7C256.8,492.3,267,476.6,267,457.6z"/>
	<path class="st10" d="M196.1,274.1c-29.9,0-53.6-55.1-53.6-85.1s24.4-53.6,53.6-53.6s53.6,24.4,53.6,53.6S226.1,274.1,196.1,274.1z
		"/>
</g>
<path class="st11" d="M196.1,134.7c-10.2,0-18.9,2.4-27.6,7.1l26,131.5c0.8,0,0.8,0,1.6,0c29.9,0,53.6-55.1,53.6-85.1
	S226.1,134.7,196.1,134.7z"/>
<path class="st12" d="M196.1,242.6c-29.9,0-53.6-24.4-53.6-53.6s24.4-53.6,53.6-53.6s53.6,24.4,53.6,53.6S226.1,242.6,196.1,242.6z"
	/>
<g>
	<path class="st13" d="M196.1,134.7c29.9,0,53.6,24.4,53.6,53.6s-24.4,53.6-53.6,53.6"/>
	<polygon class="st13" points="204,186.7 167,150.4 182,135.5 225.3,147.3 	"/>
</g>
<path class="st9" d="M196.1,141.8c26,0,47.3,21.3,47.3,47.3s-21.3,47.3-47.3,47.3S148.9,215,148.9,189S170.1,141.8,196.1,141.8
	 M196.1,128.4c-33.9,0-60.7,27.6-60.7,60.7s27.6,60.7,60.7,60.7s60.7-27.6,60.7-60.7S230,128.4,196.1,128.4L196.1,128.4z"/>
<path class="st8" d="M196.1,141.8c26,0,47.3,21.3,47.3,47.3s-21.3,47.3-47.3,47.3S148.9,215,148.9,189S170.1,141.8,196.1,141.8
	 M196.1,131.5c-33.9,0-60.7,23.6-60.7,57.5s27.6,60.7,60.7,60.7s60.7-27.6,60.7-60.7S230,131.5,196.1,131.5L196.1,131.5z"/>
<g>
	<path class="st14" d="M170.1,173.3c0,0.8-0.8,1.6-1.6,1.6l0,0c-0.8,0-1.6-0.8-1.6-1.6v-13.4c0-0.8,0.8-1.6,1.6-1.6l0,0
		c0.8,0,1.6,0.8,1.6,1.6V173.3z"/>
	<path class="st14" d="M182.7,173.3c0,0.8-0.8,1.6-1.6,1.6l0,0c-0.8,0-1.6-0.8-1.6-1.6v-13.4c0-0.8,0.8-1.6,1.6-1.6l0,0
		c0.8,0,1.6,0.8,1.6,1.6V173.3z"/>
	<path class="st14" d="M178.8,156.8c0.8,0,1.6,0.8,1.6,1.6l0,0c0,0.8-0.8,1.6-1.6,1.6h-7.9c-0.8,0-1.6-0.8-1.6-1.6l0,0
		c0-0.8,0.8-1.6,1.6-1.6H178.8z"/>
</g>
<path class="st15" d="M178.8,174.9c0.8,0,1.6,0.8,1.6,1.6l0,0c0,0.8-0.8,1.6-1.6,1.6h-7.9c-0.8,0-1.6-0.8-1.6-1.6l0,0
	c0-0.8,0.8-1.6,1.6-1.6H178.8z"/>
<g>
	<path class="st14" d="M170.1,191.4c0,0.8-0.8,1.6-1.6,1.6l0,0c-0.8,0-1.6-0.8-1.6-1.6V178c0-0.8,0.8-1.6,1.6-1.6l0,0
		c0.8,0,1.6,0.8,1.6,1.6V191.4z"/>
	<path class="st14" d="M182.7,191.4c0,0.8-0.8,1.6-1.6,1.6l0,0c-0.8,0-1.6-0.8-1.6-1.6V178c0-0.8,0.8-1.6,1.6-1.6l0,0
		c0.8,0,1.6,0.8,1.6,1.6V191.4z"/>
	<path class="st14" d="M178.8,192.2c0.8,0,1.6,0.8,1.6,1.6l0,0c0,0.8-0.8,1.6-1.6,1.6h-7.9c-0.8,0-1.6-0.8-1.6-1.6l0,0
		c0-0.8,0.8-1.6,1.6-1.6H178.8z"/>
</g>
<path class="st15" d="M189.8,173.3c0,0.8-0.8,1.6-1.6,1.6l0,0c-0.8,0-1.6-0.8-1.6-1.6v-13.4c0-0.8,0.8-1.6,1.6-1.6l0,0
	c0.8,0,1.6,0.8,1.6,1.6V173.3z"/>
<g>
	<path class="st14" d="M202.4,173.3c0,0.8-0.8,1.6-1.6,1.6l0,0c-0.8,0-1.6-0.8-1.6-1.6v-13.4c0-0.8,0.8-1.6,1.6-1.6l0,0
		c0.8,0,1.6,0.8,1.6,1.6V173.3z"/>
	<path class="st14" d="M199.3,156.8c0.8,0,1.6,0.8,1.6,1.6l0,0c0,0.8-0.8,1.6-1.6,1.6h-7.9c-0.8,0-1.6-0.8-1.6-1.6l0,0
		c0-0.8,0.8-1.6,1.6-1.6H199.3z"/>
</g>
<g>
	<path class="st15" d="M199.3,174.9c0.8,0,1.6,0.8,1.6,1.6l0,0c0,0.8-0.8,1.6-1.6,1.6h-7.9c-0.8,0-1.6-0.8-1.6-1.6l0,0
		c0-0.8,0.8-1.6,1.6-1.6H199.3z"/>
	<path class="st15" d="M189.8,191.4c0,0.8-0.8,1.6-1.6,1.6l0,0c-0.8,0-1.6-0.8-1.6-1.6V178c0-0.8,0.8-1.6,1.6-1.6l0,0
		c0.8,0,1.6,0.8,1.6,1.6V191.4z"/>
</g>
<path class="st14" d="M202.4,191.4c0,0.8-0.8,1.6-1.6,1.6l0,0c-0.8,0-1.6-0.8-1.6-1.6V178c0-0.8,0.8-1.6,1.6-1.6l0,0
	c1.6,0.8,1.6,0.8,1.6,1.6V191.4z"/>
<g>
	<path class="st15" d="M199.3,192.2c0.8,0,1.6,0.8,1.6,1.6l0,0c0,0.8-0.8,1.6-1.6,1.6h-7.9c-0.8,0-1.6-0.8-1.6-1.6l0,0
		c0-0.8,0.8-1.6,1.6-1.6H199.3z"/>
	<path class="st15" d="M209.5,185.1C209.5,185.1,209.5,185.9,209.5,185.1L209.5,185.1c-0.8,0.8-0.8,0-0.8,0v-6.3c0,0,0-0.8,0.8-0.8
		l0,0c0,0,0.8,0,0.8,0.8v6.3H209.5z"/>
</g>
<g>
	<path class="st14" d="M215.8,185.1C215.8,185.1,215,185.9,215.8,185.1L215.8,185.1c-0.8,0.8-0.8,0-0.8,0v-6.3c0,0,0-0.8,0.8-0.8
		l0,0c0,0,0.8,0,0.8,0.8v6.3H215.8z"/>
	<path class="st14" d="M214.3,177.2C214.3,177.2,214.3,178,214.3,177.2L214.3,177.2c0.8,0.8,0,0.8,0,0.8h-3.9c0,0-0.8,0-0.8-0.8l0,0
		c0,0,0-0.8,0.8-0.8h3.9V177.2z"/>
	<path class="st14" d="M214.3,185.9L214.3,185.9L214.3,185.9c0.8,0.8,0,0.8,0,0.8h-3.9c0,0-0.8,0-0.8-0.8l0,0c0,0,0-0.8,0.8-0.8h3.9
		V185.9z"/>
	<path class="st14" d="M209.5,193C209.5,193.8,209.5,193.8,209.5,193L209.5,193c-0.8,0.8-0.8,0-0.8,0v-6.3c0,0,0-0.8,0.8-0.8l0,0
		c0,0,0.8,0,0.8,0.8v6.3H209.5z"/>
</g>
<path class="st15" d="M215.8,193C215.8,193.8,215,193.8,215.8,193L215.8,193c-0.8,0.8-0.8,0-0.8,0v-6.3c0,0,0-0.8,0.8-0.8l0,0
	c0,0,0.8,0,0.8,0.8v6.3H215.8z"/>
<g>
	<path class="st14" d="M214.3,193.8L214.3,193.8L214.3,193.8c0.8,0.8,0,0.8,0,0.8h-3.9c0,0-0.8,0-0.8-0.8l0,0c0,0,0-0.8,0.8-0.8h3.9
		V193.8z"/>
	<path class="st14" d="M219,185.1C219,185.1,219,185.9,219,185.1L219,185.1c-0.8,0.8-0.8,0-0.8,0v-6.3c0,0,0-0.8,0.8-0.8l0,0
		c0,0,0.8,0,0.8,0.8v6.3H219z"/>
	<path class="st14" d="M224.5,185.1C224.5,185.1,224.5,185.9,224.5,185.1L224.5,185.1c-0.8,0.8-0.8,0-0.8,0v-6.3c0,0,0-0.8,0.8-0.8
		l0,0c0,0,0.8,0,0.8,0.8v6.3H224.5z"/>
	<path class="st14" d="M222.9,177.2C223.7,177.2,223.7,178,222.9,177.2L222.9,177.2c0.8,0.8,0,0.8,0,0.8h-3.2c0,0-0.8,0-0.8-0.8l0,0
		c0,0,0-0.8,0.8-0.8h3.2V177.2z"/>
	<path class="st14" d="M222.9,185.9C223.7,185.9,223.7,185.9,222.9,185.9L222.9,185.9c0.8,0.8,0,0.8,0,0.8h-3.2c0,0-0.8,0-0.8-0.8
		l0,0c0,0,0-0.8,0.8-0.8h3.2V185.9z"/>
	<path class="st14" d="M219,193C219,193.8,219,193.8,219,193L219,193c-0.8,0.8-0.8,0-0.8,0v-6.3c0,0,0-0.8,0.8-0.8l0,0
		c0,0,0.8,0,0.8,0.8v6.3H219z"/>
	<path class="st14" d="M224.5,193C224.5,193.8,224.5,193.8,224.5,193L224.5,193c-0.8,0.8-0.8,0-0.8,0v-6.3c0,0,0-0.8,0.8-0.8l0,0
		c0,0,0.8,0,0.8,0.8v6.3H224.5z"/>
	<path class="st14" d="M222.9,193.8C223.7,193.8,223.7,193.8,222.9,193.8L222.9,193.8c0.8,0.8,0,0.8,0,0.8h-3.2c0,0-0.8,0-0.8-0.8
		l0,0c0,0,0-0.8,0.8-0.8h3.2V193.8z"/>
	<path class="st14" d="M215.8,164.6l-2.4-5.5l0,0h-0.8l0,0l-2.4,5.5l0,0l0,0h0.8l0,0l0.8-1.6h1.6l0.8,1.6l0,0L215.8,164.6
		C215.8,165.4,215.8,165.4,215.8,164.6C215.8,165.4,215.8,164.6,215.8,164.6z M214.3,162.3h-1.6l0.8-1.6l0,0c0,0,0,0,0,0.8
		L214.3,162.3z"/>
	<path class="st14" d="M222.9,164.6v-5.5l0,0h-0.8l0,0l-0.8,3.2c0,0.8,0,0.8-0.8,1.6c0,0,0-0.8-0.8-1.6l-1.6-3.2l0,0h-0.8l0,0
		l-0.8,5.5l0,0l0,0h0.8l0,0v-2.4c0-0.8,0-0.8,0-1.6v0.8l0.8,3.2l0,0h0.8l0,0l0.8-3.2c0-0.8,0-0.8,0.8-0.8c0,0.8,0,0.8,0,1.6v2.4l0,0
		L222.9,164.6L222.9,164.6C222.9,165.4,222.9,165.4,222.9,164.6L222.9,164.6z"/>
</g>
<g>
	<path class="st15" d="M213.5,168.6c-0.8,0-0.8,0-1.6,0l0,0v5.5l0,0h0.8l0,0v-2.4c0,0,0,0,0.8,0s1.6,0,1.6-0.8c0,0,0.8-0.8,0.8-1.6
		c0-0.8,0-0.8-0.8-1.6C214.3,169.4,214.3,168.6,213.5,168.6z M212.7,171.7L212.7,171.7l-0.8-2.4c0,0,0,0,0.8,0s0.8,0,0.8,0.8
		C214.3,171.7,213.5,171.7,212.7,171.7z"/>
	<path class="st15" d="M221.3,168.6h-0.8l0,0l-0.8,3.2c0,0.8,0,0.8-0.8,1.6c0,0,0-0.8-0.8-1.6l-0.8-3.2l0,0h-0.8l0,0l-0.8,5.5l0,0
		l0,0h0.8l0,0v-2.4c0-0.8,0-0.8,0-1.6v0.8l0.8,3.2l0,0h0.8l0,0l0.8-3.2c0-0.8,0-0.8,0.8-0.8c0,0.8,0,0.8,0,1.6v2.4l0,0h0.8l0,0l0,0
		L221.3,168.6C222.1,168.6,221.3,168.6,221.3,168.6z"/>
</g>
<g>
	<path class="st14" d="M206.4,178C206.4,178.8,206.4,178.8,206.4,178L206.4,178c-0.8,0.8-1.6,0.8-1.6,0l0,0
		C205.6,178,205.6,177.2,206.4,178L206.4,178C206.4,177.2,206.4,178,206.4,178L206.4,178z"/>
	<path class="st14" d="M206.4,182C206.4,182.7,206.4,182.7,206.4,182L206.4,182c-0.8,0.8-1.6,0.8-1.6,0l0,0
		C205.6,182,205.6,181.2,206.4,182L206.4,182C206.4,181.2,206.4,182,206.4,182L206.4,182z"/>
	<path class="st14" d="M223.7,197.7C223.7,197.7,223.7,198.5,223.7,197.7l-55.1,0.8c0,0-0.8,0-0.8-0.8l0,0c0,0,0-0.8,0.8-0.8
		L223.7,197.7L223.7,197.7L223.7,197.7z"/>
	<path class="st14" d="M223.7,200.1C223.7,200.9,223.7,200.9,223.7,200.1l-55.1,0.8c0,0-0.8,0-0.8-0.8l0,0c0,0,0-0.8,0.8-0.8
		L223.7,200.1L223.7,200.1L223.7,200.1z"/>
</g>
<path class="st15" d="M168.6,211.9C168.6,212.7,168.6,212.7,168.6,211.9L168.6,211.9c-0.8,0.8-0.8,0-0.8,0v-6.3c0,0,0-0.8,0.8-0.8
	l0,0c0,0,0.8,0,0.8,0.8v6.3H168.6z"/>
<g>
	<path class="st14" d="M174.9,211.9C174.9,212.7,174.9,212.7,174.9,211.9L174.9,211.9c-0.8,0.8-0.8,0-0.8,0v-6.3c0,0,0-0.8,0.8-0.8
		l0,0c0,0,0.8,0,0.8,0.8v6.3H174.9z"/>
	<path class="st14" d="M173.3,204C173.3,204,173.3,204.8,173.3,204L173.3,204c0.8,0.8,0,0.8,0,0.8h-3.9c0,0-0.8,0-0.8-0.8l0,0
		c0,0,0-0.8,0.8-0.8h3.9V204z"/>
	<path class="st14" d="M173.3,212.7L173.3,212.7L173.3,212.7c0.8,0.8,0,0.8,0,0.8h-3.9c0,0-0.8,0-0.8-0.8l0,0c0,0,0-0.8,0.8-0.8h3.9
		V212.7z"/>
	<path class="st14" d="M168.6,220.6C168.6,220.6,168.6,221.3,168.6,220.6L168.6,220.6c-0.8,0.8-0.8,0-0.8,0v-6.3c0,0,0-0.8,0.8-0.8
		l0,0c0,0,0.8,0,0.8,0.8v6.3H168.6z"/>
</g>
<path class="st15" d="M174.9,220.6C174.9,220.6,174.9,221.3,174.9,220.6L174.9,220.6c-0.8,0.8-0.8,0-0.8,0v-6.3c0,0,0-0.8,0.8-0.8
	l0,0c0,0,0.8,0,0.8,0.8v6.3H174.9z"/>
<path class="st14" d="M173.3,221.3L173.3,221.3L173.3,221.3c0.8,0.8,0,0.8,0,0.8h-3.9c0,0-0.8,0-0.8-0.8l0,0c0,0,0-0.8,0.8-0.8h3.9
	V221.3z"/>
<path class="st15" d="M178,211.9C178,212.7,178,212.7,178,211.9L178,211.9c-0.8,0.8-0.8,0-0.8,0v-6.3c0,0,0-0.8,0.8-0.8l0,0
	c0,0,0.8,0,0.8,0.8v6.3H178z"/>
<g>
	<path class="st14" d="M184.3,211.9C184.3,212.7,184.3,212.7,184.3,211.9L184.3,211.9c-0.8,0.8-0.8,0-0.8,0v-6.3c0,0,0-0.8,0.8-0.8
		l0,0c0,0,0.8,0,0.8,0.8v6.3H184.3z"/>
	<path class="st14" d="M182.7,204C182.7,204,182.7,204.8,182.7,204L182.7,204c0.8,0.8,0,0.8,0,0.8h-3.9c0,0-0.8,0-0.8-0.8l0,0
		c0,0,0-0.8,0.8-0.8h3.9V204z"/>
</g>
<g>
	<path class="st15" d="M182.7,212.7L182.7,212.7L182.7,212.7c0.8,0.8,0,0.8,0,0.8h-3.9c0,0-0.8,0-0.8-0.8l0,0c0,0,0-0.8,0.8-0.8h3.9
		V212.7z"/>
	<path class="st15" d="M178,220.6C178,220.6,178,221.3,178,220.6L178,220.6c-0.8,0.8-0.8,0-0.8,0v-6.3c0,0,0-0.8,0.8-0.8l0,0
		c0,0,0.8,0,0.8,0.8v6.3H178z"/>
</g>
<path class="st14" d="M184.3,220.6C184.3,220.6,184.3,221.3,184.3,220.6L184.3,220.6c-0.8,0.8-0.8,0-0.8,0v-6.3c0,0,0-0.8,0.8-0.8
	l0,0c0,0,0.8,0,0.8,0.8v6.3H184.3z"/>
<path class="st15" d="M182.7,221.3L182.7,221.3L182.7,221.3c0.8,0.8,0,0.8,0,0.8h-3.9c0,0-0.8,0-0.8-0.8l0,0c0,0,0-0.8,0.8-0.8h3.9
	V221.3z"/>
<path class="st14" d="M194.6,210.3v-5.5l0,0h-0.8l0,0L193,208c0,0.8,0,0.8-0.8,1.6c0,0,0-0.8-0.8-1.6l-0.8-3.2l0,0h-0.8l0,0
	l-0.8,5.5l0,0l0,0h0.8l0,0V208c0-0.8,0-0.8,0-1.6v0.8l0.8,3.2l0,0h0.8l0,0l0.8-3.2c0-0.8,0-0.8,0.8-0.8c0,0.8,0,0.8,0,1.6v2.4l0,0
	H194.6L194.6,210.3L194.6,210.3L194.6,210.3z"/>
<g>
	<path class="st15" d="M224.5,204.8c0,0.8-0.8,0.8-0.8,0.8h-16.5c-0.8,0-0.8-0.8-0.8-0.8l0,0c0-0.8,0.8-0.8,0.8-0.8h16.5
		C224.5,204,224.5,204.8,224.5,204.8L224.5,204.8z"/>
	<path class="st15" d="M224.5,208.7c0,0.8-0.8,0.8-0.8,0.8h-16.5c-0.8,0-0.8-0.8-0.8-0.8l0,0c0-0.8,0.8-0.8,0.8-0.8h16.5
		C224.5,208,224.5,208,224.5,208.7L224.5,208.7z"/>
</g>
<g>
	<path class="st14" d="M224.5,212.7c0,0.8-0.8,0.8-0.8,0.8h-16.5c-0.8,0-0.8-0.8-0.8-0.8l0,0c0-0.8,0.8-0.8,0.8-0.8h16.5
		C224.5,211.9,224.5,211.9,224.5,212.7L224.5,212.7z"/>
	<path class="st14" d="M224.5,216.6c0,0.8-0.8,0.8-0.8,0.8h-16.5c-0.8,0-0.8-0.8-0.8-0.8l0,0c0-0.8,0.8-0.8,0.8-0.8h16.5
		C224.5,215.8,224.5,215.8,224.5,216.6L224.5,216.6z"/>
	<path class="st14" d="M224.5,220.6c0,0.8-0.8,0.8-0.8,0.8h-16.5c-0.8,0-0.8-0.8-0.8-0.8l0,0c0-0.8,0.8-0.8,0.8-0.8h16.5
		C224.5,219.8,224.5,219.8,224.5,220.6L224.5,220.6z"/>
</g>
<g>
	<path class="st10" d="M157.5,430.1c0,1.6-0.8,2.4-2.4,2.4h-15.8c-1.6,0-2.4-0.8-2.4-2.4l0,0c0-1.6,0.8-2.4,2.4-2.4h15.8
		C156,427.7,157.5,429.3,157.5,430.1L157.5,430.1z"/>
	<path class="st10" d="M157.5,441.1c0,1.6-0.8,2.4-2.4,2.4h-15.8c-1.6,0-2.4-0.8-2.4-2.4l0,0c0-1.6,0.8-2.4,2.4-2.4h15.8
		C156,438.7,157.5,439.5,157.5,441.1L157.5,441.1z"/>
	<path class="st10" d="M157.5,452.1c0,1.6-0.8,2.4-2.4,2.4h-15.8c-1.6,0-2.4-0.8-2.4-2.4l0,0c0-1.6,0.8-2.4,2.4-2.4h15.8
		C156,449.8,157.5,450.6,157.5,452.1L157.5,452.1z"/>
</g>
<path class="st6" d="M17.3,415.9c0,4.7-3.9,8.7-8.7,8.7l0,0c-4.7,0-8.7-3.9-8.7-8.7v-31.5c0-4.7,3.9-8.7,8.7-8.7l0,0
	c4.7,0,8.7,3.9,8.7,8.7V415.9z"/>
<path class="st10" d="M8.7,375.7L8.7,375.7c4.7,0,8.7,3.9,8.7,8.7v31.5c0,4.7-3.9,8.7-8.7,8.7l0,0"/>
</svg>
