<?xml version="1.0" encoding="utf-8"?>
<!-- Generator: Adobe Illustrator 22.1.0, SVG Export Plug-In . SVG Version: 6.00 Build 0)  -->
<svg width="103px" height="94px" version="1.1" id="Layer_1" xmlns="http://www.w3.org/2000/svg" xmlns:xlink="http://www.w3.org/1999/xlink" x="0px" y="0px"
	 viewBox="0 0 102.5 93.4" style="enable-background:new 0 0 102.5 93.4;" xml:space="preserve">
<style type="text/css">
	.st0{fill:none;stroke:#979797;stroke-width:2.28;stroke-linecap:round;stroke-miterlimit:10;}
	.st1{fill:#FF7733;}
	.st2{fill:#333333;}
	.st3{fill:none;stroke:#AD00AD;stroke-width:1.85;stroke-linecap:round;stroke-miterlimit:10;}
	.st4{fill:#332E2E;}
	.st5{fill:#F9CE1D;}
	.st6{fill:#AD00AD;}
	.st7{fill:#BF8F68;}
	.st8{fill:#FFFFFF;}
	.st9{fill:#F6BE1A;}
</style>
<g id="grid">
	<path class="st0" d="M79.8,91.3V76.9 M21.3,91.3V76.9"/>
	<path class="st1" d="M10,77.5h79.7c-3.3-12.7-17.9-19.9-26.5-19.9H10V77.5z"/>
	<path class="st2" d="M10,77.5v5.1h80.3c0-1.6-0.2-3.5-0.6-5.1H10z"/>
	<path class="st0" d="M101.2,82.2L101.2,82.2c0,5.5-4.5,9.9-9.9,9.9H69.2l0,0c-5.3,0-9.9-4.5-9.9-9.9 M43.1,82.2L43.1,82.2
		c0,5.5-4.5,9.9-9.9,9.9h-22c0,0,0,0-0.2,0c-5.3,0-9.9-4.5-9.9-9.9"/>
	<path class="st1" d="M61.2,65V41.4c0,0,0,0,0.2,0c6.5,0.6,11.7,6.1,11.1,12.7v13.6"/>
	<path class="st3" d="M50.1,70.5c0-15.4-8.4-11.1-13-13.5"/>
	<path class="st4" d="M61.6,73.2c2.7,0,4.7,2.5,4.7,5.1C66.1,81,63.8,83,61.2,83H48.6l0,0c-0.8,0-1.2-0.6-1-1.2V70.7h5.1v3.7l0,0
		c0,2.1,1.6,3.7,3.7,3.7l0,0C58.9,77.9,61.2,75.9,61.6,73.2C61.2,73.2,61.2,73.2,61.6,73.2z"/>
	<path class="st5" d="M52.5,75.7c0.8,0,1.2-0.6,1-1.2c0-0.8-0.6-1.2-1.2-1.2h-2.1c-0.8,0-1.2,0.6-1.2,1.2c0,0.8,0.6,1.2,1.2,1.2
		H52.5L52.5,75.7z"/>
	<ellipse class="st6" cx="38.6" cy="43.4" rx="13.6" ry="16.2"/>
	<path class="st4" d="M25,41.8h26.9v1.6v2.7H25v-2.7C25,43,25,42.4,25,41.8z"/>
	<path class="st5" d="M50.3,41.8h2.1v4.3h-2.1V41.8z"/>
	<path class="st3" d="M38.6,30.9l18.3,7.8"/>
	<circle class="st7" cx="61" cy="40.4" r="4.3"/>
	<path class="st8" d="M54.8,43.8c1,0.6,2.1,0,2.7-1l2.9-6.6V36c0.2-1-0.2-2.1-1.2-2.7c-1-0.2-2.1,0.2-2.7,1.2l-2.9,7
		C53.6,42.2,53.8,43.2,54.8,43.8z"/>
	<circle class="st7" cx="38.6" cy="17.8" r="9.7"/>
	<path class="st4" d="M42.1,13.5L42.1,13.5c-1,0-1.8,0.8-1.8,1.8s0.8,1.8,1.8,1.6c1,0,1.8-0.8,1.6-1.8
		C43.9,14.3,43.1,13.5,42.1,13.5z"/>
	<path class="st7" d="M48.2,17.8h3.5l-5.5-6.4L48.2,17.8z"/>
	<path class="st6" d="M41.7,8.7L26,3.6l3.3,14.2L41.7,8.7z"/>
	<path class="st8" d="M30.4,19.6l12.7-9.2c0.8-0.8,1-1.8,0.6-2.9l0,0c-0.8-0.8-1.8-1-2.9-0.6l-12.7,9.2l0,0c-0.8,0.8-1,1.8-0.6,2.9
		c0.6,0.6,1,0.8,1.8,0.8C29.9,19.8,30.2,19.6,30.4,19.6z"/>
	<circle class="st8" cx="24.8" cy="2" r="2.1"/>
	<path class="st8" d="M46.4,23.3c-3.5,0-3.9-3.9-3.9-3.9h5.7C48,20.8,47.4,22.3,46.4,23.3z"/>
	<path class="st9" d="M47,21.3c-1.2,0.6-2.7,0-3.5-1c-0.6-0.8-0.8-1.6-0.2-2.5c0.6,0.8,1.6,1,2.5,0.6c0.6-0.2,0.8-0.8,1.2-1
		c0.6-0.2,0.8-0.2,1.2,0c0.6,0.2,0.8,0.6,0.8,1C49,19.6,48.2,20.8,47,21.3z"/>
	<path class="st7" d="M39.8,18.2L39.8,18.2c0,1.2-0.8,2.5-2.1,2.5c-0.6,0-1-0.2-1.6-0.8c-2.7-2.7-1-7.8-1-7.8l4.3,4.5
		C39.4,16.9,39.8,17.4,39.8,18.2z"/>
</g>
</svg>
