<svg xmlns="http://www.w3.org/2000/svg" xmlns:xlink="http://www.w3.org/1999/xlink" version="1.1" x="0px" y="0px" width="88px" height="75.001px" viewBox="0 0 88 75.001" enable-background="new 0 0 88 75.001" xml:space="preserve"><path fill="#FFFFFF" d="M84.785 63.058L73.449 51.722l6.387-6.387c2.397-2.398 1.685-5.094-1.588-5.988l-29.701-8.127 c-3.271-0.896-5.219 1.049-4.33 4.321l8.129 29.701c0.9 3.3 3.6 4 6 1.584l6.386-6.385l11.336 11.3 c2.397 2.4 6.3 2.4 8.7 0C87.183 69.4 87.2 65.5 84.8 63.058z"/><path opacity="0.6" enable-background="new    " d="M40.784 63.057L29.449 51.721l6.387-6.386c2.397-2.398 1.684-5.095-1.588-5.988 L4.545 31.219c-3.271-0.896-5.219 1.049-4.33 4.321l8.129 29.701c0.901 3.3 3.6 4 6 1.584l6.386-6.386l11.336 11.3 c2.398 2.4 6.3 2.4 8.7 0C43.183 69.4 43.2 65.5 40.8 63.057z"/><g><path fill="#41713D" d="M24.266 25.913c-2.731 2.666-6.093 3.999-10.085 3.999c-3.993 0-7.354-1.333-10.085-3.999 S0 19.9 0 15.963c0-3.967 1.365-7.283 4.096-9.949s6.092-4 10.085-4c3.993 0 7.4 1.3 10.1 4 c2.729 2.7 4.1 6 4.1 9.949C28.362 19.9 27 23.2 24.3 25.913z M22.218 15.983c0-2.408-0.772-4.463-2.318-6.163 c-1.545-1.7-3.445-2.55-5.699-2.55c-2.254 0-4.154 0.85-5.699 2.55c-1.546 1.7-2.318 3.755-2.318 6.2 c0 2.4 0.8 4.5 2.3 6.144c1.545 1.7 3.4 2.5 5.7 2.531c2.254 0 4.154-0.844 5.699-2.531 C21.445 20.4 22.2 18.4 22.2 15.983z"/><path fill="#41713D" d="M33.462 2.633h6.027v11.089L49.691 2.633h7.457L46.406 14.573c0.928 1.3 2.6 3.7 5.1 7.2 c2.499 3.5 4.4 6.1 5.6 7.863h-7.033l-7.92-10.665l-2.705 3.015v7.65h-6.027V2.633z"/></g><g><path fill="#FFFFFF" d="M24.266 23.9c-2.731 2.666-6.093 3.999-10.085 3.999c-3.993 0-7.354-1.333-10.085-3.999S0 17.9 0 13.9 C0 10 1.4 6.7 4.1 4s6.092-4 10.085-4c3.993 0 7.4 1.3 10.1 4c2.729 2.7 4.1 6 4.1 9.9 C28.362 17.9 27 21.2 24.3 23.9z M22.218 13.969c0-2.408-0.772-4.463-2.318-6.163c-1.545-1.7-3.445-2.55-5.699-2.55 c-2.254 0-4.154 0.85-5.699 2.55c-1.546 1.7-2.318 3.755-2.318 6.163c0 2.4 0.8 4.5 2.3 6.1 c1.545 1.7 3.4 2.5 5.7 2.531c2.254 0 4.154-0.844 5.699-2.531C21.445 18.4 22.2 16.4 22.2 13.969z"/><path fill="#FFFFFF" d="M33.462 0.619h6.027v11.089L49.691 0.619h7.457L46.406 12.559c0.928 1.3 2.6 3.7 5.1 7.2 c2.499 3.5 4.4 6.1 5.6 7.863h-7.033l-7.92-10.665l-2.705 3.015v7.65h-6.027V0.619z"/></g></svg>