<?xml version="1.0" encoding="utf-8"?>
<!-- Generator: Adobe Illustrator 22.1.0, SVG Export Plug-In . SVG Version: 6.00 Build 0)  -->
<svg width="253px" height="152px" version="1.1" id="Layer_1" xmlns="http://www.w3.org/2000/svg" xmlns:xlink="http://www.w3.org/1999/xlink" x="0px" y="0px"
	 viewBox="0 0 253 152" style="enable-background:new 0 0 253 152;" xml:space="preserve">
<style type="text/css">
	.st0{fill:#99958C;}
	.st1{fill:#7C7972;}
	.st2{fill:#514E47;}
	.st3{fill:#5E5B54;}
	.st4{fill:#706C63;}
	.st5{fill:#8E8B85;}
	.st6{fill:#A8A59E;}
</style>
<path class="st0" d="M210.9,30.3L198.6,7.9l-61.6,2.9l-33.7-8.1c-5.3-1.3-10.8-0.9-15.8,1.1L46.7,20.2L7.4,63.5l39.3,23.1l95.4-11.6
	L210.9,30.3z"/>
<path class="st1" d="M198.6,8l37.3,16.6l-7.7,11.6l-17.3-5.8L198.6,8z"/>
<path class="st2" d="M235.9,24.6l13,93.9l-20.7-82.3L235.9,24.6z"/>
<path class="st3" d="M248.9,118.4l-36.7,13l-19.8-13l18.5-88.1l17.3,5.8L248.9,118.4z"/>
<path class="st4" d="M192.4,118.4l-50.3-43.3l68.8-44.8L192.4,118.4z"/>
<path class="st2" d="M192.4,118.4l-50.3,33.2l70.1-20.2L192.4,118.4z"/>
<path class="st1" d="M142.1,151.6V75.1l50.3,43.3L142.1,151.6z"/>
<path class="st3" d="M142.1,151.6l-95.4-65l95.4-11.6V151.6z"/>
<path class="st2" d="M82,82.4l23.7,44.5l-59-40.2L82,82.4z"/>
<path class="st5" d="M7.4,63.5l-5.1,54.9l44.3-31.8L7.4,63.5z"/>
<path class="st1" d="M2.4,118.4L48.5,148l7.1-26l-8.9-35.4L2.4,118.4z"/>
<path class="st5" d="M55.6,122l50.1,4.8l-59-40.2L55.6,122z"/>
<path class="st4" d="M48.5,148l93.6,3.6l-36.4-24.8L55.6,122L48.5,148z"/>
<path class="st1" d="M82,82.4L24.5,44.7L7.4,63.5l39.3,23.1L82,82.4z"/>
<path class="st6" d="M137.1,10.8l-90.4,9.4L87.6,3.8c5-2,10.6-2.4,15.8-1.1L137.1,10.8z"/>
<path class="st6" d="M82,82.4l24.7-33.8c5-6.8,15.4-5.7,18.8,2c2.3,5.3,8.3,7.8,13.7,5.9l71.7-26.1l-68.8,44.8L82,82.4z"/>
<path class="st6" d="M48.5,60.4L32.3,36.1l-7.8,8.6L48.5,60.4z"/>
</svg>
