<svg xmlns="http://www.w3.org/2000/svg" viewBox="0 0 254 372"><title id="fox-title">Fox</title><desc id="fox-desc">Graphic asking &quot;What does the fox say?&quot; with an illustrated fox answering &quot;Foxes don&apos;t speak, they howl.&quot;</desc><style>/* Fox styles */ .face, .ears, .beard, .mouth, .nose, .eye-outline, .eye-whites, .eye-pupils, .bubble { fill:none; stroke: black; stroke-width: 2px; } .frame { stroke: black; stroke-width: 5px; } .face { fill:#E26910; } .ears { fill:#E2B79A; } .beard { fill:#E5E1D3; } .nose, .mouth { stroke: black; fill: black; } .eye-outline, .eye-pupils { fill: black; } .eye-whites { fill: white; } .bubble { stroke-width: 2.5px; fill: white; } .text { fill: none; font-family:&apos;Georgia&apos;, &apos;Times New Roman&apos;, &apos;Times&apos;, serif; font-size: 1em; } .text text { fill: black; } .text-outlined { stroke: white; stroke-width: 2; } .tree-light { fill:#5FA838; } .tree-medium { fill:#338912; } .tree-dark { fill:#1A6800; } .tree-grey { fill:#5C8942; }</style><defs><pattern id="forest" width="64.3" height="64.3" patternUnits="userSpaceOnUse"><path class="tree-light" d="M25.9.1H-4.4l15.2-49.9z"/><path class="tree-grey" d="M42.5 6.5H16L29.3-41z"/><path class="tree-light" d="M67.8 9.8H31.1l18.3-66.4z"/><path class="tree-medium" d="M25.9 31.3H-4.4l15.2-49.6z"/><path class="tree-medium" d="M47.3 33.4H17l15.1-49.6z"/><path class="tree-medium" d="M67.8 29.7H37.5l15.1-49.5z"/><path class="tree-dark" d="M17 50.5H-8.3L4.3 9.2z"/><path class="tree-dark" d="M36.1 60H10.8l12.6-41.4z"/><path class="tree-dark" d="M51.8 41.4H26.5L39.2 0z"/><path class="tree-light" d="M25.9 64.4H-4.4l15.2-49.9z"/><path class="tree-grey" d="M42.5 70.8H16l13.3-47.5z"/><path class="tree-light" d="M67.8 74.1H31.1L49.4 7.7z"/><path class="tree-medium" d="M90.3 31.3H60l15.1-49.6z"/><path class="tree-dark" d="M81.4 50.5H56.1L68.7 9.2z"/><path class="tree-light" d="M90.3 64.4H60l15.1-49.9z"/><path class="tree-medium" d="M25.9 95.7H-4.4l15.2-49.6z"/><path class="tree-medium" d="M47.3 97.7H17l15.1-49.5z"/><path class="tree-medium" d="M67.8 94.1H37.5l15.1-49.6z"/></pattern></defs><path fill="url(#forest)" d="M1.5 1.5h251v369H1.5z" class="frame"/><path d="M126.5 147c17 0 33.7-10.1 41.9-25 .9-1.6 2.4-3.7 4.1-3.1 1.5.6 1.7 2.5 1.6 4.1.5-1.4-1.8-2.5-3.1-1.7s-1.8 2.4-2.2 3.9c-1.7 5.6-5 10.7-9.3 14.7-1.6 1.4-3.3 2.7-4.6 4.4-1.3 1.7-2.2 3.8-1.7 5.9.7 3.4 4.3 5 7.2 6.9 7 4.5 11.5 12.7 11.4 21-.1 8.3-4.7 16.4-11.8 20.8-4.4 2.6-9.4 3.9-13.8 6.5-3.2 1.9-6 3.5-8 6.6-1.4 2.1-2.5 3.4-4.3 5.2-3.8 3.7-10.6 3.7-14.5.1-1.9-1.8-3-3.1-4.4-5.3-2.1-3.1-5-4.8-8.2-6.8-4.4-2.6-9.4-3.8-13.7-6.5-7-4.3-11.7-12.3-11.8-20.6-.1-8.3 4.2-16.4 11.1-21 3.2-2.1 7.4-4.1 7.7-7.9.3-3.5-3-6.2-5.7-8.5-4.7-4.2-8.2-9.6-10.2-15.6-.5-1.4-.9-3.1-2.2-3.8-1.3-.8-3.5.3-3.1 1.7v-.3-.4c0-.2.1-.5.1-.7 0-.3.1-.7.2-1 .2-.6.4-1.2 1-1.5.6-.3 1.3-.5 1.9-.2 1.3.5 2 2 2.6 3.2 8.1 14.9 24.7 24.9 41.8 24.9z" class="face"/><g class="ears"><path d="M88.8 159.7l-.1-.1-.1-.1c-.1-.1-.1-.2-.2-.3-7.1-9-10.7-20.7-10.1-32.1.1-1 .1-2.1.3-3.1.1-1.1.4-2.6 1.6-3.1.7-.3 1.5-.1 2.1.4.6.5.8 1.2 1 2 2.4 7.5 6.9 14.2 12.9 19.4 1.1 1 2.3 1.9 3.1 3.2.8 1.4 1 3.2.6 4.8-.3 1.1-1 2.1-1.8 2.9-2.9 2.4-7.2 3.1-9.3 6.1zM164.1 159.7l.1-.1.1-.1c.1-.1.1-.2.2-.3 7.1-9 10.7-20.7 10.1-32.1-.1-1-.1-2.1-.3-3.1-.1-1.1-.4-2.6-1.6-3.1-.7-.3-1.5-.1-2.1.4-.6.5-.8 1.2-1 2-2.4 7.5-6.9 14.2-12.9 19.4-1.1 1-2.3 1.9-3.1 3.2-.8 1.4-1 3.2-.6 4.8.3 1.1 1 2.1 1.8 2.9 2.9 2.4 7.1 3.1 9.3 6.1z"/></g><path d="M167.3 191.7c-13.3-.6-26.7 2.4-38.6 8.5-.8.4-1.7.9-2.6.7-.5-.1-1-.3-1.5-.6-2.1-1.1-4.2-2.1-6.3-3-2.2-.9-4.4-1.7-6.6-2.4-2.2-.7-4.5-1.3-6.8-1.8s-4.6-.9-6.9-1.1c-2.3-.3-4.7-.4-7-.5H85.8c-.1.1.6 1.1.7 1.2 1.1 1.7 2.6 3 4.2 4.2 1.7 1.2 3.5 2.2 5.3 3.1.6.3 1.3.6 1.9.9 4.8 2.1 9.9 3.9 13.5 7.7 4.1 4.2 6.3 8.5 11.7 10.6 2.4.9 5.1.8 7.4-.3 4.8-2.2 6.8-5.9 10.3-9.8 3.7-4 8.9-5.9 13.8-8.1s10.1-4.6 12.7-9.3z" class="beard"/><path d="M126.5 206.5c0 1.7-.7 3.4-1.9 4.6-1.2 1.2-2.9 2-4.6 2 2.4.6 4.9.8 7.3.8 1.9 0 3.8-.3 5.6-.7-1.7 0-3.4-.8-4.6-2.1-1.1-1.2-1.8-2.9-1.8-4.6z" class="mouth"/><ellipse cx="126.2" cy="198" rx="6.7" ry="6" class="nose"/><g class="eye-outline"><path d="M117 179.6c-.2-1.5-.3-3.1-.3-4.6 0-1.3.3-2.5.2-3.9-.1-.5-.2-1-.4-1.5-.5-1.2-1.5-2.2-2.6-3-1.6-1.1-3.6-1.7-5.6-1.5-.8.1-1.5.3-2.2.6-.5.2-.9.5-1.3.8-.4.3-.8.7-1.1 1.1-.2.2-.3.5-.4.8-.4 1.4-.5 3 .1 4.4.7 1.6 2.3 2.6 3.9 3.2.3.1.6.2.8.3.8.3 1.7.5 2.5.6h1.3c2.2-.2 3.9.9 5.1 2.7zM135 179.6c.2-1.5.3-3.1.3-4.6 0-1.3-.3-2.5-.2-3.9.1-.5.2-1 .4-1.5.5-1.2 1.5-2.2 2.6-3 1.6-1.1 3.6-1.7 5.6-1.5.8.1 1.5.3 2.2.6.5.2.9.5 1.3.8.4.3.8.7 1.1 1.1.2.2.3.5.4.8.4 1.4.5 3-.1 4.4-.7 1.6-2.3 2.6-3.9 3.2-.3.1-.6.2-.8.3-.8.3-1.7.5-2.5.6h-1.3c-2.2-.2-3.9.9-5.1 2.7z"/></g><g class="eye-whites"><path d="M108.2 176.3c-.3-.1-.6-.2-.8-.3-1.6-.6-3.2-1.6-3.9-3-.6-1.3-.5-2.8-.1-4.2.4-1.1 1.6-2 2.7-2.5.7-.3 1.5-.5 2.2-.6 2-.2 4 .4 5.6 1.5 1.1.7 2.1 1.6 2.6 2.8.5 1.1.5 2.4.1 3.6-.4 1.2-1.3 2.1-2.5 2.7-1 .5-2.2.7-3.4.6-.8-.1-1.7-.3-2.5-.6zM143.8 176.3c.3-.1.6-.2.8-.3 1.6-.6 3.2-1.6 3.9-3 .6-1.3.5-2.8.1-4.2-.4-1.1-1.6-2-2.7-2.5-.7-.3-1.5-.5-2.2-.6-2-.2-4 .4-5.6 1.5-1.1.7-2.1 1.6-2.6 2.8-.5 1.1-.5 2.4-.1 3.6.4 1.2 1.3 2.1 2.5 2.7 1 .5 2.2.7 3.4.6.8-.1 1.7-.3 2.5-.6z"/></g><g class="eye-pupils"><circle cx="110" cy="169.5" r="3.5"/><circle cx="142" cy="169.5" r="3.5"/></g><g class="text-outlined"><path d="M84.8 39.2c-1.3 2.4-2.5 5.9-3.5 10.7-.9 3.9-1.3 6.3-1.2 7.1v.5c.1.2.1.4.1.5-.1.8-.3 1.2-.7 1.2-.3 0-1.1-.2-2.5-.9-1.4-.6-2.2-1.1-2.3-1.4 0 0 0-.5-.1-1.5-.7-2.2-1.2-4.4-1.4-6.7-.5 1.2-.9 2.4-1.4 3.6-.4 1.3-.6 2.6-.6 3.9v.6c0 .3.1.5 0 .6-.1.7-.4 1.1-.7 1.2-.1 0-.2.1-.4.1-.8 0-1.6-.2-2.6-.5-1.2-.4-1.9-.9-2-1.5v-1.3c-.8-2.9-1.3-5.4-1.6-7.8-.3-2.2-.4-4.9-.3-8.1-.2-.8-.2-1.3-.1-1.5.2-.7.5-1.1.9-1.1s1.1.3 2.1.8 1.5.9 1.5 1.2c0 .1 0 .6-.1 1.4-.1.8-.1 1.5-.1 2.1 0 1.4.2 3.7.7 6.9l3.5-11c0-.2.1-.5.3-.9.2-.2.5-.4.8-.4.2 0 .9.2 2 .8 1.2.6 1.7.9 1.8 1.2v1.7c0 1.2-.1 2.2-.1 3.1 0 2.2.1 4 .4 5.6.4-2.3 1-4.7 1.8-7.1.5-2 1-3.3 1.3-4 .2-.8.6-1.2 1.3-1.1.6.1 1.2.3 1.9.6.7.5 1.2.9 1.3 1.4zM100.7 48.3c0 .2-.2.5-.6.9-.4.3-.6.5-.8.5h-.4V56s.1.3.2.9c.1 1.1 0 1.7-.4 1.9-.1 0-.2.1-.4.1-.6 0-1.3-.2-2.2-.6-1-.4-1.6-.9-1.8-1.3 0-.1 0-.4-.1-.7 0-.1 0-.3.2-.5.1-.2.2-.3.2-.4v-5c-.3 0-.9.2-1.9.4-.9.2-1.5.4-1.8.5v5.1c0 .1.1.3.2.4.1.2.2.3.2.4-.1.3-.1.5-.2.8 0 .2-.1.3-.3.4-.3.1-1-.1-2.2-.5s-1.9-.7-1.9-1c0-.2-.1-.4 0-.6 0-.3.1-.6.1-.7v-16c0-.3.1-.7.2-1.4 0-.2.3-.4.9-.7h.3c.6 0 1.3.1 2 .3.9.3 1.4.6 1.4 1.1 0 .1-.1.4-.2.8-.2.4-.2.7-.2.9v5.9c1.1-.3 2.4-.6 3.7-.9v-7s0-.2-.1-.4c-.3-.1-.3-.3-.3-.5.1-.3.4-.5.8-.6.3 0 .7-.1 1-.1.4 0 .9.1 1.6.3s1.1.5 1.2.9c0 .1 0 .3-.1.5-.1.3-.2.5-.2.7v6.9c.1.1.5.5 1.2 1.1.5.4.8.7.7.9zM117.1 56.7c0 .1 0 .5-.1 1.1 0 .3-.1.5-.2.7-.1 0-.2.1-.4.1-.6 0-1.2-.1-2.1-.4-.9-.3-1.5-.6-1.8-1-.1-.1-.3-.6-.4-1.5-.2-1.1-.4-2-.6-2.8-.6.1-1.6.3-2.8.7s-2 .7-2.4.9c-.2.7-.6 1.6-1 2.6 0 .2-.1.5-.2.7s-.2.4-.4.5h-.2c-.4 0-1.1-.2-2-.6-.9-.4-1.4-.7-1.5-.8-.1-.2.1-.8.5-1.7.5-1.3.8-2.1.9-2.5-.4-.4-.5-.7-.5-1v-.3c0-.2.5-.6 1.5-1.1l3.2-11c.1-.2.1-.6 0-1.1 0-.5 0-.7.2-.9.1-.1.3-.1.6-.1.8 0 1.9.2 3.4.6 1.5.4 2.3.8 2.6 1.1.1 1.8.5 4.6 1.1 8.3.9 4.6 1.7 7.8 2.6 9.5zm-6.6-7.6c-.2-1-.4-1.7-.4-2.1-.2-1.1-.3-2.3-.4-3.5-.3.8-.7 1.9-1.2 3.4s-.7 2.5-.8 2.9c.4-.1 1.3-.3 2.8-.7zM128.6 41.5c-.1 0-.3-.1-.5-.2s-.4-.1-.6-.1l-2.6.7V55c0 .5.1 1 .3 1.6.1.2.1.5 0 1s-.3.8-.5 1h-.2c-.5 0-1.3-.1-2.3-.3-1.1-.2-1.8-.5-2-.7-.2-.3-.2-.7 0-1.2.2-.4.3-.8.3-1V43l-1.8.5c-.1 0-.2.1-.4.2s-.4.2-.5.1c-.4-.1-.9-.6-1.6-1.5s-1-1.5-.9-1.8c.1-.4.5-.7 1.2-.9.2 0 .4-.1.7 0h.6l8.7-2.2c.1 0 .3-.1.7-.3.3-.1.5-.2.7-.1.5.1.8.2.9.5.1.2.2.6.4 1.1.2.6.2 1.2.2 1.7 0 .4 0 .6-.1.8.1.2-.2.4-.7.4zM149 45.6c0 1.8-.5 3.8-1.5 5.9-.8 1.7-1.8 3.3-3 4.9-1 1.3-1.8 2.1-2.3 2.3-.2.1-.5.1-.8.1-.7 0-1.6-.2-2.5-.7-.8-.4-1.5-.8-1.9-1.2v-18c0-.4.3-.7.8-.8 0 0 .5 0 1.2.2.1 0 .6-.2 1.5-.5.8-.4 1.6-.6 2.2-.6.7 0 1.4.2 2.1.6.4.2 1 .7 1.7 1.4 1.1 1 1.8 2 2.2 3 .2.7.3 1.8.3 3.4zm-4.2-4.8c-.1 0-.2-.1-.4-.1-.9 0-1.9.4-3.2 1.1V53c1.1-.6 2.1-2.2 2.9-4.8.7-2.2 1-4.2 1-6 .1-.8 0-1.3-.3-1.4zM159.5 58.5c-.3 0-.7 0-1.2-.1s-.9-.3-1.3-.4c-.5-.1-1.3-.4-2.4-.7-1.3-.6-2.3-1.7-3-3.5-.6-1.5-.9-3.3-.9-5.5 0-1.8.3-3.8.9-6.1.8-3.1 1.9-4.7 3.2-4.7.1 0 .3 0 .5.1s.4.1.5.1c1.2-.3 2-.5 2.4-.5h.5c2 .2 3.6 1.5 4.7 3.8 1 2 1.5 4.5 1.5 7.3 0 2.7-.5 5-1.4 6.9-.9 2-2.2 3.1-4 3.3zm-.4-18.3c-.4-.1-.7.4-1.1 1.5-.4 1.1-.7 1.6-1.1 1.6-.1 0-.2 0-.4-.1s-.3-.1-.4-.2c-.6 1.2-.8 3-.8 5.4 0 1.8.2 3.4.6 4.7.4 1.5 1 2.2 1.8 2.4.9.2 1.6-.8 2.2-2.8.5-1.8.7-3.9.7-6.3 0-1.7-.1-3-.4-4.2-.2-1.2-.6-1.9-1.1-2zM177.8 55c0 .3-.2.6-.4.9-.2.3-.5.5-.6.6 0 0-.1 0-.3-.1-.1-.1-.2-.1-.3-.1h-.1l-1.5.6c-1.2.6-2.4 1.3-3.4 2.2-1.7-.7-2.6-1.1-2.7-1.1-1-.5-1.5-.8-1.5-1V38.1c0-.1.2-.3.6-.5.4-.2.7-.3.9-.3s.6.1 1.2.4c.6.2 1.1.4 1.5.4.5 0 1.1-.2 2-.7.7-.4 1.2-.6 1.4-.5.4.1 1 .6 1.8 1.3s1.2 1.3 1.3 1.6c0 .1-.1.4-.5.8-.3.4-.6.6-.8.6s-.3 0-.4-.1c-.1 0-.1-.1-.2 0-.6.1-1.2.3-1.7.5-1.2.4-2.1.9-2.7 1.4v4.1c.6-.3 1.3-.6 2.3-.9.3 0 .8.3 1.7 1.1s1.3 1.3 1.3 1.6c0 .2-.1.4-.4.6s-.5.4-.7.5c-.2 0-.5 0-.9.1-.6.1-1.8.6-3.4 1.6v2.6c.5-.3 1.2-.7 2-1.1.9-.4 1.4-.6 1.6-.6.2 0 .8.4 1.8 1.1.7.6 1.1 1.1 1.1 1.3zM190.1 54.3c0 1.2-.4 2.2-1.2 3s-2 1.2-3.4 1.2c-.4 0-.8-.1-1.2-.2l-1.2-.3-1.2-.3s-.8-.3-1.1-.6c-.4-.4-.8-1-1.1-1.9-.3-1.1-.6-1.7-.8-2-.1-.1-.3-.4-.5-.7 0-.2 0-.5.1-.7s.3-.4.5-.5c.1 0 .3-.1.5-.1.6 0 1.3.1 2.1.2s1.3.3 1.4.4c.1.1.2.7.4 1.8.2 1 .4 1.6.7 1.7h.2c.3 0 .6-.3.8-.8s.3-1.1.3-1.8c0-1.5-.5-2.4-1.3-2.9-2.1-1.1-3.5-2.2-4.4-3.1-1-1.1-1.4-2.4-1.3-3.9.1-1.2.5-2.5 1.4-3.8.8-1.3 1.7-2 2.6-2.2.4-.1 1.5.3 3.5 1.1l1.5.6c.5.2.9.5 1.2.9.5.6.7 1.6.7 3v2.2c0 .1.1.3.2.6.1.2.1.4.1.5 0 .7-.3 1.1-.9 1.2-.3 0-1-.1-1.8-.4-1-.3-1.6-.7-1.9-1V45c0-.2 0-.8.1-1.7s.1-1.5.1-1.9c0-.7-.1-1.1-.2-1.1-.5 0-.9.4-1.3 1.1-.3.7-.5 1.5-.5 2.4 0 1.5.4 2.6 1.3 3.2 1 .6 2 1.3 3 1.9 1 .6 1.6 1.2 2 1.9.3 1 .6 2.1.6 3.5zM62.5 71.5c-.1 0-.3-.1-.5-.2s-.4-.1-.6-.1l-2.6.7V85c0 .5.1 1 .3 1.6.1.2.1.5 0 1s-.3.8-.5 1h-.2c-.5 0-1.3-.1-2.3-.3-1.1-.2-1.8-.5-2-.7-.2-.3-.2-.7 0-1.2.2-.4.3-.8.3-1V73l-1.8.5c-.1 0-.2.1-.4.2s-.4.2-.5.1c-.4-.1-.9-.6-1.6-1.5-.7-.9-1-1.5-.9-1.8.1-.4.5-.7 1.2-.9.2 0 .4-.1.7 0h.6l8.7-2.2c.1 0 .3-.1.7-.3.3-.1.5-.2.7-.1.5.1.8.2.9.5.1.2.2.6.4 1.1.2.6.2 1.2.2 1.7 0 .4 0 .6-.1.8.1.2-.2.4-.7.4zM79.2 78.3c0 .2-.2.5-.6.9-.4.3-.6.5-.8.5h-.4V86s.1.3.2.9c.1 1.1 0 1.7-.4 1.9-.1 0-.2.1-.4.1-.6 0-1.3-.2-2.2-.6-1-.4-1.6-.9-1.8-1.3 0-.1 0-.4-.1-.7 0-.1 0-.3.2-.5.1-.2.2-.3.2-.4v-5c-.3 0-.9.2-1.9.4-.9.2-1.5.4-1.8.5v5.1c0 .1.1.3.2.4.1.2.2.3.2.4-.1.3-.1.5-.2.8 0 .2-.1.3-.3.4-.3.1-1-.1-2.2-.5s-1.9-.7-1.9-1c0-.2-.1-.4 0-.6 0-.3.1-.6.1-.7v-16c0-.3.1-.7.2-1.4 0-.2.3-.4.9-.7h.3c.6 0 1.3.1 2 .3.9.3 1.4.6 1.4 1.1 0 .1-.1.4-.2.8-.2.4-.2.7-.2.9v5.9c1.1-.3 2.4-.6 3.7-.9v-7s0-.2-.1-.4-.1-.4-.1-.5c.1-.3.4-.5.8-.6.3 0 .7-.1 1-.1.4 0 .9.1 1.6.3s1.1.5 1.2.9c0 .1 0 .3-.1.5-.1.3-.2.5-.2.7v6.9c.1.1.5.5 1.2 1.1.3.4.5.7.5.9zM92.3 85c-.1.3-.2.6-.4.9-.2.3-.5.5-.6.6 0 0-.1 0-.3-.1-.1-.1-.2-.1-.3-.1h-.1l-1.5.6c-1.2.6-2.4 1.3-3.4 2.2C84 88.4 83.1 88 83 88c-1-.5-1.5-.8-1.5-1V68.1c0-.1.2-.3.6-.5s.7-.3.9-.3c.2 0 .6.1 1.2.4.6.2 1.1.4 1.5.4.5 0 1.1-.2 1.9-.7.7-.4 1.2-.6 1.4-.5.4.1 1 .6 1.8 1.3.8.7 1.2 1.3 1.3 1.6 0 .1-.1.4-.5.8-.3.4-.6.6-.8.6-.2 0-.3 0-.4-.1-.1 0-.1-.1-.2 0-.6.1-1.2.3-1.7.5-1.2.4-2.1.9-2.7 1.4v4.1c.6-.3 1.3-.6 2.3-.9.3 0 .8.3 1.7 1.1.9.8 1.3 1.3 1.3 1.6 0 .2-.1.4-.4.6-.2.2-.5.4-.7.5-.2 0-.5 0-.9.1-.6.1-1.8.6-3.3 1.6v2.6c.5-.3 1.2-.7 2-1.1.9-.4 1.4-.6 1.6-.6s.8.4 1.8 1.1c.7.6 1.1 1.1 1.1 1.3zM110.7 69.6c0 .3-.1.5-.4.9-.2.4-.5.5-.9.6-.1 0-.3 0-.4-.1-.2-.1-.3-.1-.4-.1-.3 0-1 .2-2.1.7-1.2.5-2.1 1-2.7 1.4v4.6c.1 0 .5-.3 1.2-.7.5-.3.8-.4 1.1-.5.3 0 .9.5 1.7 1.4.8.9 1.2 1.6 1.2 1.9s-.2.6-.5.9c-.2.2-.5.4-.7.5-.1 0-.2 0-.4-.1s-.3-.1-.4-.1c0 0-.1 0-.1.1-.5.2-.9.4-1.3.5-.9.4-1.5.8-1.8 1v3.6c0 .2.1.3.3.5.2.2.3.4.3.7 0 .9-.5 1.5-1.3 1.7-.9-.4-1.7-.9-2.4-1.4-.7-.6-1.1-1.1-1.1-1.5V69.6c0-.3-.1-.5-.3-.8-.2-.3-.3-.5-.2-.6.1-.3.2-.5.5-.8s.6-.4.9-.4c.2 0 .6.2 1.4.7s1.3.8 1.5.8l2.8-1.1c.2-.2.6-.4 1.1-.6.4 0 1.1.3 2.1 1.1s1.3 1.4 1.3 1.7zM119.5 88.5c-.4 0-.7 0-1.2-.1s-.9-.3-1.3-.4c-.5-.1-1.3-.4-2.4-.7-1.3-.6-2.3-1.7-3-3.5-.6-1.5-.9-3.3-.9-5.5 0-1.8.3-3.8.9-6.1.8-3.1 1.9-4.7 3.2-4.7.1 0 .3 0 .5.1s.4.1.5.1c1.2-.3 2-.5 2.4-.5h.5c2 .2 3.6 1.5 4.7 3.8 1 2 1.6 4.5 1.6 7.3 0 2.7-.5 5-1.4 6.9-1 2-2.3 3.1-4.1 3.3zm-.4-18.3c-.4-.1-.7.4-1.1 1.5s-.7 1.6-1.1 1.6c-.1 0-.2 0-.4-.1s-.3-.1-.4-.2c-.6 1.2-.9 3-.9 5.4 0 1.8.2 3.4.6 4.7.4 1.5 1 2.2 1.8 2.4.9.2 1.6-.8 2.2-2.8.5-1.8.7-3.9.7-6.3 0-1.7-.1-3-.4-4.2-.2-1.2-.5-1.9-1-2zM141.7 69c.1.4-.2.9-.7 1.5-.1.1-.3.3-.6.4s-.4.3-.5.4l-4 5.9 4 7c.1.1.2.3.5.4s.4.3.4.4c.2.4.3.7.3.9 0 .2 0 .3-.1.5-.2.3-.7.7-1.5 1.2s-1.3.8-1.6.9c-.1 0-.3 0-.6-.2-.3-.1-.5-.3-.6-.5 0-.4-.1-.9-.4-1.6l-2.8-4.7-2.8 4.9c-.1.1-.1.3-.2.6s0 .5-.1.6c-.2.4-.3.6-.4.7-.1.2-.4.4-.6.4-.4.1-1.1-.1-2.1-.6s-1.7-.9-1.9-1.3c-.1-.1-.1-.3-.1-.4 0-.3.2-.6.7-1.1.2-.1.5-.4.8-.8l4.3-7.3-3.9-6.5-.5-.5c-.3-.2-.4-.4-.4-.5 0-.3.4-.8 1.3-1.5s1.5-1.1 2-1.2c.4-.1.7 0 .9.3.1.2.2.5.3.9l2.8 5 3.3-4.8c0-.2.1-.5.3-.9.2-.2.6-.4 1.2-.5.3 0 .9.2 1.9.7.8.6 1.3 1 1.4 1.3zM160.3 84.3c0 1.2-.4 2.2-1.2 3s-2 1.2-3.4 1.2c-.4 0-.8-.1-1.2-.2l-1.2-.3-1.2-.3s-.8-.3-1.1-.6c-.5-.4-.8-1-1.1-1.9-.4-1.1-.6-1.7-.8-2-.1-.1-.3-.4-.5-.7-.1-.2 0-.5.1-.7s.3-.4.5-.5c.1 0 .3-.1.5-.1.6 0 1.3.1 2.1.2s1.3.3 1.4.4c.1.1.2.7.4 1.8.2 1 .4 1.6.7 1.7h.2c.3 0 .6-.3.8-.8s.3-1.1.3-1.8c0-1.5-.4-2.4-1.3-2.9-2.1-1.1-3.5-2.2-4.3-3.1-1-1.1-1.4-2.4-1.3-3.9.1-1.2.5-2.5 1.4-3.8.8-1.3 1.7-2 2.6-2.2.4-.1 1.5.3 3.5 1.1l1.5.6s.9.5 1.2.9c.5.6.7 1.6.7 3v2.2c0 .1.1.3.2.6.1.2.1.4.1.5 0 .7-.3 1.1-.9 1.2-.3 0-.9-.1-1.8-.4-1-.3-1.6-.7-1.9-1V75c0-.2 0-.8.1-1.7.1-.9.1-1.5.1-1.9 0-.7-.1-1.1-.2-1.1-.5 0-.9.4-1.3 1.1s-.5 1.5-.5 2.4c0 1.5.4 2.6 1.3 3.2 1 .6 2 1.3 3 1.9s1.6 1.2 2 1.9c.2 1 .5 2.1.5 3.5zM177.6 86.7c0 .1 0 .5-.1 1.1 0 .3-.1.5-.2.7-.1 0-.2.1-.4.1-.5 0-1.2-.1-2-.4-.9-.3-1.5-.6-1.8-1-.1-.1-.3-.6-.4-1.5-.2-1.1-.4-2-.6-2.8-.6.1-1.6.3-2.8.7s-2 .7-2.4.9c-.2.7-.6 1.6-1 2.6 0 .2-.1.5-.2.7-.1.2-.2.4-.4.5h-.2c-.4 0-1.1-.2-2-.6s-1.4-.7-1.5-.8c-.1-.2.1-.8.5-1.7.5-1.3.8-2.1.9-2.5-.4-.4-.5-.7-.5-1v-.3c0-.2.5-.6 1.5-1.1l3.2-11c0-.2.1-.6 0-1.1 0-.5 0-.7.2-.9.1-.1.3-.1.6-.1.8 0 1.9.2 3.4.6 1.4.4 2.3.8 2.6 1.1.1 1.8.5 4.6 1.1 8.3.8 4.6 1.7 7.8 2.5 9.5zm-6.5-7.6c-.2-1-.4-1.7-.4-2.1-.2-1.1-.3-2.3-.4-3.5-.3.8-.7 1.9-1.2 3.4s-.7 2.5-.8 2.9c.4-.1 1.3-.3 2.8-.7zM192.2 69.3c.1.9-.1 1.4-.6 1.7-.3.1-.4.2-.4.2-1 1.5-2.2 4.1-3.8 7.8-1.5 3.5-2.3 5.7-2.3 6.4 0 .1 0 .4.1.7.1.3.1.6.1.8-.1 1.1-.4 1.7-.8 1.8-.2 0-.8-.1-1.7-.4s-1.5-.5-1.9-.7c-.6-.4-.8-.8-.8-1.2 0-.2.1-.4.2-.7.2-.6.7-2 1.5-4-1.4-2.9-2.3-4.8-2.8-5.9-1-2.2-1.6-3.9-2-5.3 0-.1-.1-.2-.3-.4-.2-.2-.2-.3-.2-.5s.3-.6 1-1.1c1.4-1.1 2.3-1.6 2.8-1.5.3 0 .5.2.7.5.2.2.3.5.3.7 0 .3 0 .8.1 1.5.4 2.1 1.2 4.3 2.4 6.7.9-2.3 1.5-3.5 1.6-3.8.6-1.4 1.3-2.7 2.1-4 .1-.3.2-.6.4-1 .3-.4.8-.5 1.3-.5.4 0 1 .3 1.8.9.7.7 1.1 1 1.2 1.3zM203.8 72.7c.1 1.4-.3 2.6-1.1 3.7-.5.6-1.4 1.5-2.9 2.7-1.3 1.1-2.2 2-2.7 2.7-.3.5-.6.8-.8.7-.6-.1-1.4-.8-2.5-2.1 0-.1-.1-.1-.1-.2 0-.3.1-.6.4-1 .3-.4 1.3-1.3 2.9-2.7 1.6-1.4 2.7-2.4 3.3-3.1.9-1.2 1.1-2.1.6-2.8-.3-.4-.8-.6-1.4-.6-1.2 0-2.6.5-4.5 1.6h-.1c-.2 0-.6-.3-1.1-.8-.4-.4-.7-.9-1-1.3-.1-.2-.1-.5.1-.8.2-.3.9-.6 2-1.1 1.3-.5 2.4-.7 3.5-.7.9 0 1.7.2 2.3.5 1.9 1.2 2.9 2.9 3.1 5.3zm-5.6 13.6v.2s-.1.3-.3.5-.3.4-.4.6c-.1.3-.2.7-.4 1-.2.5-.4.7-.7.7-.7-.1-1.6-.8-2.8-2-.1-.1-.1-.2-.1-.2 0-.1.1-.1.1-.2.1-.3.2-.6.4-.9.2-.4.2-.8.2-1.1 0-.2.1-.4.3-.5s.5-.2.7-.2c.4 0 .9.3 1.6.8.9.5 1.3 1 1.4 1.3z"/></g><path d="M151.8 222.8c-.9-.8-.1-2.3 1.1-1.8 5.5 2.1 10.5 5.8 13.8 10.7 2.9 4.3 4.5 9.4 4.7 14.6.3 7.5 4.2 14.4 10.4 18.7 2.2 1.5 4.2 3.1 6.1 4.9 5.3 5.1 9.3 11.9 9.6 19.2.4 7.4-3 14.6-7.9 20-5 5.5-11.4 9.3-18.1 12.4-26 11.8-56.5 12.1-83.5 2.9-10-3.4-19.8-8.3-26.4-16.4-2.7-3.4-4.7-7.3-5.9-11.5-1.9-7-.9-12.8 2.1-18.7 2.4-4.7 7-8.4 11.1-11.6 4.5-3.4 9.4-6.2 14.6-8.5 3.1-1.4 6.3-2.5 9.5-3.5 13.5-4 27.8-4.7 41.8-3.8 3.7.2 7.4.6 11-.4 7.1-1.9 12.3-9.3 11.7-16.6-.3-4.1-2.5-7.9-5.7-10.6z" class="bubble"/><text transform="translate(88.1 276.09)" class="speech"><tspan x="0" y="0">Foxes don’t </tspan><tspan x="-1" y="18">speak. They </tspan><tspan x="20" y="36">howl.</tspan></text></svg>
