<svg version="1.1" xmlns="http://www.w3.org/2000/svg" viewBox="0 0 254 372" aria-labelledby="fox-title" aria-describedby="fox-desc">
	<title id="fox-title">Fox</title>
	<desc id="fox-desc">Graphic asking "What does the fox say?" with an illustrated fox answering "Foxes don't speak, they howl."</desc>
	<style type="text/css">
		/* Fox styles */
		.face,
		.ears,
		.beard,
		.mouth,
		.nose,
		.eye-outline,
		.eye-whites,
		.eye-pupils,
		.bubble {
		    fill:none;
		    stroke: black;
		    stroke-width: 2px;
		}

		.frame {
			stroke: black;
		    stroke-width: 5px;
		}

		.face {
		    fill:#E26910;
		}

		.ears {
		    fill:#E2B79A;
		}

		.beard {
		    fill:#E5E1D3;
		}

		.nose,
		.mouth {
		    stroke: black;
		    fill: black;
		}

		.eye-outline,
		.eye-pupils {
		    fill: black;
		}

		.eye-whites {
		    fill: white;
		}

		.bubble {
		    stroke-width: 2.5px;
		    fill: white;
		}

		.text {
		    fill: none;
		    font-family:'Georgia', 'Times New Roman', 'Times', serif;
		    font-size: 1em;
		}

		.text text {
		    fill: black;
		}

		.text-outlined {
			stroke: white;
			stroke-width: 2;
		}

		.tree-light  { fill:#5FA838; }
		.tree-medium { fill:#338912; }
		.tree-dark   { fill:#1A6800; }
		.tree-grey   { fill:#5C8942; }

	</style>

	<defs>
		<pattern id="forest" width="64.3" height="64.3" patternUnits="userSpaceOnUse">
			<polygon class="tree-light" points="25.9,0.1 -4.4,0.1 10.8,-49.8 "/>
			<polygon class="tree-grey" points="42.5,6.5 16,6.5 29.3,-41 "/>
			<polygon class="tree-light" points="67.8,9.8 31.1,9.8 49.4,-56.6 "/>
			<polygon class="tree-medium" points="25.9,31.3 -4.4,31.3 10.8,-18.3 "/>
			<polygon class="tree-medium" points="47.3,33.4 17,33.4 32.1,-16.2 "/>
			<polygon class="tree-medium" points="67.8,29.7 37.5,29.7 52.6,-19.8 "/>
			<polygon class="tree-dark" points="17,50.5 -8.3,50.5 4.3,9.2 "/>
			<polygon class="tree-dark" points="36.1,60 10.8,60 23.4,18.6 "/>
			<polygon class="tree-dark" points="51.8,41.4 26.5,41.4 39.2,0 "/>
			<polygon class="tree-light" points="25.9,64.4 -4.4,64.4 10.8,14.5 "/>
			<polygon class="tree-grey" points="42.5,70.8 16,70.8 29.3,23.3 "/>
			<polygon class="tree-light" points="67.8,74.1 31.1,74.1 49.4,7.7 "/>
			<polygon class="tree-medium" points="90.3,31.3 60,31.3 75.1,-18.3 "/>
			<polygon class="tree-dark" points="81.4,50.5 56.1,50.5 68.7,9.2 "/>
			<polygon class="tree-light" points="90.3,64.4 60,64.4 75.1,14.5 "/>
			<polygon class="tree-medium" points="25.9,95.7 -4.4,95.7 10.8,46.1 "/>
			<polygon class="tree-medium" points="47.3,97.7 17,97.7 32.1,48.2 "/>
			<polygon class="tree-medium" points="67.8,94.1 37.5,94.1 52.6,44.5 "/>
		</pattern>
	</defs>

	<g class="frame">
		<rect x="1.5" y="1.5" width="251" height="369" fill="url(#forest)"/>
	</g>
	<g class="face">
		<path d="M126.5,147c17,0,33.7-10.1,41.9-25c0.9-1.6,2.4-3.7,4.1-3.1c1.5,0.6,1.7,2.5,1.6,4.1c0.5-1.4-1.8-2.5-3.1-1.7
			c-1.3,0.8-1.8,2.4-2.2,3.9c-1.7,5.6-5,10.7-9.3,14.7c-1.6,1.4-3.3,2.7-4.6,4.4c-1.3,1.7-2.2,3.8-1.7,5.9c0.7,3.4,4.3,5,7.2,6.9
			c7,4.5,11.5,12.7,11.4,21c-0.1,8.3-4.7,16.4-11.8,20.8c-4.4,2.6-9.4,3.9-13.8,6.5c-3.2,1.9-6,3.5-8,6.6c-1.4,2.1-2.5,3.4-4.3,5.2
			c-3.8,3.7-10.6,3.7-14.5,0.1c-1.9-1.8-3-3.1-4.4-5.3c-2.1-3.1-5-4.8-8.2-6.8c-4.4-2.6-9.4-3.8-13.7-6.5c-7-4.3-11.7-12.3-11.8-20.6
			c-0.1-8.3,4.2-16.4,11.1-21c3.2-2.1,7.4-4.1,7.7-7.9c0.3-3.5-3-6.2-5.7-8.5c-4.7-4.2-8.2-9.6-10.2-15.6c-0.5-1.4-0.9-3.1-2.2-3.8
			c-1.3-0.8-3.5,0.3-3.1,1.7c0-0.1,0-0.2,0-0.3c0-0.1,0-0.2,0-0.4c0-0.2,0.1-0.5,0.1-0.7c0-0.3,0.1-0.7,0.2-1c0.2-0.6,0.4-1.2,1-1.5
			c0.6-0.3,1.3-0.5,1.9-0.2c1.3,0.5,2,2,2.6,3.2C92.8,137,109.4,147,126.5,147C126.5,147,126.5,147,126.5,147z"/>
	</g>
	<g class="ears">
		<path d="M88.8,159.7c0,0-0.1-0.1-0.1-0.1c0,0-0.1-0.1-0.1-0.1c-0.1-0.1-0.1-0.2-0.2-0.3c-7.1-9-10.7-20.7-10.1-32.1
			c0.1-1,0.1-2.1,0.3-3.1c0.1-1.1,0.4-2.6,1.6-3.1c0.7-0.3,1.5-0.1,2.1,0.4c0.6,0.5,0.8,1.2,1,2c2.4,7.5,6.9,14.2,12.9,19.4
			c1.1,1,2.3,1.9,3.1,3.2c0.8,1.4,1,3.2,0.6,4.8c-0.3,1.1-1,2.1-1.8,2.9C95.2,156,90.9,156.7,88.8,159.7z"/>
		<path d="M164.1,159.7c0,0,0.1-0.1,0.1-0.1c0,0,0.1-0.1,0.1-0.1c0.1-0.1,0.1-0.2,0.2-0.3c7.1-9,10.7-20.7,10.1-32.1
			c-0.1-1-0.1-2.1-0.3-3.1c-0.1-1.1-0.4-2.6-1.6-3.1c-0.7-0.3-1.5-0.1-2.1,0.4c-0.6,0.5-0.8,1.2-1,2c-2.4,7.5-6.9,14.2-12.9,19.4
			c-1.1,1-2.3,1.9-3.1,3.2c-0.8,1.4-1,3.2-0.6,4.8c0.3,1.1,1,2.1,1.8,2.9C157.7,156,161.9,156.7,164.1,159.7z"/>
	</g>
	<g class="beard">
		<path d="M167.3,191.7c-13.3-0.6-26.7,2.4-38.6,8.5c-0.8,0.4-1.7,0.9-2.6,0.7c-0.5-0.1-1-0.3-1.5-0.6
			c-2.1-1.1-4.2-2.1-6.3-3c-2.2-0.9-4.4-1.7-6.6-2.4c-2.2-0.7-4.5-1.3-6.8-1.8c-2.3-0.5-4.6-0.9-6.9-1.1c-2.3-0.3-4.7-0.4-7-0.5
			c-1.2,0-2.3,0-3.5,0c-0.3,0-0.6,0-0.9,0c-0.1,0-0.3,0-0.4,0c-0.1,0-0.4,0-0.4,0c-0.1,0.1,0.6,1.1,0.7,1.2c1.1,1.7,2.6,3,4.2,4.2
			c1.7,1.2,3.5,2.2,5.3,3.1c0.6,0.3,1.3,0.6,1.9,0.9c4.8,2.1,9.9,3.9,13.5,7.7c4.1,4.2,6.3,8.5,11.7,10.6c2.4,0.9,5.1,0.8,7.4-0.3
			c4.8-2.2,6.8-5.9,10.3-9.8c3.7-4,8.9-5.9,13.8-8.1S164.7,196.4,167.3,191.7z"/>
	</g>
	<g class="mouth">
		<path d="M126.5,206.5c0,1.7-0.7,3.4-1.9,4.6c-1.2,1.2-2.9,2-4.6,2c2.4,0.6,4.9,0.8,7.3,0.8c1.9,0,3.8-0.3,5.6-0.7
			c-1.7,0-3.4-0.8-4.6-2.1C127.2,209.9,126.5,208.2,126.5,206.5z"/>
	</g>
	<g class="nose">
		<ellipse cx="126.2" cy="198" rx="6.7" ry="6"/>
	</g>
	<g class="eye-outline">
		<path d="M117,179.6c-0.2-1.5-0.3-3.1-0.3-4.6c0-1.3,0.3-2.5,0.2-3.9c-0.1-0.5-0.2-1-0.4-1.5c-0.5-1.2-1.5-2.2-2.6-3
			c-1.6-1.1-3.6-1.7-5.6-1.5c-0.8,0.1-1.5,0.3-2.2,0.6c-0.5,0.2-0.9,0.5-1.3,0.8c-0.4,0.3-0.8,0.7-1.1,1.1c-0.2,0.2-0.3,0.5-0.4,0.8
			c-0.4,1.4-0.5,3,0.1,4.4c0.7,1.6,2.3,2.6,3.9,3.2c0.3,0.1,0.6,0.2,0.8,0.3c0.8,0.3,1.7,0.5,2.5,0.6c0.4,0,0.9,0,1.3,0
			C114.1,176.7,115.8,177.8,117,179.6z"/>
		<path d="M135,179.6c0.2-1.5,0.3-3.1,0.3-4.6c0-1.3-0.3-2.5-0.2-3.9c0.1-0.5,0.2-1,0.4-1.5c0.5-1.2,1.5-2.2,2.6-3
			c1.6-1.1,3.6-1.7,5.6-1.5c0.8,0.1,1.5,0.3,2.2,0.6c0.5,0.2,0.9,0.5,1.3,0.8c0.4,0.3,0.8,0.7,1.1,1.1c0.2,0.2,0.3,0.5,0.4,0.8
			c0.4,1.4,0.5,3-0.1,4.4c-0.7,1.6-2.3,2.6-3.9,3.2c-0.3,0.1-0.6,0.2-0.8,0.3c-0.8,0.3-1.7,0.5-2.5,0.6c-0.4,0-0.9,0-1.3,0
			C137.9,176.7,136.2,177.8,135,179.6z"/>
	</g>
	<g class="eye-whites">
		<path d="M108.2,176.3c-0.3-0.1-0.6-0.2-0.8-0.3c-1.6-0.6-3.2-1.6-3.9-3c-0.6-1.3-0.5-2.8-0.1-4.2
			c0.4-1.1,1.6-2,2.7-2.5c0.7-0.3,1.5-0.5,2.2-0.6c2-0.2,4,0.4,5.6,1.5c1.1,0.7,2.1,1.6,2.6,2.8c0.5,1.1,0.5,2.4,0.1,3.6
			c-0.4,1.2-1.3,2.1-2.5,2.7c-1,0.5-2.2,0.7-3.4,0.6C109.9,176.8,109,176.6,108.2,176.3z"/>
		<path d="M143.8,176.3c0.3-0.1,0.6-0.2,0.8-0.3c1.6-0.6,3.2-1.6,3.9-3c0.6-1.3,0.5-2.8,0.1-4.2c-0.4-1.1-1.6-2-2.7-2.5
			c-0.7-0.3-1.5-0.5-2.2-0.6c-2-0.2-4,0.4-5.6,1.5c-1.1,0.7-2.1,1.6-2.6,2.8c-0.5,1.1-0.5,2.4-0.1,3.6c0.4,1.2,1.3,2.1,2.5,2.7
			c1,0.5,2.2,0.7,3.4,0.6C142.1,176.8,143,176.6,143.8,176.3z"/>
	</g>
	<g class="eye-pupils">
		<circle cx="110" cy="169.5" r="3.5"/>
		<circle cx="142" cy="169.5" r="3.5"/>
	</g>
	<g class="text-outlined">
		<g>
			<path d="M84.8,39.2c-1.3,2.4-2.5,5.9-3.5,10.7c-0.9,3.9-1.3,6.3-1.2,7.1c0,0.1,0,0.3,0,0.5c0.1,0.2,0.1,0.4,0.1,0.5
				c-0.1,0.8-0.3,1.2-0.7,1.2c-0.3,0-1.1-0.2-2.5-0.9c-1.4-0.6-2.2-1.1-2.3-1.4c0,0,0-0.5-0.1-1.5c-0.7-2.2-1.2-4.4-1.4-6.7
				c-0.5,1.2-0.9,2.4-1.4,3.6c-0.4,1.3-0.6,2.6-0.6,3.9c0,0.1,0,0.4,0,0.6c0,0.3,0.1,0.5,0,0.6c-0.1,0.7-0.4,1.1-0.7,1.2
				c-0.1,0-0.2,0.1-0.4,0.1c-0.8,0-1.6-0.2-2.6-0.5c-1.2-0.4-1.9-0.9-2-1.5c0-0.1,0-0.6,0-1.3c-0.8-2.9-1.3-5.4-1.6-7.8
				c-0.3-2.2-0.4-4.9-0.3-8.1c-0.2-0.8-0.2-1.3-0.1-1.5c0.2-0.7,0.5-1.1,0.9-1.1c0.4,0,1.1,0.3,2.1,0.8s1.5,0.9,1.5,1.2
				c0,0.1,0,0.6-0.1,1.4c-0.1,0.8-0.1,1.5-0.1,2.1c0,1.4,0.2,3.7,0.7,6.9l3.5-11c0-0.2,0.1-0.5,0.3-0.9c0.2-0.2,0.5-0.4,0.8-0.4
				c0.2,0,0.9,0.2,2,0.8c1.2,0.6,1.7,0.9,1.8,1.2c0,0.1,0,0.7,0,1.7c0,1.2-0.1,2.2-0.1,3.1c0,2.2,0.1,4,0.4,5.6
				c0.4-2.3,1-4.7,1.8-7.1c0.5-2,1-3.3,1.3-4c0.2-0.8,0.6-1.2,1.3-1.1c0.6,0.1,1.2,0.3,1.9,0.6C84.2,38.3,84.7,38.7,84.8,39.2z"/>
			<path d="M100.7,48.3c0,0.2-0.2,0.5-0.6,0.9c-0.4,0.3-0.6,0.5-0.8,0.5c-0.2,0-0.4,0-0.4,0V56c0,0,0.1,0.3,0.2,0.9
				c0.1,1.1,0,1.7-0.4,1.9c-0.1,0-0.2,0.1-0.4,0.1c-0.6,0-1.3-0.2-2.2-0.6c-1-0.4-1.6-0.9-1.8-1.3c0-0.1,0-0.4-0.1-0.7
				c0-0.1,0-0.3,0.2-0.5c0.1-0.2,0.2-0.3,0.2-0.4v-5c-0.3,0-0.9,0.2-1.9,0.4c-0.9,0.2-1.5,0.4-1.8,0.5v5.1c0,0.1,0.1,0.3,0.2,0.4
				c0.1,0.2,0.2,0.3,0.2,0.4c-0.1,0.3-0.1,0.5-0.2,0.8c0,0.2-0.1,0.3-0.3,0.4c-0.3,0.1-1-0.1-2.2-0.5s-1.9-0.7-1.9-1
				c0-0.2-0.1-0.4,0-0.6c0-0.3,0.1-0.6,0.1-0.7v-16c0-0.3,0.1-0.7,0.2-1.4c0-0.2,0.3-0.4,0.9-0.7c0,0,0.1,0,0.3,0
				c0.6,0,1.3,0.1,2,0.3c0.9,0.3,1.4,0.6,1.4,1.1c0,0.1-0.1,0.4-0.2,0.8c-0.2,0.4-0.2,0.7-0.2,0.9v5.9c1.1-0.3,2.4-0.6,3.7-0.9
				c0-4.6,0-6.9,0-7c0,0,0-0.2-0.1-0.4c-0.3-0.1-0.3-0.3-0.3-0.5c0.1-0.3,0.4-0.5,0.8-0.6c0.3,0,0.7-0.1,1-0.1c0.4,0,0.9,0.1,1.6,0.3
				s1.1,0.5,1.2,0.9c0,0.1,0,0.3-0.1,0.5c-0.1,0.3-0.2,0.5-0.2,0.7v6.9c0.1,0.1,0.5,0.5,1.2,1.1C100.5,47.8,100.8,48.1,100.7,48.3z"
				/>
			<path d="M117.1,56.7c0,0.1,0,0.5-0.1,1.1c0,0.3-0.1,0.5-0.2,0.7c-0.1,0-0.2,0.1-0.4,0.1c-0.6,0-1.2-0.1-2.1-0.4
				c-0.9-0.3-1.5-0.6-1.8-1c-0.1-0.1-0.3-0.6-0.4-1.5c-0.2-1.1-0.4-2-0.6-2.8c-0.6,0.1-1.6,0.3-2.8,0.7s-2,0.7-2.4,0.9
				c-0.2,0.7-0.6,1.6-1,2.6c0,0.2-0.1,0.5-0.2,0.7s-0.2,0.4-0.4,0.5c-0.1,0-0.1,0-0.2,0c-0.4,0-1.1-0.2-2-0.6
				c-0.9-0.4-1.4-0.7-1.5-0.8c-0.1-0.2,0.1-0.8,0.5-1.7c0.5-1.3,0.8-2.1,0.9-2.5c-0.4-0.4-0.5-0.7-0.5-1c0-0.1,0-0.2,0-0.3
				c0-0.2,0.5-0.6,1.5-1.1l3.2-11c0.1-0.2,0.1-0.6,0-1.1c0-0.5,0-0.7,0.2-0.9c0.1-0.1,0.3-0.1,0.6-0.1c0.8,0,1.9,0.2,3.4,0.6
				c1.5,0.4,2.3,0.8,2.6,1.1c0.1,1.8,0.5,4.6,1.1,8.3C115.4,51.8,116.2,55,117.1,56.7z M110.5,49.1c-0.2-1-0.4-1.7-0.4-2.1
				c-0.2-1.1-0.3-2.3-0.4-3.5c-0.3,0.8-0.7,1.9-1.2,3.4s-0.7,2.5-0.8,2.9C108.1,49.7,109,49.5,110.5,49.1z"/>
			<path d="M128.6,41.5c-0.1,0-0.3-0.1-0.5-0.2c-0.2-0.1-0.4-0.1-0.6-0.1l-2.6,0.7V55c0,0.5,0.1,1,0.3,1.6c0.1,0.2,0.1,0.5,0,1
				s-0.3,0.8-0.5,1c0,0-0.1,0-0.2,0c-0.5,0-1.3-0.1-2.3-0.3c-1.1-0.2-1.8-0.5-2-0.7c-0.2-0.3-0.2-0.7,0-1.2c0.2-0.4,0.3-0.8,0.3-1V43
				l-1.8,0.5c-0.1,0-0.2,0.1-0.4,0.2c-0.2,0.1-0.4,0.2-0.5,0.1c-0.4-0.1-0.9-0.6-1.6-1.5s-1-1.5-0.9-1.8c0.1-0.4,0.5-0.7,1.2-0.9
				c0.2,0,0.4-0.1,0.7,0c0.3,0,0.5,0,0.6,0l8.7-2.2c0.1,0,0.3-0.1,0.7-0.3c0.3-0.1,0.5-0.2,0.7-0.1c0.5,0.1,0.8,0.2,0.9,0.5
				c0.1,0.2,0.2,0.6,0.4,1.1c0.2,0.6,0.2,1.2,0.2,1.7c0,0.4,0,0.6-0.1,0.8C129.4,41.3,129.1,41.5,128.6,41.5z"/>
			<path d="M149,45.6c0,1.8-0.5,3.8-1.5,5.9c-0.8,1.7-1.8,3.3-3,4.9c-1,1.3-1.8,2.1-2.3,2.3c-0.2,0.1-0.5,0.1-0.8,0.1
				c-0.7,0-1.6-0.2-2.5-0.7c-0.8-0.4-1.5-0.8-1.9-1.2v-18c0-0.4,0.3-0.7,0.8-0.8c0,0,0.5,0,1.2,0.2c0.1,0,0.6-0.2,1.5-0.5
				c0.8-0.4,1.6-0.6,2.2-0.6c0.7,0,1.4,0.2,2.1,0.6c0.4,0.2,1,0.7,1.7,1.4c1.1,1,1.8,2,2.2,3C148.9,42.9,149,44,149,45.6z
				 M144.8,40.8c-0.1,0-0.2-0.1-0.4-0.1c-0.9,0-1.9,0.4-3.2,1.1V53c1.1-0.6,2.1-2.2,2.9-4.8c0.7-2.2,1-4.2,1-6
				C145.2,41.4,145.1,40.9,144.8,40.8z"/>
			<path d="M159.5,58.5c-0.3,0-0.7,0-1.2-0.1s-0.9-0.3-1.3-0.4c-0.5-0.1-1.3-0.4-2.4-0.7c-1.3-0.6-2.3-1.7-3-3.5
				c-0.6-1.5-0.9-3.3-0.9-5.5c0-1.8,0.3-3.8,0.9-6.1c0.8-3.1,1.9-4.7,3.2-4.7c0.1,0,0.3,0,0.5,0.1s0.4,0.1,0.5,0.1
				c1.2-0.3,2-0.5,2.4-0.5c0.2,0,0.3,0,0.5,0c2,0.2,3.6,1.5,4.7,3.8c1,2,1.5,4.5,1.5,7.3c0,2.7-0.5,5-1.4,6.9
				C162.6,57.2,161.3,58.3,159.5,58.5z M159.1,40.2c-0.4-0.1-0.7,0.4-1.1,1.5c-0.4,1.1-0.7,1.6-1.1,1.6c-0.1,0-0.2,0-0.4-0.1
				s-0.3-0.1-0.4-0.2c-0.6,1.2-0.8,3-0.8,5.4c0,1.8,0.2,3.4,0.6,4.7c0.4,1.5,1,2.2,1.8,2.4c0.9,0.2,1.6-0.8,2.2-2.8
				c0.5-1.8,0.7-3.9,0.7-6.3c0-1.7-0.1-3-0.4-4.2C160,41,159.6,40.3,159.1,40.2z"/>
			<path d="M177.8,55c0,0.3-0.2,0.6-0.4,0.9c-0.2,0.3-0.5,0.5-0.6,0.6c0,0-0.1,0-0.3-0.1c-0.1-0.1-0.2-0.1-0.3-0.1h-0.1
				c-0.5,0.2-1,0.4-1.5,0.6c-1.2,0.6-2.4,1.3-3.4,2.2c-1.7-0.7-2.6-1.1-2.7-1.1c-1-0.5-1.5-0.8-1.5-1V38.1c0-0.1,0.2-0.3,0.6-0.5
				c0.4-0.2,0.7-0.3,0.9-0.3s0.6,0.1,1.2,0.4c0.6,0.2,1.1,0.4,1.5,0.4c0.5,0,1.1-0.2,2-0.7c0.7-0.4,1.2-0.6,1.4-0.5
				c0.4,0.1,1,0.6,1.8,1.3s1.2,1.3,1.3,1.6c0,0.1-0.1,0.4-0.5,0.8c-0.3,0.4-0.6,0.6-0.8,0.6s-0.3,0-0.4-0.1c-0.1,0-0.1-0.1-0.2,0
				c-0.6,0.1-1.2,0.3-1.7,0.5c-1.2,0.4-2.1,0.9-2.7,1.4v4.1c0.6-0.3,1.3-0.6,2.3-0.9c0.3,0,0.8,0.3,1.7,1.1s1.3,1.3,1.3,1.6
				c0,0.2-0.1,0.4-0.4,0.6s-0.5,0.4-0.7,0.5c-0.2,0-0.5,0-0.9,0.1c-0.6,0.1-1.8,0.6-3.4,1.6v2.6c0.5-0.3,1.2-0.7,2-1.1
				c0.9-0.4,1.4-0.6,1.6-0.6c0.2,0,0.8,0.4,1.8,1.1C177.4,54.3,177.8,54.8,177.8,55z"/>
			<path d="M190.1,54.3c0,1.2-0.4,2.2-1.2,3s-2,1.2-3.4,1.2c-0.4,0-0.8-0.1-1.2-0.2c-0.8-0.2-1.2-0.3-1.2-0.3
				c-0.4-0.1-0.8-0.2-1.2-0.3s-0.8-0.3-1.1-0.6c-0.4-0.4-0.8-1-1.1-1.9c-0.3-1.1-0.6-1.7-0.8-2c-0.1-0.1-0.3-0.4-0.5-0.7
				c0-0.2,0-0.5,0.1-0.7s0.3-0.4,0.5-0.5c0.1,0,0.3-0.1,0.5-0.1c0.6,0,1.3,0.1,2.1,0.2s1.3,0.3,1.4,0.4c0.1,0.1,0.2,0.7,0.4,1.8
				c0.2,1,0.4,1.6,0.7,1.7c0.1,0,0.1,0,0.2,0c0.3,0,0.6-0.3,0.8-0.8s0.3-1.1,0.3-1.8c0-1.5-0.5-2.4-1.3-2.9c-2.1-1.1-3.5-2.2-4.4-3.1
				c-1-1.1-1.4-2.4-1.3-3.9c0.1-1.2,0.5-2.5,1.4-3.8c0.8-1.3,1.7-2,2.6-2.2c0.4-0.1,1.5,0.3,3.5,1.1c0.5,0.2,1,0.4,1.5,0.6
				c0.5,0.2,0.9,0.5,1.2,0.9c0.5,0.6,0.7,1.6,0.7,3c0,0.3,0,0.7,0,1.2s0,0.8,0,1c0,0.1,0.1,0.3,0.2,0.6c0.1,0.2,0.1,0.4,0.1,0.5
				c0,0.7-0.3,1.1-0.9,1.2c-0.3,0-1-0.1-1.8-0.4c-1-0.3-1.6-0.7-1.9-1c0-0.1,0-0.2,0-0.5c0-0.2,0-0.8,0.1-1.7s0.1-1.5,0.1-1.9
				c0-0.7-0.1-1.1-0.2-1.1c-0.5,0-0.9,0.4-1.3,1.1c-0.3,0.7-0.5,1.5-0.5,2.4c0,1.5,0.4,2.6,1.3,3.2c1,0.6,2,1.3,3,1.9
				c1,0.6,1.6,1.2,2,1.9C189.8,51.8,190.1,52.9,190.1,54.3z"/>
			<path d="M62.5,71.5c-0.1,0-0.3-0.1-0.5-0.2s-0.4-0.1-0.6-0.1l-2.6,0.7V85c0,0.5,0.1,1,0.3,1.6c0.1,0.2,0.1,0.5,0,1s-0.3,0.8-0.5,1
				c0,0-0.1,0-0.2,0c-0.5,0-1.3-0.1-2.3-0.3c-1.1-0.2-1.8-0.5-2-0.7c-0.2-0.3-0.2-0.7,0-1.2c0.2-0.4,0.3-0.8,0.3-1V73l-1.8,0.5
				c-0.1,0-0.2,0.1-0.4,0.2s-0.4,0.2-0.5,0.1c-0.4-0.1-0.9-0.6-1.6-1.5c-0.7-0.9-1-1.5-0.9-1.8c0.1-0.4,0.5-0.7,1.2-0.9
				c0.2,0,0.4-0.1,0.7,0c0.3,0,0.5,0,0.6,0l8.7-2.2c0.1,0,0.3-0.1,0.7-0.3c0.3-0.1,0.5-0.2,0.7-0.1c0.5,0.1,0.8,0.2,0.9,0.5
				c0.1,0.2,0.2,0.6,0.4,1.1c0.2,0.6,0.2,1.2,0.2,1.7c0,0.4,0,0.6-0.1,0.8C63.3,71.3,63,71.5,62.5,71.5z"/>
			<path d="M79.2,78.3c0,0.2-0.2,0.5-0.6,0.9c-0.4,0.3-0.6,0.5-0.8,0.5c-0.2,0-0.4,0-0.4,0V86c0,0,0.1,0.3,0.2,0.9
				c0.1,1.1,0,1.7-0.4,1.9c-0.1,0-0.2,0.1-0.4,0.1c-0.6,0-1.3-0.2-2.2-0.6c-1-0.4-1.6-0.9-1.8-1.3c0-0.1,0-0.4-0.1-0.7
				c0-0.1,0-0.3,0.2-0.5c0.1-0.2,0.2-0.3,0.2-0.4v-5c-0.3,0-0.9,0.2-1.9,0.4c-0.9,0.2-1.5,0.4-1.8,0.5v5.1c0,0.1,0.1,0.3,0.2,0.4
				c0.1,0.2,0.2,0.3,0.2,0.4c-0.1,0.3-0.1,0.5-0.2,0.8c0,0.2-0.1,0.3-0.3,0.4c-0.3,0.1-1-0.1-2.2-0.5s-1.9-0.7-1.9-1
				c0-0.2-0.1-0.4,0-0.6c0-0.3,0.1-0.6,0.1-0.7v-16c0-0.3,0.1-0.7,0.2-1.4c0-0.2,0.3-0.4,0.9-0.7c0,0,0.1,0,0.3,0
				c0.6,0,1.3,0.1,2,0.3c0.9,0.3,1.4,0.6,1.4,1.1c0,0.1-0.1,0.4-0.2,0.8c-0.2,0.4-0.2,0.7-0.2,0.9v5.9c1.1-0.3,2.4-0.6,3.7-0.9
				c0-4.6,0-6.9,0-7c0,0,0-0.2-0.1-0.4c-0.1-0.2-0.1-0.4-0.1-0.5c0.1-0.3,0.4-0.5,0.8-0.6c0.3,0,0.7-0.1,1-0.1c0.4,0,0.9,0.1,1.6,0.3
				s1.1,0.5,1.2,0.9c0,0.1,0,0.3-0.1,0.5c-0.1,0.3-0.2,0.5-0.2,0.7v6.9c0.1,0.1,0.5,0.5,1.2,1.1C79,77.8,79.2,78.1,79.2,78.3z"/>
			<path d="M92.3,85c-0.1,0.3-0.2,0.6-0.4,0.9c-0.2,0.3-0.5,0.5-0.6,0.6c0,0-0.1,0-0.3-0.1c-0.1-0.1-0.2-0.1-0.3-0.1h-0.1
				c-0.5,0.2-1,0.4-1.5,0.6c-1.2,0.6-2.4,1.3-3.4,2.2C84,88.4,83.1,88,83,88c-1-0.5-1.5-0.8-1.5-1V68.1c0-0.1,0.2-0.3,0.6-0.5
				s0.7-0.3,0.9-0.3c0.2,0,0.6,0.1,1.2,0.4c0.6,0.2,1.1,0.4,1.5,0.4c0.5,0,1.1-0.2,1.9-0.7c0.7-0.4,1.2-0.6,1.4-0.5
				c0.4,0.1,1,0.6,1.8,1.3c0.8,0.7,1.2,1.3,1.3,1.6c0,0.1-0.1,0.4-0.5,0.8c-0.3,0.4-0.6,0.6-0.8,0.6c-0.2,0-0.3,0-0.4-0.1
				c-0.1,0-0.1-0.1-0.2,0c-0.6,0.1-1.2,0.3-1.7,0.5c-1.2,0.4-2.1,0.9-2.7,1.4v4.1c0.6-0.3,1.3-0.6,2.3-0.9c0.3,0,0.8,0.3,1.7,1.1
				c0.9,0.8,1.3,1.3,1.3,1.6c0,0.2-0.1,0.4-0.4,0.6c-0.2,0.2-0.5,0.4-0.7,0.5c-0.2,0-0.5,0-0.9,0.1c-0.6,0.1-1.8,0.6-3.3,1.6v2.6
				c0.5-0.3,1.2-0.7,2-1.1c0.9-0.4,1.4-0.6,1.6-0.6s0.8,0.4,1.8,1.1C91.9,84.3,92.3,84.8,92.3,85z"/>
			<path d="M110.7,69.6c0,0.3-0.1,0.5-0.4,0.9c-0.2,0.4-0.5,0.5-0.9,0.6c-0.1,0-0.3,0-0.4-0.1c-0.2-0.1-0.3-0.1-0.4-0.1
				c-0.3,0-1,0.2-2.1,0.7c-1.2,0.5-2.1,1-2.7,1.4v4.6c0.1,0,0.5-0.3,1.2-0.7c0.5-0.3,0.8-0.4,1.1-0.5c0.3,0,0.9,0.5,1.7,1.4
				c0.8,0.9,1.2,1.6,1.2,1.9s-0.2,0.6-0.5,0.9c-0.2,0.2-0.5,0.4-0.7,0.5c-0.1,0-0.2,0-0.4-0.1c-0.2-0.1-0.3-0.1-0.4-0.1
				c0,0-0.1,0-0.1,0.1c-0.5,0.2-0.9,0.4-1.3,0.5c-0.9,0.4-1.5,0.8-1.8,1v3.6c0,0.2,0.1,0.3,0.3,0.5c0.2,0.2,0.3,0.4,0.3,0.7
				c0,0.9-0.5,1.5-1.3,1.7c-0.9-0.4-1.7-0.9-2.4-1.4c-0.7-0.6-1.1-1.1-1.1-1.5V69.6c0-0.3-0.1-0.5-0.3-0.8c-0.2-0.3-0.3-0.5-0.2-0.6
				c0.1-0.3,0.2-0.5,0.5-0.8s0.6-0.4,0.9-0.4c0.2,0,0.6,0.2,1.4,0.7s1.3,0.8,1.5,0.8l2.8-1.1c0.2-0.2,0.6-0.4,1.1-0.6
				c0.4,0,1.1,0.3,2.1,1.1S110.7,69.3,110.7,69.6z"/>
			<path d="M119.5,88.5c-0.4,0-0.7,0-1.2-0.1s-0.9-0.3-1.3-0.4c-0.5-0.1-1.3-0.4-2.4-0.7c-1.3-0.6-2.3-1.7-3-3.5
				c-0.6-1.5-0.9-3.3-0.9-5.5c0-1.8,0.3-3.8,0.9-6.1c0.8-3.1,1.9-4.7,3.2-4.7c0.1,0,0.3,0,0.5,0.1s0.4,0.1,0.5,0.1
				c1.2-0.3,2-0.5,2.4-0.5c0.2,0,0.3,0,0.5,0c2,0.2,3.6,1.5,4.7,3.8c1,2,1.6,4.5,1.6,7.3c0,2.7-0.5,5-1.4,6.9
				C122.6,87.2,121.3,88.3,119.5,88.5z M119.1,70.2c-0.4-0.1-0.7,0.4-1.1,1.5s-0.7,1.6-1.1,1.6c-0.1,0-0.2,0-0.4-0.1
				s-0.3-0.1-0.4-0.2c-0.6,1.2-0.9,3-0.9,5.4c0,1.8,0.2,3.4,0.6,4.7c0.4,1.5,1,2.2,1.8,2.4c0.9,0.2,1.6-0.8,2.2-2.8
				c0.5-1.8,0.7-3.9,0.7-6.3c0-1.7-0.1-3-0.4-4.2C119.9,71,119.6,70.3,119.1,70.2z"/>
			<path d="M141.7,69c0.1,0.4-0.2,0.9-0.7,1.5c-0.1,0.1-0.3,0.3-0.6,0.4s-0.4,0.3-0.5,0.4l-4,5.9l4,7c0.1,0.1,0.2,0.3,0.5,0.4
				s0.4,0.3,0.4,0.4c0.2,0.4,0.3,0.7,0.3,0.9c0,0.2,0,0.3-0.1,0.5c-0.2,0.3-0.7,0.7-1.5,1.2s-1.3,0.8-1.6,0.9c-0.1,0-0.3,0-0.6-0.2
				c-0.3-0.1-0.5-0.3-0.6-0.5c0-0.4-0.1-0.9-0.4-1.6l-2.8-4.7l-2.8,4.9c-0.1,0.1-0.1,0.3-0.2,0.6s0,0.5-0.1,0.6
				c-0.2,0.4-0.3,0.6-0.4,0.7c-0.1,0.2-0.4,0.4-0.6,0.4c-0.4,0.1-1.1-0.1-2.1-0.6s-1.7-0.9-1.9-1.3c-0.1-0.1-0.1-0.3-0.1-0.4
				c0-0.3,0.2-0.6,0.7-1.1c0.2-0.1,0.5-0.4,0.8-0.8l4.3-7.3l-3.9-6.5c-0.1-0.1-0.3-0.3-0.5-0.5c-0.3-0.2-0.4-0.4-0.4-0.5
				c0-0.3,0.4-0.8,1.3-1.5c0.9-0.7,1.5-1.1,2-1.2c0.4-0.1,0.7,0,0.9,0.3c0.1,0.2,0.2,0.5,0.3,0.9l2.8,5l3.3-4.8
				c0-0.2,0.1-0.5,0.3-0.9c0.2-0.2,0.6-0.4,1.2-0.5c0.3,0,0.9,0.2,1.9,0.7C141.1,68.3,141.6,68.7,141.7,69z"/>
			<path d="M160.3,84.3c0,1.2-0.4,2.2-1.2,3s-2,1.2-3.4,1.2c-0.4,0-0.8-0.1-1.2-0.2c-0.8-0.2-1.2-0.3-1.2-0.3
				c-0.4-0.1-0.8-0.2-1.2-0.3s-0.8-0.3-1.1-0.6c-0.5-0.4-0.8-1-1.1-1.9c-0.4-1.1-0.6-1.7-0.8-2c-0.1-0.1-0.3-0.4-0.5-0.7
				c-0.1-0.2,0-0.5,0.1-0.7s0.3-0.4,0.5-0.5c0.1,0,0.3-0.1,0.5-0.1c0.6,0,1.3,0.1,2.1,0.2s1.3,0.3,1.4,0.4c0.1,0.1,0.2,0.7,0.4,1.8
				c0.2,1,0.4,1.6,0.7,1.7c0.1,0,0.1,0,0.2,0c0.3,0,0.6-0.3,0.8-0.8s0.3-1.1,0.3-1.8c0-1.5-0.4-2.4-1.3-2.9c-2.1-1.1-3.5-2.2-4.3-3.1
				c-1-1.1-1.4-2.4-1.3-3.9c0.1-1.2,0.5-2.5,1.4-3.8c0.8-1.3,1.7-2,2.6-2.2c0.4-0.1,1.5,0.3,3.5,1.1c0.5,0.2,1,0.4,1.5,0.6
				s0.9,0.5,1.2,0.9c0.5,0.6,0.7,1.6,0.7,3c0,0.3,0,0.7,0,1.2s0,0.8,0,1c0,0.1,0.1,0.3,0.2,0.6c0.1,0.2,0.1,0.4,0.1,0.5
				c0,0.7-0.3,1.1-0.9,1.2c-0.3,0-0.9-0.1-1.8-0.4c-1-0.3-1.6-0.7-1.9-1c0-0.1,0-0.2,0-0.5c0-0.2,0-0.8,0.1-1.7
				c0.1-0.9,0.1-1.5,0.1-1.9c0-0.7-0.1-1.1-0.2-1.1c-0.5,0-0.9,0.4-1.3,1.1s-0.5,1.5-0.5,2.4c0,1.5,0.4,2.6,1.3,3.2
				c1,0.6,2,1.3,3,1.9s1.6,1.2,2,1.9C160,81.8,160.3,82.9,160.3,84.3z"/>
			<path d="M177.6,86.7c0,0.1,0,0.5-0.1,1.1c0,0.3-0.1,0.5-0.2,0.7c-0.1,0-0.2,0.1-0.4,0.1c-0.5,0-1.2-0.1-2-0.4
				c-0.9-0.3-1.5-0.6-1.8-1c-0.1-0.1-0.3-0.6-0.4-1.5c-0.2-1.1-0.4-2-0.6-2.8c-0.6,0.1-1.6,0.3-2.8,0.7s-2,0.7-2.4,0.9
				c-0.2,0.7-0.6,1.6-1,2.6c0,0.2-0.1,0.5-0.2,0.7c-0.1,0.2-0.2,0.4-0.4,0.5c0,0-0.1,0-0.2,0c-0.4,0-1.1-0.2-2-0.6s-1.4-0.7-1.5-0.8
				c-0.1-0.2,0.1-0.8,0.5-1.7c0.5-1.3,0.8-2.1,0.9-2.5c-0.4-0.4-0.5-0.7-0.5-1c0-0.1,0-0.2,0-0.3c0-0.2,0.5-0.6,1.5-1.1l3.2-11
				c0-0.2,0.1-0.6,0-1.1c0-0.5,0-0.7,0.2-0.9c0.1-0.1,0.3-0.1,0.6-0.1c0.8,0,1.9,0.2,3.4,0.6c1.4,0.4,2.3,0.8,2.6,1.1
				c0.1,1.8,0.5,4.6,1.1,8.3C175.9,81.8,176.8,85,177.6,86.7z M171.1,79.1c-0.2-1-0.4-1.7-0.4-2.1c-0.2-1.1-0.3-2.3-0.4-3.5
				c-0.3,0.8-0.7,1.9-1.2,3.4s-0.7,2.5-0.8,2.9C168.7,79.7,169.6,79.5,171.1,79.1z"/>
			<path d="M192.2,69.3c0.1,0.9-0.1,1.4-0.6,1.7c-0.3,0.1-0.4,0.2-0.4,0.2c-1,1.5-2.2,4.1-3.8,7.8c-1.5,3.5-2.3,5.7-2.3,6.4
				c0,0.1,0,0.4,0.1,0.7c0.1,0.3,0.1,0.6,0.1,0.8c-0.1,1.1-0.4,1.7-0.8,1.8c-0.2,0-0.8-0.1-1.7-0.4s-1.5-0.5-1.9-0.7
				c-0.6-0.4-0.8-0.8-0.8-1.2c0-0.2,0.1-0.4,0.2-0.7c0.2-0.6,0.7-2,1.5-4c-1.4-2.9-2.3-4.8-2.8-5.9c-1-2.2-1.6-3.9-2-5.3
				c0-0.1-0.1-0.2-0.3-0.4c-0.2-0.2-0.2-0.3-0.2-0.5s0.3-0.6,1-1.1c1.4-1.1,2.3-1.6,2.8-1.5c0.3,0,0.5,0.2,0.7,0.5
				c0.2,0.2,0.3,0.5,0.3,0.7c0,0.3,0,0.8,0.1,1.5c0.4,2.1,1.2,4.3,2.4,6.7c0.9-2.3,1.5-3.5,1.6-3.8c0.6-1.4,1.3-2.7,2.1-4
				c0.1-0.3,0.2-0.6,0.4-1c0.3-0.4,0.8-0.5,1.3-0.5c0.4,0,1,0.3,1.8,0.9C191.7,68.7,192.1,69,192.2,69.3z"/>
			<path d="M203.8,72.7c0.1,1.4-0.3,2.6-1.1,3.7c-0.5,0.6-1.4,1.5-2.9,2.7c-1.3,1.1-2.2,2-2.7,2.7c-0.3,0.5-0.6,0.8-0.8,0.7
				c-0.6-0.1-1.4-0.8-2.5-2.1c0-0.1-0.1-0.1-0.1-0.2c0-0.3,0.1-0.6,0.4-1c0.3-0.4,1.3-1.3,2.9-2.7c1.6-1.4,2.7-2.4,3.3-3.1
				c0.9-1.2,1.1-2.1,0.6-2.8c-0.3-0.4-0.8-0.6-1.4-0.6c-1.2,0-2.6,0.5-4.5,1.6h-0.1c-0.2,0-0.6-0.3-1.1-0.8c-0.4-0.4-0.7-0.9-1-1.3
				c-0.1-0.2-0.1-0.5,0.1-0.8c0.2-0.3,0.9-0.6,2-1.1c1.3-0.5,2.4-0.7,3.5-0.7c0.9,0,1.7,0.2,2.3,0.5
				C202.6,68.6,203.6,70.3,203.8,72.7z M198.2,86.3c0,0.1,0,0.1,0,0.2s-0.1,0.3-0.3,0.5s-0.3,0.4-0.4,0.6c-0.1,0.3-0.2,0.7-0.4,1
				c-0.2,0.5-0.4,0.7-0.7,0.7c-0.7-0.1-1.6-0.8-2.8-2c-0.1-0.1-0.1-0.2-0.1-0.2c0-0.1,0.1-0.1,0.1-0.2c0.1-0.3,0.2-0.6,0.4-0.9
				c0.2-0.4,0.2-0.8,0.2-1.1c0-0.2,0.1-0.4,0.3-0.5s0.5-0.2,0.7-0.2c0.4,0,0.9,0.3,1.6,0.8C197.7,85.5,198.1,86,198.2,86.3z"/>
		</g>
	</g>
	<g class="bubble">
		<path d="M151.8,222.8c-0.9-0.8-0.1-2.3,1.1-1.8c5.5,2.1,10.5,5.8,13.8,10.7c2.9,4.3,4.5,9.4,4.7,14.6
			c0.3,7.5,4.2,14.4,10.4,18.7c2.2,1.5,4.2,3.1,6.1,4.9c5.3,5.1,9.3,11.9,9.6,19.2c0.4,7.4-3,14.6-7.9,20c-5,5.5-11.4,9.3-18.1,12.4
			c-26,11.8-56.5,12.1-83.5,2.9C78,321,68.2,316.1,61.6,308c-2.7-3.4-4.7-7.3-5.9-11.5c-1.9-7-0.9-12.8,2.1-18.7
			c2.4-4.7,7-8.4,11.1-11.6c4.5-3.4,9.4-6.2,14.6-8.5c3.1-1.4,6.3-2.5,9.5-3.5c13.5-4,27.8-4.7,41.8-3.8c3.7,0.2,7.4,0.6,11-0.4
			c7.1-1.9,12.3-9.3,11.7-16.6C157.2,229.3,155,225.5,151.8,222.8z"/>
	</g>
	<g class="speech">
		<text role="presentation" aria-hidden="true" transform="matrix(1 0 0 1 88.0993 276.0898)"><tspan x="0" y="0" >Foxes don’t </tspan><tspan x="-1" y="18" >speak. They </tspan><tspan x="20" y="36" >howl.</tspan></text>
	</g>
</svg>
