<?xml version="1.0" encoding="utf-8"?>
<!-- Generator: Adobe Illustrator 22.1.0, SVG Export Plug-In . SVG Version: 6.00 Build 0)  -->
<svg width="178px" height="331px" version="1.1" id="Layer_1" xmlns="http://www.w3.org/2000/svg" xmlns:xlink="http://www.w3.org/1999/xlink" x="0px" y="0px"
	 viewBox="0 0 177.8 331" style="enable-background:new 0 0 177.8 331;" xml:space="preserve">
<style type="text/css">
	.st0{fill:#00FF06;}
	.st1{fill:#19FF00;}
</style>
<path class="st0" d="M126.1,15.1c-0.7,0-1.2,0.1-1.7,0.1c-1.1,0.1-2,0.3-2.7,0.7c-0.7,0.3-1.4,0.6-2.4,1.1c-0.7,0.5-1.4,0.9-2,1.4
	c-0.3,0.3-0.6,0.5-0.9,0.7c-0.3,0.3-0.6,0.6-0.9,0.9c-2.4,2.7-3.9,6.2-5.4,9.4l-0.4,0.8c-0.3,0.8-0.7,1.6-1,2.5
	c-0.3,0.9-0.6,1.8-0.8,2.9s-0.4,2.2-0.5,3.3c-0.3,2-0.5,3.9-0.7,5.8v0.1v0.1l-0.3,3l-0.1,0.5v0.1v0.1l-0.2,1.8l-0.1,0.4
	c-0.1,1.6-0.3,3.7-0.5,5.7c-0.1,0.9-0.1,1.8-0.1,3c0,0.3,0,0.7,0,1v0.2v0.1c0,0.1,0,0.1,0,0.2c0,0.3,0,0.7,0.1,1v0.5
	c0.1,2.4,0.2,4.9,0.3,6v0.5c0.1,0.8,0.1,1.5,0.1,2.2c0,1.1,0,2.2,0,3.3v3v3v2v0.1v0.1v0.1c0,2.5,0,5.8,0.1,9v1v0.1v0.5v0.1
	c0,0.7,0.1,1.3,0.1,2c-0.1,1-0.1,1.9-0.1,2.9c-0.1,1.1,0,2.2,0,3.1v0.1v0.1v0.1v0.7c0.1,2.5,0.2,5.2,0.3,7.9
	c0.1,1.4,0.2,2.9,0.3,4.3v0.1v0.2v0.4c0.1,1,0.1,1.9,0.1,2.8c0.1,1.2,0.1,2.4,0.1,4v0.1v0.1v0.1v0.1c0,1,0.1,2.2,0.1,3.3
	c0.1,1.9,0.3,3.9,0.3,5.4v0.1c0.1,0.9,0.1,1.6,0.2,2.5c0.1,1.8,0.2,3.5,0.3,5.2c0.1,0.9,0.1,1.8,0.1,2.7c0.1,2,0.2,4.1,0.3,6v0.2
	l0.1,1.9c0.1,2.1,0.2,4.2,0.3,6.2v0.2l0.1,1.8c0.1,1.4,0.1,2.9,0.1,4.1v0.1v0.1v0.1v0.1c0,1,0.1,2,0.1,2.9c0.1,2.6,0.3,5.2,0.5,8.2
	c0.1,0.6,0.1,1.1,0.1,1.6v0.1v0.1v0.1v0.3v0.3c0.1,0.4,0.1,0.8,0.1,1.2v0.4c0.1,1,0.2,2.4,0.3,3.5c0.2,2.8,0.4,5.7,0.6,8.5l0.1,1.7
	c0.1,2,0.3,4.1,0.5,6.1c0.2,2.3,0.3,4.6,0.4,6.7v0.1l0.1,0.9v0.1v0.1c0.1,2.6,0.3,5.4,0.3,8.2v0.6c0.1,2.2,0.1,4.6,0.3,7.1
	c0.1,1.2,0.1,2.4,0.2,3.7c0.1,1.4,0.1,2.6,0.2,3.9c0,3.3,0,6.9,0.1,10.5v0.1l0.1,1.2v0.8v0.8v0.8c0,4.1-0.1,7.3-0.2,10.3
	c-0.1,1.3-0.1,2.7-0.2,3.9v0.3v0.3v0.4v0.4v0.4c-0.1,0.8-0.1,1.6-0.1,2.4l-0.1,1v0.1v0.1v0.1c-0.1,2-0.2,4.5-0.3,6.8v0.1l-0.1,0.7
	l-0.1,0.7l-0.1,0.7c-0.1,0.6-0.1,1.1-0.2,1.6c-0.1,0.3-0.1,0.5-0.1,0.8c-0.1,0.4-0.1,0.8-0.1,1.2v0.3c-0.1,0.7-0.2,1.3-0.3,2
	l-0.1,0.4l-0.1,0.4l-0.1,0.1l-0.1,0.1l-0.1,0.3c-0.1,0.3-0.3,0.5-0.5,0.8c-0.3,0.5-0.6,1-0.9,1.4c-0.3,0.4-0.7,0.7-1,1.1
	c-1,1.1-1.8,1.9-2.6,2.6c-0.1,0.1-0.1,0.1-0.2,0.1c-0.8-0.7-1.4-1.4-2-2c-0.4-0.5-0.8-1.1-1.1-1.7c-0.4-0.6-0.7-1.2-1-2
	c-0.4-1-0.7-1.8-0.9-2.6c-0.3-0.9-0.5-1.8-0.8-2.9c-0.2-0.9-0.4-1.9-0.5-2.8v-0.1l-0.1-0.3c-0.1-0.9-0.3-2-0.5-3
	c-0.3-2-0.5-4-0.5-5.4c-0.1-2-0.3-3.9-0.6-5.8c-0.2-1.4-0.3-3-0.4-3.9v-0.1V252v-0.1l-0.1-1.4c-0.1-0.9-0.2-1.9-0.3-2.6v-0.2
	c-0.1-0.6-0.1-1.2-0.2-1.8v-0.1c0-0.3-0.1-0.6-0.1-0.9c-0.1-0.9-0.2-1.8-0.3-2.6v-0.2c-0.1-0.9-0.1-1.6-0.3-2.5
	c-0.2-1.6-0.3-3.5-0.4-5.7c0-0.9-0.1-1.6-0.1-2.5v-0.1v-0.1v-0.1v-0.1v-0.1V231c0-0.7-0.1-1.5-0.1-2.3c-0.1-0.9-0.1-1.6-0.1-2.5
	v-0.3v-0.3v-0.1c-0.1-0.9-0.1-1.6-0.1-2.5c0-0.6-0.1-1.2-0.1-1.8v-0.2v-0.2v-0.7c0-1-0.1-2-0.1-3c-0.1-2.3-0.1-4.1-0.3-5.9
	c-0.1-0.9-0.1-1.6-0.3-2.6c-0.1-0.7-0.1-1.3-0.2-2v-0.1v-0.1l-0.1-0.7c-0.1-0.8-0.1-1.6-0.2-2.4v-0.3c-0.1-0.9-0.1-1.9-0.3-2.8
	c-0.1-1-0.3-1.9-0.4-2.7c-0.1-0.9-0.3-1.8-0.5-2.7c-0.1-0.6-0.3-1.4-0.7-2.2c-0.3-0.7-0.5-1.4-0.9-2.2c-0.5-0.9-1-1.8-1.6-2.5
	c-0.3-0.3-0.6-0.5-0.8-0.7l-0.3-0.2c-0.2-0.2-0.5-0.3-0.7-0.4c-0.4-0.2-0.7-0.3-1.1-0.3c-0.1,0-0.2,0-0.3,0c-1.1,0-2.2,0.6-2.8,1.5
	c-0.6,0.9-0.9,1.9-1,3.1c-0.2,1.3-0.3,2.7-0.3,3.9c0,0.3,0,0.7-0.1,1c-0.1,1-0.1,1.9-0.1,2.7v1v2c0.1,3.6,0.2,7.4,0.4,11
	c0.1,3.3,0.1,6.5,0,9.7v0.1v0.9c0,0.9-0.1,1.8-0.1,2.7c0,0.3,0,0.5,0,0.8c0,0.8-0.1,1.4-0.1,2l-0.1,0.9l-0.1,0.9v0.3v0.1v0.1
	c0,0.2,0,0.4-0.1,0.6l-0.1,0.9c-0.1,0.8-0.2,1.6-0.3,2.3c-0.2,1.4-0.5,2.7-0.8,4c-0.4,1.7-0.9,3.1-1.4,4.5l-0.1,0.2l-0.1,0.1
	c-0.1,0.3-0.3,0.5-0.4,0.7c-0.2-0.1-0.4-0.2-0.5-0.3c-0.2-0.1-0.3-0.3-0.5-0.5c-0.1-0.1-0.3-0.3-0.4-0.5c-0.2-0.3-0.4-0.6-0.6-0.9
	c-0.2-0.3-0.3-0.7-0.5-0.9c-0.3-0.9-0.6-1.9-0.9-2.9v-0.1l-0.1-0.4c-0.1-0.6-0.3-1.2-0.5-1.8v-0.1l-0.1-0.3l-0.1-0.3l-0.1-0.3
	l-0.1-0.3l-0.3-0.9c-0.5-1.9-0.9-3.7-1.2-5.6c-0.1-0.6-0.2-1.1-0.3-1.6c-0.3-1.3-0.5-2.6-0.7-4c-0.1-0.6-0.2-1.2-0.3-1.8
	c-0.1-0.8-0.2-1.6-0.3-2.3l-0.1-0.7v-0.1c-0.2-1.2-0.4-2.3-0.6-3.5v-0.1c-0.2-1.2-0.5-2.6-0.7-3.9c-0.1-1-0.3-2-0.4-2.9
	c-0.1-1-0.3-1.9-0.4-2.9l-0.1-0.3c-0.1-0.7-0.2-1.4-0.3-2.2l-0.1-1.2c-0.3-2.3-0.5-4.5-0.9-6.8l-0.1-0.9c-0.1-0.9-0.2-1.6-0.3-2.5
	c-0.1-0.3-0.1-0.5-0.1-0.8V190c-0.1-0.3-0.1-0.7-0.1-1l-0.1-0.9l-0.1-0.7c-0.2-1.6-0.4-3.4-0.6-5.4c-0.1-0.9-0.1-1.8-0.2-2.7
	c-0.1-0.8-0.1-1.8-0.2-2.7c-0.1-0.5-0.1-1-0.1-1.6c-0.1-0.3-0.1-0.7-0.1-1c-0.1-0.5-0.1-0.9-0.1-1.4v-0.1l-0.1-0.4l-0.1-0.7v-0.1
	c-0.2-2-0.3-3.9-0.5-5.6c-0.1-1-0.1-2.2-0.1-3.1v-0.1v-0.2c0-0.7-0.1-1.6-0.1-2.4v-0.5c-0.1-0.7-0.1-1.5-0.1-2.3
	c-0.1-0.4-0.1-0.9-0.1-1.2v-0.3c-0.1-0.5-0.1-1-0.1-1.4c-0.1-0.9-0.1-1.7-0.2-2.6c-0.1-1-0.1-2-0.1-2.8v-0.2
	c-0.1-1.9-0.2-3.7-0.4-5.6c-0.1-0.5-0.1-0.9-0.1-1.3c-0.1-0.5-0.1-1-0.1-1.5c-0.1-0.9-0.2-1.8-0.3-2.7v-0.2
	c-0.2-1.6-0.5-3.3-0.9-4.8l-0.1-0.3c-0.1-0.5-0.4-1.2-0.6-1.8c-0.2-0.5-0.4-1-0.6-1.6l-0.3-0.9c-0.1-0.4-0.3-0.8-0.4-1.2l-0.1-0.1
	l-0.1-0.1c-0.2-0.6-0.4-1.2-0.7-1.8l0.1-0.2l0.1-0.3c0.1-0.3,0.3-0.5,0.4-0.9v-0.1v-0.1l0.2-0.4l0.2-0.4c0.1-0.3,0.3-0.7,0.5-1
	c0.5-1.2,0.9-2.2,1-3.1c0.3-1.2,0.4-2.4,0.5-3.5c0-0.3,0.1-0.5,0.1-0.7c0-0.1,0-0.1,0-0.2v-0.1c0-0.2,0.1-0.4,0.1-0.6v-0.5v-0.5
	c0-0.1,0-0.3,0-0.4v-0.1v-0.1v-0.1c0-0.5-0.1-0.9-0.1-1.2c-0.1-0.3-0.2-0.7-0.4-0.9c-0.2-0.3-0.5-0.5-0.8-0.7
	c-0.2-0.1-0.5-0.2-0.7-0.2c-0.1,0-0.1,0-0.2,0c-0.2,0-0.4,0.1-0.6,0.2c-0.1,0.1-0.3,0.2-0.5,0.3c-0.7,0.5-1.2,1.2-1.7,1.8
	c-0.6,0.8-1,1.6-1.4,2.4l-0.2,0.5c-0.4,0.8-0.8,1.5-1.2,2.3c0.1-0.3,0.1-0.8,0.2-1.4c0.1-0.9,0.2-1.8,0.3-2.6c0.1-1.6,0-3.2-0.3-4.7
	c-0.1-0.3-0.2-0.6-0.3-1c-0.1-0.3-0.3-0.6-0.5-0.8c-0.3-0.3-0.6-0.5-0.9-0.6c-0.1,0-0.2-0.1-0.3-0.1c-0.3,0-0.6,0.1-1,0.3
	c-0.3,0.1-0.5,0.3-0.7,0.5c-0.3,0.3-0.4,0.6-0.5,0.9c-0.2,0.5-0.3,1-0.5,1.6c-0.4,1.6-0.7,3.3-0.9,4.8l-0.1,0.4
	c-0.1,0.6-0.2,1.2-0.3,1.7v0.2l-0.1,0.4c0,0.1,0,0.2-0.1,0.3c-0.2,0-0.4,0.1-0.7,0.1c-0.2,0.1-0.5,0.1-0.7,0.1l-0.3-0.7l-0.5-1.5
	v-0.1c-0.3-1-0.7-2-1.2-2.8c-0.3-0.5-0.6-0.9-0.9-1.4l-0.3-0.4c-0.5-0.7-0.9-1.3-1.4-1.8c-0.2-0.2-0.5-0.4-0.9-0.6
	c-0.3-0.2-0.7-0.3-1-0.3c-0.1,0-0.1,0-0.1,0c-0.2,0-0.3,0-0.4,0.1l-0.1,0.1c-0.2,0.1-0.3,0.1-0.5,0.3c-0.2,0.1-0.4,0.5-0.5,0.8
	c-0.3,0.8-0.3,1.6-0.3,2.2c0.1,0.8,0.3,1.5,0.6,2.4c0.5,1.1,1.1,2.2,2.1,3.5c0.1,0.2,0.3,0.3,0.4,0.5c0.3,0.5,0.7,0.9,1.1,1.4
	l0.3,0.3l0.4,0.5c-0.2,0.2-0.3,0.4-0.5,0.6c-0.6,0.8-1,1.7-1.3,2.6c-0.3,0.8-0.5,1.7-0.7,2.4l-0.1,0.1c-0.3,1.1-0.5,2.4-0.8,3.9
	c-1.8-1.2-3.8-2.5-5.4-3.5c-0.2-0.1-0.5-0.2-0.7-0.2c-0.5,0-1,0.3-1.3,0.7c-0.4,0.7-0.1,1.5,0.5,2c2,1.3,3.9,2.4,5.8,3.7l0.3,0.2
	l0.3,0.2c-0.2,1.4-0.4,2.8-0.6,4.3c-0.2,1.4-0.3,2.9-0.3,4.6l-1-1c-0.5-0.5-1-1-1.6-1.4c-0.1-0.1-0.3-0.1-0.4-0.1s-0.3,0.1-0.3,0.1
	c-0.1,0.1-0.1,0.3-0.1,0.4c0,0.1,0.1,0.3,0.1,0.3c0.9,0.7,1.7,1.5,2.6,2.2l0.8,0.7c0,1.6,0,3.2,0.1,4.6v1.4
	c0.1,3.7,0.2,7.5,0.4,11.3l-0.4-0.1c-0.3-0.1-0.5-0.1-0.8-0.1c-0.5-0.1-0.9-0.2-1.4-0.3c-0.3-0.1-0.5-0.2-0.7-0.3
	c0-1.3-0.1-2.6-0.1-3.9c0-0.5-0.5-0.9-0.9-0.9c-0.3,0-0.5,0.1-0.7,0.3c-0.2,0.2-0.3,0.4-0.3,0.7l0.1,1.6l0.1,1.6l-0.3-0.1l-0.5-0.2
	c-1-0.5-2.2-1-3.3-1.7c0-0.5,0.1-0.9,0.1-1.4c0.1-1.6,0.1-3.3,0.2-4.9V148v-0.7v-0.6c0-0.1-0.1-0.3-0.1-0.4
	c-0.1-0.1-0.3-0.2-0.4-0.2c-0.3,0-0.5,0.3-0.5,0.6c-0.1,2.5-0.2,5-0.3,7.5c-0.5-0.4-0.9-0.7-1.2-1.1c-0.3-0.3-0.7-0.7-0.9-1.2
	c-0.3-0.5-0.7-1.1-0.9-1.6c-0.7-1.3-1.2-2.6-1.8-3.9c-0.4-0.9-0.8-1.9-1.1-2.8l-0.1-0.4c0.1-0.5,0.3-0.9,0.4-1.4l0.2-0.7
	c0.4-1.3,0.8-2.6,1.2-3.9c0.1-0.1,0-0.3-0.1-0.4c-0.1-0.1-0.2-0.3-0.3-0.3c-0.1,0-0.1,0-0.1,0c-0.3,0-0.5,0.2-0.5,0.4
	c-0.5,1.5-0.9,3-1.3,4.5c-0.5-1.2-0.8-2.3-1.1-3.3c-0.3-0.9-0.6-1.9-1-3.1l-0.3-1c-0.6-1.9-1.2-3.7-1.6-5.2c0.1-0.5,0.3-1,0.4-1.6
	c0.6-2.4,1.2-4.9,1.8-7.3c0.1-0.4-0.1-0.7-0.5-0.9c-0.1,0-0.1,0-0.2,0c-0.3,0-0.6,0.2-0.7,0.5v0.1c-0.5,2.3-1.1,4.6-1.6,6.8
	l-0.4-1.2c-0.2-0.7-0.5-1.4-0.7-2c-0.3-0.7-0.5-1.4-0.9-2.2c-0.1-0.3-0.2-0.5-0.3-0.7l-0.1-0.1l-0.1-0.3c-0.4-0.9-0.8-1.6-1.2-2.2
	c-0.2-0.3-0.5-0.6-0.7-0.9c0.1-0.8,0.2-1.6,0.3-2.4v-0.1v-0.2l0.1-0.3l0.1-0.6v-0.1c0.1-0.8,0.3-1.6,0.4-2.4
	c0.1-0.7-0.3-1.2-0.9-1.4c-0.1,0-0.2-0.1-0.3-0.1c-0.6,0-1,0.4-1.2,0.9c-0.1,0.8-0.3,1.6-0.4,2.4l-0.1,0.6c-0.1,0.3-0.1,0.5-0.1,0.8
	v0.1v0.3c-0.1,0.5-0.1,1-0.1,1.5c-0.2-0.1-0.5-0.1-0.7-0.1c-0.1,0-0.1,0-0.2,0c-0.5,0-1,0.1-1.7,0.5c-0.7,0.3-1.3,0.8-1.8,1.4
	l-0.8-1.4l-0.8-1.4c-0.1-0.3-0.4-0.4-0.7-0.4c-0.1,0-0.3,0.1-0.4,0.1c-0.4,0.2-0.5,0.7-0.3,1l0.3,0.7c0.5,1,1,2,1.6,2.9
	c-0.1,0.2-0.2,0.5-0.3,0.7c-0.2,0.4-0.3,0.8-0.4,1.1c-0.3,0.9-0.4,1.6-0.5,2.3c-0.1,1.6,0,3.1,0.1,4.8l0.1,0.8l-1.3-0.6H4.1
	c-0.6-0.3-1.2-0.5-1.8-0.8c-0.3-0.1-0.5-0.1-0.7-0.1c-0.1,0-0.2,0-0.3,0.1c-0.3,0.1-0.6,0.3-0.7,0.6c-0.1,0.3-0.2,0.7-0.1,0.9
	c0.1,0.3,0.3,0.6,0.6,0.7c1.8,0.8,3.2,1.4,4.6,1.9c0.2,1.9,0.3,3.8,0.6,5.9c0.2,1.6,0.4,3.3,0.5,4.8c-0.7-0.2-1.4-0.4-2-0.6
	l-1.6-0.5c-0.1,0-0.1,0-0.2,0c-0.4,0-0.7,0.3-0.9,0.7c-0.1,0.5,0.1,0.9,0.6,1c1.4,0.4,2.8,0.8,4.3,1.2c0.1,0.6,0.2,1.2,0.3,1.8
	l0.1,0.9c0.3,1.8,0.8,3.7,1.4,6c0,0,0,0-0.1,0c-0.1,0-0.2,0-0.3,0c-1.2,0.1-2.6,0.2-4.2,0.3c-0.7,0.1-1.3,0.7-1.3,1.4
	c0,0.7,0.6,1.3,1.2,1.3h0.1h0.1h0.1c1.6-0.1,3.3-0.2,4.9-0.5h0.1h0.1l0.1,0.4l0.1,0.4c0.2,0.7,0.4,1.2,0.7,1.9
	c0.1,0.2,0.1,0.3,0.2,0.5l0.1,0.2c0.1,0.5,0.3,1,0.5,1.4l0.5,1.2l0.5,1.2c0.1,0.1,0.1,0.3,0.2,0.4c-0.9,0.2-1.7,0.4-2.6,0.7H9.7
	l-0.2,0.1l-1,0.3c-0.1,0.1-0.3,0.1-0.4,0.3c-0.1,0.1-0.1,0.3-0.1,0.5c0.1,0.3,0.3,0.5,0.6,0.5c0.1,0,0.1,0,0.2,0l0.7-0.2l0.7-0.2
	c0.7-0.2,1.4-0.3,2-0.5c0.3-0.1,0.5-0.1,0.9-0.2c0.1,0.1,0.1,0.3,0.2,0.5l0.5,0.9l0.1,0.1c0.6,1.2,1.2,2.3,1.8,3.4l0.4,0.7v0.1
	c0.6,1.1,1.2,2.2,2,3.3c0.5,0.7,1,1.6,1.6,2.5c-0.1,0.1-0.3,0.3-0.5,0.4c-0.3,0.3-0.7,0.5-1,0.8l-0.3,0.2c-0.1,0.1-0.3,0.2-0.3,0.5
	c-0.1,0.2,0,0.4,0.1,0.5c0.1,0.2,0.3,0.3,0.5,0.3c0.1,0,0.1,0,0.2,0c0.1,0,0.3-0.1,0.4-0.1l0.3-0.2l0.1-0.1c0.3-0.3,0.7-0.5,1-0.8
	c0.2-0.1,0.3-0.3,0.5-0.4l0.2,0.3l0.1,0.1c1.2,1.7,2.2,2.8,3.3,3.7c0.6,0.5,1.3,0.8,1.9,1l0.1,0.1c0.3,0.1,0.7,0.3,0.9,0.5
	c0.3,0.1,0.6,0.3,0.9,0.4c-0.5,1-0.9,2-1.4,3c-0.1,0.4-0.2,0.7-0.1,0.9c0.1,0.3,0.3,0.6,0.6,0.7c0.2,0.1,0.4,0.1,0.6,0.1
	c0.1,0,0.2,0,0.3-0.1c0.3-0.1,0.6-0.3,0.7-0.6l0.1-0.1c0.5-1,1-2.2,1.4-3.3c0.5,0.2,0.9,0.3,1.4,0.5c0.7,0.3,1.4,0.5,2.2,0.7
	c0.2,0.1,0.5,0.1,0.7,0.2h0.1h0.1c0.5,0.1,0.9,0.3,1.4,0.4l1,0.2l1.3,0.3c0.1,0,0.1,0,0.2,0.1l-0.9,2.4l-0.3,1
	c-0.4,1.1-0.8,2.2-1.1,3.2c-0.1,0.1,0,0.3,0.1,0.5c0.1,0.1,0.2,0.2,0.3,0.3c0.1,0,0.1,0,0.1,0c0.1,0,0.2,0,0.3-0.1
	c0.1-0.1,0.2-0.2,0.3-0.3c0.9-2.4,1.6-4.5,2.3-6.6c0.1,0,0.2,0.1,0.3,0.1l1,0.2h0.1l0.5,0.1l1,0.2c0.2,2.2,0.5,4.2,0.8,6.3
	c0.1,1,0.3,2,0.4,3.1l0.1,0.3h-0.1h-0.1c-0.7,0.2-1.3,0.5-1.9,0.7l-0.1,0.1c-0.1,0.1-0.3,0.1-0.5,0.2c-0.3,0.1-0.6,0.3-0.9,0.4h-0.1
	l-0.4,0.2c-0.5,0.3-1,0.5-1.5,0.8c-0.7,0.4-1.2,0.9-1.8,1.3c-0.3,0.2-0.4,0.6-0.3,0.9c0,0.3,0.1,0.7,0.4,0.9
	c0.3,0.2,0.5,0.3,0.9,0.3c0.4,0,0.6-0.1,0.9-0.4c0.1-0.1,0.1-0.1,0.1-0.1c0.4-0.3,0.9-0.7,1.3-0.9c0.4-0.3,0.9-0.5,1.3-0.7l0.5-0.3
	l0.5-0.3l0.5-0.2l0.5-0.2c0.3-0.1,0.7-0.3,1-0.3c0.3,2,0.5,3.7,0.7,5.2c0.2,1.2,0.4,2.4,0.5,3.5v0.1c0.1,0.7,0.2,1.4,0.3,2.1
	l0.1,0.7l0.1,0.4c-0.3,0-0.6,0-0.9,0.1c-1.4,0.1-2.7,0.3-4.4,0.8c-1,0.3-1.5,1.3-1.2,2.3c0.2,0.8,1,1.3,1.8,1.3c0.1,0,0.3,0,0.5-0.1
	c0.9-0.3,1.6-0.5,2.3-0.6c0.5-0.1,1.1-0.1,1.6-0.2h0.3c0.1,0,0.3,0,0.4-0.1l0.1,1.6l0.1,0.7l0.1,0.5v0.2l0.1,0.5v0.1
	c0.1,1.4,0.3,3.7,0.5,5.8c0.1,1.2,0.3,2.4,0.5,3.5v0.1H47c-0.2,0-0.4,0-0.5,0c-0.5,0-1,0.1-1.6,0.1l-1.2,0.1c-0.7,0-1.3,0.7-1.3,1.4
	c0,0.7,0.6,1.3,1.3,1.3h0.1h0.8c0.7,0,1.3-0.1,1.9-0.1c0.3,0,0.7-0.1,1-0.1c0.1,1,0.3,1.8,0.3,2.6c0.1,0.7,0.3,1.4,0.4,2.2v0.1
	l0.1,0.2l0.2,0.9l0.1,0.7c0.3,1.8,0.7,4.1,1.2,6.2v0.1v0.1c-0.2,0.1-0.4,0.1-0.7,0.2c-1.3,0.5-2.6,0.9-3.9,1.4l-1,0.3
	c-0.4,0.1-0.7,0.3-0.9,0.7c-0.2,0.3-0.3,0.7-0.1,1.1c0.2,0.6,0.7,1,1.4,1c0.1,0,0.3,0,0.4-0.1l1.4-0.3c1.2-0.4,2.5-0.9,3.8-1.4
	l0.3-0.1l0.3-0.1c0.2,0.7,0.4,1.3,0.6,1.9l0.1,0.1l0.1,0.3l0.1,0.3l0.1,0.4l0.2,0.6c0.1,0.4,0.3,0.9,0.4,1.2c0.2,0.7,0.4,1.3,0.6,2
	l0.2,0.6v0.1c0.3,0.8,0.5,1.7,0.8,2.6c0.1,0.4,0.2,0.8,0.3,1.1c0.2,0.7,0.4,1.5,0.7,2.3c-1.4,0.7-2.9,1.3-4.4,2l-1,0.5l-1,0.5
	c-0.2,0.1-0.3,0.3-0.4,0.5c-0.1,0.2,0,0.4,0.1,0.6c0.1,0.2,0.3,0.3,0.5,0.4c0.1,0,0.1,0,0.2,0c0.1,0,0.3-0.1,0.5-0.1
	c1-0.5,2-0.9,2.9-1.4l1-0.5l1.8-0.9l0.2-0.1l0.1-0.1c0.3,1,0.8,2.1,1.4,3.5c0.3,0.9,0.7,1.8,1,2.7c0.1,0.4,0.3,0.7,0.4,1.1
	c0.1,0.5,0.3,1,0.5,1.6l0.3,0.8l0.1,0.1c0.2,0.5,0.3,1.1,0.5,1.6c-0.6,0.2-1.2,0.4-1.9,0.6c-1.8,0.7-3.6,1.3-5.2,1.9
	c-0.3,0.1-0.5,0.3-0.6,0.5c-0.1,0.3-0.2,0.5-0.1,0.8c0.1,0.5,0.6,0.8,1,0.8c0.1,0,0.2,0,0.3-0.1c1.7-0.7,3.5-1.3,5.2-2
	c0.6-0.2,1.2-0.5,1.8-0.7c0.1,0.5,0.2,0.9,0.3,1.3c0.1,0.3,0.2,0.7,0.3,1l0.1,0.1l0.1,0.1c0.2,0.6,0.4,1.2,0.5,1.8l0.1,0.1v0.1
	c0.2,0.9,0.5,1.7,0.7,2.6c0.1,0.5,0.3,0.9,0.5,1.4L63,283l0.1,0.4c-0.7,0.2-1.4,0.5-2,0.7c-1,0.3-2,0.7-3,1l-0.3,0.1l-0.4,0.1
	c-1,0.3-2.1,0.7-3.1,1c-0.7,0.3-1.1,1-0.9,1.7c0.1,0.6,0.7,1,1.3,1c0.1,0,0.3,0,0.4-0.1c2.5-0.9,4.8-1.6,6.8-2.4l0.4-0.1
	c0.6-0.2,1.1-0.4,1.7-0.7c0.3,0.8,0.7,1.6,1,2.3c0.9,2,2,3.7,2.9,5.2c0.5,0.7,0.9,1.2,1.4,1.9h-0.1c-0.3,0.2-0.5,0.5-0.5,0.7
	c-0.1,0.3,0,0.6,0.1,0.9c0.1,0.3,0.4,0.5,0.7,0.5c0.1,0,0.2,0.1,0.3,0.1c0.3,0,0.5-0.1,0.6-0.2l0.2-0.1l0.2-0.1l0.2,0.2l0.3,0.3
	l0.5,0.5l0.7,0.7c0.5,0.5,0.9,0.9,1.4,1.4c0.3,0.3,0.5,0.5,0.7,0.9l0.1,0.1c0.3,0.4,0.7,0.8,1.1,1.2c0.7,0.7,1.5,1.4,2.2,2
	c0.7,0.5,1.3,1,2,1.6c-0.9,1.2-1.8,2.4-2.7,3.6c-0.2,0.3-0.2,0.7-0.1,0.9c0.1,0.3,0.3,0.5,0.5,0.7c0.2,0.1,0.4,0.1,0.6,0.1
	c0.1,0,0.2,0,0.3-0.1l0.2-0.1l0.1-0.1c0.2-0.1,0.3-0.3,0.4-0.5c0.7-1,1.6-2.2,2.5-3.4c1.3,1,2.6,1.8,3.7,2.4
	c1.8,0.9,3.6,1.6,5.5,2.2c-0.3,0.7-0.7,1.5-0.9,2.3c-0.1,0.3,0,0.6,0.1,0.8c0.1,0.3,0.4,0.4,0.7,0.5c0.1,0,0.2,0,0.3,0
	c0.2,0,0.4-0.1,0.5-0.1l0.1-0.1l0.1-0.1c0.1-0.1,0.2-0.3,0.3-0.5l0.3-0.9l0.5-1.3c0.5,0.2,1.2,0.5,2.1,0.6c1.3,0.3,2.7,0.5,4.1,0.7
	c0.9,0.1,1.7,0.1,2.4,0.1v0.2v0.3v0.1v0.1l0.1,1c0.1,0.7,0.1,1.2,0.1,1.9c0.1,0.7,0.1,1.4,0.1,2.1v0.2c0.1,1.2,0.2,2.6,0.3,4
	c0.4,4.5,0.5,9,0.5,12.9c0,3.9,0,7.9-0.1,11.5v0.1v0.4v0.1v0.1v0.6c0,1.9-0.1,3.9-0.1,5.8v0.1v0.1v0.2c0,2.2-0.1,4.4-0.1,6.6v2.4
	c0,1.3,0,2.6-0.1,3.9c0,1,0,2,0,3.1c0,0.7,0.1,1.4,0.1,2v0.4l0.1,0.7c0.1,0.8,0.1,1.6,0.1,2.4v0.7c0,0.3,0,0.7,0,0.9v0.1
	c0,0.7,0,1.3,0.1,1.8c0.1,2.5,0.3,4.5,0.3,6.3c0,0.5,0.1,1,0.1,1.6v0.1v0.1c0,0.4,0.1,0.8,0.1,1.2c0.1,1,0.1,2.1,0.1,3.1
	c0.1,2.3,0.3,4.4,0.5,6.3v0.2v0.1c0.2,2,0.5,4.2,0.9,6.3c0.4,2.2,1.1,4.2,2.2,5.9c0.5,0.9,1.1,1.6,2,2.7c0.4,0.5,0.9,0.9,1.3,1.2
	c0.6,0.5,1.1,0.9,1.6,1.1c1.4,1,3.1,1.2,5,1.4c0.6,0.1,1,0.1,1.5,0.1c0.1,0,0.3,0,0.3,0c0.9,0,1.6-0.1,2.3-0.3c1-0.3,2-0.7,3.1-1.2
	c0.1-0.1,0.2-0.1,0.3-0.2c0.1-0.1,0.3-0.1,0.5-0.2c0.3-0.1,0.5-0.2,0.7-0.3c0.2-0.1,0.3-0.3,0.5-0.3c0.1-0.1,0.2-0.1,0.3-0.2
	c0.3-0.3,0.7-0.6,0.9-0.9l0.1-0.1c0.3-0.3,0.7-0.7,1-1c0.7-0.8,1.4-1.6,2-2.6c0.6-0.8,1.1-1.6,1.5-2.4c0.5-0.9,0.9-1.9,1.2-2.8
	c0.3-0.7,0.6-1.7,0.9-2.7c0.1-0.4,0.2-0.9,0.3-1.2l0.1-0.2v-0.1c0.1-0.4,0.1-0.9,0.3-1.2v-0.2c0.2-1.1,0.3-2,0.5-2.9
	c0.1-1.2,0.3-2.4,0.3-3.3c0.1-2,0.3-4,0.2-6c0-1.4-0.1-2.7-0.1-3.8c0.1-3.8,0.2-7.7,0.3-12c0.1-2.1,0.1-4.1,0.1-6.2v-0.2v-0.6
	c0.1-6.7,0.2-12.7,0.3-18.9v-3.4v-1.2v-0.3v-0.3v-1.4c0.1-6.7,0.1-13,0.2-19.2c0-2.3,0-4.3-0.1-6.3c-0.1-2.2-0.2-4.2-0.4-6.1
	c-0.1-0.5-0.1-1-0.1-1.5l0.1-0.5c0.1-0.5,0.1-1,0.1-1.4c0.1-0.8,0.1-1.6,0.1-2.4v-0.7c0.1-1,0.1-2,0.1-2.9c0-0.9,0-1.8,0.1-2.7
	c0.1-2.1,0.1-3.9,0.3-5.6v-0.1c0.1-0.8,0.1-1.6,0.1-2.4c0-0.7,0-1.4,0-2v-0.8c0-1.9,0-3.7,0-5.6c0-1.2,0-2.4,0-3.5v-0.7V274v-0.6
	c0.3-0.2,0.7-0.3,1-0.6c0.8-0.5,1.5-1,2.2-1.6l0.2-0.2l0.3-0.2c0.9-0.7,1.6-1.2,2.2-1.8c0.8-0.7,1.6-1.3,2.3-2
	c0.7-0.7,1.4-1.3,2.1-2.2c1.4-1.7,2.7-3.5,3.8-5.2l0.5-0.8c0.7-1,1.4-2.1,2.1-3.1l0.4-0.5c0.5-0.7,1-1.3,1.5-2
	c0.5-0.8,1-1.6,1.6-2.6c0.3-0.5,0.6-1,0.9-1.6c0.3-0.3,0.6-0.8,0.9-1.4c0.1-0.3,0.3-0.5,0.4-0.8l0.1-0.1l0.1-0.1
	c0.3-0.6,0.6-1.2,1-2.1c0.3-0.7,0.6-1.4,1-2.4c0.3-0.9,0.6-1.6,0.7-2.2c0.9-3.3,1.6-6.3,2.3-9.1c0.3-1.2,0.5-2.6,0.8-4.4l0.1-1.2
	v-0.1c0.2-1.3,0.4-2.6,0.5-3.9c0.1-1.2,0.3-2.5,0.3-3.7v-0.1v-0.1l0.1-0.9c0.1-1.6,0.3-3.2,0.5-4.7c0.1-0.9,0.2-1.8,0.3-2.7v-0.1
	v-0.1v-0.2c0.1-0.5,0.1-0.9,0.1-1.4v-0.1c0.1-1.6,0.2-3.1,0.2-4.6c0-1.8,0.1-3.5,0.1-4.8c0-0.7,0.1-1.4,0.1-2.1v-0.3
	c0.1-0.8,0.1-1.6,0.1-2.4c0-0.6,0-1.2,0-1.9V191c0-0.9-0.1-1.6-0.1-2.5c0-0.9-0.1-1.6-0.1-2.4c-0.1-0.7-0.1-1.5-0.1-2.2
	c-0.1-1.1,0-2.3,0-3.1v-0.1v-0.1v-0.4c0-0.3,0-0.6,0-0.9c0-1.4,0-3,0-4.6c0-1.5,0-3.1-0.1-4.7v-0.4c0-0.7-0.1-1.3-0.1-2
	c0-0.4-0.1-0.8-0.1-1.2v-0.1v-0.1c0-0.3-0.1-0.7-0.1-0.9c-0.1-0.8-0.1-1.6-0.1-2.4V163v-0.1v-0.1v-0.3c0-0.5-0.1-1.1-0.1-1.6
	c-0.1-1.6-0.2-3.1-0.4-4.6c-0.1-0.9-0.2-1.6-0.3-2.5v-0.2v-0.1c-0.1-0.9-0.2-2-0.4-3.1c-0.1-0.5-0.2-0.9-0.3-1.2l-0.1-0.1
	c-0.3-0.8-0.5-1.6-1-2.4c-0.5-0.8-1.2-1.5-2.2-2c-0.5-0.2-0.9-0.4-1.4-0.5c-0.3-0.1-0.6-0.1-0.9-0.1s-0.5,0-0.9,0.1
	c-0.5,0.1-1,0.3-1.6,0.7c-0.1,0.1-0.2,0.1-0.3,0.2c-0.1,0-0.3,0-0.4,0c-0.2,0-0.4,0-0.6,0.1c-0.3,0.1-0.7,0.3-1,0.4
	c-0.3,0.2-0.7,0.5-0.9,0.7c-0.3,0.3-0.5,0.7-0.7,0.9v0.1c-0.3,0.5-0.6,1-0.7,1.5l-0.1,0.1c-0.2,0.5-0.4,1-0.7,1.5l-0.3,0.7l-0.1,0.3
	c-0.1,0.4-0.3,0.9-0.5,1.2c-0.2,0.5-0.3,1-0.5,1.7c-0.3,1-0.5,2.2-0.7,3.1v0.1l-0.1,0.3c-0.2,1.2-0.3,2.6-0.5,3.5l-0.1,0.6
	c-0.2,1.7-0.3,3.5-0.5,4.8v0.1v0.1v0.1c-0.1,0.9-0.1,1.8-0.3,2.7l-0.1,0.4c-0.1,1.1-0.2,2.2-0.3,3.2c-0.1,0.9-0.1,1.8-0.1,2.6v0.2
	v0.2l-0.1,1c-0.1,2.7-0.3,5.8-0.5,7.7v0.1v0.2c-0.1,1-0.2,2-0.3,2.9v0.1v0.1v0.1l-0.1,1l-0.1,0.9l-0.1,0.9c0,0.2-0.1,0.3-0.1,0.5
	c-0.1,0.5-0.1,0.9-0.2,1.2l-0.1,0.8v0.1c-0.3,1.3-0.5,2.4-0.8,3.5l-0.1,0.4v0.1v0.1v0.1c-0.3,1.2-0.6,2.4-0.9,3.5l-0.1,0.5
	c-0.4,1.2-0.9,2.7-1.4,4.2c-0.3,0.7-0.7,1.5-1.2,2.2c-0.4,0.4-0.8,0.7-1,1c-0.1-0.1-0.2-0.1-0.3-0.2c-0.1-0.4-0.2-0.8-0.3-1.3
	c-0.1-0.9-0.1-1.8-0.1-2.7v-0.1v-0.1v-0.7c-0.1-0.9-0.1-1.8-0.1-2.7l-0.1-1.3c-0.1-2.2-0.2-4.9-0.2-7.7c0-6.2,0-11,0.1-15.5
	c0.1-2.7,0.3-5.3,0.4-7.9v-0.1v-0.1v-0.1v-0.1c0.1-2.1,0.3-4.5,0.4-6.8c0.1-2.8,0.3-5.6,0.4-7.8c0.1-0.6,0.1-1.1,0.1-1.7
	c0.1-0.8,0.1-1.6,0.1-2.4c0.1-1,0.1-2.2,0.1-3.2l0.1-0.9c0.1-1,0.1-2,0.1-3v-0.1v-0.1c0-1.3,0.1-2.7,0.1-4c0.1-1.4,0.1-2.7,0.3-4.1
	l0.1-0.6l0.1-0.7c0.1-0.8,0.1-1.6,0.1-2.4l0.1-1.6l0.1-1.7l0.1-1.7v-0.5V125c0.2-3.5,0.4-7.1,0.6-10.6c0.1-1,0-1.9,0-2.8v-0.3v-0.3
	c0.4,0,0.7-0.1,1.1-0.1l0.3-0.1c1.4-0.2,3.1-0.4,4.7-0.7l0.5-0.1c1.6-0.3,3.1-0.5,4.7-0.9c0.9-0.3,1.7-0.5,2.6-0.7
	c0.7-0.2,1.4-0.5,2.2-0.8c0.7-0.3,1.4-0.5,2.2-1l0.1-0.1c1.1-0.5,2.2-1,3.2-1.8c0.7-0.6,1.3-1.2,2-1.9c0.6-0.7,1.1-1.4,1.5-2.1
	c0.3-0.5,0.8-1.3,1.2-2.1c0.5-1,0.8-2,1-3.1c0.3-1.4,0.5-2.8,0.7-4.2l0.1-0.8c0-0.1,0-0.2,0.1-0.3v-0.1l0.1-0.3
	c0.1-0.5,0.1-1,0.3-1.5c0.1-0.7,0.2-1.4,0.3-2.4c0.1-1.6,0.1-3.3,0.1-4.9c0-1.7-0.1-3.3-0.1-4.8c0-0.6-0.1-1.1-0.1-1.7
	c-0.1-1.1-0.1-2.3-0.2-3.4c-0.1-1.5-0.2-3.3-0.4-5c-0.2-1.7-0.3-3.3-0.5-5c-0.2-1.7-0.4-3.5-0.7-5.3c-0.2-1.3-0.4-2.9-0.7-4.5
	c-0.1-0.3-0.1-0.6-0.2-0.9v-0.1v-0.1v-0.1c-0.1-0.7-0.3-1.2-0.4-1.9l-0.3-1.4l-0.3-1.3c-0.5-1.8-0.9-3.3-1.3-4.5
	c-0.3-1-0.8-2-1.3-3.1c-0.7-1.3-1.2-2.3-1.8-3.1c-0.7-0.9-1.4-1.6-2.2-2.2c-0.4-0.3-0.8-0.5-1.2-0.5c-0.1,0-0.2,0-0.3,0
	c-0.5,0-0.9,0.1-1.3,0.3c-0.9,0.4-1.6,1-2.2,1.8c-0.4,0.7-0.7,1.3-0.9,1.9c-0.3,0.7-0.4,1.4-0.6,2l-0.1,0.4
	c-0.2,0.7-0.3,1.4-0.5,2.4c-0.5,2.2-0.7,4.5-1,6.7v0.1v0.1l-0.1,0.3c-0.1,0.8-0.2,1.6-0.3,2.4c-0.1,0.3-0.1,0.7-0.1,1v0.1l-0.1,0.3
	V52c-0.1,0.9-0.3,2.1-0.5,3.1v0.1l-0.1,0.6V56v0.1c-0.1,0.5-0.1,1-0.3,1.6c-0.2,0.9-0.4,1.8-0.6,2.7c-0.3,1.2-0.6,2.5-1,3.8
	c-0.5,1.3-1.1,3.2-1.8,5.2c-0.3,0.7-0.5,1.5-0.9,2.2l-0.1,0.3l-0.1,0.3c-0.2,0.5-0.3,0.9-0.5,1.3l-0.1,0.3c-0.3,0.6-0.5,1.2-0.8,1.8
	c-0.5,0.7-1.1,1.5-1.8,2.2c-0.6,0.6-1.1,1.1-1.6,1.6l0.1-0.3v-0.3c0.1-2.1,0.1-3.9,0.3-5.6l0.1-0.9c0.1-0.5,0.1-1,0.1-1.6
	c0.1-1,0.1-2.1,0.1-3.1c0.1-1.6,0-3.3-0.1-4.9v-0.1V62c-0.1-2.4-0.2-4.1-0.3-5.7c-0.1-1.5-0.2-3.7-0.3-5.9l-0.1-2v-0.1v-0.1
	c-0.1-2.6-0.1-6-0.3-9.3v-0.7c0-0.7-0.1-1.4-0.1-2.2l-0.1-0.9l-0.1-0.9c0-0.4-0.1-0.7-0.1-1.1v-0.3v-0.3c-0.1-0.8-0.2-1.6-0.4-2.6
	c-0.2-0.9-0.4-1.8-0.7-2.8c-0.4-1.4-1-2.9-1.9-4.6c-0.5-0.9-0.9-1.6-1.4-2.4c-0.7-0.9-1.3-1.6-2-2.3c-1.6-1.4-3.3-2.4-5.2-2.9
	c-0.8-0.2-1.6-0.3-2.4-0.4C127.1,15.1,126.5,15.1,126.1,15.1 M164.6,194c0-1.3-0.1-2.5-0.1-3.5c0-0.5,0-0.9-0.1-1.3v0.2
	C164.6,191.3,164.6,192.7,164.6,194"/>
<path class="st0" d="M39,115.5c-0.3,0-0.5,0.1-0.7,0.2c-0.4,0.2-0.7,0.4-1,0.7c-0.3,0.3-0.5,0.7-0.7,1c-0.1,0.2-0.2,0.5-0.2,0.7
	c0,0.3-0.1,0.5-0.1,0.7c0.1,0.9,0.4,1.8,1.2,2.3c1.1,0.8,2.5,1.3,3.8,1.8c0.7,0.3,1.3,0.5,2,0.7c0.7,0.2,1.3,0.4,2,0.4
	c0.7,0,1.2-0.5,1.4-1.2c0.1-0.4,0-0.8-0.2-1.1c0.5-0.7,0.5-1.8-0.3-2.5c-0.5-0.5-1-1-1.6-1.4c-0.5-0.5-1-0.9-1.5-1.1
	c-0.5-0.3-0.9-0.5-1.4-0.7c-0.5-0.2-1-0.4-1.5-0.5c-0.2-0.1-0.5-0.1-0.7-0.1C39.3,115.4,39.2,115.4,39,115.5 M39.6,119.2
	C39.6,119.2,39.7,119.2,39.6,119.2C39.6,119.2,39.6,119.3,39.6,119.2C39.6,119.3,39.6,119.2,39.6,119.2 M39.5,119.2L39.5,119.2
	C39.4,119.3,39.5,119.3,39.5,119.2 M39.8,119.3L39.8,119.3C39.8,119.3,39.7,119.3,39.8,119.3L39.8,119.3z"/>
<path class="st0" d="M64.8,117.1c-0.3,0.2-0.6,0.4-0.9,0.6c-0.3,0.2-0.5,0.4-0.8,0.7c-0.6,0.5-1.1,0.9-1.7,1.4
	c-1.4,1.1-2.7,2.2-4.1,3.4c-0.3,0.2-0.4,0.7-0.4,1c0,0.2,0.1,0.3,0.1,0.5c-0.2,0.3-0.3,0.7-0.3,1c0.1,0.4,0.2,0.8,0.5,1
	c0.4,0.4,1,0.5,1.6,0.3c0.1,0,0.1,0,0.1-0.1c0.2-0.1,0.3-0.1,0.5-0.3c0.2-0.1,0.4-0.3,0.6-0.4c0.3-0.1,0.5-0.3,0.7-0.4
	c0.6-0.3,1.1-0.5,1.7-0.7c1-0.4,1.9-1,2.8-1.6c0.4-0.3,0.8-0.5,1.2-0.9c0.3-0.3,0.5-0.6,0.7-1c0.2-0.4,0.4-0.9,0.5-1.2
	c0.1-0.3,0.1-0.8,0.1-1.1c0-0.7,0-1.4-0.4-2c-0.3-0.4-0.7-0.6-1-0.7c-0.1,0-0.2-0.1-0.3-0.1C65.6,116.7,65.1,116.9,64.8,117.1
	 M65.6,119.8L65.6,119.8c0,0.2-0.1,0.4-0.1,0.5c-0.1,0.3-0.2,0.5-0.4,0.8c-0.1,0.1-0.1,0.1-0.1,0.1c-0.8,0.6-1.6,1.1-2.4,1.5
	c-0.3,0.1-0.5,0.2-0.7,0.3C63.1,121.9,64.3,120.8,65.6,119.8c-0.1,0.1-0.1,0.1-0.1,0.1C65.5,119.8,65.5,119.8,65.6,119.8
	 M64.9,121.3C64.8,121.3,64.8,121.3,64.9,121.3C64.8,121.3,64.8,121.3,64.9,121.3"/>
<path class="st0" d="M63.7,119.5c-1.2,0.7-2.3,1.4-3.5,2.1c-0.5,0.3-0.9,0.6-1.4,0.9c-0.5,0.3-1,0.7-1.4,1.2
	c-0.3,0.3-0.4,0.6-0.5,0.9c-0.1,0.3-0.1,0.7,0.1,1c0.1,0.3,0.3,0.6,0.5,0.9c0.3,0.3,0.9,0.6,1.4,0.5c0.3-0.1,0.7-0.1,1-0.3
	c0.3-0.1,0.7-0.3,1-0.5c0.5-0.3,0.9-0.5,1.4-0.8c1.2-0.7,2.4-1.4,3.7-2.2c1-0.6,1.3-2,0.7-3c-0.4-0.7-1.1-1-1.8-1
	C64.5,119.2,64.1,119.3,63.7,119.5"/>
<path d="M65.4,131.4c-1.8,0.6-3.4,1.3-5.1,2.1c-0.3,0.1-0.6,0.3-0.8,0.7c-0.2,0.3-0.2,0.7-0.1,1c0.1,0.3,0.3,0.6,0.7,0.8
	c0.3,0.1,0.7,0.3,1,0.1c1.7-0.7,3.3-1.5,5-2.2c0.3-0.1,0.6-0.3,0.7-0.6c0.1-0.3,0.2-0.7,0.1-1c-0.2-0.5-0.7-0.9-1.2-0.9
	C65.7,131.3,65.5,131.4,65.4,131.4"/>
<path d="M70.7,146.7c-0.5,0.3-1,0.5-1.5,0.8c-0.5,0.3-0.9,0.5-1.3,0.7c-0.9,0.4-1.8,0.7-2.7,1.1c-0.5,0.1-0.9,0.3-1.3,0.5
	c-0.5,0.2-1,0.3-1.4,0.5c-0.2,0.1-0.3,0.2-0.4,0.3c-0.1,0.2-0.1,0.4-0.1,0.6c0.1,0.2,0.2,0.3,0.3,0.4s0.4,0.1,0.6,0.1
	c0.5-0.3,1-0.5,1.6-0.7c0.6-0.3,1.1-0.5,1.7-0.8c-0.1,0-0.1,0.1-0.1,0.1l0.2-0.1c-0.1,0-0.1,0.1-0.1,0.1c0.1-0.1,0.2-0.1,0.3-0.1
	c0,0,0,0-0.1,0h0.1c0,0,0.1,0,0.1-0.1h-0.1c0.1,0,0.1-0.1,0.1-0.1c0.1,0,0.1-0.1,0.2-0.1l-0.1,0.1c0.1-0.1,0.1-0.1,0.2-0.1
	c0.1,0,0.1-0.1,0.2-0.1c-0.1,0-0.1,0.1-0.1,0.1c0.3-0.2,0.7-0.3,1-0.5c0.4-0.2,0.8-0.4,1.2-0.6c0.3-0.2,0.6-0.3,0.9-0.5
	c0.4-0.2,0.9-0.4,1.2-0.7c0.3-0.1,0.3-0.5,0.2-0.7c-0.1-0.1-0.2-0.2-0.3-0.3c-0.1,0-0.1,0-0.1,0C70.9,146.6,70.8,146.7,70.7,146.7
	 M66.8,149.9C66.8,149.9,66.8,149.9,66.8,149.9L66.8,149.9C66.9,149.9,66.8,149.9,66.8,149.9 M66.9,149.9L66.9,149.9L66.9,149.9"/>
<path d="M67.6,157.9c-1.2,0.7-2.4,1.4-3.6,2.1c-0.3,0.1-0.5,0.3-0.9,0.5s-0.7,0.4-1,0.6c-0.7,0.4-1.3,0.9-1.8,1.4
	c-0.2,0.2-0.3,0.5-0.3,0.7s0.1,0.5,0.3,0.7c0.4,0.3,1,0.3,1.4-0.1c0.5-0.7,1.1-1.2,1.8-1.7c0.7-0.5,1.4-1.1,2.2-1.6
	c0.9-0.5,1.7-1,2.6-1.5c0.3-0.2,0.4-0.6,0.2-0.9c-0.1-0.2-0.3-0.3-0.5-0.3C67.8,157.8,67.7,157.9,67.6,157.9"/>
<path d="M69.2,170.5c-0.3,0.3-0.6,0.7-0.9,0.9c-0.3,0.3-0.6,0.5-0.9,0.8c-0.6,0.5-1.1,1-1.6,1.6c-1.1,1.1-2.2,2.2-3.1,3.4
	c-0.1,0.2-0.3,0.4-0.2,0.7c0,0.2,0.1,0.5,0.3,0.6c0.3,0.3,0.9,0.3,1.2-0.1c0.3-0.3,0.6-0.7,0.9-1c0.3-0.3,0.5-0.6,0.8-0.9
	c0.5-0.5,1-1.1,1.4-1.6c0.5-0.6,1-1.2,1.5-1.8c0.6-0.7,1.2-1.2,1.8-1.8c0.3-0.3,0.2-0.7,0-0.9c-0.1-0.1-0.3-0.1-0.4-0.1
	C69.5,170.4,69.3,170.4,69.2,170.5"/>
<path d="M70.9,181.7c-0.4,0.7-0.8,1.4-1.2,2.2c-0.3,0.7-0.7,1.3-1,2c-0.3,0.7-0.7,1.3-1,1.9s-0.7,1.2-1.1,1.8
	c-0.1,0.1-0.1,0.1-0.1,0.2c-0.4,0.5-0.8,1-1.2,1.5c-0.1,0.1-0.2,0.3-0.2,0.5s0.1,0.3,0.2,0.5c0.3,0.3,0.7,0.3,1-0.1
	c0.5-0.7,1-1.3,1.6-2c0.5-0.6,0.8-1.2,1.2-1.8c0.7-1.2,1.4-2.6,2-3.9c0.4-0.7,0.7-1.4,1.1-2.1c0.2-0.3,0.1-0.7-0.3-0.9
	c-0.1-0.1-0.2-0.1-0.3-0.1C71.2,181.3,71,181.4,70.9,181.7"/>
<path d="M71.2,196.1c-0.5,0.7-0.9,1.5-1.4,2.2c-0.4,0.7-0.8,1.4-1,2c-0.3,0.8-0.7,1.6-1,2.4c-0.4,0.9-0.8,1.6-1,2.5
	c-0.2,0.6,0.3,1.2,0.9,1.4s1.2-0.3,1.4-0.9c0.1-0.7,0.4-1.3,0.5-1.9c0.2-0.6,0.4-1.2,0.6-1.8c0,0.1-0.1,0.1-0.1,0.2
	c0.1-0.4,0.3-0.7,0.4-1.1v0.1c0.3-0.7,0.6-1.4,0.9-2.1c0.4-0.8,0.9-1.5,1.3-2.3c0.2-0.3,0-0.8-0.3-1c-0.1-0.1-0.2-0.1-0.3-0.1
	C71.6,195.7,71.4,195.9,71.2,196.1"/>
<path d="M72.1,209.3c-0.1,0.6-0.3,1.2-0.4,1.8c-0.2,0.6-0.3,1.1-0.5,1.7c-0.4,1-0.9,2-1.3,2.9c-0.3,0.5-0.5,0.9-0.8,1.4
	c-0.3,0.5-0.6,1-0.9,1.6c-0.3,0.5-0.1,1.1,0.4,1.4c0.3,0.1,0.5,0.1,0.8,0.1c0.3-0.1,0.5-0.3,0.6-0.5c0.3-0.4,0.5-0.8,0.8-1.2
	c0.2-0.4,0.4-0.7,0.6-1.1c0.4-0.9,0.7-1.7,1-2.6c0.3-0.8,0.5-1.6,0.7-2.5c0.2-0.9,0.4-1.7,0.5-2.5c0.1-0.3-0.1-0.7-0.5-0.8
	c-0.1,0-0.1,0-0.1,0C72.4,208.8,72.1,209,72.1,209.3"/>
<path d="M74.4,223.2c-0.2,0.8-0.3,1.6-0.6,2.4c-0.5,1.1-1,2.2-1.6,3.2c-0.3,0.5-0.5,1-0.8,1.6c-0.3,0.5-0.5,1-0.7,1.4
	c-0.3,0.5-0.1,1,0.3,1.4c0.2,0.2,0.5,0.3,0.9,0.3c0.3,0,0.6-0.1,0.8-0.4c1-1.3,1.7-2.7,2.5-4.1c0.4-0.7,0.8-1.4,1.1-2.2
	c0.5-1,0.6-2.1,0.9-3.1c0.1-0.7-0.3-1.4-1-1.6c-0.1,0-0.2,0-0.3,0C75.2,222.1,74.6,222.5,74.4,223.2"/>
<path d="M76.1,235c-0.3,0.2-0.6,0.5-0.7,0.9c-0.1,0.7-0.1,1.4-0.3,2c-0.1,0.7-0.3,1.3-0.5,2c-0.3,1.4-0.7,2.7-1,4.1
	c-0.1,0.5,0.2,1.1,0.7,1.4c0.6,0.3,1.4,0.1,1.7-0.5c0.6-1.3,1-2.7,1.4-4.2c0.2-0.7,0.4-1.3,0.5-2c0.1-0.7,0.3-1.4,0.3-2.2
	c0.1-0.4,0-0.7-0.2-1c-0.2-0.3-0.5-0.5-0.9-0.7c-0.1,0-0.2-0.1-0.3-0.1C76.6,234.8,76.3,234.9,76.1,235"/>
<path d="M78.7,205.2c-0.3,0.2-0.5,0.5-0.5,0.7c-0.1,0.3,0,0.7,0.1,0.9c0.4,0.5,0.9,1,1.2,1.5s0.9,1,1.3,1.5c0.9,0.9,1.8,1.8,2.8,2.6
	c0.3,0.2,0.5,0.3,0.8,0.3c0.3,0,0.5-0.1,0.7-0.3c0.4-0.5,0.4-1.1-0.1-1.5c-0.9-0.9-1.8-1.8-2.6-2.7c-0.7-0.8-1.4-1.6-2.2-2.5
	c-0.1-0.1-0.1-0.1-0.1-0.1c-0.1-0.1-0.1-0.1-0.2-0.2c-0.1-0.1-0.3-0.3-0.5-0.3c-0.1,0-0.2,0-0.3,0C79.1,205,78.9,205.1,78.7,205.2
	 M80.3,205.6L80.3,205.6C80.3,205.6,80.3,205.6,80.3,205.6"/>
<path d="M79.2,193.6c-0.3,0.2-0.5,0.5-0.6,0.9s-0.1,0.8,0.2,1c1,1.3,2.1,2.6,3.1,3.9c0.9,1.1,1.8,2.3,2.6,3.5
	c0.4,0.6,1.2,0.8,1.8,0.4c0.3-0.2,0.5-0.5,0.6-0.8c0.1-0.3,0-0.7-0.2-1c-0.7-1.2-1.5-2.4-2.4-3.6c-1-1.4-2-2.6-3.1-3.9
	c-0.3-0.3-0.5-0.5-0.9-0.6c-0.1,0-0.2-0.1-0.3-0.1C79.6,193.5,79.3,193.5,79.2,193.6"/>
<path d="M80.5,217.7c-0.3,0.3-0.3,0.8,0.1,1.1c1.2,1.2,2.3,2.4,3.5,3.6c0.9,0.9,1.8,1.8,2.6,2.8c-0.1-0.1-0.1-0.1-0.1-0.1l0.1,0.2
	c0.1,0.1,0.3,0.3,0.5,0.3c0.2,0.1,0.4,0,0.5-0.1c0.3-0.2,0.5-0.7,0.2-0.9c-0.5-0.6-0.9-1.2-1.4-1.8c-0.5-0.5-0.9-1-1.3-1.5
	c-0.5-0.5-0.9-1-1.4-1.4c-0.7-0.7-1.4-1.4-2.1-2.2c-0.1-0.1-0.3-0.2-0.5-0.2C80.9,217.5,80.7,217.6,80.5,217.7"/>
<path d="M79.9,227.8c-0.5,0.5-0.4,1.2,0.1,1.6c0.5,0.5,1,1,1.6,1.6c0.5,0.4,0.9,0.9,1.2,1.3c0.3,0.4,0.7,0.8,0.9,1.2
	c0.2,0.3,0.4,0.6,0.5,0.9c0.1,0.2,0.3,0.5,0.4,0.7c0.1,0.1,0.1,0.1,0.1,0.2c0.1,0.3,0.3,0.5,0.5,0.7c0.3,0.1,0.6,0.2,0.9,0.1
	c0.5-0.2,0.9-0.9,0.7-1.4c-0.3-0.7-0.6-1.4-1-2.1c-0.2-0.3-0.4-0.6-0.6-0.9c-0.2-0.3-0.4-0.5-0.7-0.8c-0.5-0.5-0.9-1-1.4-1.5
	c-0.6-0.5-1.1-1.1-1.7-1.7c-0.2-0.2-0.5-0.3-0.8-0.3C80.4,227.5,80.1,227.6,79.9,227.8"/>
<path d="M82.2,181.5c-0.3,0.1-0.6,0.3-0.7,0.6c-0.2,0.3-0.1,0.7-0.1,1c0.4,2,0.8,3.9,1.2,5.8c0.1,0.7,0.3,1.4,0.5,2.1
	c0.1,0.5,0.2,0.9,0.3,1.4c0.1,0.2,0.1,0.4,0.2,0.6c0.1,0.2,0.1,0.3,0.2,0.5c0.1,0.3,0.3,0.5,0.7,0.7c0.4,0.3,1,0.1,1.3-0.2
	c0.3-0.3,0.4-0.9,0.1-1.3c-0.1-0.4-0.2-0.9-0.3-1.2c-0.1-0.4-0.2-0.8-0.3-1.2c-0.1-0.7-0.3-1.4-0.4-2c-0.4-1.9-0.8-3.8-1.2-5.7
	c-0.1-0.3-0.3-0.6-0.6-0.7c-0.2-0.1-0.4-0.1-0.6-0.1C82.5,181.4,82.4,181.4,82.2,181.5"/>
<path d="M88.7,183.9c-0.9,3.1-1.7,6.2-2.3,9.4c-0.1,0.6,0.2,1.2,0.8,1.3c0.3,0.1,0.6,0,0.8-0.1c0.3-0.1,0.4-0.4,0.5-0.7
	c0.9-3.1,1.8-6.2,2.6-9.3c0.2-0.7-0.3-1.4-0.9-1.5c-0.1,0-0.2,0-0.3,0C89.4,182.9,88.9,183.3,88.7,183.9"/>
<path d="M96.4,195.5c-1,2.3-2.1,4.5-3.1,6.8c-0.3,0.5-0.5,1-0.7,1.6c-0.2,0.5-0.5,0.9-0.7,1.4c-0.5,0.9-0.9,1.8-1.4,2.8
	c-0.1,0.1,0,0.3,0.1,0.4c0.1,0.1,0.3,0,0.4-0.1c0.5-0.9,1-1.8,1.4-2.7c0.3-0.5,0.5-0.9,0.7-1.4c0.3-0.5,0.5-1,0.8-1.6
	c0.4-0.9,0.8-1.6,1.2-2.5c0.7-1.4,1.3-2.8,2-4.3c0.1-0.2,0-0.4-0.1-0.5c-0.1,0-0.1-0.1-0.2-0.1C96.6,195.4,96.5,195.4,96.4,195.5"/>
<path d="M97.8,210.7c-1.2,2.4-2.4,4.6-3.6,7c-1,2.1-2.1,4.1-3.2,6.2c-0.2,0.5-0.1,1,0.4,1.2c0.2,0.1,0.5,0.1,0.7,0.1
	c0.3-0.1,0.4-0.2,0.5-0.5c1.3-1.9,2.4-3.9,3.5-6c0.5-0.9,0.9-1.8,1.4-2.6c0.8-1.5,1.5-2.9,2.3-4.5c0.3-0.5,0.1-1.2-0.5-1.5
	c-0.1-0.1-0.3-0.1-0.5-0.1C98.4,210.1,98,210.4,97.8,210.7"/>
<path d="M97.5,229.1c-0.6,1.2-1.1,2.6-1.7,3.9c-0.4,0.9-0.8,1.8-1.2,2.8c-0.7,1.7-1.5,3.4-2.2,5.2c-0.1,0.1-0.1,0.2,0,0.3
	c0.1,0.1,0.1,0.2,0.2,0.3c0.2,0.1,0.5,0,0.6-0.2c0.5-1,0.9-2,1.3-3c0.3-0.9,0.7-1.7,1-2.6s0.7-1.7,1-2.6c0.3-0.7,0.5-1.2,0.8-1.9
	c0.3-0.6,0.5-1.2,0.8-1.8c0.1-0.2,0.1-0.5-0.2-0.6c-0.1-0.1-0.1-0.1-0.2-0.1C97.7,228.9,97.5,228.9,97.5,229.1"/>
<path d="M98.1,239.5c-0.1,0.1-0.2,0.1-0.3,0.3c-0.2,0.2-0.3,0.5-0.4,0.7c-0.2,0.7-0.5,1.2-0.7,1.9c-0.6,1.7-1.2,3.3-1.9,5
	c-0.7,1.8-1.4,3.5-2,5.4c-0.1,0.5,0.1,1,0.6,1.2c0.3,0.1,0.6,0.2,0.9,0.1c0.3-0.1,0.5-0.3,0.7-0.5c0.5-0.8,1-1.6,1.4-2.5
	c0.2-0.5,0.5-0.9,0.7-1.4c0.2-0.5,0.4-1,0.7-1.5c1-2.3,1.8-4.6,2.6-7c0.1-0.3,0-0.9-0.2-1.1c-0.2-0.3-0.5-0.6-0.9-0.7
	c-0.1,0-0.2-0.1-0.3-0.1C98.7,239.2,98.4,239.3,98.1,239.5"/>
<path d="M98.3,254.4c-0.2,0.7-0.4,1.4-0.6,2.2c-0.2,0.7-0.3,1.2-0.5,1.9c-0.3,0.9-0.5,1.6-0.7,2.5c-0.3,1-0.7,2-0.9,2.9
	s-0.6,2-0.9,2.9c-0.1,0.4-0.2,0.9-0.3,1.2c-0.1,0.3,0.1,0.7,0.4,0.9c0.2,0.1,0.4,0.1,0.6,0.1c0.2-0.1,0.4-0.2,0.5-0.4
	c0.8-2,1.5-3.9,2.2-5.9c0.3-0.9,0.6-1.7,0.9-2.5l1-3.5c0.2-0.6,0.3-1.2,0.5-1.8c0.1-0.5-0.3-1.1-0.8-1.2c-0.1,0-0.1,0-0.2,0
	C98.8,253.6,98.4,253.9,98.3,254.4"/>
<path d="M101.9,268.5c-0.2,0.1-0.5,0.3-0.6,0.5c-0.7,1.6-1.3,3.3-1.9,4.9c-0.5,1.5-1.1,3-1.6,4.5c-0.1,0.4,0.1,0.8,0.5,1
	c0.2,0.1,0.5,0.1,0.7,0.1c0.2-0.1,0.5-0.2,0.5-0.5c0.5-1.4,1.1-2.8,1.7-4.2c0.7-1.6,1.3-3.3,2-4.9c0.1-0.3,0.1-0.5,0.1-0.8
	s-0.3-0.5-0.5-0.6c-0.1-0.1-0.3-0.1-0.5-0.1C102.1,268.5,102.1,268.5,101.9,268.5"/>
<path d="M104.9,276.4c-0.4,0-0.7,0.2-1,0.5c-0.3,0.3-0.4,0.7-0.4,1c0,1.7-0.1,3.4-0.1,5.1c-0.1,1.5-0.1,3.1-0.1,4.6
	c0,0.6,0.5,1.1,1,1.2c0.3,0.1,0.7,0,1-0.2s0.5-0.5,0.6-0.9c0.3-3.3,0.4-6.7,0.5-10.1C106.4,277,105.7,276.4,104.9,276.4
	C105,276.4,105,276.4,104.9,276.4"/>
<path d="M108,271.4c-0.2,0.1-0.3,0.4-0.1,0.7c0.3,0.5,0.6,0.9,0.9,1.4c0.2,0.3,0.4,0.7,0.7,1c0.3,0.5,0.6,1,0.9,1.4
	c0.3,0.6,0.6,1.2,0.9,1.8c0.3,0.6,0.6,1.2,0.9,1.8c0.4,0.8,0.9,1.6,1.4,2.4c0.2,0.3,0.7,0.5,1,0.2c0.1-0.1,0.3-0.3,0.3-0.5
	c0-0.1,0-0.3,0-0.4c-0.1-0.1-0.1-0.2-0.2-0.3c-0.1-0.1-0.1-0.1-0.2-0.2c-0.4-0.5-0.7-1-1-1.4c-0.1-0.3-0.3-0.5-0.5-0.8
	c-0.2-0.3-0.4-0.7-0.6-1c-0.3-0.5-0.6-1.1-0.9-1.6c-0.1-0.2-0.3-0.5-0.4-0.7c-0.1-0.3-0.3-0.5-0.5-0.7c-0.6-1-1.2-1.9-1.8-2.9
	c-0.1-0.1-0.3-0.2-0.4-0.2C108.2,271.3,108.1,271.3,108,271.4"/>
<path d="M107.8,251.4c-0.5,0.2-1,0.5-1.2,1c-0.3,0.5-0.3,1.1-0.1,1.6c0.2,0.6,0.5,0.9,1,1.2c1.1,0.7,2.2,1.4,3.3,2
	c0.9,0.5,2,0.9,3,1.2c0.3,0.1,0.5,0.2,0.7,0.3c0.7,0.4,1.7,0.3,2.3-0.4c0.3-0.4,0.5-0.9,0.5-1.4c0-0.5-0.3-1-0.6-1.3
	c-0.6-0.5-1.2-0.9-1.9-1.2c-0.5-0.3-1.1-0.6-1.7-0.9c-0.6-0.3-1.1-0.7-1.6-1c-0.7-0.4-1.3-0.9-2-1.3c-0.3-0.2-0.6-0.3-1-0.3
	C108.3,251.4,108.1,251.4,107.8,251.4"/>
<path d="M107.9,241.2c-0.3,0.2-0.5,0.5-0.6,0.9c-0.1,0.3,0,0.7,0.2,1c0.1,0.1,0.1,0.2,0.2,0.3c0.2,0.2,0.4,0.3,0.7,0.3
	c0.8,0.3,1.6,0.6,2.5,0.9c0.6,0.2,1.1,0.3,1.7,0.5c0.6,0.1,1.1,0.3,1.7,0.5c0.7,0.2,1.4,0.3,2.2,0.3c0.2,0,0.4-0.1,0.6-0.2
	c0.3-0.2,0.5-0.5,0.5-0.8c0.1-0.7-0.3-1.4-0.9-1.5c-0.6-0.1-1.2-0.3-1.8-0.5c-0.6-0.2-1.1-0.3-1.7-0.5c-1.4-0.4-2.7-0.9-4.1-1.4
	c-0.1,0-0.2-0.1-0.3-0.1C108.4,241,108.1,241.1,107.9,241.2"/>
<path d="M118,226.5c-0.9,0.2-1.7,0.3-2.6,0.5c-0.9,0.1-1.7,0.3-2.6,0.5c-0.7,0.1-1.4,0.3-2.2,0.5c-1.2,0.3-2.4,0.5-3.7,0.9
	c-0.3,0.1-0.6,0.3-0.7,0.6c-0.1,0.3-0.2,0.7-0.1,0.9c0.1,0.3,0.3,0.5,0.6,0.7c0.3,0.1,0.6,0.1,0.9,0.1c2-0.5,3.9-0.9,5.8-1.4
	c1.6-0.4,3.3-0.8,5-1.4c0.3-0.1,0.5-0.2,0.6-0.5c0.1-0.2,0.1-0.5,0.1-0.7c-0.1-0.3-0.3-0.5-0.5-0.6c-0.1-0.1-0.3-0.1-0.5-0.1
	C118.2,226.4,118.1,226.4,118,226.5"/>
<path d="M118.8,208.8c-1.4,0.9-2.8,1.8-4.2,2.7c-1.5,1-3,2-4.5,2.9c-1.2,0.8-2.4,1.6-3.5,2.4c-0.4,0.3-0.5,0.7-0.3,1.1
	c0.3,0.4,0.7,0.5,1.1,0.3c2-1.4,4.1-2.7,6.2-4.1c1.2-0.9,2.5-1.7,3.7-2.6c0.8-0.5,1.5-1,2.3-1.6c0.1-0.1,0.3-0.3,0.3-0.5
	c0.1-0.2,0-0.4-0.1-0.5c-0.1-0.2-0.3-0.3-0.6-0.3C119,208.6,118.9,208.6,118.8,208.8"/>
<path d="M114.9,196.7c-1.3,0.8-2.6,1.8-3.8,2.7c-1.5,1.1-2.9,2.3-4.4,3.5c-0.3,0.3-0.6,0.5-0.7,1c-0.1,0.4,0,0.9,0.2,1.2
	c0.2,0.3,0.6,0.6,1,0.7c0.4,0.1,0.9,0.1,1.2-0.2c1.4-1.2,2.9-2.3,4.3-3.5c1.3-1,2.6-2.1,3.9-3.2c0.5-0.5,0.5-1.2,0.1-1.7
	c-0.3-0.5-0.7-0.7-1.2-0.7C115.5,196.5,115.2,196.5,114.9,196.7"/>
<path d="M115.1,184.1c-0.8,0.5-1.6,1-2.5,1.5c-0.7,0.4-1.4,0.8-2.2,1.1c-1.8,0.8-3.5,1.6-5.2,2.4c-0.2,0.1-0.4,0.2-0.5,0.4
	c-0.1,0.2-0.1,0.5-0.1,0.7s0.2,0.4,0.4,0.5c0.2,0.1,0.5,0.1,0.7,0.1c1.1-0.5,2.3-1,3.4-1.6c0.8-0.3,1.6-0.7,2.3-1
	c0.5-0.3,0.9-0.5,1.4-0.7c0.3-0.1,0.6-0.3,0.9-0.5c0.7-0.5,1.5-0.9,2.2-1.4c0.2-0.1,0.3-0.3,0.3-0.5s0-0.4-0.1-0.6
	c-0.1-0.2-0.4-0.3-0.7-0.3C115.3,184,115.2,184,115.1,184.1"/>
<path d="M112.9,174.3c-2.9,0.5-5.5,1.8-8.1,3.1c-0.5,0.2-0.7,0.7-0.9,1.2c-0.1,0.5,0,1,0.3,1.4c0.3,0.4,0.7,0.7,1.2,0.9
	c0.2,0,0.3,0,0.5,0.1c0.3,0,0.7-0.1,0.9-0.3c0.3-0.1,0.7-0.3,1-0.5c1.1-0.5,2.2-1,3.4-1.4c1-0.4,1.9-0.7,2.9-0.9
	c0.9-0.3,1.8-0.5,2.7-0.7l0,0c0.5-0.1,0.8-0.2,1.1-0.5s0.5-0.7,0.5-1.2c0-0.4-0.2-0.9-0.5-1.1c-0.3-0.3-0.7-0.4-1.2-0.5
	c-0.1,0-0.1,0-0.1,0C115.3,173.8,114,174.1,112.9,174.3"/>
<path d="M105.1,160.9c-0.1,0.1-0.3,0.4-0.2,0.6c0,0.2,0.1,0.4,0.3,0.6c0.1,0.1,0.1,0.1,0.2,0.1c0.1,0.1,0.3,0.1,0.5,0.1
	c1.8,0.1,3.5,0.3,5.2,0.4c0.7,0.1,1.4,0.1,2.2,0.1c0.4,0,0.8,0.1,1.2,0.1c0.5,0,1,0.1,1.4,0c0.2-0.1,0.4-0.1,0.5-0.3
	c0.1-0.1,0.2-0.3,0.2-0.5c0-0.4-0.4-0.7-0.8-0.7c-0.5,0.1-0.9,0-1.4-0.1h0.1c-2.9-0.3-5.8-0.5-8.6-0.7c0,0,0,0-0.1,0
	C105.4,160.7,105.2,160.8,105.1,160.9 M114.4,161.4c-0.1,0-0.1,0-0.1,0H114.4z"/>
<path d="M99.4,145.6c0,0.5,0.3,1,0.6,1.3c0.4,0.4,0.9,0.5,1.4,0.5c1.8,0,3.7,0.1,5.6,0.1c1.6,0,3.3,0.1,5-0.3
	c0.3-0.1,0.5-0.3,0.7-0.5c0.3-0.3,0.5-0.8,0.5-1.2s-0.2-0.9-0.5-1.1c-0.3-0.3-0.7-0.4-1.2-0.5c-0.1,0-0.2,0-0.3,0
	c-1.4-0.1-2.8-0.3-4.3-0.3c-1.8-0.1-3.7-0.1-5.6-0.1l0,0C100.2,143.6,99.4,144.6,99.4,145.6"/>
<path d="M100.6,129.3c-0.9,0-1.5,0.8-1.4,1.6c0.1,0.9,0.8,1.4,1.6,1.4c4.5-0.1,8.8,0,13.3,0.1c0.5,0,1-0.5,1.2-1
	c0.1-0.7-0.3-1.4-1-1.5c-2.1-0.4-4.3-0.5-6.4-0.7c-0.9-0.1-1.8-0.1-2.7-0.1c-0.7,0-1.3,0-1.9,0C102.3,129.3,101.4,129.3,100.6,129.3
	"/>
<path d="M99.7,120.1c0,0.4,0.2,0.7,0.5,1s0.7,0.4,1,0.4c3.1,0.1,6.2,0.1,9.3,0.3c0.2,0,0.5-0.1,0.7-0.2c0.3-0.2,0.5-0.5,0.6-0.8
	c0.1-0.7-0.3-1.4-1-1.5c-3.2-0.5-6.4-0.5-9.6-0.6l0,0C100.2,118.6,99.6,119.4,99.7,120.1"/>
<path d="M98,103.8c-0.2,0.1-0.3,0.3-0.3,0.5c-0.1,0.4,0.2,0.9,0.6,0.9c3.7,0.6,7.3,1.2,10.9,1.8c0.5,0.1,0.9,0.1,1.3,0.2
	c0.4,0.1,0.8-0.1,0.9-0.5c0.1-0.4-0.1-0.8-0.5-0.9c-1.6-0.3-3.3-0.6-5-0.9c-1.8-0.3-3.6-0.6-5.4-0.9c-0.7-0.1-1.3-0.2-1.9-0.3
	c-0.1,0-0.1,0-0.2,0C98.3,103.7,98.1,103.7,98,103.8"/>
<path d="M98.8,93.1c-0.2,0.3-0.3,0.5-0.3,0.9s0.1,0.6,0.4,0.8c0.3,0.3,0.5,0.3,0.9,0.3c2.9,0.1,5.9,0.3,8.8,0.5
	c0.4,0.1,0.9,0.1,1.2,0.2c0.6,0.1,1.1-0.2,1.2-0.8c0.1-0.6-0.3-1.1-0.8-1.2c-1.5-0.5-3.1-0.5-4.6-0.7c-0.9-0.1-1.7-0.1-2.5-0.1
	c-1.2-0.1-2.3-0.1-3.5-0.2l0,0C99.3,92.7,99,92.9,98.8,93.1"/>
<path d="M99.3,80.3c-0.3,0.2-0.5,0.5-0.5,0.8c-0.1,0.3,0,0.7,0.1,0.9c0.2,0.3,0.5,0.5,0.8,0.5c1.8,0.6,3.7,1.2,5.5,1.8
	c0.7,0.3,1.3,0.5,2,0.8c0.4,0.1,0.9,0.3,1.2,0.5c0.6,0.3,1.2,0.5,1.7,0.9c0.4,0.3,1,0.1,1.4-0.3c0.2-0.2,0.3-0.5,0.3-0.9
	c0-0.3-0.1-0.6-0.4-0.8c-0.3-0.3-0.7-0.5-1.1-0.7l-0.7-0.3c-0.4-0.2-0.8-0.3-1.1-0.5c-0.8-0.3-1.6-0.6-2.4-0.9s-1.6-0.5-2.4-0.9
	c-1.2-0.4-2.4-0.9-3.7-1.2c-0.1,0-0.2-0.1-0.3-0.1C99.8,80.1,99.5,80.2,99.3,80.3"/>
<path d="M99.8,72c-0.2,0.4-0.1,0.9,0.3,1c0.5,0.3,1,0.5,1.6,0.8c0.6,0.3,1.2,0.5,1.8,0.7c0.6,0.2,1.1,0.3,1.7,0.4
	c0.7,0.1,1.4,0.1,2.1,0c0.5-0.1,0.8-0.4,0.8-0.9s-0.4-0.8-0.9-0.8c-0.6,0-1.2,0-1.8,0c-0.5-0.1-1-0.1-1.6-0.3
	c-0.6-0.1-1.1-0.3-1.6-0.5c-0.5-0.2-1-0.5-1.5-0.7c-0.1-0.1-0.3-0.1-0.3-0.1C100.3,71.6,100,71.7,99.8,72"/>
<path d="M98.6,57.1c-0.3,0.5-0.1,1.2,0.5,1.5c1.2,0.7,2.5,1.3,3.8,1.9c0.7,0.3,1.2,0.5,1.9,0.7c0.6,0.2,1.2,0.3,1.8,0.5
	c0.4,0.1,0.9-0.1,1-0.5c0.3-0.5,0.1-1.1-0.4-1.3c-0.6-0.3-1.2-0.5-1.8-0.7c-0.8-0.3-1.5-0.6-2.2-0.9c-1-0.5-2.1-1-3.1-1.6
	c-0.1-0.1-0.3-0.1-0.5-0.1C99.2,56.5,98.8,56.8,98.6,57.1"/>
<path d="M101,44.8c-0.3,0.7-0.1,1.6,0.6,1.9c0.5,0.3,1,0.5,1.5,0.7c0.5,0.2,1,0.4,1.4,0.5c1.3,0.5,2.6,1,3.7,1.7
	c0.5,0.3,1.2,0.1,1.6-0.3c0.5-0.5,0.5-1.4-0.1-1.9c-0.4-0.3-0.9-0.7-1.3-0.9c-0.4-0.3-0.9-0.5-1.2-0.6c-0.9-0.4-1.7-0.7-2.6-1
	c-0.3-0.1-0.5-0.2-0.7-0.3c-0.3-0.1-0.7-0.3-1-0.5c-0.2-0.1-0.5-0.1-0.7-0.1C101.7,44,101.2,44.3,101,44.8"/>
<path d="M103.9,33c-0.2,0.5-0.1,1,0.4,1.2c0.6,0.3,1.2,0.7,1.8,0.9c0.5,0.3,1,0.5,1.5,0.8c0.5,0.3,1,0.5,1.5,0.9
	c0.4,0.3,0.9,0.5,1.2,0.8c0.1,0.1,0.2,0.1,0.3,0.3c0.3,0.3,0.9,0.3,1.2-0.1c0.3-0.3,0.3-0.9-0.1-1.2c-0.9-0.8-2-1.4-3-2
	c-1.2-0.7-2.4-1.2-3.6-1.9c-0.1-0.1-0.3-0.1-0.4-0.1C104.4,32.6,104.1,32.7,103.9,33"/>
<path d="M107.2,22.1c-0.1,0.3-0.2,0.6-0.1,0.9c0.1,0.3,0.3,0.5,0.6,0.7c0.8,0.5,1.6,1,2.3,1.5c0.3,0.2,0.5,0.4,0.8,0.7
	c0.3,0.3,0.7,0.6,1,0.9c0.3,0.3,0.5,0.6,0.8,0.9c0.3,0.4,0.7,0.7,1,1.1c0.1,0.1,0.3,0.3,0.5,0.3c0.3,0.1,0.6,0,0.9-0.1
	c0.5-0.3,0.7-1.1,0.3-1.6c-0.5-0.7-1-1.2-1.5-1.8c-0.5-0.5-0.9-1-1.4-1.4c-0.5-0.5-1-0.9-1.6-1.2c-0.7-0.4-1.3-0.9-2-1.2
	c-0.1-0.1-0.3-0.1-0.5-0.1C107.8,21.5,107.4,21.7,107.2,22.1"/>
<path class="st1" d="M125.4,1c-0.3,0.2-0.5,0.5-0.8,0.7s-0.5,0.6-0.7,0.9c-0.3,0.5-0.6,1.2-0.8,1.8c-0.3,1.2-0.7,2.5-0.9,3.7
	c-0.1,0.6-0.2,1.2-0.3,1.8c-0.1,0.7-0.1,1.3-0.1,1.9c0,0.9,0,1.6,0,2.5c-0.1-0.1-0.1-0.3-0.3-0.4c-0.3-0.5-0.6-0.9-0.9-1.4
	c-0.3-0.5-0.6-1-0.9-1.4c-0.7-1-1.4-2-2.3-2.8c-0.5-0.5-1-0.9-1.6-1.2c-0.5-0.3-0.9-0.7-1.4-0.9c-0.8-0.3-1.7-0.6-2.6-0.4
	c-0.8,0.2-1.3,0.9-1.4,1.7c-0.1,0.3-0.1,0.7-0.1,1c0,0.4,0.1,0.7,0.1,1.1c0.1,0.5,0.3,1,0.5,1.4c0.3,0.5,0.5,1,0.8,1.5
	c0.3,0.5,0.5,1,0.7,1.4c0.1,0.3,0.3,0.5,0.5,0.8c0.1,0.2,0.2,0.3,0.3,0.5c0.2,0.3,0.5,0.7,0.7,0.9c0.2,0.3,0.5,0.5,0.7,0.7
	s0.4,0.4,0.6,0.5c0.5,0.3,0.9,0.7,1.4,1c0.4,0.3,0.8,0.6,1.1,0.9c0.5,0.4,1,0.8,1.6,1.2c0.5,0.3,1,0.1,1.3-0.4s0.1-1-0.4-1.3
	c-0.2-0.1-0.4-0.3-0.7-0.4c-0.3-0.3-0.7-0.5-1-0.8c-0.3-0.3-0.7-0.6-1-0.9c-0.4-0.3-0.7-0.5-1-0.9c-0.3-0.3-0.7-0.7-0.9-1
	c-0.4-0.5-0.7-1.1-1-1.7c-0.3-0.4-0.5-0.9-0.7-1.3c-0.4-0.7-0.8-1.4-1.1-2.2c-0.1-0.3-0.2-0.5-0.3-0.7c-0.1-0.4-0.1-0.8-0.1-1.2
	c0-0.1,0-0.1,0-0.1c0.1,0,0.1,0,0.3,0c0.2,0,0.4,0.1,0.7,0.1c0.5,0.2,1,0.5,1.4,0.8c0.3,0.2,0.6,0.5,0.9,0.7
	c0.3,0.3,0.6,0.6,0.9,0.9c0.8,1,1.5,2,2.2,3c0.3,0.5,0.7,1,1,1.6c0.3,0.6,0.7,1.1,0.9,1.7l0,0c0.1,0.1,0.1,0.1,0.1,0.3
	c0.2,0.4,0.4,0.9,0.6,1.2c0.3,0.5,0.5,1.1,1.1,1.2c0.3,0.1,0.6,0,0.8-0.1c0.3-0.1,0.5-0.5,0.5-0.7c0.1-0.3,0.1-0.7,0.1-1
	c0-0.5,0-1,0-1.5c0-1.9,0.1-3.8,0.1-5.6c0.1-1,0.3-1.9,0.5-2.8c0.2-1,0.5-2,0.7-2.9c0.1-0.4,0.3-0.7,0.5-1c0.2-0.3,0.5-0.5,0.7-0.7
	c0.3-0.2,0.5-0.4,0.8-0.5c0.1-0.1,0.3-0.1,0.4-0.1c0.1,0,0.2,0,0.3,0h0.1h0.1c0,0,0,0,0.1,0.1c0.1,0.1,0.1,0.1,0.1,0.1
	c0.1,0.3,0.3,0.7,0.3,1c0.3,2.1,0.3,4.1,0.2,6.2c-0.1,1.5-0.5,2.9-0.8,4.4c-0.1,0.7-0.3,1.5-0.4,2.2c-0.1,0.3-0.1,0.7-0.1,1
	c-0.1,0.7-0.2,1.5,0.4,2c0.5,0.4,1,0.4,1.5,0.1c0.3-0.2,0.6-0.5,0.9-0.9c0.2-0.3,0.4-0.5,0.6-0.9c0.2-0.3,0.4-0.7,0.6-1
	c0.3-0.6,0.7-1.2,1-1.8c0.1-0.3,0.3-0.6,0.5-0.9c0.1-0.3,0.3-0.6,0.4-0.9c0.2-0.3,0.3-0.6,0.5-0.9c0.2-0.3,0.3-0.5,0.5-0.8
	c0.4-0.5,0.8-1,1.2-1.4c0.5-0.5,0.9-0.9,1.4-1.4c0.4-0.3,0.8-0.7,1.2-0.9c0.4-0.1,0.8-0.3,1.2-0.4c0.1,0,0.3,0,0.5,0
	c0.1,0,0.1,0,0.2,0.1c0.1,0.1,0.1,0.3,0.1,0.5c0.1,0.5,0.1,0.9,0,1.4c-0.1,0.5-0.2,1.1-0.4,1.6c-0.6,1.4-1.5,2.7-2.4,3.9
	c-0.9,1.2-1.6,2.4-2.4,3.7c-0.2,0.3-0.4,0.6-0.7,0.9l-0.1,0.1c-0.2,0.2-0.5,0.4-0.6,0.6c-0.3,0.3-0.4,0.7-0.3,1.1
	c0.1,0.3,0.3,0.5,0.5,0.7c0.3,0.1,0.6,0.2,0.9,0.1c0.1-0.1,0.3-0.1,0.5-0.3c0.1-0.1,0.3-0.3,0.5-0.4c0.2-0.2,0.4-0.3,0.7-0.5
	c0.5-0.4,0.9-0.8,1.3-1.1c0.8-0.7,1.6-1.4,2.4-2.2c0.5-0.4,1-0.7,1.5-1c0.2-0.1,0.5-0.1,0.7-0.2c0.3-0.1,0.7-0.1,1,0
	c0.3,0.1,0.5,0.1,0.8,0.2c0.1,0.1,0.3,0.1,0.4,0.2c0,0.1,0.1,0.1,0.1,0.1c0,0,0,0,0,0.1c0,0,0,0,0,0.1c0,0.1-0.1,0.3-0.1,0.5
	c-0.2,0.5-0.5,0.9-0.8,1.4c-0.1,0.2-0.3,0.4-0.4,0.5c-0.5,0.6-0.9,1.1-1.4,1.6c-0.5,0.5-1,0.9-1.5,1.4c-0.9,0.8-1.8,1.6-2.7,2.3
	c0.1,0,0.1-0.1,0.1-0.1c-0.1,0.1-0.1,0.1-0.1,0.1c-0.1,0.1-0.1,0.1-0.1,0.1c0.1,0,0.1-0.1,0.1-0.1c-0.5,0.4-1,0.9-1.6,1.2
	c-0.5,0.3-1.1,0.6-1.6,0.9l0,0c-0.3,0.1-0.5,0.3-0.6,0.5c-0.1,0.3-0.2,0.7-0.1,1c0.1,0.3,0.3,0.6,0.6,0.7c0.3,0.2,0.6,0.1,1,0.1
	c0.7-0.1,1.2-0.4,1.8-0.7c0.5-0.3,1-0.7,1.4-1c1-0.8,2-1.6,2.9-2.4c1.4-1.2,2.9-2.4,4.1-3.9c0.5-0.6,0.9-1.2,1.3-1.8
	c0.1-0.2,0.3-0.5,0.3-0.7c0.1-0.3,0.2-0.5,0.3-0.8c0.1-0.3,0.1-0.7,0.1-1.1c-0.1-0.8-0.5-1.5-1-2.1c-0.4-0.4-1-0.6-1.5-0.8
	c-0.6-0.2-1.3-0.3-1.9-0.3c-0.4,0-0.8,0.1-1.2,0.1c-0.3,0.1-0.7,0.2-0.9,0.3c-0.4,0.1-0.7,0.3-1,0.6c0.4-0.6,0.8-1.2,1.1-1.8
	c0.6-1.1,0.9-2.3,1-3.5c0-0.3,0.1-0.7,0.1-1c0-0.4-0.1-0.9-0.2-1.2c-0.5-0.7-0.7-1-1.1-1.2c-0.6-0.3-1.2-0.5-1.9-0.5
	c-0.5,0-0.9,0.1-1.3,0.2c-0.9,0.2-1.7,0.7-2.4,1.2c-0.6,0.4-1,0.9-1.5,1.4c-0.5,0.5-0.9,1-1.2,1.5c-0.2,0.3-0.4,0.5-0.6,0.9
	c-0.2,0.3-0.4,0.5-0.5,0.8c-0.1,0.3-0.3,0.5-0.5,0.8c-0.1,0.3-0.3,0.5-0.4,0.9c-0.1,0.1-0.1,0.1-0.1,0.3c0.1-0.9,0.3-1.8,0.5-2.7
	c0.1-0.7,0.1-1.4,0.1-2.1c0-0.6,0-1.2,0-1.8c-0.1-1.3-0.1-2.6-0.4-3.9c-0.1-0.5-0.3-0.9-0.5-1.3c-0.1-0.3-0.3-0.6-0.6-0.8
	c-0.1-0.1-0.3-0.2-0.5-0.3c-0.3-0.1-0.5-0.2-0.9-0.2c-0.1,0-0.1,0-0.3,0C126.9,0,126.1,0.5,125.4,1 M128.2,2.2
	C128.3,2.2,128.3,2.2,128.2,2.2L128.2,2.2z M139.7,7.2L139.7,7.2C139.8,7.3,139.8,7.3,139.7,7.2 M139.7,7.4
	C139.8,7.4,139.8,7.4,139.7,7.4C139.8,7.4,139.8,7.4,139.7,7.4 M139.9,7.5L139.9,7.5L139.9,7.5 M120.7,16.2
	C120.7,16.2,120.7,16.3,120.7,16.2C120.7,16.3,120.7,16.3,120.7,16.2 M134.3,26.4C134.3,26.4,134.3,26.4,134.3,26.4
	C134.3,26.4,134.3,26.4,134.3,26.4 M137.2,24.4L137.2,24.4C137.3,24.3,137.3,24.3,137.2,24.4C137.3,24.3,137.2,24.4,137.2,24.4"/>
<path class="st1" d="M112.4,15.2c-0.2,0.1-0.4,0.2-0.6,0.3c-0.3,0.1-0.5,0.4-0.7,0.6c-0.3,0.3-0.5,0.5-0.6,0.8
	c-0.3,0.5-0.3,1.2-0.3,1.8c0,0.3,0.2,0.7,0.3,1c0.2,0.4,0.5,0.8,0.9,1.1c0.4,0.5,0.8,0.9,1.2,1.3c0.9,0.9,1.7,1.6,2.7,2.3
	c0.2,0.1,0.5,0.2,0.7,0.1c0.4,0,0.7-0.2,1-0.5c0.5-0.5,0.5-1.5-0.1-2c-0.6-0.5-1.2-1.1-1.8-1.6c-0.7-0.6-1.2-1.2-1.8-1.8
	c-0.1-0.1-0.1-0.2-0.2-0.3c0-0.1,0-0.1,0-0.1c0.1-0.1,0.1-0.1,0.2-0.2l0,0c0.1,0,0.3,0.1,0.4,0.1c0.2,0.1,0.5,0.2,0.7,0.4
	c0.3,0.3,0.6,0.6,0.9,0.9c0.5,0.4,0.9,0.8,1.3,1.1c0.5,0.5,1.4,0.5,1.9-0.1c0.5-0.5,0.5-1.4-0.1-1.9c-0.4-0.3-0.9-0.7-1.2-1
	c-0.3-0.3-0.6-0.7-1-0.9c-0.2-0.2-0.5-0.4-0.7-0.5c-0.5-0.3-1-0.5-1.5-0.7c-0.3-0.1-0.7-0.1-1-0.1C112.7,15.2,112.5,15.2,112.4,15.2
	 M113.2,18.1C113.2,18.1,113.2,18.1,113.2,18.1C113.2,18.1,113.2,18.1,113.2,18.1 M113.1,18.2L113.1,18.2
	C113.1,18.3,113.1,18.3,113.1,18.2 M113,18.4L113,18.4C113,18.5,113,18.5,113,18.4 M113.1,18.5C113.1,18.5,113.1,18.6,113.1,18.5
	C113.1,18.5,113.1,18.5,113.1,18.5"/>
<path class="st1" d="M113.2,18.3c-0.5,0.5-0.5,1.3,0.1,1.8c0.5,0.5,0.9,0.9,1.4,1.3c0.2,0.2,0.4,0.3,0.5,0.5
	c0.2,0.2,0.5,0.4,0.7,0.6l0,0c0.2,0.3,0.7,0.5,1,0.5c0.2,0,0.4-0.1,0.5-0.2c0.3-0.2,0.4-0.4,0.5-0.7c0.1-0.2,0.1-0.3,0.1-0.5
	c0-0.3-0.1-0.5-0.3-0.7c-0.1-0.3-0.3-0.5-0.5-0.7s-0.4-0.4-0.7-0.6c-0.5-0.5-1-1-1.5-1.4c-0.3-0.2-0.5-0.3-0.9-0.3
	C113.8,17.9,113.4,18,113.2,18.3"/>
<path class="st1" d="M112.5,18.5c-0.3,0.3-0.3,0.9,0.1,1.2c0.6,0.6,1.2,1.2,1.9,1.8c0.2,0.2,0.4,0.4,0.6,0.5
	c0.2,0.2,0.5,0.4,0.7,0.6c1,0.8,2,1.6,3.1,2.3c0.3,0.2,0.7,0.1,0.9-0.1c0.1-0.1,0.2-0.3,0.2-0.5c0-0.2-0.1-0.4-0.3-0.5
	c-1-0.7-1.8-1.6-2.7-2.4c-1-0.9-2.1-1.9-3.1-2.9c-0.1-0.1-0.4-0.3-0.6-0.3C112.9,18.2,112.7,18.3,112.5,18.5"/>
<path class="st1" d="M111.6,7.9c-0.5,0.3-0.8,0.7-0.9,1.2c-0.1,0.5-0.1,1.1,0.3,1.5c1.4,1.7,2.9,3.5,4.2,5.3
	c0.6,0.9,1.2,1.6,1.8,2.4c0.4,0.5,0.8,0.9,1.2,1.4c0.1,0.1,0.3,0.3,0.5,0.4c0.5,0.5,1.1,0.7,1.8,0.7c0.5,0,0.9-0.2,1.2-0.5
	c0.4-0.4,0.6-1.1,0.4-1.7c-0.1-0.3-0.2-0.5-0.3-0.7c-0.1-0.1-0.2-0.3-0.3-0.3c-0.1-0.2-0.3-0.4-0.5-0.5c-0.5-0.6-0.9-1.1-1.4-1.7
	c-0.5-0.7-1-1.4-1.5-2.1c-1.2-1.6-2.4-3.1-3.7-4.6c-0.1-0.1-0.2-0.3-0.3-0.4c-0.3-0.3-0.6-0.4-0.9-0.5c-0.1,0-0.3-0.1-0.5-0.1
	C112.3,7.5,111.9,7.6,111.6,7.9"/>
<path class="st1" d="M114,9.3c-0.6,0.7-0.5,1.6,0.1,2.2c1.7,1.8,3.4,3.5,5,5.4c0.3,0.3,0.5,0.7,0.8,1.1c0.1,0.2,0.3,0.5,0.4,0.7
	c0.3,0.4,0.5,0.7,0.9,1c0.4,0.5,1.2,0.5,1.6,0.1c0.5-0.3,0.8-1,0.6-1.6c-0.1-0.3-0.1-0.6-0.3-0.9c-0.1-0.3-0.2-0.5-0.3-0.8
	c-0.2-0.4-0.5-0.8-0.7-1.1c-0.6-0.8-1.2-1.4-1.9-2.1c-1.4-1.4-2.7-2.8-4.1-4.2c-0.3-0.3-0.7-0.4-1-0.4C114.7,8.8,114.2,9,114,9.3"/>
<path class="st1" d="M112.8,8.1c-0.5,0.5-0.5,1.4,0.1,1.9c0.3,0.3,0.6,0.5,0.9,0.8c0.1,0.1,0.3,0.3,0.4,0.3c0.3,0.3,0.7,0.5,1,0.7
	c0.6,0.5,1.1,1,1.6,1.5c0.7,0.9,1.2,1.7,1.8,2.6c0.5,0.7,1,1.4,1.6,2.2c0.3,0.4,0.7,0.6,1.2,0.4c0.3-0.1,0.5-0.3,0.6-0.5
	c0.1-0.2,0.2-0.5,0.1-0.8c-0.3-0.6-0.5-1.2-0.8-1.8c-0.3-0.5-0.5-1-0.8-1.4c-0.3-0.6-0.7-1.2-1.1-1.8c-0.5-0.7-1-1.3-1.6-1.8
	c-0.6-0.5-1.2-1-1.8-1.4c-0.5-0.3-0.9-0.7-1.2-1.1c-0.3-0.3-0.6-0.3-0.9-0.3C113.4,7.7,113.1,7.9,112.8,8.1"/>
<path class="st1" d="M126.6,2.2c-0.1,0.1-0.3,0.2-0.3,0.3c-0.2,0.3-0.3,0.5-0.5,0.8l-0.7,2c-0.3,0.8-0.6,1.6-0.7,2.4
	c-0.2,1.1-0.5,2.2-0.6,3.3c-0.1,0.6-0.2,1.2-0.2,1.8c-0.1,0.7-0.1,1.5-0.2,2.2c-0.1,0.6-0.1,1.1-0.1,1.7c0,0.3,0,0.5,0,0.8
	c0,0.3,0,0.7,0.1,1c0.1,0.2,0.2,0.4,0.3,0.6c0.2,0.3,0.5,0.5,0.7,0.7c0.4,0.2,0.9,0.3,1.3,0.1c0.3-0.1,0.5-0.3,0.7-0.5
	c0.2-0.2,0.3-0.5,0.4-0.8c0.1-0.4,0.1-0.9,0.1-1.4c0-0.2,0-0.5,0-0.7c0-0.3,0.1-0.7,0.1-1c0.1-0.8,0.1-1.6,0.1-2.4
	c0.1-0.6,0.1-1.2,0.2-1.8c0.1-0.8,0.3-1.6,0.4-2.4c0.1-0.3,0.1-0.6,0.1-0.9c0.1-0.6,0.3-1.2,0.5-1.8c0.3-0.8,0.6-1.6,0.9-2.4
	c0.1-0.4,0-1-0.3-1.3c-0.3-0.4-0.7-0.7-1.1-0.8c-0.1,0-0.3-0.1-0.4-0.1C127.3,2,126.9,2,126.6,2.2"/>
<path class="st1" d="M127.3,3.9c-0.7,0.1-1.3,0.7-1.2,1.4c0.1,0.5,0.1,1.1,0.1,1.6c0,0.5,0.1,0.9,0.1,1.4l0.1,1.6c0,0.2,0,0.4,0,0.5
	c0,0.9-0.1,1.8-0.1,2.7c0,0.3-0.1,0.6-0.1,0.9l0,0c0,0.1,0,0.2,0,0.3c0,0.2-0.1,0.4-0.1,0.7c-0.1,0.7-0.1,1.4-0.3,2
	c-0.1,0.7-0.2,1.4-0.4,2.2c-0.1,0.2-0.2,0.5-0.2,0.7c0,0.2,0.1,0.3,0.1,0.5c0.1,0.3,0.4,0.3,0.7,0.5c0.6,0.2,1.2-0.2,1.5-0.7
	c0.2-0.3,0.3-0.7,0.5-1.1c0.1-0.4,0.2-0.8,0.3-1.1c0.1-0.9,0.3-1.9,0.4-2.8l0,0V15c0,0,0,0,0-0.1V15l0,0c0-0.2,0.1-0.4,0.1-0.7
	c0-0.2,0-0.4,0.1-0.5l0,0c0-0.1,0-0.3,0.1-0.5c0,0.1,0,0.1,0,0.1c0.1-0.7,0.1-1.2,0.1-1.9c0-0.5,0.1-1.1,0-1.6
	c-0.1-0.8-0.1-1.5-0.1-2.3c-0.1-0.9-0.1-1.8-0.2-2.6C128.5,4.4,128,3.8,127.3,3.9C127.3,3.9,127.3,3.9,127.3,3.9 M128.8,13.6
	c0,0.1,0,0.2,0,0.3v0.1C128.8,13.9,128.8,13.7,128.8,13.6 M128.6,15.2c0-0.1,0-0.1,0-0.2l0,0l0,0l0,0
	C128.6,15.1,128.6,15.1,128.6,15.2 M128.8,13.4c0-0.1,0-0.1,0-0.2C128.8,13.3,128.8,13.4,128.8,13.4"/>
<path class="st1" d="M126.7,3.1c-0.3,0-0.7,0.2-0.9,0.4c-0.2,0.3-0.4,0.7-0.3,0.9c0.3,1.9,0.5,3.8,0.5,5.7c0,1.2,0,2.5,0,3.7
	c0,1.4-0.1,2.8,0,4.2c0,0.5,0.4,0.9,0.9,1c0.3,0.1,0.6,0,0.9-0.1c0.2-0.1,0.5-0.4,0.5-0.7c0.1-1.4,0.3-2.9,0.3-4.4
	c0.1-1.2,0.1-2.4,0.1-3.6c0-2-0.2-4-0.5-6c0-0.1-0.1-0.2-0.1-0.3c-0.1-0.2-0.2-0.4-0.3-0.5C127.4,3.3,127.1,3.1,126.7,3.1
	C126.8,3.1,126.7,3.1,126.7,3.1"/>
<path class="st1" d="M128.2,2.3c-0.4,0-0.8,0.2-1,0.5c-0.3,0.3-0.5,0.7-0.4,1.1c0.2,1.2,0.3,2.5,0.5,3.7c0.1,0.5,0.1,0.9,0.1,1.3
	c0.1,1,0.1,2.1,0,3.1c-0.1,1-0.3,2.1-0.5,3.1c-0.1,0.5-0.1,0.9-0.2,1.4c-0.1,0.5-0.1,1-0.3,1.4c-0.1,0.2-0.1,0.4-0.1,0.6
	c0,0.3,0.1,0.7,0.4,0.9c0.3,0.3,0.6,0.3,0.9,0.3c0.3,0,0.7-0.1,0.9-0.4c0.1-0.2,0.3-0.3,0.4-0.6c0.1-0.3,0.3-0.6,0.3-0.9
	c0.1-0.2,0.1-0.4,0.1-0.5c0.1-0.4,0.2-0.9,0.3-1.2c0.2-1,0.4-2,0.5-3.1c0.3-1.8,0.2-3.5,0-5.4c-0.1-1.3-0.3-2.6-0.5-3.9
	c-0.1-0.4-0.2-0.7-0.5-1c-0.3-0.3-0.7-0.4-1-0.4C128.2,2.3,128.2,2.3,128.2,2.3 M126.6,17.6L126.6,17.6L126.6,17.6"/>
<path class="st1" d="M125.7,3.3c-0.5,1-1,2.2-1.3,3.3c-0.2,0.8-0.3,1.6-0.3,2.4c-0.1,1-0.2,2-0.3,3c-0.1,0.9-0.1,1.6-0.2,2.5
	c0,0.4,0,0.8,0,1.2c0,0.5,0.1,1,0.1,1.4c0.1,0.2,0.2,0.4,0.3,0.5c0.3,0.2,0.5,0.3,0.9,0.3c0.3,0,0.6-0.1,0.8-0.4s0.3-0.5,0.3-0.9
	c0-0.1,0-0.2,0-0.3c0.1-1.8,0.3-3.7,0.4-5.6c0.1-1.5,0.3-3.1,0.7-4.6c0.2-0.6,0.5-1.1,0.8-1.7c0.3-0.7,0.1-1.4-0.5-1.8
	c-0.2-0.1-0.4-0.1-0.6-0.1C126.4,2.6,125.9,2.9,125.7,3.3"/>
<path class="st1" d="M126.2,3.5c-0.4,1.6-0.7,3.1-1,4.6c-0.1,0.4-0.2,0.8-0.3,1.2c-0.1,0.3-0.1,0.6-0.1,0.9
	c-0.1,0.7-0.2,1.4-0.3,2.1c0,0.2,0,0.3,0.1,0.5c0.1,0.1,0.3,0.3,0.4,0.3c0.2,0.1,0.3,0,0.5-0.1c0.1-0.1,0.3-0.3,0.3-0.4
	c0.1-0.7,0.2-1.4,0.3-2c0.1-0.3,0.1-0.6,0.1-0.9c0.1-0.4,0.2-0.8,0.3-1.2c0.3-1.6,0.7-3.1,1-4.6c0.1-0.4-0.1-0.7-0.5-0.9
	c-0.1,0-0.1,0-0.1,0C126.5,2.9,126.3,3.1,126.2,3.5"/>
<path class="st1" d="M135.4,9.2c-0.8,0.9-1.6,1.8-2.3,2.8c-0.6,0.7-1.1,1.4-1.6,2.1c-0.5,0.8-1,1.5-1.5,2.3c-0.2,0.3-0.4,0.7-0.6,1
	c-0.1,0.2-0.3,0.4-0.3,0.7c-0.1,0.3-0.3,0.5-0.3,0.8c-0.1,0.4-0.1,0.7-0.2,1.1c0,0.3,0.1,0.5,0.2,0.7c0.2,0.3,0.5,0.5,0.9,0.7
	c0.4,0.1,0.8,0,1.1-0.2s0.5-0.5,0.7-0.9c0.3-0.6,0.7-1.1,1-1.6c0.3-0.4,0.5-0.7,0.7-1.1c0.4-0.6,0.9-1.2,1.2-1.8
	c1.1-1.4,2.3-2.8,3.5-4.2c0.6-0.7,0.6-1.7-0.1-2.4c-0.3-0.3-0.7-0.5-1.2-0.5C136.2,8.6,135.7,8.8,135.4,9.2"/>
<path class="st1" d="M138.8,7.4c-0.4,0-0.9,0.2-1.2,0.5c-1,1.4-2,2.7-2.9,4.1c-0.6,0.8-1.1,1.6-1.6,2.4c-0.6,1-1.2,2-1.8,2.9
	c-0.6,1.1-1.2,2.2-1.6,3.4c-0.2,0.7,0.2,1.4,0.8,1.6c0.7,0.4,1.6,0.1,2-0.7c0.5-0.9,1-1.7,1.5-2.5c0.6-0.9,1.1-1.8,1.7-2.7
	c0.5-0.7,0.9-1.4,1.4-2.2c0.6-0.8,1.1-1.6,1.7-2.4c0.5-0.7,0.9-1.2,1.4-1.9c0.1-0.1,0.2-0.3,0.3-0.4c0.1-0.3,0.2-0.6,0.2-0.9
	c0-0.5-0.2-0.9-0.5-1.2c-0.3-0.3-0.7-0.5-1.2-0.5C138.9,7.4,138.9,7.4,138.8,7.4"/>
<path class="st1" d="M136.7,9.1c-0.3,0.1-0.4,0.3-0.5,0.5c-0.1,0.2-0.2,0.3-0.2,0.6c0,0.2,0.1,0.3,0.2,0.5c-0.1,0.3-0.3,0.7-0.5,1
	c-0.1,0.5-0.3,0.9-0.5,1.3c-0.3,0.7-0.5,1.3-0.7,2c-0.6,1.6-1.2,3.2-2.1,4.6c-0.3,0.5-0.1,1.1,0.3,1.5c0.3,0.2,0.6,0.3,0.9,0.3
	c0.3,0,0.7-0.1,0.9-0.4c0.3-0.4,0.5-0.7,0.7-1.2c0.1-0.3,0.3-0.5,0.3-0.9c0.1-0.4,0.3-0.9,0.5-1.2c0.3-0.8,0.5-1.6,0.7-2.4
	c0.3-0.9,0.5-1.8,0.8-2.7c0.2-0.7,0.5-1.4,0.7-2.2c0.1-0.3,0.1-0.5,0.1-0.9c-0.1-0.3-0.3-0.5-0.5-0.7c-0.1-0.1-0.3-0.1-0.5-0.1
	C137.1,9,136.9,9,136.7,9.1"/>
<path class="st1" d="M138.4,9.6c-1.2,2.3-2.5,4.6-3.7,6.9c-0.5,0.9-1,1.8-1.4,2.8c-0.5,1-1.1,2.1-1.6,3.2c-0.2,0.4-0.3,0.8-0.1,1.2
	c0.1,0.4,0.4,0.7,0.7,0.9c0.4,0.2,0.8,0.3,1.2,0.1s0.7-0.4,0.9-0.7c0.7-1,1.2-2,1.8-3c0.5-0.9,1-1.8,1.4-2.7c1.2-2.4,2.4-4.6,3.7-7
	c0.5-0.8,0.1-1.8-0.7-2.3c-0.3-0.1-0.5-0.2-0.8-0.2C139.4,8.6,138.8,9,138.4,9.6"/>
<path class="st1" d="M138,7.7c-1.2,0.7-2.4,1.7-3.3,2.7c-1,1.1-1.9,2.3-2.7,3.5c-0.7,1-1.5,2.1-1.9,3.3c-0.2,0.6,0.2,1.3,0.7,1.6
	c0.7,0.4,1.6,0.1,2-0.6c0.1-0.2,0.2-0.3,0.3-0.5c0.5-0.6,0.9-1.2,1.4-1.8c1.2-1.5,2.3-3.1,3.8-4.4c0.5-0.4,1-0.8,1.6-1.1
	c0.8-0.5,1-1.5,0.5-2.3c-0.3-0.5-0.9-0.7-1.4-0.7C138.6,7.4,138.3,7.5,138,7.7"/>
<path class="st1" d="M143.3,15.4c-0.3,0-0.7,0.1-1,0.3c-0.2,0.1-0.4,0.2-0.5,0.3c-0.4,0.1-0.8,0.2-1.2,0.4c-0.5,0.3-1,0.5-1.4,0.9
	c-0.7,0.5-1.3,1.1-2,1.7c-0.2,0.2-0.4,0.4-0.6,0.5c-0.4,0.4-0.7,0.8-1,1.2s-0.5,1-0.6,1.5c-0.1,0.3-0.1,0.5,0,0.8
	c0,0.1,0.1,0.3,0.1,0.4c-0.1,0.3-0.1,0.5,0,0.9c0.1,0.4,0.4,0.7,0.7,0.9c0.6,0.3,1.2,0.2,1.6-0.2c0.1,0,0.2,0,0.3,0
	c0.3-0.1,0.6-0.1,0.9-0.2c0.3-0.1,0.7-0.3,0.9-0.4c0.3-0.1,0.5-0.3,0.8-0.4c0.3-0.2,0.7-0.4,0.9-0.6c0.6-0.4,1.2-0.9,1.7-1.4
	c0.3-0.4,0.7-0.9,1-1.3c0.2-0.3,0.3-0.6,0.5-0.9c0.1-0.3,0.3-0.7,0.5-1c0.2-0.5,0.3-0.9,0.3-1.3c0-0.3-0.1-0.7-0.3-0.9
	c-0.1-0.2-0.5-0.5-0.7-0.7c-0.3-0.1-0.6-0.3-0.9-0.3C143.4,15.4,143.4,15.4,143.3,15.4"/>
<path class="st1" d="M137.3,7.1c-0.2,1.2-0.4,2.4-0.7,3.6c-0.1,0.6,0.3,1.2,0.8,1.2c0.6,0.1,1.1-0.3,1.2-0.8
	c0.3-1.2,0.5-2.4,0.7-3.6c0.1-0.6-0.3-1.2-0.8-1.3c-0.1,0-0.1,0-0.2,0C137.9,6.3,137.4,6.7,137.3,7.1"/>
<path d="M143.7,29.9c-0.5,0.4-1.1,0.8-1.6,1.2c-0.5,0.4-0.9,0.9-1.3,1.3c-0.4,0.4-0.7,0.8-1,1.2c-0.7,0.8-1.4,1.6-2,2.5
	c-0.1,0.1-0.1,0.3-0.1,0.5c0,0.3,0.1,0.5,0.3,0.7c0.4,0.3,1,0.3,1.3-0.1c0.6-0.7,1.2-1.4,1.8-2.1c0.8-0.9,1.5-1.8,2.4-2.6
	c0.4-0.3,0.9-0.7,1.2-1c0.2-0.1,0.4-0.3,0.5-0.7c0.1-0.3,0-0.5-0.1-0.7c-0.2-0.3-0.5-0.5-0.9-0.5C144.1,29.7,143.9,29.8,143.7,29.9"
	/>
<path d="M145.4,37c-0.2,0.1-0.3,0.2-0.4,0.3c-0.1,0.1-0.1,0.1-0.1,0.1c0,0,0,0,0-0.1l-0.1,0.1c0,0,0,0,0,0.1l0,0
	c-0.3,0.5-0.7,0.9-1,1.3c-0.4,0.5-0.8,0.9-1.2,1.4c-0.4,0.4-0.8,0.8-1.2,1.2c-0.2,0.2-0.4,0.4-0.6,0.7c-0.3,0.3-0.5,0.5-0.7,0.9
	c-0.1,0.2-0.3,0.4-0.3,0.7c0,0.3,0.1,0.5,0.3,0.6c0.3,0.3,0.9,0.3,1.2-0.1c0.5-0.7,1.1-1.4,1.6-2c0.5-0.7,1-1.4,1.6-2.1
	c0,0.1-0.1,0.1-0.1,0.1c0-0.1,0.1-0.1,0.1-0.1l0,0l0,0c0.5-0.7,0.9-1.3,1.4-2c0.1-0.1,0.1-0.3,0.1-0.5c-0.1-0.1-0.1-0.3-0.3-0.4
	C145.8,37,145.6,37,145.4,37C145.6,37,145.5,37,145.4,37 M144.9,39.8C144.9,39.9,144.9,39.9,144.9,39.8L144.9,39.8L144.9,39.8z
	 M144.9,37.5L144.9,37.5C144.9,37.4,145,37.4,144.9,37.5L144.9,37.5"/>
<path d="M144.5,48.3c-0.9,1.7-2,3.4-3,5c-0.5,0.8-1,1.5-1.4,2.3c-0.5,0.8-1,1.6-1.4,2.4c-0.3,0.4-0.1,1,0.4,1.2
	c0.2,0.1,0.5,0.1,0.7,0.1c0.3-0.1,0.4-0.3,0.5-0.5c0.5-0.8,1-1.6,1.5-2.4c0.5-0.8,0.9-1.6,1.4-2.3c1-1.7,2-3.3,2.9-5.1
	c0.2-0.4,0.1-0.9-0.3-1.2c-0.1-0.1-0.3-0.1-0.4-0.1C145,47.8,144.7,48,144.5,48.3"/>
<path d="M145.5,60.7c-1.6,1.2-3.1,2.4-4.5,3.7c-0.3,0.3-0.3,0.9-0.1,1.2c0.1,0.2,0.3,0.4,0.6,0.4c0.3,0.1,0.5,0,0.7-0.1
	c0.8-0.4,1.4-1,2.1-1.5c0.8-0.6,1.6-1.2,2.4-1.8c0.3-0.2,0.4-0.4,0.5-0.7c0.1-0.3,0-0.6-0.1-0.8c-0.2-0.3-0.6-0.5-0.9-0.5
	C145.9,60.5,145.7,60.5,145.5,60.7"/>
<path d="M143.5,69.3c-0.3,0-0.5,0.1-0.6,0.3c-0.7,0.7-1.5,1.4-2.2,2.1c-0.7,0.7-1.4,1.2-2,2c-0.3,0.3-0.3,0.9,0.1,1.2
	c0.3,0.3,0.9,0.3,1.2-0.1c0.7-0.7,1.4-1.3,2-1.9c0.8-0.7,1.5-1.4,2.3-2c0.2-0.1,0.3-0.5,0.3-0.7c0-0.3-0.1-0.5-0.3-0.6
	C144.1,69.4,143.8,69.3,143.5,69.3L143.5,69.3"/>
<path d="M146,67.7c-0.3,0.3-0.3,0.7,0.1,0.9c1,0.9,2,1.8,3,2.6c0.1,0.1,0.3,0.2,0.5,0.2c0.1,0,0.3-0.1,0.4-0.2
	c0.2-0.3,0.3-0.7-0.1-0.9c-1-0.9-2-1.7-3-2.6c-0.1-0.1-0.3-0.2-0.5-0.2C146.2,67.5,146.1,67.5,146,67.7"/>
<path d="M148,53.1c-0.4,0-0.8,0.2-1.1,0.5c-0.3,0.3-0.5,0.7-0.4,1.2c0,0.5,0.2,0.8,0.5,1.1c1,1,2,2.2,3,3.2c0.9,0.9,1.8,2,2.8,2.7
	c0.3,0.3,0.7,0.4,1,0.4s0.7-0.2,1-0.5c0.3-0.3,0.4-0.7,0.4-1s-0.2-0.7-0.5-1c-0.9-1-1.7-2-2.6-2.9c-1-1.1-2-2.2-3-3.3
	c-0.3-0.3-0.7-0.4-1.1-0.4C148.1,53.1,148,53.1,148,53.1"/>
<path d="M150.5,45.6c-0.2,0-0.3,0.1-0.5,0.2c-0.1,0.1-0.2,0.3-0.2,0.5c0,0.1,0.1,0.4,0.2,0.5c0.7,0.5,1.3,1,1.9,1.5
	c0.3,0.2,0.5,0.4,0.7,0.6c0.2,0.1,0.3,0.3,0.5,0.5c0.3,0.2,0.5,0.5,0.7,0.7c0.2,0.2,0.4,0.4,0.6,0.6c0.3,0.3,0.7,0.7,1,1
	c0.1,0.1,0.1,0.2,0.2,0.3c0.1,0.1,0.2,0.2,0.3,0.3c0.1,0.1,0.3,0,0.4-0.1c0.3-0.2,0.3-0.5,0.2-0.8c-0.2-0.3-0.3-0.6-0.6-0.9
	c-0.2-0.3-0.4-0.5-0.6-0.7c-0.3-0.3-0.5-0.5-0.7-0.7c-0.2-0.2-0.4-0.4-0.6-0.6c-0.1-0.1-0.3-0.3-0.4-0.4c-0.1-0.1-0.1-0.1-0.2-0.2
	c-0.2-0.2-0.4-0.3-0.7-0.5c-0.3-0.3-0.6-0.5-0.9-0.7c-0.3-0.3-0.7-0.6-1-0.9C150.9,45.7,150.7,45.6,150.5,45.6L150.5,45.6"/>
<path d="M149.4,35.6c-0.4,0.4-0.4,1.1,0.1,1.5c1.2,1,2.3,2.1,3.3,3.3c0.5,0.6,1,1.2,1.6,1.8l-0.1-0.1c0.2,0.2,0.4,0.5,0.5,0.7
	c0.3,0.3,0.6,0.7,0.8,1c0.2,0.3,0.7,0.5,1,0.3c0.2-0.1,0.4-0.2,0.5-0.4c0.1-0.2,0.1-0.4,0.1-0.7c-0.1-0.3-0.3-0.7-0.4-1
	c-0.1-0.2-0.2-0.4-0.3-0.5c-0.3-0.4-0.5-0.8-0.9-1.1c-0.5-0.7-1.1-1.4-1.7-2.1c-0.9-1-2-2-2.9-2.9c-0.2-0.2-0.5-0.3-0.7-0.3
	C149.9,35.3,149.6,35.3,149.4,35.6"/>
<path d="M158.2,28.7c-0.3,0-0.5,0.3-0.5,0.5c0.1,2.7,0.3,5.3,0.4,8c0.1,0.7,0.1,1.3,0.1,2c0.1,0.8,0.1,1.6,0.2,2.4
	c0,0.3,0.2,0.5,0.5,0.5c0.3,0,0.5-0.3,0.5-0.5c-0.1-0.6-0.1-1.1-0.1-1.7c0-0.5-0.1-1-0.1-1.4c-0.1-1-0.1-2-0.1-3.1
	c-0.1-2-0.2-4.1-0.3-6C158.7,28.9,158.5,28.7,158.2,28.7L158.2,28.7"/>
<path d="M168.2,36c-0.9,1.8-1.8,3.5-2.6,5.2c-0.3,0.7-0.7,1.3-1,2c-0.2,0.4-0.3,0.7-0.5,1.1s-0.3,0.8-0.5,1.2
	c-0.1,0.2-0.1,0.3-0.1,0.5c0.1,0.2,0.2,0.3,0.3,0.4c0.3,0.2,0.7,0.1,0.9-0.3c0.4-0.7,0.8-1.4,1.1-2.2c0.3-0.7,0.7-1.3,1-2
	c0.9-1.8,1.8-3.5,2.6-5.3c0.2-0.4,0.1-0.9-0.3-1c-0.1-0.1-0.3-0.1-0.3-0.1C168.5,35.6,168.3,35.7,168.2,36"/>
<path d="M172.7,45.2c-0.9,0.4-1.8,0.9-2.7,1.4c-0.6,0.4-1.2,0.8-1.8,1.2c-0.5,0.3-0.9,0.7-1.3,1c-0.7,0.5-1.4,1.2-1.5,2.1
	c-0.1,0.4,0.1,0.8,0.5,0.9c0.4,0.1,0.8-0.2,0.9-0.5V51c0.1-0.1,0.1-0.3,0.2-0.3c0.3-0.3,0.5-0.7,0.8-0.9c0.3-0.3,0.7-0.6,1-0.9
	c0.3-0.3,0.6-0.5,0.9-0.7c0.3-0.2,0.5-0.3,0.7-0.5c0.5-0.3,1-0.7,1.5-0.9c0.3-0.1,0.7-0.3,1-0.5c0.3-0.1,0.5-0.4,0.3-0.7
	C173.1,45.4,172.9,45.2,172.7,45.2C172.7,45.1,172.7,45.1,172.7,45.2"/>
<path d="M174.8,55c-0.6,0.3-1.2,0.5-1.7,0.8c-0.7,0.3-1.2,0.8-1.8,1.3c-0.5,0.4-0.9,0.8-1.3,1.2c-0.8,0.7-1.5,1.4-2.2,2.2
	c-0.4,0.4-0.3,1,0.1,1.4c0.2,0.2,0.5,0.3,0.7,0.3c0.3,0,0.5-0.1,0.7-0.3c0.5-0.7,1-1.4,1.6-2c0.3-0.3,0.5-0.5,0.7-0.9
	c0.4-0.5,0.9-0.9,1.3-1.3s1-0.7,1.5-1c0.3-0.1,0.6-0.3,0.9-0.4c0.3-0.1,0.6-0.5,0.5-0.9c-0.1-0.3-0.4-0.5-0.7-0.5
	C174.9,54.9,174.8,55,174.8,55"/>
<path d="M175.9,64.8c-0.4,0.3-0.8,0.6-1.2,0.9c-0.4,0.3-0.8,0.5-1.2,0.7c-0.8,0.5-1.6,1-2.4,1.5c-0.8,0.6-1.6,1.2-2.3,1.8
	c-0.4,0.3-0.9,0.7-1.2,1c-0.2,0.1-0.3,0.3-0.5,0.5s-0.3,0.4-0.5,0.6c-0.1,0.1-0.1,0.2-0.2,0.3c-0.1,0.2-0.1,0.5-0.1,0.7
	c0,0.3,0.2,0.7,0.4,0.9c0.5,0.5,1.3,0.5,1.8-0.1c0.8-0.9,1.7-1.6,2.6-2.3c1-0.8,2-1.5,2.9-2.2c0.5-0.3,1-0.7,1.4-1
	c0.5-0.4,1.1-0.8,1.6-1.2c0.3-0.2,0.5-0.5,0.5-0.7c0.1-0.3,0-0.7-0.1-0.9c-0.2-0.3-0.7-0.6-1-0.6C176.3,64.6,176.1,64.7,175.9,64.8"
	/>
<path d="M175.3,78.7c-0.5,0.5-0.9,0.9-1.4,1.2c-0.7,0.5-1.4,1-2.2,1.5c-0.4,0.2-0.8,0.5-1.2,0.7c-0.4,0.2-0.9,0.5-1.2,0.7
	c-0.1,0.1-0.3,0.1-0.5,0.2c-0.4,0.1-0.7,0.6-0.5,1c0.1,0.4,0.6,0.7,1,0.5c0.3-0.1,0.7-0.3,1-0.4c0.1-0.1,0.3-0.1,0.4-0.2
	c0.3-0.1,0.5-0.3,0.8-0.5c0.3-0.2,0.6-0.3,0.9-0.5s0.6-0.4,0.9-0.6c0.5-0.4,1-0.8,1.6-1.2c0.5-0.5,1-1,1.5-1.4
	c0.3-0.3,0.2-0.7-0.1-1c-0.1-0.1-0.3-0.2-0.5-0.2C175.6,78.5,175.4,78.6,175.3,78.7"/>
<path d="M173.5,87.8c-0.5,0.3-0.9,0.7-1.3,1c-0.5,0.3-0.9,0.6-1.3,0.9c-0.8,0.5-1.6,1-2.6,1.4c-0.2,0.1-0.3,0.1-0.5,0.2
	c-0.7,0.3-1,0.9-0.9,1.6c0.2,0.7,1,1,1.6,0.9c1.2-0.5,2.4-1.2,3.4-2c0.5-0.3,0.9-0.7,1.4-1.1c0.4-0.3,0.7-0.7,1.1-0.9
	c0.1-0.1,0.1-0.1,0.2-0.1c0.2-0.2,0.4-0.4,0.5-0.7s0-0.6-0.1-0.8c-0.1-0.3-0.4-0.4-0.7-0.5c-0.1,0-0.1,0-0.3,0
	C173.9,87.7,173.7,87.7,173.5,87.8 M174.7,89.6c-0.1,0.1-0.1,0.1-0.1,0.1C174.6,89.7,174.6,89.7,174.7,89.6"/>
<path d="M166.4,96c-0.3,0-0.7,0.2-0.9,0.5c-0.3,0.3-0.4,0.7-0.4,1s0.2,0.7,0.5,0.9c1,0.7,2,1.4,2.9,2.2c0.4,0.3,0.7,0.5,1.1,0.7
	c0.2,0.1,0.4,0.2,0.6,0.3c0.2,0.1,0.4,0.2,0.6,0.3l0.1,0.1c0.4,0.3,1,0.4,1.4,0.1c0.5-0.3,0.7-1,0.3-1.6c-0.1-0.3-0.3-0.4-0.5-0.6
	c-0.1-0.1-0.3-0.2-0.4-0.3c-0.2-0.1-0.3-0.3-0.5-0.4c-0.4-0.3-0.8-0.5-1.2-0.9c-0.9-0.7-1.8-1.3-2.7-2C167,96.1,166.7,95.9,166.4,96
	C166.5,96,166.4,96,166.4,96"/>
<path d="M162.5,100.3c-0.7,0.5-0.9,1.3-0.5,2c1.4,2.4,2.9,4.8,4.5,7.1c0.4,0.6,1.2,0.9,1.9,0.4c0.6-0.4,0.8-1.2,0.4-1.8
	c-1.5-2.4-2.9-4.8-4.4-7.1c-0.3-0.5-0.7-0.7-1.2-0.7C162.9,100.1,162.7,100.2,162.5,100.3"/>
<path d="M155.8,105.8c-0.7,0.2-1,0.9-0.8,1.6c0.4,1.5,0.9,3,1.2,4.5c0.4,1.3,0.8,2.6,1.4,3.8c0.1,0.3,0.3,0.5,0.5,0.6
	c0.3,0.1,0.5,0.1,0.8,0.1c0.5-0.2,0.9-0.8,0.7-1.3c-0.4-1.2-0.7-2.6-1-3.9c-0.4-1.6-0.8-3.1-1.2-4.6c-0.1-0.5-0.7-0.9-1.2-0.9
	C156,105.7,155.9,105.7,155.8,105.8"/>
<path d="M148.1,108.6c-0.3,0-0.5,0.1-0.7,0.3c-0.2,0.2-0.3,0.5-0.3,0.7c0.1,1,0.3,2,0.5,3c0.2,0.9,0.4,1.8,0.6,2.6
	c0.1,0.4,0.5,0.7,0.9,0.6c0.3,0,0.5-0.1,0.6-0.3c0.1-0.1,0.3-0.5,0.3-0.7c-0.3-1.8-0.6-3.6-0.9-5.4c-0.1-0.3-0.1-0.5-0.3-0.7
	C148.7,108.7,148.4,108.6,148.1,108.6L148.1,108.6"/>
<path d="M137.8,123c0,0.6,0.5,1,1.1,1c1.4,0,2.9,0,4.3,0c0.3,0,0.5,0,0.7,0c1,0,2,0,3.1-0.1c0.5-0.1,0.9-0.5,0.9-1
	c0-0.3-0.1-0.5-0.3-0.7s-0.5-0.3-0.7-0.3c-0.6-0.1-1.2-0.1-1.8-0.1c-0.7,0-1.3,0-2-0.1c-1.4,0-2.9-0.1-4.4-0.1l0,0
	C138.2,121.8,137.8,122.4,137.8,123"/>
<path d="M147.5,128.4c-1.2,0.1-2.4,0.2-3.6,0.3c-1.4,0.1-2.7,0.4-4.2,0.5c-0.3,0.1-0.5,0.1-0.7,0.3s-0.3,0.5-0.3,0.8
	c0,0.3,0.1,0.5,0.3,0.7s0.5,0.3,0.8,0.3c1.4-0.2,2.7-0.4,4.2-0.7c1.2-0.2,2.4-0.4,3.6-0.5c0.3-0.1,0.5-0.1,0.7-0.3
	c0.2-0.2,0.3-0.4,0.3-0.7C148.5,128.7,148.1,128.3,147.5,128.4C147.6,128.3,147.6,128.3,147.5,128.4"/>
<path d="M143.3,139.8c-0.5,0.1-1.1,0.2-1.6,0.3c-1.1,0.3-2.2,0.6-3.4,0.9c-0.7,0.2-1.1,1-0.9,1.7c0.2,0.7,1,1,1.7,0.9
	c1.6-0.5,3.3-0.9,4.9-1.2c0.3-0.1,0.6-0.1,0.9-0.1c0.5-0.1,0.9-0.4,1-0.9c0.1-0.6-0.3-1.2-0.9-1.4c-0.5-0.1-0.9-0.2-1.3-0.2
	C143.6,139.7,143.5,139.7,143.3,139.8"/>
<path d="M144.4,154.4c-1,0.1-2,0.3-3,0.5c-0.1,0-0.2,0-0.3,0.1c-1,0.2-2.2,0.3-3.3,0.3c-0.7,0-1.1,0.6-1.1,1.2
	c0.1,0.7,0.6,1.1,1.2,1.1c0.4,0,0.8-0.1,1.2-0.1c0.3,0,0.5-0.1,0.8-0.1h0.1h-0.1h0.1c0,0,0,0,0.1,0h0.1c0,0,0,0-0.1,0c0,0,0,0,0.1,0
	l0,0l0,0l0,0l0,0l0,0l0,0h0.1l0,0l0,0c0,0,0,0,0.1,0h-0.1l0,0c0.1,0,0.2,0,0.3-0.1c0.1,0,0.2,0,0.3-0.1c0.1,0,0.3-0.1,0.5-0.1
	c0.1,0,0.1,0,0.2-0.1c0.1,0,0.2-0.1,0.3-0.1c-0.1,0-0.1,0-0.1,0l0,0c1-0.2,2-0.4,3-0.7c0.5-0.1,0.7-0.6,0.7-1c0-0.5-0.5-1-1-1
	C144.5,154.4,144.5,154.4,144.4,154.4 M140.3,157.4C140.3,157.4,140.3,157.4,140.3,157.4L140.3,157.4
	C140.3,157.4,140.3,157.4,140.3,157.4 M140.2,157.4L140.2,157.4L140.2,157.4L140.2,157.4 M140.2,157.4L140.2,157.4L140.2,157.4
	L140.2,157.4L140.2,157.4L140.2,157.4 M140.3,157.4C140.3,157.4,140.2,157.4,140.3,157.4L140.3,157.4L140.3,157.4 M140.5,157.4
	L140.5,157.4L140.5,157.4"/>
<path d="M140.8,167.9c-0.8,0.1-1.6,0.2-2.4,0.3c-0.2,0-0.3,0.1-0.5,0.2c-0.1,0.1-0.2,0.3-0.2,0.5c0,0.2,0.1,0.3,0.2,0.5
	c0.1,0.1,0.3,0.2,0.5,0.2c0.8-0.1,1.6-0.3,2.4-0.4c0.8-0.1,1.5-0.2,2.3-0.3c0.3,0,0.6-0.3,0.6-0.6c0-0.1-0.1-0.3-0.2-0.4
	c-0.1-0.1-0.3-0.1-0.5-0.1c-0.1,0-0.3,0-0.3,0C142,167.8,141.5,167.9,140.8,167.9"/>
<path d="M136.2,177.3c-0.3,0.1-0.7,0.4-0.9,0.7s-0.2,0.7-0.1,1.1c0.1,0.5,0.3,1,0.6,1.5c0.1,0.1,0.3,0.3,0.4,0.5
	c0.1,0.1,0.2,0.2,0.3,0.3c0.3,0.3,0.7,0.5,1,0.7c0.5,0.3,1.2,0.5,1.8,0.7c0.3,0.1,0.6,0.1,0.9,0.1c0.3,0,0.7,0,0.9-0.1
	c0.3-0.1,0.7-0.1,0.9-0.4c0.3-0.3,0.3-0.6,0.3-0.9c0-0.3-0.2-0.7-0.4-0.9c-0.3-0.3-0.6-0.3-0.9-0.3c-0.4-0.1-0.7-0.1-1-0.3
	c-0.5-0.2-1-0.4-1.4-0.7c-0.1-0.1-0.2-0.1-0.3-0.3l0,0c-0.1-0.3-0.2-0.5-0.3-0.8c-0.1-0.6-0.8-1-1.4-1
	C136.5,177.2,136.3,177.2,136.2,177.3 M138.3,179.1c0.1,0.1,0.1,0.1,0.1,0.1C138.4,179.2,138.3,179.1,138.3,179.1"/>
<path d="M136.7,188c-0.3,0.3-0.3,0.7,0.1,1c0.5,0.5,1,0.8,1.6,1.1c0.5,0.3,1,0.5,1.6,0.7c0.6,0.2,1.2,0.4,1.8,0.6
	c0.3,0.1,0.7-0.2,0.8-0.5c0.1-0.2,0-0.3-0.1-0.5c-0.1-0.1-0.3-0.3-0.4-0.3c-0.3-0.1-0.7-0.3-1-0.4c-0.3-0.1-0.5-0.2-0.7-0.3
	c-0.7-0.3-1.4-0.7-2.1-1c-0.2-0.1-0.4-0.3-0.6-0.5c-0.1-0.1-0.3-0.2-0.5-0.2C137.1,187.8,136.9,187.8,136.7,188"/>
<path d="M137.3,198.9c-0.2,0.2-0.3,0.4-0.3,0.7c0,0.3,0.1,0.5,0.3,0.7c0.2,0.2,0.4,0.3,0.7,0.3c1.4,0.1,2.7,0.1,4.1,0.1
	c0.5,0,0.9-0.5,0.9-0.9c0-0.2-0.1-0.5-0.3-0.6c-0.2-0.2-0.4-0.2-0.7-0.3c-1.4,0-2.7-0.1-4.1-0.2l0,0
	C137.7,198.6,137.4,198.8,137.3,198.9"/>
<path d="M144.8,187.6c-0.4,0.1-0.7,0.4-0.9,0.7c-0.3,0.7-0.1,1.6,0.6,2c0.5,0.3,1.1,0.5,1.6,0.7c0.5,0.3,1.1,0.4,1.6,0.6
	c0.1,0,0.1,0.1,0.2,0.1c0.3,0.1,0.5,0.1,0.7,0c0.3-0.1,0.7-0.3,0.8-0.7c0.3-0.7,0.1-1.5-0.6-1.8c-1-0.6-2-1-3.1-1.5
	c-0.3-0.1-0.5-0.2-0.7-0.2C145.1,187.5,145,187.5,144.8,187.6 M147.5,191.5C147.5,191.5,147.6,191.5,147.5,191.5
	C147.6,191.5,147.5,191.5,147.5,191.5 M147.7,191.6L147.7,191.6c0.1,0,0.1,0.1,0.1,0.1C147.8,191.6,147.7,191.6,147.7,191.6"/>
<path d="M144.7,182.7c-0.1,0.5,0.2,1,0.7,1.1c1,0.2,2.1,0.4,3.1,0.6c1,0.2,2,0.3,3,0.5c0.3,0,0.5,0,0.7-0.1c0.2-0.1,0.3-0.3,0.4-0.5
	c0.1-0.5-0.2-0.9-0.7-1c-1-0.1-2-0.4-2.9-0.6c-1-0.2-2.2-0.4-3.2-0.6c-0.1,0-0.1,0-0.2,0C145.2,182,144.9,182.3,144.7,182.7"/>
<path d="M145,172.1c-0.1,0.6,0.3,1.2,0.9,1.3c1,0.2,1.9,0.3,2.9,0.6c0.9,0.2,1.8,0.4,2.6,0.7c0.2,0.1,0.4,0,0.6,0
	c0.3-0.1,0.5-0.3,0.6-0.5c0.1-0.3,0.1-0.5,0.1-0.9c-0.1-0.3-0.3-0.5-0.5-0.6c-1.8-0.7-3.8-1.1-5.7-1.4c-0.1,0-0.1,0-0.2,0
	C145.6,171.2,145.1,171.5,145,172.1"/>
<path d="M147,159.5c-0.2,0.1-0.3,0.2-0.5,0.3c-0.2,0.3-0.1,0.9,0.3,1c1.4,0.6,2.7,1.2,4.1,1.8c0.2,0.1,0.3,0.1,0.5,0.1
	s0.3-0.2,0.4-0.3c0.2-0.3,0.1-0.8-0.3-0.9c-0.7-0.3-1.3-0.7-2-1c-0.7-0.3-1.4-0.7-2.1-0.9c-0.1-0.1-0.3-0.1-0.3-0.1
	C147.1,159.4,147,159.5,147,159.5"/>
<path d="M149.5,146.9c-0.2,0.1-0.4,0.4-0.5,0.7c-0.1,0.3,0,0.6,0.1,0.8c1.7,2.2,3.5,4.3,5.2,6.5c0.1,0.2,0.3,0.3,0.6,0.4
	c0.3,0.1,0.5,0,0.7-0.1c0.4-0.3,0.5-0.9,0.3-1.2c-1.6-2.3-3.3-4.5-5-6.6c-0.2-0.2-0.3-0.4-0.7-0.5c-0.1,0-0.1,0-0.2,0
	C149.9,146.8,149.7,146.9,149.5,146.9"/>
<path d="M154,140.8c-0.3,0.1-0.4,0.4-0.5,0.7c-0.1,0.3,0,0.6,0.1,0.9c0.1,0.3,0.3,0.6,0.5,0.9c-0.1-0.1-0.1-0.2-0.1-0.3
	c0.3,0.7,0.7,1.4,1,2.1c0.1,0.3,0.3,0.7,0.4,1c0.1,0.3,0.3,0.7,0.4,1c0.3,0.9,0.7,1.7,1,2.6c0.2,0.5,0.7,0.7,1.2,0.6
	c0.2-0.1,0.4-0.3,0.5-0.5c0.1-0.3,0.1-0.5,0.1-0.7c-0.3-1.2-0.7-2.5-1.1-3.7c-0.1-0.3-0.3-0.7-0.4-1c-0.1-0.3-0.2-0.5-0.3-0.7
	c-0.2-0.4-0.3-0.8-0.5-1.2c-0.2-0.5-0.5-0.9-0.7-1.4c-0.1-0.3-0.5-0.5-0.7-0.5c-0.1,0-0.1,0-0.3,0
	C154.3,140.6,154.1,140.6,154,140.8"/>
<path d="M163.2,140.1c-0.3,0.1-0.6,0.3-0.7,0.6c-0.5,1.3-1,2.7-1.4,4.1c-0.3,1.1-0.7,2.2-1,3.3c-0.1,0.5,0.1,0.9,0.5,1.1
	c0.3,0.1,0.5,0.1,0.8,0.1c0.3-0.1,0.5-0.3,0.6-0.5c0.4-1,0.9-2,1.2-3.1c0.5-1.2,1-2.6,1.4-3.8c0.1-0.1,0.1-0.2,0.1-0.3
	c0.1-0.2,0.1-0.4,0-0.7c-0.1-0.3-0.3-0.5-0.6-0.7c-0.2-0.1-0.4-0.1-0.6-0.1C163.4,140,163.2,140,163.2,140.1"/>
<path d="M168.4,147.7c-0.9,1.6-1.7,3.1-2.6,4.6c-0.4,0.7-0.8,1.4-1.2,2.1c-0.4,0.7-0.8,1.3-1.2,2c-0.2,0.3-0.1,0.7,0.1,0.9
	c0.1,0.1,0.3,0.2,0.5,0.2s0.4-0.1,0.5-0.3c0.5-0.7,1-1.3,1.4-2c0.4-0.7,0.9-1.4,1.2-2c0.9-1.6,1.8-3.1,2.7-4.7
	c0.3-0.4,0.1-1-0.4-1.2c-0.1-0.1-0.3-0.1-0.4-0.1C168.9,147.2,168.5,147.4,168.4,147.7"/>
<path d="M169,164.7c-1,1.1-2.1,2.2-3.1,3.3c-0.9,1-1.8,2.1-2.4,3.3c-0.2,0.4-0.1,0.8,0.2,1.1c0.2,0.2,0.5,0.3,0.7,0.3
	s0.5-0.1,0.7-0.3c0.4-0.5,0.9-1,1.2-1.4c0.4-0.5,0.9-0.9,1.3-1.4c1-1.1,2.1-2.2,3.1-3.3c0.5-0.5,0.4-1.2-0.1-1.6
	c-0.2-0.2-0.5-0.3-0.8-0.3C169.5,164.3,169.3,164.4,169,164.7"/>
<path d="M171.7,173c-1.6,1.6-3.1,3.3-4.7,4.8c-1.5,1.4-2.9,2.8-4.4,4.3c-0.4,0.4-0.3,1.1,0.1,1.5c0.2,0.2,0.5,0.3,0.8,0.3
	s0.5-0.1,0.7-0.3c0.7-0.7,1.5-1.3,2.2-2c0.7-0.7,1.5-1.4,2.2-2.1c0.6-0.6,1.2-1.2,1.8-1.8c1-1,2-2,2.9-3.1c0.5-0.5,0.4-1.2-0.1-1.6
	c-0.2-0.2-0.5-0.3-0.8-0.3C172.2,172.6,171.9,172.8,171.7,173"/>
<path d="M171.6,185c-0.3,0-0.6,0.1-0.7,0.3c-1,1.3-2,2.6-2.9,3.9c-0.6,0.8-1.2,1.6-1.8,2.3c-1.5,1.8-2.9,3.6-4.5,5.4
	c-0.7,0.9-1.4,1.6-2,2.5c-0.3,0.4-0.3,0.9,0.1,1.3c0.4,0.3,1,0.3,1.3-0.1c1.6-1.7,3.1-3.5,4.6-5.2c0.8-0.9,1.5-1.8,2.3-2.7
	c0.7-0.8,1.2-1.6,1.9-2.4c0.9-1.2,1.8-2.3,2.6-3.5c0.2-0.3,0.3-0.5,0.3-0.8c0-0.3-0.1-0.5-0.3-0.7C172.2,185.1,171.9,185,171.6,185
	C171.7,185,171.6,185,171.6,185"/>
<path d="M170.7,199.4c-0.3,0-0.7,0.1-0.9,0.4c-1.4,1.8-2.8,3.7-4.2,5.6c-1.2,1.8-2.6,3.5-3.7,5.2c-0.1,0.2-0.1,0.5-0.1,0.7
	c0,0.3,0.2,0.7,0.4,0.9c0.3,0.3,0.6,0.4,0.9,0.3c0.3,0,0.7-0.1,0.9-0.4c2.6-3.5,5.2-7,7.8-10.5c0.2-0.3,0.4-0.6,0.3-1
	c0-0.3-0.2-0.7-0.4-0.9C171.4,199.5,171.1,199.4,170.7,199.4L170.7,199.4"/>
<path d="M168.1,220.2c-2.2,0.1-4.3,0.3-6.4,0.3c-0.7,0.1-1.2,0.6-1.1,1.2c0,0.3,0.1,0.6,0.4,0.8c0.3,0.3,0.5,0.3,0.9,0.3
	c1,0,2,0,3-0.1c1.1-0.1,2.2-0.1,3.4-0.1c0.7,0,1.2-0.7,1.2-1.4C169.4,220.7,168.8,220.2,168.1,220.2
	C168.2,220.2,168.1,220.2,168.1,220.2"/>
<path d="M157.2,232.1c-0.1,0.1-0.3,0.2-0.4,0.3c-0.2,0.2-0.3,0.4-0.3,0.7c-0.1,0.3-0.1,0.5,0,0.7c0.1,0.1,0.1,0.2,0.1,0.3
	c0.1,0.2,0.3,0.3,0.5,0.5c0.3,0.3,0.9,0.3,1.3,0.3c0.3,0,0.5,0,0.7,0.1c0.4,0,0.8,0,1.2,0.1c0.8,0,1.6,0,2.4,0.1
	c1.9,0,3.8,0.1,5.7,0.1c0.8,0,1.4-0.8,1.4-1.5c0-0.4-0.2-0.7-0.5-1c-0.3-0.3-0.7-0.4-1-0.4c-3.3,0-6.5-0.1-9.8-0.1
	c-0.2-0.1-0.5-0.2-0.7-0.2C157.6,231.9,157.4,231.9,157.2,232.1"/>
<path d="M154.3,244c-0.2,0.4-0.1,0.9,0.3,1.1c0.7,0.3,1.3,0.5,2,0.7c0.5,0.1,0.9,0.3,1.4,0.4c0.5,0.1,0.9,0.2,1.3,0.3
	c0.7,0.2,1.4,0.3,2.1,0.5c0.4,0.1,0.8-0.2,0.9-0.6c0.1-0.4-0.2-0.8-0.6-0.9c-1.1-0.3-2.2-0.5-3.4-0.9c-0.4-0.1-0.9-0.3-1.2-0.4
	c-0.3-0.1-0.7-0.2-1-0.3c-0.3-0.1-0.5-0.2-0.8-0.4c-0.1-0.1-0.3-0.1-0.4-0.1C154.8,243.5,154.5,243.7,154.3,244"/>
<path d="M150.8,253.6c-0.6,0.4-0.7,1.1-0.4,1.7c0.2,0.4,0.5,0.7,0.7,1c0.3,0.4,0.7,0.8,1,1.1c1,1,2.2,2,3.4,2.7
	c0.6,0.3,1.4,0.1,1.8-0.5c0.3-0.7,0.1-1.4-0.5-1.8c-0.3-0.2-0.6-0.3-0.9-0.5c-0.7-0.5-1.4-1.2-2-1.8c-0.4-0.4-0.8-0.8-1.2-1.2
	c-0.1-0.1-0.2-0.2-0.3-0.3c-0.2-0.3-0.5-0.5-0.8-0.5c-0.1,0-0.2,0-0.3,0C151.2,253.5,151,253.5,150.8,253.6"/>
<path d="M142.8,260.9c-0.3,0.3-0.3,0.9,0.1,1.1c0.7,0.5,1.4,1,2.1,1.4s1.4,0.8,2.1,1.2c0.7,0.3,1.2,0.7,1.9,1c1,0.5,2,1,3,1.5
	c0.5,0.3,1,0.1,1.3-0.4c0.3-0.5,0.1-1.1-0.4-1.3c-1.6-0.8-3.3-1.6-4.8-2.4c-0.7-0.4-1.4-0.7-2.2-1.1c-0.7-0.3-1.4-0.7-2-1.1
	c-0.1-0.1-0.2-0.1-0.3-0.1C143.2,260.7,143,260.8,142.8,260.9"/>
<path d="M135.4,271c-0.3,0.6-0.1,1.3,0.5,1.6c0.7,0.4,1.2,0.8,1.9,1.1c0.7,0.3,1.2,0.7,1.9,1c1.6,0.8,3.1,1.5,4.7,2.3
	c0.7,0.3,1.6,0.1,2-0.6c0.4-0.7,0.1-1.6-0.6-2c-1.6-0.7-3.1-1.5-4.6-2.2c-0.7-0.3-1.3-0.6-2-0.9c-0.3-0.1-0.7-0.3-1-0.4
	c-0.4-0.1-0.8-0.3-1.2-0.5c-0.2-0.1-0.4-0.1-0.6-0.1C136.1,270.3,135.7,270.5,135.4,271"/>
<path d="M141.2,283.4c-1.9,1.1-3.9,2.2-5.8,3.4c-1.8,1-3.5,2-5.3,3.1c-0.5,0.3-0.7,1-0.3,1.6c0.3,0.5,1,0.7,1.6,0.3
	c1.8-1,3.5-2,5.3-3c2-1.1,3.9-2.2,5.8-3.4c0.6-0.3,0.7-1.1,0.4-1.6c-0.3-0.3-0.6-0.5-1-0.5C141.6,283.2,141.4,283.3,141.2,283.4"/>
<path d="M140.9,295.8c-2.3,1.4-4.6,2.7-6.9,4.2c-1,0.6-1.9,1.2-2.9,1.7c-1.1,0.7-2.2,1.4-3.3,2c-0.5,0.3-0.6,1-0.3,1.4
	c0.1,0.2,0.4,0.4,0.7,0.5c0.3,0.1,0.5,0,0.8-0.1c1.2-0.6,2.3-1.2,3.4-1.9c1-0.6,1.9-1.1,2.9-1.7c2.4-1.4,4.6-2.7,6.9-4.1
	c0.5-0.3,0.7-1,0.3-1.5c-0.2-0.3-0.6-0.5-0.9-0.5C141.3,295.6,141.1,295.7,140.9,295.8"/>
<path d="M143,310.6c-2.1,1.2-4.2,2.4-6.3,3.5c-0.9,0.5-1.7,1-2.6,1.5c-1,0.6-2,1.2-2.9,1.8c-0.3,0.2-0.5,0.4-0.5,0.7
	c-0.1,0.3,0,0.7,0.1,0.9c0.3,0.5,1.1,0.7,1.6,0.4c0.9-0.7,2-1.2,2.9-1.8c0.9-0.5,1.8-1,2.7-1.5c2.1-1.2,4.2-2.4,6.3-3.5
	c0.6-0.3,0.7-1.2,0.4-1.7c-0.2-0.3-0.5-0.5-0.8-0.5c-0.1,0-0.2,0-0.3,0C143.5,310.4,143.3,310.5,143,310.6"/>
<path d="M140.9,330.6c-1.2,0.5-2.5,0.9-3.8,1.3c-0.5,0.2-1,0.4-1.6,0.6c-0.5,0.2-1,0.4-1.4,0.6c-0.3,0.1-0.6,0.3-0.9,0.5
	c-0.3,0.2-0.6,0.5-0.8,0.8c-0.3,0.3-0.3,0.9,0.1,1.2c0.3,0.3,0.9,0.3,1.2-0.1c0.1-0.1,0.2-0.1,0.3-0.3c0.1-0.1,0.3-0.2,0.5-0.3
	c0.7-0.3,1.4-0.5,2.2-0.8l1.2-0.4c1.2-0.4,2.5-0.9,3.7-1.2c0.5-0.2,0.8-0.7,0.7-1.2c-0.1-0.4-0.5-0.7-0.9-0.7
	C141.1,330.6,141,330.6,140.9,330.6"/>
<path d="M142,350.6c-1.6,0.5-3.2,0.9-4.8,1.3c-0.7,0.1-1.2,0.3-1.9,0.5c-0.8,0.2-1.6,0.4-2.4,0.9c-0.3,0.2-0.5,0.6-0.3,1
	c0.1,0.5,0.7,0.7,1,0.5c0.1,0,0.1-0.1,0.3-0.1c0.7-0.1,1.3-0.3,2-0.5s1.3-0.4,2-0.5c1.6-0.5,3.1-0.9,4.7-1.3
	c0.5-0.1,0.7-0.7,0.6-1.1c-0.1-0.4-0.5-0.6-0.9-0.6C142.2,350.6,142,350.6,142,350.6"/>
<path d="M132.8,366.9c-0.1,0.3,0,0.5,0.1,0.7c0.1,0.2,0.3,0.4,0.6,0.4c0.7,0.1,1.5,0.1,2.2,0.1c0.5,0,1.1,0,1.6,0c0.1,0,0.3,0,0.5,0
	c0.4,0,0.8,0,1.2,0c0.8-0.1,1.5-0.1,2.2-0.1c0.4-0.1,0.7-0.3,0.7-0.7c0-0.3-0.3-0.7-0.7-0.7c-0.6,0.1-1.2,0.1-1.8,0.1
	c-0.4,0-0.7,0-1.1,0c-0.5,0-1-0.1-1.5-0.1c-0.4,0-0.8-0.1-1.2-0.1c-0.6-0.1-1.2-0.1-1.7-0.3c-0.1,0-0.1,0-0.2,0
	C133.3,366.3,132.9,366.6,132.8,366.9 M135.4,366.6L135.4,366.6C135.4,366.6,135.4,366.6,135.4,366.6 M135.5,366.6L135.5,366.6
	L135.5,366.6"/>
<path d="M133.5,378.1c-0.3,0.2-0.5,0.5-0.6,0.9c-0.2,0.7,0.3,1.5,1,1.6c2.1,0.5,4.3,0.7,6.4,0.9c0.5,0.1,0.8,0,1.2-0.2
	c0.3-0.2,0.6-0.6,0.7-1s0-0.9-0.2-1.2s-0.6-0.7-1-0.7c-1.8-0.2-3.5-0.4-5.3-0.5c0.1,0,0.3,0,0.4,0.1c-0.7-0.1-1.3-0.1-2-0.1
	C134,377.9,133.7,378,133.5,378.1"/>
<path d="M132.6,387.8c-0.3,0.1-0.5,0.2-0.7,0.4c-0.3,0.3-0.4,0.7-0.4,1.1c0.1,0.8,0.8,1.5,1.6,1.4c0.8-0.1,1.6-0.1,2.4,0
	c0.8,0,1.5,0.1,2.3,0.1c1.7,0.1,3.5,0.1,5.2,0.2c0.4,0,0.9-0.3,1.1-0.5c0.3-0.3,0.5-0.7,0.5-1.2c0-0.4-0.2-0.9-0.5-1.1
	c-0.3-0.3-0.7-0.4-1.2-0.5c-1.7-0.1-3.5-0.1-5.2-0.2c-0.8,0-1.5-0.1-2.3-0.1c-0.3,0-0.6,0-0.9,0
	C133.9,387.4,133.2,387.5,132.6,387.8"/>
<path d="M132.7,396c-0.5,0-0.9,0.2-1.2,0.4c-0.3,0.2-0.5,0.7-0.3,1c0.1,0.5,0.7,0.7,1,0.5c0.1,0,0.1-0.1,0.3-0.1c0.1,0,0.3,0,0.4,0
	c0.8,0.1,1.5,0.4,2.3,0.6c0.3,0.1,0.5,0.2,0.8,0.3c0.2,0.1,0.4,0.1,0.6,0.2l0,0c1.2,0.5,2.4,0.9,3.6,1.4c0.3,0.1,0.5,0.1,0.8,0.1
	c0.3-0.1,0.5-0.3,0.6-0.5c0.1-0.3,0.1-0.5,0.1-0.8c-0.1-0.3-0.3-0.5-0.5-0.6c-1.4-0.5-2.7-1.1-4.2-1.6c-0.4-0.1-0.7-0.3-1.1-0.4
	c-0.3-0.1-0.5-0.1-0.7-0.2c-0.4-0.1-0.8-0.2-1.2-0.3c-0.3-0.1-0.6-0.1-0.9-0.1C132.9,396,132.7,396,132.7,396"/>
<path d="M109.9,384.3c-0.9,0.3-1.7,0.5-2.6,0.7c-0.7,0.1-1.4,0.2-2.1,0.3c-0.7,0.1-1.4,0.2-2.2,0.3c-1.4,0.1-2.8,0.1-4.3,0.1
	c-0.4,0-0.8,0.3-1,0.5c-0.3,0.3-0.5,0.7-0.4,1.1c0,0.4,0.2,0.8,0.5,1c0.1,0.1,0.2,0.1,0.3,0.3c0.3,0.1,0.5,0.2,0.8,0.2
	c1,0.1,2.1,0.1,3.1,0c1.2-0.1,2.4-0.3,3.5-0.5c0.6-0.1,1.2-0.2,1.8-0.3c0.6-0.1,1.2-0.3,1.8-0.5c0.5-0.2,1-0.4,1.5-0.6
	c0.3-0.1,0.6-0.3,0.7-0.7c0.1-0.3,0.2-0.7,0.1-1c-0.2-0.5-0.7-0.9-1.2-0.9C110.2,384.3,110,384.3,109.9,384.3"/>
<path d="M111.7,366.9c-1.1,0.2-2.3,0.5-3.4,0.7c-1.1,0.3-2.2,0.5-3.3,0.7c-2.5,0.5-5,1.1-7.5,1.7c-0.3,0.1-0.5,0.3-0.7,0.5
	c-0.1,0.3-0.2,0.6-0.1,0.9c0.1,0.3,0.3,0.5,0.5,0.7c0.3,0.1,0.5,0.1,0.9,0.1c2.5-0.6,5-1.1,7.5-1.7c1.1-0.3,2.2-0.5,3.3-0.7
	c1.1-0.3,2.2-0.5,3.3-0.9c0.5-0.2,0.8-0.7,0.7-1.2c-0.1-0.3-0.3-0.5-0.5-0.6c-0.1-0.1-0.3-0.1-0.5-0.1
	C111.9,366.9,111.8,366.9,111.7,366.9"/>
<path d="M108.4,348.4c-0.9,0.6-1.9,1.2-2.9,1.8c-1.2,0.5-2.6,0.9-3.8,1.4c-0.6,0.2-1.1,0.4-1.7,0.6c-0.7,0.3-1.5,0.6-2.2,0.9
	c-0.4,0.1-0.7,0.3-0.9,0.7c-0.2,0.3-0.2,0.8-0.1,1.2c0.1,0.4,0.4,0.7,0.7,0.9c0.3,0.2,0.8,0.3,1.2,0.1c0.9-0.4,1.7-0.7,2.6-1.1
	c0.7-0.3,1.5-0.5,2.3-0.9c1-0.4,2.1-0.8,3.1-1.3c0.7-0.3,1.2-0.8,1.9-1.2c0.4-0.3,0.9-0.6,1.2-0.9c0.6-0.5,0.9-1.2,0.4-1.9
	c-0.3-0.4-0.7-0.7-1.2-0.7C108.9,348.2,108.6,348.3,108.4,348.4"/>
<path d="M105.4,329.6c-0.5,0.2-0.9,0.4-1.3,0.7c-0.3,0.2-0.5,0.4-0.8,0.6c-0.5,0.4-1,0.9-1.6,1.2c-1,0.9-2.2,1.7-3.2,2.6
	c-0.2,0.1-0.3,0.3-0.3,0.5c-0.1,0.2,0,0.5,0.1,0.6c0.1,0.2,0.3,0.3,0.5,0.3c0.2,0.1,0.5,0,0.6-0.1c1-0.9,2.2-1.6,3.1-2.6
	c0.5-0.4,1-0.8,1.5-1.2s1-0.9,1.6-1.2c0.1,0,0.1-0.1,0.1-0.1c0.2-0.1,0.3-0.2,0.4-0.3c0.1-0.2,0.1-0.4,0.1-0.6
	c-0.1-0.3-0.4-0.5-0.7-0.5C105.5,329.6,105.5,329.6,105.4,329.6"/>
<path d="M105.1,315.1c-0.4,0-0.7,0.2-1,0.5c-0.3,0.3-0.7,0.6-1,0.9c-1,0.9-2.2,1.8-3.2,2.7c-0.5,0.4-1,0.9-1.4,1.2
	c-0.3,0.3-0.5,0.5-0.8,0.7c-0.3,0.3-0.7,0.7-1,1c-0.3,0.4-0.6,0.8-0.9,1.2c-0.3,0.4-0.3,1-0.1,1.4c0.1,0.5,0.5,0.9,0.9,1
	c0.5,0.2,0.9,0.3,1.4,0.1c0.5-0.1,0.8-0.5,1-0.9c0.1-0.1,0.1-0.2,0.2-0.3c0.7-0.9,1.5-1.5,2.3-2.3c0.5-0.5,1-1,1.6-1.5
	c1-1,2.1-2.1,3.1-3.3c0.5-0.6,0.5-1.5-0.1-2.1C105.7,315.2,105.3,315,105.1,315.1L105.1,315.1"/>
</svg>
