<?xml version="1.0" encoding="utf-8"?>
<!-- Generator: Adobe Illustrator 22.1.0, SVG Export Plug-In . SVG Version: 6.00 Build 0)  -->
<svg width="218px" height="244px" version="1.1" id="Layer_1" xmlns="http://www.w3.org/2000/svg" xmlns:xlink="http://www.w3.org/1999/xlink" x="0px" y="0px"
	 viewBox="0 0 217.7 243.6" style="enable-background:new 0 0 217.7 243.6;" xml:space="preserve">
<style type="text/css">
	.st0{fill:#97CCC7;}
	.st1{fill:#A2E0DC;}
	.st2{opacity:0.5;}
	.st3{fill:#FFFFFF;}
	.st4{opacity:0.53;fill:#FFFFFF;enable-background:new    ;}
</style>
<g>
	<path class="st0" d="M41.4,7.1c0,0,67.3,1.7,125,3.5l-61.4,36.2L41.4,7.1z"/>
	<path class="st1" d="M216.5,73.7c-2.1-9.3-9.4-22.3-23.1-28.4c-7.8-3.5-16.7-4.1-25.7-1.9c-7.1,1.8-13.1,5.9-16.2,11
		c-3.1,5.1-3.2,11.2-0.3,16.3l1.9,3.3l2.8-2.9c0.7-0.7,1.4-1.5,2-2.3c4-4.9,8.4-10.6,15.3-13.4c8.5-3.5,16.6,0.9,21.2,6.3
		c5.7,6.6,8.9,15.4,8.7,23.3c-0.2,12.1-4.9,23.9-9.4,35.4c-1.8,4.5-3.6,9.1-5.1,13.7c-0.2,0.6-0.8,2.3,1,3.3c1.4,0.8,3,0.4,4.2-0.1
		c0.1,3.4,0.9,6.8,1.7,10c0.7,3,1.4,5.8,1.6,8.7l5.3-0.2c-0.2-3.9,0.7-8.2,1.6-12.4c0.3-1.6,0.6-3.1,0.9-4.6
		c0.9-5.4,2.4-10.9,4.6-17.1C215.3,105.4,220.1,89.4,216.5,73.7z"/>
	<g class="st2">
		<path class="st1" d="M216.5,73.7c-2.1-9.3-9.4-22.3-23.1-28.4c-7.8-3.5-16.7-4.1-25.7-1.9c-5.3,1.4-10,3.9-13.3,7.3
			c2.5-1.6,5.5-2.8,8.6-3.6c9-2.3,17.9-1.6,25.7,1.9c13.7,6.1,21,19.1,23.1,28.4c3.6,15.7-1.3,31.7-7,48.1
			c-2.2,6.2-3.6,11.6-4.6,17.1c-0.3,1.5-0.6,3-0.9,4.6c-0.6,2.9-1.2,6-1.5,8.8c1.4,0,4.7-0.1,4.7-0.1c-0.2-3.9,0.7-8.2,1.6-12.4
			c0.3-1.6,0.6-3.1,0.9-4.6c0.9-5.4,2.4-10.9,4.6-17.1C215.3,105.4,220.1,89.4,216.5,73.7z"/>
	</g>
	<path class="st1" d="M0.4,4.9c0,0,3.5-2.1,3.8-2.3C8,1,12.7,0.2,17.1,0c21.4-0.8,38,10.3,57.8,14.1c19.5,3.7,40,5,60,2.9
		c10.8-1.1,21.5-3.3,31.6-6.5c-4.2,7.6-7.2,15.6-9.4,23.7c-6.3,23.3,1.8,47.4,18.1,67.4c14.5,17.8,25.9,36.7,30.2,57.4
		c5.2,24.6-1.1,50-23.2,69.2c0,0-58,33.4-146.5,2.2c-9.6-3.4-18.9-12.9-24.2-19.2c-25.8-30-11.4-67.1,9.1-96.2
		c15-21.4,27.3-48,17.3-72.1C37.9,42.9,26.7,13,0.4,4.9z"/>
	<g>
		<path class="st3" d="M183.5,130.9c-1.3-2.3-8.7-4.9-11.5-6c-17.7-7.6-39-10.9-58.9-7.1c-20.8,4-40,11.6-61.8,6.1
			c-7-1.7-13.3-5.6-18.7-9.3c-0.9,1.4,0,0-2.8,4.1c-17,25.1-33.4,60.4-9.5,88.3c7.3,8.5,14.5,14.4,19.8,16.3
			c23.6,8.3,47.1,12.6,69.8,12.6c36.7,0,60.5-11.2,65-13.5c18-16,25.1-38,20-62C192.9,150.5,189.2,140.9,183.5,130.9z"/>
	</g>
	<path class="st4" d="M44.7,222.4c-25.7-33-11.4-73.8,9.1-105.9c15-23.5,27.3-52.9,17.3-79.4c0,0-5.7-16.8-18.6-29.6
		C42.4,3.9,32.3,0.3,20.8,0c19.3,12.4,27.7,37,27.7,37c9.9,26.5-2.3,55.9-17.3,79.4c-20.3,31.7-34.4,71.9-10,104.7
		c4.4,3.9,9.4,7.4,14.5,9.2c7.9,2.8,15.6,5,23,6.9C53.1,232.6,48.1,226.8,44.7,222.4z"/>
	<g class="st2">
		<path class="st1" d="M205.5,159.1c-4.4-20.7-15.8-39.6-30.2-57.4c-16.4-20.1-24.5-44.1-18.1-67.4c2.2-8,5.2-16.1,9.4-23.7
			c-8.8,2.8-18.1,4.7-27.5,6c-2.7,5.8-4.7,11.7-6.3,17.7c-6.3,23.3,1.8,47.4,18.1,67.4c14.5,17.8,25.9,36.7,30.2,57.4
			c5.2,24.6-1.1,50-23.2,69.2c0,0-22.2,12.7-59.9,15.1c52.6,3.2,84.5-15.1,84.5-15.1C204.4,209,210.7,183.6,205.5,159.1z"/>
	</g>
</g>
</svg>
