<?xml version="1.0" encoding="utf-8"?>
<!-- Generator: Adobe Illustrator 22.1.0, SVG Export Plug-In . SVG Version: 6.00 Build 0)  -->
<svg width="328px" height="321px" version="1.1" id="Capa_1" xmlns="http://www.w3.org/2000/svg" xmlns:xlink="http://www.w3.org/1999/xlink" x="0px" y="0px"
	 viewBox="0 0 328 321" style="enable-background:new 0 0 328 321;" xml:space="preserve">
<g>
	<g id="Layer_1_5_">
		<g>
			<path d="M149.1,300.5c0.5-0.4,1,5.2,1.5,4.8l93.6-70.9c2.5-2.2,4.6-5,6.1-8.1c5.9-12.5,0.6-27.4-11.9-33.4l-2.1-1L175.2,163
				l33.4-32.7l21.6,46.9l1.2,2.5c4,8.7,14.1,13,23.3,9.6l45.9-16.9c6.7-2.5,11.1-9.3,10.2-16.7c-1.1-8.6-8.9-14.7-17.5-13.7
				l-30.1,3.7l-29-70.6C211.5,30.7,173,46.6,139,80.6l-60,58.5l0.3,0.3c-3.6,3.3-6.5,7.4-8.3,12.3c-6.1,16.4,2.2,34.6,18.6,40.7
				l91.1,33.9l-57.9,61c-3.5,3.7-5.3,8.5-5.5,13.3"/>
			<path d="M328,46.5C327.1,20,305-0.8,278.5,0c-26.5,0.8-47.3,23-46.4,49.4c0.8,26.5,23,47.3,49.4,46.4
				C308,95.1,328.8,72.9,328,46.5z"/>
		</g>
	</g>
	<path d="M322.5,320.4L4.1,291.7c-2.5-0.2-4.3-2.4-4.1-4.9h0c0.2-2.5,2.4-4.3,4.9-4.1l318.4,28.7c2.5,0.2,4.3,2.4,4.1,4.9v0
		C327.1,318.7,324.9,320.6,322.5,320.4z"/>
</g>
</svg>
