<?xml version="1.0" encoding="utf-8"?>
<!-- Generator: Adobe Illustrator 22.1.0, SVG Export Plug-In . SVG Version: 6.00 Build 0)  -->
<svg version="1.1" id="Layer_1" xmlns="http://www.w3.org/2000/svg" xmlns:xlink="http://www.w3.org/1999/xlink" x="0px" y="0px"
	 viewBox="0 0 39.9 38.7" style="enable-background:new 0 0 39.9 38.7;" xml:space="preserve">
<style type="text/css">
	.st0{fill:none;stroke:#979797;stroke-width:2.28;stroke-linecap:round;stroke-miterlimit:10;}
	.st1{fill:#FF7733;}
	.st2{fill:#333333;}
	.st3{fill:none;stroke:#AD00AD;stroke-width:1.85;stroke-linecap:round;stroke-miterlimit:10;}
	.st4{fill:#332E2E;}
	.st5{fill:#F9CE1D;}
	.st6{fill:#AD00AD;}
	.st7{fill:#BF8F68;}
	.st8{fill:#FFFFFF;}
	.st9{fill:#F6BE1A;}
</style>
<g id="grid">
	<path class="st0" d="M30.7,37.3v-5.4 M8.7,37.3v-5.4"/>
	<path class="st1" d="M4.4,32.1h30c-1.2-4.8-6.7-7.5-10-7.5h-20V32.1z"/>
	<path class="st2" d="M4.4,32.1V34h30.2c0-0.6-0.1-1.3-0.2-1.9H4.4z"/>
	<path class="st0" d="M38.7,33.9C38.7,33.9,38.7,33.9,38.7,33.9c0,2.1-1.7,3.7-3.7,3.7h-8.3c0,0,0,0,0,0c-2,0-3.7-1.7-3.7-3.7
		 M16.9,33.9C16.9,33.9,16.9,33.9,16.9,33.9c0,2.1-1.7,3.7-3.7,3.7H4.9c0,0,0,0-0.1,0c-2,0-3.7-1.7-3.7-3.7"/>
	<path class="st1" d="M23.7,27.4v-8.9c0,0,0,0,0.1,0c2.5,0.2,4.4,2.3,4.2,4.8v5.1"/>
	<path class="st3" d="M19.5,29.5c0-5.8-3.2-4.2-4.9-5.1"/>
	<path class="st4" d="M23.8,30.5c1,0,1.8,0.9,1.8,1.9c-0.1,1-0.9,1.8-1.9,1.8H19c0,0,0,0,0,0c-0.3,0-0.5-0.2-0.4-0.5v-4.2h1.9v1.4
		c0,0,0,0,0,0c0,0.8,0.6,1.4,1.4,1.4c0,0,0,0,0,0C22.8,32.3,23.7,31.5,23.8,30.5C23.7,30.5,23.7,30.5,23.8,30.5z"/>
	<path class="st5" d="M20.4,31.4c0.3,0,0.5-0.2,0.4-0.5c0-0.3-0.2-0.5-0.5-0.5h-0.7c-0.3,0-0.5,0.2-0.5,0.5s0.2,0.5,0.5,0.5
		L20.4,31.4C20.4,31.4,20.4,31.4,20.4,31.4z"/>
	<ellipse class="st6" cx="15.2" cy="19.3" rx="5.1" ry="6.1"/>
	<path class="st4" d="M10.1,18.7h10.1v0.6v1H10.1v-1C10.1,19.1,10.1,18.9,10.1,18.7z"/>
	<path class="st5" d="M19.6,18.7h0.8v1.6h-0.8V18.7z"/>
	<path class="st3" d="M15.2,14.6l6.9,2.9"/>
	<circle class="st7" cx="23.6" cy="18.1" r="1.6"/>
	<path class="st8" d="M21.3,19.4c0.4,0.2,0.8,0,1-0.4l1.1-2.5c0,0,0-0.1,0-0.1c0.1-0.4-0.1-0.8-0.5-1c-0.4-0.1-0.8,0.1-1,0.5
		l-1.1,2.6C20.8,18.8,20.9,19.2,21.3,19.4z"/>
	<circle class="st7" cx="15.2" cy="9.6" r="3.6"/>
	<path class="st4" d="M16.5,8C16.5,8,16.5,8,16.5,8c-0.4,0-0.7,0.3-0.7,0.7c0,0.4,0.3,0.7,0.7,0.6c0.4,0,0.7-0.3,0.6-0.7
		C17.2,8.3,16.9,8,16.5,8z"/>
	<path class="st7" d="M18.8,9.6l1.3,0L18,7.2L18.8,9.6z"/>
	<path class="st6" d="M16.3,6.2l-5.9-1.9l1.2,5.3L16.3,6.2z"/>
	<path class="st8" d="M12.1,10.3l4.8-3.5c0.3-0.3,0.4-0.7,0.2-1.1c0,0,0,0,0,0c-0.3-0.3-0.7-0.4-1.1-0.2L11.2,9c0,0,0,0,0,0
		c-0.3,0.3-0.4,0.7-0.2,1.1c0.2,0.2,0.4,0.3,0.7,0.3C11.9,10.4,12,10.3,12.1,10.3z"/>
	<circle class="st8" cx="10" cy="3.7" r="0.8"/>
	<path class="st8" d="M18.1,11.7c-1.3,0-1.5-1.5-1.5-1.5h2.2C18.7,10.8,18.5,11.3,18.1,11.7z"/>
	<path class="st9" d="M18.3,10.9c-0.5,0.2-1,0-1.3-0.4c-0.2-0.3-0.3-0.6-0.1-0.9c0.2,0.3,0.6,0.4,0.9,0.2c0.2-0.1,0.3-0.3,0.5-0.4
		c0.2-0.1,0.3-0.1,0.5,0c0.2,0.1,0.3,0.2,0.3,0.4C19.1,10.3,18.8,10.8,18.3,10.9z"/>
	<path class="st7" d="M15.6,9.8C15.6,9.8,15.6,9.8,15.6,9.8c0,0.5-0.3,0.9-0.8,0.9c-0.2,0-0.4-0.1-0.6-0.3c-1-1-0.4-2.9-0.4-2.9
		l1.6,1.7C15.5,9.3,15.6,9.5,15.6,9.8z"/>
</g>
</svg>
