app_rotate_to_play.png<?xml version="1.0" encoding="utf-8"?>
<!-- Generator: Adobe Illustrator 22.1.0, SVG Export Plug-In . SVG Version: 6.00 Build 0)  -->
<svg version="1.1" id="Layer_1" xmlns="http://www.w3.org/2000/svg" xmlns:xlink="http://www.w3.org/1999/xlink" x="0px" y="0px"
	 viewBox="0 0 353.5 207" style="enable-background:new 0 0 353.5 207;" xml:space="preserve">
<style type="text/css">
	.st0{opacity:0.1;}
	.st1{fill:#6FA29C;stroke:#000000;stroke-width:1.484;stroke-miterlimit:10;}
	.st2{fill:#21FFE8;stroke:#060708;stroke-width:2;stroke-miterlimit:10;}
	.st3{fill:#11303B;stroke:#000000;stroke-width:2;stroke-miterlimit:10;}
	.st4{opacity:0.15;}
	.st5{opacity:0.2;}
	.st6{opacity:0.25;}
	.st7{opacity:0.27;}
	.st8{opacity:0.3;}
	.st9{fill:#FFFFFF;}
	.st10{fill:#FFD42B;}
	.st11{fill:#11303B;}
</style>
<g>
	<g>
		<g class="st0">
			<g>
				<path class="st1" d="M169.6,130.6c0,0-0.4,7.6,8.1,8c8.6,0.4,68.2,1.3,68.2,1.3s10.4,1,9.8-5.8c-0.6-6.8-2.7-29-2.7-29
					s0-6.9-6-7.6c-5.6-0.7-11.2-1.1-16.8-1.5c-9.1-0.8-18.1-1.5-27.2-2.3c-7.6-0.6-15.3-1.5-22.9-1.9c-4-0.2-8.6,1-9.9,5.3
					c-0.3,0.9-0.4,1.9-0.4,2.9C169.9,110.3,169.6,130.6,169.6,130.6z"/>
				<path class="st2" d="M203,93.6c9.1,0.7,18.1,1.5,27.2,2.3c5.6,0.5,11.2,0.8,16.8,1.5c6,0.8,6,7.6,6,7.6s1.8,19.6,2.6,27.6
					c0.5,5.1-4.5,4.9-4.5,4.9l-43.7-0.4c0,0-19.2-0.5-26.9-0.8c-7.7-0.3-7.9-6.1-7.9-6.1s-0.2-22.8-0.6-30.9
					c-0.3-6.4,4.7-7.5,6.8-7.7c0.4,0,0.9,0,1.3,0C187.8,92.1,195.4,93,203,93.6z"/>
				<path class="st3" d="M183,132.4c0,0.6,0.5,1.1,1,1.1c4.2,0.2,53.7,2,60.2,2.2c0.7,0,1.2-0.6,1.1-1.2c-0.6-4.6-2.4-32-2.7-34.7
					c-0.1-0.6-0.5-1-1.1-1c-3-0.1-52.2-3.7-57.7-4.3c-0.7-0.1-1.2,0.4-1.2,1.1L183,132.4z"/>
			</g>
		</g>
		<g class="st4">
			<g>
				<path class="st1" d="M170.2,133.1c0,0,1.6,7.4,9.9,5.6s66.2-16.4,66.2-16.4s10.3-1.7,8-8.1s-10.2-27.3-10.2-27.3
					s-1.8-6.6-7.8-5.8c-5.6,0.8-11.1,1.9-16.6,2.9c-9,1.6-17.9,3.2-26.9,4.8c-7.5,1.4-15.1,2.5-22.6,4.1c-3.9,0.8-8.1,3.2-8.2,7.7
					c0,1,0.1,1.9,0.4,2.9C165.3,113.5,170.2,133.1,170.2,133.1z"/>
				<path class="st2" d="M193,88.8c8.9-1.6,17.9-3.2,26.9-4.8c5.5-1,11-2.1,16.6-2.9c5.9-0.8,7.8,5.8,7.8,5.8s6.8,18.4,9.7,26
					c1.8,4.8-3.1,5.9-3.1,5.9l-42.4,10.9c0,0-18.6,4.5-26.2,6.2c-7.5,1.7-9.2-3.8-9.2-3.8s-6.1-22-8.5-29.7c-2-6.1,2.6-8.5,4.6-9.2
					c0.4-0.1,0.9-0.2,1.3-0.3C177.9,91.3,185.4,90.1,193,88.8z"/>
				<path class="st3" d="M183.6,131.4c0.2,0.6,0.7,0.9,1.3,0.8c4.1-0.9,52.3-12,58.7-13.5c0.7-0.2,1-0.9,0.8-1.5
					c-1.7-4.3-10.6-30.3-11.6-32.8c-0.2-0.5-0.8-0.8-1.3-0.7c-2.9,0.7-51.4,10-56.8,10.8c-0.7,0.1-1.1,0.8-0.9,1.4L183.6,131.4z"/>
			</g>
		</g>
		<g class="st5">
			<g>
				<path class="st1" d="M171.5,135.4c0,0,3.4,6.7,11.1,2.9s59.7-32.9,59.7-32.9s9.5-4.3,5.6-9.9S231,71.6,231,71.6s-3.5-6-9-3.6
					c-5.2,2.2-10.2,4.7-15.3,7c-8.2,3.9-16.5,7.7-24.7,11.6c-6.9,3.3-14,6.3-20.8,9.8c-3.6,1.8-7,5.2-5.9,9.6
					c0.2,0.9,0.6,1.8,1.1,2.7C161.6,117.7,171.5,135.4,171.5,135.4z"/>
				<path class="st2" d="M182,86.7c8.2-3.9,16.4-7.8,24.7-11.6c5.1-2.4,10.1-4.9,15.3-7c5.5-2.3,9,3.6,9,3.6s11.4,16,16.1,22.6
					c3,4.2-1.5,6.5-1.5,6.5l-38.1,21.5c0,0-16.9,9.2-23.7,12.7s-9.8-1.3-9.8-1.3s-11.5-19.7-15.9-26.5c-3.5-5.4,0.3-8.9,2-10.1
					c0.4-0.2,0.8-0.5,1.2-0.7C168.1,93,175.1,89.9,182,86.7z"/>
				<path class="st3" d="M184,130.2c0.3,0.5,0.9,0.7,1.5,0.4c3.8-1.9,47.5-25.1,53.2-28.2c0.6-0.3,0.8-1.1,0.4-1.7
					c-2.8-3.7-18.1-26.5-19.7-28.7c-0.3-0.4-0.9-0.6-1.4-0.3c-2.7,1.5-47.1,22.9-52.1,25.1c-0.6,0.3-0.9,1-0.5,1.6L184,130.2z"/>
			</g>
		</g>
		<g class="st6">
			<g>
				<path class="st1" d="M173.4,137.3c0,0,5,5.6,11.4-0.1c6.4-5.7,49.2-47.3,49.2-47.3s8.1-6.6,2.8-11c-5.3-4.4-22.5-18.6-22.5-18.6
					s-4.9-4.9-9.6-1.2c-4.4,3.4-8.7,7.2-12.9,10.8c-7,5.9-13.9,11.7-20.8,17.6c-5.8,5-11.8,9.7-17.5,14.9c-3,2.7-5.4,6.8-3.3,10.8
					c0.5,0.9,1.1,1.6,1.8,2.3C159.2,122.7,173.4,137.3,173.4,137.3z"/>
				<path class="st2" d="M170.9,87.5c6.9-5.9,13.9-11.8,20.8-17.6c4.3-3.6,8.5-7.3,12.9-10.8c4.7-3.7,9.6,1.2,9.6,1.2
					s15.1,12.5,21.4,17.7c3.9,3.3,0.3,6.7,0.3,6.7l-31.2,30.7c0,0-13.9,13.2-19.6,18.4c-5.7,5.2-9.8,1.3-9.8,1.3s-16.2-16-22.3-21.5
					c-4.8-4.3-2-8.6-0.7-10.3c0.3-0.3,0.6-0.6,0.9-0.9C159,97.2,165,92.4,170.9,87.5z"/>
				<path class="st3" d="M184.1,129.1c0.4,0.4,1.1,0.4,1.5,0c3.1-2.8,39.3-36.6,44.1-41c0.5-0.5,0.5-1.3-0.1-1.7
					c-3.7-2.9-24.4-20.9-26.5-22.6c-0.4-0.3-1.1-0.3-1.5,0.1c-2.2,2.1-39.5,34.4-43.8,37.8c-0.5,0.4-0.6,1.2-0.1,1.7L184.1,129.1z"
					/>
			</g>
		</g>
		<g class="st7">
			<g>
				<path class="st1" d="M175.6,138.6c0,0,6.3,4.1,11-3.1c4.7-7.2,35.3-58.4,35.3-58.4s6.1-8.5-0.1-11.4
					c-6.2-2.9-26.5-12.2-26.5-12.2s-6-3.4-9.6,1.4c-3.4,4.5-6.5,9.2-9.7,13.7c-5.2,7.5-10.4,14.9-15.6,22.4
					c-4.4,6.3-8.9,12.5-13.1,18.9c-2.2,3.4-3.4,8-0.4,11.3c0.7,0.7,1.5,1.3,2.3,1.8C158.2,128.2,175.6,138.6,175.6,138.6z"/>
				<path class="st2" d="M160.3,91.1c5.2-7.5,10.4-14.9,15.6-22.4c3.2-4.6,6.3-9.3,9.7-13.7c3.6-4.8,9.6-1.4,9.6-1.4
					s17.9,8.2,25.2,11.6c4.6,2.1,2,6.4,2,6.4l-22.2,37.7c0,0-10,16.4-14.1,22.9c-4.1,6.5-9.2,3.8-9.2,3.8s-19.8-11.3-27.1-15
					c-5.7-2.9-4.2-7.8-3.3-9.7c0.2-0.4,0.4-0.8,0.7-1.1C151.4,103.6,156,97.4,160.3,91.1z"/>
				<path class="st3" d="M183.9,127.9c0.5,0.3,1.2,0.1,1.5-0.4c2.3-3.5,28.5-45.5,32-51c0.4-0.6,0.1-1.3-0.5-1.6
					c-4.3-1.8-28.9-13.9-31.4-15c-0.5-0.2-1.1,0-1.4,0.4c-1.6,2.6-29.3,43.4-32.6,47.8c-0.4,0.5-0.2,1.3,0.4,1.6L183.9,127.9z"/>
			</g>
		</g>
		<g class="st8">
			<g>
				<path class="st1" d="M178.1,139.3c0,0,7.2,2.4,9.8-5.8c2.6-8.1,18.9-65.5,18.9-65.5s3.7-9.8-3.1-11c-6.8-1.1-28.8-4.9-28.8-4.9
					s-6.7-1.8-8.9,3.8c-2.1,5.2-3.9,10.5-5.8,15.8c-3.1,8.6-6.2,17.1-9.2,25.7c-2.6,7.2-5.4,14.3-7.7,21.6c-1.2,3.8-1.2,8.6,2.6,11
					c0.8,0.5,1.7,0.9,2.7,1.1C158.7,133.8,178.1,139.3,178.1,139.3z"/>
				<path class="st2" d="M151.1,97.4c3.1-8.6,6.1-17.1,9.2-25.7c1.9-5.3,3.7-10.6,5.8-15.8c2.3-5.6,8.9-3.8,8.9-3.8
					s19.4,3.3,27.3,4.6c5,0.9,3.6,5.7,3.6,5.7l-11.7,42.1c0,0-5.4,18.4-7.7,25.7c-2.3,7.3-7.9,6-7.9,6s-22.1-5.8-30-7.5
					c-6.3-1.3-6.1-6.5-5.7-8.6c0.1-0.4,0.2-0.9,0.4-1.3C145.7,111.7,148.5,104.6,151.1,97.4z"/>
				<path class="st3" d="M183.4,126.8c0.6,0.1,1.2-0.2,1.3-0.7c1.3-4,15.8-51.3,17.7-57.6c0.2-0.7-0.2-1.3-0.9-1.4
					c-4.6-0.7-31.6-6-34.2-6.3c-0.6-0.1-1.1,0.3-1.2,0.8c-0.8,2.9-17.1,49.5-19.1,54.6c-0.2,0.6,0.1,1.3,0.8,1.5L183.4,126.8z"/>
			</g>
		</g>
		<g>
			<g>
				<path class="st1" d="M180.8,139.3c0,0,7.6,0.4,8-8.1c0.4-8.6,1.3-68.2,1.3-68.2s1-10.4-5.8-9.8c-6.8,0.6-29,2.7-29,2.7
					s-6.9,0-7.6,6c-0.7,5.6-1.1,11.2-1.5,16.8c-0.8,9.1-1.5,18.1-2.3,27.2c-0.6,7.6-1.5,15.3-1.9,22.9c-0.2,4,1,8.6,5.3,9.9
					c0.9,0.3,1.9,0.4,2.9,0.4C160.5,139,180.8,139.3,180.8,139.3z"/>
				<path class="st2" d="M143.8,105.8c0.7-9.1,1.5-18.1,2.3-27.2c0.5-5.6,0.8-11.2,1.5-16.8c0.8-6,7.6-6,7.6-6s19.6-1.8,27.6-2.6
					c5.1-0.5,4.9,4.5,4.9,4.5l-0.4,43.7c0,0-0.5,19.2-0.8,26.9c-0.3,7.7-6.1,7.9-6.1,7.9s-22.8,0.2-30.9,0.6
					c-6.4,0.3-7.5-4.7-7.7-6.8c0-0.4,0-0.9,0-1.3C142.3,121.1,143.2,113.5,143.8,105.8z"/>
				<path class="st3" d="M182.6,125.9c0.6,0,1.1-0.5,1.1-1c0.2-4.2,2-53.7,2.2-60.2c0-0.7-0.6-1.2-1.2-1.1c-4.6,0.6-32,2.4-34.7,2.7
					c-0.6,0.1-1,0.5-1,1.1c-0.1,3-3.7,52.2-4.3,57.7c-0.1,0.7,0.4,1.2,1.1,1.2L182.6,125.9z"/>
			</g>
		</g>
		<path class="st9" d="M268.6,108.1c-0.5,0-1-0.4-1-0.9c-1.7-16.4-9.2-31.7-21.7-44c-12.3-12.1-28.4-20.7-46.7-24.6
			c-0.6-0.1-0.9-0.7-0.8-1.2s0.7-0.9,1.2-0.8c18.7,4.1,35.2,12.8,47.7,25.2c12.8,12.7,20.5,28.4,22.3,45.3c0.1,0.6-0.4,1.1-0.9,1.1
			C268.6,108.1,268.6,108.1,268.6,108.1z"/>
		<path class="st9" d="M209.8,31.8c-3.8,1.3-10.5,3.5-14,4.7c-0.7,0.2-0.8,1.1-0.2,1.6c2.4,1.6,7.1,4.9,9.7,7.4
			c0.5,0.5,1.5,0.2,1.5-0.6c0.1-1.5,0.3-3.5,0.9-5.6c0.8-2.5,2-4.7,3-6.2C211.2,32.4,210.5,31.5,209.8,31.8z"/>
	</g>
	<g>
		<g>
			<path class="st10" d="M124.1,63.9c-0.8,0-1.6-0.1-2.3-0.4c-3.6-1.1-5.9-4.5-5.7-8.2c-1.8,0.4-3.6,0.6-5.5,0.6
				c-2.7,0-5.4-0.4-8-1.2c-7-2.1-12.8-6.9-16.3-13.4c-3.5-6.5-4.2-13.9-2.1-21C87.8,8.8,98.4,0.9,110.6,0.9c2.7,0,5.4,0.4,8,1.2
				c14.5,4.4,22.8,19.8,18.3,34.3c-1.5,5-4.4,9.4-8.3,12.8c2.9,2,4.2,5.6,3.2,9C130.8,61.6,127.7,63.9,124.1,63.9L124.1,63.9z"/>
			<path d="M110.6,1.4c2.6,0,5.2,0.4,7.9,1.2c14.3,4.3,22.4,19.5,18,33.7c-1.6,5.3-4.7,9.7-8.6,13c3,1.7,4.6,5.3,3.5,8.8
				c-1,3.3-4,5.4-7.3,5.4c-0.7,0-1.5-0.1-2.2-0.3c-3.6-1.1-5.8-4.7-5.3-8.3c-2,0.4-4,0.7-6,0.7c-2.6,0-5.2-0.4-7.8-1.2
				c-14.3-4.3-22.4-19.5-18-33.7C88.2,8.9,99,1.4,110.6,1.4 M110.6,0.5c-5.9,0-11.7,1.9-16.5,5.4c-4.9,3.6-8.5,8.6-10.3,14.5
				c-2.2,7.2-1.4,14.7,2.1,21.3s9.4,11.4,16.6,13.6c2.6,0.8,5.4,1.2,8.1,1.2c1.7,0,3.3-0.2,5-0.5c0,3.7,2.4,6.9,6.1,8
				c0.8,0.2,1.6,0.4,2.5,0.4c3.8,0,7.1-2.4,8.2-6.1c1-3.4-0.1-7-2.9-9.2c3.7-3.4,6.5-7.7,8-12.6c4.5-14.8-3.9-30.4-18.7-34.9
				C116.1,0.9,113.3,0.5,110.6,0.5L110.6,0.5z"/>
		</g>
		<g>
			<path class="st11" d="M111.5,34.4l-4.4,0.1l-2.1-12.6l-0.3-10.5l7.9-0.2l0.3,10.5L111.5,34.4z M105.3,41.6c0-1.1,0.3-2,1-2.9
				c0.7-0.8,1.8-1.2,3.2-1.3c1.4,0,2.5,0.3,3.2,1.1c0.8,0.8,1.2,1.7,1.2,2.8c0,1.1-0.3,2-1,2.9c-0.7,0.8-1.8,1.3-3.2,1.3
				c-1.4,0-2.5-0.3-3.2-1.1C105.7,43.7,105.3,42.7,105.3,41.6z"/>
		</g>
		<g>
			<path class="st10" d="M136.9,71.5c-0.4,0-0.7-0.1-1.1-0.2c-1-0.3-1.8-0.9-2.2-1.8c-0.5-0.9-0.6-1.9-0.3-2.9
				c0.5-1.6,2-2.7,3.6-2.7c0.4,0,0.7,0.1,1.1,0.2c2,0.6,3.1,2.7,2.5,4.7C140,70.4,138.5,71.5,136.9,71.5z"/>
			<path d="M136.9,64.4c0.3,0,0.6,0,1,0.1c1.8,0.5,2.7,2.4,2.2,4.1c-0.4,1.4-1.8,2.4-3.2,2.4c-0.3,0-0.6,0-1-0.1
				c-1.8-0.5-2.7-2.4-2.2-4.1C134.1,65.3,135.4,64.4,136.9,64.4 M136.9,63.4L136.9,63.4c-1.9,0-3.5,1.2-4.1,3
				c-0.3,1.1-0.2,2.2,0.3,3.3c0.5,1,1.4,1.7,2.5,2.1c0.4,0.1,0.8,0.2,1.2,0.2c1.9,0,3.5-1.2,4.1-3c0.7-2.3-0.6-4.6-2.8-5.3
				C137.7,63.5,137.3,63.4,136.9,63.4L136.9,63.4z"/>
		</g>
	</g>
</g>
<g>
	<path class="st9" d="M7.1,179c0,0.6-0.1,1.1-0.4,1.6c-0.3,0.5-0.6,0.9-1.1,1.2c-0.5,0.3-1,0.6-1.6,0.7s-1.3,0.3-2,0.3H1.7v3.8H-1
		v-11.2h3.2c0.7,0,1.4,0.1,2,0.2s1.1,0.4,1.5,0.7c0.4,0.3,0.8,0.7,1,1.1C7,177.9,7.1,178.4,7.1,179z M4.4,179.1c0-1-0.7-1.5-2.2-1.5
		H1.8v3.2h0.5c0.7,0,1.3-0.1,1.7-0.4C4.3,180,4.4,179.6,4.4,179.1z"/>
	<path class="st9" d="M11.2,175.4v9h4.1v2.2H8.4v-11.2H11.2z"/>
	<path class="st9" d="M16.7,175.4h7v2.2h-4.2v2.3h4v2.2h-4v2.4h4.3v2.2h-7V175.4z"/>
	<path class="st9" d="M32.6,184.4h-4.3l-0.7,2.2h-2.8l4.2-11.2h3l4.2,11.2h-2.8L32.6,184.4z M29,182.2h2.9l-1.4-4.7L29,182.2z"/>
	<path class="st9" d="M44.8,183.3c0,0.5-0.1,1-0.3,1.4c-0.2,0.4-0.5,0.8-0.8,1.1c-0.4,0.3-0.8,0.6-1.3,0.8c-0.5,0.2-1.1,0.3-1.8,0.3
		c-0.6,0-1.2-0.1-1.9-0.2c-0.6-0.1-1.2-0.3-1.7-0.6l0.6-2.1c0.4,0.2,0.8,0.4,1.3,0.5s1,0.2,1.6,0.2c0.5,0,0.9-0.1,1.2-0.3
		c0.3-0.2,0.5-0.5,0.5-0.8c0-0.3-0.1-0.5-0.4-0.8c-0.3-0.2-0.7-0.5-1.4-0.7c-1.1-0.4-1.9-0.9-2.4-1.4c-0.5-0.5-0.8-1.2-0.8-2
		c0-1.1,0.4-1.9,1.1-2.5c0.7-0.6,1.7-0.9,3-0.9c0.6,0,1.3,0.1,1.8,0.2c0.6,0.1,1.1,0.3,1.5,0.5l-0.5,2.1c-0.4-0.2-0.8-0.3-1.3-0.5
		c-0.5-0.1-0.9-0.2-1.4-0.2c-0.4,0-0.7,0.1-1,0.2c-0.3,0.1-0.4,0.4-0.4,0.7c0,0.2,0,0.3,0.1,0.4c0,0.1,0.1,0.2,0.2,0.3
		c0.1,0.1,0.3,0.2,0.5,0.3s0.5,0.2,0.8,0.4c0.5,0.2,0.9,0.4,1.3,0.6c0.4,0.2,0.8,0.5,1.1,0.7c0.3,0.3,0.5,0.6,0.7,1
		S44.8,182.8,44.8,183.3z"/>
	<path class="st9" d="M46.3,175.4h7v2.2h-4.2v2.3h4v2.2h-4v2.4h4.3v2.2h-7V175.4z"/>
	<path class="st9" d="M67.3,178.9c0,0.7-0.2,1.4-0.6,2s-1,1-1.8,1.3l3.7,4.4h-3.4l-3.1-3.9h-0.5v3.9h-2.8v-11.2h3.6
		c0.7,0,1.3,0.1,1.9,0.2c0.6,0.1,1.1,0.4,1.5,0.7c0.4,0.3,0.8,0.7,1,1.1C67.2,177.8,67.3,178.3,67.3,178.9z M64.7,179
		c0-0.5-0.2-0.9-0.6-1.1c-0.4-0.2-0.9-0.4-1.6-0.4h-0.8v3.1h0.7c0.7,0,1.3-0.1,1.7-0.4C64.5,179.9,64.7,179.5,64.7,179z"/>
	<path class="st9" d="M80.4,181c0,0.8-0.1,1.5-0.4,2.2c-0.3,0.7-0.6,1.3-1.1,1.8c-0.5,0.5-1.1,0.9-1.8,1.3c-0.7,0.3-1.5,0.5-2.4,0.5
		c-0.9,0-1.7-0.2-2.4-0.5c-0.7-0.3-1.3-0.7-1.8-1.3c-0.5-0.5-0.9-1.1-1.1-1.8c-0.3-0.7-0.4-1.5-0.4-2.2c0-0.8,0.1-1.5,0.4-2.2
		c0.3-0.7,0.6-1.3,1.1-1.8c0.5-0.5,1.1-0.9,1.8-1.3c0.7-0.3,1.5-0.5,2.4-0.5c0.9,0,1.7,0.2,2.4,0.5c0.7,0.3,1.3,0.7,1.8,1.3
		c0.5,0.5,0.9,1.1,1.1,1.8C80.3,179.5,80.4,180.2,80.4,181z M74.7,184.6c0.5,0,0.9-0.1,1.3-0.3c0.4-0.2,0.7-0.4,0.9-0.7
		c0.3-0.3,0.4-0.7,0.6-1.1c0.1-0.4,0.2-0.9,0.2-1.5s-0.1-1-0.2-1.5c-0.1-0.4-0.3-0.8-0.6-1.1c-0.3-0.3-0.6-0.6-0.9-0.7
		c-0.4-0.2-0.8-0.3-1.3-0.3c-0.5,0-0.9,0.1-1.3,0.3c-0.4,0.2-0.7,0.4-0.9,0.7c-0.3,0.3-0.4,0.7-0.6,1.1c-0.1,0.4-0.2,0.9-0.2,1.5
		c0,0.5,0.1,1,0.2,1.5c0.1,0.4,0.3,0.8,0.6,1.1c0.3,0.3,0.6,0.6,0.9,0.7C73.8,184.5,74.2,184.6,74.7,184.6z"/>
	<path class="st9" d="M89.8,175.4v2.2h-3v9H84v-9h-3v-2.2H89.8z"/>
	<path class="st9" d="M97.3,184.4H93l-0.7,2.2h-2.8l4.2-11.2h3l4.2,11.2H98L97.3,184.4z M93.7,182.2h2.9l-1.4-4.7L93.7,182.2z"/>
	<path class="st9" d="M109.3,175.4v2.2h-3v9h-2.8v-9h-3v-2.2H109.3z"/>
	<path class="st9" d="M110.6,175.4h7v2.2h-4.2v2.3h4v2.2h-4v2.4h4.3v2.2h-7L110.6,175.4L110.6,175.4z"/>
	<path class="st9" d="M128.3,182.5v4.1h-2.8v-4.1l-3.7-7.1h2.9l2.1,4.7l2.1-4.7h2.9L128.3,182.5z"/>
	<path class="st9" d="M143.6,181c0,0.8-0.1,1.5-0.4,2.2c-0.3,0.7-0.6,1.3-1.1,1.8c-0.5,0.5-1.1,0.9-1.8,1.3
		c-0.7,0.3-1.5,0.5-2.4,0.5c-0.9,0-1.7-0.2-2.4-0.5c-0.7-0.3-1.3-0.7-1.8-1.3c-0.5-0.5-0.9-1.1-1.1-1.8c-0.3-0.7-0.4-1.5-0.4-2.2
		c0-0.8,0.1-1.5,0.4-2.2c0.3-0.7,0.6-1.3,1.1-1.8c0.5-0.5,1.1-0.9,1.8-1.3c0.7-0.3,1.5-0.5,2.4-0.5s1.7,0.2,2.4,0.5
		c0.7,0.3,1.3,0.7,1.8,1.3c0.5,0.5,0.9,1.1,1.1,1.8C143.4,179.5,143.6,180.2,143.6,181z M137.8,184.6c0.5,0,0.9-0.1,1.3-0.3
		c0.4-0.2,0.7-0.4,0.9-0.7c0.3-0.3,0.4-0.7,0.6-1.1c0.1-0.4,0.2-0.9,0.2-1.5s-0.1-1-0.2-1.5c-0.1-0.4-0.3-0.8-0.6-1.1
		c-0.3-0.3-0.6-0.6-0.9-0.7c-0.4-0.2-0.8-0.3-1.3-0.3c-0.5,0-0.9,0.1-1.3,0.3c-0.4,0.2-0.7,0.4-0.9,0.7c-0.3,0.3-0.4,0.7-0.6,1.1
		c-0.1,0.4-0.2,0.9-0.2,1.5c0,0.5,0.1,1,0.2,1.5c0.1,0.4,0.3,0.8,0.6,1.1c0.3,0.3,0.6,0.6,0.9,0.7
		C136.9,184.5,137.3,184.6,137.8,184.6z"/>
	<path class="st9" d="M151.9,175.4h2.8v7.2c0,1.3-0.4,2.4-1.3,3.1c-0.8,0.7-2,1.1-3.5,1.1c-1.5,0-2.7-0.4-3.5-1.1
		c-0.8-0.7-1.3-1.8-1.3-3.1v-7.2h2.8v7.3c0,0.6,0.2,1.1,0.5,1.5c0.3,0.3,0.8,0.5,1.5,0.5s1.1-0.2,1.5-0.5s0.5-0.8,0.5-1.5V175.4z"/>
	<path class="st9" d="M165.3,178.9c0,0.7-0.2,1.4-0.6,2c-0.4,0.6-1,1-1.8,1.3l3.7,4.4h-3.4l-3.1-3.9h-0.5v3.9h-2.8v-11.2h3.6
		c0.7,0,1.3,0.1,1.9,0.2s1.1,0.4,1.5,0.7c0.4,0.3,0.8,0.7,1,1.1C165.2,177.8,165.3,178.3,165.3,178.9z M162.6,179
		c0-0.5-0.2-0.9-0.6-1.1c-0.4-0.2-0.9-0.4-1.6-0.4h-0.8v3.1h0.7c0.7,0,1.3-0.1,1.7-0.4C162.4,179.9,162.6,179.5,162.6,179z"/>
	<path class="st9" d="M179.3,179c0,0.6-0.1,1.1-0.4,1.6c-0.3,0.5-0.6,0.9-1.1,1.2c-0.5,0.3-1,0.6-1.6,0.7c-0.6,0.2-1.3,0.3-2,0.3
		H174v3.8h-2.8v-11.2h3.2c0.7,0,1.4,0.1,2,0.2c0.6,0.1,1.1,0.4,1.5,0.7c0.4,0.3,0.8,0.7,1,1.1C179.2,177.9,179.3,178.4,179.3,179z
		 M176.7,179.1c0-1-0.7-1.5-2.2-1.5H174v3.2h0.5c0.7,0,1.3-0.1,1.7-0.4C176.5,180,176.7,179.6,176.7,179.1z"/>
	<path class="st9" d="M187.5,186.6V182h-4.1v4.6h-2.8v-11.2h2.8v4.4h4.1v-4.4h2.8v11.2H187.5z"/>
	<path class="st9" d="M203.4,181c0,0.8-0.1,1.5-0.4,2.2c-0.3,0.7-0.6,1.3-1.1,1.8c-0.5,0.5-1.1,0.9-1.8,1.3
		c-0.7,0.3-1.5,0.5-2.4,0.5c-0.9,0-1.7-0.2-2.4-0.5c-0.7-0.3-1.3-0.7-1.8-1.3c-0.5-0.5-0.9-1.1-1.1-1.8c-0.3-0.7-0.4-1.5-0.4-2.2
		c0-0.8,0.1-1.5,0.4-2.2c0.3-0.7,0.6-1.3,1.1-1.8c0.5-0.5,1.1-0.9,1.8-1.3c0.7-0.3,1.5-0.5,2.4-0.5s1.7,0.2,2.4,0.5
		c0.7,0.3,1.3,0.7,1.8,1.3c0.5,0.5,0.9,1.1,1.1,1.8C203.2,179.5,203.4,180.2,203.4,181z M197.6,184.6c0.5,0,0.9-0.1,1.3-0.3
		s0.7-0.4,0.9-0.7c0.3-0.3,0.4-0.7,0.6-1.1c0.1-0.4,0.2-0.9,0.2-1.5s-0.1-1-0.2-1.5c-0.1-0.4-0.3-0.8-0.6-1.1s-0.6-0.6-0.9-0.7
		c-0.4-0.2-0.8-0.3-1.3-0.3c-0.5,0-0.9,0.1-1.3,0.3c-0.4,0.2-0.7,0.4-0.9,0.7c-0.3,0.3-0.4,0.7-0.6,1.1c-0.1,0.4-0.2,0.9-0.2,1.5
		c0,0.5,0.1,1,0.2,1.5c0.1,0.4,0.3,0.8,0.6,1.1c0.3,0.3,0.6,0.6,0.9,0.7C196.7,184.5,197.1,184.6,197.6,184.6z"/>
	<path class="st9" d="M212.3,186.6l-4.6-6.7v6.7H205v-11.2h2.7l4.6,6.7v-6.7h2.7v11.2H212.3z"/>
	<path class="st9" d="M217.2,175.4h7v2.2h-4.2v2.3h4v2.2h-4v2.4h4.3v2.2h-7L217.2,175.4L217.2,175.4z"/>
	<path class="st9" d="M6.9,195.6v2.2h-3v9H1.1v-9h-3v-2.2H6.9z"/>
	<path class="st9" d="M18.9,201.2c0,0.8-0.1,1.5-0.4,2.2c-0.3,0.7-0.6,1.3-1.1,1.8c-0.5,0.5-1.1,0.9-1.8,1.3
		c-0.7,0.3-1.5,0.5-2.4,0.5s-1.7-0.2-2.4-0.5c-0.7-0.3-1.3-0.7-1.8-1.3c-0.5-0.5-0.9-1.1-1.1-1.8c-0.3-0.7-0.4-1.5-0.4-2.2
		c0-0.8,0.1-1.5,0.4-2.2s0.6-1.3,1.1-1.8c0.5-0.5,1.1-0.9,1.8-1.3c0.7-0.3,1.5-0.5,2.4-0.5c0.9,0,1.7,0.2,2.4,0.5
		c0.7,0.3,1.3,0.7,1.8,1.3s0.9,1.1,1.1,1.8C18.8,199.7,18.9,200.4,18.9,201.2z M13.2,204.8c0.5,0,0.9-0.1,1.3-0.3
		c0.4-0.2,0.7-0.4,0.9-0.7c0.3-0.3,0.4-0.7,0.6-1.1c0.1-0.4,0.2-0.9,0.2-1.5s-0.1-1-0.2-1.5c-0.1-0.4-0.3-0.8-0.6-1.1
		c-0.3-0.3-0.6-0.6-0.9-0.7c-0.4-0.2-0.8-0.3-1.3-0.3c-0.5,0-0.9,0.1-1.3,0.3c-0.4,0.2-0.7,0.4-0.9,0.7c-0.3,0.3-0.4,0.7-0.6,1.1
		c-0.1,0.4-0.2,0.9-0.2,1.5s0.1,1,0.2,1.5c0.1,0.4,0.3,0.8,0.6,1.1c0.3,0.3,0.6,0.6,0.9,0.7C12.3,204.7,12.7,204.8,13.2,204.8z"/>
	<path class="st9" d="M32.3,199.2c0,0.6-0.1,1.1-0.4,1.6c-0.3,0.5-0.6,0.9-1.1,1.2c-0.5,0.3-1,0.6-1.6,0.7c-0.6,0.2-1.3,0.3-2,0.3
		H27v3.8h-2.8v-11.2h3.2c0.7,0,1.4,0.1,2,0.2c0.6,0.1,1.1,0.4,1.5,0.7c0.4,0.3,0.8,0.7,1,1.1C32.2,198.1,32.3,198.6,32.3,199.2z
		 M29.7,199.3c0-1-0.7-1.5-2.2-1.5H27v3.2h0.5c0.7,0,1.3-0.1,1.7-0.4C29.5,200.2,29.7,199.8,29.7,199.3z"/>
	<path class="st9" d="M44.7,201.2c0,0.8-0.1,1.5-0.4,2.2c-0.3,0.7-0.6,1.3-1.1,1.8c-0.5,0.5-1.1,0.9-1.8,1.3
		c-0.7,0.3-1.5,0.5-2.4,0.5s-1.7-0.2-2.4-0.5c-0.7-0.3-1.3-0.7-1.8-1.3c-0.5-0.5-0.9-1.1-1.1-1.8c-0.3-0.7-0.4-1.5-0.4-2.2
		c0-0.8,0.1-1.5,0.4-2.2s0.6-1.3,1.1-1.8c0.5-0.5,1.1-0.9,1.8-1.3s1.5-0.5,2.4-0.5c0.9,0,1.7,0.2,2.4,0.5c0.7,0.3,1.3,0.7,1.8,1.3
		c0.5,0.5,0.9,1.1,1.1,1.8S44.7,200.4,44.7,201.2z M39,204.8c0.5,0,0.9-0.1,1.3-0.3c0.4-0.2,0.7-0.4,0.9-0.7
		c0.3-0.3,0.4-0.7,0.6-1.1c0.1-0.4,0.2-0.9,0.2-1.5s-0.1-1-0.2-1.5c-0.1-0.4-0.3-0.8-0.6-1.1c-0.3-0.3-0.6-0.6-0.9-0.7
		c-0.4-0.2-0.8-0.3-1.3-0.3c-0.5,0-0.9,0.1-1.3,0.3c-0.4,0.2-0.7,0.4-0.9,0.7c-0.3,0.3-0.4,0.7-0.6,1.1c-0.1,0.4-0.2,0.9-0.2,1.5
		s0.1,1,0.2,1.5c0.1,0.4,0.3,0.8,0.6,1.1c0.3,0.3,0.6,0.6,0.9,0.7C38.1,204.7,38.5,204.8,39,204.8z"/>
	<path class="st9" d="M54.8,199.1c0,0.7-0.2,1.4-0.6,2c-0.4,0.6-1,1-1.8,1.3l3.7,4.4h-3.4l-3.1-3.9h-0.5v3.9h-2.8v-11.2h3.6
		c0.7,0,1.3,0.1,1.9,0.2s1.1,0.4,1.5,0.7c0.4,0.3,0.8,0.7,1,1.1C54.7,198,54.8,198.5,54.8,199.1z M52.2,199.2c0-0.5-0.2-0.9-0.6-1.1
		c-0.4-0.2-0.9-0.4-1.6-0.4h-0.8v3.1h0.7c0.7,0,1.3-0.1,1.7-0.4C52,200.1,52.2,199.7,52.2,199.2z"/>
	<path class="st9" d="M64.8,195.6v2.2h-3v9H59v-9h-3v-2.2H64.8z"/>
	<path class="st9" d="M74.6,199.1c0,0.7-0.2,1.4-0.6,2c-0.4,0.6-1,1-1.8,1.3l3.7,4.4h-3.4l-3.1-3.9h-0.5v3.9h-2.8v-11.2h3.6
		c0.7,0,1.3,0.1,1.9,0.2s1.1,0.4,1.5,0.7c0.4,0.3,0.8,0.7,1,1.1C74.5,198,74.6,198.5,74.6,199.1z M71.9,199.2c0-0.5-0.2-0.9-0.6-1.1
		c-0.4-0.2-0.9-0.4-1.6-0.4h-0.8v3.1h0.7c0.7,0,1.3-0.1,1.7-0.4C71.7,200.1,71.9,199.7,71.9,199.2z"/>
	<path class="st9" d="M84.1,204.6h-4.3l-0.7,2.2h-2.8l4.2-11.2h3l4.2,11.2h-2.8L84.1,204.6z M80.5,202.4h2.9l-1.4-4.7L80.5,202.4z"
		/>
	<path class="st9" d="M91.8,206.8H89v-11.2h2.8V206.8z"/>
	<path class="st9" d="M102,195.6v2.2h-3v9h-2.8v-9h-3v-2.2H102z"/>
	<path class="st9" d="M114.4,205h-2.7l-2.2-4.5l-0.3,6.3h-2.7l0.8-11.2h2.5l3.2,6.8l3.2-6.8h2.5l0.8,11.2h-2.7l-0.3-6.3L114.4,205z"
		/>
	<path class="st9" d="M132.4,201.2c0,0.8-0.1,1.5-0.4,2.2c-0.3,0.7-0.6,1.3-1.1,1.8c-0.5,0.5-1.1,0.9-1.8,1.3
		c-0.7,0.3-1.5,0.5-2.4,0.5c-0.9,0-1.7-0.2-2.4-0.5c-0.7-0.3-1.3-0.7-1.8-1.3c-0.5-0.5-0.9-1.1-1.1-1.8c-0.3-0.7-0.4-1.5-0.4-2.2
		c0-0.8,0.1-1.5,0.4-2.2c0.3-0.7,0.6-1.3,1.1-1.8c0.5-0.5,1.1-0.9,1.8-1.3c0.7-0.3,1.5-0.5,2.4-0.5s1.7,0.2,2.4,0.5
		c0.7,0.3,1.3,0.7,1.8,1.3s0.9,1.1,1.1,1.8C132.2,199.7,132.4,200.4,132.4,201.2z M126.7,204.8c0.5,0,0.9-0.1,1.3-0.3
		c0.4-0.2,0.7-0.4,0.9-0.7c0.3-0.3,0.4-0.7,0.6-1.1c0.1-0.4,0.2-0.9,0.2-1.5s-0.1-1-0.2-1.5c-0.1-0.4-0.3-0.8-0.6-1.1
		c-0.3-0.3-0.6-0.6-0.9-0.7c-0.4-0.2-0.8-0.3-1.3-0.3c-0.5,0-0.9,0.1-1.3,0.3c-0.4,0.2-0.7,0.4-0.9,0.7c-0.3,0.3-0.4,0.7-0.6,1.1
		c-0.1,0.4-0.2,0.9-0.2,1.5s0.1,1,0.2,1.5c0.1,0.4,0.3,0.8,0.6,1.1c0.3,0.3,0.6,0.6,0.9,0.7C125.7,204.7,126.2,204.8,126.7,204.8z"
		/>
	<path class="st9" d="M134,195.6h3.4c1,0,1.9,0.1,2.7,0.4c0.8,0.3,1.5,0.7,2.1,1.2c0.6,0.5,1,1.1,1.4,1.8c0.3,0.7,0.5,1.4,0.5,2.2
		c0,0.8-0.2,1.6-0.5,2.2c-0.3,0.7-0.8,1.3-1.4,1.8c-0.6,0.5-1.3,0.9-2.1,1.2c-0.8,0.3-1.7,0.4-2.7,0.4H134V195.6z M137.6,204.6
		c0.6,0,1.1-0.1,1.5-0.2s0.9-0.4,1.2-0.7c0.3-0.3,0.6-0.7,0.8-1.1c0.2-0.4,0.3-0.9,0.3-1.4c0-0.5-0.1-1-0.3-1.4
		c-0.2-0.4-0.4-0.8-0.8-1.1c-0.3-0.3-0.7-0.5-1.2-0.7c-0.5-0.2-1-0.2-1.5-0.2h-0.8v6.8L137.6,204.6L137.6,204.6z"/>
	<path class="st9" d="M145.7,195.6h7v2.2h-4.2v2.3h4v2.2h-4v2.4h4.3v2.2h-7L145.7,195.6L145.7,195.6z"/>
	<path class="st9" d="M165.9,195.6v2.2h-3v9h-2.8v-9h-3v-2.2H165.9z"/>
	<path class="st9" d="M177.9,201.2c0,0.8-0.1,1.5-0.4,2.2c-0.3,0.7-0.6,1.3-1.1,1.8c-0.5,0.5-1.1,0.9-1.8,1.3s-1.5,0.5-2.4,0.5
		s-1.7-0.2-2.4-0.5c-0.7-0.3-1.3-0.7-1.8-1.3c-0.5-0.5-0.9-1.1-1.1-1.8c-0.3-0.7-0.4-1.5-0.4-2.2c0-0.8,0.1-1.5,0.4-2.2
		s0.6-1.3,1.1-1.8c0.5-0.5,1.1-0.9,1.8-1.3s1.5-0.5,2.4-0.5s1.7,0.2,2.4,0.5c0.7,0.3,1.3,0.7,1.8,1.3c0.5,0.5,0.9,1.1,1.1,1.8
		C177.8,199.7,177.9,200.4,177.9,201.2z M172.2,204.8c0.5,0,0.9-0.1,1.3-0.3c0.4-0.2,0.7-0.4,0.9-0.7c0.3-0.3,0.4-0.7,0.6-1.1
		c0.1-0.4,0.2-0.9,0.2-1.5s-0.1-1-0.2-1.5c-0.1-0.4-0.3-0.8-0.6-1.1c-0.3-0.3-0.6-0.6-0.9-0.7c-0.4-0.2-0.8-0.3-1.3-0.3
		c-0.5,0-0.9,0.1-1.3,0.3c-0.4,0.2-0.7,0.4-0.9,0.7c-0.3,0.3-0.4,0.7-0.6,1.1c-0.1,0.4-0.2,0.9-0.2,1.5s0.1,1,0.2,1.5
		c0.1,0.4,0.3,0.8,0.6,1.1c0.3,0.3,0.6,0.6,0.9,0.7C171.3,204.7,171.7,204.8,172.2,204.8z"/>
	<path class="st9" d="M191.3,199.2c0,0.6-0.1,1.1-0.4,1.6c-0.3,0.5-0.6,0.9-1.1,1.2c-0.5,0.3-1,0.6-1.6,0.7c-0.6,0.2-1.3,0.3-2,0.3
		H186v3.8h-2.8v-11.2h3.2c0.7,0,1.4,0.1,2,0.2c0.6,0.1,1.1,0.4,1.5,0.7c0.4,0.3,0.8,0.7,1,1.1C191.2,198.1,191.3,198.6,191.3,199.2z
		 M188.7,199.3c0-1-0.7-1.5-2.2-1.5H186v3.2h0.5c0.7,0,1.3-0.1,1.7-0.4C188.5,200.2,188.7,199.8,188.7,199.3z"/>
	<path class="st9" d="M195.4,195.6v9h4.1v2.2h-6.9v-11.2H195.4z"/>
	<path class="st9" d="M208.2,204.6h-4.3l-0.7,2.2h-2.8l4.2-11.2h3l4.2,11.2h-2.8L208.2,204.6z M204.6,202.4h2.9l-1.4-4.7
		L204.6,202.4z"/>
	<path class="st9" d="M217.3,202.7v4.1h-2.8v-4.1l-3.7-7.1h2.9l2.1,4.7l2.1-4.7h2.9L217.3,202.7z"/>
	<path class="st9" d="M220,205.4c0-0.4,0.1-0.8,0.4-1.1c0.3-0.3,0.6-0.5,1.1-0.5c0.5,0,0.9,0.2,1.1,0.5c0.3,0.3,0.4,0.7,0.4,1.1
		s-0.1,0.8-0.4,1.1c-0.3,0.3-0.6,0.5-1.1,0.5c-0.5,0-0.9-0.2-1.1-0.5C220.1,206.2,220,205.8,220,205.4z"/>
</g>
<g>
	<path class="st9" d="M232.7,188.4l-0.8-1.2c0.3-0.2,0.4-0.6,0.4-1v-5.5h-1.4v-1.5h2.9v6.5c0.4-0.3,0.9-0.7,1.3-1
		c0,0.2,0.1,0.5,0.1,1c0.1,0.4,0.1,0.6,0.1,0.7c-0.9,0.6-1.5,1-1.8,1.3C233.2,187.8,233,188.1,232.7,188.4z M233.3,177.8
		c-0.3-0.4-0.7-0.9-1.3-1.7c-0.3-0.4-0.5-0.6-0.7-0.8l1.3-0.8c0.2,0.2,0.4,0.5,0.8,0.9c0.6,0.7,1,1.2,1.3,1.5L233.3,177.8z
		 M235.1,176.5v-1.1h4.1v-1.1h1.6v1.1h4.3v1.1h-4.3v0.9h3.9v1h-3.9v0.9h4.6v1.1h-10.6v-1.1h4.4v-0.9h-3.8v-1h3.8v-0.9H235.1z
		 M235.7,188.6v-7.4h8.6v5.4c0.1,1.2-0.5,1.9-1.9,1.9c-0.6,0-1.4,0-2.2,0c0-0.2-0.1-0.4-0.2-0.8c0-0.2-0.1-0.3-0.1-0.4
		c0.4,0,1.1,0.1,2,0.1c0.7,0,1-0.2,1-0.8v-0.3h-5.6v2.4L235.7,188.6L235.7,188.6z M237.2,182.3v1h5.6v-1H237.2z M237.2,184.2v1h5.6
		v-1H237.2z"/>
	<path class="st9" d="M249.1,188v-1.3h4.3c-0.1-0.2-0.3-0.6-0.7-1.1c-0.3-0.5-0.5-0.8-0.7-1.1l1.7-0.4l1.4,2.5l-0.2,0.1h2.4
		c0.5-0.8,1-1.6,1.5-2.6l1.7,0.4c-0.2,0.3-0.5,0.8-0.8,1.3c-0.3,0.4-0.5,0.7-0.6,0.9h4.3v1.3H249.1z M249.9,181.6v-6.7h1.4v6.7
		H249.9z M250.3,184v-1.3h5.5c0-0.2-0.1-0.5-0.2-0.8c0-0.1-0.1-0.2-0.1-0.3l1.7-0.1c0.1,0.2,0.2,0.5,0.2,0.8c0,0.2,0.1,0.3,0.1,0.4
		h5v1.3L250.3,184L250.3,184z M253,181.8v-7.4h1.5v7.4H253z M262.8,181.6c-1.6-0.5-2.9-1-3.9-1.5c-0.9,0.5-2,0.9-3.4,1.3
		c-0.1-0.2-0.3-0.5-0.5-1c-0.1-0.2-0.2-0.3-0.2-0.4c1.2-0.3,2.1-0.6,2.9-1c-0.8-0.7-1.5-1.6-2-2.7l0.3-0.1h-0.7V175h7.4v1.3
		c-0.6,1.2-1.4,2.2-2.3,2.9c0.8,0.4,1.9,0.7,3.2,1c0,0.1-0.1,0.3-0.2,0.5C263,181.1,262.9,181.4,262.8,181.6z M260.9,176.3h-3.8
		c0.6,0.9,1.2,1.6,1.8,2.1C259.7,177.9,260.3,177.2,260.9,176.3z"/>
	<path class="st9" d="M268.5,188.7c-0.4-0.4-0.8-0.8-1.3-1.3c0.6-0.9,1-1.8,1.2-2.7c0.2-0.9,0.3-2.3,0.3-4.2v-5.6h12.5v4.1h-10.9v2
		C270.4,184.4,269.8,187,268.5,188.7z M270.3,176.2v1.5h9.4v-1.5H270.3z M271.1,182.1v-1.3h2.5c-0.1-0.2-0.3-0.4-0.5-0.7
		c-0.2-0.3-0.4-0.6-0.5-0.7l1.6-0.4c0.4,0.5,0.8,1.1,1.1,1.7l-0.2,0.1h1.7c0.4-0.7,0.8-1.3,1.1-1.8l1.6,0.4c-0.3,0.5-0.6,1-1,1.4
		h2.7v1.3h-2.2v1.7h2.9v1.3h-2.9v3.4h-1.5v-3.4h-2.9c-0.1,1.4-0.9,2.6-2.5,3.5c-0.4-0.4-0.8-0.8-1.2-1c1.4-0.8,2.1-1.6,2.1-2.6h-2.5
		v-1.3h2.6v-1.7L271.1,182.1L271.1,182.1z M274.7,182.1v1.7h2.8v-1.7H274.7z"/>
	<path class="st9" d="M286.5,176.7v-1.6h13.1v1.6h-2.6v4h3.2v1.6h-3.2v6.2h-1.7v-6.2H291c0,2.9-1.2,5.1-3.7,6.5
		c-0.2-0.3-0.7-0.7-1.3-1.3c2.3-1.1,3.4-2.8,3.3-5.2h-3.5v-1.6h3.5v-4H286.5z M291,176.7v4h4.3v-4H291z"/>
	<path class="st9" d="M309,187.3l-1.5-1.3c-0.6,0.8-1.5,1.7-2.7,2.6l-1-1.2c1.1-0.8,2-1.6,2.6-2.5l-2.1-1.9c0.3-1.2,0.6-2.6,0.9-4.4
		h-1.3v-1.4h1.5c0.1-1,0.2-1.9,0.4-2.9l1.6,0.2c-0.1,0.6-0.2,1.3-0.4,2.3c0.1-0.6,0.1-0.5-0.1,0.4h2.8v1.4c-0.2,2.7-0.6,4.8-1.3,6.1
		l1.7,1.5L309,187.3z M308.2,178.6h-1.6c-0.2,1.5-0.5,2.9-0.8,4c0.2,0.1,0.4,0.3,0.7,0.5c0.3,0.2,0.5,0.4,0.7,0.5
		C307.7,182.5,308.1,180.8,308.2,178.6z M310.3,180.7l-0.7-1.5c0.4-0.2,0.7-0.5,1.1-1c0.7-1,1.5-2.3,2.3-3.9l1.6,0.6
		c-1.1,1.8-2.1,3.2-2.9,4.2c0.7,0,1.8-0.1,3.4-0.2c-0.2,0,0,0,0.7,0c-0.1-0.2-0.2-0.4-0.4-0.7c-0.3-0.6-0.6-1-0.7-1.3l1.3-0.7
		c0.6,0.9,1.3,2.1,2.2,3.7c0.1,0.2,0.2,0.4,0.3,0.5l-1.4,0.7c-0.2-0.3-0.3-0.7-0.5-1c-2.4,0.1-4.1,0.2-4.9,0.2
		C311.2,180.5,310.7,180.5,310.3,180.7z M310.5,188.7V182h7.1v6.6H316v-0.9h-4v0.9H310.5z M312,183.4v3h4v-3H312z"/>
	<path class="st9" d="M324.1,181.4c-0.2-0.2-0.5-0.5-0.9-0.9c-0.5-0.4-0.9-0.8-1.1-1l1-1c1,0.8,1.6,1.4,2,1.8L324.1,181.4z
		 M323.8,188.5l-1.4-0.5c0.6-2,1-3.8,1.3-5.3c0,0,0.1,0,0.2,0.1c0.2,0,0.6,0.2,1.3,0.4c-0.1,0.3-0.2,0.7-0.3,1.3
		C324.4,186.3,324,187.6,323.8,188.5z M324.4,177.4c-0.6-0.6-1.3-1.3-1.9-1.9l1.1-1c0.7,0.6,1.3,1.2,1.9,1.7L324.4,177.4z
		 M325.4,178.1v-1.4h2.2c0-0.2-0.1-0.6-0.3-1.1c-0.1-0.5-0.2-0.8-0.3-1.1l1.5-0.2c0,0.2,0.1,0.5,0.2,0.9c0.2,0.6,0.3,1.2,0.4,1.6
		h1.4v1.3c0.7-1.1,1.3-2.3,1.7-3.8l1.6,0.2c-0.1,0.2-0.2,0.4-0.3,0.8c-0.2,0.4-0.3,0.8-0.4,1h3.6v1.4h-4.3c-0.1,0.2-0.3,0.6-0.5,1
		c-0.1,0.2-0.1,0.3-0.2,0.4h4.5v1.4l-1.7,1.8v0.4h2.2v1.4h-2.2v2.8c0,1.1-0.5,1.6-1.7,1.7c-0.4,0-0.9,0.1-1.6,0.1c0,0,0-0.1,0-0.2
		c0-0.3-0.1-0.7-0.2-1.3c0.5,0,1,0.1,1.3,0.1c0.6,0,0.9-0.2,0.8-0.7v-2.4h-2.3v-1.4h2.3v-0.8l1.5-1.6h-3.2v-0.8l-0.2,0.4
		c-0.3-0.3-0.7-0.6-1.1-1c0.2-0.2,0.3-0.4,0.4-0.6h-2.7l-0.1,2h2.6c0,1.6,0,3.7-0.1,6.3c0,1.2-0.6,1.7-1.7,1.7
		c-0.4,0-0.7,0.1-1.1,0.1l-0.3-1.4c0.4,0,0.7,0,0.9,0c0.6,0,0.9-0.2,0.9-0.8c0.1-1.8,0.1-3.3,0.1-4.6h-1.4v0.2
		c-0.1,3-0.6,5.3-1.7,6.9c-0.1-0.1-0.3-0.2-0.5-0.5c-0.3-0.2-0.5-0.4-0.6-0.5c0.9-1.4,1.4-3.4,1.4-6.1c0.1-1,0.1-2.2,0.1-3.5
		L325.4,178.1L325.4,178.1z"/>
	<path class="st9" d="M345.6,186.8c-0.1-0.2-0.3-0.4-0.5-0.7c-0.5-0.7-0.8-1.3-1.1-1.6c-0.6,1.2-1.6,2.5-2.9,3.7
		c-0.1-0.3-0.3-0.7-0.7-1.3c0-0.1-0.1-0.1-0.1-0.2c1.2-1.1,2.1-2.4,2.8-3.7c-0.4-0.7-1.1-1.7-2-3.1c-0.2-0.3-0.4-0.6-0.5-0.7
		l1.2-0.8c0.2,0.3,0.6,0.8,1,1.4c0.5,0.6,0.8,1.1,1,1.4c0.4-1.1,0.6-2.5,0.8-4h-3.9v-1.4h5.4v1.4c-0.3,2.2-0.7,4-1.3,5.5l2,3l-1,0.7
		c1.1-0.6,2.2-1.3,3.2-2.2c-0.4-1.2-0.6-2.7-0.7-4.6l-1.9,0.2l-0.1-1.5l2-0.2c-0.1-1.8-0.1-3.2-0.1-4.1h1.6c0,0.2,0,0.6,0,1.3
		c0,1.2,0.1,2,0.1,2.6l4.7-0.5l0.1,1.4l-4.7,0.5c0.1,1.7,0.3,2.9,0.5,3.6c0.8-0.9,1.7-1.9,2.5-3.1l1.3,0.9c-1,1.5-2.1,2.8-3.2,3.8
		l0.1,0.4c0.4,1.2,0.9,1.7,1.4,1.7c0.3,0,0.5-0.2,0.7-0.7c0.1-0.3,0.2-0.9,0.4-1.6c0-0.2,0.1-0.4,0.1-0.5c0.4,0.3,0.9,0.5,1.4,0.7
		c-0.2,1-0.4,1.8-0.6,2.4c-0.3,0.9-0.9,1.3-1.8,1.3c-1.2,0-2.1-0.7-2.8-2.3l-0.1-0.1c-0.8,0.6-1.8,1.2-2.8,1.9
		c-0.4-0.5-0.7-0.9-1-1.3L345.6,186.8z M352.9,177.5c-0.6-0.6-1.4-1.1-2.3-1.7l0.9-1c1,0.6,1.8,1.1,2.4,1.6L352.9,177.5z"/>
</g>
<g>
	<path class="st9" d="M236.3,195.9h-5.2v-1.3h2.1l-0.3-0.8c-0.1-0.3-0.3-0.6-0.4-0.8l1.4-0.2l0.1,0.2c0.2,0.4,0.4,0.9,0.6,1.5h1.7
		L236.3,195.9L236.3,195.9z M231.5,196.9h4.5v1.2h-4.5V196.9z M231.5,199.2h4.5v1.2h-4.5V199.2z M231.6,201.6h4.4v5.3h-1.3v-0.7
		h-1.8v0.8h-1.3V201.6z M234.7,202.8h-1.8v2.2h1.8V202.8z M241.5,195.8h3.2v1.1h-3.2v0.8h3.8v1.2h-8.9v-1.2h3.7v-0.8h-3v-1.1h3v-0.7
		h-3.4v-1.2h3.4v-1.1h1.4v1.1h3.5v1.2h-3.5L241.5,195.8L241.5,195.8z M244.4,205v0.2c0,0.5-0.1,0.9-0.3,1.2
		c-0.2,0.3-0.6,0.4-1.2,0.4h-1.6l-0.3-1.2l1.5,0.1c0.3,0,0.5-0.2,0.5-0.5v-0.6h-4.7v2.4H237v-7.4h7.4V205z M238.4,201.6h4.7v-0.8
		h-4.7V201.6z M238.4,203.5h4.7v-0.9h-4.7V203.5z"/>
	<path class="st9" d="M260,204.4l-0.3,0.6l-0.3,0.5h4.1v1.1h-14.1v-1.1h4.3l-0.3-0.5c-0.1-0.2-0.2-0.3-0.4-0.5h-1.8v-2.9h10.6v2.9
		H260z M256.6,198.1v1H250v-5.8h6.5v1h-2v0.7h2v2.3h-2v0.8L256.6,198.1L256.6,198.1z M250.1,200.9v-1.1H263v1.1H250.1z M253.4,195.1
		v-0.7h-2.1v0.7H253.4z M251.3,196.6h4.1v-0.7h-4.1V196.6z M253.4,198.1v-0.8h-2.1v0.8H253.4z M260.6,202.4h-8v0.9h8V202.4z
		 M254.5,204.4l0.3,0.5l0.3,0.6h2.9l0.1-0.2c0.1-0.1,0.2-0.3,0.2-0.4l0.2-0.5L254.5,204.4L254.5,204.4z M257,194.6v-1.2h5.7v1
		c-0.5,1.1-1.1,2.1-1.8,2.8c0.6,0.4,1.3,0.7,2.2,1c0.1,0,0.3,0.1,0.5,0.2l-0.6,1.3c-1.2-0.4-2.2-0.9-3.1-1.6
		c-0.6,0.4-1.2,0.8-2.1,1.1c-0.1,0-0.3,0.1-0.4,0.1l-0.6-1.2c0.8-0.1,1.5-0.4,2.1-0.8c-0.3-0.2-0.6-0.5-0.8-0.9l-0.8-1l1-0.7
		l0.8,0.9c0.3,0.3,0.6,0.6,0.8,0.8c0.5-0.5,1-1.1,1.4-1.9H257z"/>
	<path class="st9" d="M270.6,198c0,3.5-0.5,6.5-1.4,9l-1.4-1c0.6-1.5,0.9-2.9,1.1-4.3c0.1-1.4,0.2-2.9,0.2-4.4v-3.9h12v3.9h-10.5
		V198z M270.6,195.9h9.1v-1.4h-9.1V195.9z M281.4,199.2v1.3H279v1.6h2.9v1.3H279v3.6h-1.4v-3.6H275c-0.2,0.8-0.5,1.5-0.9,2.1
		s-1.1,1-2,1.5l-1-1.2c1.3-0.5,2.2-1.3,2.5-2.3h-2.9v-1.3h3l0-0.8v-0.8h-2.4v-1.3h2.4l-0.5-0.7l-0.6-0.8l1.4-0.4l0.7,0.9
		c0.2,0.2,0.3,0.4,0.5,0.7c0.1,0.1,0.1,0.2,0.2,0.3h1.9c0.5-0.5,0.9-1,1.3-1.7c0,0,0.1-0.1,0.1-0.2l1.4,0.4l-0.5,0.8
		c-0.1,0.2-0.3,0.3-0.5,0.6c0,0-0.1,0.1-0.1,0.1L281.4,199.2L281.4,199.2z M275.2,200.5v0.8l0,0.8h2.5v-1.6H275.2z"/>
	<path class="st9" d="M292.5,198.5h-4.6v8.5h-1.4v-13.6h6.1V198.5z M291.1,194.5h-3.3v0.9h3.3V194.5z M287.8,197.4h3.3v-1h-3.3
		V197.4z M295.2,202.1h2.2v1.2h-2.2v3.3H294v-3.3h-1.8c-0.1,1.4-0.9,2.5-2.4,3.4l-1-1c0.1-0.1,0.2-0.1,0.3-0.2
		c1.1-0.6,1.7-1.3,1.8-2.3h-2.2v-1.2h2.3v-1.6h-1.8v-1.2h7.9v1.2h-1.7L295.2,202.1L295.2,202.1z M294,200.5h-1.7v1.6h1.7V200.5z
		 M297.8,205.5c0.3,0,0.5-0.2,0.5-0.5v-6.5h-4.7v-5.1h6.1V205v0.4c0,0.9-0.5,1.4-1.4,1.4h-1.7l-0.4-1.4L297.8,205.5z M294.9,195.4
		h3.4v-0.9h-3.4V195.4z M298.3,196.4h-3.4v1h3.4V196.4z"/>
	<path class="st9" d="M306.2,195.7l0.2-1.3l0.1-1.4l1.4,0l-0.2,1.5l-0.2,1.2h2.5v1c-0.2,2.3-0.6,4.3-1.3,6.1c0.5,0.4,1,0.9,1.6,1.5
		l-0.9,1.2l-0.7-0.8L308,204c-0.8,1.1-1.6,2.1-2.4,2.8l-1.2-1c1-0.7,1.9-1.6,2.5-2.7l-1.1-0.8l-1.2-0.9c0.5-1.2,0.9-2.7,1.3-4.4
		h-1.7v-1.3L306.2,195.7L306.2,195.7z M306.9,201.4c0.3,0.2,0.5,0.4,0.7,0.5c0.5-1.3,0.8-2.8,1-4.5c0-0.1,0-0.3,0.1-0.5h-1.3
		l-0.4,1.9c-0.2,0.8-0.4,1.5-0.7,2.1L306.9,201.4z M316,194.9l0.4,0.6c0.8,1.1,1.4,2.3,2.1,3.7l-1.3,0.8l-0.3-0.6l-0.3-0.6
		c-1.1,0.2-2.2,0.4-3.2,0.4c-1.1,0-2.2,0.1-3.3,0.2l-0.2-1.5l0.4,0l0.4,0c0.8-1.5,1.4-3.1,1.9-4.9l1.5,0.2c-0.1,0.3-0.2,0.6-0.3,0.8
		c-0.5,1.6-1.1,2.9-1.6,3.9l1.8-0.1c0.9-0.1,1.5-0.2,1.8-0.2l-0.6-1c-0.3-0.5-0.5-0.8-0.7-1.1L316,194.9z M310.6,200.4h6.9v6.6h-1.4
		v-0.8H312v0.8h-1.4V200.4z M316.2,201.7H312v3.1h4.2V201.7z"/>
	<path class="st9" d="M322.9,200.5l0.2-0.2c0.8-1.2,1.3-2.1,1.6-2.7h-1.9v-1.2h3.4v1c-0.1,0.2-0.1,0.3-0.2,0.4
		c-0.4,0.9-0.9,1.7-1.4,2.5h1.6v0.9l-0.2,1.2c-0.1,0.6-0.2,1-0.3,1.2c0.4,0.8,1.1,1.4,2,1.6c0.9,0.2,2.5,0.3,4.8,0.3
		c1.2,0,2.4,0,3.5-0.1c0.2,0,0.5,0,0.7,0l-0.2,1.4h-3.7c-2.9,0-4.8-0.1-5.6-0.3s-1.6-0.8-2-1.6c-0.1,0.1-0.2,0.3-0.2,0.4
		c-0.4,0.7-0.9,1.3-1.4,1.7l-0.9-0.9c1.2-1.2,1.9-2.7,2.2-4.5h-1.9L322.9,200.5L322.9,200.5z M324.9,195.9l-0.9-1.1
		c-0.3-0.3-0.6-0.7-1-1l0.9-0.7c0.1,0.1,0.3,0.2,0.4,0.3c0.6,0.5,1.1,1,1.7,1.6L324.9,195.9z M328.8,196v0.6l0,0.8h2.2
		c0,0.8,0,1.5,0,1.9c0,1.8,0,2.7,0,2.9c0,1.5-0.6,2.3-1.9,2.3h-0.3c0,0-0.1,0-0.1,0l-0.4-1.4c0.2,0,0.4,0.1,0.6,0.1
		c0.1,0,0.2,0,0.3,0c0.1,0,0.2-0.1,0.3-0.1c0.2-0.2,0.3-1.2,0.3-3.2v-0.2v-0.2c0-0.4,0-0.7,0-0.7h-1c-0.1,2.2-0.6,4.1-1.5,5.6
		l-1-0.8c0.9-2,1.3-4.4,1.3-7.1v-0.3V196h-1v-1.2h1.8l-0.3-0.8c-0.1-0.2-0.2-0.4-0.2-0.6l-0.1-0.2l1.3-0.2l0.4,0.9
		c0.1,0.2,0.2,0.6,0.3,0.9h1.7v1.1c0.7-0.8,1.3-1.8,1.8-3l1.2,0.4l-0.3,0.8c-0.1,0.2-0.2,0.4-0.3,0.6h3v1.3h-3.8l-0.6,0.7
		c-0.2,0.3-0.5,0.5-0.7,0.7l-0.9-0.9l0.4-0.4L328.8,196L328.8,196z M336.7,201.4h-2.1v1.5v0.2c0,0.6-0.1,1-0.4,1.2
		c-0.2,0.2-0.7,0.4-1.4,0.4h-0.8l-0.3-1.4l1.1,0.1c0.3,0,0.5-0.2,0.5-0.5v-1.5h-1.8v-1.3h1.8v-0.5l0.2-0.2c0.3-0.3,0.6-0.7,0.9-1.1
		l0.1-0.1h-2.7V197h4.1v1.1c-0.3,0.6-0.8,1.2-1.4,1.8v0.3h2.1L336.7,201.4L336.7,201.4z"/>
	<path class="st9" d="M345.9,206.5c-1,0-2,0.1-3.1,0.2l-0.2-1.2h1l0.9,0l-0.3-0.6l-0.3-0.6l1.2-0.2c0,0.1,0.1,0.1,0.1,0.2
		c0.1,0.2,0.2,0.4,0.2,0.5l0.3,0.7l0.6,0l0.5,0l0.3-0.7c0.1-0.2,0.1-0.3,0.2-0.5c0,0,0-0.1,0-0.1l1.2,0.2l-0.2,0.5l-0.2,0.5l0.6-0.1
		l0.5-0.1c0.6-0.5,1.2-1.1,1.8-1.9c-0.3-1.2-0.5-2.2-0.5-3.1c0-0.9,0-1.4-0.1-1.7h-1.4v-0.5l-1.2-0.4c0.2-0.4,0.3-0.8,0.4-1.2
		c0,0,0-0.1,0-0.1h-2.5v0.7l1.8-0.1l0,0.9l-1.8,0.1v0.1c0,0.3,0.2,0.4,0.5,0.4h2.6v0.9H346h-0.4c-0.7-0.1-1-0.5-1-1.2v-0.2l-1.2,0.1
		l0-0.9l1.3-0.1v-0.8h-1.7v3.1c0,2.9-0.3,5.5-0.9,7.7l-1.2-1c0.5-2,0.8-4.7,0.8-8V195h2.7v-2.2h1.3v0.6h3.6v1h-3.6v0.6h4
		c-0.1,0.7-0.1,1.3-0.3,1.8c0,0,0,0.1,0,0.1h1.1l0-1.9l0-2.2h1.3v2.2c0,0.9,0,1.6,0,2h3.2v1.3h-3.2c0.1,0.5,0.1,1,0.1,1.6l0.2,1.9
		c0.3-0.5,0.6-0.9,0.8-1.4l0.6-1.3l1.1,0.5c-0.5,1.2-1.2,2.5-2,3.8c0,0.1,0.1,0.2,0.1,0.3c0.4,1.1,0.7,1.7,0.9,1.7
		c0.2,0,0.3-0.7,0.3-2.1l1.2,0.9c-0.2,1.9-0.7,2.8-1.5,2.8c-0.7,0-1.4-0.8-2-2.5c-0.1,0.2-0.3,0.3-0.3,0.4c-0.5,0.6-1.2,1.3-2,2
		l-0.3-0.6C347.7,206.4,346.7,206.5,345.9,206.5z M343.4,199.5h6.2v1h-6.2V199.5z M343.6,201.2h5.8v2.6h-5.8V201.2z M348.1,202.1
		h-3.3v0.8h3.3V202.1z M353.4,196.3c-0.2-0.5-0.5-1.1-0.9-1.9c-0.1-0.1-0.1-0.2-0.2-0.3l1.1-0.5c0.4,0.6,0.8,1.1,1,1.7
		c0.1,0.1,0.1,0.2,0.2,0.4L353.4,196.3z"/>
</g>
</svg>
