<?xml version="1.0" encoding="utf-8"?>
<!-- Generator: Adobe Illustrator 22.1.0, SVG Export Plug-In . SVG Version: 6.00 Build 0)  -->
<svg width="1800px" height="623px" version="1.1" id="background" xmlns="http://www.w3.org/2000/svg" xmlns:xlink="http://www.w3.org/1999/xlink" x="0px" y="0px"
	 viewBox="0 0 1800 622.9" style="enable-background:new 0 0 1800 622.9;" xml:space="preserve">
<style type="text/css">
	.st0{fill:#EA9A00;}
	.st1{fill:#DB5120;}
	.st2{fill:#AF2A00;}
	.st3{fill:#671400;}
	.st4{fill:#440D00;}
</style>
<g>
	<g>
		<path class="st0" d="M155.9,142v1.2c0,0.9,0.1,2.1,0.2,3.5c0.1,0.7,0.1,1.4,0.2,2.1l-0.1-1.8c-0.1-1.6-0.2-2.9-0.2-4.3
			c0,0,0,0,0-0.1C155.9,142.4,155.9,142.2,155.9,142L155.9,142z"/>
		<path class="st0" d="M1697.6,296.1c-0.8,0.1-1.6,0.2-2.2,0.5c-1.2,0.4-2.6,0.8-3.7,1.6c-0.6,0.4-1.1,0.7-1.6,1.2
			c-0.6,0.5-1,1-1.5,1.5c-0.9,1-1.7,2-2.2,3c-1.5,2.3-2.5,4.8-3.6,7.3c-0.2,0.6-0.4,1.1-0.2,1.8c0.2,0.6,0.7,1.1,1.2,1.4
			c0.6,0.3,1.3,0.4,2,0.2c0.6-0.1,1.3-0.6,1.6-1.1c0.7-1.6,1.5-3.2,2.2-4.7c0.7-1.2,1.3-2.5,2.1-3.6c0.8-0.8,1.6-1.6,2.5-2.3
			c0.2-0.1,0.3-0.2,0.6-0.3v-0.1c0.2-0.2,0.6-0.3,0.8-0.4c0.6-0.2,1.1-0.3,1.8-0.4c0.2,0,0.6,0,0.8,0h0.1c0.1,0,0.2,0.1,0.4,0.1
			c0.1,0.1,0.1,0.1,0.2,0.2c0.1,0,0.1,0.1,0.2,0.1c-0.1,0-0.1-0.1-0.2-0.1c0.2,0.2,0.4,0.4,0.6,0.6c0.4,0.6,0.9,1.2,1.2,1.9
			c0.7,1.4,1.2,2.9,1.7,4.1c0.7,1.8,1.2,3.7,1.7,5.9c0.4,2.1,0.8,3.8,1.2,5.3l0.2,0.8v0.2c0.3,1.3,0.7,2.6,0.9,3.8v0.1l0.1,0.3v0.2
			l0.1,0.5v0.2c0.1,1,0.3,2.1,0.6,3.1c0.1,0.6,0.3,1.2,0.6,1.8v0.1l0.1,0.3c0.1,0.3,0.2,0.6,0.2,0.9c0.3,1,0.4,2,0.7,2.9v0.2
			c0.1,0.6,0.2,1.3,0.4,1.9c0.1,0.4,0.2,0.8,0.3,1.3c0.1,1.1,0.2,2.1,0.2,3.2l0.1,1.2c0,0.8,0.1,1.6,0.2,2.3
			c0.2,1.2,0.4,2.5,0.8,4.1l0.1,0.4v0.2c0.2,0.8,0.4,1.6,0.6,2.5s0.3,1.9,0.4,2.8c0.1,0.5,0.2,0.9,0.2,1.4c0.1,0.3,0.1,0.6,0.2,0.9
			l0.1,0.8c0.2,1.3,0.4,2.6,0.7,3.8c0.3,2,0.8,3.8,1.8,5.4c0.2,0.4,0.7,0.8,1.2,1l0,0c0.7,0.3,1.6,0.4,2.4,0.2
			c1.7-0.4,2.6-2,2.2-3.5c-0.3-1.2-0.6-2.4-0.9-3.6c-0.2-1.4-0.4-2.7-0.6-4.1c-0.2-1.7-0.6-3.3-0.9-4.9c-0.2-1.3-0.4-2.6-0.8-3.9
			c-0.2-1.1-0.6-2.1-0.8-3.2c-0.2-1.7-0.2-3.5-0.3-5.2c-0.1-1.2-0.2-2.4-0.4-3.7c-0.1-0.8-0.3-1.5-0.4-2.3c-0.2-1.4-0.4-2.7-0.8-4
			c-0.3-1.1-0.7-2.2-0.9-3.4c-0.2-2-0.4-4.1-0.9-6.1c-0.4-1.8-0.9-3.5-1.3-5.3c-0.4-2-0.9-4-1.5-5.9c-0.6-2-1.7-3.9-2.6-5.8
			c-0.4-1.1-1-2.1-1.7-3.1c-0.8-1.3-1.9-2.4-3.1-3.3c-0.3-0.3-0.7-0.5-1.1-0.7s-1.1-0.4-1.6-0.5s-1-0.2-1.6-0.2
			C1698.2,296,1697.9,296.1,1697.6,296.1 M1691.6,305c0-0.1,0.1-0.1,0.1-0.2C1691.7,304.9,1691.6,305,1691.6,305
			C1691.6,305.1,1691.6,305,1691.6,305 M1691.5,305.1c-0.1,0.1-0.2,0.2-0.3,0.4C1691.3,305.4,1691.4,305.3,1691.5,305.1"/>
		<path class="st0" d="M1695.8,286.5c-0.8,0-1.7,0.3-2.2,0.9c-0.6,0.5-1,1.3-0.9,2.1c0.2,1.8,0.4,3.5,0.9,5.3c0.4,1.6,1.2,3.4,3,4.2
			c0.6,0.3,1.1,0.4,1.7,0.4c0.6,0.2,1.2,0.4,1.8,0.4c0.2,0,0.4,0,0.6-0.1c0.7,0.4,1.2,0.7,1.9,1c1.5,0.7,3.3,0.5,4.4-0.5
			c0.7-0.6,1-1.5,1-2.3s-0.3-1.8-1.1-2.2c-1.1-0.8-2.1-1.5-3.3-2.3c-0.4-0.3-0.9-0.6-1.5-0.9c-0.3-0.2-0.7-0.4-1-0.5
			c-0.7-0.3-1.1-0.4-1.7-0.5c-0.1-0.7-0.2-1.4-0.2-2.1c-0.1-0.8-0.3-1.4-1-2C1697.5,286.8,1696.7,286.5,1695.8,286.5L1695.8,286.5z
			 M1700.3,294.4l0.1,0.1C1700.4,294.5,1700.4,294.5,1700.3,294.4"/>
		<path class="st1" d="M1799.7,290.6c-0.2-0.4-0.4-0.7-0.7-1.1c-0.4-0.5-0.7-0.8-1.1-1.1c-0.4-0.4-0.9-0.7-1.3-1l-0.3-0.2l-0.1-0.1
			c-0.9-0.6-2-1.3-3-1.8c-0.2-0.1-0.4-0.1-0.6-0.2c-0.1,0-0.3,0-0.4,0h-0.1c-0.6,0.1-1.1,0.2-1.7,0.4c-1.3,0.5-2.6,1.2-3.9,2
			l-0.1,0.1l-0.1,0.1c-0.6,0.4-1.1,0.9-1.7,1.4c-0.7,0.6-1.2,1.2-1.8,1.9c-1.2,1.4-2.2,2.9-3.3,4.4c-0.8,1.2-1.5,2.5-2,3.6l-0.1,0.2
			l-0.2,0.5l-0.3,0.7c-0.7,1.3-1.3,2.6-2,3.9l-0.1,0.3l-0.1,0.3l-0.2,0.4l-0.1,0.1l-0.1,0.3c-0.8,1.6-1.7,3.3-2.6,5.1
			c-0.3,0.9-0.8,1.8-1.1,2.7l-0.2,0.6l-0.1,0.2l-0.1,0.2l-0.1,0.1l-0.1,0.2c-0.6,1.3-1.1,2.7-1.7,4c-0.3,0.7-0.8,1.5-1.3,2.4
			c-0.4,1.3-0.8,2.4-1,3.6c-0.1,1.3-0.3,2.7-0.4,4c-0.1,0.7-0.1,1.3-0.2,2v0.2c-0.2,2.8-0.7,5.3-1.1,7.8c-0.3,1.9-0.8,4.2-1.5,6.5
			c-0.7,2.3-1.3,4.6-1.9,6.6l-0.1,0.3c-1.3,4.3-3.1,9.2-6.5,13.5c-1.1,1.5-2.2,2.7-3.3,3.9l-0.7,0.7c-1.1,1.3-2.2,2.5-3.5,3.6
			c-1.6,1.4-3.4,2.6-5.5,3.6c-1.5,0.7-2.7,1.1-3.8,1.4c-1.5,0.4-3,0.6-4.6,0.6c-1.1,0-2.1-0.1-3.1-0.4c-1.3-0.3-2.7-0.8-4.1-1.5
			c-3.5-1.5-6.4-4.2-8-7.4c-0.2-0.5-0.6-1.1-0.8-1.7c-0.6-0.3-0.9-0.6-1.2-1c-1-1.6-1.5-3.4-1.8-5.4c-0.2-1.3-0.4-2.6-0.7-3.8
			l-0.1-0.8c-0.1-0.3-0.1-0.6-0.2-0.9c-0.1-0.5-0.2-0.9-0.3-1.4c-0.2-0.9-0.3-1.9-0.4-2.8c-0.1-0.8-0.3-1.7-0.6-2.5v-0.2l-0.1-0.4
			c-0.3-1.5-0.7-2.8-0.8-4.1c-0.1-0.8-0.1-1.6-0.2-2.3l-0.1-1.2c0-1-0.1-2.1-0.2-3.2c-0.1-0.4-0.2-0.8-0.3-1.3
			c-0.1-0.6-0.3-1.3-0.4-1.9v-0.2c-0.1-0.9-0.3-1.9-0.7-2.9c-0.1-0.3-0.2-0.6-0.2-0.9l-0.1-0.3v-0.1c-0.2-0.6-0.3-1.2-0.6-1.8
			c-0.2-1-0.4-2.1-0.6-3.1v-0.2l-0.1-0.5v-0.2l-0.1-0.3v-0.1c-0.2-1.2-0.6-2.6-0.9-3.8v-0.2l-0.2-0.8c-0.3-1.6-0.8-3.2-1.2-5.3
			c-0.4-2.2-1-4.2-1.7-5.9c-0.4-1.3-1-2.7-1.7-4.1c-0.3-0.7-0.8-1.3-1.2-1.9c-0.2-0.3-0.6-0.5-0.8-0.8c-0.2-0.1-0.3-0.1-0.4-0.1
			h-0.1c-0.2,0-0.6,0-0.8,0c-0.7,0.1-1.2,0.3-1.8,0.4c-0.2,0.1-0.6,0.3-0.8,0.4l-0.3,1c-0.1,0.4-0.9,2.7-1.7,5.1
			c-0.4,1.4-1.1,2.7-1.7,4.1c-0.6,1.2-1.1,2.5-1.7,4c-0.3,0.9-0.8,1.8-1.1,2.7c-0.9,2.1-1.9,4.1-3.4,6.7c-0.6,1.1-1.2,2-1.9,3
			c-1.1,1.4-2,2.3-3.1,2.9c-1.2,0.7-2.6,1.2-4,1.4l-0.8,0.1c-1.1,0.2-2.5,0.4-3.8,0.4c-0.1,0-0.3,0-0.4,0h-0.1
			c-0.9,0-1.8-0.1-2.6-0.3c-0.8-0.2-1.5-0.4-2-0.7c-0.9-0.5-1.6-1-2.4-1.5c-1.3-1-2.4-2.3-3.3-3.3l-0.1-0.1c-0.8-0.8-1.7-1.9-2.4-3
			c-0.3-0.6-0.7-1.1-1.1-1.7l-0.1-0.1l-0.1-0.2c-0.3-0.6-0.8-1.2-1.1-1.8c-0.2-0.4-0.4-0.7-0.7-1l-0.2-0.4c-0.4-0.7-0.9-1.4-1.3-2.1
			c-1.7-2.7-2.8-5.7-3.6-8.4l-0.1-0.5c-0.3-1.2-0.8-2.3-0.9-3.5c-0.2-1-0.3-2-0.4-3c-0.1-0.7-0.1-1.2-0.2-1.7l-0.1-0.6v-0.2
			c-0.2-1.1-0.4-2.3-0.6-3.4c-0.1-1-0.2-2.1-0.4-3.3l-0.1-0.7c-0.2-0.9-0.4-2.2-0.6-3.3c-0.1-0.7-0.1-1.3-0.1-2v-1v-0.3
			c-0.3-0.7-0.7-1.3-0.9-1.8l-0.4-1.2c-0.6-1.3-1.2-3-1.6-4.6c-0.3-1.2-0.6-2.4-0.7-3.6v-0.3c0-0.2,0-0.3-0.1-0.5
			c0-1.5,0-2.7,0.1-3.9l0.1-0.7c0.1-0.7,0.1-1.3,0.2-2V267v-0.2c-0.1-0.5-0.2-0.9-0.2-1.4c-0.4-2.7-1.3-5.2-2.2-7.7
			c-0.9-2.5-1.7-5-2.6-7.5c-0.2-0.2-0.6-0.4-0.8-0.6l-0.1-0.1c-0.7-0.4-1.2-0.7-1.9-1.1c-0.8-0.4-1.6-0.8-2.6-1.2
			c-0.4-0.1-0.9-0.3-1.6-0.4l0.3,0.2c-0.7-0.1-1.3-0.2-2.2-0.2c-0.7,0-1.3,0-1.9,0c-0.6,0.1-1.1,0.2-1.8,0.3c-0.6,0.1-1.2,0.3-2,0.5
			l-0.7,0.1h0.9c-0.9,0.2-1.8,0.7-2.8,1.3c-1.1,0.7-2.1,1.5-2.9,2.3c-1,0.9-2.1,1.9-3,2.9c-1,1.2-2,2.5-2.8,3.9c-0.6,1-1.1,2-1.6,3
			l-0.2,0.6l-1.1,2.4c-1.7,4.1-3.1,7.8-4.4,11c-0.7,1.8-1.5,3.7-2.1,5.5l-0.4,1.3l-0.2,0.5c-1,2.8-2.1,5.7-4.1,8.1l-0.6,0.7
			c-1.2,1.5-2.5,3-4.3,4l-0.3,0.2c-1.2,0.7-2.1,1.2-3.1,1.7c-1.6,0.7-3,1.3-4.4,1.9l-0.3,0.1l-2.7,0.9l-2.1,0.6
			c-1,0.2-2,0.3-2.9,0.4l-2.4,0.2c-1-0.1-2-0.1-3-0.3l-1.3-0.5c-1.5-0.4-2.9-1.1-4.3-1.9c-2.2-1.4-4.4-2.7-6.4-4
			c-1.1-0.8-2.5-1.7-3.6-2.7c-1.1-0.9-2.2-2-3.1-3.3l-0.1-0.2l-0.6-0.6c-1.1-1.3-2-2.7-2.7-4.3l-0.1-0.3l-0.2-0.6
			c-0.2-0.7-0.4-1.4-0.6-2.2c-0.2-1-0.4-1.9-0.7-2.9l-0.1-0.6c-0.1-0.5-0.2-1-0.3-1.6l-0.1-0.3l-0.1-0.7l-0.2-0.9l-0.2-1.1l-0.1-0.7
			c-0.6-2.2-1-4.5-1.6-6.7c-0.4-2.2-0.9-4.4-1.3-6.8l-0.1-0.4l-0.1-0.4l-0.1-0.4l-0.1-0.3l-0.1-0.4l-0.1-0.6l-0.3-2
			c-1-5.5-2-11.6-2.8-16v-0.2l-0.1-0.7l-0.2-1.1l-0.1-0.5v-0.1v-0.1l-0.1-0.9l-0.6-3.6c-0.7-4-1.5-8.4-2.2-12.1l-0.1-0.5l-0.1-0.4
			l-0.1-0.3l-0.1-0.7l-0.1-0.3l-0.2-1.1l-0.2-1.2l-0.2-1l-0.2-0.9c-0.3-1.7-0.7-3.5-1-5.2c-0.3-2-0.7-3.8-0.9-5.8l-0.2-2.1l-0.3-2.2
			l-0.1-0.8c-0.1-0.5-0.2-1.1-0.2-1.6l-0.2-3.2l-0.2-3.2c-0.1-1.2-0.1-2.4-0.1-3.6v-0.2V183v-1.4c0-1.4,0-3.1,0.1-4.8l0.1-1.8
			c0.1-1.4,0.2-2.7,0.3-3.9l0.1-0.6c0.1-1.3,0.3-3.4,0.3-5.5c0-1.8,0-3.5-0.1-5.3c-0.1-4.3-0.3-8.3-0.4-12.3c0-0.5,0-0.9-0.1-1.4
			v-0.2v-0.3v-0.1v-0.2v-0.3c-0.1-1.5-0.1-2.4-0.1-3.5v-6.6c0-1.6,0.1-3.4,0.1-4.7v-0.3l0.1-1.5c0.1-1.5,0.1-3,0.3-4.6
			c0-0.6,0.1-1.1,0.1-1.7v-0.5v-0.3c0.1-1.1,0.2-2.4,0.2-3.6l0.1-1.4v-0.1c0.1-1.7,0.2-3.9,0.1-6c-0.1-1.8-0.3-3.7-0.6-5.7l-0.2-1.5
			l-0.2-1.5l-0.3-1.7l-0.1-0.2l-0.2-0.9c-0.2-1.1-0.6-2.2-0.8-3.3c-0.7-3.1-1.1-6.3-1.6-9.3c-0.4-3.6-0.8-7.3-1.1-10.5v-0.2v-0.2
			v-0.3c-0.2-2.4-0.6-6.1-1.1-10l-0.1-0.4v-0.1v-0.2c-0.4-2.3-0.9-4.9-1.7-7.4c-0.4-1.8-1.1-3.6-1.9-5.4l-0.4-0.9l-0.4-0.9
			c-0.9-1.8-1.7-3.4-2.5-4.8c-1-1.7-2-3.3-2.9-4.8l-1.2-1.8l-1.2-1.8c-2.6-3.7-4.9-6.9-7.3-9.7c-1.6-1.8-3.1-3.5-4.8-5
			c-2-1.7-3.9-3.1-5.8-4.5c-1.6-1.1-3.4-2.3-5.5-3.4c-1.3-0.8-2.9-1.6-4.6-2.3l-1.2-0.5l-1-0.5c-1.5-0.5-2.8-0.9-4-1.1h-0.1
			l-0.6-0.1h-0.2h-0.2L1478,9c-1-0.1-2.1-0.2-3.4-0.2c-0.3,0-0.7,0-1,0c-0.8,0-1.6,0.1-2.5,0.1h-0.2h-0.1h-1.2
			c0.1,0.1,0.1,0.2,0.1,0.2h-0.1c-0.2,0-0.6,0-0.8,0.1h-0.2h-0.3h-0.3h-0.1h-0.1h-0.1h-0.1h-0.1h-0.1h-0.1c-1.8,0.2-3.3,0.4-4.8,0.8
			c-1.8,0.3-3.7,0.8-5.7,1.3l-0.8,0.3l-0.9,0.3c-1.6,0.6-3.1,1.4-4.5,2.3c-3,2.1-6.6,4.6-9.8,7.5c-1.5,1.3-2.8,2.7-4.5,4.2l-0.1,0.1
			l-0.1,0.1l-0.1,0.2c-1,0.9-1.9,1.8-2.6,2.6l-1.7,1.8l-1.7,1.8l-0.8,1l-0.2,0.3c-2,2.5-4.6,5.6-6.8,8.9c-2.9,4.3-5.7,9.1-8.3,14.3
			c-1.8,4.4-3.1,9-4,12.5l-0.8,2.9v0.2v0.1v0.2V73c-1,4-2.4,9.1-3.3,13.8c-0.2,1.7-0.4,3.4-0.6,5.1c-0.1,1.8-0.1,3.6-0.1,5.5v0.4
			c0,1.2,0,2.4,0.1,3.6v0.5v1.2v0.4v0.1v0.4c0,1.2,0.1,2.4,0.1,3.6v1.1v0.2v0.5v0.3c0,1,0.1,2.5,0,4v0.2c-0.1,2.7-0.3,5.5-1.1,8.1
			c-0.3,1.4-0.9,2.8-1.5,4.1c-0.3,0.8-0.7,1.5-1.1,2.3c-0.6,1-1.2,2.1-2,3.1l-1.5,2.1c-0.7,0.9-1.5,1.8-2.2,2.8l-0.7,0.7l-1.1,1.2
			c-1,0.8-2,1.5-2.9,2.1l-1.1,0.5l-0.4,0.2c-1.1,0.5-2.4,0.8-3.8,1l-0.9,0.1c-1.3,0.1-2.1,0.2-2.9,0.2c-0.7,0-1.3-0.1-2-0.2
			c-0.9-0.1-1.8-0.3-2.7-0.7l-1.5-0.9c-1-0.6-1.7-1.4-2.1-2.3c-0.9-2-1.6-3.6-2-5.1c-0.3-1.1-0.4-2.4-0.7-3.3v-0.2l-0.1-0.6
			c-0.7-4.3-1.5-7.9-2.6-11.1c-1.2-3.7-2.5-7.4-4.1-11.7c-0.4-1.1-0.9-2.3-1.5-3.5c-0.3-0.6-0.7-1.2-1-1.8c-0.8-1.2-1.7-2.5-2.6-3.5
			c-0.7-0.7-1.2-1.5-1.9-2.2c-0.7-0.8-1.6-1.4-2.5-2.1c-1.3-0.9-2.7-1.6-4-2.2c-1-0.4-2.1-0.7-3.5-1c-0.7,0-1.3,0.1-2.1,0.2
			l-0.8,0.1h-0.1c-0.8,0.1-1.6,0.2-2.4,0.3c-2.4,1-4.9,2.3-8.1,3.8c-3.3,1.6-7.4,3.8-11.3,6.3c-3,2.1-5.8,4.5-8.1,6.5
			c-0.6,0.6-1.2,1.1-1.8,1.7c-1.1,1.3-2.4,2.7-3.5,4l-0.3,0.4l-0.3,0.3l-0.4,0.5c-0.4,0.5-0.8,1.1-1.2,1.6
			c-2.4,3.5-4.7,7.4-6.9,12.1c-0.9,2-2.1,4.6-3,7.2l-0.6,1.6l-0.6,1.6c-0.1,0.2-0.1,0.5-0.2,0.8l-0.2,0.5l-0.1,0.2l-0.1,0.3v0.1
			c-0.4,1.1-0.8,2.3-1.1,3.4l-2.2,8.2c-0.2,1-0.6,2.1-0.7,3v0.2v0.2v0.1l-0.2,0.9v0.2l-0.2,1l-0.2,0.8v0.2v0.2l-0.1,0.5
			c-0.3,1.4-0.6,2.5-0.8,3.7l-0.7,3.5l-0.7,3.5c-0.4,2.6-1.1,6.1-1.9,9.6s-1.8,7.7-3,11.8l-0.6,2.1l-0.1,0.2
			c-0.4,1.4-0.8,2.8-1.2,4.2c-0.2,0.9-0.6,1.9-0.9,2.9c-0.1,0.3-0.2,0.6-0.3,0.9v0.1v0.1v0.1c-0.1,0.5-0.3,1-0.4,1.5l-0.2,0.8v0.2
			c-0.4,1.9-0.8,3.5-1.1,5.1c-0.3,1.8-0.7,3.7-0.9,5.5c-0.3,2.4-0.7,4.8-1.1,7.2l-0.6,2.9h0.2l-0.1,0.1c-0.4,2.7-0.9,5.7-1.5,9.1
			l-0.1,0.6c-0.1,0.5-0.2,1-0.2,1.5l-0.1,0.6v0.1v0.1c-0.2,1.5-0.4,2.8-0.8,4.1l-0.8,3.4l-0.7,3.4c-0.8,3.7-1.9,7.1-3.3,10.3
			c-1.1,2.6-2.4,5.2-3.5,7.6l-2.6,5.5l-1.8,3.9l-1.1,2.6l-1.7,3.9c-0.4,1.1-0.9,2.3-1.2,3.3v0.1v0.1l-0.3,0.9
			c-1.5,3.9-2.8,7.8-4.3,11.7c-0.7,1.8-1.5,3.7-2.4,5.4c-0.7,1.3-1.3,2.5-2,3.6l-0.6,0.8l-0.6,0.8c-0.9,1.3-2.4,2.4-3.5,3.3
			l-0.9,0.7c-0.6,0.4-1.1,0.9-1.7,1.3c-1,0.7-2,1.5-3.1,2.3l-1,0.7l-1,0.7c-1.6,1-3.3,1.9-5,2.7l-0.9,0.4l-1.6,0.7
			c-1.3,0.5-2.6,0.9-3.9,1.4l-1,0.3l-1,0.3c-1.2,0.4-2.7,0.6-4.3,0.7l-1.3,0.1c-3.9,0.3-7.4,0.3-10.1,0.3h-1.7c-2.2,0-4.6,0-7.2-0.1
			h-0.2c-1.2,0-2.5,0-3.7,0h-2.2h-2.4c-2.8,0-5.7-0.1-8.5-0.1h-1c-1.8,0-3.6,0-5.2-0.1c-0.3,0-0.7,0-1,0c-0.7,0-1.3,0-2.1-0.1
			l-1.7-0.2l-1.7-0.1c-1.8-0.2-3.6-0.4-5.3-0.6h-0.4h-0.3h-0.3l-1.3-0.2c-4.7-0.6-8.5-1.2-12-2.1c-4.7-1.2-9.5-2.5-14.7-4.2l-2-0.6
			h-0.1c-1.8-0.5-3.3-1-4.8-1.5l-1.1-0.4l-0.9-0.3c-1.8-0.6-3.4-1.1-4.9-1.8c-1.6-0.6-3.5-1.4-5.4-2.4c-1-0.5-2-1.1-3-1.7
			c-1.5-0.8-3.3-1.8-5.4-3c-2.2-1.3-4.5-2.8-6.4-3.9c-2-1.3-3.4-2.2-4.7-3.2l-1.7-1.3l-1.7-1.3l-0.3-0.3c-0.3-0.3-0.7-0.5-1-0.8
			l-1.5-1.3l-1.5-1.3c-0.2-0.2-0.3-0.3-0.6-0.5c-0.6-0.5-1.1-0.9-1.6-1.4l-0.9-0.9l-0.1-0.1l-0.1-0.1l-0.1-0.1c-1.9-1.8-5-4.9-8-7.8
			c-2.2-2.3-4.5-4.6-6.7-7l-1.1-1.2c-2.7-2.8-5.5-5.7-8.9-9l-0.6-0.6l-0.8-0.8c-0.9-0.9-1.9-1.9-2.8-2.9l-0.8-0.8
			c-0.4-0.5-1-1-1.5-1.5c-0.7-0.7-1.5-1.4-2.4-2.2l-1.6-1.2c-1.3-0.9-2.9-1.7-4.5-2.4l-1.5-0.7c-0.8-0.3-1.6-0.5-2.2-0.6l-1.2-0.2
			h-0.1c-3-0.3-6.4-0.4-9.9-0.4h-2.8h-2.8c-2.5,0-5,0.2-7.1,0.4h-0.2h-0.1c-2.8,0.4-5.8,0.9-8.5,1.3h-0.2l-0.3,0.1l-2.2,0.4
			c-2.1,0.3-4,0.6-6.2,0.9c-4.1,0.5-9,0.8-11,0.9h-0.1h-0.4h-0.3l-2.6,0.2c-1.1,0.1-2.4,0.2-3.5,0.2c-0.9,0-1.7,0.1-2.4,0.1
			c-0.8,0-1.7,0-2.8-0.1c-1.1-0.1-2.2-0.3-3.4-0.4l-0.2-0.1l-0.3-0.1c-0.6-0.2-1.2-0.4-1.9-0.5c-1.5-0.4-2.7-1.2-3.8-2l-0.3-0.2
			l-0.3-0.2c-0.6-0.4-1.2-0.9-1.8-1.4c-3.1-2.9-5.7-6.3-7.8-9.3c-0.9-1.2-1.7-2.5-2.5-3.7V235v-0.5c0.3-4.2,0.7-7.9,1.1-11.4
			c0.2-1.6,0.4-3.3,0.9-5.4c0.2-1.2,0.4-2.4,0.6-3.6c0.1-0.6,0.2-1.2,0.2-1.9c0.2-1.6,0.6-3.1,0.8-4.7l0.1-0.8
			c0.3-1.5,0.4-3.1,0.7-4.6l0.1-0.9c0.3-2.2,0.4-4,0.6-5.7c0.1-1.6,0.1-3.3,0-4.9v-0.8c0-2.1-0.2-4.2-0.6-6.4c-0.4-2.5-1.5-5-3-7.2
			l-0.1-0.2c-0.6-0.8-1.2-1.6-2-2.3c-1-0.9-1.9-1.6-2.8-2.1c-1.6-1-3.3-1.9-4.9-2.7c-1.1-0.5-2.1-1-3.3-1.3
			c-1.2-0.4-2.6-0.6-3.9-0.8c-0.7-0.1-1.3-0.1-2-0.1c-1.2,0-2.6,0.1-4.1,0.4c-1,0.2-2.1,0.5-3.1,0.9l-0.3,0.1
			c-0.9,0.3-1.8,0.7-2.8,1.2c-0.9,0.4-1.8,0.9-2.7,1.5l-0.4,0.1h-0.1h-0.1l-0.4,0.1l0.6,0.1c-0.9,0.3-1.9,0.8-2.9,1.4l-0.1,0.1
			l-1,0.6l-0.1,0.1l-0.1,0.1c-0.9,0.7-1.8,1.3-2.7,2c-0.2,0.2-0.4,0.4-0.7,0.5c-0.4,0.4-0.9,0.7-1.3,1.1c-1,0.8-2,1.8-3.8,3.6
			l0.7-0.3l-0.4,0.4l-0.2,0.4l-0.2,0.2c-0.7,0.9-1.2,1.6-1.7,2.3l-0.1,0.1l-0.1,0.2c-0.9,1.4-1.7,2.6-2.5,3.9l-0.2,0.4
			c-0.8,1.2-1.3,2.4-2,3.6c-0.6,1-1,2.1-1.5,3.1c-0.7,1.6-1.3,3.2-1.9,4.8c-0.3,0.8-0.6,1.6-0.8,2.3l-0.1,0.2v0.1l-0.1,0.3v0.1
			l-0.1,0.4c-0.1,0.3-0.2,0.6-0.2,0.9c-0.3,1-0.6,2-1.1,3.7l-0.1,0.2c-0.3,1.3-0.7,2.6-0.8,3.5v0.1c-0.2,2.3-0.6,5.1-0.6,7.7
			c0,0.5,0,1.1,0,1.6v0.6c0,1.3,0,2.6-0.1,3.9c0,1.6-0.1,3.3-0.4,5c-0.1,1.2-0.4,2.4-0.8,3.5l-0.1,0.5l-0.1,0.2
			c-0.2,0.7-0.9,2.5-1.6,4c-0.4,1.2-1.1,2.4-1.8,3.4c-0.7,0.8-1.3,1.6-1.9,2.4l-1,0.8l-1,0.8c-1,0.7-2,1.4-3,1.9l-0.3,0.2
			c-1.9,1-3.9,2-6.1,2.8c-1.3,0.6-2.8,1-4.4,1.2l-0.7,0.1l-0.7,0.1c-0.9,0.1-1.9,0.2-3,0.2h-0.4c-5.6-0.3-10.6-1.4-15.1-3.3
			c-1-0.4-2.1-0.9-3.3-1.5l-2.6-1.5c-1-0.7-1.9-1.3-2.7-2c-1.1-1-2.2-2-3.3-2.9c-2.2-2.1-4.3-4.3-5.9-6.4l-0.7-0.8
			c-1.3-1.7-3-3.6-4-5.7c-3.3-6.1-5.4-11.2-6.8-16.1l-0.2-0.8c-0.1-0.5-0.3-1-0.4-1.5c-0.4-1.4-0.7-2.8-0.9-4.2
			c-0.2-1.9-0.2-3.9-0.2-5.3c0.1-2.6,0.4-5.4,0.8-8l0.2-1.4c0.2-1.8,0.7-4.5,0.8-7.1c0.1-1.4,0.2-2.8,0.3-4.2v-0.4l0.1-2.1
			c0-0.7,0.1-1.3,0.1-2c0.2-2.3,0.3-4.2,0.3-6.1c0-1.1,0-2.7,0-4.4c0-0.8-0.1-1.7-0.1-2.5v-0.4c-0.4-3.1-0.9-6-1.3-8.7
			c-0.6-3-0.9-5.5-1.2-8.1c-0.3-2.9-0.2-5.9,0-9.1c0.1-0.8,0.2-1.6,0.3-2.5v-0.3c0.1-0.9,0.2-1.9,0.3-2.8c0.1-1.6,0.2-3.4,0.1-5.3
			l-0.1-0.3l-0.1-0.4c-0.2-0.9-0.4-1.8-0.8-2.7c-0.3-0.6-0.7-1.3-1.2-2.1l-0.4-0.5l-0.3-0.5c-0.6-0.6-1.2-1.1-1.8-1.6
			c-0.7-0.4-1.8-1.2-2.9-1.7c-1-0.5-2.1-1.1-3.4-1.5l-1-0.2l-0.6-0.1h-0.3h-0.3c-0.8,0.1-1.6,0.3-2.6,0.6c-1.5,0.6-2.8,1.4-4.3,2.2
			c-1.1,0.8-2.2,1.6-3.3,2.5l-0.2,0.1c-1.1,0.9-2.2,1.7-3.4,2.6c-2.1,1.6-4,2.9-6.2,4.4l-1.5,1l-0.1,0.1l-0.1,0.1l-0.1,0.1
			c-1.9,1.3-4.3,3-6.7,4.5c-0.4,0.3-0.9,0.6-1.6,1l-0.1,0.1l-0.2,0.1l-0.2,0.2c-0.7,0.4-1.5,0.9-2.2,1.3c-1.2,0.7-2.5,1.4-3.7,1.9
			c-1,0.4-2,0.7-3,1.1c-1.6,0.5-2.8,0.9-4.4,1.1c-0.7,0.1-1.3,0.2-1.9,0.2h-0.1h-0.6c-0.4,0-1.5-0.1-2.2-0.3
			c-0.7-0.1-1.2-0.4-1.8-0.6c-2.5-1-4.4-2.9-5.4-5.4c-0.3-0.9-0.6-1.7-0.7-2.7c-0.1-0.6-0.2-1.3-0.2-1.9v-0.8v-1.6
			c0-1.7,0-3.1-0.1-4.4c-0.6-3.2-1.5-6.5-2.2-9l-0.4-1.6L749,110l-0.1-0.3l-0.1-0.4v-0.2c-0.8-2.7-1.9-6.4-2.8-9.9
			c0-0.6,0-1.2,0-1.7c-0.1-2.3-0.2-4.5-0.4-6.7l-0.1-1.1c-0.1-1.4-0.2-2.9-0.4-4.3c-0.6-3.8-1.1-7.5-1.6-11.1
			c-0.2-1.6-0.6-3.4-1.1-5.4c-0.2-0.9-0.7-1.9-1.2-3.2c-0.3-0.8-0.7-1.5-1.1-2.2c-0.8-1.1-1.8-2.5-3.3-3.6c-1.1-0.8-2.6-1.4-4.3-1.8
			c-1.3-0.3-2.4-0.4-3.3-0.4c-0.2,0-0.3,0-0.6,0c-0.3,0-0.7,0-1,0c-1.3-0.4-2.8-0.7-4.3-0.9c-0.6-0.1-1-0.1-1.5-0.1
			c-1.8,0-3.8,0.3-5.8,1c-3.5,1.1-6.4,3.8-8.4,7.9c-1.9,3.8-2.9,7.9-3.7,11.8v0.1l-0.1,0.7c-0.3,1.1-0.7,2.3-1,3.7
			c-0.1,0.4-0.2,0.8-0.2,1.2c-0.2,0.8-0.4,1.5-0.6,2.3c-0.4,1.7-0.9,3.3-1.2,5v0.2l-0.2,0.7c-0.6,2.4-1.1,4.7-2,8.7l-0.2,1.1
			c-1.1,5.4-2.6,11.3-4.6,18.6c-1,3.6-1.9,7.2-2.8,10.8l-0.4,1.8v0.2l-0.1,0.3c-0.6,2.2-1.2,4.8-1.8,7.3c-0.8,3.4-1.5,6.7-2,10.2
			l-0.4,2.5c-0.4,2.5-0.9,5-1.3,7.6l-0.3,1.9l-0.1,0.4v0.1c-0.3,1.8-0.9,5.6-1.8,8.9c-0.9,3.6-1.8,7.2-2.7,10.7
			c-0.8,2.9-1.7,5.9-2.6,8.4l-0.1,0.3l-0.7,2.2c-0.4,1.5-1,3.1-1.6,4.3l-0.1,0.2l-0.1,0.2v0.1l-0.1,0.2v0.1v0.1l-0.1,0.3l-0.1,0.3
			l-0.1,0.3l-0.1,0.3c-0.3,0.8-0.7,1.7-0.9,2.5c-0.6,1.6-1.2,3.6-1.8,5.6l-0.3,1.4v0.1v0.1l-0.1,0.2v0.2c-0.2,0.9-0.8,2.6-1.2,4.1
			l-0.1,0.2c-1,2.9-2.1,6-4.3,8.4c-0.6,0.7-1.2,1.4-2,1.9l-0.7,0.5l-0.4,0.3c-0.9,0.4-1.7,0.8-2.5,1c-0.9,0.4-1.9,0.6-3,0.7
			l-1.2,0.1h-0.1c-0.3,0-0.7,0-1,0c-1,0-2.1-0.1-3.3-0.3l-0.8-0.1l-0.6-0.1c-0.2-0.1-0.4-0.2-0.8-0.2l-0.3-0.1
			c-1.2-0.4-2.7-0.8-3.7-1.7c-0.2-0.1-0.3-0.3-0.6-0.4c-1-3.2-1.7-6.2-2.6-9.9c-0.6-2.4-1.1-4.8-1.8-7.3c-0.7-2.7-1.6-5.3-2.5-7.8
			c-0.6-1.4-1.2-2.7-1.8-4l-0.1-0.2c-0.4-0.9-0.9-1.8-1.3-2.7c-0.4-1-0.9-2-1.3-3c-0.6-1.3-1.3-2.6-2.5-3.9c-1-1.3-2.4-2.5-3.9-3.5
			c-0.9-0.6-2.1-1.1-3.6-1.6c-1.1-0.4-2.4-0.5-3.7-0.5c-0.9,0-1.9,0.1-2.8,0.2c-2.1,0.3-3.9,1.3-5.5,2.3c-0.7,0.4-1.1,1-1.6,1.5
			c-0.1,0.2-0.3,0.3-0.4,0.5c-0.2,0.3-0.4,0.6-0.7,0.9l-0.1,0.2c-0.8,1.2-1.5,2.5-2.2,4c-1,1.9-1.6,3.9-2.1,5.7
			c-0.6,2.1-1.1,4.2-1.7,6.1c-0.7,2.7-1.2,5.4-1.8,7.8c-0.2,1.1-0.4,2.2-0.7,3.2v0.2c-0.2,0.9-0.3,1.9-0.6,2.8
			c-0.3,1.3-0.6,2.5-0.9,3.8l-0.1,0.2v0.2l-0.6,2v0.2c-0.7,2.7-1.3,5.3-2,8c-0.4,1.5-0.9,3-1.2,4.5c-0.6,1.8-1.1,3.7-1.6,5.5
			l-1.5-0.5l-0.3,1.2c-1,2-1.9,3.7-2.8,5.2c-1.3,2.4-3,4.6-4.5,6.8c-1.3,1.9-2.8,3.9-4.5,5.7l-2,1.9c-1.7,1.6-3.3,3.2-4.9,4.8
			l-0.3,0.4l-0.3,0.4h-0.2h-0.2h-0.2h-0.1c-0.7,0.1-1.2,0.2-1.9,0.3c-2.4,0.3-4.4,0.5-6.5,0.6c-2.5,0.1-4.5,0.1-6.1,0.1
			c-3.1,0-6.2-0.1-9.2-0.3c-2-0.1-4.1-0.3-6.2-0.5h-0.1h-0.6h-0.1l-1.2-0.1l-1.2-0.1c-1.8-0.2-3.7-0.2-6.1-0.2c-0.9,0-1.7,0-2.6,0
			h-0.6c-0.8,0-1.7,0-2.5,0s-1.5,0-2.2,0c-1.3-0.1-2.7-0.1-4.1-0.2c-3.9-0.3-7.5-0.7-10.8-1.1c-1.9-0.2-4.4-0.6-7.4-1.1l-0.9-0.1
			l-2.1-0.3l-2.1-0.3c-2.7-0.4-5.5-0.8-8.2-1.2l-2.8-0.4c-2.2-0.3-4.5-0.7-6.7-1l-1-0.2c-2.4-0.4-4.3-0.7-6.3-1
			c-4.9-0.5-9.6-0.8-14.1-0.9c-5-0.2-10.5-0.3-14.9-0.4h-0.2h-0.2h-0.1h-0.2h-0.1h-0.1h-0.1h-0.8c-2.6-0.1-5-0.1-7.6-0.1h-0.7h-0.8
			h-1.8c-1.5,0-2.9,0-4.4-0.1c-2.7-0.1-5.5-0.3-8.5-0.7c-3.3-0.4-6.5-0.7-9.8-1.1c-2.1-0.2-4.4-0.3-6.9-0.5l-0.9-0.1
			c-3.9-0.2-8-0.4-11.7-1.7c-2.4-0.8-4.5-1.7-6.4-2.6c-2.1-1-4-2.2-5.8-3.3l-0.2-0.1l-0.6-0.3l-0.9-0.5l-0.3-0.2l-0.2-0.1l-0.3-0.2
			c-1.3-0.8-3.3-2-4.9-2.9l-0.2-0.1c-2.1-1.1-4.4-2.2-6.5-3.4l-0.3-0.2l-0.4-0.2l-0.4-0.3l-0.3-0.2c-1.3-0.8-2.9-1.6-4.5-2.5
			l-0.6-0.3c-0.8-0.4-1.5-0.9-2.2-1.3l-0.9-0.5l-1-0.6c-1-0.6-2-1.1-3.3-1.6c-0.6-0.2-1.1-0.3-2.5-0.7l0.4,0.3l-0.2-0.1h-0.2
			c-0.7,0-1.3,0-2,0.1c-2,0.3-4,0.6-6.3,1l-0.9,0.2h-0.2c-2.2,0.4-5.3,1-8,1.8c-1.9,0.7-3.5,1.4-4.7,2c-0.9,0.5-1.9,1-2.8,1.4
			l-0.1,0.1l-0.1,0.1l-0.2,0.1l-0.2,0.1l-0.1,0.1c-0.8,0.5-1.7,0.9-2.5,1.3c-3.3,1.7-7.1,3.6-11.4,5.3c-3.9,1.6-8.1,3-12.2,4.2
			c-0.4,0.1-0.9,0.3-1.5,0.5c-0.9,0.3-2.2,0.7-3.5,1c-0.8,0.3-1.7,0.4-2.7,0.5l-1,0.1l-1,0.1c-1.7,0-3.4-0.1-4.9-0.6
			c-0.9-0.2-1.7-0.4-2.4-0.7c-0.4-0.2-0.9-0.3-1.3-0.5c-0.8-0.4-1.6-0.8-2.4-1.4c-0.7-0.5-1.3-1-2-1.5l-0.2-0.3
			c-0.7-0.7-1.6-1.7-2.2-2.7c-1.2-1.9-2.1-3.4-2.7-4.9c-0.3-0.9-0.7-1.7-0.9-2.5l-0.1-0.3c-0.2-0.5-0.3-1.1-0.6-1.6
			c-0.3-0.9-0.7-1.7-1-2.5l-0.1-0.2V231l-0.2-0.4l-0.1-0.3l-0.1-0.3l-0.2-0.4v-0.1l-0.1-0.4V229c-0.6-1.5-1.3-3.3-1.8-5l-0.2-0.8
			c-0.3-1.1-0.6-1.8-0.7-2.5l-0.2-1.1l-0.3-1.6c-0.3-1.8-0.8-3.5-1.3-5.3l-0.2-0.9c-0.2-0.8-0.4-1.7-0.8-2.5l-0.6-1.4l-0.3-1
			l-0.3-0.6c-0.3-0.8-0.8-1.6-1.1-2.3c-0.6-1-1.1-2.1-1.8-3.1l-0.6-0.8l-0.4-0.6c-0.6-0.6-1.1-1.1-1.7-1.5c-0.2-0.2-0.6-0.3-0.9-0.5
			c-0.3-0.1-0.7-0.2-0.9-0.2h-0.4h-0.3c-0.2,0-0.6,0.1-0.8,0.2c-0.6,0.2-1,0.5-1.3,0.7c-0.7,0.5-1.2,1-1.8,1.6
			c-1.2,1.5-2.2,3-3.1,4.4c-0.9,1.5-1.7,3-2.2,4.1c-0.4,1-1,1.9-1.5,2.9l-0.1,0.3l-0.1,0.1c-0.8,1.5-1.6,3.1-2.4,4.7
			c-3.4,6-6.6,11-10.1,15.4c-1.3,1.7-2.5,3-3.7,4.4c-0.2,0.2-0.4,0.4-0.6,0.7l-0.1,0.1l-0.3,0.4c-0.9,1.1-1.7,1.9-2.5,2.7
			c-0.9,0.9-1.9,1.7-3,2.5l-0.1,0.1l-0.4,0.3l-1.7,1.1l-0.2,0.1l-0.2,0.1c-0.9,0.6-2.1,1.4-3.3,2l-0.7,0.3c-1.7,0.9-3.1,1.8-5,2.3
			c-1,0.4-2.1,0.7-3.4,0.8h-0.4l-0.6,0.1c-0.7,0.1-1.2,0.1-1.9,0.1c-0.6,0-1.2,0-2-0.1c-0.8-0.1-1.5-0.2-2.4-0.4
			c-0.9-0.2-1.8-0.5-2.7-0.8c-0.8-0.3-1.7-0.6-2.5-0.9c-1-0.5-2.4-1.2-3.5-2.2c-0.9-0.6-1.7-1.3-2.5-2.2c-0.6-0.6-1.1-1.2-1.7-2.1
			l-0.4-0.6l-0.2-0.2c-0.4-1.6-0.9-3.5-1.3-5.6c-0.8-3.6-1.3-7.3-1.7-11.3c-0.3-3.8-0.7-7.5-1-11.3c-0.2-2.4-0.4-4.9-0.8-7.2v-0.3
			v-0.2V204c-0.1-1.2-0.2-2.4-0.4-3.5c-0.2-1.7-0.3-3.5-0.4-5.2c-0.2-2.2-0.4-4.7-0.8-7.1c-0.1-1.1-0.3-2.2-0.6-3.4
			c-0.1-0.8-0.2-1.6-0.4-2.3c-0.3-2.2-0.6-3.9-0.8-5.6c-0.2-1.8-0.4-3.7-0.7-5.5v-0.3l-0.1-0.7c-0.2-1.7-0.3-3.4-0.6-5.1
			c-0.2-1.6-0.4-3.3-0.7-4.9v-0.2V160c-0.3-2-0.7-4.1-0.9-6.1c-0.1-1.1-0.2-2.2-0.2-3.3c-0.1-2.4-0.2-4.7-0.3-7.1
			c-0.2-5.3-0.6-11.3-1.1-17c-0.2-1.6-0.3-3.3-0.4-4.9c-0.2-1.9-0.4-4.4-0.8-6.9c-0.3-3.1-0.9-7.6-1.8-12.2
			c-0.3-1.9-0.8-3.8-1.1-5.8c-0.4-2-0.8-4.1-1-6c-0.6-3.9-1.5-7.7-2.2-11.3c-0.9-4-1.8-7.9-2.6-12l-0.1-0.7
			c-0.3-1.6-0.6-3.3-1.1-4.8c-0.7-2-1.5-4-2.7-5.9s-2.7-3.7-3.9-5.3c-1.9-2.3-4-4.1-6.2-5.2c-2.4-1.2-4.9-1.9-7.8-2.1
			c-0.6-0.1-1.1-0.1-1.8-0.1c-0.8,0-1.6,0-2.5,0.1h-0.1h-0.1h-0.6c-3.5,0.2-7.1,0.4-10.1,2c-2.4,1.2-4.5,3.3-6.3,6.2
			c-1.1,1.8-2.1,3.7-3.3,5.9l-0.1,0.1c-0.9,1.7-1.6,3.3-2.1,4.9c-0.8,2.3-1.2,4.7-1.7,6.8c-0.7,3.5-0.8,7.1-1,10.5v1
			c-0.1,3.5-0.3,7-0.6,10.6l-0.1,1.8c-0.4,8-1,15.7-1.6,24.2c-0.7,9.5-1.2,16.8-1.6,23.8c-0.2,4.1-0.4,8.4-0.6,12.8
			c0,0.9,0,1.9-0.1,2.8v0.7c0,0.7,0,1.4,0,2.1c0,1.7-0.1,3.5-0.3,5.8c-0.7,8.4-1.3,16.9-2,25.3c-0.2,2.2-0.3,4.4-0.6,6.7
			c-0.2,1.7-0.4,3.1-0.7,4.5c-0.1,1.5-0.2,3-0.3,4.4v0.3v0.1l-0.1,1.5c-0.3,4.3-0.7,8.9-1.5,13.4c-0.4,2.3-1.1,4.8-1.6,6.5v0.1
			c-0.7,2.5-1.2,4.5-1.9,6.4c-0.7,1.9-1.3,4-2.2,6.1c-0.9,2.2-2,4.5-3.4,7.2c-0.6,1-1.1,2.1-1.7,3.1l-0.1,0.1l-0.2,0.4l-0.2,0.4
			c-0.3,0.7-0.8,1.4-1.1,2.1c-1,1.8-2.1,3.8-3.4,5.9l-0.4,0.7l-0.1,0.1c-2.5,3.8-4.8,7.7-7.6,11.4c-3.4,4.6-6.7,8.3-10.1,11.5
			c-2,1.9-4.4,3.5-6.3,4.7c-2.4,1.5-4.3,2.6-6.2,3.4c-3,1.3-5.4,2.3-7.8,3.1l-0.3,0.1c-1.2,0.4-2.7,0.9-4.1,1.1
			c-1.2,0.2-2.6,0.3-3.8,0.5l-0.7,0.1c-1,0.1-2,0.3-3,0.4h-0.2c-1.3,0.2-2.9,0.4-4.5,0.4c-0.6,0-1.1,0-1.6-0.1
			c-1.5-0.2-3-0.4-4.3-0.6l-0.4-0.1h-0.3H15c-1-0.2-2-0.3-3.1-0.5c-1.5-0.1-3.6-0.3-5.5-0.8c-2.4-1.3-4.8-2.5-6.8-3.5
			c-1.7-0.9-3.1-1.8-4.5-2.9l-0.1,0.1v126.3c0.1-0.6,0.3-1.2,0.4-1.7l0.4-1.5c0.4-1.4,0.9-3.1,1.2-4.8c0.1-0.7,0.9-1.4,1.7-1.8
			c0.4-0.2,1-0.4,1.7-0.4c0.3,0,0.7,0,1,0.1c1.5,0.4,2.6,1.8,2.4,3c-0.2,1.9-0.8,3.7-1.2,5.5l-0.2,0.6c-0.3,1.1-0.7,2.3-1.1,3.5
			c-0.2,0.6-0.4,1.1-0.7,1.7c-0.3,0.9-0.7,1.8-0.9,2.7c-0.4,1.5-0.9,3-1.3,4.5c-0.6,2.1-1.1,4.3-1.7,6.3v0.4v0.4
			c0.1,1.3,0.2,2.6,0.2,3.8l-1.1,0.3l-0.3,0.1c-0.1,0.6-0.2,1.2-0.4,1.8v0.1v2.2l1.2-0.3l0.3-0.1c0.2-0.1,0.4-0.1,0.7-0.2l0,0l0,0
			l0,0l0,0c0,0.2,0,0.5,0,0.7v0.1l3.1-3.1l3.1-3.1l0.3-0.4c1.1-1.1,2.2-2.3,3.5-3.4c0.7-0.6,1.3-1.3,2-1.9c1.2-1.1,2.5-2.3,3.7-3.4
			l1.7-1.5l3.5-3.1c1.5-1.3,2.9-2.6,4.5-3.9l1.5-1.3l1.5-1.3c0.8-0.7,1.7-1.4,2.6-2.1l2.2-1.7l0.9-0.6c1.6-1.1,3.4-2.3,4.9-3.2
			c0.9-0.5,1.8-1,2.7-1.6l0.9-0.5c1.6-0.9,3.1-1.8,4.7-2.7l1.6-0.9c1.8-1,3.7-2,5.6-3.1l1.5-0.8c1.8-1,3.6-2,5.4-3l2.2-1.3
			c2.9-1.7,6.1-3.4,9.1-5c0.6-0.3,1.1-0.6,1.8-0.9c1.7-0.9,3.5-1.9,5.3-2.7l4.3-2c0.2-0.1,0.6-0.3,0.8-0.4c0.6-0.3,1.1-0.6,1.7-0.8
			l1.6-0.6l1.8-0.7c0.3-0.2,0.8-0.3,1.1-0.5c0.8-0.3,1.5-0.6,2.2-0.9c0.6-0.2,1.1-0.4,1.7-0.6c1.2-0.4,2.5-0.9,3.6-1.3l0.8-0.2
			c2-0.6,4-1.3,6.1-1.8c1.5-0.4,3.5-0.9,5.6-1.3c3.6-0.7,7.2-1.5,10.6-2.3l3-0.7c1.3-0.3,2.8-0.6,4.3-0.9c3.1-0.7,6.4-1.4,9.5-2.1
			c1.3-0.3,2.7-0.6,4-1c3.3-0.8,6.6-1.6,10-2.3l11.1-2.4c1.8-0.4,3.3-0.7,4.7-0.9h0.1c3.4-0.6,6.8-1.3,10.3-1.6l1.8-0.2
			c1.9-0.2,3.9-0.4,5.7-0.5c1,0,2-0.1,2.9-0.1h0.1c0.8,0,1.5-0.1,2.2-0.1c1.7-0.1,3.4-0.2,5-0.2c6.1-0.1,12.2-0.1,17.5-0.2
			c1.3,0,2.8-0.1,4.1-0.1c0.6,0,1.1-0.1,1.7-0.1l3.6-0.1l3.6-0.1l9.5-0.9c0.7-0.1,1.3-0.1,2.1-0.2c1.8-0.2,3.6-0.3,5.4-0.6l5.4-0.7
			c4.4-0.6,8.7-1.2,13.1-1.7c3.6-0.5,7.2-0.9,10.9-1.4l1.8-0.2l1.7-0.2l1.7-0.2c0.6-0.1,1.1-0.1,1.8-0.1l0.8-0.1l3.6-0.3l9.4-0.7
			c1.6-0.1,3.4-0.3,5.2-0.3l4.6-0.2c5-0.2,10.2-0.5,15.2-0.7l7.1-0.3l6.5-0.2c1.6-0.1,3.1-0.1,4.8-0.2l6.5-0.3l6.5-0.3
			c0.7,0,1.2-0.1,1.9-0.1c1.3-0.1,2.8-0.1,4.3-0.2c6.2-0.5,12.3-1,18.5-1.5c4.8-0.5,9.6-1.1,14.5-1.6c0.4-0.1,1-0.1,1.5-0.2
			c1-0.1,2-0.2,2.9-0.3l1.8-0.2l2.1-0.3l2.1-0.3l14.3-2c2.5-0.3,5-0.8,7.5-1.2l1-0.2c5.3-0.9,10.5-1.7,15.8-2.6
			c2.4-0.4,4.8-0.8,7.1-1.3c1-0.2,2-0.4,3-0.6c8.7-1.6,17.5-3.2,26.1-4.9c9-1.7,18-3.3,26.9-4.8c6.7-1.2,13.8-2.4,20.6-3.7
			c4.9-0.9,10-1.8,14.9-2.7c2.7-0.5,5.5-1,8.1-1.6c1.2-0.2,2.5-0.5,3.8-0.8c8.3-1.6,16.5-3.3,24.8-4.9l0.3-0.1
			c3.6-0.7,7.1-1.4,10.6-2.1l4.5-0.9c0.6-0.1,1-0.2,1.5-0.3c1.1-0.2,2.2-0.5,3.5-0.7l3.6-0.6l4.4-0.7l3.1-0.5l3.1-0.5l0.7-0.1
			c0.4-0.1,0.9-0.1,1.2-0.2l3.9-0.5l3.8-0.5c1.6-0.2,3.1-0.4,4.7-0.6h0.3c0.4-0.1,0.8-0.1,1.2-0.1l2.9-0.3l6.3-0.6l1.3-0.1
			c1.6-0.1,3.1-0.3,4.7-0.4c3.4-0.2,6.7-0.4,10.1-0.6c3.6-0.2,7.2-0.4,10.6-0.5l3.7-0.2c1-0.1,2.1-0.1,3.3-0.1
			c1.5,0,2.9-0.1,4.4-0.1c0.4,0,1,0,1.5,0c2.9,0.1,6.2,0.2,9.3,0.4l1.6,0.1c1.7,0.1,3.5,0.3,5.2,0.5l1.8,0.3l1.8,0.3l4.4,0.6
			l4.4,0.6c1.3,0.2,2.8,0.5,4.1,0.7l1.2,0.2l3,0.6l3.8,0.7h0.2c0.4,0.1,0.9,0.2,1.3,0.3l3.9,0.9l4.8,1.1l0.8,0.2
			c1.5,0.3,2.8,0.6,4.3,1l2.1,0.6l7.6,2c2.2,0.6,4.5,1.2,6.6,1.8l2.6,0.7l2.6,0.7c0.2,0.1,0.6,0.1,0.9,0.2c0.6,0.1,1.1,0.3,1.7,0.5
			l3.9,1.3l2.8,0.9l2.7,0.9l1.9,0.6c0.2,0.1,0.4,0.1,0.7,0.2c0.4,0.1,0.9,0.3,1.3,0.5l1.1,0.4l7.1,2.7c0.7,0.3,1.5,0.5,2.1,0.8
			c1.5,0.5,2.9,1.1,4.4,1.7l13.8,5.6c2.6,1,5,2.1,7.5,3.2c2.1,0.9,4.3,1.8,6.4,2.7l0.6,0.2l12.4,5.1c1.3,0.5,2.7,1,4.1,1.5
			c3.7,1.4,7.5,2.7,11.3,4l4.9,1.6l4.9,1.6c0.7,0.2,1.3,0.4,2,0.6l0.8,0.2l5,1.4l5.4,1.5c0.6,0.2,1.2,0.3,1.8,0.4l0.8,0.2l5.5,1.2
			l5.5,1.2c1.7,0.4,3.4,0.6,4.9,0.9c0.6,0.1,1.1,0.2,1.7,0.3l4.6,0.8l4.4,0.8l3.3,0.5c4.7,0.6,9.4,1.3,14,1.9l3.1,0.4
			c4.7,0.6,9.5,1.3,14.3,2c2.2,0.3,4.4,0.7,6.6,1c0.4,0.1,0.9,0.1,1.2,0.2c0.8,0.1,1.6,0.2,2.4,0.4c3.4,0.6,6.8,1.2,10.2,1.8
			c4,0.7,8.1,1.3,12,1.9l3.9,0.6l6.5,0.8l6.5,0.8c0.3,0,0.7,0.1,1,0.1c0.8,0.1,1.7,0.2,2.5,0.3l3.3,0.2l3.3,0.2l8.3,0.6
			c0.9,0.1,2,0.1,3,0.2l7.5,0.2l7.5,0.2c0.2,0,0.4,0,0.7,0c0.7,0,1.3,0,1.9,0c0.4,0,0.8,0,1.2,0l4.4-0.1l4.4-0.1c0.3,0,0.8,0,1.1,0
			c0.9,0,1.8,0,2.7-0.1c2.1-0.1,4.1-0.2,6.3-0.4l1.6-0.1c8-0.5,16-1,24-1.5c2.9-0.2,5.8-0.4,8.6-0.6l4-0.3c3-0.2,5.9-0.4,9-0.5
			l2.2-0.1c3.9-0.2,7.8-0.4,11.8-0.5c1,0,2-0.1,3-0.1c2.5-0.1,4.9-0.2,7.5-0.3c3.6-0.1,7.8-0.1,12.1-0.2c3.9,0,8,0,11.9-0.1
			c10-0.1,19.7-0.3,27.1-0.4c3.6-0.1,7.1-0.1,10.6-0.2c1.8,0,3.6,0,5.3-0.1c3.6,0,7.3,0,10.8,0h2.4h4.8c3.3,0,6.5,0,9.8,0h3.6
			c1.5,0,2.9,0,4.4,0c1.9,0,3.7,0,5.6,0c1.8,0,3.6,0,5.4,0.1c3.5,0,7.2,0.1,10.8,0.1l8.6,0.2l8.6,0.2c3.7,0.1,7.4,0.2,11,0.3l4,0.1
			l2.1,0.1l2.1,0.1h0.6c0.4,0,0.8,0,1.2,0c1.9,0.1,3.8,0.2,5.6,0.4l12,0.8c0.4,0,0.9,0.1,1.3,0.1c1,0.1,2,0.1,2.9,0.2
			c5.7,0.6,11.4,1.2,17.1,1.8c1.8,0.2,3.5,0.4,5.3,0.6c3.4,0.4,6.6,0.9,10,1.3c3.4,0.4,6.8,1,10.1,1.4l3.7,0.5l1.8,0.3
			c1.3,0.2,2.8,0.4,4.1,0.6l3.6,0.6l4.4,0.7l4.1,0.7l3.9,0.7c1.2,0.2,2.4,0.5,3.6,0.7c0.6,0.1,1,0.2,1.6,0.3l3.3,0.7
			c3.9,0.8,7.7,1.6,11.7,2.3l10,1.9l1.6,0.3c1.1,0.2,2.1,0.4,3.3,0.6l4.9,0.9l5.2,0.9l2.2,0.4c1.5,0.3,3,0.6,4.5,0.8
			c5.2,0.9,10.3,1.7,15.5,2.6c3.5,0.6,6.9,1.2,10.4,1.8l4.7,0.8c1.5,0.2,2.9,0.5,4.4,0.8l1.6,0.3c0.8,0.1,1.6,0.3,2.4,0.4
			c1.7,0.3,3.4,0.6,4.9,0.9c1.3,0.3,2.8,0.6,4.1,0.9c3.4,0.7,6.7,1.4,10.1,2.1c1.2,0.3,2.5,0.6,3.7,0.8c3.6,0.8,7.2,1.6,10.8,2.5
			l4.7,1.2l5.2,1.3c1.3,0.3,2.7,0.7,3.9,1.1c0.7,0.2,1.3,0.4,1.9,0.5c0.6,0.2,1.2,0.3,1.8,0.5c1.3,0.4,2.8,0.8,4.3,1.2l1.9,0.6
			l7.2,2.2c18.9,5.8,38.1,11.3,57,16.4c4.9,1.3,9.8,2.7,14.7,4l1.2,0.3c1.3,0.4,2.6,0.7,3.9,1l0.9,0.2l4.1,1.1l5.3,1.3
			c1.7,0.4,3.3,0.8,4.9,1.1l1.5,0.3l4.3,1l4.3,1c1.3,0.3,2.7,0.6,4,0.8c0.6,0.1,1.2,0.2,1.8,0.3l7.2,1.4l14.8,2.1
			c1.3,0.2,2.6,0.3,3.9,0.5c0.6,0.1,1.1,0.1,1.7,0.2l8.6,1c3.3,0.4,6.6,0.7,10,1l3.3,0.3c4.1,0.4,7.6,0.7,11.2,0.8
			c2.8,0.1,5.2,0.2,7.5,0.2c1,0,2.1,0,3.1-0.1c2.2,0,4.5-0.2,6.6-0.3c2.7-0.2,5.5-0.5,8.3-1l0.7-0.1c2.8-0.5,5.7-1,8.4-1.7
			c3.7-0.9,6.7-1.8,9.4-2.6l13.9-4.1c2.1-0.6,4.1-1.2,6.3-1.8c1.5-0.4,2.9-0.8,4.4-1.2c4.4-1.3,8.9-2.6,13.2-3.9l1.8-0.5
			c3.1-0.9,6.3-1.8,9.4-2.7c0.7-0.2,1.3-0.4,2-0.6c1.6-0.4,3.1-0.8,4.7-1.2c1.6-0.4,3.1-0.8,4.7-1.1l1-0.2l0.8-0.2
			c4.6-1,8.9-1.9,12.9-2.7c0.7-0.1,1.2-0.2,1.9-0.3V290.6H1799.7z M156.1,146.6c-0.1-1.3-0.2-2.5-0.2-3.5v-1.2v-0.2
			c0,1.6,0.1,3.2,0.2,5.1l0.1,1.8C156.2,148,156.1,147.3,156.1,146.6z"/>
		<path class="st1" d="M-0.3,442.7l-1.3,1.3l0,0l-1,1.1l0.2,2.3l0.2,3.7l0.1,0.9v0.2v0.2c0.1,2,0.3,4.3,0.7,6.4
			c0.1,0.8,1,1.2,1.8,1.2c0.2,0,0.2,0,0.3,0c0.4-0.1,0.9-0.3,1.1-0.7s0.3-0.8,0.2-1.2c0-0.3-0.1-0.7-0.1-1l0,0c0-0.1,0-0.1,0-0.2
			l0,0v0.1l0,0l0,0l0,0l0,0l-0.2-3l-0.2-3.1l-0.2-4.2c-0.1-1.5-0.2-2.9-0.3-4.5c0-0.2,0-0.5,0-0.7v-0.1L-0.3,442.7z"/>
		<path class="st2" d="M-5.2,440.1c0.9-4.1,2-8.6,3.4-13.2c0.4-1.5,0.9-3,1.3-4.5c0.2-0.9,0.6-1.8,0.9-2.7c0.2-0.6,0.4-1.2,0.7-1.7
			c0.4-1.1,0.8-2.3,1.1-3.5l0.2-0.6c0.6-1.7,1-3.6,1.2-5.5c0.1-1.3-0.9-2.6-2.4-3c-0.3-0.1-0.7-0.1-1-0.1c-0.6,0-1.1,0.1-1.7,0.4
			c-0.7,0.3-1.5,1.1-1.7,1.8c-0.3,1.7-0.8,3.4-1.2,4.8l-0.4,1.5c-0.1,0.6-0.3,1.1-0.4,1.7V440.1z"/>
		<path class="st2" d="M1799.7,424.3c-0.7,0.1-1.2,0.2-1.9,0.3c-4,0.8-8.3,1.7-12.9,2.7l-0.8,0.2l-1,0.2c-1.6,0.4-3.1,0.8-4.7,1.1
			c-1.6,0.4-3.1,0.8-4.7,1.2c-0.7,0.2-1.3,0.4-2,0.6c-3.1,0.8-6.4,1.8-9.4,2.7l-1.8,0.5c-4.4,1.3-8.9,2.6-13.2,3.9
			c-1.5,0.4-2.9,0.8-4.4,1.2c-2.1,0.6-4.1,1.2-6.3,1.8l-13.9,4.1c-2.8,0.8-5.8,1.6-9.4,2.6c-2.8,0.7-5.6,1.2-8.4,1.7l-0.7,0.1
			c-2.8,0.5-5.6,0.8-8.3,1c-2.2,0.2-4.5,0.3-6.6,0.3c-1,0-2.1,0.1-3.1,0.1c-2.5,0-4.7-0.1-7.5-0.2c-3.6-0.1-7.1-0.4-11.2-0.8
			l-3.3-0.3c-3.3-0.3-6.6-0.6-10-0.9l-8.6-0.9c-0.6-0.1-1.1-0.1-1.7-0.2c-1.2-0.1-2.6-0.3-3.9-0.4l-14.8-2.1l-7.2-1.4
			c-0.6-0.1-1.2-0.2-1.8-0.3c-1.3-0.2-2.7-0.5-4-0.8l-4.3-1l-4.3-1l-1.5-0.3c-1.6-0.4-3.3-0.7-4.9-1.1l-5.3-1.3l-4.1-1.1l-0.9-0.2
			c-1.3-0.3-2.6-0.7-3.9-1l-1.2-0.3c-4.9-1.3-9.8-2.7-14.7-4c-18.8-5.1-38.1-10.6-57-16.4l-7.2-2.2l-1.9-0.6
			c-1.3-0.4-2.8-0.8-4.3-1.2c-0.6-0.2-1.2-0.3-1.8-0.5c-0.7-0.2-1.3-0.4-1.9-0.5c-1.3-0.4-2.6-0.7-3.9-1.1l-5.2-1.3l-4.7-1.2
			c-3.6-0.9-7.3-1.7-10.8-2.5l-3.7-0.8c-3.4-0.8-6.8-1.5-10.1-2.1c-1.3-0.3-2.8-0.6-4.1-0.9c-1.7-0.3-3.4-0.6-4.9-0.9
			c-0.8-0.1-1.6-0.3-2.4-0.4l-1.6-0.3c-1.5-0.3-2.9-0.5-4.4-0.8l-4.7-0.8c-3.5-0.6-6.9-1.2-10.4-1.8c-5.2-0.9-10.3-1.8-15.5-2.6
			c-1.5-0.3-3-0.5-4.5-0.8l-2.2-0.4l-5.2-0.9l-4.9-0.9c-1.1-0.2-2.1-0.4-3.3-0.6l-1.6-0.3l-10-1.9c-3.9-0.8-7.7-1.5-11.7-2.3
			l-3.3-0.7c-0.6-0.1-1-0.2-1.6-0.3c-1.1-0.2-2.4-0.5-3.6-0.7l-3.9-0.7l-4.1-0.7l-4.4-0.7l-3.6-0.6c-1.3-0.2-2.8-0.4-4.1-0.6
			l-1.8-0.3l-3.7-0.5c-3.3-0.5-6.7-1-10.1-1.4c-3.4-0.4-6.6-0.9-10-1.3c-1.8-0.2-3.6-0.5-5.3-0.6c-5.7-0.6-11.4-1.2-17.1-1.8
			c-1-0.1-2-0.2-2.9-0.2c-0.4,0-0.9-0.1-1.3-0.1l-12-0.8c-1.9-0.1-3.8-0.3-5.6-0.4c-0.3,0-0.8,0-1.2,0h-0.6l-2.1-0.1l-2.1-0.1
			l-4-0.1c-3.6-0.1-7.3-0.2-11-0.3l-8.6-0.2l-8.6-0.2c-3.6-0.1-7.2-0.1-10.8-0.1c-1.8,0-3.6,0-5.4-0.1c-1.9,0-3.7,0-5.6,0
			c-1.5,0-2.9,0-4.4,0h-3.6c-3.3,0-6.5,0-9.8,0h-4.8h-2.4c-3.6,0-7.2,0-10.8,0.1c-1.8,0-3.6,0-5.3,0.1c-3.6,0-7.1,0.1-10.6,0.2
			c-7.4,0.1-17.1,0.3-27.1,0.4c-3.9,0.1-8,0.1-11.9,0.1c-4.1,0-8.4,0.1-12.1,0.2c-2.5,0-5,0.2-7.5,0.3c-1,0-2,0.1-3,0.1
			c-3.8,0.2-7.8,0.3-11.8,0.5l-2.2,0.1c-3,0.2-5.9,0.3-9,0.5l-4,0.3c-2.9,0.2-5.8,0.4-8.6,0.6c-8,0.5-16,1-24,1.4l-1.6,0.1
			c-2.1,0.1-4.1,0.3-6.3,0.4c-0.9,0.1-1.8,0.1-2.7,0.1c-0.3,0-0.8,0-1.1,0l-4.4,0.1l-4.4,0.1c-0.4,0-0.8,0-1.2,0c-0.7,0-1.3,0-1.9,0
			c-0.2,0-0.4,0-0.7,0l-7.5-0.2l-7.5-0.2c-1.1,0-2.1-0.1-3-0.2l-8.3-0.6l-3.3-0.2l-3.3-0.2c-0.8-0.1-1.7-0.2-2.5-0.3
			c-0.3,0-0.7-0.1-1-0.1l-6.5-0.8l-6.5-0.8l-3.9-0.6c-3.9-0.6-8.1-1.2-12-1.9c-3.4-0.6-6.8-1.2-10.2-1.8c-0.8-0.1-1.6-0.2-2.4-0.4
			c-0.4-0.1-0.9-0.1-1.2-0.2c-2.2-0.3-4.4-0.7-6.6-1c-4.8-0.7-9.6-1.4-14.3-2l-3.1-0.4c-4.7-0.6-9.4-1.3-14-1.9l-3.3-0.5l-4.4-0.8
			l-4.6-0.8c-0.6-0.1-1.1-0.2-1.7-0.3c-1.6-0.3-3.3-0.6-4.9-0.9l-5.5-1.2l-5.5-1.2l-0.8-0.2c-0.6-0.1-1.2-0.3-1.8-0.4l-5.4-1.5
			l-5-1.4l-0.8-0.2c-0.7-0.2-1.3-0.4-2-0.6l-4.9-1.6l-4.9-1.6c-3.8-1.3-7.6-2.7-11.3-4c-1.3-0.5-2.7-1-4.1-1.5l-12.4-5.1l-0.6-0.2
			c-2.1-0.9-4.3-1.8-6.4-2.7c-2.5-1.1-5-2.2-7.5-3.2l-13.8-5.6c-1.5-0.6-2.9-1.1-4.4-1.7c-0.7-0.3-1.5-0.5-2.1-0.8l-7.1-2.7
			l-1.1-0.4c-0.4-0.2-0.9-0.3-1.3-0.5c-0.2-0.1-0.4-0.1-0.7-0.2l-1.9-0.6l-2.7-0.9l-2.8-0.9l-3.9-1.3c-0.6-0.2-1.1-0.3-1.7-0.5
			c-0.3-0.1-0.6-0.1-0.9-0.2l-2.6-0.7l-2.6-0.7c-2.1-0.6-4.3-1.2-6.6-1.8l-7.6-1.9l-2.1-0.6c-1.5-0.4-2.8-0.7-4.3-1l-0.8-0.2
			l-4.8-1.1l-3.9-0.9c-0.4-0.1-0.9-0.2-1.3-0.3h-0.2l-3.8-0.7l-3-0.6l-1.2-0.2c-1.3-0.3-2.7-0.5-4.1-0.7l-4.4-0.6l-4.4-0.6l-1.8-0.3
			l-1.8-0.3c-1.7-0.2-3.5-0.4-5.2-0.5l-1.6-0.1c-3.1-0.3-6.4-0.4-9.3-0.4c-0.4,0-1,0-1.5,0c-1.5,0-2.9,0-4.4,0.1
			c-1.1,0-2.2,0-3.3,0.1l-3.7,0.2c-3.5,0.2-7.2,0.3-10.6,0.6c-3.4,0.2-6.7,0.4-10.1,0.6c-1.6,0.1-3.1,0.2-4.7,0.4l-1.3,0.1l-6.3,0.6
			l-2.9,0.3c-0.4,0-0.8,0.1-1.2,0.1h-0.3c-1.6,0.2-3.1,0.4-4.7,0.6l-3.8,0.5l-3.9,0.5c-0.4,0.1-0.9,0.1-1.2,0.2l-0.7,0.1l-3.1,0.5
			l-3.1,0.5l-4.4,0.7l-3.6,0.6c-1.1,0.2-2.4,0.4-3.5,0.7c-0.6,0.1-1,0.2-1.5,0.3l-4.5,0.9c-3.6,0.7-7.1,1.4-10.6,2.1l-0.3,0.1
			c-8.3,1.7-16.5,3.3-24.8,4.9c-1.2,0.2-2.5,0.5-3.8,0.7c-2.7,0.5-5.4,1.1-8.1,1.6c-4.9,0.9-10,1.8-14.9,2.7
			c-6.8,1.3-13.9,2.5-20.6,3.7c-8.9,1.6-17.9,3.2-26.9,4.8c-8.7,1.6-17.5,3.3-26.1,4.9c-1,0.2-2,0.4-3,0.6c-2.4,0.4-4.7,0.9-7.1,1.3
			c-5.3,0.9-10.5,1.7-15.8,2.6l-1,0.2c-2.5,0.4-4.9,0.8-7.5,1.2l-14.3,2l-2.1,0.3l-2.1,0.3l-1.8,0.3c-1,0.1-2,0.2-2.9,0.3
			c-0.4,0.1-1,0.1-1.5,0.2c-4.8,0.5-9.6,1.1-14.5,1.6c-6.2,0.5-12.3,1-18.5,1.5c-1.3,0.1-2.8,0.2-4.3,0.2c-0.7,0-1.2,0.1-1.9,0.1
			l-6.5,0.3l-6.5,0.3c-1.6,0.1-3.1,0.1-4.8,0.2l-6.5,0.2l-7.1,0.3c-5,0.2-10.3,0.4-15.2,0.7l-4.6,0.2c-1.8,0.1-3.6,0.2-5.2,0.3
			l-9.4,0.7l-3.6,0.3l-0.8,0.1c-0.6,0-1.1,0.1-1.8,0.2l-1.7,0.2l-1.7,0.2l-1.8,0.2c-3.6,0.4-7.2,0.9-10.9,1.4
			c-4.4,0.5-8.7,1.1-13.1,1.7l-5.4,0.7c-1.8,0.2-3.6,0.4-5.4,0.5c-0.7,0.1-1.3,0.1-2.1,0.2l-9.5,0.9l-3.6,0.1l-3.6,0.1
			c-0.6,0-1.1,0.1-1.7,0.1c-1.3,0.1-2.8,0.1-4.1,0.1c-5.3,0-11.4,0.1-17.5,0.2c-1.7,0-3.4,0.1-5,0.2c-0.8,0-1.5,0.1-2.2,0.1H187
			c-1,0-2,0.1-2.9,0.1c-1.9,0.1-3.8,0.3-5.7,0.5l-1.8,0.2c-3.5,0.3-6.9,1-10.3,1.6h-0.1c-1.3,0.3-2.8,0.5-4.7,0.9l-11.1,2.4
			c-3.4,0.7-6.7,1.5-10,2.3c-1.3,0.3-2.7,0.6-4,1c-3.1,0.7-6.4,1.4-9.5,2.1c-1.3,0.3-2.8,0.6-4.3,0.9l-3,0.7
			c-3.5,0.8-7.1,1.5-10.6,2.3c-2,0.4-4,0.9-5.6,1.3c-2,0.5-4.1,1.2-6.1,1.8l-0.8,0.2c-1.2,0.4-2.5,0.9-3.6,1.3
			c-0.6,0.2-1.1,0.4-1.7,0.6c-0.8,0.3-1.5,0.6-2.2,0.9c-0.3,0.2-0.8,0.3-1.1,0.5l-1.8,0.7l-1.6,0.6c-0.6,0.2-1.1,0.5-1.7,0.8
			c-0.2,0.1-0.6,0.3-0.8,0.4l-4.3,2c-1.8,0.9-3.6,1.8-5.3,2.7c-0.6,0.3-1.1,0.6-1.8,0.9c-3,1.6-6.2,3.4-9.1,5l-2.2,1.3
			c-1.8,1-3.6,2-5.4,3l-1.5,0.8c-1.9,1.1-3.8,2.1-5.6,3.1l-1.6,0.9c-1.6,0.9-3.1,1.8-4.7,2.7l-0.9,0.5c-0.9,0.5-1.8,1-2.7,1.6
			c-1.6,0.9-3.4,2.2-4.9,3.2l-0.9,0.6l-2.2,1.7c-0.9,0.7-1.7,1.4-2.6,2.1l-1.5,1.3l-1.5,1.3c-1.5,1.3-3,2.6-4.5,3.9l-3.5,3.1
			l-1.7,1.5c-1.2,1.1-2.5,2.3-3.7,3.4c-0.7,0.6-1.3,1.3-2,1.9c-1.2,1.1-2.4,2.3-3.5,3.4l-0.3,0.4l-3.1,3.1l-3.1,3.1
			c0-0.3,0-0.5,0-0.8l-2.4,0.6V547c1.8-1,3.6-1.9,4.9-2.6l0.2-0.1l1.3-0.7c4.9-2.5,10.1-4.9,15-7.1h0.1l0.3-0.2
			c2-0.9,3.5-1.6,4.8-2.1l3-1.2l2.8-1.2l13.8-5.6l13.8-5.6l22.6-7.8l10.4-3.6l1.8-0.6l1.8-0.6c0.8-0.2,1.5-0.5,2.2-0.7l0.4-0.1
			c0.2-0.1,0.6-0.1,0.8-0.2l10.2-3.1l10.3-3.2l14.7-4.5c0.6-0.2,1-0.3,1.6-0.5l0.3-0.1l4.8-1.4l3.1-0.9l0.4-0.1l20.6-5.9l0.3-0.1
			l1.3-0.4l1.6-0.5c1.5-0.4,2.9-0.8,4.4-1.2l0.8-0.2l0.2-0.1l0.3-0.1c0.6-0.1,1-0.3,1.6-0.4l20.7-5.3l16.3-4.2l4.5-1.2
			c0.6-0.1,1.1-0.3,1.7-0.4c0.2-0.1,0.6-0.1,0.9-0.2l1.1-0.2h0.2c6.3-1.3,12.4-2.7,18.7-4l16.9-3.6l1.2-0.3c2.4-0.5,4.7-1,7.1-1.4
			h0.2h0.1l0.7-0.1l14.5-2.7c7.6-1.4,15.1-2.9,22.8-4.3c0.7-0.1,1.5-0.3,2.1-0.4l0.6-0.1l4.7-0.8l5.9-1l25.9-4.5
			c10.4-1.8,21.3-3.5,28.6-4.7c2.9-0.5,5.8-0.9,8.6-1.4h0.2c1.1-0.2,2.4-0.4,3.5-0.5l0.7-0.1l12.6-1.8l4.6-0.6l4.6-0.6
			c0.3-0.1,0.7-0.1,1.1-0.2h0.3h0.3l0.9-0.1l3.3-0.4l3.3-0.4l4.4-0.5l0.3-0.1l1.1-0.1l0.8-0.1c3.6-0.4,7.3-0.9,10.9-1.3l20.3-2.3
			l1.2-0.1l1.2-0.1h-0.1H452c0,0,0,0,0.1,0H452c2.6-0.2,5.3-0.4,7.8-0.7l1.1-0.1l0.6-0.1c6.1-0.5,13.4-1.2,20.5-1.8
			c10.8-0.9,21.5-1.7,32.3-2.6l4.1-0.3l2.4-0.2c6.6-0.5,13.1-1,19.7-1.5l5.3-0.4l35-2.6l2.1-0.2l3-0.2l2.9-0.2h0.4
			c0.4,0,0.8-0.1,1.2-0.1l15.1-0.7l1.9-0.1l2-0.1l33.4-1.5c1.7-0.1,3.4-0.1,5.2-0.1h0.3h0.1c0.8,0,1.7,0,2.5-0.1l11.3-0.3L674,420
			l9.4-0.2l8.9-0.2c2.7-0.1,5.3-0.1,7.2-0.1c13.1,0,26.2-0.1,39.5-0.1h2.1c0.9,0,1.7,0,2.7,0h1.1c0.7,0,1.2,0,1.9,0
			c0.8,0,1.6,0,2.4,0c5.2,0.1,10.3,0.2,15.6,0.3l11.7,0.2l22.6,0.4c0.7,0,1.3,0,2,0.1h0.2h0.9l4.1,0.1l3.7,0.1l11.2,0.4l12.3,0.4
			l7.5,0.3l7.5,0.3c1.8,0.1,3.7,0.2,5.5,0.3h0.2c0.8,0.1,1.7,0.1,2.5,0.1l22.1,1.2l20.7,1.2l2,0.1c1.7,0.1,3.3,0.2,4.9,0.3l8.4,0.7
			l8.4,0.7l16,1.3l18.4,1.4c0.7,0.1,1.3,0.1,2.1,0.2l1.1,0.1l4,0.4l4,0.4l21.6,2.1l2.4,0.2c8.1,0.8,16.3,1.6,24.3,2.4
			c22.6,2.2,45.2,4.5,67.8,6.7c18.7,1.9,38.6,4,54.5,5.7l1.7,0.2l1.1,0.1l9.2,1c6.2,0.7,12.4,1.4,18.6,2.2h0.3h0.2h0.2
			c2.5,0.3,4.9,0.6,7.4,0.9l0.8,0.1c5.8,0.7,11.5,1.4,17.4,2.1l2.9,0.3l2.4,0.3c2,0.2,4.1,0.5,6.2,0.8l10.5,1.4l8.3,1.1
			c10.2,1.4,20.4,2.7,30.6,4.1c1.6,0.2,3.1,0.4,4.7,0.7l2.1,0.3l10.4,1.5l6.8,1l9.8,1.4l7.5,1.1l6.5,0.9l30,4.8l4.8,0.8l11.5,1.8
			c2.9,0.5,5.7,0.9,8.5,1.4h0.2l3.9,0.7l0.7,0.1l10.6,1.8l11.1,1.9l3.1,0.5h0.2l0.9,0.2c2.1,0.3,4.1,0.7,6.3,1.1l37.2,6.6
			c6.4,1.1,13,2.4,19.3,3.6l0.9,0.2l1.1,0.2h0.2c2.4,0.5,4.7,0.9,7.2,1.4l1.8,0.3l3.6,0.7l9.3,1.8c2.6,0.5,5.2,1,7.7,1.5l1.1,0.2
			l0.2,0.1l4.3,0.8l7.4,1.5l0.6,0.1l3.9,0.8l2.1,0.4c5.2,1,10.2,2,15.4,3l10.3,2c7.3,1.4,14.6,2.8,21.9,4.2
			c11.7,2.3,23.3,4.6,34.9,6.9c2.4,0.5,4.6,1,6.7,1.4l0.6,0.1l1.2,0.3l0.8,0.2c0.6,0.1,1,0.2,1.6,0.3l21.3,4.5
			c2.6,0.6,5.2,1.1,7.7,1.6l0.3,0.1l1.2,0.2l21,4.3l22.8,4.6l6.4,1.3c4.4,0.9,8.9,1.9,12.8,2.7l0.4,0.1l0.4,0.1
			c4.1,0.9,9,1.9,13.4,2.9l1.3,0.3l3.3,0.7l1.3,0.3l2,0.4c8.5,1.7,17,3.5,25.6,5.2c3.7,0.8,7.7,1.6,11.9,2.5l4.7,1l0.3,0.1
			c3.5,0.8,6.9,1.5,10.4,2.2l8.5,1.8l8.5,1.8c1,0.2,2,0.4,2.9,0.5h0.2l0.6,0.1l0.6,0.1l0.6,0.1l11.1,1.9V424.3H1799.7z M1.9,459.4
			c-0.2,0.3-0.7,0.6-1.1,0.7c-0.1,0-0.1,0-0.3,0c-0.8,0-1.7-0.5-1.8-1.2c-0.3-2.1-0.6-4.4-0.7-6.4v-0.2v-0.2l-0.1-0.9l-0.2-3.7
			l-0.2-2.3l1-1.2l0,0l1.2-1.2l1.2-1.2c0.1,1.8,0.2,3.5,0.3,5.3l0.2,4.2l0.3,2.9l0.1,3.1L2,457c0,0.4,0,0.8,0.1,1.2
			C2.1,458.7,2.1,459,1.9,459.4z"/>
		<path class="st3" d="M-0.7,623.1c0.7-0.3,1.5-0.7,2.1-1s1.3-0.6,2-0.9c1.5-0.8,2.9-1.6,4.4-2.5c0.7-0.4,1.3-0.8,2-1.1
			c2.4-1.4,4.8-2.6,6.9-3.6c3.9-2,7.7-4.3,11.5-6.5l0.8-0.4c2.6-1.5,5.2-2.9,7.7-4.3c2.8-1.5,5.6-3,8.4-4.7c0.9-0.5,1.8-1.1,2.6-1.6
			c1.5-0.9,2.9-1.8,4.4-2.6c2.5-1.3,5-2.7,8.1-4.1c3.6-1.7,6.8-3,10-4c3.8-1.2,8-2.3,12.7-3.2c4.3-0.8,8.9-1.6,14.7-2.3
			c2.6-0.3,5.3-0.6,7.8-0.8c1.9-0.2,3.9-0.4,5.8-0.6l1.3-0.1c4-0.5,8.3-0.9,12.4-1.5c3.9-0.6,7.8-1.1,11.8-1.7l2.4-0.3
			c6.2-0.9,12.3-1.8,18.4-2.6c3.6-0.5,7.1-1,10.6-1.5c4.7-0.7,9.6-1.4,14.6-2.3c0.7-0.1,1.5-0.3,2.1-0.4c1.7-0.3,3.4-0.6,5-1
			l2.9-0.7l3.8-0.9c6.8-1.7,13.8-3.5,20.6-5.3c2.4-0.6,4.7-1.2,7.1-1.8l3.5-0.9l1.8-0.5c1.9-0.5,3.9-1,5.9-1.4l11.2-2.2l2-0.4
			c1-0.2,1.9-0.3,2.9-0.4c0.4-0.1,0.9-0.1,1.3-0.2l3.1-0.4l3.6-0.5c2.8-0.4,5.7-0.6,8.5-0.8l2.2-0.2c2.6-0.2,5.2-0.3,8.2-0.3h0.4
			c2.2,0,4.3,0.1,6.1,0.4c4,0.5,8.1,1.5,12,2.4l1.6,0.4c2.7,0.6,5.4,1.2,8.1,1.9l3.6,0.8l1.8,0.4c8.5,2,17.4,4.1,26.1,5.6
			c0.8,0.1,1.6,0.3,2.4,0.4c1.7,0.3,3.5,0.6,5.3,0.9c3,0.4,6.1,0.9,9.1,1.3c3.7,0.6,7.5,1,11.2,1.5l3.4,0.4
			c3.7,0.5,7.5,0.9,11.2,1.4l3.8,0.4l1.9,0.2c3.3,0.4,6.5,0.8,9.6,1.1c10.8,1.2,22.3,2.4,33.6,3.6c9.6,1,19.6,2.1,29.8,3.3
			c0.8,0.1,1.5,0.2,2.2,0.3c1.6,0.2,3.1,0.4,4.7,0.6l7.7,0.7l2,0.2c3.6,0.3,7.3,0.6,11,0.8c1.5,0.1,2.9,0.1,4.4,0.2
			c3.7,0.2,7.4,0.4,11.1,0.5c5,0.1,10.1,0.2,15.1,0.3l5-0.1c3.4-0.1,6.7-0.1,10.1-0.2c2.9-0.1,5.9-0.3,8.9-0.6c1-0.1,2-0.2,3.1-0.3
			c4.4-0.4,8.3-0.7,12-1.1l1.1-0.1c3.8-0.4,7.8-0.8,11.8-1.1c1.1-0.1,2.2-0.2,3.4-0.3c3.3-0.3,6.5-0.5,9.8-0.6l6.8-0.2l3.4-0.1
			c0.4,0,0.9,0,1.3,0c0.9,0,1.9-0.1,2.8-0.1c0.3,0,0.7,0,1,0c4.7,0.1,9.5,0.3,14.3,0.4c1.3,0,2.8,0.2,4.1,0.3
			c0.7,0.1,1.3,0.1,1.9,0.2c0.7,0.1,1.2,0.1,1.9,0.1c1.2,0.1,2.6,0.2,3.8,0.3c2.2,0.3,4.5,0.5,6.7,0.8c6.7,0.8,13.6,1.6,20.4,2.1
			c7.2,0.5,15.1,1,24.2,1.5c2.5,0.1,5,0.2,7.5,0.4c1.6,0.1,3.1,0.1,4.7,0.2l2,0.1c3,0.1,6.3,0.3,9.4,0.4c8.9,0.2,17.7,0.2,25.9,0.3
			h3.1c2.8,0,5.6,0,8.5-0.1c1.3,0,2.8,0,4.1-0.1c2.4,0,4.6-0.1,6.9-0.1c0.8,0,1.6,0,2.4,0c8.1,0.1,16.6,0.3,25,0.6
			c1.3,0.1,2.7,0.1,4,0.2c3,0.1,6.2,0.2,9.3,0.4l4,0.3c2.9,0.2,5.9,0.4,8.9,0.6c9.4,0.7,17.9,1.2,25.9,1.7s16,1.2,23.9,1.9l1.3,0.1
			c7.5,0.7,15.1,1,22.5,1.4l2.9,0.1c2.9,0.1,5.8,0.2,8.6,0.2h3.3l3.5,0.1c2.7,0,5.4,0.1,8,0.1c8.2,0.2,16.5,0.3,24.7,0.5h-0.2h3.4
			c4,0,7.4,0,10.9-0.1c4.9-0.1,10.6-0.2,16.3-0.3c0.9,0,1.9,0,2.8,0c1.3,0,2.7-0.1,4-0.1c0.7,0,1.2,0,1.9,0l3.9,0.1l4,0.1
			c2.6,0.1,4.8,0.1,7.1,0.3l5,0.4l4.5,0.3c2.1,0.2,4.3,0.3,6.4,0.5c3.1,0.2,6.3,0.5,9.4,0.7c5.7,0.3,11.3,0.7,17,1.1
			c3.3,0.2,6.6,0.5,9.9,0.7c1.8,0.1,3.6,0.3,5.4,0.4c4.4,0.3,9,0.5,13.2,0.6h1.7h1.8h1.8c1,0,1.9-0.1,2.9-0.1l1-0.1
			c2-0.1,4-0.3,6.1-0.5l1.7-0.1c5.4-0.5,11-1.2,16.7-2.3c4.7-0.9,9.5-1.9,14.2-2.9l2.7-0.6c5.4-1.1,10.9-2.4,16.4-3.6
			c2.4-0.6,4.7-1.2,7.2-1.8c8.3-2.1,17.9-4.7,27.3-7.9c4-1.4,8.5-2.8,13.1-3.7c4.5-0.9,8.9-1.7,13.2-2c9.2-0.8,18.6-1.2,27.6-1.7
			h0.7l2.9-0.1c6.3-0.3,12.8-0.6,19.2-0.6c2.7,0,5.2,0.1,7.5,0.2l1.2,0.1c2.4,0.1,4.7,0.2,7.1,0.4c2.6,0.2,5.2,0.4,7.7,0.7
			c4.8,0.5,9.8,1,14.6,1.5c8.6,0.9,17.3,2.1,25.7,3.2l2.5,0.3c10.9,1.4,21,2.6,30.6,3.4c0.9,0.1,1.8,0.2,2.7,0.3
			c1.9,0.2,3.9,0.4,5.8,0.5l4.3,0.2l4.3,0.2c4.4,0.2,8.7,0.4,13,0.5l2,0.1c3.8,0.1,7.7,0.2,11.5,0.2l4,0.1c3.3,0.1,6.5,0.2,9.8,0.3
			c1.3,0,2.8,0.1,4.1,0.1c1.9,0.1,3.8,0.2,5.6,0.4c0.9,0.1,1.8,0.1,2.6,0.2l1.2,0.1c1.5,0.1,2.9,0.2,4.3,0.3
			c4.9,0.5,9.9,0.9,14.8,1.4c9.9,1,20.3,2.2,32.1,3.7c3.6,0.4,7.2,1,10.6,1.5c1.6,0.2,3.1,0.4,4.6,0.7c3.3,0.5,6.5,0.9,9.8,1.4
			l4.9,0.7c9.2,1.3,18.5,2.4,28.1,3.6c5.5,0.7,10.9,1.3,16.4,2c4.3,0.5,8.6,0.9,12.9,1.3l1.6,0.1c1.9,0.2,3.9,0.3,5.7,0.4
			c0.7,0,1.5,0.1,2.1,0.1c2.1,0.1,4.1,0.2,6.3,0.2c5.5,0.1,11,0.2,16.5,0.3c3.8,0.1,8,0.1,13.2,0.1c2.5,0,5,0,7.5,0
			c1.2,0,2.5,0,3.8,0c1.2,0,2.5,0,3.8,0h-1.2c1.5,0,3,0,4.5,0c2.9,0,5.9,0,9-0.1c1.1,0,2.4-0.1,3.5-0.1c2.8-0.1,5.6-0.2,8.4-0.2
			c3.6,0,7.8,0,12,0.1c3.6,0.1,7.2,0.3,10.6,0.4l2,0.1c5,0.2,10.2,0.5,15.2,0.8c3.1,0.2,6.4,0.4,9.5,0.5c0.8,0,1.6,0.1,2.5,0.1
			c2.7,0.2,5.5,0.3,8.2,0.3c4.1,0,8.3,0.1,12.6,0.1h0.4c3.7-0.1,7.5-0.3,11.2-0.4c2.2-0.1,4.6-0.3,6.8-0.4c1.1-0.1,2.1-0.2,3.3-0.3
			s2.1-0.2,3.3-0.3c0.4-0.1,0.9-0.1,1.3-0.2l2.7-0.3l2.9-0.3c2.1-0.2,4.3-0.6,6.4-0.9c1-0.1,2-0.3,3-0.4c5.5-0.8,11.1-1.6,16.5-2.4
			l3.4-0.5c2.9-0.4,6.5-0.9,10.1-1.3c2.4-0.3,4.8-0.5,7.3-0.7c2.2-0.2,4.6-0.3,7.1-0.3c1,0,2,0,3,0c2.9,0,5.6,0.1,8.2,0.4
			c3.5,0.3,6.5,0.7,9.4,1.1c0.3,0,0.6,0.1,0.9,0.1v-29.1l-11.1-1.9l-0.6-0.1l-0.6-0.1l-0.6-0.1h-0.2c-0.9-0.1-2-0.3-2.9-0.5
			l-8.5-1.8l-8.5-1.8c-3.5-0.7-6.9-1.5-10.4-2.2l-0.3-0.1l-4.7-1c-4-0.9-8.1-1.7-11.9-2.5c-8.5-1.7-17-3.5-25.6-5.2l-2-0.4l-1.3-0.3
			l-3.3-0.7l-1.3-0.3c-4.5-0.9-9.3-2-13.4-2.9l-0.4-0.1l-0.4-0.1c-3.9-0.9-8.5-1.8-12.8-2.7l-6.4-1.3l-22.8-4.6l-21-4.3l-1.2-0.2
			l-0.3-0.1c-2.6-0.5-5.2-1-7.7-1.6l-21.3-4.5c-0.6-0.1-1-0.2-1.6-0.3l-0.8-0.2l-1.2-0.3l-0.6-0.1c-2.1-0.5-4.5-1-6.7-1.4
			c-11.7-2.3-23.3-4.6-34.9-6.9c-7.3-1.4-14.6-2.8-21.9-4.2l-10.3-2c-5.2-1-10.2-2-15.4-3l-2.1-0.4l-3.9-0.8l-0.6-0.1l-7.4-1.5
			l-4.3-0.8l-0.2-0.1l-1.1-0.2c-2.6-0.5-5.2-1-7.7-1.5l-9.3-1.8l-3.6-0.7l-1.8-0.3c-2.4-0.4-4.7-0.9-7.2-1.4h-0.2l-1.2-0.2l-0.9-0.2
			c-6.3-1.2-12.9-2.4-19.3-3.6l-37.2-6.6c-2.1-0.4-4.1-0.7-6.3-1.1l-0.9-0.1h-0.2l-3.1-0.5l-11.1-1.9l-10.6-1.8l-0.7-0.1l-3.9-0.7
			h-0.2c-2.9-0.5-5.7-1-8.5-1.4l-11.5-1.8l-4.8-0.8l-30-4.8l-6.5-0.9l-7.5-1.1l-9.8-1.4l-6.8-1l-10.4-1.5l-2.1-0.3
			c-1.6-0.2-3.1-0.5-4.7-0.7c-10.2-1.4-20.4-2.7-30.6-4.1l-8.3-1.1l-10.5-1.4c-2-0.3-4.1-0.5-6.2-0.8l-2.4-0.3l-2.9-0.3
			c-5.8-0.7-11.5-1.4-17.4-2.1l-0.8-0.1c-2.5-0.3-4.9-0.6-7.4-0.9h-0.2h-0.2h-0.3c-6.1-0.7-12.3-1.5-18.6-2.2l-9.2-1l-1.1-0.1
			l-1.7-0.2c-15.9-1.7-35.8-3.8-54.5-5.7c-22.6-2.2-45.2-4.5-67.8-6.7c-8.1-0.8-16.3-1.6-24.3-2.4l-2.4-0.2l-21.6-2.1l-4-0.4l-4-0.4
			l-1.1-0.1c-0.7-0.1-1.3-0.1-2.1-0.2l-18.4-1.4l-16-1.3l-8.4-0.7l-8.4-0.7c-1.7-0.1-3.3-0.2-4.9-0.3l-2-0.1l-20.7-1.2l-22.1-1.2
			c-0.8,0-1.7-0.1-2.5-0.1h-0.2c-1.8-0.1-3.7-0.2-5.5-0.3l-15.1-0.5l-12.3-0.4l-11.2-0.4l-3.7-0.1l-4.1-0.1h-0.9h-0.2
			c-0.7,0-1.3-0.1-2-0.1l-22.6-0.4l-11.7-0.2c-5.2-0.1-10.3-0.2-15.6-0.3c-0.8,0-1.6,0-2.4,0c-0.7,0-1.2,0-1.9,0h-1.1
			c-0.9,0-1.8,0-2.7,0h-2.1c-13.1,0-26.2,0.1-39.5,0.1c-1.9,0-4.5,0-7.2,0.1l-8.9,0.2l-9.4,0.2l-11.7,0.3l-11.3,0.3
			c-0.8,0-1.7,0-2.5,0.1h-0.1h-0.3c-1.8,0-3.5,0.1-5.2,0.1l-33.4,1.5l-2,0.1l-1.9,0.1l-15.1,0.7c-0.3,0-0.8,0-1.2,0.1h-0.4l-2.9,0.2
			l-3,0.2l-2.1,0.2l-35,2.6l-5.3,0.4c-6.6,0.5-13.1,1-19.7,1.5l-2.4,0.2l-4.1,0.3c-10.8,0.9-21.5,1.7-32.3,2.6
			c-7.1,0.6-14.5,1.2-20.5,1.8l-0.7,0.1l-1.1,0.1c-2.6,0.2-5.3,0.5-7.8,0.7l0.2,0.1l-2.5,0.2l-20.3,2.3c-3.6,0.4-7.3,0.9-10.9,1.3
			l-0.8,0.1l-1.1,0.1l-0.3,0.1l-4.4,0.5l-3.3,0.4l-3.3,0.4l-0.9,0.1h-0.3h-0.3c-0.4,0.1-0.8,0.1-1.1,0.1l-4.6,0.6l-4.6,0.6
			l-12.6,1.8l-0.7,0.1c-1.1,0.2-2.4,0.3-3.5,0.5H376c-2.9,0.5-5.8,0.9-8.6,1.4c-7.3,1.2-18.2,2.9-28.6,4.7l-25.9,4.5l-5.9,1
			l-4.7,0.8l-0.6,0.1c-0.7,0.1-1.5,0.2-2.1,0.4c-7.6,1.4-15.1,2.9-22.8,4.3l-14.5,2.7l-0.7,0.1h-0.1h-0.2c-2.4,0.4-4.7,0.9-7.1,1.4
			l-1.2,0.3l-16.9,3.6c-6.3,1.3-12.4,2.7-18.7,4h-0.2l-1.1,0.2c-0.3,0.1-0.6,0.1-0.9,0.2c-0.6,0.1-1.1,0.2-1.7,0.4L209,475
			l-16.3,4.2l-20.7,5.3c-0.6,0.1-1,0.3-1.6,0.4l-0.3,0.1l-0.2,0.1l-0.8,0.2c-1.5,0.4-2.9,0.8-4.4,1.2l-1.6,0.5l-1.3,0.4l-0.3,0.1
			l-20.6,5.9l-0.4,0.1l-3.1,0.9l-4.8,1.4l-0.3,0.1c-0.6,0.1-1,0.3-1.6,0.5l-14.7,4.5l-10.3,3.2l-10.2,3.1c-0.2,0.1-0.6,0.2-0.8,0.2
			l-0.4,0.1c-0.8,0.2-1.5,0.4-2.2,0.7l-1.8,0.6l-1.8,0.6L77.8,513l-22.6,7.8l-13.8,5.6l-13.9,5.3l-2.8,1.2l-3,1.2
			c-1.3,0.6-2.8,1.2-4.8,2.1l-0.3,0.2h-0.1c-4.9,2.3-10.1,4.6-15,7.1l-1.3,0.7l-0.2,0.1c-1.5,0.7-3.1,1.6-4.9,2.6v76.2H-0.7z"/>
		<path class="st4" d="M1799.7,623.1v-30.3c-0.3,0-0.6-0.1-0.9-0.1c-2.8-0.4-5.9-0.8-9.4-1.1c-2.6-0.2-5.3-0.4-8.2-0.4c-1,0-2,0-3,0
			c-2.4,0-4.7,0.1-7.1,0.3c-2.5,0.2-4.9,0.5-7.3,0.7c-3.6,0.4-7.1,0.9-10.1,1.3l-3.4,0.5c-5.4,0.8-11,1.6-16.5,2.4
			c-1,0.1-2,0.3-3,0.4c-2.1,0.3-4.3,0.6-6.4,0.9l-2.9,0.3l-2.7,0.3c-0.4,0.1-0.9,0.1-1.3,0.2c-1,0.1-2.1,0.3-3.3,0.3
			c-1.1,0.1-2.1,0.2-3.3,0.3c-2.2,0.2-4.5,0.4-6.8,0.5c-3.7,0.1-7.5,0.3-11.2,0.4h-0.4c-4.1,0-8.3-0.1-12.6-0.1
			c-2.7,0-5.5-0.2-8.2-0.3c-0.8,0-1.6-0.1-2.5-0.1c-3.1-0.2-6.4-0.4-9.5-0.5c-4.9-0.3-10.1-0.6-15.1-0.8l-2-0.1
			c-3.5-0.2-7.1-0.3-10.6-0.4c-4.1-0.1-8.4-0.1-12-0.1c-2.8,0-5.6,0.1-8.4,0.2c-1.1,0-2.4,0.1-3.5,0.1c-3,0.1-6.1,0.1-9,0.1
			c-1.5,0-3,0-4.5,0h1.2c-1.2,0-2.5,0-3.8,0c-1.2,0-2.5,0-3.8,0c-2.5,0-5,0-7.5,0c-5.3,0-9.3,0-13.2-0.1c-5.5-0.1-11-0.2-16.5-0.3
			c-2.1,0-4.1-0.1-6.3-0.2c-0.7,0-1.5-0.1-2.1-0.1c-1.9-0.1-3.8-0.2-5.7-0.4l-1.6-0.1c-4.3-0.4-8.6-0.8-12.9-1.3
			c-5.5-0.6-10.9-1.3-16.4-2c-9.5-1.2-18.8-2.3-28.1-3.6l-4.9-0.7c-3.3-0.5-6.5-0.9-9.8-1.4c-1.6-0.2-3.1-0.4-4.7-0.7
			c-3.5-0.5-7.1-1-10.6-1.5c-11.8-1.5-22.2-2.7-32.1-3.7c-4.9-0.5-9.9-0.9-14.8-1.4c-1.5-0.1-2.9-0.2-4.3-0.3l-1.2-0.1
			c-0.9-0.1-1.8-0.1-2.6-0.2c-1.9-0.1-3.8-0.3-5.6-0.4c-1.3,0-2.8-0.1-4.1-0.1c-3.1-0.1-6.5-0.2-9.8-0.3l-4-0.1
			c-3.8-0.1-7.7-0.1-11.5-0.2l-2-0.1c-4.3-0.1-8.6-0.3-13-0.5l-4.3-0.2l-4.3-0.2c-1.9-0.1-3.9-0.3-5.8-0.5c-0.9-0.1-1.8-0.2-2.7-0.3
			c-9.8-0.9-19.7-2-30.6-3.4l-2.5-0.3c-8.4-1.1-17.1-2.2-25.7-3.2c-4.8-0.5-9.8-1-14.6-1.5c-2.6-0.3-5.3-0.5-7.7-0.7
			c-2.4-0.2-4.8-0.3-7.1-0.4l-1.2-0.1c-2.4-0.1-4.8-0.2-7.5-0.2c-6.4,0-12.9,0.3-19.2,0.6l-2.9,0.1h-0.7c-9.1,0.4-18.4,0.9-27.6,1.7
			c-4.5,0.4-8.7,1.2-13.2,2c-4.6,0.9-9.1,2.3-13.1,3.7c-9.3,3.2-19.1,5.8-27.2,7.9c-2.4,0.6-4.7,1.2-7.2,1.8
			c-5.5,1.2-11,2.5-16.4,3.6l-2.7,0.6c-4.6,1-9.4,2-14.2,2.9c-5.8,1.1-11.4,1.8-16.7,2.3l-1.7,0.1c-2,0.2-4,0.4-6.1,0.5l-1,0.1
			c-0.9,0.1-1.9,0.1-2.9,0.1h-1.8h-1.8l-1.6-0.1c-4.4-0.1-8.9-0.3-13.2-0.6c-1.8-0.1-3.6-0.3-5.4-0.4c-3.3-0.2-6.6-0.5-9.9-0.7
			c-5.7-0.4-11.3-0.7-17-1.1c-3.1-0.2-6.4-0.4-9.4-0.7c-2.1-0.2-4.3-0.3-6.4-0.5l-4.5-0.3l-5-0.4c-2.2-0.2-4.5-0.2-7.1-0.3l-4-0.1
			l-3.9-0.1c-0.7,0-1.2,0-1.9,0c-1.3,0-2.7,0-4,0.1c-0.9,0-1.9,0-2.8,0.1c-5.6,0.1-11.3,0.2-16.3,0.3c-3.5,0.1-6.8,0.1-10.9,0.1
			h-3.4h0.2c-8.2-0.1-16.5-0.3-24.7-0.5c-2.7-0.1-5.4-0.1-8-0.1l-3.5-0.1c-1.1,0-2.1,0-3.3,0c-2.8,0-5.7-0.1-8.6-0.2l-2.9-0.1
			c-7.4-0.4-15-0.7-22.5-1.4l-1.3-0.1c-7.8-0.7-15.9-1.4-23.9-1.9c-8.1-0.5-16.5-1.1-25.9-1.7c-2.9-0.2-5.9-0.4-8.9-0.6l-4-0.3
			c-3.1-0.2-6.3-0.3-9.3-0.4c-1.3-0.1-2.7-0.1-4-0.2c-8.4-0.4-16.9-0.5-25-0.6c-0.8,0-1.6,0-2.4,0c-2.4,0-4.6,0-6.9,0.1
			c-1.3,0-2.8,0-4.1,0.1c-2.8,0-5.6,0.1-8.5,0.1h-3.1c-8.3,0-17-0.1-25.9-0.3c-3.1-0.1-6.3-0.2-9.4-0.4l-2-0.1
			c-1.6-0.1-3.1-0.1-4.7-0.2c-2.5-0.1-5-0.2-7.5-0.4c-9.1-0.5-16.9-1-24.2-1.5c-6.8-0.5-13.8-1.3-20.4-2.1c-2.2-0.3-4.5-0.5-6.7-0.8
			c-1.2-0.1-2.6-0.2-3.8-0.3c-0.7,0-1.2-0.1-1.9-0.1c-0.7-0.1-1.3-0.1-1.9-0.2c-1.3-0.1-2.7-0.3-4.1-0.3c-4.7-0.1-9.5-0.3-14.3-0.4
			c-0.3,0-0.7,0-1,0c-0.9,0-1.9,0-2.8,0.1c-0.4,0-0.9,0-1.3,0l-3.4,0.1l-6.8,0.2c-3.3,0.1-6.6,0.4-9.8,0.6c-1.1,0.1-2.2,0.2-3.4,0.3
			c-3.9,0.3-8,0.7-11.8,1.1l-1.1,0.1c-3.7,0.4-7.5,0.8-12,1.1c-1,0.1-2,0.2-3,0.3c-2.9,0.3-5.8,0.5-8.9,0.6
			c-3.4,0.1-6.7,0.1-10.1,0.2l-5,0.1c-5-0.1-10.1-0.2-15.1-0.3c-3.7-0.1-7.5-0.3-11.1-0.5c-1.5-0.1-2.9-0.1-4.4-0.2
			c-3.7-0.2-7.4-0.5-11-0.8l-2-0.2l-7.7-0.7c-1.6-0.1-3.1-0.3-4.7-0.6c-0.8-0.1-1.5-0.2-2.2-0.3c-10.1-1.3-20.2-2.4-29.8-3.3
			c-11.3-1.1-22.9-2.4-33.6-3.6c-3.3-0.4-6.5-0.7-9.6-1.1l-1.9-0.2l-3.8-0.4c-3.7-0.4-7.5-0.9-11.2-1.4l-3.4-0.4
			c-3.7-0.5-7.5-1-11.2-1.5c-3-0.4-6.1-0.9-9.1-1.3c-1.8-0.3-3.5-0.6-5.3-0.9c-0.8-0.1-1.6-0.3-2.4-0.4c-8.9-1.6-17.6-3.6-26.1-5.6
			l-1.8-0.4l-3.6-0.8c-2.7-0.6-5.4-1.3-8.1-1.9l-1.6-0.4c-3.9-0.9-8-1.8-12-2.4c-1.8-0.2-3.8-0.4-6.1-0.4H279c-3,0-5.6,0.1-8.2,0.3
			l-2.2,0.2c-2.8,0.2-5.7,0.4-8.5,0.9l-3.6,0.5l-3.1,0.4c-0.4,0.1-0.9,0.1-1.3,0.2c-1,0.1-1.9,0.2-2.9,0.4l-2,0.4l-11.2,2.2
			c-2,0.4-4,0.9-5.9,1.4l-1.8,0.5l-3.5,0.9c-2.4,0.6-4.7,1.2-7.1,1.8c-6.8,1.8-13.8,3.5-20.6,5.3l-3.8,0.9l-2.9,0.7
			c-1.7,0.4-3.4,0.7-5,1c-0.7,0.1-1.5,0.3-2.1,0.4c-4.9,0.9-9.8,1.6-14.6,2.3c-3.6,0.5-7.1,1-10.6,1.5c-6.1,0.8-12.2,1.7-18.4,2.6
			l-2.4,0.3c-3.9,0.6-7.8,1.2-11.8,1.7c-4.1,0.6-8.3,1.1-12.4,1.5l-1.3,0.1c-1.9,0.2-3.9,0.4-5.8,0.6c-2.6,0.3-5.2,0.5-7.8,0.8
			c-5.8,0.7-10.4,1.4-14.7,2.3c-4.7,0.9-8.9,2-12.7,3.2c-3,1-6.3,2.3-10,4c-3,1.4-5.6,2.7-8.1,4.1c-1.5,0.8-3,1.7-4.4,2.6
			c-0.9,0.5-1.7,1.1-2.6,1.6c-2.7,1.6-5.6,3.2-8.4,4.7c-2.6,1.4-5.3,2.8-7.7,4.3l-0.8,0.4c-3.7,2.2-7.6,4.5-11.5,6.5
			c-2.1,1-4.5,2.2-6.9,3.6c-0.7,0.4-1.3,0.8-1.9,1.1c-1.5,0.8-2.9,1.7-4.4,2.5c-0.7,0.3-1.3,0.6-2,0.9c-0.7,0.3-1.5,0.6-2.1,1
			h1799.9V623.1z"/>
	</g>
	<g>
		<path class="st4" d="M284.6,324.4c-1.1,0-2.1,0.4-2.9,1.1c-0.8,0.7-1.2,1.6-1.7,2.5c-0.5,1.1-0.8,2.3-1.1,3.3
			c-0.3,1.1-0.6,2.3-0.9,3.4c-0.2,0.8-0.3,1.6-0.5,2.3c-0.1,0.4-0.1,0.7-0.2,1.1c-0.2,0.8-0.3,1.7-0.4,2.5
			c-0.5,3.4-1.1,7.3-1.3,11.1c-0.1,1.7-0.1,3.3,0,5v1.1v2.3v2.3c0.1,7.2,0.5,14.5,0.9,21.5l0.1,1.7c0.2,2.6,0.3,5.1,0.4,7.7l0.2,3.5
			c0.1,1.2,0.1,2.3,0.1,3.5v0.5l-0.9-2l-0.7-1.6c-1.7-3.9-3.5-7.7-5.3-11.2c-0.3-0.7-0.7-1.3-1-2c-0.7-1.5-1.5-3.1-2.3-4.7
			c-1.3-2.5-2.7-5.1-4.2-7.8c-1.6-2.8-3.1-5.2-4.8-7.5c-0.7-0.9-1.5-1.8-2.5-2.8c-0.8-0.8-1.8-1.4-2.9-1.8c-0.3-0.1-0.6-0.1-0.9-0.1
			c-1,0-1.9,0.5-2.4,0.7c-1.3,0.7-1.7,2.4-1.9,3.7c-0.5,2.8,0,5.6,0.4,8.4l0.2,1.1c0.3,1.7,0.6,3.4,0.9,4.8c0.1,0.6,0.2,1.2,0.3,1.7
			c0.2,1.2,0.5,2.5,0.8,3.8c0.5,2.1,1.1,4.3,1.6,6.4c0.1,0.4,0.2,0.8,0.4,1.2c0.1,0.2,0.1,0.4,0.2,0.5l0.7,2.1l0.7,2.1
			c0.5,1.7,1.1,3.3,1.7,4.9c0.6,1.7,1.2,3.5,1.8,5.3c0.4,1.2,0.8,2.5,1.2,3.7l0.8,2.6l0.5,1.4l0.5,1.4c0.5,1.4,0.9,2.9,1.3,4.4
			c-5.1-4.2-10.7-8.4-16.5-12.4c-2.7-1.9-5.5-3.9-8.2-5.8l-1.1-0.8c-1-0.7-2-1.5-3-2.2l-1.4-1.1c-0.5-0.4-1.1-0.8-1.7-1.2l-1-0.7
			c-1-0.7-1.9-1.3-2.8-1.8c-1.1-0.6-2.2-0.8-3.5-1.1l-0.3-0.1c-0.2-0.1-0.5-0.1-0.7-0.1c-0.4,0-0.8,0.1-1.2,0.3
			c-0.7,0.4-1.3,1.2-1.2,2.1c0.1,0.6,0.1,1.3,0.3,1.9c0.1,0.5,0.4,1.1,0.6,1.6v0.1c0.3,0.7,0.6,1.3,0.9,1.9c0.4,0.7,0.8,1.5,1.4,2.5
			c1.1,2,2.2,3.9,3.4,5.9c0.9,1.6,1.8,3.1,2.7,4.6l0.7,1.2c0.9,1.5,1.9,3,2.8,4.5l0.4,0.6c2.3,3.5,4.7,7,7,10.4l0.8,1.2
			c0.7,1.1,1.4,2.1,2.1,3.2l0.9,1.5l0.7,1c1.2,1.9,2.5,3.9,3.7,5.9c2.7,4.5,4.9,8.7,6.6,12.8c1.5,3.5,2.8,7.1,4.1,10.9
			c0.3,0.8,1,1.4,1.8,1.4c0.2,0,0.3,0,0.5-0.1c0.5-0.1,0.9-0.5,1.2-1c0.2-0.4,0.3-0.9,0.1-1.3c-1.1-3.2-2.2-6.1-3.2-8.8
			c0.2,0,0.5,0,0.7,0c0.6,0.1,1.2,0.3,1.8,0.4c0.6,0.1,1.1,0.3,1.7,0.4c1.6,0.4,3.4,0.6,5.3,0.8c2.5,0.3,5.2,0.4,8.4,0.4h0.2
			c5,0,10-0.8,14.9-1.5c0.9-0.1,1.7-0.3,2.6-0.4c1.1-0.1,2.2-0.3,3.4-0.4c0.6-0.1,1.2-0.1,1.9-0.1c1.5,0,2.9,0.1,4.3,0.3l0.7,0.1
			c1.9,0.3,3.9,0.6,5.8,0.6c0.5,0,0.9,0,1.4,0c1.6,0,3.2-0.1,4.7-0.2c2.8-0.3,5.7-0.6,8.5-0.9c1.6-0.2,3.2-0.4,4.9-0.6
			c1.5-0.2,3-0.3,4.5-0.4l1.4-0.1c2-0.1,4.1-0.3,6.2-0.5s4.3-0.6,6.6-1.1c0.9-0.2,1.9-0.5,2.8-0.7c1.6-0.5,2.9-0.9,3.9-1.4
			c1.4-0.7,2.6-1.8,3.6-3.4l0.2-0.5l0.3-0.8c0.1-0.4,0.2-0.7,0.2-1.1c0.1-0.8,0.1-1.5,0.1-2.3l-0.1-0.7c-0.1-1.1-0.2-2.2-0.3-3.3
			c-0.2-2.5-0.6-5-0.9-7.4l-0.1-0.6c-0.4-2.8-0.7-5.7-1-8.5l-0.4-3.4c-0.4-3.9-0.9-8.1-1.4-13.6c-0.5-4.7-0.7-9.5-0.8-14.2
			c-0.1-3.7-0.3-7.6-0.6-11.3c-0.1-1.9-0.5-3.9-1.1-5.9c-0.8-2.6-1.9-4.5-3.4-5.5c-0.8-0.5-1.7-0.8-2.6-0.8c-0.2,0-0.3,0-0.5,0
			c-0.6,0-1.2,0.2-1.7,0.5c-0.6,0.3-1.1,0.7-1.6,1.1c-0.3,0.3-0.6,0.6-0.8,1c-0.4,0.5-0.8,1-1.1,1.5c-0.3,0.4-0.5,0.8-0.8,1.2
			l-0.2,0.4c-1.9,3.1-3.5,6.4-4.8,9.3c-1.7,3.5-3.3,7-5,10.5c-1.6,3.3-3,6.8-4.3,9.9l-0.2,0.4l-0.1,0.2l-0.1-1.2v-0.1v0.2
			c-0.5-4-1-8-1.4-12.7c-0.2-1.5-0.3-3.1-0.4-4.6l-0.2-2.1l-0.2-1.9c-0.4-4.1-0.8-8.3-1.7-12.3c-0.3-1.3-0.6-2.5-1.3-3.6
			c-0.2-0.4-0.6-0.8-1.1-1.3c-0.5-0.4-0.9-0.6-1.5-0.8l-0.1-0.1c-0.2-0.1-0.5-0.1-0.8-0.1c-1.1,0-2.1,0.7-2.7,1.4
			c-0.8,0.9-1.3,2-1.7,3.3c-0.6,1.7-1.2,3.5-1.7,5.2l-0.2,0.7c-0.4,1.2-0.7,2.3-1.1,3.5c-0.9,2.9-1.8,5.9-2.7,8.8l-0.5,1.5
			c-0.8,2.4-1.5,4.8-2.3,7.2c-0.2,0.7-0.4,1.4-0.7,2.1c-0.4,1.3-0.8,2.6-1.2,3.8c-0.1-0.6-0.3-1.2-0.4-1.8c-0.5-1.9-1-4-1.4-6.1
			c-0.8-4.1-1.6-8.3-2.4-13c-1.2-6.6-2.2-13.2-3.2-19.7c-0.4-2.4-0.8-4.9-1.2-7.3c-0.6-3.4-1.2-7.2-2-11.5l-0.3-1.6
			c-0.4-2.1-0.8-4.3-1.2-6.4c-0.3-1.4-0.6-2.8-1.1-4.3l-0.1-0.2c-0.3-0.9-0.7-1.9-1.2-2.8C287.4,325.2,286.1,324.4,284.6,324.4"/>
		<path class="st4" d="M1247,398.8L1247,398.8c-0.9,0-1.6,0.2-2.3,0.4c-1.4,0.5-2.7,1.4-3.9,2.2l-0.2,0.1l-0.3,0.2
			c-0.6,0.4-1.2,0.8-1.7,1.1c-1.5,1-3,2-4.4,3c-2.7,1.8-5.3,3.6-8,5.5l-1.5,1c-0.9,0.6-1.8,1.3-2.7,1.9l-1.1,0.8
			c-0.4,0.3-0.9,0.6-1.3,0.9c-0.9,0.7-1.9,1.3-2.8,2s-1.8,1.4-2.8,2.1c-1.8,1.4-3.6,2.7-5.4,4.1l-4.8,3.8l-4.8,3.8
			c-2,1.5-3.9,3.1-5.8,4.7c-0.9,0.8-1.9,1.6-2.9,2.3l-1.5,1.2c-1.3,1.1-2.6,2.1-3.9,3.2c-4.2,3.5-8.1,6.5-12.6,8.7
			c-1.3,0.5-2.5,0.9-3.6,1.2c-0.2,0-0.5,0-0.7,0h-0.1c-0.5-1.2-0.7-2.5-1-3.8c-0.2-1-0.4-2-0.6-3c-0.1-0.5-0.2-1-0.2-1.6l-0.1-0.6
			c-0.1-0.7-0.2-1.4-0.2-2.1c0-0.3,0-0.7-0.1-1c-0.1-1.3-0.1-2.6-0.1-3.9c0-0.4,0-0.9,0-1.3l-0.1-3.1l-0.1-3.1
			c0-2.6-0.1-5.6-0.3-8.7c-0.1-1.6-0.3-3-0.6-4.3c-0.2-0.9-0.7-1.7-1.1-2.5c-0.2-0.3-0.3-0.7-0.5-1c-0.3-0.4-0.6-0.8-1.1-1
			c-0.4-0.2-0.9-0.3-1.3-0.3c-0.3,0-0.5,0-0.8,0.1c-1,0.3-1.9,0.5-2.7,1.2c-0.7,0.5-1.3,1.2-1.8,1.8c-0.2,0.2-0.3,0.4-0.5,0.6
			c-0.4,0.4-0.7,0.8-1.1,1.3l-0.7,0.8c-1.1,1.3-2.3,2.6-3.4,3.9c-2.5,2.9-5.1,5.9-7.5,8.7l-0.1,0.1c-1.6,1.9-3.3,4-4.8,6
			c-0.6,0.7-1.2,1.5-1.8,2.2c-1.4,1.8-3,3.7-4.5,5.7c-1.7,2.2-3.1,4-4.6,5.7l-0.8,0.9c-1.2,1.3-2.4,2.7-3.7,4
			c-0.8,0.6-1.5,1.1-2.3,1.5c-0.2,0.1-0.3,0.1-0.5,0.2h-0.2l-0.1-0.1c-0.4-1-0.5-2-0.7-3c0-0.3-0.1-0.5-0.1-0.8v0.1
			c-0.2-1.4-0.4-2.8-0.6-4.3c-0.3-2-0.6-4.1-0.9-6.1c-0.1-0.3-0.1-0.6-0.2-1c-0.1-0.5-0.3-1-0.6-1.4c-0.3-0.5-0.9-1-1.5-1.1h-0.3
			c-0.2,0-0.5-0.1-0.7-0.1s-0.4,0-0.6,0.1c-0.3,0.1-0.6,0.2-0.8,0.4c-0.3,0.2-0.7,0.5-1.1,0.9c-0.3,0.2-0.5,0.5-0.7,0.8
			c-0.1,0.1-0.2,0.3-0.3,0.4c-0.7,0.7-1.4,1.5-2,2.3l-1.2,1.3c-1.9,2.1-3.7,4.1-5.6,6.1l-0.3,0.4c-1.3,1.4-2.7,2.8-4,4.3
			c-0.3,0.3-0.6,0.7-1,1s-0.6,0.7-1,1c-0.8,0.8-1.6,1.7-2.5,2.6c-0.7,0.7-1.6,1.4-2.3,2.1c-1,0.8-1.8,1.3-2.6,1.7
			c-0.7,0.3-1.3,0.5-1.9,0.6c-0.1,0-0.2,0-0.3,0l-0.2-0.1l-0.1-0.1c-0.3-0.3-0.7-0.6-1-1c-0.2-0.3-0.4-0.7-0.6-1.1
			c-1.1-2.5-2.1-5.1-3-7.6c-0.3-0.9-0.7-1.8-1-2.7c-0.5-1.4-1-2.7-1.5-4.1c-0.7-2-1.4-4.1-2.3-6.2c-0.7-1.7-1.3-3-1.9-4.2
			c-0.8-1.6-1.9-2.9-2.7-3.7c-0.4-0.4-1-0.8-1.7-1c-0.3-0.1-0.7-0.2-1.1-0.2c-0.3,0-0.7,0.1-1.2,0.2l-0.3,0.2l-0.6,0.3
			c-0.3,0.2-0.5,0.4-0.8,0.6c-0.2,0.3-0.4,0.5-0.6,0.8c-0.2,0.4-0.3,0.9-0.5,1.3c-0.7,1.9-0.8,4-0.9,6.1c-0.1,1.2-0.1,2.4-0.2,3.6
			v0.3c-0.1,0.8-0.2,1.5-0.3,2.3c-0.1,0.6-0.2,1.2-0.4,1.8c-0.1,0.3-0.1,0.6-0.2,0.9c-0.3,1.5-0.7,3-1,4.5l-0.3,1.3
			c-0.3,1.3-0.7,2.5-1,3.7c-0.1,0.4-0.3,0.9-0.4,1.3l-0.4,1.5l-0.4,1.5c-0.6,2-1.3,3.9-2,5.8l-0.2,0.4c-1.3,3.4-2.8,6.8-4.6,10.3
			c-1,2-2.1,4-2.9,5.5c-0.1,0.1-0.1,0.2-0.2,0.4c-0.8,0.1-1.6,0.2-2.5,0.3l-0.6,0.1c-0.4,0-0.8,0.1-1.1,0.1c-0.4,0-0.9,0.1-1.3,0.1
			c-0.5,0.1-1,0.2-1.5,0.2c-0.2,0-0.4,0.1-0.6,0.2c-0.8,0.2-1.4,0.6-2,1.2c-0.4,0.4-0.8,0.8-1,1.4c-0.3,0.6-0.5,1.3-0.5,2v0.1v0.1
			c-0.1,1.4,0.9,2.6,2,3.2c0.5,0.2,1,0.4,1.6,0.4c0.3,0.1,0.7,0.1,1.1,0.1c0.2,0,0.4,0,0.7,0c0.5-0.1,1-0.1,1.4-0.2l0.3-0.1
			c1.9-0.3,3.8-0.6,5.7-0.9h-0.2c0.5-0.1,1-0.1,1.4-0.2l1-0.2c1.5-0.2,3-0.5,4.5-0.7c0.8-0.1,1.6-0.2,2.4-0.4c2.7-0.4,5.6-1,9.1-1.8
			c0.8-0.2,1.5-0.3,2.2-0.5c2-0.5,4-0.9,6-1.3c1.7-0.2,3.5-0.4,5.2-0.5c0.9-0.1,1.7-0.2,2.6-0.2c1.3-0.1,2.6-0.3,3.9-0.4
			c1.6-0.1,3.1-0.3,4.7-0.4c4.4-0.5,8.9-1.2,13.2-2c1.5-0.3,3-0.5,4.6-0.8c1.9-0.3,3.4-0.5,4.8-0.7c1.3-0.2,2.7-0.2,4-0.3h0.8
			c3.3-0.1,6.8-0.3,10.2-0.3c1.2,0,2.3,0,3.5,0c0.7,0,1.4,0,2,0c1.8,0,3.6,0.1,5.4,0.2c2.9,0.1,5.8,0.3,8.6,0.4l1.5,0.1
			c3.2,0.2,6.4,0.3,9.7,0.5c2.3,0.1,4.7,0.4,6.9,0.6l1.3,0.1c3.7,0.4,6.8,0.8,9.6,1.3c4.3,0.7,7.9,1.1,11.1,1.4
			c3.5,0.3,7.1,0.7,10.6,1c3.3,0.3,6.6,0.7,9.9,1l2,0.2c2.6,0.3,5.3,0.6,8,0.8c0.6,0,1.2,0.1,1.8,0.2c1.2,0.1,2.5,0.2,3.8,0.3
			l1.7,0.1c1.3,0.1,2.6,0.1,3.9,0.1c2.3,0.1,5,0.1,7.6,0.1c0.9,0,1.8,0,2.6,0c1.8,0,3.8-0.1,5.7-0.2c1.9-0.1,3.9-0.3,5.7-0.4
			c2.9-0.2,6-0.6,9.5-1.2c-0.2,0-0.4,0-0.6,0.1c1.8-0.3,3.6-0.6,5.4-1.1c2-0.6,3.8-1.4,5.4-2.2c1.4-0.7,2.8-1.6,4-2.5
			c0.9-0.7,1.7-1.4,2.6-2.2c1.1-1,2.1-2.1,2.9-3.3c0.7-1,1.3-1.9,1.9-2.8c0.5-0.7,0.9-1.4,1.3-2.2l0.1-0.2c0.8-1.4,1.7-2.8,2.4-4.4
			l0.5-1.1c0.6-1.1,1.2-2.3,1.7-3.4c0.6-1.3,1-2.5,1.4-3.6c0.8-2.7-0.4-5.8-2.6-7.1c-0.9-0.5-1.9-0.8-3-0.8c-0.1,0-0.2,0-0.4,0
			c-1.2,0.1-2.3,0.5-3.4,0.9l-0.5,0.2c-0.8,0.3-1.7,0.6-2.5,0.9l-1.4,0.5c-2.8,1-5.6,2-8.6,2.6c-0.4,0-0.9,0.1-1.3,0.1
			c-0.2,0-0.3,0-0.5,0c-0.8-0.1-1.5-0.3-2.2-0.5c-0.2-0.2-0.3-0.3-0.5-0.4c-0.1-1.3-0.1-2.7-0.1-3.9c0-0.6,0-1.2,0-1.7
			c0-1.8-0.1-3.2-0.2-4.6c-0.1-1.4-0.4-2.5-0.9-3.4s-1.1-1.8-2-2.4c-0.4-0.3-0.8-0.6-1.2-0.8c-0.4-0.2-0.9-0.3-1.3-0.5
			c-0.4-0.1-0.9-0.1-1.3-0.1c-0.5,0-1.1,0.1-1.8,0.2c-1.6,0.4-3,1.4-4.4,2.4l-0.3,0.2c-1.2,0.8-2.6,1.9-3.9,3
			c-0.7,0.6-1.4,1.2-2.1,1.8l-1.2,1c-0.7,0.6-1.5,1.3-2.2,1.9c-0.3,0.3-0.6,0.6-0.9,0.8c-0.9,0.8-1.8,1.7-2.7,2.5
			c-1.6,1.5-3.2,3-4.9,4.4c-3.2,2.6-6,4.4-8.7,5.7c-0.3,0.1-0.6,0.3-1,0.4c0.1-0.4,0.3-0.8,0.4-1.2v-0.1c1.4-3.4,2.5-6.2,3.8-8.8
			c1.6-3.4,3.2-6.9,5-10.6c1-2,1.9-3.9,2.9-5.9c0.5-1,1-2.1,1.5-3.1c0.7-1.4,1.4-2.8,2.1-4.2c0.8-1.5,1.5-3.1,2.3-4.6l0.1-0.2
			c1.6-3.3,3.3-6.7,5-10.1l0.4-0.9c1-2.1,2-4.3,2.9-6.5c0.5-1.2,0.9-2.3,1-3.4c0.2-1.1,0.1-2.2-0.3-3.4c-0.2-0.6-0.5-1.1-1.1-1.8
			c-0.4-0.4-0.8-0.7-1.3-1C1248.5,398.9,1247.6,398.8,1247,398.8"/>
		<path class="st4" d="M1386.8,335.4c-1,0-1.8,0.5-2.2,1.3c-0.3,0.7-0.6,1.3-0.9,1.9c-0.2,0.5-0.2,1.1-0.3,1.6c0,0.2,0,0.3,0,0.5
			c0,0.4-0.1,0.9-0.1,1.3c0,0.3,0,0.5-0.1,0.8v0.3l-0.3,3.6c-0.1,1.5-0.2,3-0.3,4.5c0,0.8-0.1,1.5-0.1,2.3l-0.1,0.9
			c-0.2,2.5-0.3,5.2-0.4,7.7c-0.1,3.1,0,6.5,0.2,10.3c0.3,4.2,1,8.5,1.7,12.5c0.3,1.7,0.6,3.3,0.9,5c0.5,2.4,0.9,4.9,1.4,7.4
			c0.1,0.7,0.2,1.4,0.3,2.1c0.3,1.5,0.5,3,0.7,4.5l0.3,2.4l0.5,4.3c0.2,2.4,0.5,4.9,0.7,7.3c0.3,3.3,0.6,6.5,0.9,9.8l0.3,2.8
			c0.2,2.1,0.4,4.1,0.6,6.2c0.1,0.7,0.1,1.4,0.2,2.2c0.2,1.9,0.4,3.9,0.5,5.8c-1-1.2-2.2-2.3-3.6-3.2c-1-0.7-2.1-1.2-3.2-1.5
			c-0.5-0.1-1.1-0.2-1.6-0.2c-1,0-2,0.2-2.7,0.6c-0.8,0.4-2.1,1.3-2.4,2.8c-0.2,1-0.4,2.1-0.4,3.2c-0.1,1,0.1,2.1,0.3,3.2l0.1,0.7
			c0,0.3,0.1,0.6,0.2,0.9l0.1,0.5c0.3,1.4,0.7,2.9,1.2,4.7c0.7,2.2,1.4,4.4,2.1,6.6c0.4,1.2,0.8,2.5,1.2,3.7l0.4,1.3
			c0.3,1,0.7,2,1,3.1l0.3,1c0.4,1.6,0.9,3.2,1.3,4.8l-0.3-0.2l-0.3-0.2c-3.2-2.6-6.2-5.3-9-7.8c-1.6-1.5-3.1-2.7-4.5-3.9l-1.5-1.2
			l-1.5-1.3l-0.5-0.4c-1.8-1.5-3.7-3.1-5.8-4.3c-0.7-0.4-1.5-0.7-2.6-1c-0.6-0.2-1.4-0.3-2.1-0.3c-0.2,0-0.4,0-0.5,0l-0.7,0.1
			l-0.7,0.1c-0.6,0.2-1.1,0.4-1.7,0.7c-0.9,0.4-1.9,1.5-2.4,2.3c-0.7,1.1-1,2.2-1,3.1v0.2v0.2c0,0.9,0.2,1.8,0.7,2.7
			c0.4,0.9,0.9,1.7,1.4,2.5c1.1,1.8,2.4,3.5,3.4,5c1.5,2.1,3.1,4.2,4.7,6.2c1.2,1.5,2.4,3.1,3.5,4.6l0.4,0.6
			c0.9,1.2,1.7,2.4,2.6,3.6c1.3,2,2.7,4,4,6.1c0.3,0.5,0.7,1.1,1,1.6c0.6,1,1.2,2,1.9,3c0.9,1.3,1.7,2.5,2.7,3.7
			c0.2,0.3,0.5,0.6,0.9,0.9h-0.2c-1.5,0.4-2.6,0.7-3.6,1.1c-1.2,0.4-2.4,0.9-3.6,1.4l-0.4,0.2c-2.7,1-5.5,1.8-8.2,2.6l-1.2,0.4
			c-0.8,0.2-1.6,0.5-2.3,0.7c-0.2,0.1-0.5,0.1-0.7,0.2c-0.2,0.1-0.5,0.1-0.7,0.2c-0.9,0.3-1.7,0.7-2.4,1l-0.3,0.2l-0.3,0.2
			c-0.6,0.4-1.2,0.9-1.8,1.3c-0.5,0.5-1,1-1.4,1.6s-0.9,1.5-1,2.1c-0.2,1.1-0.4,2.1-0.1,3.2c0.3,1.2,0.8,2.1,1.5,2.8
			c0.4,0.5,0.9,0.9,1.4,1.2l0.2,0.1l0.2,0.1c0.9,0.5,1.8,0.8,2.9,0.8c0.2,0,0.4,0,0.7,0c0.2,0,0.5,0,0.7,0s0.5,0,0.7,0
			c1.2,0,2.5,0.2,3.7,0.3c0.4,0,0.8,0.1,1.2,0.1c1.3,0.1,3.1,0.3,4.8,0.3h0.4c0.8,0,1.7,0,2.5,0c1,0,1.9,0,2.9,0.1
			c1.9,0.1,3.8,0.3,5.3,0.5c1.6,0.2,3.2,0.5,4.8,0.8c0.8,0.1,1.6,0.3,2.4,0.4c1.4,0.2,2.8,0.5,4.2,0.7c1.8,0.3,4.2,0.6,6.7,0.6h0.5
			c2.1,0,4.3-0.2,6.3-0.4c2.2-0.2,4.4-0.3,6.7-0.5c1.2-0.1,2.4-0.1,3.6-0.1c0.9,0,1.8,0,2.8-0.1c2.2-0.1,4.4-0.6,6.5-1l0.4-0.1
			c1.9-0.4,3.8-0.9,5.8-1.3l0.4-0.1c4.1-0.9,8.2-1.8,12.3-2.7c4.6-1,8.8-2,12.9-3.2c1-0.3,2-0.7,2.9-1.1l0.8-0.3
			c1.1-0.4,2.1-1.1,3-1.8l0.2-0.1c1.3-0.9,2.2-1.7,2.9-2.5c0.9-1,1.5-2,1.9-2.9c0.3-0.6,0.5-1.2,0.7-1.9s0.4-1.4,0.6-2.1
			c0.1-0.3,0.1-0.5,0.2-0.8c1.1-4.1,2.2-8,3.4-11.7c0.7-2,1.3-4,2-6s1.3-4,2-6c0.8-2.3,1.5-4.6,2.2-6.9c0.7-2.1,1.2-4.2,1.6-6
			c0.2-1.1,0.4-2.1,0.5-3.1l0.1-0.4c0.2-1.2,0.3-2.4-0.2-3.5c-0.3-0.7-0.7-1.1-1.2-1.5c-0.5-0.3-0.9-0.5-1.4-0.6
			c-0.3,0-0.5-0.1-0.7-0.1c-0.3,0-0.7,0-1.1,0.1c-0.8,0.2-1.6,0.8-2.4,1.4c-1.4,1.2-2.7,2.6-3.9,4l-0.7,0.8l-0.1,0.1
			c-1.3,1.5-2.7,3-3.8,4.7c-0.8,1.3-1.6,2.7-2.3,4c-0.2,0.4-0.5,0.8-0.7,1.2c-1.7,3-3.5,6.2-5.8,10.1c-1,1.7-2,3.3-3,4.9l-0.5,0.8
			c-1,1.7-2.1,3.4-3.2,5c0.1-0.9,0.2-1.8,0.3-2.7v-0.4c0.2-2,0.4-4,0.6-6c0.1-1.1,0.2-2.2,0.3-3.2c0-0.5,0.1-1,0.1-1.5
			c0-0.4,0-0.8,0-1.2c0.1-1.7,0.3-3.4,0.6-5v-0.1c0.8-5.4,1.8-10.6,2.8-15.6c0.6-3,1.2-5.9,1.9-8.8c0.4-2,0.9-4,1.4-6
			c0.2-0.7,0.3-1.4,0.4-2.1l0.1-0.6c0.1-0.3,0.1-0.6,0.2-0.8c0.1-0.6,0.3-1.2,0.3-1.8c0.1-0.8,0.1-1.5-0.1-2.5
			c-0.1-0.4-0.3-0.7-0.5-1.1c-0.2-0.4-0.5-0.7-0.8-1c-0.1-0.1-0.2-0.3-0.3-0.4c-0.4-0.5-1-0.7-1.7-0.7s-1.3,0.2-1.7,0.7l-0.3,0.3
			c-0.4,0.4-0.9,0.8-1.3,1.3c-0.7,0.8-1.1,1.7-1.5,2.6l-0.2,0.4c-0.3,0.6-0.6,1.1-0.8,1.6l-0.5,1l-1.7,3.2l-0.8,1.6
			c-2.3,4.4-4.8,9-7.9,13.1c0-0.7,0.1-1.4,0.1-2.1c0-0.5,0-1.1,0.1-1.6c0.1-1.6,0.1-3.2,0.2-4.7l0.1-1.8c0-0.8,0-1.6,0.1-2.3v-0.7
			c0-0.9,0-1.9-0.1-2.8v-0.7v-0.5c0-0.9-0.1-1.8-0.3-2.7v-0.3c-0.2-1-0.4-2.1-1.1-2.9c-0.6-0.7-1.4-1.1-2.3-1.1
			c-0.2,0-0.4,0-0.6,0.1c-0.4,0.1-1,0.2-1.4,0.7c-0.2,0.3-0.5,0.6-0.7,0.9l-0.3,0.6l-0.2,0.4c-0.5,1.1-1,2.2-1.4,3.4
			c-0.4,1.1-0.8,2.3-1.2,3.4c-0.5,1.5-1,3.1-1.5,4.6l-0.3,0.9c-0.6,1.8-1.2,3.7-1.8,5.5c-0.7,2.3-1.5,4.7-2.3,7
			c-1.5,4.6-3,9.2-4.5,13.8c-0.6,2-1.3,3.9-1.9,5.9c-0.3,0.9-0.6,1.8-0.9,2.7c-0.5,1.6-1,3.2-1.6,4.8c0-0.2-0.1-0.4-0.2-0.7
			c-0.3-1-0.4-2.1-0.6-3.2c-0.5-3-0.9-5.9-1.2-8.5c-0.6-4.4-1.2-8.8-1.7-13.1l-0.3-2.5c-0.5-4.6-1.1-9.2-1.6-13.8s-1.1-9.2-1.6-13.7
			c-0.4-3.3-0.9-6.6-1.4-9.8c-0.2-1.2-0.4-2.4-0.6-3.6c-0.5-3.1-1-6.3-1.4-9.4l-0.5-3.5c-0.2-1.4-0.4-2.8-0.6-4.2
			c-0.1-0.6-0.1-1.2-0.2-1.8l-0.3-2.4c-0.2-2-0.5-3.9-0.7-5.9c-0.3-2.6-0.6-5.2-0.9-7.8c-0.2-1.6-0.3-3.1-0.5-4.7
			c-0.3-3-0.8-6-1.2-8.9c-0.2-1.1-0.3-2.2-0.5-3.3c-0.4-3.1-1-6.3-1.6-9.4l-0.4-2.3c-0.5-2.8-1-5.4-1.6-7.9
			c-0.6-2.7-1.4-5.3-2.1-7.7c-0.4-1.3-0.8-2.6-1.4-3.8c-0.5-1.3-1.4-2.3-2.3-3.2C1388.3,335.7,1387.6,335.4,1386.8,335.4"/>
		<path class="st4" d="M674.6,311.3L674.6,311.3c-0.7,0-1.5,0.5-1.6,1.3c-0.2,1.2-0.3,2.4-0.4,3.6l-0.1,0.9l-0.2,1.8l-0.2,1.8
			l0.1-0.2c-0.3,3-0.6,6-0.9,9v0.2c-0.5,5.3-1,10.5-1.5,15.8c-0.3,2.9-0.5,5.8-0.7,8.8l-0.3,3.2c0,0.5-0.1,0.9-0.1,1.4v0.7l-0.2,4.4
			c0,0.5-0.1,1.1-0.1,1.6c-0.1,1.2-0.1,2.4-0.1,3.5l-0.1,7.7v1v0.2c0,1.1,0,2.2,0,3.3v0.3v0.3c0.1,2.5,0.2,5,0.3,7.5
			c0,1.4,0.1,2.8,0.2,4.1l0.1,1.2c0.2,3.2,0.4,6.5,0.6,9.7c0.1,1.2,0.1,2.4,0.2,3.7c0,0.3,0,0.7,0,1v0.5c0,1.2,0.1,2.5,0.1,3.7v-0.1
			c-0.4-0.8-1-1.7-1.6-2.6c-0.6-1-1.2-1.9-1.9-2.8c-0.5-0.7-0.9-1.4-1.4-2.1c-2.2-3.3-4.2-6.8-6.1-9.8l-0.2-0.3
			c-0.5-0.8-0.9-1.5-1.4-2.3l-0.3-0.6c-0.5-0.8-1-1.6-1.5-2.4c-1.1-1.8-2.3-3.7-3.5-5.4c-0.6-1-1.1-1.7-1.6-2.4
			c-0.3-0.4-0.6-0.8-1-1.2l-0.1-0.2c-0.1-0.2-0.3-0.3-0.5-0.4c-0.2-0.1-0.5-0.3-0.9-0.3c-0.7,0-1.3,0.3-1.5,0.8
			c-0.3,0.5-0.2,1.1-0.2,1.6c0,0.1,0,0.3,0,0.4c0,1,0.2,1.9,0.3,2.9v0.1l0.1,0.9c0.1,0.8,0.2,1.5,0.4,2.3l0.2,1.1
			c0.7,4.1,1.5,8.2,2.2,12.3l0.1,0.5c0.2,1.2,0.5,2.3,0.7,3.3c-0.1,0-0.2,0.1-0.3,0.1c-1.2,0.6-1.7,1.6-2.1,2.5
			c-0.5,1.2-0.3,2.8,0.7,4.7c0.4,0.9,1,1.7,1.5,2.3l0.1,0.2c0.8,1.1,1.7,2,2.7,2.8l0.2,0.2c0.2,0.2,0.4,0.3,0.5,0.4
			c0.3,0.9,0.5,1.9,0.8,2.8c0.2,0.6,0.8,1.1,1.5,1.1c0.2,0,0.3,0,0.5-0.1c0.7-0.2,1.1-0.9,1-1.7c0.3,0.1,0.7,0.3,1,0.4
			c0.5,0.2,1.1,0.3,1.7,0.3l0.4,0.1l0.7,0.1l0.7,0.1l1,0.2c0.7,0.1,1.5,0.3,2.2,0.4c0.8,0.2,1.5,0.3,2.3,0.5
			c2.3,0.4,4.2,0.6,5.9,0.8c1.5,0.1,3.2,0.1,5.3,0.1c0.6,0,1.1,0,1.7,0h0.8h0.2c1,0,1.9,0,2.9,0c3.4,0,7.1,0,11.4-0.1
			c1.3,0,2.6-0.1,3.9-0.1c0.7,0,1.3-0.1,1.9-0.1c1.2,0,2.4-0.1,3.5-0.1h0.3c0.7,0,1.3,0,2,0c0.9,0,1.8,0,2.7,0h0.9
			c2,0,3.7-0.2,5.2-0.5c1.6-0.4,3-1.3,4.1-2.2c0.7-0.5,1.4-1.1,2.2-1.7c0,0.5,0.1,1,0.2,1.4v0.4c0.3,2.3,0.7,5,1.4,7.4
			c0.3,0.9,1.2,1.6,2.2,1.6h0.1c0.6,0,1.2-0.3,1.6-0.7c0.4-0.4,0.7-1.1,0.6-1.7L728,428c-0.1-0.8-0.2-1.5-0.4-2.3l-0.3-1.1l-0.2-1.1
			c-0.2-1-0.4-2.1-0.6-3.1l-0.2-1c-0.2-0.9-0.3-1.8-0.5-2.8l0.2-0.2l0.5-0.5c1.3-1.3,1.3-3.2,0.1-4.5c-0.5-0.5-1.1-0.8-1.8-0.9
			l-0.3-2l-0.2-1.3c-0.1-0.6-0.2-1.2-0.2-1.8l-0.1-0.5c-0.1-1.1-0.3-2.1-0.4-3.2l-0.3-1.8l-0.2-1.2c-0.2-1.1-0.3-2.3-0.5-3.4
			c-0.3-2.2-0.7-4.2-1-6.1l-0.2-1c-0.2-0.9-0.3-1.8-0.5-2.7c-0.3-1.3-0.5-2.6-1.2-3.6c-0.2-0.3-0.4-0.5-0.8-0.8
			c-0.2-0.1-0.5-0.3-0.8-0.3c-0.1,0-0.3-0.1-0.5-0.1c-0.7,0-1.3,0.3-1.7,0.9c-0.7,0.9-1.2,2-1.8,3.3c-0.5,1.2-0.8,2.2-1.1,3.2
			c-0.4,1.3-0.7,2.7-1,4.1v0.2l-0.3,1.4c-0.5,2-1,4-1.5,6c-0.2,0.7-0.4,1.3-0.5,1.9l-0.1,0.4c-0.4,1.3-0.8,2.7-1.3,4.1
			c-0.2,0.5-0.4,1-0.6,1.5c-0.7-1.8-1.2-3.7-1.6-5.5c-0.3-1.4-0.6-2.8-0.9-4.1l-0.1-0.5l-0.3-1.3c-0.3-2-0.7-3.9-1-5.9l-0.1-0.4
			c-0.3-1.6-0.5-3.3-0.8-4.8s-0.6-2.8-1-3.9c-0.1-0.3-0.2-0.6-0.4-0.8c-0.1-0.2-0.3-0.5-0.5-0.7l-0.1-0.1c-0.2-0.2-0.4-0.3-0.7-0.4
			c-0.2-0.1-0.4-0.1-0.6-0.1c-0.2,0-0.4,0-0.6,0.1l-0.3,0.2c-0.1,0.1-0.3,0.2-0.4,0.3c-0.2,0.2-0.3,0.3-0.4,0.5
			c-0.3,0.5-0.5,1-0.7,1.5c-0.2,0.6-0.3,1.1-0.5,1.7c-0.2,0.9-0.4,1.8-0.5,2.6v0.2v0.2c-0.1,0.8-0.3,1.5-0.4,2.3
			c-0.2,1.1-0.4,2.2-0.6,3.3c-0.6,3.2-1.2,6.3-1.8,9.5c-0.2,1-0.4,2-0.7,3.1l-0.3,1.5c-0.1,0.5-0.2,1-0.3,1.5l-0.1,0.4
			c-0.2,0.8-0.3,1.6-0.5,2.4c-0.1-0.4-0.1-0.8-0.2-1.2l-0.1-0.3c-0.2-1.1-0.4-2.1-0.6-3.2l-0.1-0.6l-0.1-0.3l-0.2-1.4
			c-0.3-1.5-0.5-3.1-0.8-4.6c-0.2-1.5-0.5-3-0.7-4.5l-0.1-0.5l-0.2-1.3c-0.2-1.6-0.4-3.2-0.6-4.8c-0.3-2.4-0.6-4.6-0.9-6.7
			c-0.5-3.5-1.1-6.9-1.7-10.4c-0.5-2.7-1-5.5-1.4-8.2l-0.3-1.5l-0.3-2c-0.2-1.6-0.5-3.1-0.7-4.7c-0.2-1.3-0.4-2.6-0.5-4.1
			c-0.1-0.7-0.2-1.3-0.2-2c-0.2-1.8-0.4-3.6-0.7-5.4l-0.1-0.9c-0.2-1.6-0.4-3.2-0.6-4.8L680,334l-0.4-3.1c-0.1-0.5-0.1-0.9-0.2-1.3
			v-0.3l-0.1-0.9v-0.2c-0.1-0.8-0.2-1.5-0.4-2.3c-0.4-1.9-0.8-3.9-1.2-5.9c-0.1-0.6-0.3-1.2-0.4-1.7l-0.2-0.9l-0.2-0.6l-0.2-0.6
			l-0.2-0.6v-0.1c-0.1-0.4-0.2-0.8-0.3-1.2c-0.2-0.6-0.5-1.2-0.8-1.8C675.7,311.5,675,311.3,674.6,311.3"/>
		<path class="st2" d="M642.6,199.9c-0.8,0-1.6,0.1-2.4,0.3c-0.9,0.2-1.7,0.7-2.7,1.4c-0.8,0.6-1.3,1.4-1.8,2.1
			c-0.5,0.7-0.8,1.5-1.1,2.3l-0.2,0.6c-0.5,1.2-0.8,2.4-1.1,3.8c-0.3,1.5-0.3,3-0.3,4.4c0,1.2,0.1,2.4,0.2,3.5v0.3
			c0.1,1.4,0.3,2.8,0.4,4.2l0.1,1.4l0.2,2.3c0.5,5.5,1,11.2,1.4,16.2v0.1v0.2v0.2c0.2,2.5,0.4,5.4,0.8,8.2l0.1,0.4l0.1,0.4
			c-0.2-0.4-0.5-0.7-0.8-1l-0.2-0.3l-0.2-0.2c-0.9-1.2-1.8-2.5-2.4-3.9c-0.4-1.1-0.8-2.2-1.1-3.3v-0.1l-0.2-0.8
			c-0.4-1.3-0.9-2.6-1.4-3.9c-0.6-1.4-1.2-2.7-1.9-3.9c-0.8-1.4-2-2.5-3.3-3.2c-0.7-0.4-1.4-0.6-2.1-0.7c-0.5-0.1-0.9-0.1-1.3-0.1
			h-0.1c-0.5,0-1.1,0.1-1.7,0.2c-0.8,0.2-1.5,0.6-2.2,1.3c-0.3,0.3-0.6,0.8-0.9,1.3c-0.2,0.3-0.3,0.7-0.5,1.1l-0.1,0.3
			c-0.3,0.8-0.5,1.7-0.6,2.5v0.2c-0.2,1.2-0.4,2.5-0.4,3.7c-0.1,1.4-0.1,2.8-0.2,4.2v0.6c0,2.6,0.2,5.3,0.8,8.5c0.2,1,0.5,2,0.7,3
			l0.2,0.8l0.4,1.4v0.2c0.2,0.8,0.4,1.6,0.6,2.3c0.5,1.8,1,3.6,1.6,5.2l0.1,0.4l0.3,0.9l0.4,1.1c0.4,1.2,0.8,2.5,1.1,4v0.1
			c0.3,1.2,0.6,2.4,1.1,3.6c0.3,0.9,0.6,1.6,0.9,2.2c0.2,0.3,0.3,0.6,0.5,0.9c0.4,0.8,1,1.5,1.4,2c1.3,1.5,3.2,2.3,4.9,2.9
			c0.5,0.2,1,0.3,1.7,0.5l0.4,0.1c1.1,0.3,2.3,0.4,3.4,0.5l0.6,0.1c1.2,0.1,2.4,0.2,3.4,0.3h0.2h0.2v0.2v0.2c0,1.9,0,3.6,0,5.2
			c0.1,1.7,0.2,3.4,0.3,4.9c0.2,1.6,0.5,3.3,1,5.4l0.2,0.8c0.1,0.5,0.2,1,0.3,1.5v0.2c0.3,1.1,0.5,2.2,0.9,3.2l0.1,0.3
			c0.3,0.9,0.6,1.8,0.8,2.7c0.1,0.7,0.2,1.3,0.2,2v0.4c0,0.5,0,1,0.1,1.5c-0.1,0.1-0.1,0.2-0.2,0.4c-0.3,0.6-0.3,1.3-0.1,1.9
			c0.2,0.4,0.5,0.9,0.8,1.2v0.2v0.2c0.1,0.3,0.1,0.6,0.1,0.9v0.2c0.1,1.3,0.3,2.5,1.1,3.4c0.3,0.5,0.8,0.8,1.3,1
			c0.4,0.2,0.8,0.3,1.3,0.3c0.1,0,0.2,0,0.3,0c0.6-0.1,1.2-0.3,1.7-0.7c0.4,0.2,0.9,0.3,1.3,0.4l0.4,0.1c0.7,0.2,1.5,0.3,2.3,0.3
			c0.6,0,1.3-0.1,2-0.2l1-0.2c1-0.2,2-0.3,3-0.5c0.2,0,0.5-0.1,0.8-0.1s0.6-0.1,0.9-0.1c0.8-0.1,1.6-0.3,2.3-0.5h0.2
			c0.2,0,0.3,0,0.5,0c0.7,0,1.4-0.2,2-0.4c0.5-0.1,0.9-0.3,1.2-0.4l-0.3,1v0.1c-0.3,1.5-0.6,3-1,4.4c-0.3,1.2,0.2,2.6,1.3,3.2
			c0.4,0.3,0.9,0.4,1.4,0.4c0.3,0,0.5,0,0.8-0.1c0.6-0.2,1.4-0.6,1.7-1.3c0.4-0.9,0.7-1.7,1-2.5c0.1-0.5,0.2-1,0.3-1.5l0.1-0.4
			c0.1-0.7,0.2-1.5,0.4-2.2V324c0.1-0.4,0.1-0.9,0.2-1.3c0.1-0.5,0.2-1,0.3-1.6l0.1-0.3l0.1-0.2v-0.1c0.1-0.5,0.2-0.9,0.3-1.4
			c0.2-0.9,0.4-1.8,0.6-2.7l0.1-0.4l0.2-0.8c0.6-2.8,1.2-5.7,1.9-8.5l0.4-1l0.3-0.7c0.5-1,0.8-1.9,1.1-2.8c0.1-0.4,0.3-0.8,0.4-1.2
			c0.1-0.2,0.1-0.3,0.1-0.5c0.1-0.2,0.1-0.4,0.2-0.7c0.2,0,0.5,0,0.8,0c0.8,0,1.6-0.1,2.4-0.2c0.7-0.1,1.3-0.2,1.9-0.3l0.4-0.1
			c0.7-0.1,1.4-0.3,2.1-0.5c1.3-0.4,2.5-0.9,3.7-1.5l0.1-0.1c0.8-0.4,1.7-0.8,2.5-1.4c0.2-0.2,0.4-0.3,0.6-0.5l0.3-0.3
			c0.8-0.7,1.8-1.6,2.5-2.7c0.8-1.1,1.5-2.3,2.1-3.7c0.9-1.9,1.9-4.5,2.8-7.2c0.3-0.8,0.5-1.7,0.7-2.6c0.2-0.9,0.2-1.9,0.1-2.9
			c-0.1-0.8-0.3-1.6-0.7-2.2c-0.2-0.4-0.4-0.7-0.7-1c-0.5-0.5-0.9-0.8-1.5-1.1c-0.3-0.2-0.8-0.3-1.1-0.3c-0.1,0-0.3,0-0.4,0
			c-0.5,0-0.9,0.1-1.2,0.2c-0.6,0.3-1.1,0.6-1.6,0.9c-0.8,0.6-1.5,1.2-2.2,1.9c-0.3,0.3-0.6,0.5-0.9,0.8l-0.3,0.3
			c-1.1,1-2.2,2-3.3,3c-0.6,0.5-1.2,1-1.8,1.4c-0.4,0.2-0.8,0.3-1.2,0.5c-0.5,0.1-1,0.2-1.6,0.3c0.9-3.5,1.6-7,2.3-10
			c0.6-2.7,1-5.5,1.3-8.3s0.3-5.4,0.1-7.9v-0.2v-0.3v-0.5c-0.1-1-0.2-2-0.3-3v-0.1c-0.3-1.9-0.5-3.8-1-5.7c-0.2-0.8-0.5-1.6-0.7-2.2
			c-0.4-1-0.9-2.1-1.5-3.1c-0.8-1.3-2.3-2.9-4.5-3.5c-0.5-0.1-1-0.2-1.4-0.2c-1.5,0-3,0.5-4.3,1.4c-1.7,1.1-2.9,2.9-4.1,4.6
			c-0.7,1-1.4,2.1-2,3.2l-0.1,0.1c-0.5,0.8-1.3,2.1-1.9,3.4c-0.7,1.3-1.2,2.8-1.6,4c-0.6,1.7-1.1,3.5-1.6,5.1l-0.5,1.7
			c0-1.3-0.1-2.5-0.3-3.8c-0.1-1.5-0.3-3.1-0.5-4.6v-0.1c-0.1-1.1-0.3-2.1-0.4-3.2c-0.3-2.4-0.6-4.7-0.9-7.1l-0.1-0.6
			c-0.3-2.5-0.7-5.1-1.1-7.6l-0.2-1.1l-0.2-1.7c-0.1-0.7-0.2-1.5-0.3-2.2v-0.3v-0.2c-0.2-1.1-0.3-2.2-0.5-3.2
			c-0.6-2.9-1.1-5.4-2-7.9c-0.4-1.1-0.9-2.6-1.5-4c-0.5-1.2-1.1-2.4-1.8-3.7c-0.2-0.5-0.5-1-0.9-1.4c-0.6-0.9-1.4-1.9-2.1-2.8
			c-0.9-1-2.3-2.4-4.2-3C644.5,200,643.5,199.9,642.6,199.9"/>
		<path class="st2" d="M964.5,346c-0.4,0-0.9,0.2-1.1,0.5c-0.2,0.3-0.4,0.5-0.6,0.9c-0.2,0.4-0.3,0.7-0.4,1.1
			c-0.1,0.2-0.1,0.4-0.2,0.7l-0.1,0.2c-0.2,0.6-0.3,1.1-0.4,1.7l-0.1,0.4c-0.3,1.2-0.4,2.6-0.5,4.2c-0.1,2.4-0.2,4.9-0.2,7.3v2.2
			c0,1.7-0.1,3.5-0.1,5.2v0.4c0,1.7-0.1,3.5-0.3,5.3l-0.3-0.4c-1.3-1.7-2.5-3.4-3.8-5l-0.3-0.4c-0.9-1.2-1.9-2.5-2.9-3.7
			c-1.2-1.5-2.6-2.8-4.1-4.1c-2.3-2.1-4.7-4-7.2-6.1c-1-0.8-1.9-1.5-2.9-2.3l-0.7-0.5l-0.5-0.4c-0.4-0.3-0.8-0.6-1.2-0.9
			c-0.8-0.6-1.6-1.1-2.2-1.5l-0.2-0.1c-0.3-0.2-0.6-0.4-0.9-0.5c-0.6-0.3-1.2-0.4-1.8-0.4h-0.1c-0.5,0-1.3,0.3-1.7,0.7
			c-0.5,0.5-0.8,1.2-0.8,2c0,0.9,0.4,1.7,0.7,2.5l0.2,0.4c0.3,0.7,0.6,1.4,0.9,2.1l0.4,0.9c0.9,1.9,1.7,3.8,2.6,5.8
			c1.2,2.8,2.4,5.6,3.7,8.4l0.4,0.9c0,0.2,0,0.5,0.1,0.7c0.1,1.2,0.3,2.4,0.5,3.5c0.2,0.8,0.4,1.6,0.9,2.5c0.4,0.9,1,1.7,1.9,2.5
			c0.2,0.2,0.4,0.3,0.6,0.5c0.8,1.9,1.5,3.9,2.2,5.9c0.3,0.7,0.6,1.1,1.1,1.4c0.4,0.2,0.8,0.3,1.2,0.3c0.2,0,0.4,0,0.6-0.1
			c0.6-0.2,1.2-0.7,1.5-1.3c0.3-0.5,0.3-1.1,0.1-1.7l-0.3-0.7l-0.1-0.3c1.1,0.5,2.2,0.9,3.3,1.3c0.9,0.3,1.7,0.6,2.6,1
			c0.9,0.4,1.8,0.8,2.6,1.3c1.6,0.8,3.2,1.5,4.8,2.2c1.1,0.4,2.5,0.9,3.9,1.3c0.6,0.2,1.2,0.3,1.8,0.5c0.8,0.2,1.6,0.4,2.4,0.7
			c3.3,1,6,1.5,8.7,1.7c2.6,0.2,5.2,0.2,7.2,0.2h1.2h1.3c1,0,1.9,0,2.9,0c1.8,0,3.4-0.2,4.9-0.4c0.7-0.1,1.4-0.2,2.1-0.3
			c0.4-0.1,0.8-0.1,1.2-0.2c1.2-0.2,2.3-0.7,3.2-1.2c0.8-0.4,1.5-1.1,2.1-2c0.2-0.3,0.3-0.7,0.5-1.1l0.1-0.2
			c0.1-0.3,0.2-0.7,0.2-1.1c0-0.1,0-0.3,0-0.4c0.1-0.6,0.1-1.3,0.1-1.9v-0.5c0-2.1-0.1-4.3-0.2-6.4l-0.1-2.1v-1
			c-0.1-2.4-0.2-4.8-0.3-7.2s-0.3-5-0.6-7.8c-0.1-1.6-0.4-3.2-0.7-5c-0.2-1.2-1.1-3.2-2.9-3.2c-1.5,0-2.3,1.3-3.1,2.4
			c-0.4,0.6-0.7,1-1,1.5c-1.2,1.8-2.3,3.8-3.3,5.6l-0.3,0.5c-1,1.8-2.2,3.9-3.6,6c-0.5-1.4-0.7-2.8-1-4.2c-0.2-1.1-0.4-2.1-0.6-3.2
			l-0.1-0.8l-0.2-0.9c-0.3-1.5-0.5-3-0.9-4.4c-0.7-2.3-1.7-3.7-3.1-4.1c-0.2,0-0.4-0.1-0.6-0.1c-0.6,0-1.4,0.3-2,0.8
			c-0.7,0.6-1.2,1.3-1.7,2.1c-1.5,2.3-2.6,5-3.6,7.7c-0.4,1-0.7,2-1,3c-0.5,1.3-0.9,2.7-1.5,4.1c-1.4-4.2-2.4-8.5-3.3-12.8l-0.5-2.4
			c-0.3-1.4-0.7-2.8-1-4.2c-0.3-1.1-0.6-2.3-1.1-3.4c-0.1-0.3-0.3-0.5-0.5-0.8s-0.4-0.4-0.7-0.6c-0.2-0.2-0.5-0.2-0.8-0.2L964.5,346
			L964.5,346z"/>
		<path class="st2" d="M1551.1,411.7c-0.5,0-0.9,0.1-1.4,0.2c-2.1,0.8-3,2.9-3.8,4.8c-0.7,1.8-1.4,3.7-2,5.4l-0.4,1.1
			c-1.3,3.4-2.6,7-4,10.4l-0.3,0.7l-0.4,0.9l-0.1,0.3c-0.3,0.8-0.7,1.6-1.1,2.4c-0.5-1.5-0.9-3.2-1.2-4.7c-0.2-1-0.4-2.1-0.6-3.2
			l-0.3-1.8c-0.3-1.7-0.9-3.3-1.3-4.7v-0.1c-0.5-1.6-1.3-3.7-3.1-4.2c-0.3-0.1-0.6-0.1-1-0.1c-0.6,0-1.2,0.1-1.6,0.4
			c-0.3,0.2-0.7,0.5-1.1,0.9c-0.3,0.3-0.5,0.6-0.7,0.9l-0.1,0.2c-0.7,1-1.1,2.1-1.5,3.1c-0.3,0.8-0.6,1.5-0.7,2.2
			c-0.4,1.4-0.7,3-1.1,4.8c-0.5,2.5-0.8,5.1-1.1,7.6c-0.1,0.9-0.2,1.7-0.3,2.6l-0.1,0.7c-0.1,0.8-0.2,1.5-0.3,2.3
			c-0.1,0.4-0.1,0.9-0.2,1.3c-0.2,1-0.3,2.1-0.6,3.2c-0.3-0.7-0.7-1.3-1-2c-0.2-0.4-0.4-0.7-0.6-1.1l-0.5-0.9
			c-0.6-1.1-1.2-2.3-1.8-3.4c-0.8-1.5-1.7-3.1-2.8-5.1c-0.6-1.1-1.4-2.5-2.3-3.8c-0.5-0.8-1.1-1.5-1.8-2.3c-0.8-0.9-1.8-1.6-3-2.1
			c-0.5-0.2-0.8-0.3-1.2-0.3c-0.2,0-0.4,0-0.6,0.1c-0.6,0.2-1.1,0.6-1.4,1l-0.1,0.2c-0.2,0.5-0.5,0.9-0.5,1.4s0.1,0.9,0.1,1.4v0.2
			c0.1,0.7,0.2,1.3,0.4,2c0.1,0.7,0.3,1.4,0.5,2.1c0.1,0.4,0.2,0.7,0.3,1.1c0.4,1.9,0.9,3.7,1.4,5.6l0.4,1.4v0.2v0.1
			c-0.7,1.2-1.4,2.4-1.6,3.7v0.2c-0.1,0.8-0.3,1.6-0.3,2.4c-0.1,1.3,0.1,2.6,0.2,3.7v0.1v0.4v-0.1c0.1,0.8,0.2,1.3,0.3,1.9
			c0.3,1.3,0.8,2.5,1.3,3.6c0.6,1.3,1.8,2.2,2.9,3l0.1,0.1c0.2,0.2,0.5,0.3,0.7,0.4c0.2,1.5,0.3,3.1,0.5,4.7
			c0.1,0.6,0.2,1.2,0.7,1.7c0.4,0.4,1.1,0.7,1.7,0.7c0.7,0,1.4-0.3,1.8-0.9c0.4-0.5,0.6-1,0.6-1.5c-0.1-0.7-0.1-1.4-0.2-2.1
			l-0.1-1.1c0.5,0.1,1.1,0.1,1.6,0.2c1.1,0.1,2.2,0.1,3.1,0.2c0.3,0,0.6,0,0.9,0c3.4,0,6.9-0.3,10.3-0.7h0.4
			c3.3-0.3,7.7-0.7,12.3-0.9c2-0.1,4.1-0.1,6.3-0.4c1.9-0.2,3.9-0.6,5.8-1.1l0.8-0.2c1.8-0.4,3.6-1,5.3-1.5l0.3-0.1
			c0.9-0.3,1.8-0.6,2.9-1.1c0.8-0.3,1.4-0.7,2-1c1.1-0.7,2.1-1.5,2.9-2.6c2-2.5,2.1-5.9,2.1-8.9v-1.8c0-1.5,0-2.9,0-4.4
			c0-4,0-8.1,0.1-12.6c0-0.6,0-1.2,0-1.8v-0.9c0-1-0.1-2.1-0.3-3.3c-0.3-1.8-0.8-3-1.5-3.8s-1.5-1.2-2.6-1.2c-1.3,0-2.3,0.9-2.9,1.7
			c-0.8,1.1-1.4,2.3-2,3.5l-0.2,0.5c-0.9,1.9-1.8,3.9-2.6,5.7c-0.6,1.2-1.1,2.5-1.7,3.7l-0.3,0.6c-0.5,1.2-1.1,2.3-1.6,3.5
			c0-1.6-0.1-3.2-0.1-4.8c0-0.8,0-1.6,0-2.4c-0.1-2.2-0.1-4.5-0.2-6.7c0-0.7-0.1-1.3-0.1-2l-0.1-0.7v-0.3c-0.1-1.8-0.3-3.6-0.7-5.3
			c-0.3-1.2-0.8-2.1-1.4-2.7C1552.8,412,1552,411.7,1551.1,411.7 M1512.8,444.6c-0.5-0.6-1.2-1-2-1.2c-0.1,0-0.2-0.1-0.4-0.1
			l-0.4-1.7l-0.3-1.3c-0.2-0.7-0.4-1.3-0.5-2l-0.2-0.7c0.6,1.1,1.2,2.1,1.8,3.2c0.3,0.5,0.5,1,0.8,1.4
			C1512,443,1512.4,443.8,1512.8,444.6"/>
		<path class="st2" d="M20.2,433.9c-0.3-0.9-1-1.6-1.9-1.9c-0.5-0.2-0.9-0.3-1.3-0.3c-0.5,0-1,0.1-1.5,0.2c-1.4,0.4-2.7,1.2-3.9,2.2
			c-1.7-0.3-3.6,0.3-4.8,1.7c-4.1,5-8.1,10.1-12.1,15.1v16c0.8-1.1,1.6-2.1,2.4-3.2c1.1-1.5,2.2-3,3.3-4.5c0.2-0.2,0.3-0.4,0.5-0.6
			c2-2.6,4.1-5.2,6.1-7.8c1.1-1.3,2.2-2.6,3.3-3.9c2.2-2.5,4.4-5.1,6.8-7.5c0.5-0.5,1.1-1,1.7-1.4C20.3,437.2,20.8,435.4,20.2,433.9
			z"/>
		<path class="st2" d="M133.2,335.9c-0.4,0-0.8,0.1-1.2,0.2c-0.8,0.3-1.4,0.9-1.8,1.3c-1.3,1.3-2,2.9-2.7,4.4
			c-0.7,1.6-1.4,3.4-2.2,5.7c-0.8,2.4-1.5,4.7-2.1,6.9c-0.7,2.3-1.3,4.8-1.9,7.1l-0.3,1c-0.5-1.9-1.1-3.8-1.7-5.7
			c-0.6-1.8-1.2-3.6-2-5.7l-1-2.6l-0.4-1c-0.5-1.2-1-2.4-1.5-3.5c-0.3-0.5-0.6-1-1-1.7c-0.3-0.3-0.6-0.7-0.9-1
			c-0.3-0.2-0.6-0.4-0.9-0.5c-0.4-0.2-1-0.3-1.5-0.3c-0.1,0-0.3,0-0.4,0c-0.6,0.1-1.2,0.3-1.8,0.9c-1,0.9-1.5,2.1-1.8,3.6
			c-0.2,1-0.3,2.1-0.3,3.1c0,0.3,0,0.6,0,0.9c-0.1,2.2-0.1,4.5,0,6.7c0.1,2.3,0.2,4.6,0.4,6.9l0.1,1.6c0.1,1.4,0.3,2.9,0.3,4.4
			c0,0.2,0,0.3,0,0.5c-0.2-0.3-0.4-0.6-0.7-0.9l-0.2-0.3c-1-1.3-2-2.6-3-3.9c-1.9-2.5-4.1-5.3-6.3-7.9c-1.2-1.3-2.4-2.5-3.5-3.5
			l-0.6-0.6c-1.1-1-2.1-2-3.3-3c-1.1-0.9-2.4-2-3.8-3.1c-0.6-0.5-1.3-1-2-1.4c-0.2-0.2-0.5-0.3-0.7-0.4l-0.3-0.2
			c-0.1-0.1-0.3-0.2-0.4-0.2c-0.5-0.3-1-0.7-1.7-0.7h-0.2c-1.1,0-1.9,0.4-2.5,1.1c-0.8,1-0.8,2.5-0.1,3.6c0.3,0.5,0.7,0.8,1.2,1.1
			l0.3,0.3c0.3,0.3,0.5,0.7,0.8,1.1c1.1,2.1,2.1,4.3,3.1,6.4l0.6,1.3c1.1,2.5,2.2,5,3.4,7.5c0.6,1.4,1.2,2.8,1.8,4.2v0.2
			c0.3,1.4,0.7,2.8,1.3,4.1c0.7,1.6,1.4,2.9,2.1,4c0.2,0.2,0.3,0.5,0.5,0.7c1,2.4,2.1,4.8,3.1,7.2c0.5,1.2,1.7,2,2.9,2
			c0.4,0,0.8-0.1,1.2-0.2c1.1-0.5,1.9-1.6,2-2.8c0.3,0.1,0.6,0.3,0.9,0.4c2.4,0.9,4.8,1.5,6.9,1.7c2.6,0.2,5.2,0.3,7.6,0.3
			c0.7,0,1.5,0,2.2,0c1.8,0,3.2,0,4.6-0.1c2.5-0.2,4.6-0.4,6.6-0.7c0.7-0.1,1.5-0.2,2.2-0.4c1.3-0.2,2.6-0.4,3.9-0.6l1.7-0.2
			c1.6-0.2,3.1-0.4,4.7-0.7c2.2-0.4,4-0.8,5.5-1.5c1.5-0.6,3.5-1.6,4.9-3.1c1.3-1.4,2.1-3.3,2.3-5.7c0.1-1.1,0.1-2.3,0.1-3.4v-0.9
			c0-1.9-0.1-3.8-0.2-5.7v-0.3c0-0.9-0.1-1.7-0.1-2.6c-0.1-1.3-0.1-2.5-0.2-3.8l-0.1-1.3c-0.1-1.8-0.2-3.6-0.4-5.4
			c-0.1-1.2-0.3-2.4-0.5-3.6c-0.1-0.9-0.3-1.8-0.6-3c-0.3-1.3-0.7-2.8-1.6-4c-0.6-0.9-1.7-2-3.3-2.3c-0.1,0-0.3,0-0.4,0
			c-1.2,0-2.5,0.7-3.4,1.8c-1,1.3-1.7,2.7-2.2,4c-1.1,2.9-2.1,5.8-2.9,8.3c-0.2-1.6-0.4-3.1-0.6-4.7l-0.1-0.9
			c-0.4-2.9-0.8-5.8-2.3-8.3c-0.7-1.1-1.5-1.8-2.6-2.2C134.1,336,133.6,335.9,133.2,335.9 M91.2,359.7c-0.3-0.7-0.7-1.4-1-2.1
			c0.5,0.5,0.9,0.9,1.4,1.4l0.3,0.3l0.2,0.2l0.1,0.1C91.8,359.6,91.5,359.7,91.2,359.7 M102.8,373c-0.5-0.3-0.9-0.6-1.4-0.9
			c-0.2-0.3-0.4-0.6-0.7-0.9c-0.3-0.6-0.6-1.3-0.9-1.9c0.7,0.9,1.4,1.8,2.1,2.8L102.8,373z"/>
		<path class="st2" d="M86.9,356.8c-0.6,0.5-1,1.1-1.1,1.9c-0.1,0.7,0.1,1.6,0.5,2.1c2.7,3,5.4,6,8.1,8.9c2.7,3,5.4,6.1,8.7,8.5
			c0.9,0.6,2.1,0.7,3,0c1-0.8,1.4-2.4,0.5-3.4c-2.5-2.9-5.1-5.7-7.6-8.5c-2.7-3-5.4-6-8.1-9c-0.5-0.6-1.1-1-1.9-1.1
			c-0.1,0-0.3,0-0.4,0C88,356.2,87.4,356.4,86.9,356.8"/>
		<path class="st3" d="M861.6,396.3c-0.1,0-0.2,0-0.3,0c-0.6,0.1-1.2,0.2-1.6,0.6c-0.8,0.8-1.4,1.6-1.9,2.5
			c-0.2,0.4-0.4,0.8-0.6,1.2L857,401c-0.3,0.5-0.6,1.1-0.9,1.7c-0.6,1.2-1.3,2.4-1.9,3.5c-0.2,0.3-0.4,0.5-0.6,0.8
			c-0.3-0.8-0.6-1.7-0.9-2.5l-0.1-0.3c-0.5-1.4-0.9-2.5-1.3-3.6c-0.1-0.4-0.3-0.8-0.5-1.2c-0.2-0.3-0.3-0.6-0.5-0.8
			c-0.5-0.6-0.8-0.9-1.4-1.1c-0.3-0.1-0.6-0.2-0.9-0.2c-1.4,0-2.4,1-2.9,1.6s-0.8,1.4-1.1,2.1l-0.2,0.4c-0.2,0.6-0.4,1.1-0.6,1.7
			l-0.1,0.2c-0.8,2.6-1.6,5.3-2.2,8c-0.3,1.2-0.5,2.5-0.7,3.7c-0.2,1.3-0.5,2.7-0.8,4c-0.3-0.5-0.6-1.1-0.9-1.6l-0.3-0.5v0.1
			c-1.7-3.2-3.4-6.2-5.5-9c-2.4-3.3-5.5-6.2-9.1-8.7c-0.6-0.4-1.5-1.1-2.4-1.2c-0.2,0-0.5,0-0.7,0c-0.4,0-0.7,0.1-1,0.2
			c-0.6,0.2-0.9,0.6-1.3,1c-0.9,1.1-0.7,2.8-0.5,3.8s0.6,1.9,0.9,2.7c0.6,1.6,1.3,3.2,1.9,4.9c1.7,4.2,3.5,8.5,5.3,12.7
			c0.1,0.3,0.3,0.5,0.4,0.7c-0.2,0.2-0.4,0.4-0.6,0.6l-0.3,0.6l-0.3,0.6c-0.4,0.8-0.5,1.7-0.4,2.6c0.1,0.2,0.1,0.4,0.2,0.6
			c0.1,0.5,0.2,0.9,0.4,1.4c0.2,0.6,0.4,0.9,0.9,1.7s1,1.4,1.8,2.3c1.1,1.1,2.6,1.8,4,2.5c0.5,0.3,1.1,0.5,1.6,0.7
			c0.4,0.1,0.7,0.3,1,0.4c0.4,0.2,0.8,0.4,1.2,0.5c0.5,0.2,1,0.5,1.6,0.7c2.2,0.8,4.5,1.4,6.5,1.9c2.2,0.5,4,0.9,5.6,1.2
			c1.9,0.3,3.8,0.6,5.7,0.9c2.1,0.3,4.3,0.7,6.4,1.1c2.8,0.5,5.7,1.2,8.5,1.9c1.1,0.3,2.2,0.5,3.3,0.8c1,0.2,2,0.5,3,0.7h0.2
			l0.5,0.2c1.6,0.5,3.2,1,4.9,1.3c1.7,0.4,3.5,0.6,5.7,0.7c1,0.1,2,0.1,3,0.1c1.1,0,2.1-0.1,3-0.2c1.1-0.2,2.2-0.4,3.1-0.7
			c1-0.3,1.9-0.9,2.6-1.8c0.6-0.9,0.9-1.9,1.1-3.1c0.3-1.5,0.3-3,0.4-4.4V439c0-1.8,0.1-3.6,0.3-5.5c0.3-3.7,0.6-7.7,0.7-11.8v-0.2
			c0-1.6,0.1-3.2-0.1-4.8c-0.4-2.3-0.7-4.7-1.8-6.8c-0.8-1.6-2.2-2.7-3.8-3c-0.4-0.1-0.9-0.1-1.3-0.1c-1.2,0-2.5,0.3-3.6,0.9
			c-0.8,0.4-1.5,1.1-2.2,1.7l-0.4,0.3c-0.5,0.5-1,0.9-1.5,1.2c-0.4-1-0.8-2.1-1.1-3.1c-0.2-0.7-0.5-1.5-0.7-2.3
			c-0.4-1-0.9-2-1.5-2.9c-0.3-0.4-0.7-0.9-1.1-1.2c-0.4-0.4-0.8-0.7-1.2-0.9h-0.1c-0.4-0.1-0.8-0.3-1.3-0.3c-0.1,0-0.2,0-0.2,0
			c-0.5,0.1-1,0.2-1.6,0.3c-0.9,0.3-1.8,0.9-2.5,1.5c-2.6,2.2-4,5.3-5.3,8.1c-0.5,1.1-1,2.1-1.5,3.2c-0.4-1.6-0.7-3.2-1-4.7
			l-0.3-1.5c-0.2-0.8-0.4-1.5-0.6-2.3l-0.2-0.9c-0.4-1.6-0.8-3.3-1.5-4.8c-0.6-1.2-1.4-2-2.4-2.5C862.5,396.4,862,396.3,861.6,396.3
			"/>
		<path class="st3" d="M1245.1,450.9c-0.1,0-0.2,0-0.4,0c-1.1,0.1-2.4,1.1-2.4,2.4c0,0.4,0,0.8,0,1.2c0.1,0.5,0.2,1,0.3,1.5
			c0.2,0.7,0.4,1.3,0.6,1.9c0.3,0.8,0.6,1.5,0.9,2.3c0.9,4.1,1.7,8,2.3,11.4l0.1,0.6c-0.4,0.6-0.8,1.3-1.2,2.1
			c-0.4,0.7-0.6,1.6-0.8,2.3c-0.1,0.5-0.2,0.9-0.3,1.4c-0.1,0.5-0.1,1.1,0,1.7v0.5c0,0.6,0,1.1,0,1.6c0,1.5,0.1,2.9,0.1,4.4v1.2
			c0,1.8,0.1,3.7,0.3,5.8l0.1,0.9c0.1,1.8,0.3,3.6,1,5.2c1,2.3,3.1,4,5.5,4.8c2.1,0.7,4.4,0.9,6.6,1.1h0.5c1.9,0.2,3.8,0.3,5.7,0.3
			c0.7,0,1.3,0,2,0c2.6,0,5.3-0.1,7.9-0.2l2.4-0.1c1.5-0.1,2.9-0.2,4.4-0.3l0.9-0.1c1.1-0.1,2-0.2,2.9-0.4s1.9-0.5,3-0.9
			c1-0.4,1.8-1.1,2.5-1.8c0.2-0.2,0.3-0.4,0.4-0.6c0.3-0.5,0.5-0.9,0.7-1.3c0.3-0.8,0.4-1.6,0.5-2.6c0.1-0.9,0.1-1.9,0.1-2.8
			c0.1-1.9,0.2-3.8,0.3-5.7c0.1-1.7,0.2-3.3,0.2-4.8v-0.5c0-0.9,0-1.9,0.1-2.8c0-1.1,0-2.4-0.1-3.7c-0.1-1.1-0.3-2.2-0.6-3.6
			c-0.3-1-1.2-1.8-1.7-2.2c-0.4-0.3-1.2-0.7-1.7-0.7c-0.1,0-0.3,0-0.4,0s-0.3,0-0.4,0c-0.3,0-0.7,0.1-1,0.2c-1,0.3-1.8,0.9-2.4,1.5
			c-0.8,0.7-1.5,1.5-2.2,2.6c-0.8,1.2-1.5,2.4-2.2,3.7l-0.7,1.1l-0.3,0.5c-0.7,1.2-1.5,2.5-2.4,3.7c0-0.7,0-1.5,0-2.2
			c0.1-3,0.2-5.4,0.3-7.7l0.3-4.9c0.1-1.5,0.2-3.2,0-4.8c-0.1-1.1-0.4-2.1-0.7-3.1c-0.3-0.9-1-2-1.9-2.3c-0.4-0.1-0.7-0.2-1.1-0.3
			c-0.1,0-0.3,0-0.4,0c-0.3,0-0.5,0-0.8,0.1c-1,0.2-1.7,0.8-2.5,1.6c-0.4,0.4-0.7,0.9-1,1.4l-0.1,0.1c-0.3,0.5-0.6,1.1-1,1.7
			c-0.6,1.2-1,2.4-1.4,3.7c-0.6,1.9-1.1,3.8-1.5,5.7c-0.2,0.8-0.4,1.6-0.6,2.4c-0.4,1.1-0.7,2.3-1.2,3.4c-0.5-0.7-0.9-1.3-1.4-2
			l-0.6-0.9l-1.1-1.6c-0.5-0.8-1.1-1.5-1.6-2.3l-1.2-1.7c-1.8-2.6-3.7-5.4-5.4-8.2c-0.7-1.2-1.3-2.5-1.8-3.6c0-0.2-0.1-0.4-0.1-0.6
			c-0.1-0.6-0.3-1.2-0.4-1.8l-0.1-0.5c-0.3-1.2-0.5-2.4-1.3-3.3C1246.7,451.3,1245.9,450.9,1245.1,450.9"/>
		<path class="st3" d="M1239.9,455.7c-0.6,6-1.1,11.9-1.5,17.9c-0.4,5.7-1,11.3-0.8,17c0,1.3,1.3,2.4,2.5,2.6
			c0.8,0.1,1.6-0.1,2.2-0.6c0.7-0.5,1-1.2,1.2-2c1.2-5.3,1.5-10.7,1.9-16c0.5-6,1-11.9,1.5-17.9c0.1-1-0.1-1.9-0.7-2.7
			s-1.4-1.3-2.4-1.4c-0.2,0-0.3,0-0.5,0C1241.8,452.7,1240.1,454,1239.9,455.7"/>
		<path class="st3" d="M1241.5,461.9c-0.5,0.2-0.9,0.6-1.1,1.1s-0.2,1.1,0,1.6c1.2,3.6,2.4,7.3,3.7,10.9c1.2,3.4,2.3,6.8,3.7,10.1
			c0.4,1,1.5,1.4,2.5,1s1.4-1.5,1-2.5c-1.1-3.4-2.2-6.8-3.3-10.1c-1.2-3.7-2.4-7.4-3.7-11.1c-0.3-0.8-1.1-1.3-2-1.3
			C1242,461.8,1241.7,461.8,1241.5,461.9"/>
		<path class="st3" d="M141.3,425.4c-0.3,0-0.7,0-1,0.1c-2.4,0.4-4.2,2.7-5.4,4.4c-0.7,1-1.2,2-1.8,3.1l-0.4,0.7
			c-0.8,1.4-1.5,3-2.1,4.5c-0.2,0.5-0.4,1-0.7,1.5c-0.6,1.3-1.1,2.6-1.7,3.9c-0.2,0.6-0.5,1.1-0.7,1.7c-0.3,0.6-0.5,1.2-0.7,1.8
			c-0.1,0.3-0.2,0.6-0.3,0.9l-0.3,0.8c-0.2,0.6-0.4,1.1-0.6,1.7c-0.6,1.7-1.4,3.9-2.1,6.2c-0.1,0.3-0.2,0.7-0.3,1
			c-0.2-1.9-0.3-3.7-0.5-5.3c-0.2-2.3-0.4-4.7-0.6-7l-0.1-0.6c-0.1-1.1-0.2-2.3-0.3-3.4l-0.1-0.8c-0.1-1.1-0.3-2.2-0.6-3.2
			c-0.2-0.6-0.4-1-0.6-1.6c-0.3-0.6-0.6-0.9-1.1-1.3c-0.4-0.4-0.9-0.6-1.5-0.6c-0.7,0-1.4,0.2-2,0.6c-1.9,1.1-2.9,3.2-3.7,5.2
			c-0.4,1-0.8,2-1.1,3c-0.7,2-1.3,4.1-1.9,5.8c-0.3,1-0.6,2.1-0.9,3.1c-0.9,2.9-1.8,6-2.8,8.9v0.1c-0.4,1.2-0.8,2.4-1.4,3.5
			c-0.1-0.2-0.3-0.5-0.4-0.7c-0.1-0.1-0.1-0.2-0.2-0.3l-0.1-0.1l-0.1-0.1c0-0.1-0.1-0.2-0.2-0.3c-1.6-3-3-6.3-4.2-9.7
			c-0.7-2.2-1.5-4.3-2.2-6.1c-0.2-0.4-0.3-0.9-0.5-1.3l-0.1-0.4c-0.3-1-0.7-2.1-1.5-2.7c-0.8-0.6-1.7-1-2.7-1.2c-0.1,0-0.2,0-0.3,0
			c-1,0-2.2,0.8-2.7,1.7c-0.5,1-0.7,2.2-0.9,3.2c-0.1,0.6-0.2,1.2-0.2,1.8v0.2c-0.1,1-0.2,1.9-0.2,2.9v0.5c-0.1,1.9-0.2,3.8-0.3,5.7
			v0.7c0,0.8,0,1.6,0,2.3v0.5v0.8c0,0.7,0,1.5,0,2.3s0.1,1.6,0.1,2.3c0.1,1.3,0.2,2.6,0.2,4c-0.1,2.1-0.2,4.6-0.7,7
			c-0.5-0.4-0.9-0.8-1.4-1.2c-0.2-0.2-0.4-0.4-0.6-0.5l-0.5-0.5c-0.6-0.5-1.2-1.1-1.8-1.6c-2-1.6-3.7-3.1-5.3-4.3
			c-0.6-0.5-1.1-0.9-1.7-1.4c-1.3-1-2.6-2-3.9-3c-0.9-0.7-1.8-1.4-2.8-2c-0.2-0.2-0.5-0.3-0.7-0.5c-0.7-0.5-1.4-1-2.2-1.4
			c-0.3-0.1-0.6-0.2-0.9-0.2c-0.7,0-1.4,0.3-2,0.9c-0.7,0.7-0.7,1.8-0.4,2.5s0.7,1.4,1.2,2c0.2,0.2,0.3,0.5,0.5,0.7
			c0.4,0.6,0.8,1.2,1.2,1.8c0.6,1,1.2,2,1.8,3l0.2,0.4c1.5,2.6,2.9,5.3,4.3,7.9c1.3,2.4,2.4,4.5,3.3,6.6c1.4,3,2.6,6.1,3.6,9v0.1
			v0.1c0.1,1.8,0.7,3.5,1.6,4.9c0.8,1.2,1.9,2.2,3.4,2.9c0.5,0.3,1.5,0.5,2.2,0.6c0.3,0,0.6,0.1,0.9,0.1c0.5,0,1,0,1.5-0.1
			c0.7-0.1,1.4-0.3,2.1-0.5l0.5-0.1c1.4-0.4,2.8-0.9,4.1-1.3l0.9-0.3c3.3-1.1,6.7-2.3,10-3.4c1.7-0.6,3.4-1.2,5.1-1.7l1.4-0.5
			c1.2-0.4,2.5-0.8,3.7-1.3c3.8-1.4,7.3-3.4,10.6-5.3c4.3-2.4,9-4.4,13.4-6.3c0.9-0.4,1.9-0.8,2.8-1.2l0.7-0.3
			c2.8-1.2,5.6-2.4,8-4.5c0.8-0.7,1.4-1.5,1.8-2.5c0.5-1.2,0.3-2.6,0.1-3.5s-0.5-1.7-0.8-2.5c-0.5-1.3-1-2.9-1.5-4.5V464v-0.2
			c-0.4-1.8-0.7-3.6-1-5.3c-0.3-2.2-0.6-4-0.8-5.8c-0.3-2.8-0.6-5.6-0.9-8.4c-0.1-1.5-0.3-2.9-0.5-4.4c-0.2-1.8-0.4-3.8-0.8-5.8
			c-0.3-1.3-0.6-2.8-1-4.1c-0.3-1.1-0.7-2.1-1.5-3c-0.4-0.5-1-1-1.5-1.2s-0.9-0.3-1.4-0.4C141.6,425.4,141.4,425.4,141.3,425.4"/>
		<path class="st3" d="M65.5,505.4c-0.2,0.3-0.4,0.7-0.3,1.1c0,0.4,0.2,0.7,0.5,1s0.7,0.3,1.1,0.3s0.8-0.3,1-0.5
			c0.2-0.3,0.4-0.7,0.3-1.1c0-0.4-0.2-0.7-0.5-1s-0.7-0.3-1.1-0.3C66.1,504.8,65.7,505.1,65.5,505.4"/>
		<path class="st3" d="M845.7,168c-0.3,0-0.6,0-0.9,0c-1,0.1-1.8,0.5-2.7,1l-0.3,0.3c-0.2,0.2-0.5,0.4-0.7,0.7
			c-0.3,0.3-0.5,0.8-0.7,1.2c-0.3,0.5-0.6,1.1-0.9,1.8c-0.5,1.1-0.9,2.3-1.3,3.3l-0.3,0.8l-0.1,0.3c-0.3,0.9-0.7,1.8-1,2.7
			c-0.9,2.4-1.6,5.1-2.2,8.1c-1.1,5-1.8,10.2-2.5,15.3v0.1v0.1v0.3c-0.5,3.5-0.8,7.2-1,10.5v0.2c-0.1,1.6-0.2,3.1-0.4,4.7l-0.1,0.9
			v0.2c-0.2,2.7-0.5,5.8-0.7,8.8c-0.1,1.7,0,3.4,0,4.9c0.1,1.6,0.1,3,0.1,4.3l-0.1,1.6l-0.1,1.6v0.7c0,1.1-0.1,2.1,0,3.2
			c0,0.5,0.1,1,0.1,1.5v0.2v0.2c0,0.5,0.1,0.9,0.1,1.4c0.1,1.2,0.1,2.1,0.1,2.9c0,0.8-0.1,1.6-0.3,2.5c-0.1,0.3-0.2,0.6-0.4,0.9
			c-0.2,0.3-0.5,0.6-0.7,0.8c-0.3,0.3-0.7,0.6-1.1,0.8c-0.2,0.1-0.4,0.2-0.6,0.2c-0.5,0.1-1.1,0.1-1.6,0.2c-0.6,0-1-0.1-1.4-0.2
			c-0.3-0.1-0.5-0.2-0.8-0.3c-0.5-0.4-0.9-0.8-1.3-1.1c-0.3-0.3-0.6-0.7-0.9-1c-0.5-1.1-0.8-2.1-1.2-3.5c-0.7-2.9-1.1-5.2-1.4-7.3
			c-0.3-2.3-0.6-4.7-0.9-7.5c-0.1-1.3-0.2-2.5-0.5-3.6c-0.3-1.3-0.7-2.7-1.2-4.3v-0.1c-0.3-1-0.7-2.2-1-3.4l-0.1-0.5
			c-0.4-1.6-0.8-3.2-2.1-4.4c-1-0.9-2.2-1.4-3.5-1.4c-0.5,0-1.1,0.1-1.6,0.3s-0.9,0.6-1.3,1c-0.3,0.3-0.5,0.6-0.8,0.9
			c-0.2,0.3-0.4,0.6-0.6,1l-0.1,0.1l-0.1,0.2c-0.3,0.4-0.5,0.8-0.7,1.2c-0.6,1.2-1.1,2.3-1.6,3.5c-0.2,0.6-0.4,1.2-0.6,1.8
			c-0.3,0.8-0.5,1.7-0.6,2.7c-0.1,0.4-0.1,0.8-0.2,1.3c-0.2,1.3-0.3,2.6-0.5,3.8c-0.1,1-0.3,2-0.4,2.9l-0.1,1
			c-0.4-0.1-0.9-0.3-1.3-0.5c-0.1-0.1-0.3-0.2-0.4-0.3c-0.2-0.2-0.4-0.5-0.6-0.8c-0.3-0.5-0.6-1.1-0.8-1.8c-0.1-0.4-0.2-0.8-0.3-1.1
			c-0.1-0.4-0.2-0.8-0.3-1.2c-0.2-0.5-0.4-1-0.6-1.5c-0.1-0.2-0.2-0.5-0.3-0.7l-0.2-0.4c-0.3-0.7-0.5-1.3-0.9-2
			c-0.3-0.5-0.6-0.9-1.1-1.3c-0.4-0.3-0.8-0.6-1.3-0.6c-0.1,0-0.1,0-0.2,0c-0.5,0-1,0.2-1.5,0.7c-0.9,0.9-1.4,2.2-1.6,3.3
			c-0.4,1.6-0.6,3.2-0.7,5v0.5c-0.1,1.6-0.1,3.3,0,4.9c0.1,0.6,0.2,1.1,0.3,1.6v0.1c0.1,0.5,0.3,1,0.4,1.4c0.1,0.4,0.3,0.7,0.4,1.1
			c0.2,0.4,0.4,0.8,0.6,1.1l0.1,0.2c0.3,0.5,0.7,0.8,1.1,1.2c0.3,0.3,0.7,0.5,1.1,0.7c0.3,0.1,0.5,0.2,0.7,0.3
			c0.4,0.2,0.8,0.3,1.1,0.4c0.9,0.3,1.8,0.5,2.6,0.7c1.1,0.2,2.3,0.4,3.4,0.5c0,0.5,0.1,1,0.1,1.6c0.1,0.7,0.1,1.4,0.1,2.1
			c0.1,1.9,0.2,3.8,0.5,5.7c0.4,2.9,0.8,5.3,1.1,7.4c0.3,1.6,0.8,3.2,1.3,4.5c0.2,0.7,0.6,1.3,1,1.9l0.3,0.5
			c0.1,0.2,0.2,0.3,0.3,0.5l0.1,0.2l0.3,0.5c0.3,0.4,0.5,0.8,0.8,1.2l0.2,0.3c0.4,0.6,0.9,1.2,1.6,1.9c0.6,0.6,1.3,1.1,1.9,1.5
			l0.3,0.2c1.1,0.8,2.3,1.5,3.6,2.1c1.1,0.5,2.2,0.9,3.3,1.1c1.2,0.3,2.4,0.3,3.5,0.3h0.6c0.8,0,1.4,0,2.1-0.1
			c0.6-0.1,1.3-0.2,1.9-0.4h0.2l0.7-0.1c0.4-0.1,0.8-0.2,1.1-0.3c0,0.5,0,1,0,1.5v1.1c-0.1,2.1-0.1,4.5-0.1,6.8c0,2.4,0,4.7,0,7.1
			c0,1.7-0.1,3.4-0.2,5.4l-0.1,1.6c-0.1,1.7-0.2,3.5-0.4,5.1v0.6c-0.1,0.8-0.1,1.5-0.2,2.2c-0.1,1.4-0.3,2.7-0.4,4v0.2
			c-0.1,1.1-0.3,2.3-0.4,3.4c-0.1,1.3-0.2,2.7-0.3,4v0.5c-0.1,1.1-0.1,2.1-0.2,3.2c-0.2,2.8-0.4,5.7-0.4,8.9v0.2c0,0.4,0,0.8,0,1.2
			c0,1.6-0.1,3.3-0.3,5.2c-0.2,2.3-0.3,4.3-0.3,6.3c0,1.9-0.1,3.9-0.1,5.9c0,2.8,0,5.4,0.1,8v0.3c0,1.1,0.1,2.3,0.3,3.4
			c0.2,0.8,0.4,1.5,0.6,2.1c0.2,0.5,0.4,1,0.7,1.4l0.1,0.1l0.3,0.3c0.3,0.3,0.6,0.6,0.9,0.8c0.4,0.3,0.8,0.5,1.4,0.8
			c0.3,0.1,0.5,0.2,0.8,0.3l0,0c-0.1,0-0.2,0-0.3,0.1l-0.3,0.1c-0.3,0-0.5,0.1-0.8,0.1c-1.1-0.1-2.2-0.2-3.4-0.5
			c-0.4-0.1-0.8-0.3-1.1-0.4c-0.5-0.2-0.9-0.5-1.3-0.7c-1.1-0.7-2.1-1.5-3.1-2.5c-0.8-0.8-1.4-1.6-1.9-2.3c-1.1-1.5-2.1-2.9-2.9-4.3
			c-0.6-1.1-1-2.2-1.4-3.4c-0.4-1.6-0.5-3.2-0.6-4.8c-0.1-1.5-0.3-3.5-0.3-5.6c0-1.9,0.2-3.8,0.4-5.9c0-0.5,0-0.9-0.2-1.3
			c0.3-1.7,0.5-3.3,0.8-5c0.4-2.1,0.8-4.3,1.4-6.7c0.1-0.5,0.2-0.9,0.3-1.4v-0.1l0.2-0.7l0.1-0.6c0.1-0.5,0.2-1,0.3-1.5
			c0-0.2,0.1-0.5,0.1-0.7c0-0.8-0.1-1.4-0.5-2s-1.1-1-1.9-1c-0.8,0-1.5,0.3-2,0.9c-0.5,0.6-0.8,1.5-1.2,2.3
			c-0.1,0.3-0.2,0.5-0.3,0.7l-0.3,0.8c-0.3,0.6-0.5,1.3-0.8,1.9c-0.3,0.7-0.6,1.4-0.9,2.1l-0.1,0.3c-0.4,1-0.9,2-1.3,2.9
			c-0.8,1.9-1.5,4-2.2,6.2c-0.2,0.5-0.3,1-0.4,1.4l-0.6-2l-0.2-0.8c-0.4-1.2-0.7-2.3-1.1-3.5c-0.2-0.6-0.4-1.2-0.7-1.7
			c-0.1-0.3-0.2-0.6-0.3-0.8c-0.2-0.5-0.4-1-0.6-1.5c-0.5-1-1.2-1.6-2.2-1.7c-0.1,0-0.3,0-0.4,0c-0.9,0-1.7,0.4-2.2,1.1
			c-0.2,0.2-0.3,0.5-0.5,0.8c-0.2,0.5-0.3,1.2-0.3,1.7c0,0.2,0,0.4,0,0.6v0.2v0.4v0.5v0.5c0,0.3,0,0.6,0,0.9c0,1-0.1,2-0.1,3
			c-0.7-1.1-1.4-2.2-2.2-3.3c-0.4-0.5-0.8-1-1.2-1.5c-0.4-0.4-0.7-0.7-1.1-1.1c-0.2-0.2-0.5-0.4-0.7-0.6c-0.4-0.3-1.2-0.7-1.8-0.8
			c-0.3,0-0.5,0-0.8,0h-0.2c-0.6,0.1-1.2,0.3-1.7,0.7c-0.9,0.7-1.4,1.7-1.6,3.1c-0.1,0.7-0.1,1.3-0.1,2v0.6c0,1.2,0.1,2.4,0.2,3.8
			c0,0.5,0.1,1,0.2,1.6v0.3c0.1,0.6,0.1,1.2,0.2,1.8c0.1,1.3,0.2,2.4,0.2,3.4v0.4c-0.1,1.5-0.1,2.9,0.8,4.1c0.5,0.7,1.3,1.2,2.2,1.3
			c0.1,0,0.3,0,0.5,0c1.1,0,2.2-0.5,2.7-1.3c0.5-0.7,0.7-1.3,0.9-2.1c0.1-0.3,0.1-0.7,0.1-1c0-0.8,0-1.6-0.1-2.5
			c-0.1-0.7-0.2-1.4-0.3-2.2v-0.4l-0.1-0.9c0.1,0.2,0.1,0.4,0.2,0.6v0.1l0.6,1.3l0.1,0.2c0.3,0.6,0.6,1.2,0.9,1.8
			c0.6,1.2,1.2,2.4,2.3,3.2c0.6,0.4,1.2,0.7,1.9,0.7c1.3,0,2.6-0.8,3.1-2c0.4-0.9,0.3-1.8,0.3-2.7v-0.2c0-0.4,0-0.8,0-1.1v-0.6v-0.6
			c0,0.2,0.1,0.4,0.1,0.6l0.3,1.1c0.2,0.7,0.4,1.5,0.7,2.2c0.2,0.6,0.5,1.5,1.2,2c0.5,0.4,1.1,0.6,1.7,0.6c0.1,0,0.2,0,0.4,0
			c0.4-0.1,0.8-0.2,1.2-0.5c0.1-0.1,0.3-0.3,0.4-0.4c-0.1,0.9,0.4,1.8,1.2,2.3c0,0,0,0.1,0,0.2c0,0.4,0.1,0.9,0.1,1.3
			c0.1,1.4,0.2,2.9,0.5,4.3c0.3,1.6,0.8,3.3,1.5,4.9c0.8,1.8,2,3.5,3,4.9c0.9,1.2,1.6,2.1,2.4,3c0.5,0.5,1,1,1.5,1.5
			c1.2,1.1,2.4,2,3.6,2.7c0.6,0.3,1.3,0.7,2.1,1s1.6,0.5,2.3,0.7c0.6,0.1,1.2,0.2,1.9,0.3c0.8,0.1,1.4,0.1,2,0.1c0.2,0,0.4,0,0.6,0
			c1.9-0.1,3.7-1,5.2-2c2.5-1.6,4.4-3.8,6.1-6c1.8-2.3,3.1-4.4,4-6.5c1-2.3,1.8-4.8,2.4-7.3l0.1-0.3c0.6-2.5,1.2-5,1.7-7.6
			c0.4-2.4,0.9-5,1.3-8.1c0.1-0.9,0.2-1.8,0.4-2.8c0.1-0.5,0.1-0.9,0.2-1.4c0.2-1.4,0.3-2.7,0.5-4l0.3-2.1c0.2-1.8,0.5-3.8,0.7-5.8
			c0.1-0.9,0.2-1.9,0.3-2.8v-0.3c0.1-1.5,0.3-2.9,0.5-4.4c0.3-2.8,0.7-5.5,1-8.1c0.4-2.8,0.7-5.5,1.1-8.5c0.2-1.8,0.4-3.5,0.5-5.3
			v-0.2v-0.2l0.2-2.2c0.2-2,0.4-4,0.6-6.1l0.1-0.6l0.1-0.5c0.3-2.6,0.6-5.3,0.8-8l0.1-1c0.2-2,0.4-4.4,0.5-6.8
			c0.1-1.4,0.1-2.7,0.2-4.1c0.1-1.4,0.1-2.7,0.2-4.1l0.1-1.6c0.1-2.1,0.2-4.2,0.3-6.3v-0.2v-0.4c0.1-2.6,0.3-5.3,0.3-7.9
			c0-0.8,0-1.6,0-2.4c0-0.8,0-1.6,0-2.4c0.2,0,0.4,0.1,0.7,0.1s0.6,0,0.9,0c1.3,0,2.7-0.1,4.2-0.4c1.8-0.3,3.5-0.8,5-1.4
			c1.8-0.7,3.4-1.8,4.8-3l-0.3,0.2l0.5-0.4c1.1-1.1,1.9-2,2.6-2.8c1.3-1.7,2.4-3.4,3.1-5.2c0.5-1.4,0.9-2.8,1.3-4.1
			c0.3-1.3,0.5-2.7,0.7-4c0.3-2.5,0.6-5.2,1-8.6c0.1-1.3,0.3-2.7,0.4-4c0.1-1.6,0.2-3.2,0.2-4.6c0-2.7-0.1-5.5-0.4-8.2
			c-0.3-2.6-0.5-5.1-1.3-7.7c-0.2-0.7-0.4-1.4-0.7-2.1l-0.1-0.4c-0.4-1.2-0.8-2.4-1.4-3.5c-0.5-1-1.2-1.5-2-1.6c-0.2,0-0.4,0-0.6,0
			c-0.2,0-0.4,0-0.6,0c-0.4,0.1-0.8,0.3-1.1,0.5l-0.2,0.1c-0.2,0.1-0.5,0.4-0.7,0.7c-0.3,0.3-0.4,0.6-0.6,0.9
			c-0.3,0.6-0.6,1.1-0.8,1.7c-0.6,1.3-1,2.6-1.5,3.9l-0.4,1.2c-0.8,2.3-1.6,4.6-2.2,6.9c-0.3,1.3-0.6,2.6-0.9,3.9v0.1v0.1
			c-0.2,1-0.5,2-0.7,3c-0.4,1.3-0.7,2.6-1.4,3.8c-0.6,0.9-1.2,1.7-1.9,2.4c-0.8,0.8-1.6,1.4-2.3,1.9c-0.2,0-0.3,0-0.5,0
			c0.1-0.5,0.1-1.1,0.1-1.6c0.1-1.3,0.1-2.9,0.1-4.8c0-2.4-0.2-4.8-0.3-7.2v-0.2v-0.2c-0.1-1.4-0.2-2.7-0.3-4.1
			c0-0.4-0.1-0.9-0.2-1.3l-0.1-0.5l-0.2-1.2l-0.2-1c-0.3-1.3-0.6-2.7-1-4.1c-0.2-0.6-0.4-1.3-0.6-1.9c-0.2-0.6-0.4-1.1-0.6-1.7
			l-0.5-1.6c-0.2-0.7-0.5-1.5-0.7-2.2l-0.3-1.1c-0.3-1.2-0.7-2.6-1.4-3.8c-0.5-1-1.1-1.8-1.8-2.5c-0.4-0.4-0.8-0.7-1.1-1
			c-0.3-0.2-0.5-0.4-0.8-0.6c-0.8-0.6-1.6-0.9-2.6-1.2C846.8,168,846.3,168,845.7,168"/>
		<path class="st3" d="M488.5,243.3h-0.1c-0.7,0-1.3,0.1-1.8,0.2c-0.6,0.1-1.1,0.3-1.5,0.5c-0.7,0.2-1.2,0.6-1.8,1
			c-0.4,0.3-0.7,0.7-1,1l-0.1,0.1c-0.2,0.2-0.3,0.4-0.4,0.7l-0.1,0.1c-0.3,0.6-0.6,1.1-0.8,1.6c-0.4,0.9-0.7,2-1,3.2v0.2l0,0l0,0
			l0,0l0,0l0,0v0.2l0,0c-0.2,1.1-0.4,2.3-0.5,3.3v0.1c-0.2,1.3-0.3,2.5-0.4,3.7c-0.1,2.2-0.3,4.5-0.4,7.5c-0.1,1.2-0.1,2.5-0.1,3.9
			c-0.5,1.4-0.8,2.9-1,4.1c-0.2,1.3-0.4,2.6-0.5,3.8c-0.3,3.1-0.4,5.2-0.4,7.6c0,1.7,0,3.2,0.1,4.7l0.1,0.8v0.8
			c0,0.6,0.1,1.1,0.1,1.7c0,0.8,0,1.5,0,2.3c0,1.9,0.1,4.4,0.2,6.8c0.1,1.2,0.2,2.5,0.3,3.3l0.1,0.5l0.1,1v0.2v0.1
			c0.1,0.9,0.2,1.9,0.4,2.8c0.3,1.5,0.5,2.7,0.8,4s0.6,2.7,0.8,4.1c0.2,1.4,0.3,2.8,0.5,4.4c0.1,1.2,0.2,2.4,0.4,3.7v0.1v0.1
			l-0.2-0.1l-0.3-0.2l-0.7-0.4c-0.5-0.3-0.8-0.5-1.1-0.8c-0.4-0.4-0.7-0.8-1-1.2c-0.6-1.1-1.1-2.4-1.4-3.5c-0.3-1-0.7-2.1-1-3.1
			l-0.1-0.4l-0.1-0.3v0.1c-0.5-1.9-1.2-3.7-1.9-5.6l-0.2-0.6c-0.3-0.7-0.5-1.4-0.8-2.1c-1.1-3-2.5-5.9-3.9-8.5
			c-0.4-0.8-0.8-1.5-1.2-2.3c-0.3-0.6-0.7-1.3-1.1-1.8c-0.5-0.8-1.3-1.5-2.5-2c-0.5-0.2-1.1-0.3-1.7-0.3c-1.7,0-3.3,1-4.1,1.6
			c-1.4,1.1-2.4,2.7-2.8,4.9c-0.4,1.6-0.5,3.1-0.6,4.5c-0.1,1.7-0.2,3.5-0.3,5.2c-0.1,1.2-0.1,2.4-0.1,3.7v0.3v0.7
			c0,0.5,0,1.1,0,1.6v0.4c0,0.9-0.1,1.8-0.1,2.6c0,3.2,0,6.8,0.1,10.5c0.1,1.7,0.1,3.6,0.3,5.4v0.2v0.8v0.1c0.1,2.1,0.1,4.3,0.4,6.3
			c0.2,1.8,0.6,3.5,1,5.2v0.1c0.2,0.7,0.3,1.4,0.4,2.1c0.3,1.2,0.7,2.5,1.3,4c0.5,1.1,0.9,2.1,1.4,3c1.1,2.1,2.3,4.1,3.6,6l0.4,0.7
			l-0.5-0.9c1.2,2,2.3,3.7,3.5,5.4c0.6,0.7,1.2,1.5,1.8,2.3c1.3,1.5,2.5,2.6,3.7,3.3c1.3,0.8,2.4,1.3,3.5,1.7c1.3,0.5,2.6,0.7,4,1
			c1.2,0.2,2.3,0.3,3.3,0.4c0.4,0,0.8,0,1.2,0c0,0.6,0.1,1.3,0.1,1.9c0,0.7,0.1,1.2,0.1,1.7v0.6v0.4c0,0.4,0,0.8,0.1,1.3
			c0.1,1.6,0.2,3.3,0.4,4.7v0.2c0.1,0.9,0.2,1.8,0.2,2.7l0.2,2.6l0.1,0.8l0.1,0.7c0.1,1.3,0.2,2.5,0.3,3.8l0.1,1.2l0.2,2.2
			c0.1,2.6,0.3,5.3,0.4,8.1c0,0.4,0,0.7,0,1.1c0,0.6,0,1.2,0,1.9v0.3v0.4c0,0.9-0.1,1.9-0.1,2.8c0,2.1,0,4.2,0.1,6.3
			c0,0.5,0.1,1.1,0.1,1.6c0,1.3-0.1,2.6-0.2,3.9l-0.1,1.5v0.5v0.7c-0.2,3.6-0.5,7.8-0.7,11.7c-0.1,1.3,0.8,2.3,2,2.4
			c0.1,0,0.1,0,0.2,0c1,0,2.2-0.8,2.2-2c0.1-1.6,0.2-3.2,0.3-4.8c0.6,1.6,1.4,2.7,2.5,3.4c0.7,0.5,1.5,0.7,2.4,0.9
			c0.5,0.1,0.9,0.2,1.5,0.2c0.3,0,0.6,0,1,0c0.9,0,1.7-0.2,2.2-0.3c1.7-0.4,3.3-1.2,4.3-2.3c1.3-1.4,2-3,2.5-4.6
			c0.5-1.3,0.8-2.8,1-4.6c0.2-1.3,0.2-2.6,0.3-3.9c0.1-1.3,0.1-2.9,0.1-4.5c0-2.3-0.1-4.7-0.1-7v-1.5c-0.1-3-0.2-6-0.3-9.1h0.2
			c1.7-0.5,3.3-0.6,4.7-0.6h0.3c0.9,0,2,0,3-0.3c0.7-0.1,1.6-0.3,2.5-0.6c0.8-0.2,1.7-0.6,2.7-1.1c0.5-0.3,1-0.5,1.5-0.8
			c0.5-0.2,1-0.5,1.5-0.7c1.8-0.8,3.6-1.7,5.1-3c4.6-4,6.4-10,7.1-14.3c0.3-1.9,0.4-3.8,0.6-5.7V378c0.1-2,0.2-4.2,0.2-6.4
			c0-1.6-0.1-3.3-0.1-4.9l-0.1-1.5c-0.1-1.1-0.1-2.3-0.2-3.4v-0.6l-0.1-1.8c-0.1-3.1-0.3-5.6-0.6-7.9c-0.3-2.5-0.7-5.4-1.3-8.2
			l-0.5-2.3c-0.3-1.6-0.7-3.2-1.8-4.5c-1-1.3-2.2-2-3.4-2c-0.3,0-0.6,0-0.9,0.1c-0.6,0.2-1,0.3-1.5,0.7c-0.4,0.3-0.7,0.6-0.9,0.9
			c-0.4,0.6-0.8,1.2-1.1,2c-0.4,0.9-0.6,2-0.7,2.8c-0.1,0.7-0.2,1.3-0.3,2v0.2c-0.1,0.9-0.2,1.8-0.3,2.6l-0.1,1.2
			c-0.5,4.4-1,8.9-1.6,13.3c-0.3,2.1-0.5,4.3-0.8,6.4c-0.3,2.1-0.7,4.2-1.1,6.4c-0.6,2.4-1.3,5.1-2.5,7.6c-0.6,1-1.3,2-2.2,2.9
			c-0.5,0.5-1.1,0.9-1.5,1.2c-0.5,0.3-0.9,0.5-1.4,0.7c-0.1,0-0.3,0-0.4,0.1c-0.1,0-0.3,0-0.4,0c-0.2-0.2-0.4-0.3-0.6-0.5
			c-0.1-0.1-0.1-0.1-0.2-0.2c-0.3-0.6-0.6-1.2-0.8-1.9c-0.3-1-0.5-1.9-0.7-2.6c-0.2-1.2-0.4-2.4-0.6-3.5v-0.1l-0.1-0.8v-0.1
			c-0.1-0.9-0.3-1.8-0.4-2.6c-0.2-1.1-0.3-2.3-0.4-3.5c-0.2-2.2-0.3-4.4-0.4-6.5v-0.4v-0.4v-0.3l-0.1-2.7c-0.1-1.4-0.2-2.8-0.2-4.3
			v0.3c0-1.9-0.1-3.8-0.1-5.7c-0.1-2.3-0.1-4.6-0.2-6.9c0-1.2-0.1-2.4-0.1-3.6v0.6c0-0.7,0-1.4-0.1-2.1v-0.2
			c-0.1-1.9-0.1-3.7-0.1-5.6v-0.3v-0.3c0.4-0.1,0.9-0.2,1.3-0.4l0.5-0.2l0.3-0.1c0.5-0.1,0.9-0.3,1.4-0.4l0.4-0.1h0.2
			c1.5-0.4,3.1-0.8,4.7-1.4c1.4-0.5,2.8-1.3,4.4-2.5c1.4-1.1,2.7-2.4,3.8-3.6c0.8-0.9,1.4-1.6,1.8-2.4c0.5-0.9,0.9-1.8,1.2-2.8
			c0.8-2.6,1-5.4,1.2-8v-0.4c0-0.4,0.1-0.9,0.1-1.3c0.3-3.7,0.5-6.9,0.6-10c0.1-1.7,0.1-3.5,0-5.2c-0.1-1.4-0.2-2.8-0.5-4.6
			c-0.3-1.6-0.6-3.3-0.9-4.9c-0.1-0.5-0.2-1-0.4-1.5v-0.2c-0.1-0.3-0.2-0.6-0.2-0.9c-0.2-0.7-0.4-1.4-0.7-2.2
			c-0.2-0.5-0.3-1-0.5-1.4c-0.2-0.6-0.6-1.1-0.9-1.6l-0.1-0.2c-0.6-0.9-1.7-1.5-2.6-1.8c-0.4-0.2-0.9-0.3-1.4-0.3h-0.2
			c-0.1,0-0.3,0-0.4,0c-0.2,0-0.3,0-0.5,0h-0.4c-0.7,0.1-1.6,0.5-2.5,1.3c-0.7,0.6-1.1,1.3-1.6,2.2c-0.2,0.4-0.3,0.9-0.5,1.4
			l-0.1,0.3c-0.1,0.5-0.3,1.1-0.4,1.6c-0.1,0.6-0.2,1.3-0.3,1.9l-0.1,0.5c-0.3,1.8-0.5,3.6-0.8,5.8l-0.1,1.1
			c-0.3,2.1-0.6,4.2-1.1,6.5c-0.1,0.4-0.2,0.8-0.3,1.2c-0.3,1.2-0.7,2.3-1.3,3.5c-0.3,0.5-0.7,1-1.1,1.5c-1.1,1.2-2.5,2.3-4,3.3
			v-0.2v-0.2c0-1.3-0.1-2.5-0.1-3.8v-1.3v-0.2c0-1.7-0.1-3.6-0.2-5.3c-0.2-2-0.7-4-1.1-5.8c-0.3-1.1-0.6-2.3-0.8-3.5l-0.2-1v-0.2
			c-0.4-2.1-0.8-4.3-1.4-6.5l-0.2-0.6l-0.1-0.4c-0.2-0.7-0.4-1.3-0.6-2V274v-0.2v-0.2c0-1.2-0.1-2.5-0.1-3.7c0-0.7,0-1.4,0.1-2.1
			c0-0.5,0-0.9,0-1.4c0.1-2.7,0.1-5.5-0.1-8.3c-0.1-1.4-0.3-2.7-0.5-4v-0.2c-0.3-1.5-0.5-3-1-4.5c-0.2-0.6-0.5-1.4-0.9-2.1
			c-0.3-0.5-0.7-1.1-1.2-1.7c-0.9-1.1-2.1-1.9-3.4-2.3c-0.4-0.1-0.8-0.2-1.3-0.2C488.9,243.3,488.7,243.3,488.5,243.3"/>
		<path class="st3" d="M495.1,255.3c-0.3,0.2-0.5,0.7-0.5,1c0.1,2.6,0.2,5.3,0.3,7.9c0.1,2.6,0.2,5.1,0.4,7.7c0,0.1,0,0.3,0,0.4l0,0
			l0,0c0,0.1,0,0.2,0,0.2l0,0c0,0.1,0,0.3,0,0.4c0,0,0,0,0,0.1c0,0.2,0,0.5,0,0.7c0,0.1,0,0.3,0,0.4c0,0.1,0,0.1,0,0.2
			c0.1,1.5,0.2,3.1,0.4,4.6c0.1,1.4,0.2,2.8,0.4,4.3c0.1,1.6,0.3,3.1,0.4,4.7c0.1,1.5,0.2,3,0.4,4.5c0.1,1.3,0.2,2.6,0.3,3.8
			c0.1,1.2,0.2,2.5,0.3,3.7c0.1,1.1,0.2,2.3,0.3,3.4c0.1,1.3,0.3,2.7,0.6,4c0.1,0.6,0.6,1,1.2,1c0.7,0,1.4-0.5,1.4-1.2
			c0-1.6-0.2-3.1-0.3-4.7c-0.1-1.3-0.2-2.6-0.3-3.9c-0.2-3.1-0.5-6.3-0.7-9.4c-0.2-2.9-0.5-5.8-0.8-8.7c-0.2-2.2-0.4-4.3-0.6-6.5
			c0-0.1,0-0.2,0-0.3c0-0.3,0-0.5-0.1-0.8c0,0.1,0,0.2,0,0.3c0-0.1,0-0.2,0-0.3l0,0l0,0l0,0c0-0.1,0-0.3,0-0.4l0,0
			c0-0.1,0-0.1,0-0.2v-0.1c0-0.1,0-0.3,0-0.4c0-0.1,0-0.2,0-0.3c0,0.1,0,0.2,0,0.3l0,0c-0.3-5.1-0.5-10.2-0.7-15.2
			c0-0.4-0.1-0.8-0.4-1.1s-0.6-0.5-1-0.5H496C495.8,254.9,495.4,255.1,495.1,255.3 M495.5,274.2L495.5,274.2L495.5,274.2
			C495.5,274.3,495.5,274.3,495.5,274.2 M495.5,274.4c0,0.1,0,0.1,0,0.2C495.5,274.5,495.5,274.4,495.5,274.4 M498.4,273L498.4,273
			L498.4,273L498.4,273z"/>
	</g>
</g>
</svg>
