<?xml version="1.0" encoding="utf-8"?>
<!-- Generator: Adobe Illustrator 22.1.0, SVG Export Plug-In . SVG Version: 6.00 Build 0)  -->
<svg width="1800px" height="268px"  version="1.1" id="background" xmlns="http://www.w3.org/2000/svg" xmlns:xlink="http://www.w3.org/1999/xlink" x="0px" y="0px"
	 viewBox="0 0 1800 268" style="enable-background:new 0 0 1800 268;" xml:space="preserve">
<style type="text/css">
	.st0{fill:#EA9A00;}
	.st1{fill:#DB5120;}
	.st2{fill:#AF2A00;}
	.st3{fill:#671400;}
	.st4{fill:#440D00;}
</style>
<g>
	<g>
		<path class="st0" d="M158.7,14.4V15c0,0.5,0.1,1.1,0.2,1.8c0.1,0.4,0.1,0.7,0.2,1.1L159,17c-0.1-0.8-0.2-1.5-0.2-2.2
			c0,0,0,0,0-0.1C158.7,14.6,158.7,14.5,158.7,14.4L158.7,14.4z"/>
		<path class="st0" d="M1702,146.8c-0.6,0.1-1.3,0.1-1.8,0.3c-1,0.2-2.1,0.4-3,0.8c-0.5,0.2-0.9,0.4-1.3,0.6
			c-0.5,0.3-0.8,0.5-1.2,0.8c-0.7,0.5-1.4,1-1.8,1.5c-1.2,1.1-2,2.4-2.9,3.6c-0.2,0.3-0.3,0.6-0.2,0.9c0.2,0.3,0.6,0.6,1,0.7
			c0.5,0.2,1,0.2,1.6,0.1c0.5-0.1,1-0.3,1.3-0.6c0.6-0.8,1.2-1.6,1.8-2.4c0.6-0.6,1-1.2,1.7-1.8c0.6-0.4,1.3-0.8,2-1.1
			c0.2-0.1,0.2-0.1,0.5-0.2v-0.1c0.2-0.1,0.5-0.2,0.6-0.2c0.5-0.1,0.9-0.2,1.4-0.2c0.2,0,0.5,0,0.6,0h0.1c0.1,0,0.2,0.1,0.3,0.1
			c0.1,0.1,0.1,0.1,0.2,0.1c0.1,0,0.1,0.1,0.2,0.1c-0.1,0-0.1-0.1-0.2-0.1c0.2,0.1,0.3,0.2,0.5,0.3c0.3,0.3,0.7,0.6,1,1
			c0.6,0.7,1,1.4,1.4,2c0.6,0.9,1,1.8,1.4,2.9c0.3,1,0.6,1.9,1,2.7l0.2,0.4v0.1c0.2,0.7,0.6,1.3,0.7,1.9v0.1l0.1,0.2v0.1l0.1,0.3
			v0.1c0.1,0.5,0.2,1,0.5,1.5c0.1,0.3,0.2,0.6,0.5,0.9v0.1l0.1,0.2c0.1,0.2,0.2,0.3,0.2,0.5c0.2,0.5,0.3,1,0.6,1.4v0.1
			c0.1,0.3,0.2,0.7,0.3,1c0.1,0.2,0.2,0.4,0.2,0.7c0.1,0.6,0.2,1,0.2,1.6l0.1,0.6c0,0.4,0.1,0.8,0.2,1.1c0.2,0.6,0.3,1.2,0.6,2
			l0.1,0.2v0.1c0.2,0.4,0.3,0.8,0.5,1.2c0.2,0.5,0.2,1,0.3,1.4c0.1,0.3,0.2,0.5,0.2,0.7c0.1,0.2,0.1,0.3,0.2,0.5l0.1,0.4
			c0.2,0.7,0.3,1.3,0.6,1.9c0.2,1,0.6,1.9,1.4,2.7c0.2,0.2,0.6,0.4,1,0.5l0,0c0.6,0.2,1.3,0.2,1.9,0.1c1.4-0.2,2.1-1,1.8-1.7
			c-0.2-0.6-0.5-1.2-0.7-1.8c-0.2-0.7-0.3-1.3-0.5-2c-0.2-0.9-0.5-1.6-0.7-2.5c-0.2-0.7-0.3-1.3-0.6-1.9c-0.2-0.6-0.5-1-0.6-1.6
			c-0.2-0.9-0.2-1.7-0.2-2.6c-0.1-0.6-0.2-1.2-0.3-1.8c-0.1-0.4-0.2-0.8-0.3-1.1c-0.2-0.7-0.3-1.3-0.6-2c-0.2-0.6-0.6-1.1-0.7-1.7
			c-0.2-1-0.3-2-0.7-3c-0.3-0.9-0.7-1.7-1-2.7c-0.3-1-0.7-2-1.2-2.9c-0.5-1-1.4-1.9-2.1-2.9c-0.3-0.6-0.8-1-1.4-1.5
			c-0.6-0.7-1.5-1.2-2.5-1.6c-0.2-0.2-0.6-0.3-0.9-0.4c-0.3-0.1-0.9-0.2-1.3-0.3c-0.4-0.1-0.8-0.1-1.3-0.1
			C1702.5,146.8,1702.3,146.8,1702,146.8 M1694.4,99.6c0-0.1,0.1-0.1,0.1-0.1L1694.4,99.6L1694.4,99.6 M1694.3,149.6
			c-0.1,0.1-0.2,0.1-0.3,0.2C1694.2,149.8,1694.2,149.8,1694.3,149.6"/>
		<path class="st0" d="M1698.7,146.9c-0.8,0-1.7,0.2-2.2,0.5c-0.6,0.3-1,0.7-0.9,1.1c0.2,0.9,0.4,1.8,0.9,2.8c0.4,0.8,1.2,1.8,3,2.2
			c0.6,0.2,1.1,0.2,1.7,0.2c0.6,0.1,1.2,0.2,1.8,0.2c0.2,0,0.4,0,0.6-0.1c0.7,0.2,1.2,0.4,1.9,0.5c1.5,0.4,3.3,0.3,4.4-0.3
			c0.7-0.3,1-0.8,1-1.2s-0.3-0.9-1.1-1.2c-1.1-0.4-2.1-0.8-3.3-1.2c-0.4-0.2-0.9-0.3-1.5-0.5c-0.3-0.1-0.7-0.2-1-0.3
			c-0.7-0.2-1.1-0.2-1.7-0.3c-0.1-0.4-0.2-0.7-0.2-1.1c-0.1-0.4-0.3-0.7-1-1C1700.3,147.1,1699.5,146.9,1698.7,146.9L1698.7,146.9z
			 M1703.2,151.1L1703.2,151.1L1703.2,151.1"/>
		<path class="st1" d="M1802.5,150.6c-0.2-0.2-0.4-0.4-0.7-0.5c-0.4-0.3-0.7-0.4-1.1-0.5c-0.4-0.2-0.9-0.4-1.3-0.4l-0.3-0.1
			l-0.1-0.1c-0.9-0.3-2-0.6-3-0.8c-0.2-0.1-0.4-0.1-0.6-0.1c-0.1,0-0.3,0-0.4,0h-0.1c-0.6,0.1-1.1,0.1-1.7,0.2
			c-1.3,0.3-2.6,0.5-3.9,0.9l-0.1,0.1l-0.1,0.1c-0.6,0.2-1.1,0.4-1.7,0.6c-0.7,0.3-1.2,0.5-1.8,0.9c-1.2,0.6-2.2,1.3-3.3,2.1
			c-0.8,0.5-1.5,1.2-2,1.7l-0.1,0.1l-0.2,0.3l-0.3,0.4c-0.7,0.6-1.3,1.3-2,1.8l-0.1,0.2l-0.1,0.2l-0.2,0.2l-0.1,0.1l-0.1,0.2
			c-0.8,0.7-1.7,1.5-2.6,2.4c-0.3,0.4-0.8,0.8-1.1,1.3l-0.2,0.3l-0.1,0.1l-0.1,0.1l-0.1,0.1l-0.1,0.1c-0.6,0.6-1.1,1.3-1.7,1.9
			c-0.3,0.4-0.8,0.7-1.3,1.2c-0.4,0.6-0.8,1.2-1,1.7c-0.1,0.6-0.3,1.3-0.4,1.9c-0.1,0.4-0.1,0.6-0.2,0.9v0.1
			c-0.2,1.3-0.7,2.5-1.1,3.7c-0.3,0.9-0.8,2-1.5,3.1s-1.3,2.2-1.9,3.1l-0.1,0.2c-1.3,2-3.1,4.3-6.5,6.4c-1.1,0.7-2.2,1.3-3.3,1.8
			l-0.7,0.4c-1.1,0.6-2.2,1.2-3.5,1.7c-1.6,0.6-3.4,1.3-5.5,1.7c-1.5,0.4-2.7,0.5-3.8,0.6c-1.5,0.2-3,0.3-4.6,0.3
			c-1.1,0-2.1-0.1-3.1-0.2c-1.3-0.2-2.7-0.4-4.1-0.7c-3.5-0.7-6.4-2-8-3.5c-0.2-0.3-0.6-0.5-0.8-0.8c-0.6-0.2-0.9-0.3-1.2-0.4
			c-1-0.7-1.5-1.6-1.8-2.5c-0.2-0.6-0.4-1.3-0.7-1.8l-0.1-0.4c-0.1-0.2-0.1-0.3-0.2-0.4c-0.1-0.3-0.2-0.4-0.3-0.6
			c-0.2-0.4-0.3-0.9-0.4-1.3c-0.1-0.4-0.3-0.8-0.6-1.2v-0.4l-0.1-0.2c-0.3-0.7-0.7-1.3-0.8-1.9c-0.1-0.4-0.1-0.7-0.2-1.1l-0.1-0.5
			c0-0.4-0.1-1-0.2-1.5c-0.1-0.2-0.2-0.4-0.3-0.6c-0.1-0.3-0.3-0.6-0.4-0.9v-0.1c-0.1-0.4-0.3-0.9-0.7-1.3c-0.1-0.2-0.2-0.3-0.2-0.4
			l-0.1-0.2v-0.1c-0.2-0.3-0.3-0.5-0.6-0.8c-0.2-0.4-0.4-1-0.6-1.4v-0.1l-0.1-0.3v-0.1l-0.1-0.2v-0.1c-0.2-0.5-0.6-1.3-0.9-1.8v-0.1
			l-0.2-0.4c-0.3-0.7-0.8-1.5-1.2-2.5c-0.4-1.1-1-2-1.7-2.8c-0.4-0.6-1-1.3-1.7-1.9c-0.3-0.4-0.8-0.6-1.2-0.9
			c-0.2-0.2-0.6-0.3-0.8-0.4c-0.2-0.1-0.3-0.1-0.4-0.1h-0.1c-0.2,0-0.6,0-0.8,0c-0.7,0.1-1.2,0.2-1.8,0.2c-0.2,0.1-0.6,0.2-0.8,0.2
			l-0.3,0.4c-0.1,0.2-0.9,1.3-1.7,2.4c-0.4,0.6-1.1,1.3-1.7,1.9c-0.6,0.5-1.1,1.2-1.7,1.9c-0.3,0.4-0.8,0.8-1.1,1.3
			c-0.9,1-1.9,1.9-3.4,3.1c-0.6,0.5-1.2,0.9-1.9,1.4c-1.1,0.6-2,1.1-3.1,1.3c-1.2,0.4-2.6,0.5-4,0.6l-0.8,0.1
			c-1.1,0.1-2.5,0.2-3.8,0.2c-0.1,0-0.3,0-0.4,0h-0.1c-0.9,0-1.8-0.1-2.6-0.2c-0.8-0.1-1.5-0.2-2-0.4c-0.9-0.3-1.6-0.4-2.4-0.7
			c-1.3-0.4-2.4-1.1-3.3-1.5l-0.1-0.1c-0.8-0.4-1.7-0.9-2.4-1.4c-0.3-0.3-0.7-0.5-1.1-0.8l-0.1-0.1l-0.1-0.1
			c-0.3-0.3-0.8-0.5-1.1-0.8c-0.2-0.2-0.4-0.4-0.7-0.4l-0.2-0.2c-0.4-0.4-0.9-0.6-1.3-1c-1.7-1.3-2.8-2.7-3.6-3.9l-0.1-0.3
			c-0.3-0.5-0.8-1.1-0.9-1.6c-0.2-0.4-0.3-0.9-0.4-1.4c-0.1-0.4-0.1-0.5-0.2-0.8l-0.1-0.3v-0.1c-0.2-0.5-0.4-1.1-0.6-1.6
			c-0.1-0.4-0.2-1-0.4-1.5l-0.1-0.4c-0.2-0.4-0.4-1.1-0.6-1.5c-0.1-0.4-0.1-0.6-0.1-0.9v-0.4v-0.2c-0.3-0.4-0.7-0.6-0.9-0.8
			l-0.4-0.5c-0.6-0.6-1.2-1.4-1.6-2.2c-0.3-0.5-0.6-1.2-0.7-1.7v-0.2c0-0.1,0-0.2-0.1-0.3c0-0.7,0-1.3,0.1-1.8l0.1-0.4
			c0.1-0.4,0.1-0.6,0.2-0.9v-0.2v-0.1c-0.1-0.3-0.2-0.4-0.2-0.6c-0.4-1.3-1.3-2.4-2.2-3.6c-0.9-1.2-1.7-2.3-2.6-3.5
			c-0.2-0.1-0.6-0.2-0.8-0.3l-0.1-0.1c-0.7-0.2-1.2-0.4-1.9-0.5c-0.8-0.2-1.6-0.4-2.6-0.5c-0.4-0.1-0.9-0.2-1.6-0.2l0.3,0.1
			c-0.7-0.1-1.3-0.1-2.2-0.1c-0.7,0-1.3,0-1.9,0c-0.6,0.1-1.1,0.1-1.8,0.2c-0.6,0.1-1.2,0.2-2,0.3l-0.7,0.1h0.9
			c-0.9,0.1-1.8,0.4-2.8,0.6c-1.1,0.4-2.1,0.7-2.9,1.1c-1,0.4-2.1,0.9-3,1.3c-1,0.5-2,1.2-2.8,1.8c-0.6,0.4-1.1,0.9-1.6,1.4
			l-0.2,0.3l-1.1,1.2c-1.7,1.9-3.1,3.7-4.4,5.2c-0.7,0.8-1.5,1.7-2.1,2.6l-0.4,0.6l-0.2,0.3c-1,1.3-2.1,2.7-4.1,3.8l-0.6,0.4
			c-1.2,0.7-2.5,1.4-4.3,1.9l-0.3,0.1c-1.2,0.4-2.1,0.5-3.1,0.8c-1.6,0.4-3,0.6-4.4,0.9l-0.3,0.1l-2.7,0.4l-2.1,0.3
			c-1,0.1-2,0.2-2.9,0.2l-2.4,0.1c-1-0.1-2-0.1-3-0.2l-1.3-0.3c-1.5-0.2-2.9-0.5-4.3-0.9c-2.2-0.6-4.4-1.3-6.4-1.9
			c-1.1-0.4-2.5-0.8-3.6-1.3s-2.2-0.9-3.1-1.5l-0.1-0.1l-0.6-0.3c-1.1-0.6-2-1.3-2.7-2l-0.1-0.2l-0.2-0.3c-0.2-0.4-0.4-0.6-0.6-1.1
			s-0.4-0.9-0.7-1.3l-0.1-0.3c-0.1-0.3-0.2-0.4-0.3-0.7l-0.1-0.2l-0.1-0.4l-0.2-0.4l-0.2-0.5l-0.1-0.4c-0.6-1.1-1-2.2-1.6-3.1
			c-0.4-1.1-0.9-2.1-1.3-3.2l-0.1-0.2l-0.1-0.2l-0.1-0.2l-0.1-0.2l-0.1-0.2l-0.1-0.3l-0.3-0.9c-1-2.6-2-5.5-2.8-7.5v-0.1l-0.1-0.4
			l-0.2-0.5l-0.1-0.3v-0.1v-0.1l-0.1-0.4l-0.6-1.7c-0.7-1.9-1.5-3.9-2.2-5.7l-0.1-0.3l-0.1-0.2l-0.1-0.2l-0.1-0.4l-0.1-0.2l-0.2-0.5
			l-0.2-0.5l-0.2-0.4l-0.2-0.4c-0.3-0.8-0.7-1.6-1-2.4c-0.3-0.9-0.7-1.8-0.9-2.7l-0.2-1l-0.3-1.1l-0.1-0.4c-0.1-0.3-0.2-0.5-0.2-0.7
			l-0.2-1.5l-0.2-1.5c-0.1-0.5-0.1-1.2-0.1-1.7V100v-0.4V99c0-0.6,0-1.4,0.1-2.2l0.1-0.8c0.1-0.6,0.2-1.3,0.3-1.8l0.1-0.3
			c0.1-0.6,0.3-1.6,0.3-2.6c0-0.8,0-1.6-0.1-2.5c-0.1-2-0.3-3.9-0.4-5.7c0-0.3,0-0.4-0.1-0.6v-0.1v-0.2V82v-0.1v-0.2
			c-0.1-0.7-0.1-1.2-0.1-1.6V77c0-0.7,0.1-1.6,0.1-2.2v0.4l0.1-0.7c0.1-0.7,0.1-1.4,0.3-2.2c0-0.3,0.1-0.5,0.1-0.8v-0.3v-0.2
			c0.1-0.5,0.2-1.2,0.2-1.7l0.1-0.6v-0.1c0.1-0.8,0.2-1.8,0.1-2.8c-0.1-0.8-0.3-1.7-0.6-2.7l-0.2-0.7l-0.2-0.7l-0.3-0.8l-0.1-0.1
			l-0.2-0.4c-0.2-0.5-0.6-1.1-0.8-1.5c-0.7-1.4-1.1-3-1.6-4.4c-0.4-1.7-0.8-3.4-1.1-4.9v-0.1v-0.1V49c-0.2-1.2-0.6-2.9-1.1-4.7
			l-0.1-0.2v-0.1V44c-0.4-1.1-0.9-2.3-1.7-3.5c-0.4-0.8-1.1-1.7-1.9-2.5l-0.4-0.4l-0.4-0.4c-0.9-0.8-1.7-1.6-2.5-2.2
			c-1-0.8-2-1.5-2.9-2.2l-1.2-0.8l-1.2-0.8c-2.6-1.7-4.9-3.2-7.3-4.6c-1.6-0.8-3.1-1.6-4.8-2.3c-2-0.8-3.9-1.4-5.8-2.2
			c-1.6-0.5-3.4-1.1-5.5-1.6c-1.3-0.4-2.9-0.7-4.6-1.1l-1.2-0.3l-1-0.3c-1.5-0.3-2.8-0.4-4-0.5h-0.1l-0.6-0.1h-0.2h-0.2l-2.8-0.1
			c-1-0.1-2.1-0.1-3.4-0.1c-0.3,0-0.7,0-1,0c-0.8,0-1.6,0.1-2.5,0.1h-0.2h-0.1h-1.2c0.1,0.1,0.1,0.1,0.1,0.1h-0.1
			c-0.2,0-0.6,0-0.8,0.1h-0.2h-0.3h-0.3h-0.1h-0.1h-0.1h-0.1h-0.1h-0.1h-0.1c-1.8,0.1-3.3,0.2-4.8,0.4c-1.8,0.2-3.7,0.4-5.7,0.6
			l-0.8,0.2l-0.9,0.2c-1.6,0.3-3.1,0.6-4.5,1.1c-3,1-6.6,2.2-9.8,3.5c-1.5,0.6-2.8,1.3-4.5,2l-0.1,0.1l-0.1,0.1l-0.1,0.1
			c-1,0.4-1.9,0.8-2.6,1.3l-1.7,0.8l-1.7,0.8l-0.8,0.4l-0.2,0.2c-2,1.2-4.6,2.6-6.8,4.2c-2.9,2-5.7,4.3-8.3,6.7
			c-1.8,2.1-3.1,4.2-4,5.8l-0.7,1.5v0.1v0.1v0.1v0.1c-1,1.9-2.4,4.3-3.3,6.5c-0.2,0.8-0.4,1.6-0.6,2.4c-0.1,0.8-0.1,1.7-0.1,2.6v0.2
			c0,0.5,0,1.2,0.1,1.7v0.3v0.4v0.2v0.1V63c0,0.5,0.1,1.2,0.1,1.7v0.5v0.1v0.3v0.2c0,0.4,0.1,1.2,0,1.9v0.1
			c-0.1,1.3-0.3,2.6-1.1,3.8c-0.3,0.6-0.9,1.3-1.5,1.9c-0.3,0.4-0.7,0.7-1.1,1.1c-0.6,0.4-1.2,1-2,1.4l-1.5,1
			c-0.7,0.4-1.5,0.8-2.2,1.3l-0.7,0.4l-1.1,0.5c-1,0.4-2,0.7-2.9,1l-1.1,0.3l-0.4,0.1c-1.1,0.3-2.4,0.4-3.8,0.4l-0.9,0.1
			c-1.3,0.1-2.1,0.1-2.9,0.1c-0.7,0-1.3-0.1-2-0.1c-0.9-0.1-1.8-0.2-2.7-0.4l-1.5-0.4c-1-0.3-1.7-0.6-2.1-1.1
			c-0.9-0.9-1.6-1.7-2-2.4c-0.3-0.5-0.4-1.2-0.7-1.5v-0.1l-0.1-0.3c-0.7-2-1.5-3.7-2.6-5.2c-1.2-1.7-2.5-3.5-4.1-5.5
			c-0.4-0.5-0.9-1.1-1.5-1.6c-0.3-0.3-0.7-0.5-1-0.8c-0.8-0.5-1.7-1.2-2.6-1.6c-0.7-0.4-1.2-0.7-1.9-1.1c-0.7-0.4-1.6-0.6-2.5-1
			c-1.3-0.4-2.7-0.7-4-1.1c-1-0.2-2.1-0.4-3.5-0.4c-0.7,0-1.3,0.1-2.1,0.1l-0.8,0.1h-0.1c-0.8,0.1-1.6,0.1-2.4,0.2
			c-2.4,0.4-4.9,1.1-8.1,1.8c-3.3,0.7-7.4,1.8-11.3,3c-3,1-5.8,2.2-8.1,3.1c-0.6,0.3-1.2,0.5-1.8,0.8c-1.1,0.6-2.4,1.3-3.5,1.9
			l-0.3,0.2l-0.3,0.2L1311,68c-0.4,0.3-0.8,0.5-1.2,0.7c-2.4,1.6-4.7,3.5-6.9,5.7c-0.9,0.9-2.1,2.2-3,3.4l-0.6,0.7l-0.6,0.7
			c-0.1,0.1-0.1,0.3-0.2,0.4l-0.2,0.3l-0.1,0.1l-0.1,0.2v0.1c-0.4,0.5-0.8,1.1-1.1,1.6l-2.2,3.9c-0.2,0.4-0.6,1-0.7,1.4v0.1v0.1v0.1
			l-0.2,0.4v0.1l-0.2,0.4l-0.2,0.4v0.1v0.1l-0.1,0.3c-0.3,0.6-0.6,1.2-0.8,1.7l-0.7,1.6l-0.7,1.6c-0.4,1.3-1.1,2.9-1.9,4.5
			c-0.8,1.6-1.8,3.6-3,5.6l-0.6,1l-0.1,0.1c-0.4,0.6-0.8,1.3-1.2,2c-0.2,0.4-0.6,0.9-0.9,1.3c-0.1,0.2-0.2,0.3-0.3,0.4v0.1v0.1v0.1
			c-0.1,0.3-0.3,0.4-0.4,0.7l-0.2,0.4v0.1c-0.4,0.9-0.8,1.6-1.1,2.4c-0.3,0.8-0.7,1.7-0.9,2.6c-0.3,1.2-0.7,2.2-1.1,3.4l-0.6,1.3
			h0.2l-0.1,0.1c-0.4,1.3-0.9,2.7-1.5,4.3l-0.1,0.3c-0.1,0.3-0.2,0.4-0.2,0.7l-0.1,0.3v0.1v0.1c-0.2,0.7-0.4,1.3-0.8,1.9l-0.8,1.6
			l-0.7,1.6c-0.8,1.7-1.9,3.3-3.3,4.8c-1.1,1.3-2.4,2.4-3.5,3.6l-2.6,2.6l-1.8,1.8l-1.1,1.3l-1.7,1.8c-0.4,0.5-0.9,1.1-1.2,1.5v0.1
			v0.1l-0.3,0.4c-1.5,1.8-2.8,3.7-4.3,5.5c-0.7,0.8-1.5,1.7-2.4,2.5c-0.7,0.6-1.3,1.2-2,1.7l-0.6,0.4l-0.6,0.4
			c-0.9,0.6-2.4,1.2-3.5,1.5l-0.9,0.4c-0.6,0.2-1.1,0.4-1.7,0.6c-1,0.4-2,0.7-3.1,1.1l-1,0.4l-1,0.4c-1.6,0.4-3.3,0.9-5,1.3
			l-0.9,0.2l-1.6,0.4c-1.3,0.3-2.6,0.4-3.9,0.6l-1,0.2l-1,0.2c-1.2,0.2-2.7,0.3-4.3,0.4l-1.3,0.1c-3.9,0.2-7.4,0.2-10.1,0.2h-1.7
			c-2.2,0-4.6,0-7.2-0.1h-0.2c-1.2,0-2.5,0-3.7,0h-2.2h-2.4c-2.8,0-5.7-0.1-8.5-0.1h-1c-1.8,0-3.6,0-5.2-0.1c-0.3,0-0.7,0-1,0
			c-0.7,0-1.3,0-2.1-0.1l-1.7-0.1l-1.7-0.1c-1.8-0.1-3.6-0.2-5.3-0.3h-0.4h-0.3h-0.3l-1.3-0.1c-4.7-0.3-8.5-0.5-12-1
			c-4.7-0.5-9.5-1.2-14.7-2l-2-0.3h-0.1c-1.8-0.3-3.3-0.4-4.8-0.7l-1.1-0.2l-0.9-0.2c-1.8-0.3-3.4-0.5-4.9-0.8
			c-1.6-0.3-3.5-0.6-5.4-1.2c-1-0.3-2-0.5-3-0.8c-1.5-0.4-3.3-0.8-5.4-1.4c-2.2-0.6-4.5-1.3-6.4-1.8c-2-0.6-3.4-1.1-4.7-1.5
			l-1.7-0.6l-1.7-0.6l-0.3-0.2c-0.3-0.2-0.7-0.3-1-0.4l-1.5-0.6l-1.5-0.6c-0.2-0.1-0.3-0.2-0.6-0.3c-0.6-0.3-1.1-0.4-1.6-0.6
			l-0.9-0.4l-0.1-0.1l-0.1-0.1l-0.1-0.1c-1.9-0.8-5-2.3-8-3.7c-2.2-1.1-4.5-2.2-6.7-3.3l-1.1-0.5c-2.7-1.3-5.5-2.7-8.9-4.2l-0.6-0.3
			l-0.8-0.4c-0.9-0.4-1.9-0.9-2.8-1.3l-0.8-0.4c-0.4-0.3-1-0.4-1.5-0.7c-0.7-0.4-1.5-0.6-2.4-1.1l-1.6-0.5c-1.3-0.4-2.9-0.8-4.5-1.2
			l-1.5-0.4c-0.8-0.2-1.6-0.3-2.2-0.3l-1.2-0.1h-0.1c-3-0.2-6.4-0.2-9.9-0.2h-2.8h-2.8c-2.5,0-5,0.1-7.1,0.2h-0.2h-0.1
			c-2.8,0.2-5.8,0.4-8.5,0.6h-0.2l-0.3,0.1l-2.2,0.2c-2.1,0.2-4,0.3-6.2,0.4c-4.1,0.3-9,0.4-11,0.4h-0.1h-0.4h-0.3l-2.6,0.1
			c-1.1,0.1-2.4,0.1-3.5,0.1c-0.9,0-1.7,0.1-2.4,0.1c-0.8,0-1.7,0-2.8-0.1s-2.2-0.2-3.4-0.2l-0.2-0.1l-0.3-0.1
			c-0.6-0.1-1.2-0.2-1.9-0.3c-1.5-0.2-2.7-0.5-3.8-0.9l-0.3-0.1l-0.3-0.1c-0.6-0.2-1.2-0.4-1.8-0.6c-3.1-1.3-5.7-3-7.8-4.4
			c-0.9-0.5-1.7-1.2-2.5-1.7v-0.7v-0.3c0.3-2,0.7-3.7,1.1-5.4c0.2-0.7,0.4-1.5,0.9-2.5c0.2-0.5,0.4-1.2,0.6-1.7
			c0.1-0.3,0.2-0.5,0.2-0.9c0.2-0.7,0.6-1.4,0.8-2.2l0.1-0.4c0.3-0.7,0.4-1.4,0.7-2.2l0.1-0.4c0.3-1.1,0.4-1.9,0.6-2.7
			c0.1-0.7,0.1-1.5,0-2.3v-0.4c0-1-0.2-2-0.6-3c-0.4-1.2-1.5-2.3-3-3.4l-0.1-0.1c-0.6-0.4-1.2-0.7-2-1.1c-1-0.4-1.9-0.7-2.8-1
			c-1.6-0.4-3.3-0.9-4.9-1.3c-1.1-0.3-2.1-0.4-3.3-0.6c-1.2-0.2-2.6-0.3-3.9-0.4c-0.7-0.1-1.3-0.1-2-0.1c-1.2,0-2.6,0.1-4.1,0.2
			c-1,0.1-2.1,0.3-3.1,0.4L931,93c-0.9,0.2-1.8,0.4-2.8,0.5c-0.9,0.2-1.8,0.4-2.7,0.7l-0.4,0.1H925h-0.1l-0.4,0.1l0.6,0.1
			c-0.9,0.2-1.9,0.4-2.9,0.6l-0.1,0.1l-1,0.3l-0.1,0.1l-0.1,0.1c-0.9,0.4-1.8,0.6-2.7,0.9c-0.2,0.1-0.4,0.2-0.7,0.3
			c-0.4,0.2-0.9,0.4-1.3,0.5c-1,0.4-2,0.8-3.8,1.7l0.7-0.2l-0.4,0.2l-0.2,0.2l-0.2,0.1c-0.7,0.4-1.2,0.7-1.7,1.1l-0.1,0.1l-0.1,0.1
			c-0.9,0.6-1.7,1.3-2.5,1.8l-0.2,0.2c-0.8,0.5-1.3,1.2-2,1.7c-0.6,0.4-1,1-1.5,1.4c-0.7,0.7-1.3,1.5-1.9,2.2
			c-0.3,0.4-0.6,0.7-0.8,1.1l-0.1,0.1v0.1l-0.1,0.2v0.1l-0.1,0.2c-0.1,0.2-0.2,0.3-0.2,0.4c-0.3,0.4-0.6,0.9-1.1,1.7l-0.1,0.1
			c-0.3,0.6-0.7,1.3-0.8,1.6v0.1c-0.2,1.1-0.6,2.4-0.6,3.6c0,0.3,0,0.5,0,0.7v0.3c0,0.6,0,1.3-0.1,1.8c0,0.7-0.1,1.5-0.4,2.3
			c-0.1,0.5-0.4,1.2-0.8,1.6l-0.1,0.3l-0.1,0.1c-0.2,0.4-0.9,1.2-1.6,1.9c-0.4,0.5-1.1,1.2-1.8,1.6c-0.7,0.4-1.3,0.7-1.9,1.2l-1,0.4
			l-1,0.4c-1,0.4-2,0.6-3,0.9l-0.3,0.1c-1.9,0.4-3.9,0.9-6.1,1.3c-1.3,0.3-2.8,0.4-4.4,0.5l-0.7,0.1l-0.7,0.1
			c-0.9,0.1-1.9,0.1-3,0.1H871c-5.6-0.2-10.6-0.6-15.1-1.5c-1-0.2-2.1-0.4-3.3-0.7l-2.6-0.7c-1-0.4-1.9-0.6-2.7-0.9
			c-1.1-0.4-2.2-0.9-3.3-1.3c-2.2-1-4.3-2-5.9-3l-0.7-0.4c-1.3-0.8-3-1.7-4-2.7c-3.3-2.9-5.4-5.3-6.8-7.5l-0.2-0.4
			c-0.1-0.3-0.3-0.4-0.4-0.7c-0.4-0.6-0.7-1.3-0.9-2c-0.2-0.9-0.2-1.8-0.2-2.5c0.1-1.3,0.4-2.5,0.8-3.8l0.2-0.6
			c0.2-0.8,0.7-2.2,0.8-3.3c0.1-0.6,0.2-1.3,0.3-2v-0.2l0.1-1c0-0.4,0.1-0.6,0.1-0.9c0.2-1.1,0.3-2,0.3-2.9c0-0.5,0-1.3,0-2.1
			c0-0.4-0.1-0.8-0.1-1.2v-0.2c-0.4-1.4-0.9-2.8-1.3-4c-0.6-1.4-0.9-2.6-1.2-3.8c-0.3-1.3-0.2-2.8,0-4.3c0.1-0.4,0.2-0.7,0.3-1.2
			v-0.2c0.1-0.4,0.2-0.9,0.3-1.3c0.1-0.7,0.2-1.6,0.1-2.5l-0.1-0.2l-0.1-0.2c-0.2-0.4-0.4-0.8-0.8-1.3c-0.3-0.3-0.7-0.6-1.2-1
			l-0.4-0.3l-0.3-0.3c-0.6-0.3-1.2-0.5-1.8-0.7c-0.7-0.2-1.8-0.5-2.9-0.8c-1-0.3-2.1-0.5-3.4-0.7l-1-0.1l-0.6-0.1h-0.3h-0.3
			c-0.8,0.1-1.6,0.2-2.6,0.3c-1.5,0.3-2.8,0.6-4.3,1.1c-1.1,0.4-2.2,0.7-3.3,1.2l-0.2,0.1c-1.1,0.4-2.2,0.8-3.4,1.3
			c-2.1,0.7-4,1.3-6.2,2.1l-1.5,0.4l-0.1,0.1l-0.1,0.1l-0.1,0.1c-1.9,0.6-4.3,1.4-6.7,2.2c-0.4,0.2-0.9,0.3-1.6,0.4l-0.1,0.1
			l-0.2,0.1l-0.2,0.1c-0.7,0.2-1.5,0.4-2.2,0.6c-1.2,0.4-2.5,0.6-3.7,0.9c-1,0.2-2,0.4-3,0.5c-1.6,0.3-2.8,0.4-4.4,0.5
			c-0.7,0.1-1.3,0.1-1.9,0.1h-0.1h-0.6c-0.4,0-1.5-0.1-2.2-0.2s-1.2-0.2-1.8-0.3c-2.5-0.4-4.4-1.3-5.4-2.5c-0.3-0.4-0.6-0.8-0.7-1.3
			c-0.1-0.3-0.2-0.6-0.2-0.9v-0.4v-0.7c0-0.8,0-1.4-0.1-2.1c-0.6-1.5-1.5-3.1-2.2-4.2l-0.4-0.7l-1-0.2l-0.1-0.2l-0.1-0.2V66
			c-0.8-1.3-1.9-3-2.8-4.7c0-0.3,0-0.5,0-0.8c-0.1-1.1-0.2-2.2-0.4-3.1l-0.1-0.5c-0.1-0.6-0.2-1.3-0.4-2c-0.6-1.8-1.1-3.5-1.6-5.2
			c-0.2-0.7-0.6-1.6-1.1-2.5c-0.2-0.4-0.7-0.9-1.2-1.5c-0.3-0.4-0.7-0.7-1.1-1.1c-0.8-0.5-1.8-1.2-3.3-1.7c-1.1-0.4-2.6-0.6-4.3-0.8
			c-1.3-0.2-2.4-0.2-3.3-0.2c-0.2,0-0.3,0-0.6,0s-0.7,0-1,0c-1.3-0.2-2.8-0.4-4.3-0.4c-0.6-0.1-1-0.1-1.5-0.1
			c-1.8,0-3.8,0.2-5.8,0.4c-3.5,0.5-6.4,1.8-8.4,3.7c-1.9,1.8-2.9,3.7-3.7,5.6v0.1l-0.1,0.4c-0.3,0.5-0.7,1.1-1,1.7
			c-0.1,0.2-0.2,0.4-0.2,0.5c-0.2,0.4-0.4,0.7-0.6,1.1c-0.4,0.8-0.9,1.5-1.2,2.3v0.1l-0.2,0.4c-0.6,1.2-1.1,2.2-2,4l-0.2,0.5
			c-1.1,2.5-2.6,5.3-4.6,8.7c-1,1.7-1.9,3.4-2.8,5l-0.4,0.8v0.1l-0.1,0.2c-0.6,1.1-1.2,2.2-1.8,3.4c-0.8,1.6-1.5,3.1-2,4.8l-0.4,1.2
			c-0.4,1.2-0.9,2.3-1.3,3.6l-0.3,0.9l-0.1,0.2v0.1c-0.3,0.8-0.9,2.6-1.8,4.2c-0.9,1.7-1.8,3.4-2.7,5c-0.8,1.3-1.7,2.8-2.6,3.9
			l-0.1,0.2l-0.7,1.1c-0.4,0.7-1,1.4-1.6,2l-0.1,0.1l-0.1,0.1v0.1l-0.1,0.1v0.1v0.1l-0.1,0.2l-0.1,0.2l-0.1,0.2l-0.1,0.2
			c-0.3,0.4-0.7,0.8-0.9,1.2c-0.6,0.7-1.2,1.7-1.8,2.6l-0.3,0.6v0.1v0.1l-0.1,0.1v0.1c-0.2,0.4-0.8,1.3-1.2,1.9l-0.1,0.1
			c-1,1.3-2.1,2.8-4.3,3.9c-0.6,0.4-1.2,0.6-2,0.9l-0.7,0.3l-0.4,0.2c-0.9,0.2-1.7,0.4-2.5,0.4c-0.9,0.2-1.9,0.3-3,0.4l-1.2,0.1
			h-0.1c-0.3,0-0.7,0-1,0c-1,0-2.1-0.1-3.3-0.2l-0.8-0.1l-0.6-0.1c-0.2-0.1-0.4-0.1-0.8-0.1l-0.3-0.1c-1.2-0.2-2.7-0.4-3.7-0.8
			c-0.2-0.1-0.3-0.2-0.6-0.2c-1-1.5-1.7-2.9-2.6-4.7c-0.6-1.2-1.1-2.2-1.8-3.4c-0.7-1.3-1.6-2.5-2.5-3.7c-0.6-0.6-1.2-1.3-1.8-1.9
			l-0.1-0.1c-0.4-0.4-0.9-0.8-1.3-1.3c-0.4-0.4-0.9-0.9-1.3-1.4c-0.6-0.6-1.3-1.3-2.5-1.8c-1-0.6-2.4-1.2-3.9-1.6
			c-0.9-0.3-2.1-0.5-3.6-0.7c-1.1-0.2-2.4-0.3-3.7-0.3c-0.9,0-1.9,0.1-2.8,0.1c-2.1,0.2-3.9,0.6-5.5,1.1c-0.7,0.2-1.1,0.4-1.6,0.7
			c-0.1,0.1-0.3,0.2-0.4,0.3c-0.2,0.2-0.4,0.3-0.7,0.4l-0.1,0.1c-0.8,0.5-1.5,1.2-2.2,1.9c-1,0.9-1.6,1.8-2.1,2.7
			c-0.6,1-1.1,2-1.7,2.9c-0.7,1.3-1.2,2.5-1.8,3.7c-0.2,0.5-0.4,1.1-0.7,1.5v0.1c-0.2,0.4-0.3,0.9-0.6,1.3c-0.3,0.6-0.6,1.2-0.9,1.8
			l-0.1,0.1v0.1l-0.6,0.9v0.1c-0.7,1.3-1.3,2.5-2,3.8c-0.4,0.7-0.9,1.4-1.2,2.2c-0.6,0.8-1.1,1.7-1.6,2.6l-1.5-0.3l-0.3,0.5
			c-1,0.9-1.9,1.7-2.8,2.4c-1.3,1.2-3,2.2-4.5,3.2c-1.3,0.9-2.8,1.8-4.5,2.7l-2,0.9c-1.7,0.7-3.3,1.5-4.9,2.2l-0.3,0.2l-0.3,0.2
			h-0.2h-0.2h-0.2h-0.1c-0.7,0.1-1.2,0.1-1.9,0.2c-2.4,0.2-4.4,0.3-6.5,0.3c-2.5,0.1-4.5,0.1-6.1,0.1c-3.1,0-6.2-0.1-9.2-0.2
			c-2-0.1-4.1-0.2-6.2-0.3h-0.1h-0.6h-0.1l-1.2-0.1l-1.2-0.1c-1.8-0.1-3.7-0.1-6.1-0.1c-0.9,0-1.7,0-2.6,0h-0.6c-0.8,0-1.7,0-2.5,0
			s-1.5,0-2.2,0c-1.3-0.1-2.7-0.1-4.1-0.1c-3.9-0.2-7.5-0.4-10.8-0.5c-1.9-0.1-4.4-0.3-7.4-0.5l-0.9-0.1l-2.1-0.2l-2.1-0.2
			c-2.7-0.2-5.5-0.4-8.2-0.5l-2.8-0.2c-2.2-0.2-4.5-0.4-6.7-0.4l-1-0.1c-2.4-0.2-4.3-0.4-6.3-0.4c-4.9-0.3-9.6-0.4-14.1-0.4
			c-5-0.1-10.5-0.2-14.9-0.2h-0.2h-0.2h-0.1h-0.2h-0.1h-0.1h-0.1h-0.8c-2.6-0.1-5-0.1-7.6-0.1h-0.7h-0.8h-1.8c-1.5,0-2.9,0-4.4-0.1
			c-2.7-0.1-5.5-0.2-8.5-0.4c-3.3-0.2-6.5-0.4-9.8-0.5c-2.1-0.1-4.4-0.2-6.9-0.3l-0.9-0.1c-3.9-0.1-8-0.2-11.7-0.8
			c-2.4-0.4-4.5-0.8-6.4-1.3c-2.1-0.4-4-1.1-5.8-1.5l-0.2-0.1l-0.6-0.2l-0.9-0.3l-0.3-0.1l-0.2-0.1l-0.3-0.1
			c-1.3-0.4-3.3-0.9-4.9-1.3l-0.2-0.1c-2.1-0.5-4.4-1.1-6.5-1.6l-0.3-0.1l-0.4-0.1l-0.4-0.2l-0.3-0.1c-1.3-0.4-2.9-0.7-4.5-1.2
			l-0.6-0.2c-0.8-0.2-1.5-0.4-2.2-0.6l-0.9-0.3l-1-0.3c-1-0.3-2-0.5-3.3-0.7c-0.6-0.1-1.1-0.2-2.5-0.4l0.4,0.2l-0.2-0.1H348
			c-0.7,0-1.3,0-2,0.1c-2,0.2-4,0.3-6.3,0.4l-0.9,0.1h-0.2c-2.2,0.2-5.3,0.4-8,0.8c-1.9,0.4-3.5,0.6-4.7,0.9
			c-0.9,0.3-1.9,0.4-2.8,0.6l-0.1,0.1l-0.1,0.1l-0.2,0.1l-0.2,0.1l-0.1,0.1c-0.8,0.3-1.7,0.4-2.5,0.6c-3.3,0.8-7.1,1.7-11.4,2.5
			c-3.9,0.7-8.1,1.4-12.2,2c-0.4,0.1-0.9,0.2-1.5,0.3c-0.9,0.2-2.2,0.4-3.5,0.4c-0.8,0.2-1.7,0.2-2.7,0.3l-1,0.1l-1,0.1
			c-1.7,0-3.4-0.1-4.9-0.3c-0.9-0.1-1.7-0.2-2.4-0.4c-0.4-0.1-0.9-0.2-1.3-0.3c-0.8-0.2-1.6-0.4-2.4-0.6c-0.7-0.3-1.3-0.4-2-0.7
			l-0.2-0.2c-0.7-0.4-1.6-0.8-2.2-1.3c-1.2-0.9-2.1-1.6-2.7-2.3c-0.3-0.4-0.7-0.8-0.9-1.2l-0.1-0.2c-0.2-0.3-0.3-0.5-0.6-0.7
			c-0.3-0.4-0.7-0.8-1-1.2l-0.1-0.1V123l-0.2-0.2l-0.1-0.2l-0.1-0.2l-0.2-0.2v-0.1l-0.1-0.2v-0.1c-0.6-0.7-1.3-1.5-1.8-2.3l-0.2-0.4
			c-0.3-0.5-0.6-0.8-0.7-1.2l-0.2-0.5l-0.3-0.7c-0.3-0.8-0.8-1.6-1.3-2.5l-0.2-0.4c-0.2-0.4-0.4-0.8-0.8-1.2l-0.6-0.6l-0.3-0.4
			l-0.3-0.3c-0.3-0.4-0.8-0.7-1.1-1.1c-0.6-0.4-1.1-1-1.8-1.4l-0.6-0.4l-0.4-0.3c-0.6-0.3-1.1-0.5-1.7-0.7c-0.2-0.1-0.6-0.2-0.9-0.3
			c-0.3-0.1-0.7-0.1-0.9-0.1h-0.4h-0.3c-0.2,0-0.6,0.1-0.8,0.1c-0.6,0.1-1,0.3-1.3,0.4c-0.7,0.3-1.2,0.4-1.8,0.7
			c-1.2,0.7-2.2,1.4-3.1,2.1c-0.9,0.7-1.7,1.4-2.2,1.9c-0.4,0.4-1,0.9-1.5,1.3l-0.1,0.2l-0.1,0.1c-0.8,0.7-1.6,1.4-2.4,2.2
			c-3.4,2.8-6.6,5.2-10.1,7.3c-1.3,0.8-2.5,1.4-3.7,2.1c-0.2,0.1-0.4,0.2-0.6,0.4l-0.1,0.1l-0.3,0.2c-0.9,0.5-1.7,0.9-2.5,1.3
			c-0.9,0.4-1.9,0.8-3,1.2l-0.1,0.1l-0.4,0.2l-1.7,0.5l-0.2,0.1l-0.2,0.1c-0.9,0.3-2.1,0.6-3.3,0.9l-0.7,0.2c-1.7,0.4-3.1,0.8-5,1.1
			c-1,0.2-2.1,0.4-3.4,0.4h-0.4l-0.6,0.1c-0.7,0.1-1.2,0.1-1.9,0.1c-0.6,0-1.2,0-2-0.1s-1.5-0.1-2.4-0.2s-1.8-0.3-2.7-0.4
			c-0.8-0.2-1.7-0.3-2.5-0.4c-1-0.3-2.4-0.5-3.5-1.1c-0.9-0.3-1.7-0.6-2.5-1.1c-0.6-0.3-1.1-0.5-1.7-1l-0.4-0.3l-0.2-0.1
			c-0.4-0.7-0.9-1.6-1.3-2.6c-0.8-1.7-1.3-3.4-1.7-5.3c-0.3-1.8-0.7-3.5-1-5.3c-0.2-1.2-0.4-2.3-0.8-3.4v-0.2v-0.7v-0.2
			c-0.1-0.5-0.2-1.2-0.4-1.6c-0.2-0.8-0.3-1.6-0.4-2.4c-0.2-1.1-0.4-2.2-0.8-3.3c-0.1-0.5-0.3-1.1-0.6-1.6c-0.1-0.4-0.2-0.7-0.4-1.1
			c-0.3-1.1-0.6-1.8-0.8-2.6s-0.4-1.7-0.7-2.6v-0.2l-0.1-0.4c-0.2-0.8-0.3-1.6-0.6-2.4c-0.2-0.7-0.4-1.5-0.7-2.3v-0.1v-0.1
			c-0.3-0.9-0.7-1.9-0.9-2.9c-0.1-0.5-0.2-1.1-0.2-1.5c-0.1-1.2-0.2-2.2-0.3-3.3c-0.2-2.5-0.6-5.3-1.1-8c-0.2-0.7-0.3-1.5-0.4-2.3
			c-0.2-0.9-0.4-2.1-0.8-3.2c-0.3-1.4-0.9-3.6-1.8-5.7c-0.3-0.9-0.8-1.8-1.1-2.7c-0.4-0.9-0.8-1.9-1-2.8c-0.6-1.8-1.5-3.6-2.2-5.3
			c-0.9-1.9-1.8-3.7-2.6-5.7l-0.1-0.4c-0.3-0.7-0.6-1.5-1.1-2.2c-0.7-0.9-1.5-1.9-2.7-2.8s-2.7-1.7-3.9-2.5c-1.9-1.1-4-1.9-6.2-2.4
			c-2.4-0.5-4.9-0.9-7.8-1c-0.6-0.1-1.1-0.1-1.8-0.1c-0.8,0-1.6,0-2.5,0.1H132h-0.1h-0.6c-3.5,0.1-7.1,0.2-10.1,0.9
			c-2.4,0.5-4.5,1.5-6.3,2.9c-1.1,0.8-2.1,1.7-3.3,2.8l-0.1,0.1c-0.9,0.8-1.6,1.5-2.1,2.3c-0.8,1.1-1.2,2.2-1.7,3.2
			c-0.7,1.6-0.8,3.3-1,4.9V52c-0.1,1.6-0.3,3.3-0.6,4.9l-0.1,0.8c-0.4,3.8-1,7.4-1.6,11.4c-0.7,4.5-1.2,7.9-1.6,11.1
			c-0.2,1.9-0.4,3.9-0.6,6c0,0.4,0,0.9-0.1,1.3V88c0,0.4,0,0.6,0,1c0,0.8-0.1,1.6-0.3,2.7c-0.7,3.9-1.3,7.9-2,11.8
			c-0.2,1.1-0.3,2.1-0.6,3.1c-0.2,0.8-0.4,1.4-0.7,2.2c-0.1,0.7-0.2,1.4-0.3,2.1v0.2v0.1l-0.1,0.7c-0.3,2-0.7,4.2-1.5,6.3
			c-0.4,1.1-1.1,2.2-1.6,3.1v0.1c-0.7,1.2-1.2,2.2-1.9,3c-0.7,0.9-1.3,1.9-2.2,2.9c-0.9,1.1-2,2.2-3.4,3.4c-0.6,0.4-1.1,1-1.7,1.4
			l-0.1,0.1l-0.2,0.2l-0.2,0.2c-0.3,0.4-0.8,0.6-1.1,1c-1,0.8-2.1,1.8-3.4,2.8l-0.4,0.4l-0.1,0.1c-2.5,1.8-4.8,3.6-7.6,5.4
			c-3.4,2.2-6.7,3.9-10.1,5.4c-2,0.9-4.4,1.6-6.3,2.2c-2.4,0.7-4.3,1.3-6.2,1.6c-3,0.6-5.4,1.1-7.8,1.4l-0.3,0.1
			c-1.2,0.2-2.7,0.4-4.1,0.5c-1.2,0.1-2.6,0.2-3.8,0.3l-0.7,0.1c-1,0.1-2,0.2-3,0.2h-0.2c-1.3,0.1-2.9,0.2-4.5,0.2
			c-0.6,0-1.1,0-1.6-0.1c-1.5-0.1-3-0.2-4.3-0.3l-0.4-0.1h-0.3h-1.2c-1-0.1-2-0.2-3.1-0.3c-1.5-0.1-3.6-0.2-5.5-0.4
			c-2.4-0.6-4.8-1.2-6.8-1.6c-1.7-0.4-3.1-0.8-4.5-1.3l-0.1,0.1v59.2c0.1-0.3,0.3-0.5,0.4-0.8l0.4-0.7c0.4-0.6,0.9-1.4,1.2-2.2
			c0.1-0.4,0.9-0.6,1.7-0.8c0.4-0.1,1-0.2,1.7-0.2c0.3,0,0.7,0,1,0.1c1.5,0.2,2.6,0.8,2.4,1.4c-0.2,0.9-0.8,1.7-1.2,2.6L5.3,209
			c-0.3,0.5-0.7,1.1-1.1,1.6c-0.2,0.3-0.4,0.5-0.7,0.8c-0.3,0.4-0.7,0.8-0.9,1.3c-0.4,0.7-0.9,1.4-1.3,2.2c-0.6,1-1.1,2-1.7,3v0.2
			v0.2c0.1,0.6,0.2,1.3,0.2,1.8l-1.1,0.2l-0.3,0.1c-0.1,0.3-0.2,0.5-0.4,0.8v0.1v1.1l1.2-0.2l0.3-0.1c0.2-0.1,0.4-0.1,0.7-0.1l0,0
			l0,0l0,0l0,0c0,0.1,0,0.3,0,0.4v0.1l3.1-1.4l3.1-1.4l0.3-0.2c1.1-0.5,2.2-1.1,3.5-1.6c0.7-0.3,1.3-0.6,2-0.9
			c1.2-0.5,2.5-1.1,3.7-1.6l1.7-0.7l3.4-2c1.5-0.6,2.9-1.3,4.5-1.8L27,210l1.5-0.6c0.8-0.4,1.7-0.6,2.6-1l2.2-0.8l0.9-0.3
			c1.6-0.5,3.4-1.1,4.9-1.5c0.9-0.3,1.8-0.4,2.7-0.7l0.9-0.3c1.6-0.4,3.1-0.8,4.7-1.3l1.6-0.4c1.8-0.4,3.7-0.9,5.6-1.4l1.5-0.4
			c1.8-0.4,3.6-0.9,5.4-1.4l2.2-0.6c2.9-0.8,6.1-1.6,9.1-2.3c0.6-0.2,1.1-0.3,1.8-0.4c1.7-0.4,3.5-0.9,5.3-1.3l4.3-0.9
			c0.2-0.1,0.6-0.2,0.8-0.2c0.6-0.2,1.1-0.3,1.7-0.4l1.6-0.3l1.8-0.4c0.3-0.1,0.8-0.2,1.1-0.3c0.8-0.2,1.5-0.3,2.2-0.4
			c0.6-0.1,1.1-0.2,1.7-0.3c1.2-0.2,2.5-0.4,3.6-0.6l0.8-0.1c2-0.3,4-0.6,6.1-0.8c1.5-0.2,3.5-0.4,5.6-0.6c3.6-0.4,7.2-0.7,10.6-1.1
			l3-0.4c1.3-0.2,2.8-0.3,4.3-0.4c3.1-0.4,6.4-0.6,9.5-1c1.3-0.2,2.7-0.3,4-0.4c3.3-0.4,6.6-0.7,10-1.1l11.1-1.2
			c1.8-0.2,3.3-0.4,4.7-0.4h0.1c3.4-0.3,6.8-0.6,10.3-0.7l1.8-0.1c1.9-0.1,3.9-0.2,5.7-0.3c1,0,2-0.1,2.9-0.1h0.1
			c0.8,0,1.5-0.1,2.2-0.1c1.7-0.1,3.4-0.1,5-0.1c6.1-0.1,12.2-0.1,17.5-0.1c1.3,0,2.8-0.1,4.1-0.1c0.6,0,1.1-0.1,1.7-0.1l3.6-0.1
			l3.6-0.1l9.5-0.4c0.7-0.1,1.3-0.1,2.1-0.1c1.8-0.1,3.6-0.2,5.4-0.3l5.4-0.4c4.4-0.3,8.7-0.5,13.1-0.8c3.6-0.3,7.2-0.4,10.9-0.6
			l1.8-0.1l1.7-0.1l1.7-0.1c0.6-0.1,1.1-0.1,1.8-0.1l0.8-0.1l3.6-0.2l9.4-0.4c1.6-0.1,3.4-0.2,5.2-0.2l4.6-0.1
			c5-0.1,10.2-0.3,15.2-0.4l7.1-0.2l6.5-0.1c1.6-0.1,3.1-0.1,4.8-0.1l6.5-0.2l6.5-0.2c0.7,0,1.2-0.1,1.9-0.1
			c1.3-0.1,2.8-0.1,4.3-0.1c6.2-0.3,12.3-0.4,18.5-0.7c4.8-0.3,9.6-0.5,14.5-0.7c0.4-0.1,1-0.1,1.5-0.1c1-0.1,2-0.1,2.9-0.2l1.8-0.1
			l2.1-0.2l2.1-0.2l14.3-0.9c2.5-0.2,5-0.4,7.5-0.5l1-0.1c5.3-0.4,10.5-0.8,15.8-1.3c2.4-0.2,4.8-0.4,7.1-0.6c1-0.1,2-0.2,3-0.3
			c8.7-0.7,17.5-1.5,26.1-2.3c9-0.8,18-1.5,26.9-2.2c6.7-0.5,13.8-1.2,20.6-1.7c4.9-0.4,10-0.8,14.9-1.3c2.7-0.3,5.5-0.4,8.1-0.7
			c1.2-0.1,2.5-0.3,3.8-0.4c8.3-0.7,16.5-1.5,24.8-2.3l0.3-0.1c3.6-0.4,7.1-0.6,10.6-1l4.5-0.4c0.6-0.1,1-0.1,1.5-0.2
			c1.1-0.1,2.2-0.3,3.5-0.4l3.6-0.3l4.4-0.4l3.1-0.3l3.1-0.3l0.7-0.1c0.4-0.1,0.9-0.1,1.2-0.1l3.9-0.3l3.8-0.3
			c1.6-0.1,3.1-0.2,4.7-0.3h0.3c0.4-0.1,0.8-0.1,1.2-0.1l2.9-0.2l6.3-0.3l1.3-0.1c1.6-0.1,3.1-0.2,4.7-0.2c3.4-0.1,6.7-0.2,10.1-0.3
			c3.6-0.1,7.2-0.2,10.6-0.3l3.7-0.1c1-0.1,2.1-0.1,3.3-0.1c1.5,0,2.9-0.1,4.4-0.1c0.4,0,1,0,1.5,0c2.9,0.1,6.2,0.1,9.3,0.2l1.6,0.1
			c1.7,0.1,3.5,0.2,5.2,0.3l1.8,0.2l1.8,0.2l4.4,0.3l4.4,0.3c1.3,0.1,2.8,0.3,4.1,0.4l1.2,0.1l3,0.3l3.8,0.4h0.2
			c0.4,0.1,0.9,0.1,1.3,0.2l3.9,0.4l4.8,0.5l0.8,0.1c1.5,0.2,2.8,0.3,4.3,0.4l2.1,0.3l7.6,0.9c2.2,0.3,4.5,0.5,6.6,0.8l2.6,0.4
			l2.6,0.4c0.2,0.1,0.6,0.1,0.9,0.1c0.6,0.1,1.1,0.2,1.7,0.3l3.9,0.6l2.8,0.4l2.7,0.4l1.9,0.3c0.2,0.1,0.4,0.1,0.7,0.1
			c0.4,0.1,0.9,0.2,1.3,0.3l1.1,0.2l7.1,1.3c0.7,0.2,1.5,0.3,2.1,0.4c1.5,0.3,2.9,0.5,4.4,0.8l13.8,2.6c2.6,0.4,5,1,7.5,1.5
			c2.1,0.4,4.3,0.8,6.4,1.3l0.6,0.1l12.4,2.4c1.3,0.3,2.7,0.4,4.1,0.7c3.7,0.6,7.5,1.3,11.3,1.9l4.9,0.7l4.9,0.7
			c0.7,0.1,1.3,0.2,2,0.3l0.8,0.1l5,0.6l5.4,0.7c0.6,0.1,1.2,0.2,1.8,0.2l0.8,0.1l5.5,0.5l5.5,0.5c1.7,0.2,3.4,0.3,4.9,0.4
			c0.6,0.1,1.1,0.1,1.7,0.2l4.6,0.4l4.4,0.4l3.3,0.3c4.7,0.3,9.4,0.6,14,0.9l3.1,0.2c4.7,0.3,9.5,0.6,14.3,0.9
			c2.2,0.2,4.4,0.4,6.6,0.4c0.4,0.1,0.9,0.1,1.2,0.1c0.8,0.1,1.6,0.1,2.4,0.2c3.4,0.3,6.8,0.5,10.2,0.8c4,0.4,8.1,0.6,12,0.9
			l3.9,0.3l6.5,0.4l6.5,0.4c0.3,0,0.7,0.1,1,0.1c0.8,0.1,1.7,0.1,2.5,0.2l3.3,0.1l3.3,0.1l8.3,0.3c0.9,0.1,2,0.1,3,0.1l7.5,0.1
			l7.5,0.1c0.2,0,0.4,0,0.7,0c0.7,0,1.3,0,1.9,0c0.4,0,0.8,0,1.2,0l4.4-0.1l4.4-0.1c0.3,0,0.8,0,1.1,0c0.9,0,1.8,0,2.7-0.1
			c2.1-0.1,4.1-0.1,6.3-0.2l1.6-0.1c8-0.3,16-0.4,24-0.7c2.9-0.1,5.8-0.2,8.6-0.3l4-0.2c3-0.1,5.9-0.2,9-0.3l2.2-0.1
			c3.9-0.1,7.8-0.2,11.8-0.3c1,0,2-0.1,3-0.1c2.5-0.1,4.9-0.1,7.5-0.2c3.6-0.1,7.8-0.1,12.1-0.1c3.9,0,8,0,11.9-0.1
			c10-0.1,19.7-0.2,27.1-0.2c3.6-0.1,7.1-0.1,10.6-0.1c1.8,0,3.6,0,5.3-0.1c3.6,0,7.3,0,10.8,0h2.4h4.8c3.3,0,6.5,0,9.8,0h3.6
			c1.5,0,2.9,0,4.4,0c1.9,0,3.7,0,5.6,0c1.8,0,3.6,0,5.4,0.1c3.5,0,7.2,0.1,10.8,0.1l8.6,0.1l8.6,0.1c3.7,0.1,7.4,0.1,11,0.2l4,0.1
			l2.1,0.1l2.1,0.1h0.6c0.4,0,0.8,0,1.2,0c1.9,0.1,3.8,0.1,5.6,0.2l12,0.4c0.4,0,0.9,0.1,1.3,0.1c1,0.1,2,0.1,2.9,0.1
			c5.7,0.3,11.4,0.5,17.1,0.8c1.8,0.1,3.5,0.2,5.3,0.3c3.4,0.2,6.6,0.4,10,0.6s6.8,0.4,10.1,0.6l3.7,0.3l1.8,0.2
			c1.3,0.1,2.8,0.2,4.1,0.3l3.6,0.3l4.4,0.4l4.1,0.4l3.9,0.4c1.2,0.1,2.4,0.3,3.6,0.4c0.6,0.1,1,0.1,1.6,0.2l3.3,0.4
			c3.9,0.4,7.7,0.7,11.7,1.1l10,0.9l1.6,0.2c1.1,0.1,2.1,0.2,3.3,0.3l4.9,0.4l5.2,0.4l2.2,0.2c1.5,0.2,3,0.3,4.5,0.4
			c5.2,0.4,10.3,0.8,15.5,1.3c3.5,0.3,6.9,0.5,10.4,0.8l4.7,0.4c1.5,0.1,2.9,0.3,4.4,0.4l1.6,0.2c0.8,0.1,1.6,0.2,2.4,0.2
			c1.7,0.2,3.4,0.3,4.9,0.4c1.3,0.2,2.8,0.3,4.1,0.4c3.4,0.4,6.7,0.6,10.1,1c1.2,0.2,2.5,0.3,3.7,0.4c3.6,0.4,7.2,0.7,10.8,1.2
			l4.7,0.5l5.2,0.6c1.3,0.2,2.7,0.4,3.9,0.5c0.7,0.1,1.3,0.2,1.9,0.3s1.2,0.2,1.8,0.3c1.3,0.2,2.8,0.4,4.3,0.5l1.9,0.3l7.2,1.1
			c18.9,2.7,38.1,5.3,57,7.7c4.9,0.6,9.8,1.3,14.7,1.9l1.2,0.2c1.3,0.2,2.6,0.4,3.9,0.4l0.9,0.1l4.1,0.5l5.3,0.6
			c1.7,0.2,3.3,0.4,4.9,0.5l1.5,0.2l4.3,0.4l4.3,0.4c1.3,0.2,2.7,0.3,4,0.4c0.6,0.1,1.2,0.1,1.8,0.2l7.2,0.6l14.8,1
			c1.3,0.1,2.6,0.2,3.9,0.3c0.6,0.1,1.1,0.1,1.7,0.1l8.6,0.4c3.3,0.2,6.6,0.4,10,0.4l3.3,0.2c4.1,0.2,7.6,0.4,11.2,0.4
			c2.8,0.1,5.2,0.1,7.5,0.1c1,0,2.1,0,3.1-0.1c2.2,0,4.5-0.1,6.6-0.2c2.7-0.1,5.5-0.3,8.3-0.4l0.7-0.1c2.8-0.3,5.7-0.4,8.4-0.8
			c3.7-0.4,6.7-0.8,9.4-1.3l13.9-1.9c2.1-0.3,4.1-0.5,6.3-0.8c1.5-0.2,2.9-0.4,4.4-0.5c4.4-0.6,8.9-1.3,13.2-1.8l1.8-0.3
			c3.1-0.4,6.3-0.8,9.4-1.3c0.7-0.1,1.3-0.2,2-0.3c1.6-0.2,3.1-0.4,4.7-0.5s3.1-0.4,4.7-0.5l1-0.1l0.8-0.1c4.6-0.4,8.9-0.9,12.9-1.3
			c0.7-0.1,1.2-0.1,1.9-0.2v-62.8h0.4V150.6z M158.9,83c-0.1-0.6-0.2-1.2-0.2-1.6v-0.5v-0.1c0,0.7,0.1,1.5,0.2,2.4L159,84
			C159,83.6,158.9,83.3,158.9,83z"/>
		<path class="st1" d="M2.5,171.6l-1.3,0.7l0,0l-1,0.6l0.2,1.2l0.2,1.9l0.1,0.5v0.1v0.1c0.1,1,0.3,2.2,0.7,3.3
			c0.1,0.4,1,0.6,1.8,0.6c0.2,0,0.2,0,0.3,0c0.4-0.1,0.9-0.2,1.1-0.4c0.2-0.2,0.3-0.4,0.2-0.6c0-0.2-0.1-0.4-0.1-0.5l0,0
			c0-0.1,0-0.1,0-0.1l0,0v0.1l0,0l0,0l0,0l0,0l-0.2-1.6l-0.2-1.6l-0.2-2.2c-0.1-0.8-0.2-1.5-0.3-2.4c0-0.1,0-0.3,0-0.4v-0.1
			L2.5,171.6z"/>
		<path class="st2" d="M-2.4,170.2c0.9-2.1,2-4.5,3.4-6.9c0.4-0.8,0.9-1.6,1.3-2.4c0.2-0.5,0.6-0.9,0.9-1.4c0.2-0.3,0.4-0.6,0.7-0.9
			c0.4-0.6,0.8-1.2,1.1-1.8l0.2-0.3c0.6-0.9,1-1.9,1.2-2.9c0.1-0.7-0.9-1.4-2.4-1.6c-0.3,0-0.7,0-1,0c-0.6,0-1.1,0.1-1.7,0.2
			c-0.7,0.2-1.5,0.6-1.7,0.9c-0.3,0.9-0.8,1.8-1.2,2.5l-0.4,0.8c-0.1,0.3-0.3,0.6-0.4,0.9C-2.4,157.3-2.4,170.2-2.4,170.2z"/>
		<path class="st2" d="M1802.5,195.2c-0.7,0.1-1.2,0.1-1.9,0.2c-4,0.4-8.3,0.9-12.9,1.3l-0.8,0.1l-1,0.1c-1.6,0.2-3.1,0.4-4.7,0.6
			s-3.1,0.4-4.7,0.6c-0.7,0.1-1.3,0.2-2,0.3c-3.1,0.4-6.4,0.9-9.4,1.3l-1.8,0.3c-4.4,0.7-8.9,1.3-13.2,1.9c-1.5,0.2-2.9,0.4-4.4,0.6
			c-2.1,0.3-4.1,0.6-6.3,0.9l-13.9,2c-2.8,0.4-5.8,0.8-9.4,1.3c-2.8,0.4-5.6,0.6-8.4,0.9l-0.7,0.1c-2.8,0.3-5.6,0.4-8.3,0.5
			c-2.2,0.1-4.5,0.2-6.6,0.2c-1,0-2.1,0.1-3.1,0.1c-2.5,0-4.7-0.1-7.5-0.1c-3.6-0.1-7.1-0.2-11.2-0.4l-3.3-0.2
			c-3.3-0.2-6.6-0.3-10-0.5l-8.6-0.5c-0.6-0.1-1.1-0.1-1.7-0.1c-1.2-0.1-2.6-0.2-3.9-0.2l-14.8-1.1l-7.2-0.7
			c-0.6-0.1-1.2-0.1-1.8-0.2c-1.3-0.1-2.7-0.3-4-0.4l-4.3-0.5l-4.3-0.5l-1.5-0.2c-1.6-0.2-3.3-0.4-4.9-0.6l-5.3-0.7l-4.1-0.6
			l-0.9-0.1c-1.3-0.2-2.6-0.4-3.9-0.5l-1.2-0.2c-4.9-0.7-9.8-1.3-14.7-2c-18.8-2.6-38.1-5.3-57-8.2l-7.2-1.1l-1.9-0.3
			c-1.3-0.2-2.8-0.4-4.3-0.6c-0.6-0.1-1.2-0.2-1.8-0.3c-0.7-0.1-1.3-0.2-1.9-0.3c-1.3-0.2-2.6-0.4-3.9-0.6l-5.2-0.7l-4.7-0.6
			c-3.6-0.5-7.3-0.9-10.8-1.2l-3.7-0.4c-3.4-0.4-6.8-0.8-10.1-1.1c-1.3-0.2-2.8-0.3-4.1-0.5c-1.7-0.2-3.4-0.3-4.9-0.5
			c-0.8-0.1-1.6-0.2-2.4-0.2l-1.6-0.2c-1.5-0.2-2.9-0.3-4.4-0.4l-4.7-0.4c-3.5-0.3-6.9-0.6-10.4-0.9c-5.2-0.5-10.3-0.9-15.5-1.3
			c-1.5-0.2-3-0.3-4.5-0.4l-2.2-0.2l-5.2-0.5l-4.9-0.5c-1.1-0.1-2.1-0.2-3.3-0.3l-1.6-0.2l-10-1c-3.9-0.4-7.7-0.8-11.7-1.1l-3.3-0.4
			c-0.6-0.1-1-0.1-1.6-0.2c-1.1-0.1-2.4-0.3-3.6-0.4l-3.9-0.4l-4.1-0.4l-4.4-0.4l-3.6-0.3c-1.3-0.1-2.8-0.2-4.1-0.3l-1.8-0.2
			l-3.7-0.3c-3.3-0.3-6.7-0.5-10.1-0.7s-6.6-0.5-10-0.7c-1.8-0.1-3.6-0.3-5.3-0.3c-5.7-0.3-11.4-0.6-17.1-0.9c-1-0.1-2-0.1-2.9-0.1
			c-0.4,0-0.9-0.1-1.3-0.1l-12-0.4c-1.9-0.1-3.8-0.2-5.6-0.2c-0.3,0-0.8,0-1.2,0h-0.6l-2.1-0.1l-2.1-0.1l-4-0.1
			c-3.6-0.1-7.3-0.1-11-0.2l-8.6-0.1l-8.6-0.1c-3.6-0.1-7.2-0.1-10.8-0.1c-1.8,0-3.6,0-5.4-0.1c-1.9,0-3.7,0-5.6,0
			c-1.5,0-2.9,0-4.4,0h-3.6c-3.3,0-6.5,0-9.8,0h-4.8h-2.4c-3.6,0-7.2,0-10.8,0.1c-1.8,0-3.6,0-5.3,0.1c-3.6,0-7.1,0.1-10.6,0.1
			c-7.4,0.1-17.1,0.2-27.1,0.2c-3.9,0.1-8,0.1-11.9,0.1c-4.1,0-8.4,0.1-12.1,0.1c-2.5,0-5,0.1-7.5,0.2c-1,0-2,0.1-3,0.1
			c-3.8,0.1-7.8,0.2-11.8,0.3l-2.2,0.1c-3,0.1-5.9,0.2-9,0.3l-4,0.2c-2.9,0.1-5.8,0.2-8.6,0.3c-8,0.3-16,0.5-24,0.7l-1.6,0.1
			c-2.1,0.1-4.1,0.2-6.3,0.2c-0.9,0.1-1.8,0.1-2.7,0.1c-0.3,0-0.8,0-1.1,0l-4.4,0.1l-4.4,0.1c-0.4,0-0.8,0-1.2,0c-0.7,0-1.3,0-1.9,0
			c-0.2,0-0.4,0-0.7,0l-7.5-0.1l-7.5-0.1c-1.1,0-2.1-0.1-3-0.1l-8.3-0.3l-3.3-0.1l-3.3-0.1c-0.8-0.1-1.7-0.1-2.5-0.2
			c-0.3,0-0.7-0.1-1-0.1l-6.5-0.4L961,169l-3.9-0.3c-3.9-0.3-8.1-0.6-12-1c-3.4-0.3-6.8-0.6-10.2-0.9c-0.8-0.1-1.6-0.1-2.4-0.2
			c-0.4-0.1-0.9-0.1-1.2-0.1c-2.2-0.2-4.4-0.4-6.6-0.5c-4.8-0.4-9.6-0.7-14.3-1l-3.1-0.2c-4.7-0.3-9.4-0.7-14-1l-3.3-0.3l-4.4-0.4
			l-4.6-0.4c-0.6-0.1-1.1-0.1-1.7-0.2c-1.6-0.2-3.3-0.3-4.9-0.5l-5.5-0.6l-5.5-0.6l-0.8-0.1c-0.6-0.1-1.2-0.2-1.8-0.2l-5.4-0.8
			l-5-0.7l-0.8-0.1c-0.7-0.1-1.3-0.2-2-0.3l-4.9-0.8l-4.9-0.8c-3.8-0.7-7.6-1.3-11.3-2c-1.3-0.3-2.7-0.5-4.1-0.8l-12.4-2.6l-0.6-0.1
			c-2.1-0.5-4.3-0.9-6.4-1.3c-2.5-0.6-5-1.1-7.5-1.6l-13.8-2.8c-1.5-0.3-2.9-0.6-4.4-0.9c-0.7-0.2-1.5-0.3-2.1-0.4l-7.1-1.3
			l-1.1-0.2c-0.4-0.1-0.9-0.2-1.3-0.3c-0.2-0.1-0.4-0.1-0.7-0.1l-1.9-0.3l-2.7-0.5l-2.8-0.5l-3.9-0.7c-0.6-0.1-1.1-0.2-1.7-0.3
			c-0.3-0.1-0.6-0.1-0.9-0.1l-2.6-0.4l-2.6-0.4c-2.1-0.3-4.3-0.6-6.6-0.9l-7.6-1l-2.1-0.3c-1.5-0.2-2.8-0.4-4.3-0.5l-0.8-0.1
			l-4.8-0.6l-3.9-0.5c-0.4-0.1-0.9-0.1-1.3-0.2h-0.2l-3.8-0.4l-3-0.3l-1.2-0.1c-1.3-0.2-2.7-0.3-4.1-0.4l-4.4-0.3l-4.4-0.3l-1.8-0.2
			l-1.8-0.2c-1.7-0.1-3.5-0.2-5.2-0.3l-1.6-0.1c-3.1-0.2-6.4-0.2-9.3-0.2c-0.4,0-1,0-1.5,0c-1.5,0-2.9,0-4.4,0.1
			c-1.1,0-2.2,0-3.3,0.1l-3.7,0.1c-3.5,0.1-7.2,0.2-10.6,0.3c-3.4,0.1-6.7,0.2-10.1,0.3c-1.6,0.1-3.1,0.1-4.7,0.2l-1.3,0.1l-6.3,0.3
			l-2.9,0.2c-0.4,0-0.8,0.1-1.2,0.1h-0.3c-1.6,0.1-3.1,0.2-4.7,0.3l-3.8,0.3L611,136c-0.4,0.1-0.9,0.1-1.2,0.1l-0.7,0.1l-3.1,0.3
			l-3.1,0.3l-4.4,0.4l-3.6,0.3c-1.1,0.1-2.4,0.2-3.5,0.4c-0.6,0.1-1,0.1-1.5,0.2l-4.5,0.5c-3.6,0.4-7.1,0.7-10.6,1.1l-0.3,0.1
			c-8.3,0.9-16.5,1.6-24.8,2.5c-1.2,0.1-2.5,0.3-3.8,0.4c-2.7,0.3-5.4,0.6-8.1,0.8c-4.9,0.5-10,0.9-14.9,1.3
			c-6.8,0.7-13.9,1.2-20.6,1.8c-8.9,0.8-17.9,1.6-26.9,2.4c-8.7,0.8-17.5,1.6-26.1,2.5c-1,0.1-2,0.2-3,0.3c-2.4,0.2-4.7,0.5-7.1,0.7
			c-5.3,0.5-10.5,0.9-15.8,1.3l-1,0.1c-2.5,0.2-4.9,0.4-7.5,0.6l-14.3,1l-2.1,0.2l-2.1,0.2l-1.8,0.2c-1,0.1-2,0.1-2.9,0.2
			c-0.4,0.1-1,0.1-1.5,0.1c-4.8,0.3-9.6,0.6-14.5,0.8c-6.2,0.3-12.3,0.5-18.5,0.8c-1.3,0.1-2.8,0.1-4.3,0.1c-0.7,0-1.2,0.1-1.9,0.1
			l-6.5,0.2l-6.5,0.2c-1.6,0.1-3.1,0.1-4.8,0.1l-6.5,0.1l-7.1,0.2c-5,0.1-10.3,0.2-15.2,0.4l-4.6,0.1c-1.8,0.1-3.6,0.1-5.2,0.2
			l-9.4,0.4l-3.6,0.2l-0.8,0.1c-0.6,0-1.1,0.1-1.8,0.1l-1.7,0.1l-1.7,0.1l-1.8,0.1c-3.6,0.2-7.2,0.5-10.9,0.7
			c-4.4,0.3-8.7,0.6-13.1,0.9l-5.4,0.4c-1.8,0.1-3.6,0.2-5.4,0.3c-0.7,0.1-1.3,0.1-2.1,0.1l-9.5,0.5l-3.6,0.1l-3.6,0.1
			c-0.6,0-1.1,0.1-1.7,0.1c-1.3,0.1-2.8,0.1-4.1,0.1c-5.3,0-11.4,0.1-17.5,0.1c-1.7,0-3.4,0.1-5,0.1c-0.8,0-1.5,0.1-2.2,0.1h0.1
			c-1,0-2,0.1-2.9,0.1c-1.9,0.1-3.8,0.2-5.7,0.3l-1.8,0.1c-3.5,0.2-6.9,0.5-10.3,0.8H169c-1.3,0.2-2.8,0.3-4.7,0.5l-11.1,1.2
			c-3.4,0.4-6.7,0.8-10,1.1c-1.3,0.2-2.7,0.3-4,0.5c-3.1,0.4-6.4,0.7-9.5,1.1c-1.3,0.2-2.8,0.3-4.3,0.5l-3,0.4
			c-3.5,0.4-7.1,0.8-10.6,1.1c-2,0.2-4,0.5-5.6,0.7c-2,0.3-4.1,0.6-6.1,0.9l-0.8,0.1c-1.2,0.2-2.5,0.5-3.6,0.7
			c-0.6,0.1-1.1,0.2-1.7,0.3c-0.8,0.2-1.5,0.3-2.2,0.5c-0.3,0.1-0.8,0.2-1.1,0.3l-1.8,0.4l-1.6,0.3c-0.6,0.1-1.1,0.3-1.7,0.4
			c-0.2,0.1-0.6,0.2-0.8,0.2l-4.3,1c-1.8,0.5-3.6,0.9-5.3,1.3c-0.6,0.2-1.1,0.3-1.8,0.5c-3,0.8-6.2,1.7-9.1,2.5l-2.2,0.7
			c-1.8,0.5-3.6,1-5.4,1.5l-1.5,0.4c-1.9,0.6-3.8,1.1-5.6,1.5l-1.6,0.5c-1.6,0.5-3.1,0.9-4.7,1.3l-0.9,0.3c-0.9,0.3-1.8,0.5-2.7,0.8
			c-1.6,0.5-3.4,1.1-4.9,1.6l-0.9,0.3l-2.2,0.9c-0.9,0.4-1.7,0.7-2.6,1.1l-1.5,0.7l-1.5,0.7c-1.5,0.7-3,1.3-4.5,1.9l-3.5,1.5
			l-1.7,0.8c-1.2,0.6-2.5,1.1-3.7,1.7c-0.7,0.3-1.3,0.7-2,1c-1.2,0.6-2.4,1.1-3.5,1.7l-0.3,0.2l-3.1,1.5l-3.1,1.5c0-0.2,0-0.3,0-0.4
			l-2.4,0.3v52.4c1.8-0.5,3.6-1,4.9-1.3l0.2-0.1l1.3-0.4c4.9-1.2,10.1-2.5,15-3.5h0.1l0.3-0.1c2-0.5,3.5-0.8,4.8-1.1l3-0.6l2.8-0.6
			l13.8-2.8l13.8-2.8l22.6-3.9l10.4-1.8l1.8-0.3l1.8-0.3c0.8-0.1,1.5-0.3,2.2-0.4l0.4-0.1c0.2-0.1,0.6-0.1,0.8-0.1l10.2-1.5
			l10.3-1.6l14.7-2.3c0.6-0.1,1-0.2,1.6-0.3l0.3-0.1l4.8-0.7l3.1-0.5l0.4-0.1l20.6-3l0.3-0.1l1.3-0.2l1.6-0.3
			c1.5-0.2,2.9-0.4,4.4-0.6l0.8-0.1l0.2-0.1l0.3-0.1c0.6-0.1,1-0.2,1.6-0.2l20.7-2.7l16.3-2.1l4.5-0.6c0.6-0.1,1.1-0.2,1.7-0.2
			c0.2-0.1,0.6-0.1,0.9-0.1l1.1-0.1h0.2c6.3-0.7,12.4-1.3,18.7-2l16.9-1.8l1.2-0.2c2.4-0.3,4.7-0.5,7.1-0.7h0.2h0.1l0.7-0.1
			l14.5-1.3c7.6-0.7,15.1-1.4,22.8-2.1c0.7-0.1,1.5-0.2,2.1-0.2l0.6-0.1l4.7-0.4l5.9-0.5l25.9-2.3c10.4-0.9,21.3-1.7,28.6-2.4
			c2.9-0.3,5.8-0.5,8.6-0.7h0.2c1.1-0.1,2.4-0.2,3.5-0.3l0.7-0.1l12.6-0.9l4.6-0.3l4.6-0.3c0.3-0.1,0.7-0.1,1.1-0.1h0.3h0.3l0.9-0.1
			l3.3-0.2l3.3-0.2l4.4-0.3l0.3-0.1l1.1-0.1l0.8-0.1c3.6-0.2,7.3-0.5,10.9-0.7l20.3-1.1l1.2-0.1l1.2-0.1h-0.1h0.5c0,0,0,0,0.1,0
			h-0.1c2.6-0.1,5.3-0.2,7.8-0.4l1.1-0.1l0.6-0.1c6.1-0.3,13.4-0.6,20.5-0.9c10.8-0.5,21.5-0.9,32.3-1.3l4.1-0.2l2.4-0.1
			c6.6-0.3,13.1-0.5,19.7-0.8l5.3-0.2l35-1.3l2.1-0.1l3-0.1l2.9-0.1h0.4c0.4,0,0.8-0.1,1.2-0.1l15.1-0.4l1.9-0.1l2-0.1l33.4-0.8
			c1.7-0.1,3.4-0.1,5.2-0.1h0.3h0.1c0.8,0,1.7,0,2.5-0.1l11.3-0.2l11.8-0.2l9.4-0.1l8.9-0.1c2.7-0.1,5.3-0.1,7.2-0.1
			c13.1,0,26.2-0.1,39.5-0.1h2.1c0.9,0,1.7,0,2.7,0h1.1c0.7,0,1.2,0,1.9,0c0.8,0,1.6,0,2.4,0c5.2,0.1,10.3,0.1,15.6,0.2l11.7,0.1
			l22.6,0.2c0.7,0,1.3,0,2,0.1h0.2h0.9l4.1,0.1l3.7,0.1l11.2,0.2l12.3,0.2l7.5,0.2l7.5,0.2c1.8,0.1,3.7,0.1,5.5,0.2h0.2
			c0.8,0.1,1.7,0.1,2.5,0.1l22.1,0.6l20.7,0.6l2,0.1c1.7,0.1,3.3,0.1,4.9,0.2l8.4,0.4l8.4,0.4l16,0.7l18.4,0.7
			c0.7,0.1,1.3,0.1,2.1,0.1l1.1,0.1l4,0.2l4,0.2l21.6,1.1l2.4,0.1c8.1,0.4,16.3,0.8,24.3,1.2c22.6,1.1,45.2,2.3,67.8,3.3
			c18.7,1,38.6,2,54.5,2.9l1.7,0.1l1.1,0.1l9.2,0.5c6.2,0.4,12.4,0.7,18.6,1.1h0.3h0.2h0.2c2.5,0.2,4.9,0.3,7.4,0.5l0.8,0.1
			c5.8,0.4,11.5,0.7,17.4,1.1l2.9,0.2l2.4,0.2c2,0.1,4.1,0.3,6.2,0.4l10.5,0.7l8.3,0.6c10.2,0.7,20.4,1.3,30.6,2
			c1.6,0.1,3.1,0.2,4.7,0.4l2.1,0.2l10.4,0.8l6.8,0.5l9.8,0.7l7.5,0.6l6.5,0.5l30,2.4l4.8,0.4l11.5,0.9c2.9,0.3,5.7,0.5,8.5,0.7h0.2
			l3.9,0.4l0.7,0.1l10.6,0.9l11.1,1l3.1,0.3h0.2l0.9,0.1c2.1,0.2,4.1,0.4,6.3,0.6l37.2,3.3c6.4,0.6,13,1.2,19.3,1.8l0.9,0.1l1.1,0.1
			h0.2c2.4,0.3,4.7,0.5,7.2,0.7l1.8,0.2l3.6,0.4l9.3,0.9c2.6,0.3,5.2,0.5,7.7,0.8l1.1,0.1l0.2,0.1l4.3,0.4l7.4,0.8l0.6,0.1l3.9,0.4
			l2.1,0.2c5.2,0.5,10.2,1,15.4,1.5l10.3,1c7.3,0.7,14.6,1.4,21.9,2.1c11.7,1.1,23.3,2.3,34.9,3.4c2.4,0.3,4.6,0.5,6.7,0.7l0.6,0.1
			l1.2,0.2l0.8,0.1c0.6,0.1,1,0.1,1.6,0.2l21.3,2.3c2.6,0.3,5.2,0.6,7.7,0.8l0.3,0.1l1.2,0.1l21,2.1l22.8,2.3l6.4,0.7
			c4.4,0.5,8.9,1,12.8,1.3l0.4,0.1l0.4,0.1c4.1,0.5,9,1,13.4,1.4l1.3,0.2l3.3,0.4l1.3,0.2l2,0.2c8.5,0.9,17,1.7,25.6,2.6
			c3.7,0.4,7.7,0.8,11.9,1.2l4.7,0.5l0.3,0.1c3.5,0.4,6.9,0.8,10.4,1.1l8.5,0.9l8.5,0.9c1,0.1,2,0.2,2.9,0.3h0.2l0.6,0.1l0.6,0.1
			l0.6,0.1l11.1,1L1802.5,195.2L1802.5,195.2z M4.7,212.7c-0.2,0.2-0.7,0.3-1.1,0.4c-0.1,0-0.1,0-0.3,0c-0.8,0-1.7-0.3-1.8-0.6
			c-0.3-1.1-0.6-2.2-0.7-3.2v-0.1v-0.1l-0.1-0.6l-0.2-1.8l-0.2-1.1l1-0.6l0,0l1.2-0.6l1.2-0.6c0.1,0.9,0.2,1.7,0.3,2.7l0.2,2.1
			l0.3,1.4l0.1,1.5l0.2-0.1c0,0.2,0,0.4,0.1,0.6C4.9,212.3,4.9,212.5,4.7,212.7z"/>
		<path class="st3" d="M2.1,246.1c0.7-0.1,1.5-0.3,2.1-0.4c0.6-0.1,1.3-0.2,2-0.4c1.5-0.3,2.9-0.6,4.4-0.9c0.7-0.1,1.3-0.3,2-0.4
			c2.4-0.5,4.8-1,6.9-1.4c3.9-0.7,7.7-1.6,11.5-2.5l0.8-0.1c2.6-0.6,5.2-1.1,7.7-1.6c2.8-0.6,5.6-1.2,8.4-1.8
			c0.9-0.2,1.8-0.4,2.6-0.6c1.5-0.4,2.9-0.7,4.4-1c2.5-0.5,5-1,8.1-1.5c3.6-0.7,6.8-1.2,10-1.5c3.8-0.4,8-0.9,12.7-1.2
			c4.3-0.3,8.9-0.6,14.7-0.9c2.6-0.1,5.3-0.2,7.8-0.3c1.9-0.1,3.9-0.1,5.8-0.2l1.3-0.1c4-0.2,8.3-0.4,12.4-0.6
			c3.9-0.2,7.8-0.4,11.8-0.7l2.4-0.1c6.2-0.4,12.3-0.7,18.4-1c3.6-0.2,7.1-0.4,10.6-0.6c4.7-0.3,9.6-0.5,14.6-0.9
			c0.7-0.1,1.5-0.1,2.1-0.1c1.7-0.1,3.4-0.2,5-0.4l2.9-0.3l3.8-0.4c6.8-0.7,13.8-1.3,20.6-2c2.4-0.2,4.7-0.4,7.1-0.7l3.5-0.4
			l1.8-0.2c1.9-0.2,3.9-0.4,5.9-0.5l11.2-0.9l2-0.1c1-0.1,1.9-0.1,2.9-0.1c0.4-0.1,0.9-0.1,1.3-0.1l3.1-0.1l3.6-0.2
			c2.8-0.1,5.7-0.2,8.5-0.3l2.2-0.1c2.6-0.1,5.2-0.1,8.2-0.1h0.4c2.2,0,4.3,0.1,6.1,0.1c4,0.2,8.1,0.6,12,0.9l1.6,0.1
			c2.7,0.2,5.4,0.4,8.1,0.7l3.6,0.3l1.8,0.1c8.5,0.7,17.4,1.5,26.1,2.1c0.8,0.1,1.6,0.1,2.4,0.1c1.7,0.1,3.5,0.2,5.3,0.4
			c3,0.1,6.1,0.4,9.1,0.5c3.7,0.2,7.5,0.4,11.2,0.6l3.4,0.1c3.7,0.2,7.5,0.4,11.2,0.5l3.8,0.1l1.9,0.1c3.3,0.1,6.5,0.3,9.6,0.4
			c10.8,0.4,22.3,0.9,33.6,1.4c9.6,0.4,19.6,0.8,29.8,1.2c0.8,0.1,1.5,0.1,2.2,0.1c1.6,0.1,3.1,0.1,4.7,0.2l7.7,0.3l2,0.1
			c3.6,0.1,7.3,0.2,11,0.3c1.5,0.1,2.9,0.1,4.4,0.1c3.7,0.1,7.4,0.1,11.1,0.2c5,0.1,10.1,0.1,15.1,0.1l5-0.1
			c3.4-0.1,6.7-0.1,10.1-0.1c2.9-0.1,5.9-0.1,8.9-0.2c1-0.1,2-0.1,3.1-0.1c4.4-0.1,8.3-0.3,12-0.4l1.1-0.1c3.8-0.1,7.8-0.3,11.8-0.4
			c1.1-0.1,2.2-0.1,3.4-0.1c3.3-0.1,6.5-0.2,9.8-0.2l6.8-0.1l3.4-0.1c0.4,0,0.9,0,1.3,0c0.9,0,1.9-0.1,2.8-0.1c0.3,0,0.7,0,1,0
			c4.7,0.1,9.5,0.1,14.3,0.1c1.3,0,2.8,0.1,4.1,0.1c0.7,0.1,1.3,0.1,1.9,0.1c0.7,0.1,1.2,0.1,1.9,0.1c1.2,0.1,2.6,0.1,3.8,0.1
			c2.2,0.1,4.5,0.2,6.7,0.3c6.7,0.3,13.6,0.6,20.4,0.8c7.2,0.2,15.1,0.4,24.2,0.6c2.5,0.1,5,0.1,7.5,0.1c1.6,0.1,3.1,0.1,4.7,0.1
			l2,0.1c3,0.1,6.3,0.1,9.4,0.1c8.9,0.1,17.7,0.1,25.9,0.1h3.1c2.8,0,5.6,0,8.5-0.1c1.3,0,2.8,0,4.1-0.1c2.4,0,4.6-0.1,6.9-0.1
			c0.8,0,1.6,0,2.4,0c8.1,0.1,16.6,0.1,25,0.2c1.3,0.1,2.7,0.1,4,0.1c3,0.1,6.2,0.1,9.3,0.1l4,0.1c2.9,0.1,5.9,0.1,8.9,0.2
			c9.4,0.3,17.9,0.4,25.9,0.7s16,0.4,23.9,0.7l1.3,0.1c7.5,0.3,15.1,0.4,22.5,0.5l2.9,0.1c2.9,0.1,5.8,0.1,8.6,0.1h3.3l3.5,0.1
			c2.7,0,5.4,0.1,8,0.1c8.2,0.1,16.5,0.1,24.7,0.2h-0.2h3.4c4,0,7.4,0,10.9-0.1c4.9-0.1,10.6-0.1,16.3-0.1c0.9,0,1.9,0,2.8,0
			c1.3,0,2.7-0.1,4-0.1c0.7,0,1.2,0,1.9,0l3.9,0.1l4,0.1c2.6,0.1,4.8,0.1,7.1,0.1l5,0.1l4.5,0.1c2.1,0.1,4.3,0.1,6.4,0.2
			c3.1,0.1,6.3,0.2,9.4,0.3c5.7,0.1,11.3,0.3,17,0.4c3.3,0.1,6.6,0.2,9.9,0.3c1.8,0.1,3.6,0.1,5.4,0.1c4.4,0.1,9,0.2,13.2,0.2h1.7
			h1.8h1.8c1,0,1.9-0.1,2.9-0.1l1-0.1c2-0.1,4-0.1,6.1-0.2l1.7-0.1c5.4-0.2,11-0.4,16.7-0.9c4.7-0.4,9.5-0.7,14.2-1.1l2.7-0.2
			c5.4-0.4,10.9-0.9,16.4-1.4c2.4-0.2,4.7-0.4,7.2-0.7c8.3-0.8,17.9-1.8,27.3-3c4-0.5,8.5-1.1,13.1-1.4c4.5-0.4,8.9-0.7,13.2-0.7
			c9.2-0.3,18.6-0.4,27.6-0.7h0.7l2.9-0.1c6.3-0.1,12.8-0.2,19.2-0.2c2.7,0,5.2,0.1,7.5,0.1l1.2,0.1c2.4,0.1,4.7,0.1,7.1,0.1
			c2.6,0.1,5.2,0.1,7.7,0.3c4.8,0.2,9.8,0.4,14.6,0.6c8.6,0.4,17.3,0.8,25.7,1.2l2.5,0.1c10.9,0.5,21,1,30.6,1.3
			c0.9,0.1,1.8,0.1,2.7,0.1c1.9,0.1,3.9,0.1,5.8,0.2l4.3,0.1l4.3,0.1c4.4,0.1,8.7,0.1,13,0.2l2,0.1c3.8,0.1,7.7,0.1,11.5,0.1l4,0.1
			c3.3,0.1,6.5,0.1,9.8,0.1c1.3,0,2.8,0.1,4.1,0.1c1.9,0.1,3.8,0.1,5.6,0.1c0.9,0.1,1.8,0.1,2.6,0.1l1.2,0.1
			c1.5,0.1,2.9,0.1,4.3,0.1c4.9,0.2,9.9,0.4,14.8,0.5c9.9,0.4,20.3,0.9,32.1,1.4c3.6,0.1,7.2,0.4,10.6,0.6c1.6,0.1,3.1,0.1,4.6,0.3
			c3.3,0.2,6.5,0.4,9.8,0.5l4.9,0.3c9.2,0.5,18.5,0.9,28.1,1.4c5.5,0.3,10.9,0.5,16.4,0.7c4.3,0.2,8.6,0.4,12.9,0.5l1.6,0.1
			c1.9,0.1,3.9,0.1,5.7,0.1c0.7,0,1.5,0.1,2.1,0.1c2.1,0.1,4.1,0.1,6.3,0.1c5.5,0.1,11,0.1,16.5,0.1c3.8,0.1,8,0.1,13.2,0.1
			c2.5,0,5,0,7.5,0c1.2,0,2.5,0,3.8,0c1.2,0,2.5,0,3.8,0h-1.2c1.5,0,3,0,4.5,0c2.9,0,5.9,0,9-0.1c1.1,0,2.4-0.1,3.5-0.1
			c2.8-0.1,5.6-0.1,8.4-0.1c3.6,0,7.8,0,12,0.1c3.6,0.1,7.2,0.1,10.6,0.1l2,0.1c5,0.1,10.2,0.2,15.2,0.3c3.1,0.1,6.4,0.1,9.5,0.2
			c0.8,0,1.6,0.1,2.5,0.1c2.7,0.1,5.5,0.1,8.2,0.1c4.1,0,8.3,0.1,12.6,0.1h0.4c3.7-0.1,7.5-0.1,11.2-0.1c2.2-0.1,4.6-0.1,6.8-0.1
			c1.1-0.1,2.1-0.1,3.3-0.1c1.2-0.1,2.1-0.1,3.3-0.1c0.4-0.1,0.9-0.1,1.3-0.1l2.7-0.1l2.9-0.1c2.1-0.1,4.3-0.2,6.4-0.4
			c1-0.1,2-0.1,3-0.1c5.5-0.3,11.1-0.6,16.5-0.9l3.4-0.2c2.9-0.1,6.5-0.4,10.1-0.5c2.4-0.1,4.8-0.2,7.3-0.3c2.2-0.1,4.6-0.1,7.1-0.1
			c1,0,2,0,3,0c2.9,0,5.6,0.1,8.2,0.1c3.5,0.1,6.5,0.3,9.4,0.4c0.3,0,0.6,0.1,0.9,0.1v-11.4l-11.1-0.7l-0.6-0.1l-0.6-0.1l-0.6-0.1
			h-0.2c-0.9-0.1-2-0.1-2.9-0.2l-8.5-0.7l-8.5-0.7c-3.5-0.3-6.9-0.6-10.4-0.9l-0.3-0.1l-4.7-0.4c-4-0.4-8.1-0.7-11.9-0.9
			c-8.5-0.7-17-1.3-25.6-2l-2-0.1l-1.3-0.1l-3.3-0.3l-1.3-0.1c-4.5-0.4-9.3-0.7-13.4-1.1l-0.4-0.1l-0.4-0.1c-3.9-0.4-8.5-0.7-12.8-1
			l-6.4-0.5l-22.8-1.7l-21-1.6l-1.2-0.1l-0.3-0.1c-2.6-0.2-5.2-0.4-7.7-0.6l-21.3-1.7c-0.6-0.1-1-0.1-1.6-0.1l-0.8-0.1l-1.2-0.1
			l-0.6-0.1c-2.1-0.2-4.5-0.4-6.7-0.5c-11.7-0.9-23.3-1.7-34.9-2.6c-7.3-0.5-14.6-1.1-21.9-1.6l-10.3-0.7
			c-5.2-0.4-10.2-0.7-15.4-1.2l-2.1-0.1l-3.9-0.3l-0.6-0.1l-7.4-0.6l-4.3-0.3l-0.2-0.1l-1.1-0.1c-2.6-0.2-5.2-0.4-7.7-0.6l-9.3-0.7
			l-3.6-0.3l-1.8-0.1c-2.4-0.1-4.7-0.4-7.2-0.5h-0.2l-1.2-0.1l-0.9-0.1c-6.3-0.4-12.9-0.9-19.3-1.4l-37.2-2.5
			c-2.1-0.1-4.1-0.3-6.3-0.4l-0.9-0.1h-0.2l-3.1-0.2l-11.1-0.7l-10.6-0.7l-0.7-0.1l-3.9-0.3h-0.2c-2.9-0.2-5.7-0.4-8.5-0.5
			l-11.5-0.7l-4.8-0.3l-30-1.8l-6.5-0.4l-7.5-0.4l-9.8-0.5l-6.8-0.4l-10.4-0.6l-2.1-0.1c-1.6-0.1-3.1-0.2-4.7-0.3
			c-10.2-0.5-20.4-1-30.6-1.5l-8.3-0.4l-10.5-0.5c-2-0.1-4.1-0.2-6.2-0.3l-2.4-0.1l-2.9-0.1c-5.8-0.3-11.5-0.5-17.4-0.8l-0.8-0.1
			c-2.5-0.1-4.9-0.2-7.4-0.4h-0.2h-0.2h-0.3c-6.1-0.3-12.3-0.6-18.6-0.9l-9.2-0.4l-1.1-0.1l-1.7-0.1c-15.9-0.7-35.8-1.4-54.5-2.2
			c-22.6-0.9-45.2-1.7-67.8-2.5c-8.1-0.3-16.3-0.6-24.3-0.9l-2.4-0.1l-21.6-0.8l-4-0.1l-4-0.1l-1.1-0.1c-0.7-0.1-1.3-0.1-2.1-0.1
			l-18.4-0.5l-16-0.5l-8.4-0.3l-8.4-0.3c-1.7-0.1-3.3-0.1-4.9-0.1l-2-0.1l-20.7-0.4l-22.1-0.4c-0.8,0-1.7-0.1-2.5-0.1h-0.2
			c-1.8-0.1-3.7-0.1-5.5-0.1l-15.1-0.2l-12.3-0.1l-11.2-0.1l-3.7-0.1l-4.1-0.1h-0.9h-0.2c-0.7,0-1.3-0.1-2-0.1l-22.6-0.1l-11.7-0.1
			c-5.2-0.1-10.3-0.1-15.6-0.1c-0.8,0-1.6,0-2.4,0c-0.7,0-1.2,0-1.9,0h-1.1c-0.9,0-1.8,0-2.7,0h-2.1c-13.1,0-26.2,0.1-39.5,0.1
			c-1.9,0-4.5,0-7.2,0.1l-8.9,0.1l-9.4,0.1l-11.7,0.1l-11.3,0.1c-0.8,0-1.7,0-2.5,0.1H651h-0.3c-1.8,0-3.5,0.1-5.2,0.1l-33.4,0.6
			l-2,0.1l-1.9,0.1l-15.1,0.3c-0.3,0-0.8,0-1.2,0.1h-0.4l-2.9,0.1l-3,0.1l-2.1,0.1l-35,1l-5.3,0.1c-6.6,0.2-13.1,0.4-19.7,0.6
			l-2.4,0.1l-4.1,0.1c-10.8,0.4-21.5,0.7-32.3,1c-7.1,0.2-14.5,0.4-20.5,0.7l-0.7,0.1l-1.1,0.1c-2.6,0.1-5.3,0.2-7.8,0.3l0.2,0.1
			l-2.5,0.1l-20.3,0.9c-3.6,0.1-7.3,0.4-10.9,0.5l-0.8,0.1l-1.1,0.1l-0.3,0.1l-4.4,0.2l-3.3,0.1l-3.3,0.1l-0.9,0.1h-0.3h-0.3
			c-0.4,0.1-0.8,0.1-1.1,0.1l-4.6,0.2l-4.6,0.2l-12.6,0.7l-0.7,0.1c-1.1,0.1-2.4,0.1-3.5,0.2h-0.5c-2.9,0.2-5.8,0.4-8.6,0.5
			c-7.3,0.4-18.2,1.1-28.6,1.8l-25.9,1.7l-5.9,0.4l-4.7,0.3l-0.6,0.1c-0.7,0.1-1.5,0.1-2.1,0.1c-7.6,0.5-15.1,1.1-22.8,1.6l-14.5,1
			l-0.7,0.1h-0.1h-0.2c-2.4,0.1-4.7,0.4-7.1,0.5l-1.2,0.1l-16.9,1.4c-6.3,0.5-12.4,1-18.7,1.5H220l-1.1,0.1
			c-0.3,0.1-0.6,0.1-0.9,0.1c-0.6,0.1-1.1,0.1-1.7,0.1l-4.5,0.4l-16.3,1.6l-20.7,2c-0.6,0.1-1,0.1-1.6,0.1l-0.3,0.1l-0.2,0.1
			l-0.8,0.1c-1.5,0.1-2.9,0.3-4.4,0.4l-1.6,0.2l-1.3,0.1l-0.3,0.1l-20.6,2.2l-0.4,0.1l-3.1,0.4l-4.8,0.5l-0.3,0.1
			c-0.6,0.1-1,0.1-1.6,0.2l-14.7,1.7l-10.3,1.2l-10.2,1.2c-0.2,0.1-0.6,0.1-0.8,0.1l-0.4,0.1c-0.8,0.1-1.5,0.1-2.2,0.3l-1.8,0.2
			l-1.8,0.2l-10.7,1.4L58,207.4l-13.8,2.1l-13.9,2l-2.8,0.4l-3,0.4c-1.3,0.2-2.8,0.4-4.8,0.8l-0.3,0.1h-0.1
			c-4.9,0.9-10.1,1.7-15,2.7L3,216.2l-0.2,0.1c-1.5,0.3-3.1,0.6-4.9,1v28.8H2.1L2.1,246.1z"/>
		<path class="st4" d="M-0.4,197.5c-1.5,0.3,0.4,2.7-1.1,3c-0.7,0.2-0.6,33.8-0.5,34.5c0,0,1.6,32.8,1,33l1802.2,1.8l0,0l0.2-9.3
			l4.1-59.2l-3-4.4c-0.3,0-0.6-0.1-0.9-0.1c-2.8-0.2-6-0.3-9.5-0.5c-2.6-0.1-5.4-0.2-8.3-0.2c-1,0-2,0-3,0c-2.4,0-4.8,0.1-7.2,0.2
			c-2.5,0.1-5,0.3-7.4,0.3c-3.7,0.2-7.2,0.4-10.3,0.6l-3.5,0.3c-5.5,0.3-11.2,0.7-16.7,1.1c-1,0.1-2,0.2-3,0.2
			c-2.1,0.2-4.4,0.3-6.5,0.4l-2.9,0.2l-2.7,0.2c-0.4,0.1-0.9,0.1-1.3,0.1c-1,0.1-2.1,0.2-3.3,0.2c-1.1,0.1-2.1,0.1-3.3,0.2
			c-2.2,0.1-4.6,0.2-6.9,0.3c-3.8,0.1-7.6,0.2-11.4,0.2h-0.4c-4.2,0-8.4-0.1-12.8-0.1c-2.7,0-5.6-0.1-8.3-0.2
			c-0.8,0-1.6-0.1-2.5-0.1c-3.1-0.1-6.5-0.2-9.6-0.3c-5-0.2-10.3-0.3-15.3-0.3l-2-0.1c-3.6-0.1-7.2-0.2-10.8-0.2
			c-4.2-0.1-8.5-0.1-12.2-0.1c-2.8,0-5.7,0.1-8.5,0.1c-1.1,0-2.4,0.1-3.6,0.1c-3,0.1-6.2,0.1-9.1,0.1c-1.5,0-3,0-4.6,0h1.2
			c-1.2,0-2.5,0-3.9,0c-1.2,0-2.5,0-3.9,0c-2.5,0-5.1,0-7.6,0c-5.4,0-9.4,0-13.4-0.1c-5.6-0.1-11.2-0.1-16.7-0.2
			c-2.1,0-4.2-0.1-6.4-0.1c-0.7,0-1.5-0.1-2.1-0.1c-1.9-0.1-3.9-0.1-5.8-0.2l-1.6-0.1c-4.4-0.2-8.7-0.3-13.1-0.6
			c-5.6-0.3-11.1-0.6-16.6-0.8c-9.6-0.5-19.1-1-28.5-1.6l-5-0.3c-3.3-0.3-6.6-0.4-9.9-0.6c-1.6-0.1-3.1-0.2-4.8-0.3
			c-3.6-0.3-7.2-0.4-10.8-0.7c-12-0.7-22.5-1.2-32.6-1.6c-5-0.3-10-0.4-15-0.6c-1.5-0.1-2.9-0.1-4.4-0.2l-1.2-0.1
			c-0.9-0.1-1.8-0.1-2.6-0.1c-1.9-0.1-3.9-0.2-5.7-0.2c-1.3,0-2.8-0.1-4.2-0.1c-3.1-0.1-6.6-0.1-9.9-0.2l-4.1-0.1
			c-3.9-0.1-7.8-0.1-11.7-0.1l-2-0.1c-4.4-0.1-8.7-0.2-13.2-0.3l-4.4-0.1l-4.4-0.1c-1.9-0.1-4-0.2-5.9-0.3c-0.9-0.1-1.8-0.1-2.7-0.2
			c-9.9-0.4-20-0.8-31.1-1.5l-2.5-0.2c-8.5-0.5-17.4-1-26.1-1.4c-4.9-0.3-9.9-0.4-14.8-0.7c-2.6-0.2-5.4-0.3-7.8-0.3
			s-4.9-0.2-7.2-0.2l-1.2-0.1c-2.4-0.1-4.9-0.1-7.6-0.1c-6.5,0-13.1,0.2-19.5,0.3l-2.9,0.1h-0.7c-9.2,0.2-18.7,0.4-28,0.8
			c-4.6,0.2-8.8,0.5-13.4,0.8c-4.7,0.4-9.2,1-13.3,1.6c-9.4,1.4-19.4,2.5-27.6,3.5c-2.4,0.3-4.8,0.5-7.3,0.8
			c-5.6,0.5-11.2,1.1-16.6,1.6l-2.7,0.3c-4.7,0.4-9.5,0.8-14.4,1.3c-5.9,0.5-11.6,0.8-16.9,1l-1.7,0.1c-2,0.1-4.1,0.2-6.2,0.3
			l-1,0.1c-0.9,0.1-1.9,0.1-2.9,0.1h-1.8h-1.8l-1.6-0.1c-4.5-0.1-9-0.2-13.4-0.3c-1.8-0.1-3.7-0.2-5.5-0.2c-3.3-0.1-6.7-0.3-10-0.3
			c-5.8-0.2-11.5-0.3-17.3-0.5c-3.1-0.1-6.5-0.2-9.5-0.3c-2.1-0.1-4.4-0.2-6.5-0.3l-4.5,0.3l-5.1-0.2c-2.2-0.1-4.6-0.1-7.2-0.2
			l-4.1-0.1l-4-0.1c-0.7,0-1.2,0-1.9,0c-1.3,0-2.7,0-4.1,0.1c-0.9,0-1.9,0-2.8,0.1c-5.7,0.1-11.5,0.1-16.5,0.2
			c-3.6,0.1-6.9,0.1-11.1,0.1h-3.5h0.2c-8.3-0.1-16.7-0.2-25.1-0.3c-2.7-0.1-5.5-0.1-8.1-0.1l-3.6-0.1c-1.1,0-2.1,0-3.3,0
			c-2.8,0-5.8-0.1-8.7-0.1l-2.9-0.1c-7.5-0.2-15.2-0.3-22.8-0.6l-1.3-0.1c-7.9-0.3-16.1-0.6-24.3-0.8c-8.2-0.3-16.7-0.5-26.3-0.8
			c-2.9-0.1-6-0.2-9-0.3l-4.1-0.2c-3.1-0.1-6.4-0.2-9.4-0.2c-1.3-0.1-2.7-0.1-4.1-0.1c-8.5-0.2-17.2-0.3-25.4-0.3
			c-0.8,0-1.6,0-2.4,0c-2.4,0-4.7,0-7,0.1c-1.3,0-2.8,0-4.2,0.1c-2.8,0-5.7,0.1-8.6,0.1H712c-8.4,0-17.3-0.1-26.3-0.2
			c-3.1-0.1-6.4-0.1-9.5-0.2l-2-0.1c-1.6-0.1-3.1-0.1-4.8-0.1c-2.5-0.1-5.1-0.1-7.6-0.2c-9.2-0.3-17.2-0.4-24.6-0.7
			c-6.9-0.3-14-0.6-20.7-0.9c-2.2-0.2-4.6-0.3-6.8-0.3c-1.2-0.1-2.6-0.1-3.9-0.2c-0.7,0-1.2-0.1-1.9-0.1c-0.7-0.1-1.3-0.1-1.9-0.1
			c-1.3-0.1-2.7-0.2-4.2-0.2c-4.8-0.1-9.6-0.2-14.5-0.2c-0.3,0-0.7,0-1,0c-0.9,0-1.9,0-2.8,0.1c-0.4,0-0.9,0-1.3,0l-3.5,0.1
			l-6.9,0.1c-3.3,0.1-6.7,0.2-9.9,0.3c-1.1,0.1-2.2,0.1-3.5,0.2c-4,0.2-8.1,0.3-12,0.5l-1.1,0.1c-3.8,0.2-7.6,0.3-12.2,0.5
			c-1,0.1-2,0.1-3,0.2c-2.9,0.2-5.9,0.3-9,0.3c-3.5,0.1-6.8,0.1-10.3,0.1l-5.1,0.1c-5.1-0.1-10.3-0.1-15.3-0.2
			c-3.8-0.1-7.6-0.2-11.3-0.3c-1.5-0.1-2.9-0.1-4.5-0.1c-3.8-0.1-7.5-0.3-11.2-0.3l-2-0.1l-7.8-0.3c-1.6-0.1-3.1-0.2-4.8-0.3
			c-0.8-0.1-1.5-0.1-2.2-0.2c-10.3-0.6-20.5-1.1-30.2-1.4c-11.5-0.5-23.2-1.1-34.1-1.6c-3.3-0.2-6.6-0.3-9.7-0.5l-1.9-0.1l-3.9-0.2
			c-3.8-0.2-7.6-0.4-11.4-0.6l-3.5-0.2c-3.8-0.3-7.6-0.4-11.4-0.7c-3-0.2-6.2-0.4-9.2-0.6c-1.8-0.2-3.6-0.3-5.4-0.4
			c-0.8-0.1-1.6-0.2-2.4-0.2c-9-0.7-17.9-1.6-26.5-2.5l-1.8-0.2l-3.7-0.3c-2.7-0.3-5.5-0.6-8.2-0.8l-1.6-0.2
			c-4-0.4-8.1-0.8-12.2-1.1c-1.8-0.1-3.9-0.2-6.2-0.2h-0.2c-3,0-5.7,0.1-8.3,0.2l-2.2,0.1c-2.8,0.1-5.8,0.2-8.6,0.4l-3.7,0.3
			l-3.1,0.2c-0.4,0.1-0.9,0.1-1.3,0.1c-1,0.1-1.9,0.1-2.9,0.2l-2,0.2l-11.4,1c-2,0.2-4.1,0.4-6,0.6l-1.8,0.3l-3.6,0.4
			c-2.4,0.3-4.8,0.5-7.2,0.8c-6.9,0.8-14,1.5-20.9,2.4l-3.9,0.4l-2.9,0.3c-1.7,0.2-3.5,0.3-5.1,0.4c-0.7,0.1-1.5,0.2-2.1,0.2
			c-5,0.4-9.9,0.7-14.8,1c-3.7,0.3-7.2,0.4-10.8,0.7c-6.2,0.3-12.4,0.8-18.7,1.2l-2.4,0.2c-4,0.3-7.9,0.5-12,0.8
			c-4.2,0.3-8.4,0.5-12.6,0.7l-1.3,0.1c-1.9,0.1-4,0.2-5.9,0.3c-2.6,0.2-5.3,0.3-7.9,0.3c-5.9,0.3-10.6,0.6-14.9,1
			c-4.8,0.4-9,0.8-12.9,1.4"/>
	</g>
	<g>
		<path class="st4" d="M296.2,79.8c-0.5,0-0.9,0.1-1.3,0.4c-0.4,0.3-0.6,0.7-0.8,1c-0.3,0.5-0.4,1-0.6,1.4c-0.2,0.5-0.4,1-0.5,1.5
			c-0.1,0.4-0.2,0.7-0.3,1c0,0.2-0.1,0.3-0.1,0.5c-0.1,0.4-0.2,0.8-0.3,1.1c-0.4,1.5-0.8,3.2-1,4.9c-0.1,0.8-0.2,1.5-0.2,2.2l0,0.5
			l-0.1,1l-0.1,1c-0.2,3.2-0.4,6.5-0.4,9.6v0.8c0,1.2,0,2.3-0.1,3.4l0,1.6c0,0.5,0,1-0.1,1.6v0.2l-0.3-0.9l-0.3-0.8
			c-0.6-1.8-1.2-3.6-1.9-5.2c-0.1-0.3-0.3-0.6-0.4-0.9c-0.3-0.7-0.5-1.4-0.8-2.2c-0.5-1.2-1-2.4-1.6-3.6c-0.6-1.3-1.2-2.4-1.8-3.5
			c-0.3-0.4-0.6-0.8-1-1.3c-0.3-0.4-0.8-0.7-1.2-0.9c-0.1,0-0.3-0.1-0.4-0.1c-0.4,0-0.8,0.1-1.1,0.2c-0.6,0.3-0.8,1-1,1.6
			c-0.3,1.2-0.2,2.5-0.1,3.7l0,0.5c0.1,0.8,0.1,1.5,0.2,2.2c0,0.3,0,0.5,0.1,0.8c0,0.5,0.1,1.1,0.2,1.7c0.1,0.9,0.3,2,0.4,2.9
			c0,0.2,0,0.4,0.1,0.5c0,0.1,0,0.2,0.1,0.2l0.2,1l0.2,1c0.1,0.8,0.4,1.5,0.6,2.2c0.2,0.8,0.4,1.6,0.6,2.4c0.1,0.5,0.3,1.2,0.4,1.7
			l0.3,1.2l0.2,0.6l0.2,0.6c0.2,0.6,0.3,1.3,0.4,2c-2.1-2-4.4-4.1-6.9-6.1c-1.1-0.9-2.3-2-3.4-2.9l-0.4-0.4
			c-0.4-0.4-0.8-0.8-1.2-1.1l-0.6-0.5c-0.2-0.2-0.4-0.4-0.7-0.6l-0.4-0.4c-0.4-0.4-0.8-0.7-1.2-0.9c-0.4-0.3-0.9-0.4-1.5-0.6l-0.1,0
			c-0.1,0-0.2,0-0.3-0.1c-0.2,0-0.4,0-0.5,0.1c-0.3,0.1-0.6,0.5-0.6,0.9c0,0.3,0,0.6,0,0.8c0,0.2,0.1,0.5,0.2,0.7v0
			c0.1,0.3,0.2,0.6,0.3,0.9c0.1,0.3,0.3,0.7,0.5,1.2c0.4,0.9,0.8,1.8,1.3,2.8c0.4,0.8,0.7,1.4,1,2.1l0.3,0.6
			c0.4,0.7,0.7,1.4,1.1,2.1l0.1,0.3c0.9,1.6,1.8,3.3,2.7,4.9l0.3,0.6c0.3,0.5,0.5,1,0.8,1.5l0.4,0.7l0.3,0.5
			c0.4,0.9,0.9,1.8,1.4,2.8c1,2.1,1.8,4,2.4,5.9c0.5,1.6,1,3.2,1.4,5c0.1,0.4,0.4,0.7,0.8,0.7c0.1,0,0.1,0,0.2,0
			c0.2,0,0.4-0.2,0.6-0.4c0.1-0.2,0.2-0.4,0.1-0.6c-0.4-1.5-0.8-2.8-1.1-4c0.1,0,0.2,0,0.3,0c0.3,0.1,0.5,0.2,0.8,0.3
			c0.3,0.1,0.5,0.2,0.8,0.2c0.7,0.2,1.5,0.4,2.3,0.6c1.1,0.2,2.3,0.4,3.7,0.5h0.1c2.2,0.2,4.5,0,6.7-0.1c0.4,0,0.8-0.1,1.2-0.1
			c0.5,0,1,0,1.5,0c0.3,0,0.5,0,0.8,0c0.7,0,1.3,0.2,1.9,0.3l0.3,0.1c0.8,0.2,1.7,0.4,2.5,0.5c0.2,0,0.4,0,0.6,0
			c0.7,0,1.4,0.1,2.1,0.1c1.2,0,2.5,0,3.8-0.1c0.7,0,1.4,0,2.2-0.1c0.7,0,1.3,0,2,0h0.6c0.9,0,1.8,0,2.8,0c0.9,0,1.9-0.1,3-0.2
			c0.4,0,0.8-0.1,1.3-0.2c0.7-0.2,1.3-0.3,1.8-0.5c0.7-0.3,1.2-0.7,1.7-1.4l0.1-0.2l0.2-0.4c0-0.2,0.1-0.3,0.1-0.5
			c0.1-0.4,0.1-0.7,0.1-1v-0.3c0-0.5,0-1,0-1.5c0-1.1-0.1-2.2-0.1-3.3v-0.3c-0.1-1.2-0.1-2.5-0.1-3.8l0-1.5c0-1.7-0.1-3.6-0.1-6.1
			c0-2.1,0-4.2,0.2-6.3c0.1-1.6,0.2-3.4,0.2-5c0-0.8-0.1-1.7-0.3-2.7c-0.3-1.2-0.7-2-1.3-2.6c-0.4-0.3-0.7-0.4-1.1-0.4
			c-0.1,0-0.1,0-0.2,0c-0.3,0-0.5,0-0.8,0.1c-0.3,0.1-0.5,0.3-0.8,0.4c-0.1,0.1-0.3,0.2-0.4,0.4c-0.2,0.2-0.4,0.4-0.5,0.6
			c-0.1,0.2-0.3,0.4-0.4,0.5l-0.1,0.2c-1,1.3-1.8,2.7-2.5,3.9c-0.9,1.5-1.7,3-2.6,4.5c-0.8,1.4-1.6,2.9-2.3,4.2l-0.1,0.2l0,0.1V116
			v0v0.1c0-1.8-0.1-3.6-0.1-5.7c0-0.7,0-1.4,0-2v-0.9v-0.8c0-1.8,0-3.7-0.3-5.5c-0.1-0.6-0.2-1.1-0.4-1.6c-0.1-0.2-0.2-0.4-0.4-0.6
			c-0.2-0.2-0.4-0.3-0.6-0.4l0,0c-0.1,0-0.2,0-0.4-0.1c-0.5,0-1,0.2-1.2,0.5c-0.4,0.4-0.7,0.8-0.9,1.4c-0.3,0.7-0.7,1.5-0.9,2.2
			l-0.1,0.3c-0.2,0.5-0.4,1-0.6,1.5c-0.5,1.2-1,2.5-1.6,3.8l-0.3,0.7c-0.4,1-0.8,2.1-1.3,3.1c-0.1,0.3-0.2,0.6-0.4,0.9
			c-0.2,0.6-0.4,1.1-0.7,1.6c0-0.3-0.1-0.5-0.1-0.8c-0.1-0.8-0.3-1.8-0.4-2.8c-0.2-1.9-0.4-3.7-0.6-5.9c-0.3-3-0.4-5.9-0.7-8.9
			c-0.1-1.1-0.2-2.2-0.3-3.3c-0.1-1.5-0.3-3.2-0.4-5.2l-0.1-0.7c-0.1-0.9-0.2-2-0.3-2.9c-0.1-0.6-0.2-1.2-0.3-2l0-0.1
			c-0.1-0.4-0.2-0.9-0.4-1.3C297.4,80.3,296.9,79.9,296.2,79.8"/>
		<path class="st4" d="M1263,114.8L1263,114.8c-0.5,0-1,0.1-1.4,0.2c-0.8,0.3-1.6,0.8-2.3,1.3l-0.1,0.1l-0.2,0.1
			c-0.4,0.2-0.7,0.5-1,0.7c-0.9,0.6-1.8,1.2-2.6,1.8c-1.6,1.1-3.2,2.2-4.8,3.3l-0.9,0.6c-0.5,0.4-1.1,0.8-1.6,1.1l-0.7,0.5
			c-0.2,0.2-0.5,0.4-0.8,0.5c-0.5,0.4-1.1,0.8-1.7,1.2c-0.5,0.4-1.1,0.8-1.7,1.3c-1.1,0.8-2.2,1.6-3.2,2.5l-2.9,2.3l-2.9,2.3
			c-1.2,0.9-2.3,1.9-3.5,2.8c-0.5,0.5-1.1,1-1.7,1.4l-0.9,0.7c-0.8,0.7-1.6,1.3-2.3,1.9c-2.5,2.1-4.9,3.9-7.5,5.2
			c-0.8,0.3-1.5,0.5-2.2,0.7c-0.1,0-0.3,0-0.4,0h-0.1c-0.3-0.7-0.4-1.5-0.6-2.3c-0.1-0.6-0.2-1.2-0.4-1.8c-0.1-0.3-0.1-0.6-0.1-1
			l-0.1-0.4c-0.1-0.4-0.1-0.8-0.1-1.3c0-0.2,0-0.4-0.1-0.6c-0.1-0.8-0.1-1.6-0.1-2.3c0-0.2,0-0.5,0-0.8l-0.1-1.9l-0.1-1.9
			c0-1.6-0.1-3.4-0.2-5.2c-0.1-1-0.2-1.8-0.4-2.6c-0.1-0.5-0.4-1-0.7-1.5c-0.1-0.2-0.2-0.4-0.3-0.6c-0.2-0.2-0.4-0.5-0.7-0.6
			c-0.2-0.1-0.5-0.2-0.8-0.2c-0.2,0-0.3,0-0.5,0.1c-0.6,0.2-1.1,0.3-1.6,0.7c-0.4,0.3-0.8,0.7-1.1,1.1c-0.1,0.1-0.2,0.2-0.3,0.4
			c-0.2,0.2-0.4,0.5-0.7,0.8l-0.4,0.5c-0.7,0.8-1.4,1.6-2,2.3c-1.5,1.7-3.1,3.5-4.5,5.2l-0.1,0.1c-1,1.1-2,2.4-2.9,3.6
			c-0.4,0.4-0.7,0.9-1.1,1.3c-0.8,1.1-1.8,2.2-2.7,3.4c-1,1.3-1.9,2.4-2.8,3.4l-0.5,0.5c-0.7,0.8-1.4,1.6-2.2,2.4
			c-0.5,0.4-0.9,0.7-1.4,0.9c-0.1,0.1-0.2,0.1-0.3,0.1h-0.1l-0.1-0.1c-0.2-0.6-0.3-1.2-0.4-1.8c0-0.2-0.1-0.3-0.1-0.5v0.1
			c-0.1-0.8-0.2-1.7-0.4-2.6c-0.2-1.2-0.4-2.5-0.5-3.7c-0.1-0.2-0.1-0.4-0.1-0.6c-0.1-0.3-0.2-0.6-0.4-0.8c-0.2-0.3-0.5-0.6-0.9-0.7
			h-0.2c-0.1,0-0.3-0.1-0.4-0.1c-0.1,0-0.2,0-0.4,0.1c-0.2,0.1-0.4,0.1-0.5,0.2c-0.2,0.1-0.4,0.3-0.7,0.5c-0.2,0.1-0.3,0.3-0.4,0.5
			c-0.1,0.1-0.1,0.2-0.2,0.2c-0.4,0.4-0.8,0.9-1.2,1.4l-0.7,0.8c-1.1,1.3-2.2,2.5-3.4,3.7l-0.2,0.2c-0.8,0.8-1.6,1.7-2.4,2.6
			c-0.2,0.2-0.4,0.4-0.6,0.6c-0.2,0.2-0.4,0.4-0.6,0.6c-0.5,0.5-1,1-1.5,1.6c-0.4,0.4-1,0.8-1.4,1.3c-0.6,0.5-1.1,0.8-1.6,1
			c-0.4,0.2-0.8,0.3-1.1,0.4c-0.1,0-0.1,0-0.2,0l-0.1-0.1l-0.1-0.1c-0.2-0.2-0.4-0.4-0.6-0.6c-0.1-0.2-0.2-0.4-0.4-0.7
			c-0.7-1.5-1.3-3.1-1.8-4.6c-0.2-0.5-0.4-1.1-0.6-1.6c-0.3-0.8-0.6-1.6-0.9-2.5c-0.4-1.2-0.8-2.5-1.4-3.7c-0.4-1-0.8-1.8-1.1-2.5
			c-0.5-1-1.1-1.7-1.6-2.2c-0.2-0.2-0.6-0.5-1-0.6c-0.2-0.1-0.4-0.1-0.7-0.1c-0.2,0-0.4,0.1-0.7,0.1l-0.2,0.1l-0.4,0.2
			c-0.2,0.1-0.3,0.2-0.5,0.4c-0.1,0.2-0.2,0.3-0.4,0.5c-0.1,0.2-0.2,0.5-0.3,0.8c-0.4,1.1-0.5,2.4-0.5,3.7c-0.1,0.7-0.1,1.4-0.1,2.2
			v0.2c-0.1,0.5-0.1,0.9-0.2,1.4c-0.1,0.4-0.1,0.7-0.2,1.1c-0.1,0.2-0.1,0.4-0.1,0.5c-0.2,0.9-0.4,1.8-0.6,2.7l-0.2,0.8
			c-0.2,0.8-0.4,1.5-0.6,2.2c-0.1,0.2-0.2,0.5-0.2,0.8l-0.2,0.9l-0.2,0.9c-0.4,1.2-0.8,2.3-1.2,3.5l-0.1,0.2c-0.8,2-1.7,4.1-2.8,6.2
			c-0.6,1.2-1.3,2.4-1.7,3.3c-0.1,0.1-0.1,0.1-0.1,0.2c-0.5,0.1-1,0.1-1.5,0.2l-0.4,0.1c-0.2,0-0.5,0.1-0.7,0.1
			c-0.2,0-0.5,0.1-0.8,0.1c-0.3,0.1-0.6,0.1-0.9,0.1c-0.1,0-0.2,0.1-0.4,0.1c-0.5,0.1-0.8,0.4-1.2,0.7c-0.2,0.2-0.5,0.5-0.6,0.8
			c-0.2,0.4-0.3,0.8-0.3,1.2v0.1v0.1c-0.1,0.8,0.5,1.6,1.2,1.9c0.3,0.1,0.6,0.2,1,0.2c0.2,0.1,0.4,0.1,0.7,0.1c0.1,0,0.2,0,0.4,0
			c0.3-0.1,0.6-0.1,0.8-0.1l0.2-0.1c1.1-0.2,2.3-0.4,3.4-0.5h-0.1c0.3-0.1,0.6-0.1,0.8-0.1l0.6-0.1c0.9-0.1,1.8-0.3,2.7-0.4
			c0.5-0.1,1-0.1,1.4-0.2c1.6-0.2,3.4-0.6,5.5-1.1c0.5-0.1,0.9-0.2,1.3-0.3c1.2-0.3,2.4-0.5,3.6-0.8c1-0.1,2.1-0.2,3.1-0.3
			c0.5-0.1,1-0.1,1.6-0.1c0.8-0.1,1.6-0.2,2.3-0.2c1-0.1,1.9-0.2,2.8-0.2c2.6-0.3,5.3-0.7,7.9-1.2c0.9-0.2,1.8-0.3,2.8-0.5
			c1.1-0.2,2-0.3,2.9-0.4c0.8-0.1,1.6-0.1,2.4-0.2h0.5c2-0.1,4.1-0.2,6.1-0.2c0.7,0,1.4,0,2.1,0c0.4,0,0.8,0,1.2,0
			c1.1,0,2.2,0.1,3.2,0.1c1.7,0.1,3.5,0.2,5.2,0.2l0.9,0.1c1.9,0.1,3.8,0.2,5.8,0.3c1.4,0.1,2.8,0.2,4.1,0.4l0.8,0.1
			c2.2,0.2,4.1,0.5,5.8,0.8c2.6,0.4,4.7,0.7,6.7,0.8c2.1,0.2,4.3,0.4,6.4,0.6c2,0.2,4,0.4,5.9,0.6l1.2,0.1c1.6,0.2,3.2,0.4,4.8,0.5
			c0.4,0,0.7,0.1,1.1,0.1c0.7,0.1,1.5,0.1,2.3,0.2l1,0.1c0.8,0.1,1.6,0.1,2.3,0.1c1.4,0.1,3,0.1,4.6,0.1c0.5,0,1.1,0,1.6,0
			c1.1,0,2.3-0.1,3.4-0.1s2.3-0.2,3.4-0.2c1.7-0.1,3.6-0.4,5.7-0.7c-0.1,0-0.2,0-0.4,0.1c1.1-0.2,2.2-0.4,3.2-0.7
			c1.2-0.4,2.3-0.8,3.2-1.3c0.8-0.4,1.7-1,2.4-1.5c0.5-0.4,1-0.8,1.6-1.3c0.7-0.6,1.3-1.3,1.7-2c0.4-0.6,0.8-1.1,1.1-1.7
			c0.3-0.4,0.5-0.8,0.8-1.3l0.1-0.1c0.5-0.8,1-1.7,1.4-2.6l0.3-0.7c0.4-0.7,0.7-1.4,1-2c0.4-0.8,0.6-1.5,0.8-2.2
			c0.5-1.6-0.2-3.5-1.6-4.3c-0.5-0.3-1.1-0.5-1.8-0.5c-0.1,0-0.1,0-0.2,0c-0.7,0.1-1.4,0.3-2,0.5l-0.3,0.1c-0.5,0.2-1,0.4-1.5,0.5
			l-0.8,0.3c-1.7,0.6-3.4,1.2-5.2,1.6c-0.2,0-0.5,0.1-0.8,0.1c-0.1,0-0.2,0-0.3,0c-0.5-0.1-0.9-0.2-1.3-0.3
			c-0.1-0.1-0.2-0.2-0.3-0.2c-0.1-0.8-0.1-1.6-0.1-2.3c0-0.4,0-0.7,0-1c0-1.1-0.1-1.9-0.1-2.8c-0.1-0.8-0.2-1.5-0.5-2
			c-0.3-0.5-0.7-1.1-1.2-1.4c-0.2-0.2-0.5-0.4-0.7-0.5c-0.2-0.1-0.5-0.2-0.8-0.3c-0.2-0.1-0.5-0.1-0.8-0.1c-0.3,0-0.7,0.1-1.1,0.1
			c-1,0.2-1.8,0.8-2.6,1.4l-0.2,0.1c-0.7,0.5-1.6,1.1-2.3,1.8c-0.4,0.4-0.8,0.7-1.3,1.1l-0.7,0.6c-0.4,0.4-0.9,0.8-1.3,1.1
			c-0.2,0.2-0.4,0.4-0.5,0.5c-0.5,0.5-1.1,1-1.6,1.5c-1,0.9-1.9,1.8-2.9,2.6c-1.9,1.6-3.6,2.6-5.2,3.4c-0.2,0.1-0.4,0.2-0.6,0.2
			c0.1-0.2,0.2-0.5,0.2-0.7v-0.1c0.8-2,1.5-3.7,2.3-5.3c1-2,1.9-4.1,3-6.4c0.6-1.2,1.1-2.3,1.7-3.5c0.3-0.6,0.6-1.3,0.9-1.9
			c0.4-0.8,0.8-1.7,1.3-2.5c0.5-0.9,0.9-1.9,1.4-2.8l0.1-0.1c1-2,2-4,3-6.1l0.2-0.5c0.6-1.3,1.2-2.6,1.7-3.9c0.3-0.7,0.5-1.4,0.6-2
			c0.1-0.7,0.1-1.3-0.2-2c-0.1-0.4-0.3-0.7-0.7-1.1c-0.2-0.2-0.5-0.4-0.8-0.6C1263.9,114.9,1263.4,114.8,1263,114.8"/>
		<path class="st4" d="M1502.8,59.4c-0.6-0.1-1,0.2-1.3,0.6c-0.2,0.4-0.4,0.7-0.6,1c-0.1,0.3-0.2,0.6-0.2,0.9c0,0.1,0,0.2,0,0.3
			c0,0.2-0.1,0.5-0.1,0.7c0,0.2,0,0.3-0.1,0.5v0.2l-0.3,2.1c-0.1,0.9-0.3,1.7-0.4,2.6c-0.1,0.5-0.1,0.9-0.2,1.3l-0.1,0.5
			c-0.2,1.4-0.5,2.9-0.6,4.3c-0.2,1.8-0.3,3.7-0.5,5.9c-0.1,2.4,0.1,4.9,0.3,7.2c0.1,1,0.2,1.9,0.2,2.9c0.2,1.4,0.2,2.9,0.4,4.3
			c0,0.4,0.1,0.8,0.1,1.2c0.1,0.9,0.1,1.7,0.2,2.6l0.1,1.4l0.1,2.5c0,1.4,0,2.8,0,4.2c0,1.9,0,3.7,0,5.6v1.6c0,1.2,0,2.3,0,3.5
			c0,0.4,0,0.8,0,1.3c0,1.1,0,2.2,0,3.3c-0.5-0.7-1.1-1.4-1.9-2c-0.5-0.5-1.1-0.8-1.7-1c-0.3-0.1-0.6-0.2-0.9-0.2
			c-0.6-0.1-1.1,0-1.5,0.2c-0.5,0.2-1.3,0.6-1.5,1.5c-0.2,0.6-0.3,1.2-0.4,1.8c-0.1,0.6-0.1,1.2,0,1.8v0.4c0,0.2,0,0.3,0.1,0.5
			l0.1,0.3c0.1,0.8,0.2,1.7,0.5,2.7c0.3,1.3,0.6,2.6,0.9,3.9c0.2,0.7,0.3,1.5,0.5,2.2l0.2,0.7c0.1,0.6,0.3,1.2,0.4,1.8l0.1,0.6
			c0.1,0.9,0.3,1.9,0.5,2.8l-0.2-0.1l-0.2-0.1c-1.7-1.7-3.3-3.4-4.7-4.9c-0.9-0.9-1.6-1.7-2.3-2.5l-0.8-0.7l-0.8-0.8l-0.3-0.2
			c-1-1-1.9-1.9-3.1-2.7c-0.4-0.3-0.8-0.5-1.4-0.7c-0.3-0.2-0.8-0.2-1.2-0.3c-0.1,0-0.2,0-0.3,0h-0.4h-0.4c-0.3,0.1-0.6,0.2-1,0.3
			c-0.5,0.2-1.1,0.7-1.5,1.2c-0.5,0.6-0.7,1.2-0.7,1.7v0.1v0.1c-0.1,0.5,0,1,0.2,1.6c0.2,0.5,0.4,1,0.7,1.5c0.5,1.1,1.2,2.1,1.7,3
			c0.7,1.3,1.5,2.6,2.3,3.8c0.6,0.9,1.2,1.9,1.8,2.8l0.2,0.3c0.5,0.7,0.9,1.4,1.3,2.2c0.6,1.2,1.3,2.4,1.9,3.7
			c0.2,0.3,0.3,0.7,0.5,1c0.3,0.6,0.6,1.2,0.9,1.8c0.5,0.8,0.9,1.5,1.3,2.2c0.1,0.2,0.2,0.3,0.5,0.6h-0.1c-0.9,0.2-1.5,0.3-2.1,0.5
			c-0.7,0.2-1.4,0.4-2.1,0.6l-0.2,0.1c-1.6,0.4-3.2,0.7-4.8,1l-0.7,0.2c-0.5,0.1-0.9,0.2-1.4,0.3c-0.1,0.1-0.3,0.1-0.4,0.1
			c-0.1,0.1-0.3,0.1-0.4,0.1c-0.5,0.1-1,0.3-1.4,0.5l-0.2,0.1l-0.2,0.1c-0.3,0.2-0.7,0.5-1.1,0.6c-0.3,0.3-0.6,0.5-0.9,0.9
			c-0.3,0.3-0.6,0.8-0.7,1.1c-0.2,0.6-0.3,1.2-0.2,1.8c0.1,0.7,0.3,1.3,0.7,1.7c0.2,0.3,0.5,0.6,0.7,0.7l0.1,0.1l0.1,0.1
			c0.5,0.3,1,0.6,1.6,0.6c0.1,0,0.2,0,0.4,0.1c0.1,0,0.3,0,0.4,0.1c0.1,0.1,0.3,0,0.4,0.1c0.7,0.1,1.4,0.2,2.1,0.3
			c0.2,0,0.5,0.1,0.7,0.1c0.7,0.1,1.8,0.3,2.7,0.4h0.2c0.5,0.1,1,0.1,1.4,0.1c0.6,0.1,1.1,0.1,1.7,0.2c1.1,0.2,2.2,0.4,3,0.6
			c0.9,0.2,1.8,0.5,2.7,0.7c0.5,0.1,0.9,0.2,1.4,0.3c0.8,0.2,1.5,0.5,2.3,0.6c1,0.3,2.3,0.6,3.8,0.7h0.3c1.2,0.1,2.5,0.1,3.6,0.1
			c1.3,0,2.5,0.1,3.8,0.1c0.7,0,1.4,0.1,2.1,0.1c0.5,0.1,1,0.1,1.6,0.1c1.3,0.1,2.5-0.1,3.8-0.2l0.2-0.1c1.1-0.1,2.2-0.3,3.4-0.4
			l0.2-0.1c2.4-0.3,4.7-0.6,7.1-0.9c2.7-0.3,5.1-0.7,7.5-1.1c0.6-0.1,1.2-0.3,1.7-0.5l0.5-0.1c0.6-0.2,1.3-0.5,1.8-0.9l0.1-0.1
			c0.8-0.5,1.3-0.9,1.8-1.3c0.6-0.5,1-1.1,1.3-1.5c0.2-0.3,0.3-0.6,0.5-1c0.2-0.4,0.3-0.8,0.5-1.1c0.1-0.2,0.1-0.3,0.2-0.5
			c0.9-2.3,1.7-4.5,2.6-6.4c0.5-1.1,1-2.2,1.5-3.3s1-2.2,1.5-3.3c0.6-1.3,1.1-2.5,1.6-3.8c0.5-1.1,0.9-2.3,1.3-3.3
			c0.2-0.6,0.3-1.2,0.5-1.7l0.1-0.2c0.2-0.7,0.3-1.4,0.1-2c-0.1-0.4-0.3-0.7-0.6-0.9c-0.3-0.2-0.5-0.3-0.7-0.4
			c-0.2,0-0.3-0.1-0.4-0.1c-0.2,0-0.4-0.1-0.6,0c-0.5,0.1-1,0.3-1.4,0.7c-0.9,0.6-1.7,1.3-2.5,2.1l-0.5,0.4l-0.1,0.1
			c-0.8,0.8-1.7,1.5-2.4,2.5c-0.5,0.7-1,1.4-1.5,2.2c-0.1,0.2-0.3,0.4-0.5,0.6c-1.1,1.6-2.3,3.3-3.8,5.4c-0.7,0.9-1.3,1.8-1.9,2.6
			l-0.3,0.4c-0.7,0.9-1.4,1.8-2.1,2.7c0.1-0.5,0.2-1,0.3-1.5v-0.2c0.2-1.1,0.5-2.2,0.7-3.4c0.1-0.6,0.2-1.3,0.3-1.8
			c0-0.3,0.1-0.6,0.1-0.9c0-0.2,0.1-0.5,0.1-0.7c0.2-1,0.3-1.9,0.6-2.8v-0.1c0.7-3,1.6-5.9,2.5-8.7c0.5-1.7,1-3.3,1.5-4.9
			c0.3-1.1,0.7-2.2,1.1-3.3c0.2-0.4,0.2-0.8,0.3-1.2l0.1-0.3c0.1-0.2,0.1-0.3,0.2-0.5c0.1-0.3,0.2-0.7,0.3-1
			c0.1-0.5,0.1-0.9,0.1-1.4c-0.1-0.2-0.1-0.4-0.2-0.6c-0.1-0.2-0.2-0.4-0.4-0.6c-0.1-0.1-0.1-0.2-0.2-0.2c-0.2-0.3-0.5-0.5-0.9-0.5
			c-0.4-0.1-0.7,0.1-1,0.3l-0.2,0.2c-0.2,0.2-0.6,0.4-0.8,0.7c-0.5,0.4-0.7,0.9-1,1.4l-0.1,0.2c-0.2,0.3-0.4,0.6-0.5,0.9l-0.3,0.5
			l-1.1,1.7l-0.5,0.9c-1.5,2.4-3.2,4.8-5.2,7c0.1-0.4,0.1-0.8,0.2-1.2c0-0.3,0.1-0.6,0.1-0.9c0.1-0.9,0.2-1.8,0.3-2.7l0.2-1
			c0.1-0.5,0.1-0.9,0.2-1.3l0.1-0.4c0.1-0.5,0.1-1.1,0.1-1.6l0.1-0.4v-0.3c0.1-0.5,0.1-1,0-1.5V122c-0.1-0.6-0.1-1.2-0.5-1.7
			c-0.3-0.5-0.7-0.7-1.3-0.7c-0.1,0-0.2,0-0.3,0c-0.2,0.1-0.6,0.1-0.9,0.3c-0.1,0.2-0.3,0.3-0.5,0.5l-0.2,0.3l-0.1,0.2
			c-0.3,0.6-0.7,1.2-1,1.9c-0.3,0.6-0.6,1.3-0.9,1.9c-0.3,0.8-0.7,1.7-1.1,2.5l-0.2,0.5c-0.5,1-0.9,2.1-1.3,3
			c-0.5,1.3-1.1,2.6-1.7,3.9c-1.1,2.5-2.2,5.1-3.3,7.6c-0.5,1.1-1,2.2-1.4,3.3c-0.2,0.5-0.5,1-0.6,1.5c-0.3,0.9-0.7,1.8-1.1,2.6
			c0-0.1-0.1-0.2-0.1-0.4c-0.1-0.6-0.1-1.2-0.2-1.8c-0.1-1.7-0.2-3.4-0.2-4.9c-0.1-2.5-0.2-5.1-0.3-7.5l-0.1-1.4
			c-0.1-2.6-0.1-5.3-0.2-7.9c-0.1-2.6-0.1-5.3-0.2-7.9c-0.1-1.9-0.2-3.8-0.3-5.6c-0.1-0.7-0.1-1.4-0.2-2.1c-0.1-1.8-0.2-3.7-0.3-5.4
			l-0.1-2c-0.1-0.8-0.1-1.6-0.1-2.4c0-0.3,0-0.7,0-1l-0.1-1.4c0-1.1-0.1-2.2-0.1-3.4c-0.1-1.5-0.1-3-0.1-4.5c0-0.9,0-1.8-0.1-2.7
			c0-1.7-0.1-3.4-0.2-5.1c-0.1-0.6-0.1-1.3-0.1-1.9c-0.1-1.8-0.2-3.7-0.4-5.4l-0.1-1.3c-0.1-1.6-0.3-3.1-0.5-4.6
			c-0.2-1.5-0.5-3.1-0.8-4.5c-0.2-0.7-0.3-1.5-0.6-2.2c-0.2-0.7-0.7-1.4-1.1-1.9C1503.6,59.7,1503.2,59.5,1502.8,59.4"/>
		<path class="st4" d="M747.9,59.9L747.9,59.9c-0.6,0-1.2,0.3-1.3,0.9c-0.2,1-0.4,1.9-0.5,2.8l-0.1,0.7l-0.3,1.4l-0.3,1.4l0.1-0.2
			c-0.4,2.3-0.8,4.7-1.2,7l0,0.2c-0.7,4.1-1.4,8.2-2.1,12.3c-0.4,2.3-0.7,4.5-1,6.9l-0.4,2.5c0,0.4-0.1,0.7-0.1,1.1l0,0.6l-0.4,3.4
			c0,0.4-0.2,0.9-0.2,1.3c-0.1,1-0.2,1.9-0.3,2.7l-0.5,6.1l-0.1,0.8l0,0.2c-0.1,0.9-0.2,1.8-0.1,2.6l0,0.2l0,0.2c0,2-0.1,4-0.2,5.9
			c-0.1,1.1-0.1,2.2-0.1,3.3l0,0.9c0,2.5-0.1,5.2-0.1,7.7c0,0.9-0.1,1.9,0,2.9c0,0.2,0,0.6-0.1,0.8l0,0.4c-0.1,1,0,2-0.1,2.9l0-0.1
			c-0.3-0.7-0.7-1.4-1.1-2.1c-0.4-0.8-0.9-1.6-1.3-2.3c-0.4-0.6-0.7-1.1-1-1.7c-1.5-2.7-2.9-5.6-4.2-8.1l-0.1-0.2
			c-0.4-0.7-0.6-1.2-1-1.9l-0.2-0.5c-0.4-0.7-0.7-1.3-1.1-2c-0.8-1.5-1.6-3-2.5-4.4c-0.4-0.8-0.8-1.4-1.1-2c-0.2-0.3-0.5-0.7-0.7-1
			l-0.1-0.1c-0.1-0.1-0.2-0.2-0.4-0.4c-0.2-0.1-0.3-0.3-0.7-0.3c-0.6,0-1,0.2-1.2,0.5c-0.3,0.3-0.2,0.9-0.3,1.2c0,0.1,0,0.2,0,0.3
			c-0.1,0.8,0.1,1.5,0.1,2.3l0,0.1l0.1,0.7c0.1,0.6,0.1,1.2,0.2,1.8l0.1,0.9c0.3,3.3,0.7,6.5,1.1,9.8l0,0.4c0.1,0.9,0.3,1.9,0.4,2.7
			c-0.1,0-0.1,0.1-0.2,0c-1,0.4-1.4,1.2-1.8,1.8c-0.5,0.9-0.4,2.2,0.3,3.8c0.2,0.8,0.7,1.4,1,1.9l0.1,0.1c0.6,0.9,1.3,1.7,2,2.3
			l0.2,0.1c0.2,0.1,0.3,0.3,0.4,0.4c0.1,0.7,0.3,1.6,0.5,2.3c0.1,0.5,0.6,0.9,1.1,0.9c0.2,0,0.2,0,0.4,0c0.5-0.1,0.9-0.6,0.9-1.3
			c0.2,0.1,0.5,0.3,0.8,0.4c0.4,0.2,0.8,0.3,1.3,0.4l0.3,0.1l0.6,0.1l0.6,0.1l0.8,0.2c0.6,0.1,1.1,0.3,1.7,0.5
			c0.6,0.2,1.1,0.3,1.8,0.5c1.8,0.5,3.2,0.7,4.6,0.9c1.2,0.1,2.5,0.2,4.2,0.4c0.5,0,0.9,0.1,1.4,0.1l0.6,0l0.2,0
			c0.8,0.1,1.5,0.1,2.3,0.2c2.7,0.2,5.6,0.4,9,0.6c1,0.1,2.1,0,3.1,0.1c0.6,0,1,0,1.5,0c1,0.1,1.9,0.1,2.8,0.1l0.2,0
			c0.6,0,1,0.1,1.6,0.1c0.7,0,1.4,0.1,2.1,0.1l0.7,0c1.6,0.1,2.9,0,4.1-0.1c1.2-0.2,2.5-0.9,3.3-1.5c0.6-0.4,1.2-0.8,1.8-1.2
			c0,0.4,0,0.8,0.1,1.1l0,0.3c0.1,1.8,0.3,3.9,0.7,5.9c0.1,0.7,0.8,1.3,1.6,1.3l0.1,0c0.5,0,0.9-0.2,1.3-0.4s0.6-0.9,0.6-1.3l0-0.4
			c-0.1-0.6-0.1-1.2-0.2-1.8l-0.2-0.9l-0.1-0.9c-0.1-0.8-0.2-1.6-0.3-2.5l-0.1-0.8c-0.1-0.7-0.1-1.4-0.2-2.2l0.1-0.2l0.4-0.4
			c1.1-1,1.2-2.4,0.3-3.5c-0.4-0.4-0.9-0.7-1.3-0.8l-0.1-1.6l-0.1-1c0-0.5-0.1-0.9-0.1-1.4l0-0.4c0-0.9-0.2-1.6-0.2-2.5l-0.1-1.4
			l-0.1-0.9c-0.1-0.9-0.1-1.8-0.2-2.7c-0.1-1.7-0.3-3.4-0.5-4.9l-0.1-0.8c-0.1-0.7-0.1-1.4-0.3-2.1c-0.2-1-0.3-2-0.7-2.9
			c-0.1-0.2-0.3-0.4-0.6-0.7c-0.2-0.1-0.3-0.3-0.6-0.3c-0.1,0-0.2-0.1-0.4-0.1c-0.6,0-1,0.2-1.4,0.6c-0.6,0.7-1,1.5-1.6,2.5
			c-0.5,0.9-0.7,1.7-1,2.5c-0.4,1-0.7,2.1-1,3.2l0,0.2l-0.3,1.1c-0.5,1.5-1,3.1-1.5,4.7c-0.2,0.6-0.4,1-0.5,1.5l-0.1,0.3
			c-0.4,1-0.8,2.1-1.3,3.1c-0.2,0.4-0.4,0.8-0.5,1.2c-0.5-1.5-0.8-2.9-1-4.4c-0.2-1.1-0.3-2.3-0.5-3.3l0-0.4l-0.2-1
			c-0.1-1.6-0.4-3.1-0.4-4.7l0-0.3c-0.1-1.3-0.2-2.6-0.4-3.8c-0.2-1.2-0.3-2.3-0.6-3.1c0-0.2-0.1-0.5-0.3-0.7
			c-0.1-0.1-0.2-0.4-0.4-0.6l-0.1-0.1c-0.2-0.1-0.3-0.3-0.5-0.3c-0.2-0.1-0.3-0.1-0.5-0.1s-0.3,0-0.5,0l-0.2,0.1
			c-0.1,0.1-0.2,0.1-0.3,0.2c-0.1,0.2-0.2,0.2-0.4,0.4c-0.3,0.3-0.5,0.8-0.6,1.2c-0.2,0.5-0.3,0.8-0.5,1.3c-0.2,0.7-0.4,1.4-0.5,2
			l0,0.2l0,0.2c-0.1,0.6-0.3,1.1-0.5,1.8c-0.2,0.9-0.5,1.7-0.6,2.6c-0.6,2.5-1.3,4.9-1.9,7.4c-0.2,0.8-0.4,1.5-0.7,2.4l-0.3,1.1
			c-0.1,0.4-0.2,0.8-0.3,1.1l-0.1,0.3c-0.2,0.6-0.4,1.2-0.5,1.9c0-0.3-0.1-0.6-0.1-0.9l0-0.2c-0.1-0.9-0.2-1.6-0.3-2.6l0-0.5l0-0.2
			l-0.1-1.1c-0.2-1.2-0.2-2.4-0.3-3.7c-0.1-1.2-0.2-2.4-0.3-3.6l0-0.4l-0.1-1c0-1.3-0.2-2.5-0.2-3.8c-0.1-1.9-0.2-3.6-0.3-5.3
			c-0.2-2.8-0.5-5.5-0.8-8.2c-0.3-2.1-0.5-4.4-0.6-6.5l-0.2-1.2l-0.1-1.6c0-1.3-0.2-2.4-0.3-3.8c-0.1-1-0.2-2-0.1-3.2
			c-0.1-0.5-0.1-1-0.1-1.6c-0.1-1.4-0.1-2.8-0.2-4.3l-0.1-0.7c0-1.3-0.2-2.5-0.2-3.8l-0.2-2.4l-0.2-2.4c0-0.4-0.1-0.7-0.1-1l0-0.2
			L751,74l0-0.2c-0.1-0.6-0.1-1.2-0.2-1.8c-0.2-1.5-0.5-3.1-0.6-4.7c0-0.5-0.2-0.9-0.2-1.3l-0.1-0.7l-0.1-0.5l-0.1-0.5l-0.1-0.5
			l0-0.1c0-0.3-0.1-0.6-0.2-0.9c-0.1-0.5-0.3-1-0.5-1.5C748.8,60.1,748.3,59.8,747.9,59.9"/>
		<path class="st2" d="M622,45.9c-0.5,0-1,0.1-1.5,0.2c-0.5,0.1-1,0.4-1.6,0.8c-0.5,0.4-0.8,0.8-1.1,1.3c-0.3,0.4-0.5,0.9-0.7,1.4
			L617,50c-0.3,0.7-0.5,1.5-0.7,2.3c-0.2,0.9-0.2,1.8-0.2,2.7c0,0.7,0.1,1.5,0.1,2.1v0.2c0.1,0.8,0.2,1.7,0.2,2.5l0.1,0.8l0.1,1.4
			c0.3,3.3,0.6,6.8,0.8,9.8v0.1V72v0.1c0.1,1.5,0.2,3.3,0.5,5l0.1,0.2l0.1,0.2c-0.1-0.2-0.3-0.4-0.5-0.6l-0.1-0.2l-0.1-0.1
			c-0.5-0.7-1.1-1.5-1.5-2.4c-0.2-0.7-0.5-1.3-0.7-2v-0.1l-0.1-0.5c-0.2-0.8-0.5-1.6-0.8-2.4c-0.4-0.8-0.7-1.6-1.1-2.4
			c-0.5-0.8-1.2-1.5-2-1.9c-0.4-0.2-0.8-0.4-1.3-0.4c-0.3-0.1-0.5-0.1-0.8-0.1h-0.1c-0.3,0-0.7,0.1-1,0.1c-0.5,0.1-0.9,0.4-1.3,0.8
			c-0.2,0.2-0.4,0.5-0.5,0.8c-0.1,0.2-0.2,0.4-0.3,0.7l-0.1,0.2c-0.2,0.5-0.3,1-0.4,1.5v0.1c-0.1,0.7-0.2,1.5-0.2,2.2
			c-0.1,0.8-0.1,1.7-0.1,2.5v0.4c0,1.6,0.1,3.2,0.5,5.1c0.1,0.6,0.3,1.2,0.4,1.8l0.1,0.5l0.2,0.8v0.1c0.1,0.5,0.2,1,0.4,1.4
			c0.3,1.1,0.6,2.2,1,3.1l0.1,0.2l0.2,0.5l0.2,0.7c0.2,0.7,0.5,1.5,0.7,2.4v0.1c0.2,0.7,0.4,1.5,0.7,2.2c0.2,0.5,0.4,1,0.5,1.3
			c0.1,0.2,0.2,0.4,0.3,0.5c0.2,0.5,0.6,0.9,0.8,1.2c0.8,0.9,1.9,1.4,3,1.8c0.3,0.1,0.6,0.2,1,0.3l0.2,0.1c0.7,0.2,1.4,0.2,2.1,0.3
			l0.4,0.1c0.7,0.1,1.5,0.1,2.1,0.2h0.1h0.1v0.1v0.1c0,1.1,0,2.2,0,3.1c0.1,1,0.1,2.1,0.2,3c0.1,1,0.3,2,0.6,3.3l0.1,0.5
			c0.1,0.3,0.1,0.6,0.2,0.9v0.1c0.2,0.7,0.3,1.3,0.5,1.9l0.1,0.2c0.2,0.5,0.4,1.1,0.5,1.6c0.1,0.4,0.1,0.8,0.1,1.2v0.2
			c0,0.3,0,0.6,0.1,0.9c-0.1,0.1-0.1,0.1-0.1,0.2c-0.2,0.4-0.2,0.8-0.1,1.1c0.1,0.2,0.3,0.5,0.5,0.7v0.1v0.1
			c0.1,0.2,0.1,0.4,0.1,0.5v0.1c0.1,0.8,0.2,1.5,0.7,2.1c0.2,0.3,0.5,0.5,0.8,0.6c0.2,0.1,0.5,0.2,0.8,0.2c0.1,0,0.1,0,0.2,0
			c0.4-0.1,0.7-0.2,1-0.4c0.2,0.1,0.5,0.2,0.8,0.2l0.2,0.1c0.4,0.1,0.9,0.2,1.4,0.2c0.4,0,0.8-0.1,1.2-0.1l0.6-0.1
			c0.6-0.1,1.2-0.2,1.8-0.3c0.1,0,0.3-0.1,0.5-0.1s0.4-0.1,0.5-0.1c0.5-0.1,1-0.2,1.4-0.3h0.1c0.1,0,0.2,0,0.3,0
			c0.4,0,0.8-0.1,1.2-0.2c0.3-0.1,0.5-0.2,0.7-0.2L637,121v0.1c-0.2,0.9-0.4,1.8-0.6,2.7c-0.2,0.7,0.1,1.6,0.8,1.9
			c0.2,0.2,0.5,0.2,0.8,0.2c0.2,0,0.3,0,0.5-0.1c0.4-0.1,0.8-0.4,1-0.8c0.2-0.5,0.4-1,0.6-1.5c0.1-0.3,0.1-0.6,0.2-0.9l0.1-0.2
			c0.1-0.4,0.1-0.9,0.2-1.3v-0.1c0.1-0.2,0.1-0.5,0.1-0.8c0.1-0.3,0.1-0.6,0.2-1l0.1-0.2l0.1-0.1v-0.1c0.1-0.3,0.1-0.5,0.2-0.8
			c0.1-0.5,0.2-1.1,0.4-1.6l0.1-0.2l0.1-0.5c0.4-1.7,0.7-3.4,1.1-5.1l0.2-0.6l0.2-0.4c0.3-0.6,0.5-1.1,0.7-1.7
			c0.1-0.2,0.2-0.5,0.2-0.7c0.1-0.1,0.1-0.2,0.1-0.3c0.1-0.1,0.1-0.2,0.1-0.4c0.1,0,0.3,0,0.5,0c0.5,0,1-0.1,1.5-0.1
			c0.4-0.1,0.8-0.1,1.1-0.2l0.2-0.1c0.4-0.1,0.8-0.2,1.3-0.3c0.8-0.2,1.5-0.5,2.2-0.9l0.1-0.1c0.5-0.2,1-0.5,1.5-0.8
			c0.1-0.1,0.2-0.2,0.4-0.3l0.2-0.2c0.5-0.4,1.1-1,1.5-1.6c0.5-0.7,0.9-1.4,1.3-2.2c0.5-1.1,1.1-2.7,1.7-4.4c0.2-0.5,0.3-1,0.4-1.6
			c0.1-0.5,0.1-1.1,0.1-1.8c-0.1-0.5-0.2-1-0.4-1.3c-0.1-0.2-0.2-0.4-0.4-0.6c-0.3-0.3-0.5-0.5-0.9-0.7c-0.2-0.1-0.5-0.2-0.7-0.2
			c-0.1,0-0.2,0-0.2,0c-0.3,0-0.5,0.1-0.7,0.1c-0.4,0.2-0.7,0.4-1,0.5c-0.5,0.4-0.9,0.7-1.3,1.1c-0.2,0.2-0.4,0.3-0.5,0.5l-0.2,0.2
			c-0.7,0.6-1.3,1.2-2,1.8c-0.4,0.3-0.7,0.6-1.1,0.8c-0.2,0.1-0.5,0.2-0.7,0.3c-0.3,0.1-0.6,0.1-1,0.2c0.5-2.1,1-4.2,1.4-6
			c0.4-1.6,0.6-3.3,0.8-5s0.2-3.3,0.1-4.8v-0.1v-0.2v-0.3c-0.1-0.6-0.1-1.2-0.2-1.8v-0.1c-0.2-1.1-0.3-2.3-0.6-3.4
			c-0.1-0.5-0.3-1-0.4-1.3c-0.2-0.6-0.5-1.3-0.9-1.9c-0.5-0.8-1.4-1.8-2.7-2.1c-0.3-0.1-0.6-0.1-0.8-0.1c-0.9,0-1.8,0.3-2.6,0.8
			c-1,0.7-1.8,1.8-2.5,2.8c-0.4,0.6-0.8,1.3-1.2,1.9l-0.1,0.1c-0.3,0.5-0.8,1.3-1.1,2.1c-0.4,0.8-0.7,1.7-1,2.4
			c-0.4,1-0.7,2.1-1,3.1l-0.3,1c0-0.8-0.1-1.5-0.2-2.3c-0.1-0.9-0.2-1.9-0.3-2.8v-0.1c-0.1-0.7-0.2-1.3-0.2-1.9
			c-0.2-1.5-0.4-2.8-0.5-4.3l-0.1-0.4c-0.2-1.5-0.4-3.1-0.7-4.6l-0.1-0.7l-0.1-1c-0.1-0.4-0.1-0.9-0.2-1.3v-0.2V62
			c-0.1-0.7-0.2-1.3-0.3-1.9c-0.4-1.8-0.7-3.3-1.2-4.8c-0.2-0.7-0.5-1.6-0.9-2.4c-0.3-0.7-0.7-1.5-1.1-2.2c-0.1-0.3-0.3-0.6-0.5-0.8
			c-0.4-0.5-0.8-1.1-1.3-1.7c-0.5-0.6-1.4-1.5-2.5-1.8C623.1,46,622.5,45.9,622,45.9"/>
		<path class="st2" d="M974.4,118.1c-0.2-0.1-0.5,0.1-0.7,0.2c-0.1,0.2-0.3,0.2-0.4,0.5c-0.1,0.2-0.2,0.4-0.3,0.6
			c-0.1,0.1-0.1,0.2-0.2,0.4l-0.1,0.1c-0.2,0.3-0.2,0.6-0.3,0.9l-0.1,0.2c-0.2,0.7-0.4,1.4-0.6,2.3c-0.2,1.4-0.5,2.7-0.6,4.1
			l-0.2,1.3c-0.1,1-0.3,2-0.5,2.9l-0.1,0.2c-0.1,1-0.3,2-0.6,3l-0.1-0.2c-0.6-1.1-1.1-2.1-1.8-3.1l-0.1-0.2
			c-0.4-0.7-0.9-1.5-1.4-2.3c-0.6-0.9-1.3-1.8-2-2.6c-1.1-1.4-2.4-2.6-3.6-4c-0.5-0.5-1-1-1.5-1.5l-0.3-0.3l-0.2-0.3
			c-0.2-0.2-0.4-0.4-0.6-0.6c-0.4-0.4-0.8-0.7-1.1-1l-0.2-0.1c-0.2-0.1-0.3-0.3-0.5-0.3c-0.3-0.2-0.6-0.3-1-0.3h-0.1
			c-0.3-0.1-0.7,0.1-1,0.3c-0.3,0.2-0.5,0.6-0.6,1.1c-0.1,0.5,0.1,1,0.2,1.5l0.1,0.2c0.1,0.4,0.2,0.9,0.3,1.3l0.2,0.5
			c0.4,1.1,0.7,2.3,1,3.5c0.5,1.7,1,3.4,1.5,5l0.2,0.5c0,0.1-0.1,0.3,0,0.4c-0.1,0.7,0,1.4,0.1,2c0.1,0.5,0.1,0.9,0.3,1.5
			c0.2,0.5,0.5,1,0.9,1.5c0.1,0.1,0.2,0.2,0.3,0.3c0.3,1.1,0.6,2.3,0.8,3.5c0.1,0.4,0.3,0.7,0.5,0.9c0.2,0.1,0.5,0.2,0.7,0.2
			c0.1,0,0.2,0.1,0.3,0c0.3-0.1,0.7-0.3,1-0.6c0.2-0.3,0.2-0.6,0.2-1l-0.1-0.4l-0.1-0.2c0.6,0.3,1.2,0.7,1.8,1
			c0.5,0.2,0.9,0.5,1.4,0.7c0.5,0.3,1,0.6,1.4,0.9c0.9,0.6,1.7,1.1,2.6,1.6c0.6,0.3,1.4,0.7,2.1,1c0.3,0.2,0.7,0.2,1,0.4
			c0.5,0.2,0.9,0.3,1.3,0.6c1.8,0.8,3.3,1.3,4.8,1.6c1.5,0.3,2.9,0.5,4,0.6l0.7,0.1l0.7,0.1c0.6,0.1,1.1,0.1,1.7,0.2
			c1,0.1,1.9,0.1,2.8,0.1c0.4,0,0.8,0,1.2,0c0.2,0,0.5,0,0.7,0c0.7,0,1.4-0.2,1.9-0.5c0.5-0.2,0.9-0.5,1.3-1
			c0.1-0.2,0.2-0.4,0.3-0.6l0.1-0.1c0.1-0.2,0.2-0.4,0.2-0.6c0-0.1,0-0.2,0.1-0.2c0.1-0.3,0.2-0.7,0.2-1.1l0.1-0.3
			c0.2-1.2,0.2-2.4,0.3-3.6l0.1-1.2l0.1-0.6c0.1-1.4,0.2-2.7,0.3-4.1c0.1-1.4,0.2-2.8,0.2-4.4c0.1-0.9,0-1.8-0.1-2.8
			c0-0.7-0.4-1.9-1.4-2c-0.9-0.1-1.4,0.6-1.9,1.1c-0.3,0.3-0.5,0.5-0.7,0.8c-0.8,0.9-1.6,2-2.3,2.9l-0.2,0.3c-0.7,1-1.5,2.1-2.4,3.1
			c-0.2-0.9-0.2-1.7-0.3-2.4c-0.1-0.6-0.1-1.2-0.1-1.9v-0.5l-0.1-0.5c-0.1-0.9-0.1-1.7-0.2-2.6c-0.2-1.4-0.7-2.2-1.5-2.6
			c-0.1,0-0.2-0.1-0.3-0.1c-0.3-0.1-0.8,0.1-1.2,0.3c-0.5,0.3-0.8,0.6-1.1,1.1c-1,1.2-1.8,2.6-2.6,4.1c-0.3,0.5-0.5,1.1-0.8,1.6
			c-0.4,0.7-0.7,1.5-1.1,2.2c-0.5-2.4-0.7-5-1-7.5L976,124c-0.1-0.8-0.2-1.7-0.3-2.4c-0.1-0.6-0.2-1.4-0.4-2
			c-0.1-0.2-0.1-0.3-0.2-0.5c-0.1-0.2-0.2-0.2-0.3-0.4c-0.1-0.1-0.3-0.2-0.5-0.2L974.4,118.1L974.4,118.1z"/>
		<path class="st2" d="M1622.1,153.2c-0.2,0-0.4,0-0.7,0c-1.1,0.1-1.7,1.1-2.3,1.9c-0.5,0.8-1.1,1.6-1.5,2.4l-0.3,0.5
			c-1,1.5-2,3.1-3,4.5l-0.2,0.3l-0.3,0.4l-0.1,0.1c-0.2,0.3-0.5,0.7-0.8,1c-0.1-0.8-0.1-1.6-0.1-2.3c0-0.5,0-1,0-1.6l0-0.9
			c0-0.8-0.1-1.7-0.1-2.4v0c0-0.8-0.2-1.9-1-2.3c-0.1-0.1-0.3-0.1-0.5-0.1c-0.3,0-0.6-0.1-0.8,0c-0.1,0-0.4,0.1-0.6,0.3
			c-0.2,0.1-0.3,0.2-0.4,0.3l0,0.1c-0.4,0.4-0.7,0.9-1,1.3c-0.2,0.3-0.4,0.6-0.6,1c-0.3,0.6-0.6,1.4-1,2.2c-0.5,1.1-0.9,2.3-1.3,3.5
			c-0.1,0.4-0.3,0.8-0.4,1.2l-0.1,0.3c-0.1,0.4-0.2,0.7-0.4,1.1c-0.1,0.2-0.1,0.4-0.2,0.6c-0.2,0.4-0.3,1-0.6,1.5
			c0-0.3-0.2-0.7-0.3-1.1c0-0.2-0.1-0.4-0.2-0.6l-0.1-0.5c-0.2-0.6-0.3-1.2-0.5-1.8c-0.2-0.8-0.5-1.7-0.8-2.7
			c-0.2-0.6-0.4-1.3-0.7-2.1c-0.1-0.4-0.4-0.8-0.6-1.3c-0.3-0.5-0.7-0.9-1.2-1.3c-0.2-0.1-0.3-0.2-0.5-0.2c-0.1,0-0.2,0-0.3,0
			c-0.3,0-0.6,0.2-0.8,0.3l0,0.1c-0.1,0.2-0.3,0.4-0.4,0.6c0,0.2,0,0.4-0.1,0.7v0.1c0,0.3,0,0.6,0,1c0,0.3,0,0.7,0,1.1
			c0,0.2,0,0.3,0,0.5c0,0.9,0,1.9,0.1,2.8l0,0.7v0.1v0c-0.4,0.5-0.9,1-1.2,1.6v0.1c-0.1,0.4-0.3,0.7-0.4,1.1
			c-0.2,0.6-0.2,1.3-0.3,1.8v0l0,0.2v0c0,0.4,0,0.6,0,0.9c0,0.6,0.1,1.3,0.2,1.9c0.1,0.7,0.6,1.2,1.1,1.7l0,0
			c0.1,0.1,0.2,0.2,0.3,0.2c0,0.7-0.2,1.5-0.2,2.3c0,0.3,0,0.6,0.1,0.9c0.1,0.2,0.4,0.4,0.7,0.5c0.3,0,0.7,0,1-0.2
			c0.2-0.2,0.4-0.4,0.4-0.6c0-0.3,0.1-0.7,0.1-1l0-0.5c0.2,0.1,0.5,0.1,0.7,0.2c0.5,0.1,1,0.3,1.5,0.4c0.1,0,0.3,0,0.4,0.1
			c1.6,0.3,3.3,0.6,5,0.7l0.2,0c1.6,0.2,3.8,0.5,6,0.8c1,0.1,2,0.4,3,0.5c0.9,0.1,1.9,0.1,2.9,0.1h0.4c0.9,0,1.8-0.1,2.7-0.1h0.1
			c0.4,0,0.9-0.1,1.5-0.2c0.4,0,0.7-0.2,1.1-0.3c0.6-0.2,1.2-0.5,1.7-0.9c1.2-1,1.6-2.6,1.9-4l0.2-0.9c0.1-0.7,0.3-1.4,0.4-2.1
			c0.4-1.9,0.8-3.9,1.4-6c0-0.3,0.1-0.6,0.2-0.9l0.1-0.4c0.1-0.5,0.1-1,0.2-1.6c0-0.9,0-1.5-0.3-2c-0.2-0.4-0.6-0.7-1.1-0.8
			c-0.6-0.1-1.2,0.2-1.6,0.5c-0.5,0.4-0.9,0.9-1.3,1.5l-0.1,0.2c-0.6,0.8-1.3,1.7-1.9,2.4c-0.4,0.5-0.8,1.1-1.2,1.6l-0.2,0.2
			c-0.3,0.5-0.8,1-1.1,1.5c0.1-0.8,0.3-1.5,0.4-2.3c0.1-0.4,0.1-0.8,0.2-1.1c0.2-1.1,0.4-2.1,0.6-3.2c0-0.3,0.1-0.6,0.1-1l0-0.3
			l0-0.1c0.1-0.9,0.2-1.8,0.2-2.6c0-0.6-0.1-1.1-0.4-1.4C1622.9,153.5,1622.6,153.3,1622.1,153.2 M1600.4,165
			c-0.2-0.3-0.5-0.6-0.8-0.8c0,0-0.1,0-0.2-0.1v-0.8v-0.6c0-0.3,0-0.7,0-1v-0.3c0.2,0.6,0.3,1.1,0.5,1.7c0.1,0.3,0.1,0.5,0.2,0.7
			C1600.3,164.1,1600.3,164.5,1600.4,165"/>
		<path class="st2" d="M161.6,119.9c-0.2-0.1-0.4-0.1-0.6-0.1c-0.5,0.1-0.8,0.3-1.1,0.4c-0.8,0.5-1.4,1.2-2,1.8
			c-0.6,0.7-1.2,1.5-1.9,2.6c-0.7,1.1-1.4,2.2-2,3.2c-0.7,1.1-1.3,2.3-1.9,3.4l-0.3,0.5c0-1.1-0.1-2.1-0.1-3.1c-0.1-1-0.1-2-0.2-3.2
			l-0.2-1.5l-0.1-0.6c-0.1-0.7-0.2-1.4-0.3-2c-0.1-0.3-0.2-0.6-0.3-1c-0.1-0.2-0.2-0.4-0.3-0.6c-0.1-0.2-0.3-0.3-0.4-0.4
			c-0.2-0.2-0.5-0.3-0.7-0.4c-0.1,0-0.2-0.1-0.2-0.1c-0.3-0.1-0.6,0-1.1,0.2c-0.6,0.3-1.1,0.8-1.4,1.6c-0.3,0.5-0.4,1-0.6,1.5
			c-0.1,0.2-0.1,0.3-0.1,0.5c-0.4,1.1-0.7,2.3-0.9,3.4c-0.3,1.2-0.5,2.4-0.7,3.6l-0.2,0.8c-0.2,0.7-0.3,1.5-0.5,2.3
			c-0.1,0.1-0.1,0.2-0.1,0.3c-0.1-0.2-0.1-0.4-0.2-0.6l-0.1-0.2c-0.3-0.8-0.7-1.6-1-2.4c-0.6-1.5-1.4-3.3-2.1-4.9
			c-0.4-0.8-0.9-1.6-1.3-2.3l-0.2-0.4c-0.4-0.7-0.8-1.3-1.3-2c-0.4-0.6-0.9-1.4-1.5-2.1c-0.2-0.3-0.5-0.7-0.8-1
			c-0.1-0.1-0.2-0.2-0.3-0.3l-0.1-0.2c-0.1-0.1-0.1-0.2-0.2-0.2c-0.2-0.2-0.4-0.5-0.8-0.6l-0.1-0.1c-0.6-0.2-1-0.1-1.4,0.2
			c-0.5,0.4-0.7,1.2-0.5,1.8c0.1,0.3,0.3,0.5,0.5,0.7l0.1,0.2c0.1,0.2,0.2,0.4,0.3,0.7c0.3,1.2,0.5,2.5,0.7,3.7l0.1,0.7
			c0.2,1.4,0.4,2.8,0.7,4.3c0.1,0.8,0.2,1.6,0.3,2.4l-0.1,0.1c-0.1,0.7-0.1,1.5,0.1,2.3c0.2,0.9,0.3,1.7,0.5,2.3
			c0.1,0.1,0.1,0.3,0.2,0.4c0.2,1.4,0.4,2.7,0.6,4.1c0.1,0.7,0.6,1.3,1.2,1.4c0.2,0.1,0.4,0.1,0.6,0.1c0.6-0.1,1.2-0.6,1.4-1.2
			c0.2,0.1,0.3,0.2,0.4,0.3c1.1,0.8,2.2,1.4,3.3,1.8c1.3,0.5,2.6,0.8,3.8,1.2c0.4,0.1,0.7,0.2,1.1,0.3c0.9,0.3,1.6,0.4,2.4,0.6
			c1.3,0.3,2.4,0.4,3.5,0.5c0.4,0.1,0.8,0.1,1.2,0.1c0.7,0.1,1.4,0.2,2,0.2l0.9,0.1c0.8,0.1,1.6,0.2,2.5,0.3c1.2,0.1,2.2,0.2,3,0
			c0.8-0.1,2-0.3,2.9-0.9c0.8-0.5,1.5-1.4,1.9-2.6c0.2-0.5,0.4-1.2,0.5-1.7l0.1-0.5c0.3-0.9,0.5-1.9,0.7-2.9l0.1-0.2
			c0.1-0.5,0.2-0.9,0.3-1.3c0.1-0.7,0.3-1.3,0.4-1.9l0.1-0.7c0.2-0.9,0.4-1.8,0.5-2.8c0.1-0.6,0.2-1.3,0.3-1.9
			c0.1-0.5,0.1-0.9,0.1-1.6c0-0.7,0.1-1.5-0.3-2.3c-0.2-0.5-0.6-1.3-1.4-1.6c-0.1,0-0.2-0.1-0.2-0.1c-0.6-0.2-1.4,0-2,0.5
			c-0.7,0.5-1.2,1.2-1.7,1.7c-0.9,1.3-1.8,2.7-2.6,3.8c0.1-0.8,0.2-1.6,0.3-2.5l0.1-0.5c0.2-1.5,0.4-3-0.1-4.5
			c-0.2-0.6-0.5-1.1-1-1.5C162.1,120.1,161.9,120,161.6,119.9 M137.1,126.3c-0.1-0.4-0.2-0.8-0.2-1.2c0.2,0.3,0.3,0.6,0.5,0.9
			l0.1,0.2l0.1,0.1l0.1,0.1C137.4,126.3,137.3,126.3,137.1,126.3 M141.2,134.6c-0.2-0.2-0.4-0.4-0.6-0.6c-0.1-0.2-0.1-0.4-0.2-0.6
			c-0.1-0.4-0.1-0.7-0.2-1.1c0.2,0.6,0.5,1.1,0.7,1.7L141.2,134.6z"/>
		<path class="st3" d="M1007.3,127.1c-0.1,0-0.1,0-0.2,0.1c-0.3,0.1-0.6,0.2-0.7,0.5c-0.3,0.5-0.5,1-0.7,1.4
			c-0.1,0.2-0.1,0.5-0.2,0.7l-0.1,0.2c-0.1,0.3-0.2,0.6-0.3,1c-0.2,0.7-0.4,1.3-0.6,2c-0.1,0.2-0.2,0.3-0.2,0.5
			c-0.3-0.4-0.5-0.8-0.7-1.2l-0.1-0.2c-0.4-0.7-0.7-1.2-1-1.7c-0.1-0.2-0.3-0.4-0.4-0.6c-0.2-0.2-0.2-0.3-0.4-0.4
			c-0.3-0.3-0.5-0.4-0.8-0.4c-0.2,0-0.3-0.1-0.5,0c-0.7,0.2-1.1,0.8-1.3,1.1c-0.2,0.4-0.3,0.8-0.3,1.2l-0.1,0.2
			c-0.1,0.3-0.1,0.6-0.1,0.9l-0.1,0.1c-0.1,1.4-0.2,2.8-0.3,4.3c0,0.6,0,1.3,0.1,2c0.1,0.7,0.1,1.4,0.1,2.1
			c-0.2-0.2-0.4-0.5-0.6-0.7l-0.2-0.2v0.1c-1.2-1.4-2.4-2.7-3.8-3.9c-1.5-1.4-3.5-2.5-5.5-3.4c-0.4-0.2-0.9-0.4-1.3-0.4
			c-0.1,0-0.3,0.1-0.4,0.1c-0.2,0.1-0.4,0.1-0.5,0.2c-0.3,0.2-0.4,0.4-0.6,0.7c-0.3,0.7-0.1,1.5,0.2,2c0.2,0.5,0.5,0.9,0.8,1.2
			c0.5,0.7,1,1.5,1.5,2.3c1.3,1.9,2.7,3.9,4.1,5.8c0.1,0.2,0.2,0.2,0.3,0.3c-0.1,0.1-0.2,0.3-0.3,0.4l-0.1,0.3l-0.1,0.3
			c-0.1,0.5-0.1,0.9,0.1,1.3c0.1,0.1,0.1,0.2,0.2,0.3c0.1,0.3,0.2,0.4,0.4,0.7s0.3,0.4,0.6,0.8c0.4,0.4,0.7,0.6,1.1,1
			c0.7,0.4,1.5,0.6,2.3,0.8c0.3,0.1,0.6,0.2,0.9,0.2c0.2,0,0.4,0.1,0.6,0.1c0.2,0.1,0.5,0.1,0.7,0.1c0.3,0.1,0.6,0.2,0.9,0.2
			c1.2,0.2,2.4,0.2,3.5,0.3c1.2,0,2.1,0,2.9,0c1-0.1,2-0.1,3-0.2c1.1-0.1,2.3-0.1,3.4-0.2c1.4-0.1,3,0,4.5,0.1
			c0.6,0.1,1.2,0,1.8,0.1c0.5,0,1.1,0.1,1.6,0h0.1l0.3,0.1c0.9,0.1,1.7,0.2,2.6,0.1c0.9,0,1.8-0.1,2.9-0.3c0.5-0.1,1-0.2,1.5-0.3
			c0.6-0.1,1-0.3,1.5-0.4c0.5-0.2,1.1-0.5,1.5-0.7c0.5-0.3,0.9-0.7,1.1-1.2c0.2-0.5,0.3-1,0.2-1.7c0-0.8-0.2-1.5-0.3-2.3l-0.1-0.5
			c-0.2-0.9-0.4-1.8-0.5-2.8c-0.3-1.9-0.5-4-0.9-6v-0.1c-0.2-0.8-0.3-1.6-0.6-2.4c-0.5-1.1-0.9-2.3-1.7-3.3
			c-0.6-0.7-1.4-1.1-2.2-1.1c-0.2,0-0.5,0.1-0.7,0.1c-0.6,0.2-1.2,0.4-1.7,0.8c-0.4,0.3-0.6,0.7-0.9,1.1l-0.2,0.2
			c-0.2,0.3-0.4,0.6-0.6,0.8c-0.3-0.5-0.6-1-0.9-1.4c-0.2-0.3-0.4-0.7-0.6-1.1c-0.3-0.5-0.7-0.9-1.1-1.3c-0.2-0.2-0.5-0.4-0.7-0.5
			c-0.3-0.2-0.5-0.3-0.7-0.3h-0.1c-0.2,0-0.4-0.1-0.7,0c-0.1,0-0.1,0-0.1,0c-0.3,0.1-0.5,0.2-0.8,0.3c-0.4,0.3-0.8,0.7-1.1,1
			c-1.1,1.4-1.4,3.1-1.8,4.6c-0.2,0.6-0.3,1.2-0.4,1.8c-0.4-0.8-0.7-1.5-1-2.3l-0.3-0.7c-0.2-0.4-0.4-0.7-0.6-1.1l-0.2-0.4
			c-0.4-0.8-0.8-1.6-1.3-2.3c-0.4-0.5-0.9-0.9-1.5-1C1007.8,127,1007.5,127,1007.3,127.1"/>
		<path class="st3" d="M1291.7,132c-0.1,0-0.1,0-0.2,0c-0.7,0.1-1.5,0.7-1.5,1.5c0,0.2,0,0.5,0,0.7c0.1,0.3,0.1,0.6,0.2,0.9
			c0.1,0.4,0.2,0.8,0.4,1.2c0.2,0.5,0.4,0.9,0.6,1.4c0.6,2.5,1.1,5,1.4,7.1l0.1,0.4c-0.2,0.4-0.5,0.8-0.7,1.3
			c-0.2,0.4-0.4,1-0.5,1.4c-0.1,0.3-0.1,0.6-0.2,0.9c-0.1,0.3-0.1,0.7,0,1.1v0.3c0,0.4,0,0.7,0,1c0,0.9,0.1,1.8,0.1,2.7v0.7
			c0,1.1,0.1,2.3,0.2,3.6l0.1,0.6c0.1,1.1,0.2,2.2,0.6,3.2c0.6,1.4,1.9,2.5,3.4,3c1.3,0.4,2.7,0.6,4.1,0.7h0.3
			c1.2,0.1,2.4,0.2,3.5,0.2c0.4,0,0.8,0,1.2,0c1.6,0,3.3-0.1,4.9-0.1l1.5-0.1c0.9-0.1,1.8-0.1,2.7-0.2l0.6-0.1
			c0.7-0.1,1.2-0.1,1.8-0.2s1.2-0.3,1.9-0.6c0.6-0.2,1.1-0.7,1.5-1.1c0.1-0.1,0.2-0.2,0.2-0.4c0.2-0.3,0.3-0.6,0.4-0.8
			c0.2-0.5,0.2-1,0.3-1.6c0.1-0.6,0.1-1.2,0.1-1.7c0.1-1.2,0.1-2.4,0.2-3.5c0.1-1.1,0.1-2,0.1-3v-0.3c0-0.6,0-1.2,0.1-1.7
			c0-0.7,0-1.5-0.1-2.3c-0.1-0.7-0.2-1.4-0.4-2.2c-0.2-0.6-0.7-1.1-1.1-1.4c-0.2-0.2-0.7-0.4-1.1-0.4c-0.1,0-0.2,0-0.2,0
			s-0.2,0-0.2,0c-0.2,0-0.4,0.1-0.6,0.1c-0.6,0.2-1.1,0.6-1.5,0.9c-0.5,0.4-0.9,0.9-1.4,1.6c-0.5,0.7-0.9,1.5-1.4,2.3l-0.4,0.7
			l-0.2,0.3c-0.4,0.7-0.9,1.5-1.5,2.3c0-0.4,0-0.9,0-1.4c0.1-1.9,0.1-3.3,0.2-4.8l0.2-3c0.1-0.9,0.1-2,0-3c-0.1-0.7-0.2-1.3-0.4-1.9
			c-0.2-0.6-0.6-1.2-1.2-1.4c-0.2-0.1-0.4-0.1-0.7-0.2c-0.1,0-0.2,0-0.2,0c-0.2,0-0.3,0-0.5,0.1c-0.6,0.1-1.1,0.5-1.5,1
			c-0.2,0.2-0.4,0.6-0.6,0.9l-0.1,0.1c-0.2,0.3-0.4,0.7-0.6,1.1c-0.4,0.7-0.6,1.5-0.9,2.3c-0.4,1.2-0.7,2.4-0.9,3.5
			c-0.1,0.5-0.2,1-0.4,1.5c-0.2,0.7-0.4,1.4-0.7,2.1c-0.3-0.4-0.6-0.8-0.9-1.2l-0.4-0.6l-0.7-1c-0.3-0.5-0.7-0.9-1-1.4l-0.7-1.1
			c-1.1-1.6-2.3-3.3-3.3-5.1c-0.4-0.7-0.8-1.5-1.1-2.2c0-0.1-0.1-0.2-0.1-0.4c-0.1-0.4-0.2-0.7-0.2-1.1l-0.1-0.3
			c-0.2-0.7-0.3-1.5-0.8-2C1292.7,132.3,1292.2,132,1291.7,132"/>
		<path class="st3" d="M122.6,129c-0.1-0.1-0.3-0.2-0.5-0.3c-1.2-0.5-2.6-0.1-3.6,0.3c-0.6,0.2-1.1,0.5-1.7,0.8l-0.4,0.2
			c-0.8,0.4-1.5,0.8-2.3,1.3c-0.2,0.2-0.5,0.3-0.7,0.4c-0.6,0.4-1.3,0.8-1.9,1.2c-0.3,0.2-0.5,0.3-0.8,0.5c-0.3,0.2-0.6,0.4-0.8,0.6
			c-0.2,0.1-0.3,0.2-0.4,0.3l-0.4,0.3c-0.3,0.2-0.5,0.4-0.8,0.6c-0.8,0.6-1.8,1.3-2.7,2c-0.2,0.1-0.3,0.3-0.4,0.4
			c0.5-0.9,0.9-1.7,1.4-2.5c0.6-1.1,1.2-2.2,1.8-3.2l0.2-0.3c0.3-0.5,0.6-1.1,0.9-1.6l0.2-0.4c0.3-0.5,0.5-1.1,0.7-1.6
			c0.1-0.3,0.1-0.6,0.2-0.9c0.1-0.4,0-0.6-0.1-0.9c-0.1-0.3-0.2-0.5-0.5-0.7c-0.3-0.2-0.7-0.3-1.1-0.3c-1.2-0.1-2.2,0.5-3.2,1.2
			c-0.5,0.3-0.9,0.6-1.4,1c-0.9,0.7-1.8,1.4-2.5,1.9c-0.4,0.4-0.9,0.7-1.3,1.1c-1.3,1-2.6,2-3.8,3l-0.1,0.1
			c-0.5,0.4-1.1,0.8-1.6,1.1c0-0.1,0-0.3,0.1-0.4c0-0.1,0-0.1,0-0.2v-0.1V134c0.1-0.1,0-0.1,0-0.2c0.2-1.8,0.6-3.6,1.1-5.5
			c0.4-1.2,0.6-2.3,0.8-3.3c0.1-0.2,0.2-0.5,0.2-0.7l0.1-0.2c0.2-0.5,0.3-1.1,0.2-1.6c-0.2-0.5-0.4-0.9-0.8-1.3
			c-0.1-0.1-0.1-0.1-0.1-0.1c-0.4-0.3-1.2-0.3-1.7-0.1c-0.5,0.3-0.9,0.7-1.3,1.1c-0.2,0.2-0.4,0.5-0.6,0.7l-0.1,0.1
			c-0.3,0.4-0.6,0.8-0.9,1.2l-0.2,0.2c-0.6,0.8-1.2,1.6-1.8,2.4l-0.2,0.3c-0.3,0.4-0.5,0.7-0.7,1l-0.2,0.2l-0.3,0.4
			c-0.2,0.3-0.4,0.6-0.7,1c-0.3,0.4-0.4,0.7-0.6,1.1c-0.4,0.6-0.7,1.2-1.1,1.8c-0.7,0.9-1.5,1.9-2.4,2.8c-0.1-0.3-0.2-0.6-0.3-0.9
			c-0.1-0.2-0.1-0.3-0.1-0.4l-0.1-0.4c-0.1-0.4-0.2-0.8-0.3-1.2c-0.4-1.3-0.7-2.4-1.1-3.4c-0.1-0.4-0.2-0.7-0.3-1.1
			c-0.3-0.8-0.5-1.6-0.8-2.5c-0.2-0.6-0.4-1.2-0.6-1.7c-0.1-0.2-0.1-0.3-0.2-0.4c-0.2-0.4-0.3-0.8-0.5-1.3c-0.1-0.2-0.2-0.3-0.3-0.4
			c-0.3-0.2-0.7-0.3-1.2-0.2c-0.5,0.1-0.8,0.6-0.9,0.9c-0.1,0.4-0.1,0.8-0.1,1.2c0.1,0.2,0,0.3,0,0.5c0,0.4,0,0.7,0,1.2
			c-0.1,0.6-0.1,1.2-0.1,1.8l-0.1,0.2c-0.1,1.6-0.3,3.2-0.5,4.7c-0.2,1.4-0.3,2.7-0.5,3.8c-0.3,1.7-0.7,3.4-1.1,5l-0.1,0.1l-0.1,0.1
			c-0.5,0.8-0.7,1.7-0.7,2.6c0,0.7,0.2,1.5,0.6,2.3c0.1,0.3,0.5,0.7,0.8,0.9c0.1,0.1,0.2,0.2,0.4,0.3c0.2,0.2,0.4,0.3,0.7,0.4
			c0.3,0.2,0.7,0.3,1.1,0.4l0.3,0.1c0.7,0.3,1.5,0.4,2.2,0.6l0.5,0.2c1.7,0.5,3.6,1,5.4,1.5c0.9,0.3,1.8,0.5,2.7,0.8l0.7,0.2
			c0.6,0.2,1.3,0.4,2,0.5c2,0.5,4.1,0.7,6.1,0.8c2.6,0.2,5.2,0.7,7.7,1.3c0.5,0.1,1.1,0.2,1.6,0.3l0.4,0.1c1.6,0.3,3.2,0.6,4.8,0.4
			c0.6-0.1,1.1-0.2,1.5-0.5c0.6-0.4,0.9-1.1,1.1-1.5c0.2-0.5,0.3-0.9,0.4-1.3c0.2-0.7,0.4-1.6,0.7-2.4l0.1-0.1l0.1-0.1
			c0.4-0.9,0.8-1.8,1.2-2.6c0.5-1.1,0.9-1.9,1.4-2.7c0.7-1.3,1.4-2.6,2.1-3.9c0.4-0.7,0.7-1.4,1.1-2c0.4-0.8,0.9-1.8,1.4-2.7
			c0.3-0.6,0.6-1.4,0.8-2c0.2-0.6,0.3-1.1,0.3-1.7c0-0.3-0.2-0.7-0.3-0.9c-0.2-0.2-0.3-0.4-0.5-0.6C122.7,129.1,122.7,129,122.6,129
			"/>
		<path class="st3" d="M69.6,226.6c-0.2,0.3-0.4,0.7-0.3,1.1c0,0.4,0.2,0.7,0.5,1s0.7,0.3,1.1,0.3s0.8-0.3,1-0.5
			c0.2-0.3,0.4-0.7,0.3-1.1c0-0.4-0.2-0.7-0.5-1s-0.7-0.3-1.1-0.3C70.2,226,69.8,226.3,69.6,226.6"/>
		<path class="st3" d="M870.3,38.4c-0.1,0-0.3,0-0.4,0c-0.5,0-0.9,0.2-1.3,0.5l-0.1,0.1c-0.1,0.1-0.2,0.2-0.3,0.3
			c-0.1,0.1-0.2,0.4-0.3,0.6c-0.1,0.2-0.3,0.5-0.4,0.9c-0.2,0.5-0.4,1.1-0.6,1.6l-0.1,0.4l0,0.1c-0.1,0.4-0.3,0.9-0.5,1.3
			c-0.4,1.2-0.8,2.4-1.1,3.9c-0.5,2.4-0.9,4.9-1.2,7.3v0v0v0.1c-0.2,1.7-0.4,3.5-0.5,5v0.1c0,0.8-0.1,1.5-0.2,2.3l0,0.4v0.1
			c-0.1,1.3-0.2,2.8-0.3,4.2c0,0.8,0,1.6,0,2.4c0,0.8,0,1.4,0,2.1l0,0.8l0,0.8v0.3c0,0.5,0,1,0,1.5c0,0.2,0,0.5,0,0.7v0.1v0.1
			c0,0.2,0,0.4,0,0.7c0,0.6,0,1,0,1.4s0,0.8-0.1,1.2c0,0.1-0.1,0.3-0.2,0.4c-0.1,0.1-0.2,0.3-0.3,0.4c-0.1,0.1-0.3,0.3-0.5,0.4
			c-0.1,0-0.2,0.1-0.3,0.1c-0.2,0-0.5,0-0.8,0.1c-0.3,0-0.5,0-0.7-0.1c-0.1,0-0.2-0.1-0.4-0.1c-0.2-0.2-0.4-0.4-0.6-0.5
			c-0.1-0.1-0.3-0.3-0.4-0.5c-0.2-0.5-0.4-1-0.6-1.7c-0.3-1.4-0.5-2.5-0.7-3.5c-0.1-1.1-0.3-2.3-0.4-3.6c0-0.6-0.1-1.2-0.2-1.7
			c-0.1-0.6-0.3-1.3-0.6-2.1v0c-0.1-0.5-0.3-1.1-0.5-1.6l0-0.2c-0.2-0.8-0.4-1.5-1-2.1c-0.5-0.4-1.1-0.7-1.7-0.7
			c-0.2,0-0.5,0-0.8,0.1s-0.4,0.3-0.6,0.5c-0.1,0.1-0.2,0.3-0.4,0.4c-0.1,0.1-0.2,0.3-0.3,0.5l0,0l0,0.1c-0.1,0.2-0.2,0.4-0.3,0.6
			c-0.3,0.6-0.5,1.1-0.8,1.7c-0.1,0.3-0.2,0.6-0.3,0.9c-0.1,0.4-0.2,0.8-0.3,1.3c0,0.2,0,0.4-0.1,0.6c-0.1,0.6-0.1,1.2-0.2,1.8
			c0,0.5-0.1,1-0.2,1.4l0,0.5c-0.2,0-0.4-0.1-0.6-0.2c0,0-0.1-0.1-0.2-0.1c-0.1-0.1-0.2-0.2-0.3-0.4c-0.1-0.2-0.3-0.5-0.4-0.9
			c0-0.2-0.1-0.4-0.1-0.5c0-0.2-0.1-0.4-0.1-0.6c-0.1-0.2-0.2-0.5-0.3-0.7c0-0.1-0.1-0.2-0.1-0.3l-0.1-0.2c-0.1-0.3-0.2-0.6-0.4-1
			c-0.1-0.2-0.3-0.4-0.5-0.6c-0.2-0.1-0.4-0.3-0.6-0.3c0,0,0,0-0.1,0c-0.2,0-0.5,0.1-0.7,0.3c-0.4,0.4-0.7,1.1-0.8,1.6
			c-0.2,0.8-0.3,1.5-0.3,2.4v0.2c0,0.8,0,1.6,0,2.4c0,0.3,0.1,0.5,0.1,0.8v0c0,0.2,0.1,0.5,0.2,0.7s0.1,0.3,0.2,0.5
			c0.1,0.2,0.2,0.4,0.3,0.5l0,0.1c0.1,0.2,0.3,0.4,0.5,0.6c0.1,0.1,0.3,0.2,0.5,0.3c0.1,0,0.2,0.1,0.3,0.1c0.2,0.1,0.4,0.1,0.5,0.2
			c0.4,0.1,0.9,0.2,1.2,0.3c0.5,0.1,1.1,0.2,1.6,0.2c0,0.2,0,0.5,0,0.8c0,0.3,0,0.7,0,1c0,0.9,0.1,1.8,0.2,2.7
			c0.2,1.4,0.4,2.5,0.5,3.5c0.1,0.8,0.4,1.5,0.6,2.2c0.1,0.3,0.3,0.6,0.5,0.9l0.1,0.2c0,0.1,0.1,0.1,0.1,0.2l0,0.1l0.1,0.2
			c0.1,0.2,0.2,0.4,0.4,0.6l0.1,0.1c0.2,0.3,0.4,0.6,0.8,0.9c0.3,0.3,0.6,0.5,0.9,0.7L853,93c0.5,0.4,1.1,0.7,1.7,1
			c0.5,0.2,1.1,0.4,1.6,0.5c0.6,0.1,1.2,0.1,1.7,0.1h0.3c0.4,0,0.7,0,1,0c0.3,0,0.6-0.1,0.9-0.2h0.1l0.3,0c0.2,0,0.4-0.1,0.5-0.1
			c0,0.2,0,0.5,0,0.7v0.5c0,1,0,2.2,0,3.3c0,1.2,0,2.3,0,3.4c0,0.8,0,1.6-0.1,2.6l0,0.8c0,0.8-0.1,1.7-0.2,2.4v0.3
			c0,0.4,0,0.7-0.1,1.1c0,0.7-0.1,1.3-0.2,1.9v0.1c0,0.5-0.1,1.1-0.2,1.6c0,0.6-0.1,1.3-0.1,1.9v0.2c0,0.5,0,1-0.1,1.5
			c-0.1,1.3-0.2,2.7-0.2,4.3v0.1c0,0.2,0,0.4,0,0.6c0,0.8,0,1.6-0.1,2.5c-0.1,1.1-0.1,2.1-0.1,3c0,0.9,0,1.9,0,2.8
			c0,1.3,0,2.6,0,3.8v0.1c0,0.5,0,1.1,0.1,1.6c0.1,0.4,0.2,0.7,0.3,1c0.1,0.2,0.2,0.5,0.3,0.7l0,0l0.1,0.1c0.1,0.1,0.3,0.3,0.4,0.4
			c0.2,0.1,0.4,0.2,0.7,0.4c0.1,0,0.2,0.1,0.4,0.1l0,0c0,0-0.1,0-0.1,0l-0.1,0c-0.1,0-0.2,0-0.4,0c-0.5,0-1.1-0.1-1.6-0.2
			c-0.2,0-0.4-0.1-0.5-0.2c-0.2-0.1-0.4-0.2-0.6-0.3c-0.5-0.3-1-0.7-1.5-1.2c-0.4-0.4-0.7-0.8-0.9-1.1c-0.5-0.7-1-1.4-1.4-2.1
			c-0.3-0.5-0.5-1.1-0.7-1.6c-0.2-0.8-0.2-1.5-0.3-2.3c0-0.7-0.1-1.7-0.1-2.7c0-0.9,0.1-1.8,0.2-2.8c0-0.2,0-0.4-0.1-0.6
			c0.1-0.8,0.2-1.6,0.4-2.4c0.2-1,0.4-2.1,0.7-3.2c0-0.2,0.1-0.4,0.1-0.7v0l0.1-0.3l0-0.3c0-0.2,0.1-0.5,0.1-0.7c0-0.1,0-0.2,0-0.3
			c0-0.4,0-0.7-0.2-1s-0.5-0.5-0.9-0.5c-0.4,0-0.7,0.1-1,0.4s-0.4,0.7-0.6,1.1c0,0.1-0.1,0.2-0.1,0.3l-0.1,0.4
			c-0.1,0.3-0.2,0.6-0.4,0.9c-0.1,0.3-0.3,0.7-0.4,1l0,0.1c-0.2,0.5-0.4,1-0.6,1.4c-0.4,0.9-0.7,1.9-1.1,3c-0.1,0.2-0.1,0.5-0.2,0.7
			l-0.3-1l-0.1-0.4c-0.2-0.6-0.3-1.1-0.5-1.7c-0.1-0.3-0.2-0.6-0.3-0.8c0-0.1-0.1-0.3-0.1-0.4c-0.1-0.2-0.2-0.5-0.3-0.7
			c-0.2-0.5-0.6-0.8-1.1-0.8c0,0-0.1,0-0.2,0c-0.4,0-0.8,0.2-1.1,0.5c-0.1,0.1-0.1,0.2-0.2,0.4c-0.1,0.2-0.1,0.6-0.1,0.8
			c0,0.1,0,0.2,0,0.3v0.1v0.2v0.2v0.2c0,0.1,0,0.3,0,0.4c0,0.5,0,1,0,1.4c-0.3-0.5-0.7-1.1-1.1-1.6c-0.2-0.2-0.4-0.5-0.6-0.7
			c-0.2-0.2-0.3-0.3-0.5-0.5c-0.1-0.1-0.2-0.2-0.3-0.3c-0.2-0.1-0.6-0.3-0.9-0.4c-0.1,0-0.2,0-0.4,0h-0.1c-0.3,0-0.6,0.1-0.8,0.3
			c-0.4,0.3-0.7,0.8-0.8,1.5c0,0.3,0,0.6,0,1v0.3c0,0.6,0,1.2,0.1,1.8c0,0.2,0,0.5,0.1,0.8v0.1c0,0.3,0,0.6,0.1,0.9
			c0,0.6,0.1,1.2,0.1,1.6v0.2c0,0.7,0,1.4,0.4,2c0.2,0.3,0.6,0.6,1.1,0.6c0,0,0.1,0,0.2,0c0.5,0,1.1-0.2,1.3-0.6
			c0.2-0.3,0.3-0.6,0.4-1c0-0.1,0-0.3,0-0.5c0-0.4,0-0.8,0-1.2c0-0.3-0.1-0.7-0.1-1.1v-0.2l0-0.4c0,0.1,0,0.2,0.1,0.3v0l0.3,0.6
			l0,0.1c0.1,0.3,0.3,0.6,0.4,0.9c0.3,0.6,0.6,1.2,1.1,1.5c0.3,0.2,0.6,0.3,0.9,0.3c0.6,0,1.2-0.4,1.5-1c0.2-0.4,0.1-0.9,0.1-1.3
			v-0.1c0-0.2,0-0.4,0-0.5v-0.3V125c0,0.1,0,0.2,0,0.3l0.1,0.5c0.1,0.3,0.2,0.7,0.3,1.1c0.1,0.3,0.2,0.7,0.6,1
			c0.2,0.2,0.5,0.3,0.8,0.3c0,0,0.1,0,0.2,0c0.2,0,0.4-0.1,0.6-0.2c0,0,0.1-0.1,0.2-0.2c0,0.4,0.2,0.9,0.6,1.1c0,0,0,0,0,0.1
			c0,0.2,0,0.4,0,0.6c0,0.7,0.1,1.4,0.2,2.1c0.1,0.8,0.4,1.6,0.7,2.4c0.4,0.9,1,1.7,1.4,2.4c0.4,0.6,0.8,1,1.2,1.4
			c0.2,0.2,0.5,0.5,0.7,0.7c0.6,0.5,1.2,1,1.7,1.3c0.3,0.1,0.6,0.3,1,0.5c0.4,0.1,0.8,0.2,1.1,0.3c0.3,0,0.6,0.1,0.9,0.1
			c0.4,0,0.7,0,1,0c0.1,0,0.2,0,0.3,0c0.9,0,1.8-0.5,2.5-1c1.2-0.8,2.1-1.8,2.9-2.9c0.9-1.1,1.5-2.1,1.9-3.1
			c0.5-1.1,0.9-2.3,1.2-3.5l0-0.1c0.3-1.2,0.6-2.4,0.8-3.6c0.2-1.2,0.4-2.4,0.6-3.9c0-0.4,0.1-0.9,0.2-1.3c0-0.2,0-0.4,0.1-0.7
			c0.1-0.7,0.1-1.3,0.2-1.9l0.1-1c0.1-0.9,0.2-1.8,0.3-2.8c0-0.4,0.1-0.9,0.1-1.3v-0.1c0-0.7,0.1-1.4,0.2-2.1
			c0.1-1.3,0.3-2.6,0.5-3.9c0.2-1.3,0.3-2.6,0.5-4.1c0.1-0.9,0.2-1.7,0.2-2.5v-0.1v-0.1l0.1-1.1c0.1-1,0.2-1.9,0.3-2.9l0-0.3l0-0.2
			c0.1-1.2,0.3-2.5,0.4-3.8l0-0.5c0.1-1,0.2-2.1,0.2-3.3c0-0.7,0-1.3,0.1-2c0-0.7,0-1.3,0.1-2l0-0.8c0-1,0.1-2,0.1-3v-0.1v-0.2
			c0-1.2,0.1-2.5,0.1-3.8c0-0.4,0-0.8,0-1.2s0-0.8,0-1.2c0.1,0,0.2,0,0.3,0c0.1,0,0.3,0,0.4,0c0.6,0,1.3,0,2-0.2
			c0.9-0.1,1.7-0.4,2.4-0.7c0.9-0.3,1.6-0.9,2.3-1.4l-0.1,0.1l0.2-0.2c0.5-0.5,0.9-1,1.2-1.3c0.6-0.8,1.2-1.6,1.5-2.5
			c0.2-0.7,0.4-1.3,0.6-2c0.1-0.6,0.2-1.3,0.3-1.9c0.1-1.2,0.3-2.5,0.5-4.1c0-0.6,0.1-1.3,0.2-1.9c0-0.8,0.1-1.5,0.1-2.2
			c0-1.3,0-2.6-0.2-3.9c-0.1-1.2-0.2-2.4-0.6-3.7c-0.1-0.3-0.2-0.7-0.3-1l0-0.2c-0.2-0.6-0.4-1.2-0.7-1.7c-0.2-0.5-0.6-0.7-1-0.8
			c-0.1,0-0.2,0-0.3,0c-0.1,0-0.2,0-0.3,0c-0.2,0-0.4,0.1-0.5,0.2l-0.1,0c-0.1,0-0.2,0.2-0.3,0.3c-0.1,0.1-0.2,0.3-0.3,0.4
			c-0.1,0.3-0.3,0.5-0.4,0.8c-0.3,0.6-0.5,1.2-0.7,1.9l-0.2,0.6c-0.4,1.1-0.8,2.2-1.1,3.3c-0.1,0.6-0.3,1.2-0.4,1.9v0v0
			c-0.1,0.5-0.2,1-0.3,1.4c-0.2,0.6-0.3,1.2-0.7,1.8c-0.3,0.4-0.6,0.8-0.9,1.2c-0.4,0.4-0.8,0.7-1.1,0.9c-0.1,0-0.1,0-0.2,0
			c0-0.2,0-0.5,0-0.8c0-0.6,0-1.4,0-2.3c0-1.2-0.1-2.3-0.1-3.5v-0.1V53c0-0.7-0.1-1.3-0.1-2c0-0.2,0-0.4-0.1-0.6l0-0.2l-0.1-0.6
			l-0.1-0.5c-0.1-0.6-0.3-1.3-0.5-2c-0.1-0.3-0.2-0.6-0.3-0.9c-0.1-0.3-0.2-0.5-0.3-0.8l-0.2-0.8c-0.1-0.3-0.2-0.7-0.3-1.1l-0.1-0.5
			c-0.1-0.6-0.3-1.2-0.7-1.8c-0.2-0.5-0.5-0.9-0.9-1.2c-0.2-0.2-0.4-0.3-0.5-0.5c-0.1-0.1-0.2-0.2-0.4-0.3c-0.4-0.3-0.8-0.4-1.2-0.6
			C870.8,38.4,870.6,38.4,870.3,38.4"/>
		<path class="st3" d="M476.5,56.9L476.5,56.9c-0.4,0-0.8,0.1-1,0.1c-0.3,0.1-0.6,0.2-0.8,0.3c-0.4,0.1-0.7,0.3-1,0.5
			c-0.2,0.2-0.4,0.4-0.5,0.5l-0.1,0.1c-0.1,0.1-0.2,0.2-0.2,0.4l-0.1,0.1c-0.2,0.3-0.3,0.6-0.4,0.9c-0.2,0.5-0.4,1.1-0.5,1.7v0.1
			l0,0l0,0l0,0l0,0l0,0v0.1l0,0c-0.1,0.6-0.2,1.2-0.3,1.8v0.1c-0.1,0.7-0.2,1.4-0.2,2c-0.1,1.2-0.2,2.4-0.2,4.1
			c-0.1,0.7-0.1,1.4-0.1,2.1c-0.3,0.8-0.4,1.6-0.5,2.2c-0.1,0.7-0.2,1.4-0.3,2.1c-0.2,1.7-0.2,2.8-0.2,4.1c0,0.9,0,1.7,0.1,2.6
			l0.1,0.4v0.4c0,0.3,0.1,0.6,0.1,0.9c0,0.4,0,0.8,0,1.2c0,1,0.1,2.4,0.1,3.7c0.1,0.7,0.1,1.4,0.2,1.8l0.1,0.3l0.1,0.5v0.1v0.1
			c0.1,0.5,0.1,1,0.2,1.5c0.2,0.8,0.3,1.5,0.4,2.2s0.3,1.5,0.4,2.2c0.1,0.8,0.2,1.5,0.3,2.4c0.1,0.7,0.1,1.3,0.2,2v0.1v0.1l-0.1-0.1
			l-0.2-0.1l-0.4-0.2c-0.3-0.2-0.4-0.3-0.6-0.4c-0.2-0.2-0.4-0.4-0.5-0.7c-0.3-0.6-0.6-1.3-0.8-1.9c-0.2-0.5-0.4-1.1-0.5-1.7
			l-0.1-0.2l-0.1-0.2v0.1c-0.3-1-0.7-2-1-3l-0.1-0.3c-0.2-0.4-0.3-0.8-0.4-1.1c-0.6-1.6-1.4-3.2-2.1-4.6c-0.2-0.4-0.4-0.8-0.7-1.2
			c-0.2-0.3-0.4-0.7-0.6-1c-0.3-0.4-0.7-0.8-1.4-1.1c-0.3-0.1-0.6-0.2-0.9-0.2c-0.9,0-1.8,0.5-2.2,0.9c-0.8,0.6-1.3,1.5-1.5,2.7
			c-0.2,0.9-0.3,1.7-0.3,2.4c-0.1,0.9-0.1,1.9-0.2,2.8c-0.1,0.7-0.1,1.3-0.1,2v0.2V96c0,0.3,0,0.6,0,0.9v0.2c0,0.5-0.1,1-0.1,1.4
			c0,1.7,0,3.7,0.1,5.7c0.1,0.9,0.1,2,0.2,2.9v0.1v0.4v0.1c0.1,1.1,0.1,2.3,0.2,3.4c0.1,1,0.3,1.9,0.5,2.8v0.1
			c0.1,0.4,0.2,0.8,0.2,1.1c0.2,0.7,0.4,1.4,0.7,2.2c0.3,0.6,0.5,1.1,0.8,1.6c0.6,1.1,1.2,2.2,2,3.3l0.2,0.4l-0.3-0.5
			c0.7,1.1,1.2,2,1.9,2.9c0.3,0.4,0.7,0.8,1,1.2c0.7,0.8,1.4,1.4,2,1.8c0.7,0.4,1.3,0.7,1.9,0.9c0.7,0.3,1.4,0.4,2.2,0.5
			c0.7,0.1,1.2,0.2,1.8,0.2c0.2,0,0.4,0,0.7,0c0,0.3,0.1,0.7,0.1,1c0,0.4,0.1,0.7,0.1,0.9v0.3v0.2c0,0.2,0,0.4,0.1,0.7
			c0.1,0.9,0.1,1.8,0.2,2.6v0.1c0.1,0.5,0.1,1,0.1,1.5l0.1,1.4l0.1,0.4l0.1,0.4c0.1,0.7,0.1,1.4,0.2,2.1l0.1,0.7l0.1,1.2
			c0.1,1.4,0.2,2.9,0.2,4.4c0,0.2,0,0.4,0,0.6c0,0.3,0,0.7,0,1v0.2v0.2c0,0.5-0.1,1-0.1,1.5c0,1.1,0,2.3,0.1,3.4
			c0,0.3,0.1,0.6,0.1,0.9c0,0.7-0.1,1.4-0.1,2.1l-0.1,0.8v0.3v0.4c-0.1,2-0.3,4.2-0.4,6.4c-0.1,0.7,0.4,1.2,1.1,1.3
			c0.1,0,0.1,0,0.1,0c0.5,0,1.2-0.4,1.2-1.1c0.1-0.9,0.1-1.7,0.2-2.6c0.3,0.9,0.8,1.5,1.4,1.8c0.4,0.3,0.8,0.4,1.3,0.5
			c0.3,0.1,0.5,0.1,0.8,0.1c0.2,0,0.3,0,0.5,0c0.5,0,0.9-0.1,1.2-0.2c0.9-0.2,1.8-0.7,2.3-1.2c0.7-0.8,1.1-1.6,1.4-2.5
			c0.3-0.7,0.4-1.5,0.5-2.5c0.1-0.7,0.1-1.4,0.2-2.1c0.1-0.7,0.1-1.6,0.1-2.4c0-1.2-0.1-2.6-0.1-3.8v-0.8c-0.1-1.6-0.1-3.3-0.2-4.9
			h0.1c0.9-0.3,1.8-0.3,2.6-0.3h0.2c0.5,0,1.1,0,1.6-0.2c0.4-0.1,0.9-0.2,1.4-0.3c0.4-0.1,0.9-0.3,1.5-0.6c0.3-0.2,0.5-0.3,0.8-0.4
			c0.3-0.1,0.5-0.3,0.8-0.4c1-0.4,2-0.9,2.8-1.6c2.5-2.2,3.5-5.4,3.9-7.8c0.2-1,0.2-2.1,0.3-3.1V130c0.1-1.1,0.1-2.3,0.1-3.5
			c0-0.9-0.1-1.8-0.1-2.7l-0.1-0.8c-0.1-0.6-0.1-1.2-0.1-1.8v-0.3l-0.1-1c-0.1-1.7-0.2-3-0.3-4.3c-0.2-1.4-0.4-2.9-0.7-4.5l-0.3-1.2
			c-0.2-0.9-0.4-1.7-1-2.4c-0.5-0.7-1.2-1.1-1.8-1.1c-0.2,0-0.3,0-0.5,0.1c-0.3,0.1-0.5,0.2-0.8,0.4c-0.2,0.2-0.4,0.3-0.5,0.5
			c-0.2,0.3-0.4,0.7-0.6,1.1c-0.2,0.5-0.3,1.1-0.4,1.5c-0.1,0.4-0.1,0.7-0.2,1.1v0.1c-0.1,0.5-0.1,1-0.2,1.4l-0.1,0.7
			c-0.3,2.4-0.5,4.8-0.9,7.2c-0.2,1.1-0.3,2.3-0.4,3.5c-0.2,1.1-0.4,2.3-0.6,3.5c-0.3,1.3-0.7,2.8-1.4,4.1c-0.3,0.5-0.7,1.1-1.2,1.6
			c-0.3,0.3-0.6,0.5-0.8,0.7c-0.3,0.2-0.5,0.3-0.8,0.4c-0.1,0-0.2,0-0.2,0.1c-0.1,0-0.2,0-0.2,0c-0.1-0.1-0.2-0.2-0.3-0.3
			c-0.1-0.1-0.1-0.1-0.1-0.1c-0.2-0.3-0.3-0.7-0.4-1c-0.2-0.5-0.3-1-0.4-1.4c-0.1-0.7-0.2-1.3-0.3-1.9v-0.1l-0.1-0.4v-0.1
			c-0.1-0.5-0.2-1-0.2-1.4c-0.1-0.6-0.2-1.2-0.2-1.9c-0.1-1.2-0.2-2.4-0.2-3.5v-0.2v-0.2v-0.2l-0.1-1.5c-0.1-0.8-0.1-1.5-0.1-2.3
			v0.2c0-1-0.1-2.1-0.1-3.1c-0.1-1.2-0.1-2.5-0.1-3.7c0-0.7-0.1-1.3-0.1-2v0.3c0-0.4,0-0.8-0.1-1.1v-0.1c-0.1-1-0.1-2-0.1-3v-0.2
			v-0.2c0.2-0.1,0.5-0.1,0.7-0.2l0.3-0.1l0.2-0.1c0.3-0.1,0.5-0.2,0.8-0.2l0.2-0.1h0.1c0.8-0.2,1.7-0.4,2.6-0.8
			c0.8-0.3,1.5-0.7,2.4-1.4c0.8-0.6,1.5-1.3,2.1-2c0.4-0.5,0.8-0.9,1-1.3c0.3-0.5,0.5-1,0.7-1.5c0.4-1.4,0.5-2.9,0.7-4.3v-0.2
			c0-0.2,0.1-0.5,0.1-0.7c0.2-2,0.3-3.7,0.3-5.4c0.1-0.9,0.1-1.9,0-2.8c-0.1-0.8-0.1-1.5-0.3-2.5c-0.2-0.9-0.3-1.8-0.5-2.7
			c-0.1-0.3-0.1-0.5-0.2-0.8v-0.1c-0.1-0.2-0.1-0.3-0.1-0.5c-0.1-0.4-0.2-0.8-0.4-1.2c-0.1-0.3-0.2-0.5-0.3-0.8
			c-0.1-0.3-0.3-0.6-0.5-0.9l-0.1-0.1c-0.3-0.5-0.9-0.8-1.4-1c-0.2-0.1-0.5-0.2-0.8-0.2h-0.1c-0.1,0-0.2,0-0.2,0c-0.1,0-0.2,0-0.3,0
			h-0.2c-0.4,0.1-0.9,0.3-1.4,0.7c-0.4,0.3-0.6,0.7-0.9,1.2c-0.1,0.2-0.2,0.5-0.3,0.8l-0.1,0.2c-0.1,0.3-0.2,0.6-0.2,0.9
			c-0.1,0.3-0.1,0.7-0.2,1L489,78c-0.2,1-0.3,2-0.4,3.2l-0.1,0.6c-0.2,1.1-0.3,2.3-0.6,3.5c-0.1,0.2-0.1,0.4-0.2,0.7
			c-0.2,0.7-0.4,1.2-0.7,1.9c-0.2,0.3-0.4,0.5-0.6,0.8c-0.6,0.7-1.4,1.2-2.2,1.8v-0.1v-0.1c0-0.7-0.1-1.4-0.1-2.1v-0.7v-0.1
			c0-0.9-0.1-2-0.1-2.9c-0.1-1.1-0.4-2.2-0.6-3.2c-0.2-0.6-0.3-1.2-0.4-1.9l-0.1-0.5v-0.1c-0.2-1.1-0.4-2.3-0.8-3.5l-0.1-0.3
			l-0.1-0.2c-0.1-0.4-0.2-0.7-0.3-1.1v-0.1v-0.1v-0.1c0-0.7-0.1-1.4-0.1-2c0-0.4,0-0.8,0.1-1.1c0-0.3,0-0.5,0-0.8
			c0.1-1.5,0.1-3-0.1-4.5c-0.1-0.8-0.2-1.5-0.3-2.2v-0.1c-0.2-0.8-0.3-1.6-0.5-2.4c-0.1-0.3-0.3-0.8-0.5-1.1
			c-0.2-0.3-0.4-0.6-0.7-0.9c-0.5-0.6-1.1-1-1.8-1.2c-0.2-0.1-0.4-0.1-0.7-0.1C476.7,56.9,476.6,56.9,476.5,56.9"/>
	</g>
</g>
</svg>
