<?xml version="1.0" encoding="utf-8"?>
<!-- Generator: Adobe Illustrator 22.1.0, SVG Export Plug-In . SVG Version: 6.00 Build 0)  -->
<svg width="1800px" height="152px" version="1.1" xmlns="http://www.w3.org/2000/svg" xmlns:xlink="http://www.w3.org/1999/xlink" x="0px" y="0px"
	 viewBox="0 0 1800 152" style="enable-background:new 0 0 1800 152;" xml:space="preserve">
<style type="text/css">
	.st0{fill:#009FD7;}
	.st1{fill:#00ADEE;}
	.st2{fill:#21B9EC;}
	.st3{fill:#44C7F4;}
</style>
<g id="Layer_1">
	<g>
		<path class="st0" d="M661.2,83.3V14.2c-8.5-5-39.8-20.9-72,3.2c-20.6,15.4-49.8-14.6-76-3.1c-8.5,3.7-40.4,21.7-53.6,15.4
			C381.7-7.4,387.8,41.9,349.2,22c-52.7-27.2-57.6,28.8-127.4-4C194,5,165,26.4,137,27.3C95.5,28.7,86.3-1.9,57,14.7
			C46.3,20.8,21.9,25,9,16.4c-2.5-1.7-5.6-3.1-9-4.1v71H661.2z"/>
		<path class="st1" d="M0,106.9V35.5c9.4-5.7,15.3-5.4,25-2.5c31.4,9.3,63.9,7.9,94.9-6.4C156.1,9.9,176.7,34,206,37.5
			c20.2,2.4,44.2-20.9,71.3-16.9c31.5,4.6,43.8,27.9,94,1.4c15.8-8.2,53.5,16,79.1,16c48.1,0,36.3-31.4,100.9-5.3
			c47.3,19.1,86.8-37.6,109.9-18.5v92.7C661.2,106.9,0,106.9,0,106.9z"/>
		<path class="st2" d="M0,112.9V61.6c46.1-6.4,53.4-51.7,103.7-24c46.7,25.7,72.3-16,141.9,7.3c31,10.4,52.9-39.6,102.7-11.7
			c66,36.9,77.5-42.3,122.4-2.2c23.3,20.8,39.3,18.8,65,0.7c14-9.9,33.4-6.7,48.6,0.8C611,45.6,619,7.9,660,41.8
			c0.2,0.2,0.6,0.5,1,0.7v70.3L0,112.9L0,112.9z"/>
		<path class="st3" d="M0,112.9V69c8.5-4.4,24-16.8,72-2.1c26,7.9,48.8-18.9,75-8.7c8.6,3.3,40.9,11.4,54.6,7
			c68.6-22.3,71.8,10.9,110.4-6.8c52.7-24.2,57.6,25.6,127.4-3.5c27.8-11.6,56.8,7.4,84.8,8.3c41.5,1.2,50.7-26,80-11.2
			c10.8,5.4,35.1,9.1,48.1,1.5c2.5-1.5,5.6-2.7,8.9-3.6v63.2H0V112.9z"/>
	</g>
</g>
<g id="Layer_1_copy">
	<g>
		<path class="st0" d="M661.2,84.1V14.4c8.8-5,41.2-21.1,74.6,3.2c21.3,15.5,51.6-14.7,78.7-3.1c8.8,3.7,41.8,21.9,55.5,15.5
			c80.7-37.4,74.4,12.3,114.3-7.8c54.6-27.4,59.7,29,131.9-4c28.8-13.1,58.8,8.5,87.8,9.4c43,1.4,52.5-29.4,82.9-12.7
			c11.1,6.1,36.4,10.4,49.7,1.7c2.6-1.7,5.8-3.1,9.3-4.1v71.6H661.2z"/>
		<path class="st1" d="M1346,107.9v-72c-9.7-5.7-15.8-5.4-25.9-2.5c-32.5,9.4-66.2,8-98.3-6.5c-37.5-16.8-58.8,7.5-89.2,11
			c-20.9,2.4-45.8-21.1-73.8-17c-32.6,4.6-45.4,28.1-97.4,1.4C945.1,14,906,38.4,879.5,38.4c-49.8,0-37.6-31.7-104.5-5.3
			c-49,19.3-89.9-37.9-113.8-18.6v93.4C661.2,107.9,1346,107.9,1346,107.9z"/>
		<path class="st2" d="M1346,113.9V62.2c-47.7-6.5-55.3-52.1-107.4-24.2c-48.4,25.9-74.9-16.1-147,7.4
			c-32.1,10.5-54.8-39.9-106.4-11.8C916.9,70.8,905-9.1,858.5,31.3c-24.1,21-40.7,19-67.3,0.7c-14.5-10-34.6-6.8-50.3,0.8
			c-27.7,13.2-35.9-24.8-78.4,9.4c-0.2,0.2-0.6,0.5-1,0.7v70.9H1346V113.9z"/>
		<path class="st3" d="M1346,113.9V69.6c-8.8-4.4-24.9-16.9-74.6-2.1c-26.9,8-50.5-19.1-77.7-8.8c-8.9,3.3-42.4,11.5-56.5,7.1
			c-71-22.5-74.4,11-114.3-6.9c-54.6-24.4-59.7,25.8-131.9-3.5c-28.8-11.7-58.8,7.5-87.8,8.4c-43,1.2-52.5-26.2-82.9-11.3
			C709,58,683.9,61.7,670.4,54c-2.6-1.5-5.8-2.7-9.2-3.6v63.7H1346V113.9z"/>
	</g>
</g>
<g id="Layer_4">
	<rect y="65.7" class="st3" width="1800" height="147.3"/>
</g>
<g id="Layer_1_copy_2">
	<g>
		<path class="st0" d="M2007.2,82.1V13c-8.5-5-39.8-20.9-72,3.2c-20.6,15.4-49.8-14.6-76-3.1c-8.5,3.7-40.4,21.7-53.6,15.4
			c-77.9-37.1-71.8,12.2-110.4-7.7c-52.7-27.2-57.6,28.8-127.4-4c-27.8-13-56.8,8.4-84.8,9.3c-41.5,1.4-50.7-29.2-80-12.6
			c-10.7,6.1-35.1,10.3-48,1.7c-2.5-1.7-5.6-3.1-9-4.1v71H2007.2z"/>
		<path class="st1" d="M1346,105.7V34.3c9.4-5.7,15.3-5.4,25-2.5c31.4,9.3,63.9,7.9,94.9-6.4c36.2-16.7,56.8,7.4,86.1,10.9
			c20.2,2.4,44.2-20.9,71.3-16.9c31.5,4.6,43.8,27.9,94,1.4c15.8-8.2,53.5,16,79.1,16c48.1,0,36.3-31.4,100.9-5.3
			c47.3,19.1,86.8-37.6,109.9-18.5v92.7C2007.2,105.7,1346,105.7,1346,105.7z"/>
		<path class="st2" d="M1346,111.7V60.4c46.1-6.4,53.4-51.7,103.7-24c46.7,25.7,72.3-16,141.9,7.3c31,10.4,52.9-39.6,102.7-11.7
			c66,36.9,77.5-42.3,122.4-2.2c23.3,20.8,39.3,18.8,65,0.7c14-9.9,33.4-6.7,48.6,0.8c26.7,13.1,34.7-24.6,75.7,9.3
			c0.2,0.2,0.6,0.5,1,0.7v70.3L1346,111.7L1346,111.7z"/>
		<path class="st3" d="M1346,111.7V67.8c8.5-4.4,24-16.8,72-2.1c26,7.9,48.8-18.9,75-8.7c8.6,3.3,40.9,11.4,54.6,7
			c68.6-22.3,71.8,10.9,110.4-6.8c52.7-24.2,57.6,25.6,127.4-3.5c27.8-11.6,56.8,7.4,84.8,8.3c41.5,1.2,50.7-26,80-11.2
			c10.8,5.4,35.1,9.1,48.1,1.5c2.5-1.5,5.6-2.7,8.9-3.6v63.2H1346V111.7z"/>
	</g>
</g>
</svg>
