<?xml version="1.0" encoding="utf-8"?>
<!-- Generator: Adobe Illustrator 22.1.0, SVG Export Plug-In . SVG Version: 6.00 Build 0)  -->
<svg version="1.1" id="Layer_1" xmlns="http://www.w3.org/2000/svg" xmlns:xlink="http://www.w3.org/1999/xlink" x="0px" y="0px"
	 viewBox="0 0 661 103" style="enable-background:new 0 0 661 103;" xml:space="preserve">
<style type="text/css">
	.st0{fill-rule:evenodd;clip-rule:evenodd;fill:#009FD7;}
	.st1{fill-rule:evenodd;clip-rule:evenodd;fill:#00ADEE;}
	.st2{fill-rule:evenodd;clip-rule:evenodd;fill:#21B9EC;}
	.st3{fill-rule:evenodd;clip-rule:evenodd;fill:#44C7F4;}
</style>
<g>
	<path class="st0" d="M661.2,73.3V4.2c-8.5-5-39.8-20.9-72,3.2c-20.6,15.4-49.8-14.6-76-3.1C504.7,8,472.8,26,459.6,19.7
		c-77.9-37.1-71.8,12.2-110.4-7.7c-52.7-27.2-57.6,28.8-127.4-4C194-5,165,16.4,137,17.3C95.5,18.7,86.3-11.9,57,4.7
		C46.3,10.8,21.9,15,9,6.4C6.5,4.7,3.4,3.3,0,2.3v71H661.2z"/>
	<path class="st1" d="M0,96.9V25.5c9.4-5.7,15.3-5.4,25-2.5c31.4,9.3,63.9,7.9,94.9-6.4c36.2-16.7,56.8,7.4,86.1,10.9
		c20.2,2.4,44.2-20.9,71.3-16.9c31.5,4.6,43.8,27.9,94,1.4C387.1,3.8,424.8,28,450.4,28c48.1,0,36.3-31.4,100.9-5.3
		c47.3,19.1,86.8-37.6,109.9-18.5v92.7H0z"/>
	<path class="st2" d="M0,102.9V51.6c46.1-6.4,53.4-51.7,103.7-24c46.7,25.7,72.3-16,141.9,7.3c31,10.4,52.9-39.6,102.7-11.7
		c66,36.9,77.5-42.3,122.4-2.2c23.3,20.8,39.3,18.8,65,0.7c14-9.9,33.4-6.7,48.6,0.8c26.7,13.1,34.7-24.6,75.7,9.3
		c0.2,0.2,0.6,0.5,1,0.7v70.3H0z"/>
	<path class="st3" d="M0,102.9V59c8.5-4.4,24-16.8,72-2.1C98,64.8,120.8,38,147,48.2c8.6,3.3,40.9,11.4,54.6,7
		c68.6-22.3,71.8,10.9,110.4-6.8c52.7-24.2,57.6,25.6,127.4-3.5c27.8-11.6,56.8,7.4,84.8,8.3c41.5,1.2,50.7-26,80-11.2
		c10.8,5.4,35.1,9.1,48.1,1.5c2.5-1.5,5.6-2.7,8.9-3.6v63.2H0z"/>
</g>
</svg>
