<?xml version="1.0" encoding="utf-8"?>
<!-- Generator: Adobe Illustrator 22.1.0, SVG Export Plug-In . SVG Version: 6.00 Build 0)  -->
<svg version="1.1" id="Layer_1" xmlns="http://www.w3.org/2000/svg" xmlns:xlink="http://www.w3.org/1999/xlink" x="0px" y="0px"
	 viewBox="0 0 50 46" style="enable-background:new 0 0 50 46;" xml:space="preserve">
<style type="text/css">
	.st0{fill:none;stroke:#979797;stroke-width:2.28;stroke-linecap:round;stroke-miterlimit:10;}
	.st1{fill:#FF7733;}
	.st2{fill:#333333;}
	.st3{fill:none;stroke:#AD00AD;stroke-width:1.85;stroke-linecap:round;stroke-miterlimit:10;}
	.st4{fill:#332E2E;}
	.st5{fill:#F9CE1D;}
	.st6{fill:#AD00AD;}
	.st7{fill:#BF8F68;}
	.st8{fill:#FFFFFF;}
	.st9{fill:#F6BE1A;}
</style>
<g id="grid">
	<path class="st0" d="M38.4,44.4v-7 M9.9,44.4v-7"/>
	<path class="st1" d="M4.4,37.7h38.8c-1.6-6.2-8.7-9.7-12.9-9.7H4.4C4.4,28,4.4,37.7,4.4,37.7z"/>
	<path class="st2" d="M4.4,37.7v2.5h39.1c0-0.8-0.1-1.7-0.3-2.5H4.4z"/>
	<path class="st0" d="M48.8,40L48.8,40c0,2.7-2.2,4.8-4.8,4.8H33.2l0,0c-2.6,0-4.8-2.2-4.8-4.8 M20.5,40L20.5,40
		c0,2.7-2.2,4.8-4.8,4.8H5c0,0,0,0-0.1,0c-2.6,0-4.8-2.2-4.8-4.8"/>
	<path class="st1" d="M29.3,31.6V20.1c0,0,0,0,0.1,0c3.2,0.3,5.7,3,5.4,6.2v6.6"/>
	<path class="st3" d="M23.9,34.3c0-7.5-4.1-5.4-6.3-6.6"/>
	<path class="st4" d="M29.5,35.6c1.3,0,2.3,1.2,2.3,2.5c-0.1,1.3-1.2,2.3-2.5,2.3h-6.1l0,0c-0.4,0-0.6-0.3-0.5-0.6v-5.4h2.5v1.8l0,0
		c0,1,0.8,1.8,1.8,1.8l0,0C28.2,37.9,29.3,36.9,29.5,35.6C29.3,35.6,29.3,35.6,29.5,35.6z"/>
	<path class="st5" d="M25.1,36.8c0.4,0,0.6-0.3,0.5-0.6c0-0.4-0.3-0.6-0.6-0.6H24c-0.4,0-0.6,0.3-0.6,0.6c0,0.4,0.3,0.6,0.6,0.6
		H25.1L25.1,36.8z"/>
	<ellipse class="st6" cx="18.3" cy="21.1" rx="6.6" ry="7.9"/>
	<path class="st4" d="M11.7,20.3h13.1v0.8v1.3H11.7v-1.3C11.7,20.9,11.7,20.6,11.7,20.3z"/>
	<path class="st5" d="M24,20.3h1v2.1h-1V20.3z"/>
	<path class="st3" d="M18.3,15l8.9,3.8"/>
	<circle class="st7" cx="29.2" cy="19.6" r="2.1"/>
	<path class="st8" d="M26.2,21.3c0.5,0.3,1,0,1.3-0.5l1.4-3.2v-0.1c0.1-0.5-0.1-1-0.6-1.3c-0.5-0.1-1,0.1-1.3,0.6l-1.4,3.4
		C25.6,20.5,25.7,21,26.2,21.3z"/>
	<circle class="st7" cx="18.3" cy="8.6" r="4.7"/>
	<path class="st4" d="M20,6.5L20,6.5c-0.5,0-0.9,0.4-0.9,0.9s0.4,0.9,0.9,0.8c0.5,0,0.9-0.4,0.8-0.9C20.9,6.9,20.5,6.5,20,6.5z"/>
	<path class="st7" d="M23,8.6h1.7L22,5.5L23,8.6z"/>
	<path class="st6" d="M19.8,4.2l-7.6-2.5l1.6,6.9L19.8,4.2z"/>
	<path class="st8" d="M14.3,9.5l6.2-4.5c0.4-0.4,0.5-0.9,0.3-1.4l0,0c-0.4-0.4-0.9-0.5-1.4-0.3l-6.2,4.5l0,0
		c-0.4,0.4-0.5,0.9-0.3,1.4c0.3,0.3,0.5,0.4,0.9,0.4C14.1,9.6,14.2,9.5,14.3,9.5z"/>
	<circle class="st8" cx="11.6" cy="0.9" r="1"/>
	<path class="st8" d="M22.1,11.3c-1.7,0-1.9-1.9-1.9-1.9H23C22.9,10.1,22.6,10.8,22.1,11.3z"/>
	<path class="st9" d="M22.4,10.3c-0.6,0.3-1.3,0-1.7-0.5c-0.3-0.4-0.4-0.8-0.1-1.2c0.3,0.4,0.8,0.5,1.2,0.3c0.3-0.1,0.4-0.4,0.6-0.5
		c0.3-0.1,0.4-0.1,0.6,0c0.3,0.1,0.4,0.3,0.4,0.5C23.4,9.5,23,10.1,22.4,10.3z"/>
	<path class="st7" d="M18.9,8.8L18.9,8.8c0,0.6-0.4,1.2-1,1.2c-0.3,0-0.5-0.1-0.8-0.4c-1.3-1.3-0.5-3.8-0.5-3.8l2.1,2.2
		C18.7,8.2,18.9,8.4,18.9,8.8z"/>
</g>
</svg>
