<?xml version="1.0" encoding="utf-8"?>
<!-- Generator: Adobe Illustrator 22.1.0, SVG Export Plug-In . SVG Version: 6.00 Build 0)  -->
<svg version="1.1" xmlns="http://www.w3.org/2000/svg" xmlns:xlink="http://www.w3.org/1999/xlink" x="0px" y="0px"
	 viewBox="0 0 970 250" style="enable-background:new 0 0 970 250;" xml:space="preserve">
<style type="text/css">
	.st0{fill:#5A4A3D;}
	.st1{fill:#06552C;}
	.st2{fill:#725D4D;}
	.st3{fill:#09713A;}
	.st4{clip-path:url(#SVGID_3_);}
	.st5{clip-path:url(#SVGID_4_);}
	.st6{fill:none;stroke:#0B834B;stroke-width:6.786;stroke-miterlimit:10;}
	.st7{fill:#FFFFFF;stroke:#FFFFFF;stroke-width:1.131;stroke-linejoin:round;stroke-miterlimit:10;}
	.st8{fill:#06924A;}
	.st9{clip-path:url(#SVGID_7_);}
	.st10{clip-path:url(#SVGID_8_);}
	.st11{fill:none;stroke:#0DA960;stroke-width:6.786;stroke-miterlimit:10;}
	.st12{clip-path:url(#SVGID_11_);}
	.st13{clip-path:url(#SVGID_12_);}
</style>
<g id="result-trees">
	<g>
		<path class="st0" d="M381.8,184.3h9.2v39.4h-9.2V184.3z"/>
		<path class="st1" d="M386.3,80.2l-39.2,123.7h78.3L386.3,80.2z"/>
		<path class="st0" d="M320.1,196.4h6.3v27.2h-6.3V196.4z"/>
		<path class="st1" d="M323.2,124.3l-27.1,85.6h54.2L323.2,124.3z"/>
		<path class="st2" d="M351.4,194.2h7.5v29.5h-7.5V194.2z"/>
		<path class="st3" d="M355.1,114.2l-31.8,100.5h63.7L355.1,114.2z"/>
		<g>
			<defs>
				<polygon id="SVGID_1_" points="296.9,0.8 297.7,0.8 296.9,1.5 				"/>
			</defs>
			<defs>
				<polygon id="SVGID_2_" points="295.4,-0.8 294.6,-0.8 295.4,-1.5 				"/>
			</defs>
			<clipPath id="SVGID_3_">
				<use xlink:href="#SVGID_1_"  style="overflow:visible;"/>
			</clipPath>
			<clipPath id="SVGID_4_" class="st4">
				<use xlink:href="#SVGID_2_"  style="overflow:visible;"/>
			</clipPath>
			<g class="st5">
				<path class="st6" d="M389.1,135.6l-34,34l-33.9-34"/>
				<path class="st6" d="M389.1,158.2l-34,34l-33.9-34"/>
				<path class="st6" d="M389.1,180.8l-34,33.9l-33.9-33.9"/>
				<path class="st6" d="M389.1,67.8l-34,34l-33.9-34"/>
				<path class="st6" d="M389.1,90.5l-34,34l-33.9-34"/>
				<path class="st6" d="M389.1,113.1l-34,33.9l-33.9-33.9"/>
			</g>
		</g>
		<g>
			<path class="st7" d="M362.5,193.7c0,3.1-2.5,5.5-5.5,5.5c-3.1,0-5.5-2.5-5.5-5.5C351.4,193.7,362.5,193.7,362.5,193.7z"/>
			<path class="st7" d="M373.5,193.7c0,3.1-2.5,5.5-5.5,5.5c-3.1,0-5.5-2.5-5.5-5.5C362.4,193.7,373.5,193.7,373.5,193.7z"/>
			<path class="st7" d="M384.5,193.7c0,3.1-2.5,5.5-5.5,5.5s-5.5-2.5-5.5-5.5C373.5,193.7,384.5,193.7,384.5,193.7z"/>
			<path class="st7" d="M340.1,176.3c0,3.1-2.5,5.5-5.5,5.5s-5.5-2.5-5.5-5.5H340.1z"/>
			<path class="st7" d="M351.2,176.3c0,3.1-2.5,5.5-5.5,5.5c-3.1,0-5.5-2.5-5.5-5.5H351.2z"/>
			<path class="st7" d="M362.2,176.3c0,3.1-2.5,5.5-5.5,5.5c-3.1,0-5.5-2.5-5.5-5.5C351.2,176.3,362.2,176.3,362.2,176.3z"/>
			<path class="st7" d="M362.5,153.7c0,3.1-2.5,5.5-5.5,5.5c-3.1,0-5.5-2.5-5.5-5.5C351.4,153.7,362.5,153.7,362.5,153.7z"/>
			<path class="st7" d="M373.5,153.7c0,3.1-2.5,5.5-5.5,5.5c-3.1,0-5.5-2.5-5.5-5.5C362.4,153.7,373.5,153.7,373.5,153.7z"/>
			<path class="st7" d="M354.7,136.5c0,3.1-2.5,5.5-5.5,5.5s-5.5-2.5-5.5-5.5H354.7z"/>
		</g>
		<path class="st2" d="M417.2,178.8h10.4v44.8h-10.4V178.8z"/>
		<path class="st8" d="M422.5,66.8l-44.6,140.8h89.2L422.5,66.8z"/>
		<g>
			<defs>
				<polygon id="SVGID_5_" points="296.9,0.8 297.7,0.8 296.9,1.5 				"/>
			</defs>
			<defs>
				<polygon id="SVGID_6_" points="295.4,-0.8 294.6,-0.8 295.4,-1.5 				"/>
			</defs>
			<clipPath id="SVGID_7_">
				<use xlink:href="#SVGID_5_"  style="overflow:visible;"/>
			</clipPath>
			<clipPath id="SVGID_8_" class="st9">
				<use xlink:href="#SVGID_6_"  style="overflow:visible;"/>
			</clipPath>
			<g class="st10">
				<path class="st11" d="M470.1,96.8l-47.6,47.6l-47.6-47.6"/>
				<path class="st11" d="M470.1,128.5L422.5,176l-47.6-47.5"/>
				<path class="st11" d="M470.1,160.1l-47.6,47.5l-47.6-47.5"/>
				<path class="st11" d="M470.1,1.8l-47.6,47.6L374.8,1.8"/>
				<path class="st11" d="M470.1,33.5l-47.6,47.6l-47.6-47.6"/>
				<path class="st11" d="M470.1,65.2l-47.6,47.5l-47.6-47.5"/>
			</g>
		</g>
		<g>
			<path class="st7" d="M432.8,182c0,4.3-3.5,7.8-7.8,7.8c-4.3,0-7.8-3.5-7.8-7.8H432.8L432.8,182z"/>
			<path class="st7" d="M448.2,182c0,4.3-3.5,7.8-7.8,7.8c-4.3,0-7.8-3.5-7.8-7.8H448.2L448.2,182z"/>
			<path class="st7" d="M463.7,182c0,4.3-3.5,7.8-7.8,7.8c-4.3,0-7.8-3.5-7.8-7.8H463.7L463.7,182z"/>
			<path class="st7" d="M401.8,159.2c0,4.3-3.5,7.8-7.8,7.8s-7.8-3.5-7.8-7.8H401.8z"/>
			<path class="st7" d="M417.2,159.2c0,4.3-3.5,7.8-7.8,7.8c-4.3,0-7.8-3.5-7.8-7.8H417.2L417.2,159.2z"/>
			<path class="st7" d="M432.8,159.2c0,4.3-3.5,7.8-7.8,7.8c-4.3,0-7.8-3.5-7.8-7.8H432.8L432.8,159.2z"/>
			<path class="st7" d="M436.7,136.5c0,4.3-3.5,7.8-7.8,7.8s-7.8-3.5-7.8-7.8H436.7L436.7,136.5z"/>
			<path class="st7" d="M452.2,136.5c0,4.3-3.5,7.8-7.8,7.8c-4.3,0-7.8-3.5-7.8-7.8H452.2L452.2,136.5z"/>
			<path class="st7" d="M417.7,114.2c0,4.3-3.5,7.8-7.8,7.8s-7.8-3.5-7.8-7.8H417.7z"/>
			<path class="st7" d="M433.2,114.2c0,4.3-3.5,7.8-7.8,7.8s-7.8-3.5-7.8-7.8H433.2L433.2,114.2z"/>
			<path class="st7" d="M436.7,94.2c0,4.3-3.5,7.8-7.8,7.8s-7.8-3.5-7.8-7.8H436.7L436.7,94.2z"/>
		</g>
		<path class="st0" d="M570.7,189.8h8.3v35.7h-8.3V189.8z"/>
		<path class="st1" d="M574.8,95.3l-35.5,112.2h71.1L574.8,95.3z"/>
		<path class="st0" d="M638.5,193.5h7.3v31.4h-7.3V193.5z"/>
		<path class="st1" d="M642.1,110.4l-31.2,98.7h62.5L642.1,110.4z"/>
		<path class="st2" d="M607.2,195.4h7.5v29.5h-7.5V195.4z"/>
		<path class="st3" d="M610.8,115.5L579.1,216h63.6L610.8,115.5z"/>
		<g>
			<defs>
				<polygon id="SVGID_9_" points="296.9,0.8 297.7,0.8 296.9,1.5 				"/>
			</defs>
			<defs>
				<polygon id="SVGID_10_" points="295.4,-0.8 294.6,-0.8 295.4,-1.5 				"/>
			</defs>
			<clipPath id="SVGID_11_">
				<use xlink:href="#SVGID_9_"  style="overflow:visible;"/>
			</clipPath>
			<clipPath id="SVGID_12_" class="st12">
				<use xlink:href="#SVGID_10_"  style="overflow:visible;"/>
			</clipPath>
			<g class="st13">
				<path class="st6" d="M644.8,136.8l-34,33.9l-33.9-33.9"/>
				<path class="st6" d="M644.8,159.5l-34,33.9l-33.9-33.9"/>
				<path class="st6" d="M644.8,182l-34,34l-33.9-34"/>
				<path class="st6" d="M644.8,69.1l-34,33.9l-33.9-33.9"/>
				<path class="st6" d="M644.8,91.6l-34,34l-33.9-34"/>
				<path class="st6" d="M644.8,114.2l-34,34l-33.9-34"/>
			</g>
		</g>
		<g>
			<path class="st7" d="M618.2,194.9c0,3.1-2.5,5.5-5.5,5.5c-3.1,0-5.5-2.5-5.5-5.5H618.2L618.2,194.9z"/>
			<path class="st7" d="M629.3,194.9c0,3.1-2.5,5.5-5.5,5.5s-5.5-2.5-5.5-5.5H629.3L629.3,194.9z"/>
			<path class="st7" d="M640.3,194.9c0,3.1-2.5,5.5-5.5,5.5s-5.5-2.5-5.5-5.5H640.3L640.3,194.9z"/>
			<path class="st7" d="M595.8,177.5c0,3.1-2.5,5.5-5.5,5.5s-5.5-2.5-5.5-5.5H595.8L595.8,177.5z"/>
			<path class="st7" d="M606.9,177.5c0,3.1-2.5,5.5-5.5,5.5c-3.1,0-5.5-2.5-5.5-5.5H606.9z"/>
			<path class="st7" d="M618,177.5c0,3.1-2.5,5.5-5.5,5.5c-3.1,0-5.5-2.5-5.5-5.5H618L618,177.5z"/>
			<path class="st7" d="M618.2,154.8c0,3.1-2.5,5.5-5.5,5.5c-3.1,0-5.5-2.5-5.5-5.5H618.2L618.2,154.8z"/>
			<path class="st7" d="M629.3,154.8c0,3.1-2.5,5.5-5.5,5.5s-5.5-2.5-5.5-5.5H629.3L629.3,154.8z"/>
			<path class="st7" d="M610.5,137.7c0,3.1-2.5,5.5-5.5,5.5c-3.1,0-5.5-2.5-5.5-5.5H610.5L610.5,137.7z"/>
		</g>
	</g>
</g>
<g id="Layer_2">
	<g>
		<path class="st7" d="M597.8,234.8c0-7,5.7-12.7,12.7-12.7s12.7,5.7,12.7,12.7H597.8z"/>
		<path class="st7" d="M576.7,234.8c0-8.2,6.7-14.8,14.9-14.8c8.2,0,14.8,6.7,14.8,14.8H576.7L576.7,234.8z"/>
		<path class="st7" d="M548.6,234.8c0-9.8,7.9-17.8,17.8-17.8c9.8,0,17.8,7.9,17.8,17.8H548.6z"/>
		<path class="st7" d="M435.2,249.2c0-10.8,8.8-19.7,19.7-19.7s19.7,8.8,19.7,19.7H435.2L435.2,249.2z"/>
		<path class="st7" d="M395.8,249.2c0-16.8,13.6-30.5,30.5-30.5s30.5,13.6,30.5,30.5H395.8L395.8,249.2z"/>
		<path class="st7" d="M366.9,249.2c0-10.8,8.8-19.7,19.7-19.7c10.8,0,19.7,8.8,19.7,19.7H366.9z"/>
	</g>
</g>
</svg>
