<?xml version="1.0" encoding="utf-8"?>
<!-- Generator: Adobe Illustrator 22.1.0, SVG Export Plug-In . SVG Version: 6.00 Build 0)  -->
<svg width="390px" height="420px" version="1.1" id="Layer_1" xmlns="http://www.w3.org/2000/svg" xmlns:xlink="http://www.w3.org/1999/xlink" x="0px" y="0px"
	 viewBox="0 0 390 419.7" style="enable-background:new 0 0 390 419.7;" xml:space="preserve">
<style type="text/css">
	.st0{fill:url(#SVGID_1_);}
	.st1{fill:url(#SVGID_2_);}
	.st2{fill:#FFFFFF;}
	.st3{fill:#C1D6E5;}
	.st4{fill:#CDD8DD;}
	.st5{fill:#A7C7E6;}
	.st6{fill:url(#SVGID_3_);}
	.st7{fill:#579BC2;}
</style>
<g>
	<g>
		<g> 
				<radialGradient id="SVGID_1_" cx="426.237" cy="-183.3778" r="370.8766" gradientTransform="matrix(0.9746 -0.1717 0.2238 0.7479 -130.6129 268.0949)" gradientUnits="userSpaceOnUse">
				<stop  offset="0" style="stop-color:#C1E5F4"/>
				<stop  offset="0.544" style="stop-color:#FFFFFF"/>
				<stop  offset="1" style="stop-color:#C1E5F4"/>
			</radialGradient>
			<path class="st0" d="M174.9,282.7c0.3-12.1,0.9-34.9,0-47.3c-1.2-17.3-13.4-27.2-13.4-27.2L33.2,51.7L0.9,11.1
				c167.3-23.1,383.4-3,383.4-3l-31.7,46.5c0,0-10.9,14.5-40.5,53.8c-29.6,39.3-61.7,75.5-82.1,92.7c-24.3,20.4-23.1,38.2-23.1,38.2
				v44l1.9,80.6c0,0,1.9,30.8,44,39c37.8,7.4,35.5,9.5,35.5,9.5v7.4H100.2l-0.2-5.9c0,0,1.6-3.9,38.7-11.6c30.1-6.2,33.5-39,33.5-39
				l2.4-76.4L174.9,282.7z"/>
			
				<linearGradient id="SVGID_2_" gradientUnits="userSpaceOnUse" x1="307.5024" y1="100.4777" x2="302.9223" y2="-1.4269" gradientTransform="matrix(0.9998 -2.030000e-02 2.030000e-02 0.9998 -107.5069 109.7598)">
				<stop  offset="0" style="stop-color:#E7382F"/>
				<stop  offset="0.4725" style="stop-color:#E62E30"/>
				<stop  offset="1" style="stop-color:#E52230"/>
			</linearGradient>
			<path class="st1" d="M36,50.9c0,0,81.4,130.7,90.5,146.5c0,0,22,33.2,25.3,37.8c3.4,4.5,12.8,17.3,12.8,17.3s7.4,4.1,28,4.4
				c20.6,0.3,24.2-4,24.2-4s12.3-11.7,20.2-19.6c8-7.8,27.3-35.4,31.9-42.8c4.6-7.4,79.5-132.3,79.5-132.3s-36.8-2.6-55.2-1.5
				c-18.4,1.2-48,2.4-78.5,0.1C177.2,54,60.8,52.1,47.7,50.3L36,50.9z"/>
			<path class="st2" d="M37.9,68.4c1-0.1,2-0.1,2.9-0.2C29.2,49.8,9,20.6,4.3,16.5l33,51.9C37.4,68.4,37.8,68.4,37.9,68.4z"/>
			<path class="st2" d="M0.1,14.6c0,0-1.6-3.8,13.4-4.9S142.1-9,383.1,10.2c3.8,1.5-26.7,0-32.4-2.7c0,0-35.6-4.2-109-5.7
				S84.5,1.3,37.9,8c-22.4,2.8-26.6,3.1-29.2,4.3C6,13.5,1.7,16.1,0.1,14.6z"/>
			<path class="st2" d="M54.7,7.4c0,0,76.7-6.7,156.2-5.8C290.4,2.5,322,8,322,8S140,0.5,54.7,7.4z"/>
			<path class="st3" d="M5.5,13.4c-3.7,0.9,0.9,2,3.1,1.4C35.1,10.4,86.1,7.3,125,7.1c145.7-3.5,253.9,8.7,253.9,8.7
				s0.9-0.9,0.9-1.7C238.3-4.9,6.6,13.4,6.6,13.4L5.5,13.4z"/>
			<path class="st3" d="M5.7,17.1c0,0,11.9,12.7,14.5,16.4c2.6,3.7,4.5,4.1,6,8.2c1.5,4.1,11.2,16.8,11.6,19.1
				c0.4,2.3,3.8,6.7,3.8,6.7L5.7,17.1z"/>
			<path class="st3" d="M2.4,16.8c0,0,10.2,19.2,19.2,32.6c4.8,7.1,13.4,14.5,14.2,17.1c0.8,2.7-12.7-18.3-14.6-19.4
				C19.3,46,2.4,16.8,2.4,16.8z"/>
			<path class="st2" d="M345,74.7L378.2,15c-4.8,4.6-25.1,41.4-35.1,59.6C343.6,74.6,344.5,74.6,345,74.7z"/>
			<path class="st3" d="M378.2,18.8c0,0-11.4,13.2-13.9,17c-2.5,3.8-4.3,4.2-5.7,8.5c-1.4,4.2-10.6,17.3-10.9,19.6
				c-0.3,2.3-3.5,6.9-3.5,6.9L378.2,18.8z"/>
			<path class="st3" d="M380.1,15.2c0,0-9.5,19.6-17.9,33.5c-4.5,7.3-12.8,15.1-13.5,17.8c-0.7,2.7,12-18.9,13.8-20
				C364.3,45.2,380.1,15.2,380.1,15.2z"/>
			<path class="st4" d="M338.6,75.2c0.3,0,0.9,0.1,1.3,0.1C360.8,39,377.8,9.2,377.8,9.2l-4-0.7l-39,66.4
				C335.6,75,336.6,75.1,338.6,75.2z"/>
			<path class="st5" d="M46.5,68.2c0,0,89.6-5.1,132.9-2.4c43.3,2.7,51.8-1.2,76.6-1.7c24.8-0.5,90.7,6.4,93.7,6.2
				c3-0.2-76.6-5.1-101.4-3.1s-63.1,0.6-87.3,0.5C136.9,67.5,46.5,68.2,46.5,68.2z"/>
			
				<linearGradient id="SVGID_3_" gradientUnits="userSpaceOnUse" x1="514.2396" y1="-146.5768" x2="526.227" y2="-162.1836" gradientTransform="matrix(0.9746 -0.2238 0.2238 0.9746 -130.6129 345.6915)">
				<stop  offset="0" style="stop-color:#EB602C"/>
				<stop  offset="1" style="stop-color:#FBCDB3"/>
			</linearGradient>
			<path class="st6" d="M345.2,74.6l-2.2-0.1c-7.6,13.8-6.9,14.3,1.8,0.8L345.2,74.6z"/>
		</g>
		<path class="st7" d="M103.3,415.7c3.4,0.5,183.1-2.2,183.1-2.2l-4.5,3.9L103.3,415.7z"/>
	</g>
</g>
</svg>
