<?xml version="1.0" encoding="utf-8"?>
<!-- Generator: Adobe Illustrator 23.0.1, SVG Export Plug-In . SVG Version: 6.00 Build 0)  -->
<svg version="1.1" id="Layer_1" xmlns="http://www.w3.org/2000/svg" xmlns:xlink="http://www.w3.org/1999/xlink" x="0px" y="0px"
	 viewBox="0 0 750 437" style="enable-background:new 0 0 750 437;" xml:space="preserve">
<style type="text/css">
	.st0{opacity:0.1;}
	.st1{fill:#6FA29C;stroke:#000000;stroke-width:1.484;stroke-miterlimit:10;}
	.st2{fill:#21FFE8;stroke:#060708;stroke-width:2;stroke-miterlimit:10;}
	.st3{fill:#11303B;stroke:#000000;stroke-width:2;stroke-miterlimit:10;}
	.st4{opacity:0.15;}
	.st5{opacity:0.2;}
	.st6{opacity:0.25;}
	.st7{opacity:0.27;}
	.st8{opacity:0.3;}
	.st9{fill:#FFFFFF;}
	.st10{fill:#FFD42B;}
	.st11{fill:#11303B;}
</style>
<g>
	<g>
		<g class="st0">
			<g>
				<path class="st1" d="M359.31,272.62c0,0-0.88,15.91,17.15,16.85c18.03,0.94,143.66,2.83,143.66,2.83s21.97,2.15,20.61-12.23
					c-1.35-14.38-5.76-61.19-5.76-61.19s-0.05-14.51-12.6-16.1c-11.71-1.48-23.55-2.23-35.31-3.24c-19.09-1.64-38.18-3.22-57.28-4.8
					c-16.09-1.33-32.14-3.16-48.26-3.95c-8.47-0.42-18.17,2.15-20.9,11.22c-0.59,1.96-0.81,4.02-0.8,6.06
					C359.91,229.95,359.31,272.62,359.31,272.62z"/>
				<path class="st2" d="M429.8,194.74c19.1,1.58,38.19,3.16,57.28,4.8c11.76,1.01,23.6,1.76,35.31,3.24
					c12.55,1.59,12.6,16.09,12.6,16.09s3.88,41.22,5.48,58.19c1.01,10.72-9.57,10.4-9.57,10.4l-92.16-0.82c0,0-40.4-1.04-56.59-1.7
					c-16.19-0.65-16.54-12.79-16.54-12.79s-0.32-48.05-1.19-65.14c-0.68-13.48,9.85-15.85,14.32-16.25c0.94-0.03,1.88-0.03,2.8,0.02
					C397.66,191.58,413.71,193.41,429.8,194.74z"/>
				<path class="st3" d="M387.56,276.4c0.01,1.24,0.98,2.25,2.21,2.32c8.88,0.49,113.07,4.12,126.78,4.6
					c1.44,0.05,2.58-1.19,2.41-2.62c-1.18-9.73-5.08-67.48-5.75-73.14c-0.14-1.16-1.11-2.04-2.28-2.07
					c-6.38-0.12-110.06-7.71-121.55-9.02c-1.4-0.16-2.62,0.94-2.61,2.36L387.56,276.4z"/>
			</g>
		</g>
		<g class="st4">
			<g>
				<path class="st1" d="M360.71,277.96c0,0,3.27,15.6,20.93,11.84c17.66-3.76,139.5-34.45,139.5-34.45s21.78-3.61,16.75-17.15
					c-5.03-13.54-21.4-57.62-21.4-57.62s-3.8-14-16.33-12.29c-11.7,1.6-23.32,3.94-34.94,6.01c-18.86,3.36-37.72,6.77-56.57,10.19
					c-15.88,2.88-31.86,5.26-47.64,8.67c-8.29,1.79-16.99,6.77-17.29,16.24c-0.06,2.04,0.26,4.09,0.8,6.06
					C350.24,236.59,360.71,277.96,360.71,277.96z"/>
				<path class="st2" d="M408.63,184.49c18.85-3.42,37.71-6.83,56.57-10.19c11.62-2.07,23.25-4.41,34.94-6.01
					c12.53-1.71,16.33,12.29,16.33,12.29s14.42,38.82,20.35,54.79c3.75,10.1-6.56,12.52-6.56,12.52l-89.23,23.06
					c0,0-39.29,9.45-55.1,13.01s-19.29-8.07-19.29-8.07s-12.75-46.33-18-62.61c-4.15-12.85,5.41-17.86,9.62-19.4
					c0.9-0.27,1.81-0.51,2.71-0.71C376.77,189.76,392.75,187.38,408.63,184.49z"/>
				<path class="st3" d="M388.96,274.3c0.33,1.19,1.53,1.92,2.74,1.67c8.7-1.82,110.28-25.29,123.65-28.37
					c1.4-0.32,2.19-1.82,1.65-3.16c-3.66-9.09-22.38-63.87-24.49-69.15c-0.43-1.09-1.6-1.69-2.74-1.41
					c-6.19,1.53-108.3,21.04-119.74,22.74c-1.4,0.21-2.29,1.59-1.91,2.95L388.96,274.3z"/>
			</g>
		</g>
		<g class="st5">
			<g>
				<path class="st1" d="M363.43,282.76c0,0,7.2,14.22,23.28,6.02c16.08-8.2,125.83-69.38,125.83-69.38s20.1-9.12,11.74-20.9
					c-8.36-11.78-35.59-50.11-35.59-50.11s-7.29-12.54-18.96-7.64c-10.88,4.57-21.51,9.84-32.2,14.85
					c-17.35,8.13-34.68,16.3-52.01,24.48c-14.59,6.89-29.41,13.33-43.77,20.71c-7.54,3.88-14.66,10.94-12.49,20.16
					c0.47,1.99,1.31,3.88,2.34,5.65C342.62,245.51,363.43,282.76,363.43,282.76z"/>
				<path class="st2" d="M385.53,180.07c17.32-8.18,34.65-16.36,52.01-24.48c10.69-5.01,21.31-10.28,32.2-14.85
					c11.66-4.9,18.96,7.64,18.96,7.64s23.97,33.76,33.84,47.65c6.24,8.78-3.09,13.79-3.09,13.79l-80.22,45.37
					c0,0-35.51,19.3-49.85,26.82s-20.72-2.81-20.72-2.81s-24.3-41.46-33.6-55.82c-7.33-11.34,0.6-18.65,4.27-21.23
					c0.8-0.5,1.61-0.96,2.43-1.38C356.12,193.4,370.94,186.97,385.53,180.07z"/>
				<path class="st3" d="M389.78,271.91c0.63,1.06,1.97,1.46,3.07,0.9c7.94-4.01,99.98-52.97,112.09-59.41
					c1.27-0.68,1.64-2.32,0.78-3.48c-5.89-7.83-38.14-55.9-41.55-60.46c-0.7-0.94-1.98-1.21-3.01-0.65
					c-5.59,3.08-99.16,48.35-109.77,52.96c-1.29,0.56-1.8,2.13-1.08,3.34L389.78,271.91z"/>
			</g>
		</g>
		<g class="st6">
			<g>
				<path class="st1" d="M367.31,286.69c0,0,10.63,11.87,24.05-0.21c13.41-12.08,103.58-99.58,103.58-99.58s17.06-14.01,5.93-23.23
					c-11.13-9.21-47.35-39.2-47.35-39.2s-10.29-10.22-20.29-2.47c-9.33,7.23-18.23,15.08-27.26,22.68
					c-14.66,12.34-29.28,24.72-43.9,37.11c-12.31,10.44-24.96,20.49-36.92,31.33c-6.28,5.7-11.33,14.36-6.85,22.71
					c0.97,1.8,2.27,3.41,3.72,4.85C337.56,256.09,367.31,286.69,367.31,286.69z"/>
				<path class="st2" d="M362.08,181.78c14.62-12.39,29.24-24.77,43.9-37.11c9.03-7.6,17.93-15.44,27.26-22.68
					c10-7.75,20.29,2.47,20.29,2.47s31.89,26.41,45.02,37.27c8.3,6.87,0.58,14.12,0.58,14.12l-65.74,64.58
					c0,0-29.3,27.83-41.21,38.81s-20.74,2.65-20.74,2.65s-34.21-33.75-46.9-45.22c-10.02-9.05-4.25-18.17-1.37-21.61
					c0.64-0.69,1.31-1.35,1.99-1.97C337.12,202.27,349.77,192.22,362.08,181.78z"/>
				<path class="st3" d="M389.95,269.39c0.88,0.87,2.28,0.9,3.2,0.08c6.63-5.93,82.86-77.04,92.9-86.4
					c1.05-0.98,0.98-2.67-0.15-3.56c-7.72-6.04-51.31-44.12-55.78-47.65c-0.92-0.72-2.23-0.66-3.07,0.15
					c-4.6,4.42-83.27,72.37-92.33,79.56c-1.1,0.88-1.19,2.52-0.18,3.51L389.95,269.39z"/>
			</g>
		</g>
		<g class="st7">
			<g>
				<path class="st1" d="M372.07,289.48c0,0,13.34,8.72,23.17-6.43c9.83-15.14,74.28-123,74.28-123s12.85-17.95-0.28-23.97
					c-13.13-6.02-55.88-25.61-55.88-25.61s-12.59-7.21-20.24,2.86c-7.14,9.4-13.71,19.28-20.46,28.96
					c-10.96,15.71-21.88,31.46-32.8,47.21c-9.19,13.27-18.81,26.25-27.56,39.82c-4.6,7.13-7.22,16.81-0.74,23.71
					c1.4,1.49,3.08,2.71,4.85,3.72C335.42,267.63,372.07,289.48,372.07,289.48z"/>
				<path class="st2" d="M339.87,189.5c10.91-15.75,21.83-31.49,32.8-47.21c6.75-9.68,13.32-19.56,20.46-28.96
					c7.65-10.07,20.24-2.86,20.24-2.86s37.64,17.25,53.13,24.35c9.79,4.49,4.22,13.49,4.22,13.49l-46.79,79.4
					c0,0-21.1,34.46-29.76,48.16c-8.66,13.69-19.35,7.93-19.35,7.93s-41.78-23.75-57-31.54c-12.02-6.15-8.8-16.45-6.91-20.52
					c0.44-0.83,0.92-1.64,1.42-2.42C321.06,215.75,330.68,202.77,339.87,189.5z"/>
				<path class="st3" d="M389.47,266.91c1.08,0.61,2.44,0.28,3.11-0.76c4.87-7.44,60.1-95.86,67.37-107.5
					c0.76-1.22,0.26-2.83-1.07-3.4c-9.02-3.84-60.98-29.34-66.22-31.58c-1.08-0.46-2.32-0.06-2.93,0.94
					c-3.3,5.46-61.7,91.46-68.59,100.75c-0.84,1.13-0.49,2.74,0.74,3.44L389.47,266.91z"/>
			</g>
		</g>
		<g class="st8">
			<g>
				<path class="st1" d="M377.39,290.95c0,0,15.14,4.96,20.72-12.21s39.92-138.03,39.92-138.03s7.77-20.66-6.48-23.08
					s-60.6-10.27-60.6-10.27s-14.02-3.71-18.81,8c-4.46,10.93-8.25,22.17-12.27,33.27c-6.52,18.02-13,36.05-19.46,54.08
					c-5.45,15.19-11.37,30.22-16.31,45.6c-2.59,8.08-2.63,18.1,5.42,23.09c1.74,1.08,3.67,1.82,5.64,2.34
					C336.34,279.32,377.39,290.95,377.39,290.95z"/>
				<path class="st2" d="M320.41,202.71c6.46-18.04,12.94-36.07,19.46-54.09c4.02-11.1,7.8-22.34,12.27-33.27
					c4.78-11.71,18.81-8,18.81-8s40.82,6.92,57.62,9.77c10.62,1.8,7.57,11.94,7.57,11.94l-24.64,88.8c0,0-11.46,38.75-16.28,54.22
					c-4.82,15.47-16.63,12.67-16.63,12.67s-46.5-12.13-63.23-15.71c-13.2-2.83-12.76-13.61-11.99-18.03
					c0.21-0.92,0.46-1.82,0.74-2.7C309.04,232.93,314.97,217.9,320.41,202.71z"/>
				<path class="st3" d="M388.36,264.64c1.2,0.31,2.43-0.36,2.81-1.54c2.77-8.45,33.24-108.15,37.25-121.27
					c0.42-1.38-0.48-2.8-1.91-3.01c-9.7-1.37-66.5-12.56-72.13-13.37c-1.16-0.17-2.26,0.54-2.59,1.67
					c-1.77,6.13-35.93,104.31-40.18,115.07c-0.52,1.31,0.23,2.78,1.6,3.13L388.36,264.64z"/>
			</g>
		</g>
		<g>
			<g>
				<path class="st1" d="M382.91,290.98c0,0,15.91,0.88,16.85-17.15c0.94-18.03,2.83-143.66,2.83-143.66s2.15-21.97-12.23-20.61
					c-14.38,1.35-61.19,5.76-61.19,5.76s-14.51,0.05-16.1,12.6c-1.48,11.71-2.23,23.55-3.24,35.31c-1.64,19.09-3.22,38.18-4.8,57.28
					c-1.33,16.09-3.16,32.14-3.95,48.26c-0.42,8.47,2.15,18.17,11.22,20.9c1.96,0.59,4.02,0.81,6.06,0.8
					C340.25,290.38,382.91,290.98,382.91,290.98z"/>
				<path class="st2" d="M305.04,220.5c1.58-19.1,3.16-38.19,4.8-57.28c1.01-11.76,1.76-23.6,3.24-35.31
					c1.59-12.55,16.1-12.6,16.1-12.6s41.22-3.88,58.19-5.48c10.72-1.01,10.4,9.57,10.4,9.57l-0.82,92.16c0,0-1.04,40.4-1.7,56.59
					c-0.65,16.19-12.79,16.54-12.79,16.54s-48.05,0.32-65.14,1.19c-13.48,0.68-15.85-9.85-16.25-14.32
					c-0.03-0.94-0.03-1.88,0.02-2.8C301.88,252.64,303.71,236.59,305.04,220.5z"/>
				<path class="st3" d="M386.7,262.74c1.24-0.01,2.25-0.98,2.32-2.21c0.49-8.88,4.12-113.07,4.6-126.78
					c0.05-1.44-1.19-2.58-2.62-2.41c-9.73,1.18-67.48,5.08-73.14,5.75c-1.16,0.14-2.04,1.11-2.07,2.28
					c-0.12,6.38-7.71,110.06-9.02,121.55c-0.16,1.4,0.94,2.62,2.36,2.61L386.7,262.74z"/>
			</g>
		</g>
		<path class="st9" d="M567.89,225.21c-1.12,0-2.08-0.85-2.2-1.99c-3.53-34.65-19.31-66.74-45.62-92.79
			c-25.85-25.59-59.88-43.54-98.4-51.91c-1.19-0.26-1.95-1.44-1.69-2.63c0.26-1.19,1.43-1.95,2.63-1.69
			c39.34,8.54,74.12,26.9,100.57,53.09c27.05,26.78,43.27,59.8,46.91,95.48c0.12,1.21-0.76,2.3-1.97,2.42
			C568.04,225.21,567.97,225.21,567.89,225.21z"/>
		<path class="st9" d="M443.97,64.51c-7.91,2.66-22.08,7.4-29.42,9.81c-1.46,0.48-1.73,2.42-0.45,3.28
			c5.09,3.42,15.04,10.34,20.42,15.69c1.13,1.13,3.07,0.38,3.14-1.21c0.14-3.12,0.62-7.34,2-11.74c1.68-5.35,4.29-9.9,6.42-13.05
			C447.07,65.83,445.64,63.95,443.97,64.51z"/>
	</g>
	<g>
		<g>
			<path class="st10" d="M263.49,132.22c-1.67,0-3.33-0.25-4.94-0.74c-7.59-2.3-12.47-9.39-12.02-17.18
				c-3.79,0.77-7.66,1.16-11.52,1.16c-5.68,0-11.34-0.84-16.82-2.51c-14.82-4.5-27.01-14.5-34.31-28.17
				c-7.3-13.66-8.84-29.35-4.34-44.18C187,15.99,209.3-0.55,235.01-0.55c5.69,0,11.37,0.85,16.87,2.52
				c30.6,9.29,47.94,41.74,38.65,72.35c-3.18,10.48-9.19,19.75-17.42,26.9c6.1,4.17,8.82,11.76,6.64,18.94
				C277.56,127.37,271.02,132.22,263.49,132.22C263.49,132.22,263.49,132.22,263.49,132.22z"/>
			<path d="M235.01,0.45c5.48,0,11.06,0.8,16.58,2.47c30.12,9.14,47.13,40.98,37.99,71.1c-3.37,11.11-9.84,20.43-18.16,27.31
				c6.34,3.62,9.59,11.25,7.38,18.53c-2.1,6.91-8.44,11.36-15.3,11.36c-1.54,0-3.1-0.22-4.65-0.69
				c-7.63-2.32-12.25-9.83-11.19-17.48c-4.11,0.94-8.35,1.43-12.65,1.43c-5.47,0-11.03-0.79-16.53-2.46
				c-30.12-9.14-47.13-40.98-37.99-71.1C187.96,16.3,210.56,0.45,235.01,0.45 M235.01-1.55c-12.39,0-24.75,4.04-34.81,11.39
				c-10.4,7.59-17.88,18.14-21.63,30.49c-4.58,15.08-3.01,31.04,4.42,44.94c7.43,13.9,19.82,24.08,34.9,28.65
				c5.57,1.69,11.33,2.55,17.11,2.55c3.51,0,7.03-0.32,10.49-0.95c0.1,7.74,5.14,14.6,12.76,16.92c1.71,0.52,3.47,0.78,5.23,0.78
				c7.98,0,14.9-5.13,17.22-12.78c2.18-7.19-0.28-14.77-6.01-19.31c7.9-7.15,13.68-16.28,16.79-26.54
				c9.45-31.13-8.19-64.14-39.32-73.59C246.57-0.69,240.8-1.55,235.01-1.55L235.01-1.55z"/>
		</g>
		<g>
			<path class="st11" d="M237.08,70l-9.21,0.27l-4.47-26.6l-0.66-22.2l16.58-0.49l0.66,22.2L237.08,70z M223.81,85.21
				c-0.07-2.29,0.66-4.29,2.19-6.02c1.52-1.73,3.74-2.63,6.66-2.72c2.92-0.09,5.19,0.69,6.81,2.32c1.62,1.63,2.47,3.59,2.54,5.88
				c0.07,2.29-0.66,4.31-2.18,6.08c-1.52,1.76-3.74,2.69-6.66,2.77c-2.92,0.09-5.19-0.71-6.81-2.38
				C224.72,89.47,223.88,87.5,223.81,85.21z"/>
		</g>
		<g>
			<path class="st10" d="M290.42,148.11c-0.79,0-1.57-0.12-2.33-0.35c-2.04-0.62-3.73-2-4.73-3.89c-1.01-1.88-1.22-4.05-0.6-6.09
				c1.03-3.4,4.11-5.68,7.65-5.68c0.79,0,1.57,0.12,2.33,0.35c4.22,1.28,6.61,5.76,5.33,9.98
				C297.04,145.83,293.96,148.11,290.42,148.11z"/>
			<path d="M290.41,133.11c0.67,0,1.36,0.1,2.04,0.3c3.7,1.12,5.79,5.03,4.67,8.73c-0.92,3.02-3.69,4.97-6.7,4.97
				c-0.67,0-1.36-0.1-2.04-0.3c-3.7-1.12-5.79-5.03-4.67-8.73C284.63,135.06,287.41,133.11,290.41,133.11 M290.41,131.11
				L290.41,131.11c-3.99,0-7.45,2.57-8.61,6.39c-0.7,2.3-0.46,4.73,0.67,6.86c1.13,2.12,3.02,3.67,5.32,4.37
				c0.85,0.26,1.73,0.39,2.62,0.39c3.99,0,7.45-2.57,8.61-6.39c1.44-4.75-1.25-9.78-6-11.23
				C292.17,131.24,291.29,131.11,290.41,131.11L290.41,131.11z"/>
		</g>
	</g>
</g>
<g>
	<path class="st9" d="M17.03,378.93c0,1.25-0.27,2.38-0.82,3.37c-0.54,0.99-1.29,1.83-2.25,2.5c-0.96,0.67-2.09,1.19-3.39,1.54
		c-1.3,0.35-2.71,0.53-4.22,0.53h-0.6v7.98h-5.82v-23.62h6.81c1.49,0,2.87,0.15,4.13,0.46c1.26,0.31,2.35,0.77,3.26,1.4
		c0.91,0.63,1.62,1.42,2.13,2.39C16.78,376.46,17.03,377.61,17.03,378.93z M11.43,378.97c0-2.17-1.55-3.26-4.65-3.26H5.76v6.7h0.96
		c1.54,0,2.71-0.31,3.51-0.92C11.03,380.87,11.43,380.03,11.43,378.97z"/>
	<path class="st9" d="M25.58,371.24v19.01h8.69v4.61h-14.5v-23.62H25.58z"/>
	<path class="st9" d="M37.21,371.24h14.72v4.61h-8.9v4.75h8.47v4.61h-8.47v5.04h9.01v4.61H37.21V371.24z"/>
	<path class="st9" d="M70.65,390.28H61.6l-1.45,4.57h-5.99l8.79-23.62h6.38l8.79,23.62h-5.99L70.65,390.28z M63.09,385.67h6.06
		l-3.01-9.96L63.09,385.67z"/>
	<path class="st9" d="M96.36,387.8c0,1.04-0.21,2.02-0.62,2.93c-0.41,0.91-1.01,1.7-1.79,2.38c-0.78,0.67-1.73,1.21-2.84,1.6
		c-1.11,0.39-2.38,0.58-3.79,0.58c-1.3,0-2.6-0.14-3.9-0.43s-2.51-0.7-3.62-1.24l1.17-4.43c0.83,0.4,1.76,0.75,2.8,1.05
		c1.04,0.3,2.16,0.44,3.37,0.44c0.99,0,1.81-0.18,2.45-0.55c0.64-0.37,0.96-0.96,0.96-1.79c0-0.59-0.28-1.13-0.83-1.61
		c-0.56-0.48-1.57-1-3.03-1.54c-2.32-0.87-4.01-1.87-5.07-3c-1.06-1.12-1.6-2.56-1.6-4.31c0-2.29,0.75-4.04,2.25-5.25
		c1.5-1.21,3.58-1.81,6.22-1.81c1.35,0,2.64,0.15,3.87,0.44c1.23,0.3,2.27,0.68,3.12,1.15l-0.99,4.36c-0.83-0.4-1.73-0.73-2.71-0.97
		c-0.98-0.25-1.99-0.37-3.03-0.37c-0.88,0-1.58,0.15-2.11,0.44c-0.53,0.3-0.8,0.8-0.8,1.51c0,0.33,0.05,0.62,0.14,0.85
		c0.09,0.24,0.27,0.46,0.51,0.67c0.25,0.21,0.6,0.43,1.05,0.64c0.45,0.21,1.02,0.46,1.7,0.75c0.99,0.4,1.93,0.83,2.8,1.28
		c0.87,0.45,1.63,0.97,2.27,1.56s1.14,1.26,1.51,2.02S96.36,386.78,96.36,387.8z"/>
	<path class="st9" d="M99.65,371.24h14.72v4.61h-8.9v4.75h8.48v4.61h-8.48v5.04h9.01v4.61H99.65V371.24z"/>
	<path class="st9" d="M143.91,378.72c0,1.58-0.44,2.97-1.33,4.15c-0.89,1.18-2.12,2.08-3.71,2.69l7.77,9.29h-7.16l-6.49-8.19h-1.06
		v8.19h-5.82v-23.62h7.52c1.47,0,2.83,0.15,4.08,0.46c1.25,0.31,2.34,0.77,3.26,1.38c0.92,0.61,1.64,1.39,2.16,2.32
		C143.65,376.34,143.91,377.45,143.91,378.72z M138.31,378.83c0-1.06-0.41-1.85-1.24-2.36c-0.83-0.51-1.99-0.76-3.47-0.76h-1.67
		v6.63h1.42c1.56,0,2.78-0.31,3.65-0.92C137.87,380.8,138.31,379.94,138.31,378.83z"/>
	<path class="st9" d="M171.5,383.05c0,1.68-0.27,3.26-0.82,4.73c-0.54,1.48-1.33,2.77-2.36,3.88s-2.29,1.99-3.78,2.64
		c-1.49,0.65-3.19,0.98-5.11,0.98s-3.62-0.33-5.12-0.98c-1.5-0.65-2.77-1.53-3.79-2.64s-1.81-2.41-2.34-3.88s-0.8-3.06-0.8-4.73
		c0-1.68,0.27-3.26,0.8-4.73s1.31-2.77,2.34-3.88s2.29-1.99,3.79-2.64c1.5-0.65,3.21-0.97,5.12-0.97s3.62,0.33,5.11,0.97
		c1.49,0.65,2.75,1.53,3.78,2.64s1.81,2.41,2.36,3.88C171.22,379.79,171.5,381.37,171.5,383.05z M159.44,390.67
		c1.02,0,1.92-0.19,2.69-0.57c0.78-0.38,1.44-0.9,1.97-1.58c0.53-0.67,0.93-1.48,1.19-2.41c0.26-0.93,0.39-1.96,0.39-3.07
		c0-1.11-0.13-2.13-0.39-3.07c-0.26-0.93-0.66-1.74-1.19-2.41c-0.53-0.67-1.19-1.2-1.97-1.58c-0.78-0.38-1.68-0.57-2.69-0.57
		c-1.04,0-1.95,0.19-2.71,0.57c-0.77,0.38-1.42,0.9-1.95,1.58c-0.53,0.67-0.93,1.48-1.19,2.41c-0.26,0.93-0.39,1.96-0.39,3.07
		c0,1.11,0.13,2.13,0.39,3.07c0.26,0.93,0.66,1.74,1.19,2.41c0.53,0.67,1.18,1.2,1.95,1.58
		C157.49,390.48,158.4,390.67,159.44,390.67z"/>
	<path class="st9" d="M191.18,371.24v4.61h-6.35v19.01h-5.82v-19.01h-6.35v-4.61H191.18z"/>
	<path class="st9" d="M206.99,390.28h-9.04l-1.45,4.57h-5.99l8.79-23.62h6.38l8.79,23.62h-5.99L206.99,390.28z M199.44,385.67h6.06
		l-3.01-9.96L199.44,385.67z"/>
	<path class="st9" d="M232.31,371.24v4.61h-6.35v19.01h-5.82v-19.01h-6.35v-4.61H232.31z"/>
	<path class="st9" d="M235.11,371.24h14.72v4.61h-8.9v4.75h8.47v4.61h-8.47v5.04h9.01v4.61h-14.82V371.24z"/>
	<path class="st9" d="M272.31,386.28v8.58h-5.82v-8.58l-7.77-15.04h6.21l4.47,9.93l4.47-9.93h6.21L272.31,386.28z"/>
	<path class="st9" d="M304.51,383.05c0,1.68-0.27,3.26-0.82,4.73s-1.33,2.77-2.36,3.88s-2.29,1.99-3.78,2.64
		c-1.49,0.65-3.19,0.98-5.11,0.98s-3.62-0.33-5.12-0.98c-1.5-0.65-2.77-1.53-3.79-2.64s-1.81-2.41-2.34-3.88
		c-0.53-1.48-0.8-3.06-0.8-4.73c0-1.68,0.27-3.26,0.8-4.73c0.53-1.48,1.31-2.77,2.34-3.88s2.29-1.99,3.79-2.64
		c1.5-0.65,3.21-0.97,5.12-0.97s3.62,0.33,5.11,0.97c1.49,0.65,2.75,1.53,3.78,2.64s1.81,2.41,2.36,3.88
		S304.51,381.37,304.51,383.05z M292.45,390.67c1.02,0,1.92-0.19,2.7-0.57c0.78-0.38,1.44-0.9,1.97-1.58
		c0.53-0.67,0.93-1.48,1.19-2.41c0.26-0.93,0.39-1.96,0.39-3.07c0-1.11-0.13-2.13-0.39-3.07c-0.26-0.93-0.66-1.74-1.19-2.41
		c-0.53-0.67-1.19-1.2-1.97-1.58c-0.78-0.38-1.68-0.57-2.7-0.57c-1.04,0-1.94,0.19-2.71,0.57c-0.77,0.38-1.42,0.9-1.95,1.58
		c-0.53,0.67-0.93,1.48-1.19,2.41c-0.26,0.93-0.39,1.96-0.39,3.07c0,1.11,0.13,2.13,0.39,3.07c0.26,0.93,0.66,1.74,1.19,2.41
		c0.53,0.67,1.18,1.2,1.95,1.58C290.51,390.48,291.41,390.67,292.45,390.67z"/>
	<path class="st9" d="M322.13,371.24h5.82v15.11c0,2.79-0.88,4.98-2.64,6.56c-1.76,1.58-4.21,2.38-7.36,2.38
		c-3.14,0-5.6-0.79-7.36-2.38c-1.76-1.58-2.64-3.77-2.64-6.56v-15.11h5.82v15.28c0,1.35,0.35,2.38,1.06,3.08
		c0.71,0.71,1.75,1.06,3.12,1.06c1.37,0,2.41-0.35,3.12-1.06s1.06-1.74,1.06-3.08V371.24z"/>
	<path class="st9" d="M350.29,378.72c0,1.58-0.44,2.97-1.33,4.15c-0.89,1.18-2.12,2.08-3.71,2.69l7.77,9.29h-7.16l-6.49-8.19h-1.06
		v8.19h-5.82v-23.62H340c1.47,0,2.83,0.15,4.08,0.46c1.25,0.31,2.34,0.77,3.26,1.38c0.92,0.61,1.64,1.39,2.16,2.32
		C350.03,376.34,350.29,377.45,350.29,378.72z M344.68,378.83c0-1.06-0.41-1.85-1.24-2.36c-0.83-0.51-1.99-0.76-3.47-0.76h-1.67
		v6.63h1.42c1.56,0,2.78-0.31,3.65-0.92C344.25,380.8,344.68,379.94,344.68,378.83z"/>
	<path class="st9" d="M379.86,378.93c0,1.25-0.27,2.38-0.82,3.37c-0.54,0.99-1.29,1.83-2.25,2.5c-0.96,0.67-2.09,1.19-3.39,1.54
		c-1.3,0.35-2.71,0.53-4.22,0.53h-0.6v7.98h-5.82v-23.62h6.81c1.49,0,2.87,0.15,4.13,0.46c1.26,0.31,2.35,0.77,3.26,1.4
		c0.91,0.63,1.62,1.42,2.13,2.39C379.6,376.46,379.86,377.61,379.86,378.93z M374.26,378.97c0-2.17-1.55-3.26-4.64-3.26h-1.03v6.7
		h0.96c1.54,0,2.71-0.31,3.51-0.92C373.85,380.87,374.26,380.03,374.26,378.97z"/>
	<path class="st9" d="M397.06,394.86v-9.61h-8.65v9.61h-5.81v-23.62h5.81v9.26h8.65v-9.26h5.82v23.62H397.06z"/>
	<path class="st9" d="M430.5,383.05c0,1.68-0.27,3.26-0.82,4.73s-1.33,2.77-2.36,3.88s-2.29,1.99-3.78,2.64
		c-1.49,0.65-3.19,0.98-5.11,0.98c-1.92,0-3.62-0.33-5.12-0.98c-1.5-0.65-2.77-1.53-3.79-2.64s-1.81-2.41-2.34-3.88
		c-0.53-1.48-0.8-3.06-0.8-4.73c0-1.68,0.27-3.26,0.8-4.73c0.53-1.48,1.31-2.77,2.34-3.88s2.29-1.99,3.79-2.64
		c1.5-0.65,3.21-0.97,5.12-0.97c1.91,0,3.62,0.33,5.11,0.97c1.49,0.65,2.75,1.53,3.78,2.64s1.81,2.41,2.36,3.88
		S430.5,381.37,430.5,383.05z M418.44,390.67c1.02,0,1.91-0.19,2.69-0.57c0.78-0.38,1.44-0.9,1.97-1.58
		c0.53-0.67,0.93-1.48,1.19-2.41c0.26-0.93,0.39-1.96,0.39-3.07c0-1.11-0.13-2.13-0.39-3.07c-0.26-0.93-0.66-1.74-1.19-2.41
		c-0.53-0.67-1.19-1.2-1.97-1.58c-0.78-0.38-1.68-0.57-2.69-0.57c-1.04,0-1.95,0.19-2.71,0.57c-0.77,0.38-1.42,0.9-1.95,1.58
		c-0.53,0.67-0.93,1.48-1.19,2.41c-0.26,0.93-0.39,1.96-0.39,3.07c0,1.11,0.13,2.13,0.39,3.07c0.26,0.93,0.66,1.74,1.19,2.41
		c0.53,0.67,1.18,1.2,1.95,1.58C416.49,390.48,417.4,390.67,418.44,390.67z"/>
	<path class="st9" d="M449.36,394.86l-9.75-14.08v14.08h-5.6v-23.62h5.6l9.75,14.08v-14.08h5.6v23.62H449.36z"/>
	<path class="st9" d="M459.57,371.24h14.72v4.61h-8.9v4.75h8.48v4.61h-8.48v5.04h9.01v4.61h-14.82V371.24z"/>
	<path class="st9" d="M16.64,413.79v4.61h-6.35v19.01H4.48V418.4h-6.35v-4.61H16.64z"/>
	<path class="st9" d="M41.93,425.6c0,1.68-0.27,3.26-0.82,4.73c-0.54,1.48-1.33,2.77-2.36,3.88s-2.29,1.99-3.78,2.64
		c-1.49,0.65-3.19,0.98-5.11,0.98s-3.62-0.33-5.12-0.98c-1.5-0.65-2.77-1.53-3.79-2.64s-1.81-2.41-2.34-3.88s-0.8-3.06-0.8-4.73
		c0-1.68,0.27-3.26,0.8-4.73s1.31-2.77,2.34-3.88s2.29-1.99,3.79-2.64c1.5-0.65,3.21-0.97,5.12-0.97s3.62,0.33,5.11,0.97
		c1.49,0.65,2.75,1.53,3.78,2.64s1.81,2.41,2.36,3.88C41.65,422.34,41.93,423.92,41.93,425.6z M29.87,433.22
		c1.02,0,1.92-0.19,2.69-0.57c0.78-0.38,1.44-0.9,1.97-1.58c0.53-0.67,0.93-1.48,1.19-2.41c0.26-0.93,0.39-1.96,0.39-3.07
		c0-1.11-0.13-2.13-0.39-3.07c-0.26-0.93-0.66-1.74-1.19-2.41c-0.53-0.67-1.19-1.2-1.97-1.58c-0.78-0.38-1.68-0.57-2.69-0.57
		c-1.04,0-1.95,0.19-2.71,0.57c-0.77,0.38-1.42,0.9-1.95,1.58c-0.53,0.67-0.93,1.48-1.19,2.41c-0.26,0.93-0.39,1.96-0.39,3.07
		c0,1.11,0.13,2.13,0.39,3.07c0.26,0.93,0.66,1.74,1.19,2.41c0.53,0.67,1.18,1.2,1.95,1.58C27.92,433.04,28.83,433.22,29.87,433.22z
		"/>
	<path class="st9" d="M70.15,421.49c0,1.25-0.27,2.38-0.82,3.37c-0.54,0.99-1.29,1.83-2.25,2.5c-0.96,0.67-2.09,1.19-3.39,1.54
		c-1.3,0.35-2.71,0.53-4.22,0.53h-0.6v7.98h-5.82v-23.62h6.81c1.49,0,2.87,0.15,4.13,0.46c1.26,0.31,2.35,0.77,3.26,1.4
		c0.91,0.63,1.62,1.42,2.13,2.39C69.9,419.02,70.15,420.16,70.15,421.49z M64.55,421.52c0-2.17-1.55-3.26-4.64-3.26h-1.03v6.7h0.96
		c1.54,0,2.71-0.31,3.51-0.92C64.15,423.43,64.55,422.59,64.55,421.52z"/>
	<path class="st9" d="M96.25,425.6c0,1.68-0.27,3.26-0.82,4.73c-0.54,1.48-1.33,2.77-2.36,3.88s-2.29,1.99-3.78,2.64
		c-1.49,0.65-3.19,0.98-5.11,0.98s-3.62-0.33-5.12-0.98c-1.5-0.65-2.77-1.53-3.79-2.64s-1.81-2.41-2.34-3.88s-0.8-3.06-0.8-4.73
		c0-1.68,0.27-3.26,0.8-4.73s1.31-2.77,2.34-3.88s2.29-1.99,3.79-2.64c1.5-0.65,3.21-0.97,5.12-0.97s3.62,0.33,5.11,0.97
		c1.49,0.65,2.75,1.53,3.78,2.64s1.81,2.41,2.36,3.88C95.98,422.34,96.25,423.92,96.25,425.6z M84.19,433.22
		c1.02,0,1.92-0.19,2.69-0.57c0.78-0.38,1.44-0.9,1.97-1.58c0.53-0.67,0.93-1.48,1.19-2.41c0.26-0.93,0.39-1.96,0.39-3.07
		c0-1.11-0.13-2.13-0.39-3.07c-0.26-0.93-0.66-1.74-1.19-2.41c-0.53-0.67-1.19-1.2-1.97-1.58c-0.78-0.38-1.68-0.57-2.69-0.57
		c-1.04,0-1.95,0.19-2.71,0.57c-0.77,0.38-1.42,0.9-1.95,1.58c-0.53,0.67-0.93,1.48-1.19,2.41c-0.26,0.93-0.39,1.96-0.39,3.07
		c0,1.11,0.13,2.13,0.39,3.07c0.26,0.93,0.66,1.74,1.19,2.41c0.53,0.67,1.18,1.2,1.95,1.58C82.25,433.04,83.15,433.22,84.19,433.22z
		"/>
	<path class="st9" d="M117.56,421.27c0,1.58-0.44,2.97-1.33,4.15c-0.89,1.18-2.12,2.08-3.71,2.69l7.77,9.29h-7.16l-6.49-8.19h-1.06
		v8.19h-5.82v-23.62h7.52c1.47,0,2.83,0.15,4.08,0.46c1.25,0.31,2.34,0.77,3.26,1.38c0.92,0.61,1.64,1.39,2.16,2.32
		C117.3,418.89,117.56,420,117.56,421.27z M111.96,421.38c0-1.06-0.41-1.85-1.24-2.36c-0.83-0.51-1.99-0.76-3.47-0.76h-1.67v6.63
		h1.42c1.56,0,2.78-0.31,3.65-0.92C111.52,423.36,111.96,422.49,111.96,421.38z"/>
	<path class="st9" d="M138.59,413.79v4.61h-6.35v19.01h-5.82V418.4h-6.35v-4.61H138.59z"/>
	<path class="st9" d="M159.19,421.27c0,1.58-0.44,2.97-1.33,4.15c-0.89,1.18-2.12,2.08-3.71,2.69l7.77,9.29h-7.16l-6.49-8.19h-1.06
		v8.19h-5.82v-23.62h7.52c1.47,0,2.83,0.15,4.08,0.46c1.25,0.31,2.34,0.77,3.26,1.38c0.92,0.61,1.64,1.39,2.16,2.32
		C158.93,418.89,159.19,420,159.19,421.27z M153.59,421.38c0-1.06-0.41-1.85-1.24-2.36c-0.83-0.51-1.99-0.76-3.47-0.76h-1.67v6.63
		h1.42c1.56,0,2.78-0.31,3.65-0.92C153.15,423.36,153.59,422.49,153.59,421.38z"/>
	<path class="st9" d="M179.19,432.83h-9.04l-1.45,4.57h-5.99l8.79-23.62h6.38l8.79,23.62h-5.99L179.19,432.83z M171.64,428.22h6.06
		l-3.01-9.96L171.64,428.22z"/>
	<path class="st9" d="M195.39,437.41h-5.82v-23.62h5.82V437.41z"/>
	<path class="st9" d="M216.88,413.79v4.61h-6.35v19.01h-5.82V418.4h-6.35v-4.61H216.88z"/>
	<path class="st9" d="M243.12,433.65h-5.6l-4.61-9.47l-0.71,13.23h-5.71l1.77-23.62h5.25l6.81,14.43l6.81-14.43h5.25l1.77,23.62
		h-5.71l-0.71-13.23L243.12,433.65z"/>
	<path class="st9" d="M280.96,425.6c0,1.68-0.27,3.26-0.82,4.73c-0.54,1.48-1.33,2.77-2.36,3.88s-2.29,1.99-3.78,2.64
		c-1.49,0.65-3.19,0.98-5.11,0.98s-3.62-0.33-5.12-0.98c-1.5-0.65-2.77-1.53-3.79-2.64s-1.81-2.41-2.34-3.88s-0.8-3.06-0.8-4.73
		c0-1.68,0.27-3.26,0.8-4.73s1.31-2.77,2.34-3.88s2.29-1.99,3.79-2.64c1.5-0.65,3.21-0.97,5.12-0.97s3.62,0.33,5.11,0.97
		c1.49,0.65,2.75,1.53,3.78,2.64s1.81,2.41,2.36,3.88C280.69,422.34,280.96,423.92,280.96,425.6z M268.9,433.22
		c1.02,0,1.92-0.19,2.69-0.57c0.78-0.38,1.44-0.9,1.97-1.58c0.53-0.67,0.93-1.48,1.19-2.41c0.26-0.93,0.39-1.96,0.39-3.07
		c0-1.11-0.13-2.13-0.39-3.07c-0.26-0.93-0.66-1.74-1.19-2.41c-0.53-0.67-1.19-1.2-1.97-1.58c-0.78-0.38-1.68-0.57-2.69-0.57
		c-1.04,0-1.95,0.19-2.71,0.57c-0.77,0.38-1.42,0.9-1.95,1.58c-0.53,0.67-0.93,1.48-1.19,2.41c-0.26,0.93-0.39,1.96-0.39,3.07
		c0,1.11,0.13,2.13,0.39,3.07c0.26,0.93,0.66,1.74,1.19,2.41c0.53,0.67,1.18,1.2,1.95,1.58
		C266.96,433.04,267.86,433.22,268.9,433.22z"/>
	<path class="st9" d="M284.47,413.79h7.2c2.08,0,3.99,0.3,5.73,0.89c1.74,0.59,3.22,1.41,4.45,2.45c1.23,1.04,2.19,2.29,2.87,3.74
		c0.69,1.45,1.03,3.03,1.03,4.73s-0.34,3.28-1.03,4.73s-1.64,2.7-2.87,3.74c-1.23,1.04-2.71,1.86-4.45,2.45
		c-1.74,0.59-3.65,0.89-5.73,0.89h-7.2V413.79z M292.02,432.8c1.18,0,2.26-0.17,3.23-0.5c0.97-0.33,1.8-0.8,2.5-1.42
		c0.7-0.62,1.23-1.37,1.61-2.25c0.38-0.89,0.57-1.9,0.57-3.03s-0.19-2.15-0.57-3.03c-0.38-0.89-0.92-1.64-1.61-2.25
		c-0.7-0.61-1.53-1.09-2.5-1.42c-0.97-0.33-2.04-0.5-3.23-0.5h-1.74v14.4H292.02z"/>
	<path class="st9" d="M309.04,413.79h14.72v4.61h-8.9v4.75h8.48v4.61h-8.48v5.04h9.01v4.61h-14.82V413.79z"/>
	<path class="st9" d="M351.67,413.79v4.61h-6.35v19.01h-5.82V418.4h-6.35v-4.61H351.67z"/>
	<path class="st9" d="M376.95,425.6c0,1.68-0.27,3.26-0.82,4.73c-0.54,1.48-1.33,2.77-2.36,3.88s-2.29,1.99-3.78,2.64
		c-1.49,0.65-3.19,0.98-5.11,0.98s-3.62-0.33-5.12-0.98c-1.5-0.65-2.77-1.53-3.79-2.64s-1.81-2.41-2.34-3.88s-0.8-3.06-0.8-4.73
		c0-1.68,0.27-3.26,0.8-4.73s1.31-2.77,2.34-3.88s2.29-1.99,3.79-2.64c1.5-0.65,3.21-0.97,5.12-0.97s3.62,0.33,5.11,0.97
		c1.49,0.65,2.75,1.53,3.78,2.64s1.81,2.41,2.36,3.88C376.68,422.34,376.95,423.92,376.95,425.6z M364.89,433.22
		c1.02,0,1.92-0.19,2.69-0.57c0.78-0.38,1.44-0.9,1.97-1.58c0.53-0.67,0.93-1.48,1.19-2.41c0.26-0.93,0.39-1.96,0.39-3.07
		c0-1.11-0.13-2.13-0.39-3.07c-0.26-0.93-0.66-1.74-1.19-2.41c-0.53-0.67-1.19-1.2-1.97-1.58c-0.78-0.38-1.68-0.57-2.69-0.57
		c-1.04,0-1.95,0.19-2.71,0.57c-0.77,0.38-1.42,0.9-1.95,1.58c-0.53,0.67-0.93,1.48-1.19,2.41c-0.26,0.93-0.39,1.96-0.39,3.07
		c0,1.11,0.13,2.13,0.39,3.07c0.26,0.93,0.66,1.74,1.19,2.41c0.53,0.67,1.18,1.2,1.95,1.58
		C362.95,433.04,363.85,433.22,364.89,433.22z"/>
	<path class="st9" d="M405.18,421.49c0,1.25-0.27,2.38-0.81,3.37c-0.54,0.99-1.29,1.83-2.25,2.5s-2.09,1.19-3.39,1.54
		s-2.71,0.53-4.22,0.53h-0.6v7.98h-5.82v-23.62h6.81c1.49,0,2.87,0.15,4.13,0.46c1.27,0.31,2.35,0.77,3.26,1.4
		c0.91,0.63,1.62,1.42,2.13,2.39C404.92,419.02,405.18,420.16,405.18,421.49z M399.57,421.52c0-2.17-1.55-3.26-4.65-3.26h-1.03v6.7
		h0.96c1.54,0,2.71-0.31,3.51-0.92C399.17,423.43,399.57,422.59,399.57,421.52z"/>
	<path class="st9" d="M413.72,413.79v19.01h8.69v4.61h-14.5v-23.62H413.72z"/>
	<path class="st9" d="M440.6,432.83h-9.04l-1.45,4.57h-5.99l8.79-23.62h6.38l8.79,23.62h-5.99L440.6,432.83z M433.05,428.22h6.06
		l-3.01-9.96L433.05,428.22z"/>
	<path class="st9" d="M459.96,428.83v8.58h-5.82v-8.58l-7.77-15.04h6.21l4.47,9.93l4.47-9.93h6.21L459.96,428.83z"/>
	<path class="st9" d="M465.53,434.5c0-0.85,0.27-1.6,0.82-2.23c0.54-0.64,1.33-0.96,2.38-0.96c1.04,0,1.83,0.32,2.38,0.96
		c0.54,0.64,0.82,1.38,0.82,2.23c0,0.85-0.27,1.6-0.82,2.23s-1.33,0.96-2.38,0.96c-1.04,0-1.83-0.32-2.38-0.96
		C465.8,436.1,465.53,435.35,465.53,434.5z"/>
</g>
<g>
	<path class="st9" d="M492.24,398.65l-1.77-2.53c0.59-0.51,0.84-1.22,0.76-2.15v-11.63h-2.91v-3.16h6.19v13.78
		c0.93-0.67,1.81-1.39,2.66-2.15c0.08,0.42,0.17,1.1,0.25,2.02c0.17,0.76,0.25,1.26,0.25,1.52c-1.85,1.26-3.12,2.19-3.79,2.78
		C493.46,397.47,492.91,397.97,492.24,398.65z M493.63,376.4c-0.59-0.76-1.52-1.94-2.78-3.54c-0.59-0.76-1.06-1.35-1.39-1.77
		l2.65-1.64c0.34,0.42,0.89,1.05,1.64,1.9c1.26,1.52,2.15,2.57,2.66,3.16L493.63,376.4z M497.42,373.49v-2.28h8.6v-2.4h3.29v2.4h9.1
		v2.28h-9.1v1.9h8.22v2.15h-8.22v1.9h9.61v2.28h-22.25v-2.28h9.35v-1.9h-8.09v-2.15h8.09v-1.9H497.42z M498.68,399.03v-15.55h18.08
		v11.38c0.17,2.61-1.14,3.92-3.92,3.92c-1.35,0-2.91,0-4.68,0c-0.08-0.34-0.25-0.93-0.51-1.77c-0.08-0.42-0.17-0.72-0.25-0.89
		c0.93,0.08,2.32,0.13,4.17,0.13c1.43,0.08,2.11-0.46,2.02-1.64v-0.63h-11.76v5.06H498.68z M501.84,385.76v2.02h11.76v-2.02H501.84z
		 M501.84,389.8v2.02h11.76v-2.02H501.84z"/>
	<path class="st9" d="M526.96,397.89v-2.66h9.1c-0.25-0.51-0.72-1.31-1.39-2.4c-0.59-1.01-1.05-1.77-1.39-2.28l3.54-0.76l3.03,5.31
		l-0.51,0.13h5.06c1.01-1.6,2.06-3.41,3.16-5.44l3.67,0.76c-0.42,0.68-1.01,1.6-1.77,2.78c-0.59,0.84-1.01,1.48-1.26,1.9h8.98v2.66
		H526.96z M528.6,384.24v-14.03h3.03v14.03H528.6z M529.48,389.3v-2.78h11.5c-0.08-0.42-0.25-1.01-0.51-1.77
		c-0.08-0.25-0.17-0.46-0.25-0.63l3.54-0.25c0.17,0.42,0.34,1.01,0.51,1.77c0.08,0.42,0.17,0.72,0.25,0.89h10.62v2.78H529.48z
		 M535.05,384.74v-15.55h3.16v15.55H535.05z M555.65,384.36c-3.37-1.01-6.11-2.06-8.22-3.16c-1.85,1.01-4.21,1.94-7.08,2.78
		c-0.17-0.42-0.55-1.09-1.14-2.02c-0.25-0.34-0.42-0.59-0.51-0.76c2.44-0.59,4.47-1.26,6.07-2.02c-1.69-1.52-3.12-3.41-4.3-5.69
		l0.63-0.25h-1.52v-2.78h15.68v2.78c-1.35,2.61-2.99,4.64-4.93,6.07c1.77,0.76,4.05,1.43,6.83,2.02c-0.08,0.25-0.25,0.59-0.51,1.01
		C556.24,383.19,555.91,383.86,555.65,384.36z M551.73,373.24h-8.09c1.18,1.94,2.44,3.41,3.79,4.42
		C549.12,376.57,550.55,375.09,551.73,373.24z"/>
	<path class="st9" d="M567.74,399.16c-0.84-0.84-1.73-1.73-2.66-2.65c1.26-1.85,2.11-3.75,2.53-5.69c0.42-1.94,0.63-4.89,0.63-8.85
		v-11.76h26.3v8.6h-23.01v4.17C571.7,390.31,570.44,395.7,567.74,399.16z M571.54,372.99v3.16h19.72v-3.16H571.54z M573.18,385.38
		v-2.66h5.31c-0.25-0.34-0.59-0.84-1.01-1.52c-0.51-0.67-0.88-1.18-1.14-1.52l3.29-0.76c0.84,1.1,1.64,2.32,2.4,3.67l-0.51,0.13
		h3.54c0.93-1.43,1.69-2.7,2.28-3.79l3.41,0.76c-0.59,1.01-1.26,2.02-2.02,3.03h5.69v2.66h-4.68v3.67h6.07v2.78h-6.07v7.08h-3.16
		v-7.08h-6.07c-0.17,2.95-1.9,5.44-5.18,7.46c-0.93-0.93-1.77-1.6-2.53-2.02c2.86-1.6,4.34-3.41,4.43-5.44h-5.18v-2.78h5.44v-3.67
		H573.18z M580.77,385.38v3.67h5.82v-3.67H580.77z"/>
	<path class="st9" d="M605.62,374v-3.29h27.56V374h-5.56v8.34h6.83v3.29h-6.83v13.15h-3.54v-13.15h-8.98
		c0.08,6.15-2.53,10.7-7.84,13.65c-0.51-0.59-1.39-1.52-2.65-2.78c4.8-2.28,7.12-5.9,6.95-10.87h-7.46v-3.29h7.46V374H605.62z
		 M615.11,374v8.34h8.98V374H615.11z"/>
	<path class="st9" d="M653.11,396.25l-3.16-2.66c-1.35,1.69-3.25,3.5-5.69,5.44l-2.15-2.53c2.36-1.69,4.17-3.41,5.44-5.18
		l-4.43-4.05c0.67-2.44,1.31-5.56,1.9-9.35h-2.66v-3.03h3.16c0.25-2.02,0.51-4.05,0.76-6.07l3.29,0.38
		c-0.25,1.18-0.51,2.82-0.76,4.93c0.17-1.26,0.13-1.01-0.13,0.76h5.82v3.03c-0.42,5.73-1.35,10.03-2.78,12.9l3.67,3.16
		L653.11,396.25z M651.47,377.92h-3.29c-0.51,3.2-1.1,6.03-1.77,8.47c0.34,0.25,0.8,0.63,1.39,1.14c0.67,0.51,1.14,0.89,1.39,1.14
		C650.37,386.22,651.13,382.64,651.47,377.92z M655.9,382.34l-1.39-3.16c0.76-0.42,1.52-1.14,2.28-2.15
		c1.52-2.11,3.12-4.85,4.8-8.22l3.41,1.26c-2.36,3.71-4.38,6.66-6.07,8.85c1.43-0.08,3.83-0.21,7.21-0.38c-0.51,0.08,0,0.08,1.52,0
		c-0.17-0.34-0.46-0.8-0.89-1.39c-0.68-1.18-1.18-2.06-1.52-2.66l2.65-1.39c1.26,1.85,2.82,4.47,4.68,7.84
		c0.25,0.51,0.46,0.89,0.63,1.14l-2.91,1.52c-0.34-0.67-0.72-1.39-1.14-2.15c-5.14,0.17-8.6,0.34-10.37,0.51
		C657.62,381.96,656.65,382.09,655.9,382.34z M656.15,399.16v-13.91h14.92v13.91h-3.29v-1.9h-8.34v1.9H656.15z M659.44,388.16v6.32
		h8.34v-6.32H659.44z"/>
	<path class="st9" d="M684.93,383.86c-0.42-0.42-1.05-1.05-1.9-1.9c-1.1-0.93-1.9-1.64-2.4-2.15l2.15-2.15
		c2.02,1.69,3.45,2.95,4.3,3.79L684.93,383.86z M684.29,398.9l-3.03-1.01c1.18-4.3,2.06-8.05,2.65-11.25c0.08,0,0.25,0.08,0.51,0.25
		c0.42,0.08,1.31,0.34,2.65,0.76c-0.17,0.59-0.38,1.48-0.63,2.65C685.43,394.18,684.72,397.05,684.29,398.9z M685.56,375.39
		c-1.35-1.35-2.7-2.66-4.05-3.92l2.28-2.15c1.43,1.26,2.78,2.49,4.04,3.67L685.56,375.39z M687.58,377.03v-2.91h4.55
		c-0.08-0.51-0.3-1.31-0.63-2.4c-0.25-1.01-0.46-1.77-0.63-2.28l3.16-0.51c0.08,0.42,0.25,1.06,0.51,1.9
		c0.34,1.35,0.59,2.45,0.76,3.29h3.03v2.65c1.52-2.28,2.74-4.93,3.67-7.96l3.29,0.38c-0.17,0.34-0.38,0.89-0.63,1.64
		c-0.34,0.93-0.59,1.6-0.76,2.02h7.59v2.91h-8.98c-0.17,0.51-0.55,1.18-1.14,2.02c-0.17,0.34-0.3,0.59-0.38,0.76h9.48v3.03
		l-3.54,3.79v0.89h4.55v2.91h-4.55v5.82c0.08,2.28-1.14,3.45-3.67,3.54c-0.76,0.08-1.9,0.13-3.41,0.13c0-0.08,0-0.21,0-0.38
		c-0.08-0.59-0.25-1.48-0.51-2.66c1.09,0.08,2.02,0.13,2.78,0.13c1.26,0.08,1.85-0.42,1.77-1.52v-5.06h-4.93v-2.91h4.93v-1.64
		l3.16-3.29h-6.83v-1.64l-0.51,0.76c-0.59-0.59-1.39-1.31-2.4-2.15c0.34-0.51,0.63-0.93,0.89-1.26h-5.69l-0.13,4.3h5.56
		c0,3.46-0.08,7.88-0.25,13.27c0,2.44-1.18,3.67-3.54,3.67c-0.76,0.08-1.56,0.13-2.4,0.13l-0.63-2.91c0.76,0,1.39,0,1.9,0
		c1.26,0.08,1.9-0.46,1.9-1.64c0.17-3.71,0.25-6.91,0.25-9.61h-2.91v0.38c-0.17,6.24-1.35,11.08-3.54,14.54
		c-0.25-0.17-0.63-0.51-1.14-1.01c-0.59-0.42-1.01-0.76-1.26-1.01c1.94-2.95,2.95-7.21,3.03-12.77c0.17-2.11,0.25-4.55,0.25-7.33
		H687.58z"/>
	<path class="st9" d="M730.27,395.24c-0.25-0.34-0.59-0.84-1.01-1.52c-1.01-1.52-1.77-2.65-2.28-3.41c-1.35,2.61-3.41,5.23-6.2,7.84
		c-0.25-0.59-0.72-1.48-1.39-2.66c-0.08-0.17-0.17-0.29-0.25-0.38c2.44-2.36,4.38-4.97,5.82-7.84c-0.93-1.52-2.36-3.67-4.3-6.45
		c-0.42-0.67-0.76-1.18-1.01-1.52l2.53-1.64c0.51,0.68,1.22,1.69,2.15,3.03c1.01,1.35,1.73,2.36,2.15,3.03
		c0.76-2.36,1.35-5.18,1.77-8.47h-8.22v-3.03h11.38v3.03c-0.59,4.55-1.52,8.43-2.78,11.63l4.3,6.32l-2.02,1.52
		c2.28-1.18,4.55-2.7,6.83-4.55c-0.76-2.53-1.26-5.77-1.52-9.73l-4.05,0.51l-0.25-3.16l4.17-0.38c-0.17-3.88-0.25-6.74-0.25-8.6
		h3.41c0,0.42,0,1.35,0,2.78c0.08,2.45,0.13,4.26,0.13,5.44l9.86-1.01l0.25,3.03l-9.99,1.01c0.25,3.62,0.59,6.15,1.01,7.59
		c1.77-1.85,3.5-4.05,5.18-6.57l2.66,1.9c-2.11,3.12-4.34,5.81-6.7,8.09l0.25,0.76c0.93,2.44,1.9,3.67,2.91,3.67
		c0.67,0,1.14-0.51,1.39-1.52c0.17-0.67,0.42-1.81,0.76-3.41c0.08-0.42,0.13-0.76,0.13-1.01c0.93,0.59,1.9,1.1,2.91,1.52
		c-0.34,2.02-0.76,3.71-1.26,5.06c-0.59,1.85-1.86,2.74-3.79,2.66c-2.44,0.08-4.42-1.56-5.94-4.93l-0.13-0.25
		c-1.77,1.26-3.71,2.57-5.82,3.92c-0.76-1.01-1.48-1.9-2.15-2.65L730.27,395.24z M745.56,375.77c-1.35-1.18-2.99-2.4-4.93-3.67
		l1.9-2.15c2.11,1.26,3.79,2.4,5.06,3.41L745.56,375.77z"/>
</g>
<g>
	<path class="st9" d="M499.98,414.5h-10.91v-2.69h4.37l-0.55-1.65c-0.26-0.71-0.54-1.28-0.84-1.71l2.98-0.39l0.26,0.52
		c0.39,0.84,0.78,1.92,1.17,3.24h3.53V414.5z M489.82,416.64h9.39v2.52h-9.39V416.64z M489.82,421.39h9.39v2.49h-9.39V421.39z
		 M489.91,426.44h9.35v11.07h-2.72v-1.46h-3.88v1.78h-2.75V426.44z M496.55,428.9h-3.88v4.69h3.88V428.9z M510.88,414.27h6.83v2.3
		h-6.83v1.71h7.99v2.43H500.2v-2.43h7.73v-1.71h-6.41v-2.3h6.41v-1.55h-7.09v-2.43h7.09v-2.23h2.94v2.23h7.31v2.43h-7.31V414.27z
		 M517,433.66v0.42c0,1.14-0.2,1.98-0.6,2.51c-0.4,0.53-1.21,0.79-2.44,0.79h-3.4l-0.71-2.52l3.24,0.16c0.73,0,1.1-0.34,1.1-1.04
		v-1.26h-9.94v5.11h-2.82v-15.57H517V433.66z M504.25,426.41h9.94v-1.78h-9.94V426.41z M504.25,430.55h9.94v-1.97h-9.94V430.55z"/>
	<path class="st9" d="M549.82,432.24l-0.58,1.23l-0.55,1.03h8.71v2.4h-29.81v-2.4h9.09l-0.58-1.13c-0.19-0.32-0.45-0.7-0.78-1.13
		h-3.88v-6.08h22.33v6.08H549.82z M542.76,419.13v2.1h-13.95v-12.2h13.75v2.1h-4.14v1.55h4.17v4.76h-4.17v1.68H542.76z
		 M528.98,424.92v-2.3h27.25v2.3H528.98z M535.9,412.69v-1.55h-4.4v1.55H535.9z M531.5,415.89h8.54v-1.52h-8.54V415.89z
		 M535.9,419.13v-1.68h-4.4v1.68H535.9z M551.02,428.22h-16.86v1.94h16.86V428.22z M538.23,432.24l0.65,1l0.65,1.26h6.12l0.29-0.39
		c0.19-0.28,0.36-0.55,0.49-0.81l0.49-1.07H538.23z M543.47,411.65v-2.52h11.98v2.1c-0.99,2.4-2.29,4.39-3.88,5.99
		c1.19,0.8,2.71,1.47,4.56,2.01c0.26,0.09,0.59,0.19,1,0.32l-1.29,2.65c-2.44-0.82-4.58-1.92-6.44-3.3
		c-1.17,0.93-2.63,1.68-4.4,2.27c-0.24,0.07-0.55,0.16-0.94,0.29l-1.2-2.59c1.66-0.28,3.14-0.81,4.43-1.59
		c-0.56-0.5-1.16-1.11-1.78-1.84l-1.68-2.01l2.17-1.39l1.59,1.88c0.67,0.73,1.25,1.28,1.75,1.65c1.14-1.01,2.11-2.32,2.91-3.92
		H543.47z"/>
	<path class="st9" d="M572.08,418.77c0,7.31-0.97,13.63-2.91,18.93l-2.88-2.17c1.23-3.11,2-6.16,2.31-9.16
		c0.31-3,0.47-6.07,0.47-9.22v-8.22h25.18v8.25h-22.17V418.77z M572.08,414.53h19.26v-2.94h-19.26V414.53z M594.84,421.49v2.69
		h-4.95v3.43h6.02v2.75h-6.02v7.48h-2.94v-7.48h-5.47c-0.35,1.77-0.97,3.21-1.88,4.32c-0.91,1.11-2.33,2.14-4.27,3.09l-2.01-2.52
		c2.8-1.01,4.54-2.64,5.21-4.89h-6.02v-2.75h6.28l0.07-1.65v-1.78h-5.08v-2.69h5.08l-1.1-1.46l-1.33-1.68l2.85-0.74l1.55,1.94
		c0.32,0.39,0.67,0.85,1.04,1.39c0.11,0.15,0.24,0.34,0.39,0.55h3.92c0.99-0.99,1.9-2.18,2.72-3.56c0.04-0.09,0.12-0.21,0.23-0.36
		l2.88,0.84l-1.13,1.68c-0.26,0.34-0.58,0.73-0.97,1.16c-0.04,0.04-0.11,0.12-0.19,0.23H594.84z M581.76,424.18v1.78l-0.07,1.65
		h5.24v-3.43H581.76z"/>
	<path class="st9" d="M618.23,419.94h-9.77v17.9h-2.98V409.1h12.75V419.94z M615.35,411.49h-6.89v1.94h6.89V411.49z M608.46,417.51
		h6.89v-2.07h-6.89V417.51z M624.09,427.48h4.6v2.56h-4.6v6.89h-2.72v-6.89h-3.75c-0.11,2.96-1.82,5.35-5.15,7.19l-2.2-2.04
		c0.28-0.15,0.52-0.28,0.71-0.39c2.29-1.21,3.55-2.79,3.79-4.76h-4.63v-2.56H615v-3.27h-3.88v-2.49h16.6v2.49h-3.63V427.48z
		 M621.37,424.21h-3.66v3.27h3.66V424.21z M629.4,434.63c0.73,0,1.1-0.34,1.1-1v-13.69h-9.9V409.1h12.88v24.5v0.81
		c0,1.98-1.01,2.98-3.04,2.98h-3.53l-0.75-2.88L629.4,434.63z M623.45,413.43h7.06v-1.94h-7.06V413.43z M630.5,415.44h-7.06v2.07
		h7.06V415.44z"/>
	<path class="st9" d="M647.17,413.95l0.36-2.82l0.29-3.01l2.88,0.1l-0.32,3.17l-0.32,2.56h5.18v2.2c-0.39,4.81-1.32,9.07-2.78,12.78
		c1.01,0.76,2.17,1.83,3.46,3.24L654,434.6l-1.55-1.68l-1.42-1.39c-1.6,2.42-3.3,4.38-5.11,5.89l-2.46-2.07
		c2.18-1.58,3.96-3.46,5.34-5.66l-2.27-1.78l-2.59-1.84c1.04-2.52,1.95-5.64,2.75-9.35h-3.56v-2.75H647.17z M648.69,426.09
		c0.6,0.39,1.07,0.75,1.39,1.07c1.06-2.8,1.78-5.97,2.17-9.48c0.02-0.26,0.06-0.58,0.13-0.97h-2.78l-0.91,4.05
		c-0.45,1.71-0.92,3.17-1.39,4.4L648.69,426.09z M667.72,412.23l0.84,1.26c1.6,2.37,3.04,4.94,4.34,7.7l-2.72,1.59l-0.55-1.3
		l-0.61-1.2c-2.33,0.52-4.55,0.78-6.67,0.78c-2.42,0-4.71,0.14-6.89,0.42l-0.36-3.07l0.94,0.06l0.87-0.03
		c1.68-3.15,3.04-6.59,4.08-10.32l3.2,0.45c-0.24,0.67-0.43,1.22-0.58,1.65c-1.12,3.37-2.24,6.1-3.37,8.19l3.75-0.26
		c1.9-0.19,3.14-0.34,3.72-0.45l-1.16-2.1c-0.56-0.97-1.05-1.75-1.46-2.33L667.72,412.23z M656.49,423.98h14.53v13.85h-2.88v-1.72
		h-8.77v1.72h-2.88V423.98z M668.14,426.73h-8.77v6.63h8.77V426.73z"/>
	<path class="st9" d="M682.32,424.02l0.32-0.49c1.64-2.48,2.75-4.38,3.33-5.7h-4.04v-2.56h7.09v2.17c-0.17,0.37-0.31,0.68-0.42,0.94
		c-0.89,1.86-1.88,3.61-2.98,5.28h3.46v1.81l-0.39,2.46c-0.22,1.19-0.45,2.04-0.71,2.56c0.91,1.79,2.34,2.91,4.29,3.37
		c1.95,0.45,5.33,0.68,10.15,0.68c2.59,0,5.07-0.05,7.44-0.16c0.43,0,0.95-0.03,1.55-0.1l-0.52,2.95h-7.83
		c-6.08,0-10.05-0.24-11.89-0.73c-1.84-0.49-3.27-1.6-4.29-3.35c-0.19,0.3-0.34,0.55-0.45,0.75c-0.91,1.53-1.87,2.75-2.88,3.66
		l-1.91-1.91c2.46-2.46,4-5.61,4.63-9.45h-3.95V424.02z M686.56,414.47l-1.91-2.3c-0.63-0.73-1.33-1.46-2.1-2.17l1.88-1.55
		c0.3,0.26,0.55,0.46,0.74,0.61c1.17,0.97,2.33,2.1,3.5,3.4L686.56,414.47z M694.68,414.6v1.36l-0.06,1.59h4.69
		c-0.04,1.73-0.07,3.06-0.07,4.01c-0.06,3.73-0.1,5.77-0.1,6.12c0,3.17-1.32,4.76-3.95,4.76h-0.68c-0.06,0-0.16-0.01-0.29-0.03
		l-0.75-2.85c0.39,0.09,0.84,0.13,1.36,0.13c0.17,0,0.36-0.02,0.57-0.07c0.21-0.04,0.39-0.14,0.57-0.29
		c0.39-0.34,0.58-2.58,0.58-6.7v-0.49v-0.39c0-0.93-0.01-1.43-0.03-1.52h-2.07c-0.3,4.68-1.35,8.64-3.14,11.88l-2.17-1.78
		c1.83-4.31,2.75-9.31,2.75-14.98v-0.55v-0.19h-2.2v-2.62h3.69l-0.61-1.65c-0.17-0.45-0.34-0.85-0.49-1.2l-0.26-0.52l2.75-0.52
		l0.78,1.91c0.22,0.52,0.43,1.18,0.65,1.97h3.59v2.33c1.51-1.77,2.74-3.85,3.69-6.25l2.59,0.81l-0.65,1.62
		c-0.19,0.48-0.41,0.86-0.65,1.16h6.41v2.75h-8.03l-1.26,1.55c-0.52,0.6-0.99,1.08-1.42,1.42l-1.91-1.84l0.91-0.94H694.68z
		 M711.35,426.02h-4.34v3.2v0.39c0,1.21-0.25,2.07-0.76,2.57c-0.51,0.51-1.48,0.76-2.93,0.76h-1.68l-0.71-2.85l2.27,0.13
		c0.71,0,1.07-0.33,1.07-1v-3.2h-3.69v-2.65h3.69v-0.97l0.42-0.42c0.67-0.67,1.33-1.43,1.98-2.3l0.19-0.29h-5.6v-2.59h8.71v2.23
		c-0.73,1.25-1.72,2.49-2.95,3.72v0.61h4.34V426.02z"/>
	<path class="st9" d="M730.89,436.73c-2.16,0-4.3,0.14-6.44,0.42l-0.39-2.62h2.1l1.91-0.1l-0.61-1.36l-0.71-1.33l2.53-0.42
		c0.09,0.17,0.16,0.31,0.23,0.42c0.26,0.45,0.43,0.78,0.52,0.97l0.65,1.55l1.23-0.1l1.07-0.1l0.58-1.46
		c0.13-0.32,0.24-0.68,0.32-1.07c0-0.04,0.02-0.12,0.06-0.23l2.52,0.42l-0.39,1.1l-0.45,1.07l1.33-0.19l1-0.23
		c1.36-1.08,2.62-2.41,3.79-3.98c-0.63-2.55-0.97-4.72-1.02-6.52c-0.05-1.8-0.09-2.99-0.11-3.58h-3.04v-1l-2.62-0.81
		c0.39-0.78,0.66-1.62,0.81-2.52c0-0.07,0.02-0.15,0.06-0.26h-5.27v1.46l3.72-0.23l0.1,1.88l-3.82,0.19v0.29
		c0,0.63,0.37,0.94,1.1,0.94h5.53v1.81h-6.18h-0.91c-1.4-0.17-2.1-1.02-2.1-2.56v-0.36l-2.62,0.16l-0.1-1.88l2.72-0.13v-1.59h-3.53
		v6.47c0,6.06-0.61,11.49-1.84,16.28l-2.43-2.17c1.08-4.19,1.62-9.82,1.62-16.89v-5.92h5.79v-4.53h2.72v1.2h7.48v2.07h-7.48v1.26
		h8.48c-0.11,1.47-0.3,2.75-0.58,3.85c-0.02,0.06-0.04,0.16-0.07,0.29h2.39l-0.1-4.08l-0.03-4.6h2.75v4.53
		c0,1.98,0.03,3.37,0.1,4.14h6.73v2.69h-6.7c0.11,0.97,0.16,2.06,0.16,3.27l0.39,3.98c0.67-0.99,1.22-1.95,1.65-2.88l1.23-2.69
		l2.23,1.13c-1.12,2.57-2.56,5.24-4.3,8.03c0.09,0.24,0.15,0.43,0.19,0.58c0.84,2.39,1.5,3.59,1.97,3.59c0.37,0,0.6-1.47,0.71-4.4
		l2.46,1.84c-0.41,3.95-1.45,5.92-3.11,5.92c-1.55,0-2.97-1.77-4.24-5.31c-0.3,0.37-0.54,0.66-0.71,0.87
		c-1.08,1.32-2.5,2.69-4.27,4.11l-0.68-1.36C734.58,436.53,732.56,436.73,730.89,436.73z M725.55,422.11h13.04v2.1h-13.04V422.11z
		 M725.88,425.5h12.23v5.53h-12.23V425.5z M735.49,427.41h-7.02v1.72h7.02V427.41z M746.69,415.31c-0.37-0.99-1.01-2.31-1.94-3.95
		c-0.11-0.17-0.24-0.4-0.39-0.68l2.23-1.1c0.88,1.25,1.61,2.42,2.17,3.49c0.11,0.19,0.25,0.45,0.42,0.78L746.69,415.31z"/>
</g>
</svg>
