<?xml version="1.0" encoding="utf-8"?>
<!--Designed by Vexels.com - 2018 All Rights Reserved - https://vexels.com/terms-and-conditions/-->
<svg version="1.1" id="Layer_1" xmlns="http://www.w3.org/2000/svg" xmlns:xlink="http://www.w3.org/1999/xlink" x="0px" y="0px"
	 viewBox="0 0 1200 1200" enable-background="new 0 0 1200 1200" xml:space="preserve">
<g>
	<g>
		<polygon fill-rule="evenodd" clip-rule="evenodd" fill="#D17575" points="267.622,267.366 273.966,402.377 235.906,457.552 
			251.767,507.71 247.005,551.179 273.966,581.273 248.591,639.792 275.552,673.229 258.108,708.341 261.28,740.108 
			285.068,748.467 259.69,775.219 264.452,800.297 288.237,817.017 261.28,855.471 267.622,875.534 273.966,897.27 266.036,930.706 
			267.622,960.801 283.482,975.85 285.068,1005.944 473.785,1054.431 700.567,1062.791 838.535,1027.68 966.993,972.504 
			1001.884,929.034 990.785,870.518 1014.57,818.688 992.367,783.578 1006.638,746.796 982.854,708.341 995.539,668.214 
			976.509,636.449 993.953,611.368 978.093,564.556 990.785,512.725 979.679,479.287 984.44,445.85 955.894,407.394 
			971.748,375.629 933.688,338.846 895.629,176.669 838.535,236.858 599.07,313.764 354.847,288.688 		"/>
		<path fill-rule="evenodd" clip-rule="evenodd" fill="#CC5B5D" d="M534.218,744.578c-8.246,5.115-14.859-1.081-17.937-9.406
			c-6.723-18.199,11.506-62.963,32.926-63.194C548.3,674.347,499.778,726.445,534.218,744.578L534.218,744.578z M667.216,700.041
			c-8.8,5.087-7.283-31.76-6.19-34.082c7.848,1.008,8.382,5.024,9.545,14.468C671.329,686.6,671.824,697.374,667.216,700.041
			L667.216,700.041z M520.695,615.258c2.932-11.568,6.192-2.368,6.249-17.306c-12.227,1.495-34.534,22.179-41.197,30.25
			c-10.512,12.727-20.377,34.287-22.291,52.208c-1.791,16.764-9.492,53.744-2.888,69.851c11.317,27.605,39.671,67.424,69.055,77.191
			c16.531,5.491,39.349,14.275,56.91,15.421c23.803,1.548,41.86-4.073,61.384-10.78c29.15-10.013,65.431-41.696,79.38-66.653
			c22.724-40.641,33.64-70.518,22.829-116.237c-5.427-22.922-6.993-40.54-22.93-52.183c-11.607-8.48-29.384-26.206-42.77-30.931
			c-13.147-4.642-52.929-4.875-67.526-1.087l-52.663,20.139C524.054,604.868,538.427,614.916,520.695,615.258z"/>
		<path fill-rule="evenodd" clip-rule="evenodd" fill="#D0D1D3" d="M572.723,130.312c8.07,9.63,9.257,3.169,25.848,6.916
			c16.088,3.631,33.706,0.531,49.757,7.953c26.347,12.183,16-0.003,37.661,22.92c6.955,7.358,7.75,7.759,6.06,21.279
			c-1.301,10.421,3.185,17.333-1.005,24.534c-2.629,4.524-12.792,8.875-17.532,14.044c-8.613,9.388-21.805,23.64-30.276,28.806
			c-15.956,9.725-20.802,15.7-42.277,18.626c-9.346,1.273-8.799,5.996-47.033,10.631c-18.835,2.285-31.384,8.293-47.715,12.521
			c11.118,9.753,35.962,6.724,49.663,6.844c1.603,0.012,4.447-0.003,5.998-0.161c13.8-1.402,13.491-6.659,45.295-5.719
			c24.654,0.73,91.052-16.888,113.893-27.652c8.723-4.114,10.316-5.138,21.08-7.675l44.385-13.915
			c27.59-9.169,54.518-29.548,67.652-50.878c4.49-7.292,9.116-10.474,11.644-16.111c2.407-5.373,7.531-19.033,7.342-23.096
			c-0.77-16.307-20.79-18.48-32.375-27.479c-15.716-12.201-69.008-31.155-83.538-31.131c-11.48,0.02-13.722-0.827-22.727-4.154
			l-52.536-3.785c-6.927,1.703-13.123,5.532-21.735,7.523c-20.24,4.676-17.258-0.199-44.574,13.58
			C591.162,127.095,590.167,123.866,572.723,130.312z"/>
		<path fill-rule="evenodd" clip-rule="evenodd" fill="#D0D1D3" d="M294.797,1023.218c-16.986,34.672,0.148,38.338,17.406,50.395
			c29.109,20.334,23.624,14.136,59.863,22.973c7.754,1.889,13.956,4.727,20.532,6.528c8.877,2.43,16.985,0.97,24.959,2.582
			c31.391,6.341,66.029,6.694,99.217,9.509c120.537,10.23,136.327,3.524,246.802-14.313c16.056-2.593,29.235-6.411,44.656-9.63
			c33.189-6.928,70.218-18.182,97.517-39.582l31.842-37.975c5.251-5.974,2.553-1.295,5.374-9.16
			c-13.269-0.082-39.272,11.881-50.451,17.469c-36.358,18.183-72.117,15.21-103.219,27.858
			c-15.438,6.279-29.874,15.444-48.506,15.217l-2.057-0.026c-20.48-0.247-41.224,0.549-59.564,5.016
			c-15.248,3.713-43.564,1.736-61.15,3.477c-41.24,4.082-77.585,4.549-117.923-0.781c-60.966-8.047-78.148-18.909-104.98-23.589
			c-15.377-2.68-40.792-5.738-52.424-12.082C331.138,1030.8,308.427,1022.248,294.797,1023.218z"/>
		<path fill-rule="evenodd" clip-rule="evenodd" fill="#D0D1D3" d="M273.129,227.372c4.865,6.017,12.758,10.739,23.59,10.586
			c4.48-1.483,45.282-49.941,70.567-66.222l53.333-28.449l59.974-21.554c7.337-2.253,13.668-4.025,20.582-6.515l20.088-6.939
			c0.557-0.186,3.485-1.362,4.483-1.693c20.282-6.682,20.711-9.277,48.711-11.921c11.744-1.109,11.062,1.463,12.512,2.659
			c-1.743,1.183,0.174,0.608-4.252,2.5c-7.106,3.042-9.634,2.016-16.304,2.745c-9.466,1.03-14.752,3.811-21.952,6.682l-8.057,2.483
			c-0.543,0.154-1.084,0.288-1.627,0.442l-6.389,1.877c-45.308,13.501-113.216,38.916-151.63,63.384l-44.12,35.791
			c-5.403,6.114-5.64,9.302-12.563,14.916c-6.41,5.2-9.608,6.78-11.296,16.565c8.655,11.128,8.029,1.586,33.911,16.811l34.62,15.748
			c9.498,2.941,19.096,4.989,29.567,5.529c-3.234-17.75-7.399-5.947-19.023-25.611c-3.286-5.558-6.525-27.656-6.777-36.319
			l1.97-2.218c0.193-0.224,0.73-0.85,0.973-1.124c0.242-0.282,0.699-0.828,0.971-1.135l32.315-24.334
			c0.111-0.051,3.821-1.812,4.288-2.08l9.002-5.642c18.935-9.675,47.469-19.214,69.446-30.43l53.302-26.394
			c16.107-9.009,22.24-8.743,39.955-14.335c9.586-3.027,26.028-10.898,36.625-15.486c17.937-7.769,23.444-3.061,35.896-18.716
			c-18.839-4.866-129.894,15.635-146.287,21.774c-29.867,11.189-50.37,11.144-76.316,25.413
			c-25.605,14.082-33.402,4.973-90.755,45.156C332.221,185.5,284.484,209.124,273.129,227.372z"/>
		<path fill-rule="evenodd" clip-rule="evenodd" fill="#D0D1D3" d="M491.677,203.526c0.784,11.648-3.333,24.133-14.866,29.354
			c-11.472,5.198-23.4,11.079-28.97-2.661c-6.439-15.877,5.249-22.052,13.975-28.327
			C478.107,190.17,483.071,196.674,491.677,203.526L491.677,203.526z M565.048,178.296c8.815-3.934,28.26-4.922,39.511-2.266
			c1.914,0.449,29.823,12.355,23.433,25.366c-2.774,5.648-10.615,11.773-17.055,14.778c-15.732,7.333-36.215,27.215-61.412,15.278
			c-47.371-22.436-23.302-27.333-11.678-38.116C551.329,180.821,548.894,185.509,565.048,178.296L565.048,178.296z M402.838,234.994
			c1.001,14.372,6.928,15.4,24.875,22.034c7.317,2.705,73.82,5.372,80.874,5.022c24.335-1.214,53.254-12.933,70.799-17.536
			c18.471-4.85,56.477-8.218,70.051-20.294c8.569-7.624,14.076-16.619,22.288-23.835c1.368-20.952-3.807-27.198-16.392-34.922
			c-32.941-20.225-38.177-4.743-54.53-3.862c-21.39,1.16-39.422-0.517-66.255,8.664c-48.105,16.465-69.807,14.025-102.831,43.437
			C413.823,229.642,409.312,229.345,402.838,234.994z"/>
		<path fill-rule="evenodd" clip-rule="evenodd" fill="#D0D1D3" d="M674.64,79.535c7.843,6.331,44.376,4.051,54.066,6.849
			c7.77,2.244,13.077,5.418,22.445,6.5c9.503,1.097,20.613-1.583,29.298,1.969l43.084,17.474
			c28.189,8.661,24.473,16.307,43.393,20.085c-1.941-18.101-9.341-12.675-32.844-29.406C801.53,79.839,761.768,83,732.848,79.753
			C721.5,78.48,685.104,73.059,674.64,79.535z"/>
	</g>
	<g>
		<path fill-rule="evenodd" clip-rule="evenodd" fill="#4C2405" d="M255.735,1023.218c14.373-0.97,38.313,7.582,50.497,13.886
			c12.263,6.344,39.059,9.403,55.267,12.082c28.287,4.679,46.404,15.542,110.675,23.589c42.531,5.33,80.847,4.863,124.326,0.781
			c18.539-1.74,48.391,0.236,64.47-3.477c19.333-4.467,41.201-5.263,62.796-5.016l2.167,0.026
			c19.643,0.227,34.862-8.939,51.137-15.217c32.789-12.648,70.489-9.674,108.821-27.858c11.782-5.588,39.197-17.551,53.188-17.469
			c-2.973,7.865-0.127,3.185-5.665,9.16l-33.57,37.975c-28.78,21.4-67.817,32.654-102.809,39.582
			c-16.259,3.219-30.151,7.037-47.081,9.63c-116.466,17.836-133.114,24.543-260.19,14.313c-34.993-2.815-71.511-3.169-104.607-9.509
			c-8.404-1.612-16.951-0.152-26.313-2.582c-6.929-1.801-13.47-4.639-21.647-6.528c-38.205-8.837-32.423-2.639-63.108-22.973
			C255.893,1061.556,237.83,1057.89,255.735,1023.218L255.735,1023.218z M369.64,234.994c6.829-5.649,11.58-5.352,30.446-21.293
			c34.815-29.412,57.696-26.972,108.41-43.437c28.294-9.181,47.302-7.503,69.854-8.664c17.238-0.881,22.762-16.363,57.485,3.862
			c13.27,7.724,18.727,13.97,17.283,34.922c-8.657,7.216-14.461,16.21-23.494,23.835c-14.31,12.076-54.379,15.444-73.851,20.294
			c-18.497,4.604-48.985,16.322-74.646,17.536c-7.433,0.35-77.547-2.317-85.263-5.022
			C376.945,250.394,370.696,249.366,369.64,234.994L369.64,234.994z M594.028,114.732c-25.846,12.363-26.891,9.134-45.282,15.579
			c8.508,9.63,9.759,3.169,27.251,6.916c16.964,3.631,35.535,0.531,52.457,7.953c27.776,12.183,16.865-0.003,39.706,22.92
			c7.331,7.358,8.172,7.759,6.39,21.279c-1.371,10.421,3.355,17.333-1.062,24.534c-2.771,4.524-13.488,8.875-18.482,14.044
			c-9.078,9.388-22.986,23.64-31.919,28.806c-16.822,9.725-21.933,15.7-44.571,18.626c-9.852,1.273-9.277,5.996-49.585,10.631
			c-19.855,2.285-33.085,8.293-50.306,12.521c11.721,9.753,37.917,6.724,52.363,6.844c1.691,0.012,4.685-0.003,6.318-0.161
			c14.553-1.402,14.228-6.659,47.753-5.719c25.994,0.73,95.997-16.888,120.075-27.652c9.198-4.114,10.875-5.138,22.221-7.675
			l46.797-13.915c29.087-9.169,57.478-29.548,71.322-50.878c4.734-7.292,9.611-10.474,12.276-16.111
			c2.54-5.373,7.943-19.033,7.741-23.096c-0.813-16.307-21.918-18.48-34.134-27.479c-16.568-12.201-72.751-31.155-88.069-31.131
			c-12.1,0.02-14.467-0.827-23.959-4.154l-55.393-3.785c-7.298,1.703-13.829,5.532-22.91,7.523
			C619.686,105.828,622.829,100.954,594.028,114.732L594.028,114.732z M713.193,86.385c-10.214-2.798-48.729-0.518-57.002-6.849
			c11.034-6.477,49.403-1.055,61.369,0.217c30.489,3.248,72.41,0.086,106.729,23.254c24.781,16.73,32.581,11.305,34.625,29.406
			c-19.946-3.778-16.028-11.425-45.746-20.085l-45.422-17.474c-9.156-3.551-20.869-0.872-30.89-1.969
			C726.978,91.803,721.386,88.628,713.193,86.385L713.193,86.385z M232.892,227.372c5.13,6.017,13.45,10.739,24.871,10.586
			c4.724-1.483,47.738-49.941,74.395-66.222l56.23-28.449l63.225-21.554c7.738-2.253,14.411-4.025,21.699-6.515l21.182-6.939
			c0.58-0.186,3.671-1.362,4.724-1.693c21.38-6.682,21.836-9.277,51.355-11.921c12.382-1.109,11.659,1.463,13.191,2.659
			c-1.839,1.183,0.183,0.608-4.484,2.5c-7.491,3.042-10.157,2.016-17.19,2.745c-9.978,1.03-15.552,3.811-23.14,6.682l-8.494,2.483
			c-0.574,0.154-1.147,0.288-1.716,0.442l-6.738,1.877c-47.762,13.501-119.358,38.916-159.857,63.384l-46.512,35.791
			c-5.697,6.114-5.947,9.302-13.245,14.916c-6.762,5.2-10.132,6.78-11.908,16.565c9.124,11.128,8.465,1.586,35.75,16.811
			l36.498,15.748c10.011,2.941,20.133,4.989,31.173,5.529c-3.412-17.75-7.803-5.947-20.057-25.611
			c-3.466-5.558-6.878-27.656-7.147-36.319l2.079-2.218c0.205-0.224,0.771-0.85,1.027-1.124c0.253-0.282,0.737-0.828,1.021-1.135
			l34.073-24.334c0.117-0.051,4.025-1.812,4.518-2.08l9.492-5.642c19.962-9.675,50.047-19.214,73.217-30.43l56.196-26.394
			c16.979-9.009,23.443-8.743,42.119-14.335c10.107-3.027,27.441-10.898,38.616-15.486c18.907-7.769,24.718-3.061,37.842-18.716
			c-19.861-4.866-136.944,15.635-154.227,21.774c-31.485,11.189-53.102,11.144-80.455,25.413
			c-26.995,14.082-35.217,4.973-95.683,45.156C295.191,185.5,244.866,209.124,232.892,227.372L232.892,227.372z M237.802,283.208
			c9.902-0.537,13.339,3.861,20.161,7.002c21.677,9.984,41.917,18.149,64.842,24.338c16.974,4.579,33.185,6.136,50.228,10.069
			c20.59,4.758,27.671,6.913,51.075,8.521c38.944,2.683,70.662,6.585,113.259,3.966c118.474-7.282,66.923-3.046,151.669-27.738
			c42.27-12.316,132.852-47.714,165.737-72.391c6.502-4.879,8.91-9.258,15.971-14.414c11.75-8.582,20.263-16.922,27.88-30.543
			c6.468-11.575,3.789-12.97-0.256-22.058c-5.958-13.384-8.584-30.556-12.871-46.429c-2.74-10.133-6.082-10.205-11.491-18.449
			c-9.962-15.182-13.977-20.837-29.971-30.37c-4.951-2.951-13.403-6.995-18.699-8.967c-13.149-4.884-34.112-6.761-48.985-11.74
			c-19.573-6.553-90.672-3.969-111.79-0.033c-16.769,3.129-34.569,4.749-53.504,5.126c-39.096,0.78-66.78,15.981-101.879,17.061
			c-20.819,0.643-28.92,9.283-46.348,14.449c-16.066,4.762-31.617,4.815-46.818,11.406l-42.392,18.186
			c-8.762,2.951-14.467,4.493-22.906,7.636c-8.339,3.102-14.066,3.586-20.881,7.061l-60.771,29.905
			c-1.754,0.865-4.843,2.388-5.818,2.85c-1.98,0.947-2.394,0.995-4.476,2.104c-14.487,7.7-25.577,22.23-35.84,35.731
			c-30.126,39.642-15.626,42.17-10.83,54.561c10.319,26.658-1.428,8.15,3.112,57.777l6.218,63.302
			c0.863,8.751,2.522,9.289,2.167,20.208c-19.974,11.03-36.246,23.027-40.145,51.013c-6.176,44.301,27.982,53.788,19.543,69.296
			c-15.858,29.13-23.518,42.167,12.079,64.707c-0.604,12.639-6.231,16.083-9.808,26.319c-1.116,3.185-0.945,3.483-1.94,6.897
			l-2.148,6.398c-13.646,34.708,15.156,29.618,26.268,47.898c-9.814,16.428-41.02,38.866-10.234,66.518
			c5.254,4.721,2.711,1.1,6.635,7.176c-5.387,16.107-19.47,12.492-19.168,39.046c0.212,18.654,7.769,25.324,23.282,31.845
			c-1.121,15.302-16.468,25.911-17.353,39.765c-1.163,18.325,23.745,29.372,13.7,44.516l-4.771,6.082
			c-6.765,8.679-8.382,19.113-7.504,31.637c1.504,21.504,12.316,24.562,21.658,36.859c2.344,6.837-6.508,29.313-10.771,36.758
			c-0.322,0.564-1.365,2.088-1.669,2.681c-8.113,15.837,3.941,38.386,14.461,49.804c35.394,38.42,54.509,38.559,101.536,56.202
			c9.589,3.596,15.977,8.771,26.556,12.035c47.315,14.584,97.204,9.956,145.883,14.423c12.954,1.185,27.668,0.768,40.729,0.43
			l104.587-11.716c7.803-1.622,12.754-0.557,20.019-1.836c37.109-6.533,150.976-25.34,177.949-40.584
			c29.756-16.812,78.044-35.477,96.06-62.003c9.76-14.377,27.459-31.009,32.151-48.325c5.299-19.571,4.126-13.419,15.137-25.786
			l10.926-16.641c4.064-8.995,5.442-14.869,1.65-23.185c-4.024-8.818-3.252-3.51-3.795-15.908
			c-0.885-20.241-8.718-30.028-8.747-30.389c-0.9-12.591,25.715-30.695,14.569-70.419c-3.267-11.647-7.011-9.445-11.087-18.446
			c6.528-11.602,21.27-17.049,16.559-40.913c-4.303-21.798-11.915-19.914-21.585-34.948c3.299-11.339,18.003-18.613,10.114-38.701
			c-6.152-15.674-18.932-19.365-23.82-30.657l8.809-7.106c1.394-1.128,7.535-6.278,8.031-6.935
			c7.466-9.945-2.758-31.004-5.014-42.653c-3.28-16.916-4.385-8.821-8.904-19.166c-0.19-7.349,35.087-45.953,7.431-81.387
			c-2.424-3.103-1.267-0.717-3.981-4.647c-7.851-11.369,18.499-16.195-2.317-41.024c-5.185-6.186-5.323-8.74-10.309-15.778
			c-3.709-5.245-9.994-7.925-13.52-13.219c2.945-6.007,0.057-0.535,3.776-5.729c1.949-2.727,1.844-1.459,3.343-4.778
			c1.548-3.438,2.056-9.003,2.562-13.273c1.084-9.1,3.832-18.177,0.217-26.494c-6.366-14.647-20.31-23.032-39.551-22.937
			c-2.281-9.851-5.418-18.986-8.359-31.135c-7.931-32.764-3.714-85.213-23.988-89.905c-11.56,8.986-2.824,8.426-7.271,24.45
			c-1.838,6.619-2.972,2.376-3.272,11.504c-0.484,14.647,6.319,56.192,8.508,69.804c3.811,23.671-2.811,36.903,21.728,39.453
			c25.76,2.683,35.688,1.956,35.068,30.616c-5.747,5.203-6.357,6.777-14.907,10.821c-24.243,11.466-13.007,12.284-5.819,19.086
			c14.324,13.552,28.199,7.429,32.299,20.373l1.469,17.861c-3.86,23.696-34.11,14.907-39.099,36.979
			c11.577,13.991,20.578,5.156,35.819,11.315c29.365,11.876,14.677,43.475-2.313,55.365c-9.26,6.483-23.576,5.869-30.593,13.516
			c1.09,5.813,2.572,5.685,5.286,10.004l31.753-2.519c12.871,16.894,25.087,23.662-3.172,38.512
			c-16.97,8.913-22.895,0.218-28.228,16.86c1.903,3.017,9.51,13.001,12.47,15.382c7.546,6.059,10.569,1.22,22.816,1.195
			c8.777,12.955,18.073,17.842,1.292,35.57c-19.399,20.494-18.053,9.148-33.86,17.953c-0.392,12.452,2.072,5.87,8.945,13.245
			c4.773,5.121,2.587,6.081,9.601,10.846c10.955-5.22,13.479-10.613,25.729-0.844c9.557,7.624,9.713,11.988,3.38,22.311
			c-5.958,9.718-8.154,13.706-16.61,20.426c-9.119,7.254-14.435,6.682-22.309,11.949c0.651,18.265,16.146,9.74,28.704,12.506
			c11.874,2.609,19.043,15.096,21.189,25.873c3.365,16.916-16.174,35.491-28.948,41.604c-9.473,4.534-22.228,3.093-13.41,17.132
			c2.118,3.367,4.111,4.714,6.608,7.258c6.326-1.306,6.796-2.534,14.015-4.077c9.256,14.313,20.578,23.697,1.919,40.676
			c-16.636,15.137-5.432,32.569-67.318,58.629c-14.651,6.168-27.671,12.723-41.825,18.761
			c-21.932,9.356-75.065,21.928-99.144,26.907c-35.431,7.33-67.686,13.154-105.456,18.192c-34.66,4.63-106.672-5.785-116.761-0.163
			c-6.95,3.873,4.369,0.546-6.044,3.086c-8.559,2.088-83.547-12.278-101.693-12.736c-30.284-0.759-105.548-13.972-135.774-23.406
			c-11.09-3.463-10.881-5.748-20.765-9.704c-39.804-15.946-17.931-12.862-33.46-26.116c5.912-6.572,10.866-9.772,11.47-20.215
			l-0.31-2.91c-1.419-11.883-15.226,3.931-30.262-6.027c-2.108-21.153-4.74-22.979,6.575-36.803
			c4.089-4.993,7.228-11.087,11.773-14.151c8.556-5.773,23.127-6.768,10.95-32.728c-16.896,0.608-17.137,1.397-31.376-3.392
			c-0.363-17.592,10.626-27.827,21.794-38.361c3.545-3.343,6.421-4.192,10.676-6.928l-0.062-17.52
			c-10.534-6.452-10.273-3.124-25.161-5.317c-6.084-6.294-13.855-15.498-7.011-28.575c4.607-8.803,15.782-9.008,24.155-14.758
			c0.057-4.767-0.508-9.311-1.962-12.961c-3.485-8.776-17.58-7.408-28.06-14.981c-2.686-20.807,3.611-27.937,15.557-36.677
			c16.519-12.086,10.585-15.415,15.998-34.979c-18.035-8.452-47.861-28.781-21.274-48.259c9.183-6.727,5.384-0.206,9.236-12.925
			c1.497-4.951,1.655-12.56,2.912-14.936c1.252-2.363,3.018-2.174,4.421-5.509c0.756-1.802,0.553-2.017,0.556-4.465
			c0.006-14.294-18.686-1.914-28.847-5.4c-10.221-3.504-8.483-16.123-7.691-28.613c9.166-8.265,11.639-7.56,22.085-14.464
			c37.728-24.948-7.876-16.761-18.708-28.854c-21.254-23.721-2.616-53.698,20.047-67.507c6.019-3.665,6.128-1.946,12.434-6.656
			l-8.256-64.648C239.297,327.783,236.393,308.061,237.802,283.208z"/>
		<path fill-rule="evenodd" clip-rule="evenodd" fill="#4C2405" d="M493.892,615.258c18.696-0.343,3.542-10.39,45.905-30.118
			l55.522-20.139c15.388-3.788,57.331-3.555,71.191,1.087c14.114,4.725,32.853,22.452,45.091,30.931
			c16.802,11.643,18.454,29.261,24.17,52.183c11.4,45.718-0.108,75.595-24.064,116.237c-14.707,24.957-52.956,56.641-83.686,66.653
			c-20.581,6.707-39.622,12.328-64.717,10.78c-18.514-1.147-42.568-9.93-59.996-15.421c-30.979-9.767-60.872-49.586-72.802-77.191
			c-6.964-16.107,1.153-53.087,3.043-69.851c2.023-17.921,12.421-39.481,23.501-52.208c7.027-8.071,30.539-28.755,43.434-30.25
			C500.42,612.89,496.986,603.691,493.892,615.258L493.892,615.258z M746.03,650.025c3.067-7.317-15.884-44.319-23.685-52.758
			c-6.164-6.669-34.802-31.51-43.806-36.139c-14.756-7.586-49.302-9.877-69.736-9.655c-14.931,0.161-23.285,7.754-32.678,8.325
			c-13.826,0.843-8.345-8.142-29.589,0.313c-7.102,2.824-7.213,3.888-14.928,6.811l-36.453,21.51
			c-47.171,32.812-44.199,22.708-60.401,60.55c-4.802,11.216-9.112,13.728-10.967,27.529c-2.514,18.713-8.843,54.231-2.644,72.815
			c7.276,21.814,18.556,35.571,29.27,52.922c15.862,25.69,49.264,36.298,77.343,42.768l31.51,7.298
			c29.232,2.68,45.869-3.767,68.24-10.509c13.421-4.044,41.193-21.194,50.659-29.327c13.699-11.776,28.923-25.318,38.481-41.624
			c12.916-22.028,32.578-59.908,32.037-88.167C748.469,671.731,742.159,659.257,746.03,650.025z"/>
		<path fill-rule="evenodd" clip-rule="evenodd" fill="#4C2405" d="M838.861,916.621c3.809-10.423,20.12-6.828,23.668-4.009
			C857.06,915.6,844.004,919.388,838.861,916.621L838.861,916.621z M671.745,960.962c9.498,0.012,26.023-7.946,69.362-8.006
			c57.232-0.083,70.462-20.964,123.141-30.784c25.225-4.698,30.287-13.835,41.81-16.224c6.47-1.343,9.082-0.695,14.502-2.639
			c-0.079-15.737-16.293-9.706-30.335-6.635c-48.192,10.543-29.959,4.487-67.008,20.171c-34.498,14.607-15.823,5.568-33.162,10.095
			c-6.319,1.648-9.008,4.202-17.59,6.003l-55.496,9.745c-26.12,5.966-47.498,9.973-75.968,7.461
			c-25.911-2.287-54.632,4.944-84.13,4.174c-29.27-0.762-54.267,2.394-84.53,2.363c-34.233-0.035-67.582-4.187-84.439-4.158
			c-14.575,0.022-28.912,0.162-43.491-0.357c-21.972-0.784-20.455-5.719-35.004-8.56l-5.141,7.688
			c25.836,16.572,51.849,10.426,87.88,11.762c67.37,2.506,77.744,4.187,143.106-0.96c17.86-1.402,30.856,2.458,45.396,1.251
			c14.266-1.185,31.271-3.343,45.479-4.407C642.758,957.698,655.882,960.94,671.745,960.962z"/>
		<path fill-rule="evenodd" clip-rule="evenodd" fill="#4C2405" d="M276.475,372.591c16.463,16.291,35.228,16.582,57.127,21.167
			c22.161,4.641,48.126,8.695,71.671,10.922l77.87,4.079c54.051-3.769,68.401-2.903,119.292-3.394
			c13.652-0.132,98.6-15.996,108.325-16.357c28.533-1.052,70.836-15.541,101.923-21.127c11.438-2.055,25.35-1.795,19.451-16.436
			c-11.075-4.654-11.87,4.345-25.896,8.521c-10.556,3.145-23.574,5.466-34.332,7.672c-7.211,1.481-8.101,2.42-15.157,4.157
			c-41.175,10.155-81.073,12.591-121.077,19.9c-12.872,2.354-17.456,5.471-35.418,5.63c-13.668,0.117-27.561-0.565-41.216-0.478
			c-75.542,0.48-69.945,6.287-156.628-1.744c-16.648-1.542-88.49-12.486-102.29-18.875
			C289.78,371.438,285.4,362.039,276.475,372.591z"/>
		<path fill-rule="evenodd" clip-rule="evenodd" fill="#4C2405" d="M540.654,178.296c-17.03,7.213-14.465,2.525-28.676,15.04
			c-12.256,10.783-37.631,15.681,12.31,38.116c26.565,11.937,48.161-7.945,64.748-15.278c6.787-3.005,15.055-9.13,17.978-14.778
			c6.737-13.011-22.686-24.916-24.704-25.366C570.448,173.373,549.949,174.362,540.654,178.296z"/>
		<path fill-rule="evenodd" clip-rule="evenodd" fill="#4C2405" d="M885.805,780.571c14.173-14.094-1.677-146.435-3.57-173.99
			c-1.107-16.132-2.101-23.621-2.809-41.049c-0.938-23.137-10.585-106.151-26.273-119.905c2.361,11.934,3.357,24.663,7.013,36.171
			c14.758,46.467,14.428,157.68,21.794,210.533C885.938,720.874,883.559,750.309,885.805,780.571z"/>
		<path fill-rule="evenodd" clip-rule="evenodd" fill="#4C2405" d="M333.624,887.689c5.732-6.382,4.815-24.23,2.133-34.224
			c-7.213-26.904-12.402-113.036-12.255-144.95c0.083-17.659-2.781-20.764-3.432-34.509c-0.289-6.145-2.117-63.933-4.559-68.685
			c-6.007,28.673,2.063,79.301,3.26,109.664c1.956,49.62-0.053,53.602,6.418,110.96C329.161,861.158,322.439,883.14,333.624,887.689
			z"/>
		<path fill-rule="evenodd" clip-rule="evenodd" fill="#4C2405" d="M463.301,203.526c-9.074-6.851-14.306-13.356-31.481-1.634
			c-9.201,6.275-21.52,12.451-14.733,28.327c5.871,13.739,18.45,7.858,30.544,2.661
			C459.788,227.658,464.129,215.174,463.301,203.526z"/>
		<path fill-rule="evenodd" clip-rule="evenodd" fill="#4C2405" d="M792.712,749.681c-0.695-14.351-0.746-16.304-0.389-30.215
			c0.326-12.635-2.818-74.663-5.908-84.435c-1.481-4.683-0.278-1.915-1.962-4.701c-0.26,0.489-0.461,1.196-0.553,1.57l2.881,59.864
			c2.546,20.038-2.831,63.434,3.604,91.307c2.061,8.91,3.154,18.986,4.345,28.095c2.057,15.737-2.641,48.209,11.397,52.657
			C809.881,856.41,794.118,778.861,792.712,749.681z"/>
		<path fill-rule="evenodd" clip-rule="evenodd" fill="#4C2405" d="M784.454,626.148c2.685-4.14-1.712-174.388-17.198-194.455
			c-4.382,8.411,2.973,33.95,4.512,44.91c2.013,14.338,3.896,35.591,4.787,49.825l3.618,76.003c0.038,4.142,0.158,8.205,0.73,12.243
			C783.294,631.567,776.096,613.946,784.454,626.148z"/>
		<path fill-rule="evenodd" clip-rule="evenodd" fill="#4C2405" d="M394.695,622.297l-4.78-66.3
			c-2.708-22.784-5.974-42.89-7.874-67.055c-18.98-1.822-0.56,32.281,0.863,63.438c0.676,14.778,1.551,28.193,2.066,41.264
			C385.428,605.22,383.562,623.007,394.695,622.297z"/>
		<path fill-rule="evenodd" clip-rule="evenodd" fill="#4C2405" d="M315.711,593.16c6.884-15.978-2.853-14.657-0.326-36.636
			c3.018-26.261-3.258-67.234-2.79-88.517c0.24-10.827,4.18-33.832-6.105-35.741c-4.904,10.573,0.316,67.03,2.271,80.652
			C311.448,531.596,310.475,579.858,315.711,593.16z"/>
		<path fill-rule="evenodd" clip-rule="evenodd" fill="#4C2405" d="M508.148,744.578c-36.307-18.133,14.85-70.231,15.804-72.601
			c-22.58,0.231-41.799,44.995-34.71,63.194C492.487,743.497,499.456,749.693,508.148,744.578z"/>
		<path fill-rule="evenodd" clip-rule="evenodd" fill="#4C2405" d="M706.426,858.251c-6.051,1.85-5.511,0.422-6.249,8.38
			c-0.803,8.616-0.677,34.452,6.615,39.653C709.762,899.537,710.883,865.888,706.426,858.251z"/>
		<path fill-rule="evenodd" clip-rule="evenodd" fill="#4C2405" d="M641.838,665.958c-1.15,2.323-2.751,39.169,6.527,34.082
			c4.86-2.666,4.338-13.44,3.539-19.614C650.675,670.982,650.115,666.966,641.838,665.958z"/>
		<path fill-rule="evenodd" clip-rule="evenodd" fill="#4C2405" d="M667.111,489.242c-1.367-9.984-4.645-8.989-7.182-20.521
			c-2.275-10.354,1.043-18.777-7.339-21.722c-3.274,6.385-1.185,16.067,0.622,24.663
			C655.013,480.231,657.086,488.304,667.111,489.242z"/>
		<path fill-rule="evenodd" clip-rule="evenodd" fill="#4C2405" d="M487.247,868.937c-16.344-12.296-16.338,10.626-13.424,18.215
			c2.957,7.712-0.78,4.363,7.188,5.02L487.247,868.937z"/>
		<path fill-rule="evenodd" clip-rule="evenodd" fill="#4C2405" d="M473.696,506.199c0.828-9.124-1.258-15.282-2.143-23.08
			c-1.13-10-0.227-15.238-7.882-18.932c-3.652,6.527,0.98,14.568,2.227,21.494C468.19,498.358,463.254,502.617,473.696,506.199z"/>
		<path fill-rule="evenodd" clip-rule="evenodd" fill="#4C2405" d="M585.048,890.726c-8.268,2.435-6.222,3.39-6.249,15.081
			c-0.029,10.161-1.862,11.959,5.656,14.135c3.181-5.011,2.723-6.003,3.143-14.11C588.429,889.806,586.448,892.652,585.048,890.726z
			"/>
	</g>
</g>
</svg>
