<?xml version="1.0" encoding="utf-8"?>
<!--Designed by Vexels.com - 2018 All Rights Reserved - https://vexels.com/terms-and-conditions/-->
<svg  width="1200px" height="1200px" version="1.1" id="Layer_1" xmlns="http://www.w3.org/2000/svg" xmlns:xlink="http://www.w3.org/1999/xlink" x="0px" y="0px"
	 viewBox="0 0 1200 1200" enable-background="new 0 0 1200 1200" xml:space="preserve">
<g>
	<path fill="#9D6E38" d="M1150,600c0,151.878-61.561,289.378-161.091,388.909S751.878,1150,600,1150
		s-289.378-61.561-388.909-161.091S50,751.878,50,600s61.561-289.378,161.091-388.909S448.122,50,600,50
		s289.378,61.561,388.909,161.091S1150,448.122,1150,600z"/>
	<path fill="#CE963F" d="M1128.401,600c0,145.914-59.143,278.014-154.765,373.636S745.914,1128.401,600,1128.401
		s-278.014-59.143-373.636-154.765S71.599,745.914,71.599,600s59.143-278.014,154.765-373.636S454.086,71.599,600,71.599
		s278.014,59.143,373.636,154.765S1128.401,454.086,1128.401,600z"/>
	<path fill="#ECB348" d="M1104.641,600c0,139.353-56.484,265.513-147.806,356.835S739.353,1104.641,600,1104.641
		s-265.513-56.484-356.835-147.806S95.359,739.353,95.359,600s56.484-265.513,147.806-356.835S460.647,95.359,600,95.359
		s265.513,56.484,356.835,147.806S1104.641,460.647,1104.641,600z"/>
	<path fill="#9D6E38" d="M965.145,600c0,100.832-40.87,192.118-106.949,258.197S700.832,965.145,600,965.145
		s-192.118-40.87-258.197-106.949S234.855,700.832,234.855,600s40.87-192.118,106.949-258.197S499.168,234.855,600,234.855
		s192.118,40.87,258.197,106.949S965.145,499.168,965.145,600z"/>
	<path fill="#D8963F" d="M900.362,600c0,82.943-33.619,158.033-87.974,212.388C758.033,866.743,682.943,900.362,600,900.362
		s-158.033-33.619-212.388-87.974C333.257,758.033,299.638,682.943,299.638,600s33.619-158.033,87.974-212.388
		S517.057,299.638,600,299.638s158.033,33.619,212.388,87.974C866.743,441.967,900.362,517.057,900.362,600z"/>
	<g>
		<path fill="#9D6E38" d="M853.632,600c0,70.039-28.389,133.447-74.287,179.345C733.447,825.243,670.039,853.632,600,853.632
			s-133.447-28.389-179.345-74.287C374.757,733.447,346.368,670.039,346.368,600s28.389-133.447,74.287-179.345
			S529.961,346.368,600,346.368s133.447,28.389,179.345,74.287C825.243,466.553,853.632,529.961,853.632,600z"/>
		<path fill="#876038" d="M778.358,419.714c-22.91-22.666-50.113-41.003-80.281-53.673S634.774,346.368,600,346.368
			c-35.756,0-69.773,7.41-100.614,20.772c-30.841,13.362-58.506,32.675-81.559,56.481c42.973,9.314,103.69,14.23,168.371,13.871
			S719.525,431.499,778.358,419.714z"/>
		<g>
			<g>
				<g>
					<path fill="#ECB348" d="M541.678,540.749c0,16.385-6.824,31.218-17.857,41.955s-26.275,17.378-43.11,17.378
						c-16.836,0-32.077-6.641-43.11-17.378c-11.033-10.737-17.857-25.571-17.857-41.955c0-16.385,6.824-31.218,17.857-41.955
						c11.033-10.737,26.275-17.378,43.11-17.378c16.836,0,32.077,6.641,43.11,17.378
						C534.854,509.531,541.678,524.364,541.678,540.749z"/>
					<path fill="#876038" d="M525.764,540.749c0.011-0.02,0.023-0.039,0.036-0.058c0.012-0.019,0.024-0.038,0.036-0.058h-0.071
						h-0.071c-4.423-7.645-10.84-14.051-18.565-18.547s-16.759-7.079-26.416-7.079c-9.657,0-18.691,2.584-26.417,7.079
						s-14.142,10.902-18.565,18.547h-0.071h-0.071c0.011,0.02,0.023,0.039,0.036,0.058c0.012,0.019,0.024,0.038,0.036,0.058
						c-0.011,0.02-0.023,0.039-0.036,0.058c-0.012,0.019-0.024,0.038-0.036,0.058h0.071h0.071
						c4.423,7.645,10.84,14.051,18.565,18.547c7.725,4.495,16.759,7.079,26.416,7.079c9.657,0,18.691-2.584,26.417-7.079
						s14.142-10.902,18.565-18.547h0.071h0.071c-0.011-0.02-0.023-0.039-0.036-0.058
						C525.788,540.787,525.776,540.768,525.764,540.749z"/>
				</g>
				<g>
					<path fill="#ECB348" d="M780.256,540.749c0,16.385-6.824,31.218-17.857,41.955s-26.275,17.378-43.11,17.378
						s-32.077-6.641-43.11-17.378s-17.857-25.571-17.857-41.955c0-16.385,6.824-31.218,17.857-41.955
						c11.033-10.737,26.275-17.378,43.11-17.378s32.077,6.641,43.11,17.378C773.432,509.531,780.256,524.364,780.256,540.749z"/>
					<path fill="#876038" d="M764.342,540.749c0.011-0.02,0.023-0.039,0.036-0.058c0.012-0.019,0.024-0.038,0.036-0.058h-0.071
						h-0.071c-4.423-7.645-10.84-14.051-18.565-18.547c-7.725-4.495-16.759-7.079-26.417-7.079c-9.657,0-18.691,2.584-26.417,7.079
						s-14.142,10.902-18.565,18.547h-0.071h-0.071c0.011,0.02,0.023,0.039,0.036,0.058c0.012,0.019,0.024,0.038,0.036,0.058
						c-0.011,0.02-0.023,0.039-0.036,0.058c-0.012,0.019-0.024,0.038-0.036,0.058h0.071h0.071
						c4.423,7.645,10.84,14.051,18.565,18.547c7.725,4.495,16.759,7.079,26.417,7.079s18.691-2.584,26.417-7.079
						s14.142-10.902,18.565-18.547h0.071h0.071c-0.011-0.02-0.023-0.039-0.036-0.058
						C764.365,540.787,764.353,540.768,764.342,540.749z"/>
				</g>
			</g>
			<g>
				<path fill="#ECB348" d="M708.991,760.43c-11.255-17.837-26.816-32.684-45.226-43.072s-39.669-16.317-62.318-16.317
					c-22.649,0-43.908,5.929-62.318,16.317s-33.971,25.235-45.226,43.072h107.544H708.991z"/>
				<path fill="#CE963F" d="M493.902,760.43c11.255,17.837,26.816,32.684,45.226,43.072c18.41,10.388,39.669,16.317,62.318,16.317
					c22.649,0,43.908-5.929,62.318-16.317c18.41-10.388,33.971-25.235,45.226-43.072H601.447H493.902z"/>
			</g>
			<path fill="#CE963F" d="M665.711,681.056h-64.897h-64.897c-17.113,0-29.166-8.146-33.417-18.081
				c-4.252-9.935-0.703-21.66,13.384-28.816c10.01-5.085,21.833-9.601,35.731-12.897c13.898-3.296,29.871-5.373,48.181-5.579
				c19.209-0.216,35.846,1.783,50.213,5.203c14.367,3.42,26.465,8.262,36.596,13.73c13.585,7.333,16.783,18.943,12.374,28.72
				C694.569,673.113,682.553,681.056,665.711,681.056z"/>
			<path fill="#ECB348" d="M549.396,526.711c0,30.321,3.106,59.107,8.681,85.011c5.575,25.904,13.62,48.926,23.498,67.72
				c5.243,9.976,11.834,14.964,18.425,14.964c6.591,0,13.182-4.988,18.425-14.964c9.878-18.794,17.922-41.816,23.498-67.72
				s8.681-54.69,8.681-85.011c0-38.905-5.113-75.282-13.996-106.287c-8.882-31.005-21.533-56.638-36.608-74.056v0v0h0l0,0l0,0l0,0v0
				v0c-15.075,17.417-27.726,43.051-36.608,74.056C554.51,451.429,549.396,487.806,549.396,526.711z"/>
		</g>
		<path fill="#876038" d="M469.754,693.55c0-21.143-8.57-40.285-22.426-54.141c-13.856-13.856-32.997-22.426-54.14-22.426
			c-8.383,0-16.448,1.351-23.993,3.844c-7.546,2.493-14.572,6.129-20.878,10.699c3.231,26.056,10.415,50.884,20.933,73.868
			c10.518,22.984,24.369,44.124,40.934,62.804c17.051-3.867,31.944-13.418,42.574-26.559
			C463.387,728.501,469.754,711.772,469.754,693.55z"/>
		<path fill="#876038" d="M806.812,616.984c-21.143,0-40.285,8.57-54.141,22.426c-13.856,13.856-22.426,32.997-22.426,54.141
			c0,18.221,6.367,34.95,16.997,48.091c10.63,13.14,25.523,22.692,42.574,26.559c16.565-18.68,30.416-39.82,40.934-62.804
			s17.702-47.812,20.933-73.868c-6.305-4.57-13.332-8.205-20.878-10.699C823.26,618.335,815.195,616.984,806.812,616.984z"/>
	</g>
	<g>
		<g>
			<g>
				<path fill="#CE963F" d="M602.559,1082.242H600h-2.559c-3.504,0-6.676-1.42-8.972-3.716c-2.296-2.296-3.716-5.469-3.716-8.972
					v-34.121v-34.121c0-3.504,1.42-6.676,3.716-8.972c2.296-2.296,5.468-3.717,8.972-3.717H600h2.559
					c3.504,0,6.676,1.42,8.972,3.717c2.296,2.296,3.716,5.468,3.716,8.972v34.121v34.121c0,3.504-1.42,6.676-3.716,8.972
					C609.235,1080.822,606.063,1082.242,602.559,1082.242z"/>
				<g>
					<path fill="#CE963F" d="M557.997,1082.242h-2.559h-2.559c-3.504,0-6.676-1.42-8.972-3.716
						c-2.296-2.296-3.716-5.469-3.716-8.972v-34.121v-34.121c0-3.504,1.42-6.676,3.716-8.972c2.296-2.296,5.468-3.717,8.972-3.717
						h2.559h2.559c3.504,0,6.676,1.42,8.972,3.717c2.296,2.296,3.716,5.468,3.716,8.972v34.121v34.121
						c0,3.504-1.42,6.676-3.716,8.972C564.673,1080.822,561.501,1082.242,557.997,1082.242z"/>
					<path fill="#CE963F" d="M647.121,1043.943h-2.559h-2.559c-3.504,0-6.676-1.42-8.972-3.716
						c-2.296-2.296-3.716-5.469-3.716-8.973v-14.971v-14.971c0-3.504,1.42-6.676,3.716-8.972c2.296-2.296,5.468-3.717,8.972-3.717
						h2.559h2.559c3.504,0,6.676,1.42,8.972,3.717c2.296,2.296,3.716,5.468,3.716,8.972v14.971v14.971
						c0,3.504-1.42,6.676-3.716,8.972C653.797,1042.523,650.625,1043.943,647.121,1043.943z"/>
					<path fill="#CE963F" d="M647.121,1082.242h-2.559h-2.559c-3.504,0-6.676-1.42-8.972-3.716
						c-2.296-2.296-3.716-5.469-3.716-8.972v-2.559v-2.559c0-3.504,1.42-6.676,3.716-8.972c2.296-2.296,5.468-3.717,8.972-3.717
						h2.559h2.559c3.504,0,6.676,1.42,8.972,3.717c2.296,2.296,3.716,5.468,3.716,8.972v2.559v2.559c0,3.504-1.42,6.676-3.716,8.972
						C653.797,1080.822,650.625,1082.242,647.121,1082.242z"/>
				</g>
			</g>
			<g>
				<path fill="#CE963F" d="M602.559,211.377H600h-2.559c-3.504,0-6.676-1.42-8.972-3.716c-2.296-2.296-3.716-5.468-3.716-8.972
					v-34.121v-34.121c0-3.504,1.42-6.676,3.716-8.972c2.296-2.296,5.468-3.716,8.972-3.716H600h2.559
					c3.504,0,6.676,1.42,8.972,3.716c2.296,2.296,3.716,5.468,3.716,8.972v34.121v34.121c0,3.504-1.42,6.676-3.716,8.972
					C609.235,209.957,606.063,211.377,602.559,211.377z"/>
				<g>
					<path fill="#CE963F" d="M557.997,211.377h-2.559h-2.559c-3.504,0-6.676-1.42-8.972-3.716c-2.296-2.296-3.716-5.468-3.716-8.972
						v-34.121v-34.121c0-3.504,1.42-6.676,3.716-8.972c2.296-2.296,5.468-3.716,8.972-3.716h2.559h2.559
						c3.504,0,6.676,1.42,8.972,3.716c2.296,2.296,3.716,5.468,3.716,8.972v34.121v34.121c0,3.504-1.42,6.676-3.716,8.972
						C564.673,209.957,561.501,211.377,557.997,211.377z"/>
					<path fill="#CE963F" d="M647.121,173.078h-2.559h-2.559c-3.504,0-6.676-1.42-8.972-3.716c-2.296-2.296-3.716-5.468-3.716-8.972
						v-14.971v-14.971c0-3.504,1.42-6.676,3.716-8.972c2.296-2.296,5.468-3.716,8.972-3.716h2.559h2.559
						c3.504,0,6.676,1.42,8.972,3.716c2.296,2.296,3.716,5.468,3.716,8.972v14.971v14.971c0,3.504-1.42,6.676-3.716,8.972
						C653.797,171.658,650.625,173.078,647.121,173.078z"/>
					<path fill="#CE963F" d="M647.121,211.377h-2.559h-2.559c-3.504,0-6.676-1.42-8.972-3.716c-2.296-2.296-3.716-5.468-3.716-8.972
						v-2.559v-2.559c0-3.504,1.42-6.676,3.716-8.972c2.296-2.296,5.468-3.717,8.972-3.717h2.559h2.559
						c3.504,0,6.676,1.42,8.972,3.717c2.296,2.296,3.716,5.468,3.716,8.972v2.559v2.559c0,3.504-1.42,6.676-3.716,8.972
						C653.797,209.957,650.625,211.377,647.121,211.377z"/>
				</g>
			</g>
		</g>
		<g>
			<g>
				<path fill="#CE963F" d="M497.07,128.864l2.503-0.533l2.503-0.533c3.427-0.73,6.826-0.001,9.55,1.767
					c2.724,1.768,4.774,4.575,5.504,8.002l7.106,33.373l7.106,33.373c0.73,3.427,0.001,6.826-1.767,9.55s-4.575,4.774-8.002,5.504
					l-2.503,0.533l-2.503,0.533c-3.427,0.73-6.826,0.001-9.55-1.767c-2.724-1.768-4.774-4.575-5.504-8.002l-7.106-33.373
					l-7.106-33.373c-0.73-3.427-0.001-6.826,1.766-9.55C490.836,131.643,493.643,129.593,497.07,128.864z"/>
				<g>
					<path fill="#CE963F" d="M463.664,175.276l2.44-0.771l2.44-0.771c3.341-1.055,6.794-0.656,9.675,0.842
						c2.881,1.498,5.191,4.095,6.246,7.437l4.509,14.276l4.509,14.276c1.055,3.341,0.656,6.794-0.842,9.675
						c-1.498,2.881-4.095,5.191-7.437,6.246l-2.44,0.771l-2.44,0.771c-3.341,1.055-6.794,0.656-9.675-0.842
						c-2.881-1.498-5.191-4.095-6.246-7.437l-4.509-14.276l-4.509-14.276c-1.055-3.341-0.656-6.794,0.842-9.675
						C457.726,178.641,460.323,176.331,463.664,175.276z"/>
					<path fill="#CE963F" d="M452.131,138.755l2.44-0.771l2.44-0.771c3.341-1.055,6.794-0.656,9.675,0.842
						c2.881,1.498,5.191,4.095,6.246,7.437l0.771,2.44l0.771,2.44c1.055,3.341,0.656,6.794-0.842,9.675
						c-1.498,2.881-4.095,5.191-7.437,6.246l-2.44,0.771l-2.44,0.771c-3.341,1.055-6.794,0.656-9.675-0.842
						c-2.881-1.498-5.191-4.095-6.246-7.437l-0.771-2.44l-0.771-2.44c-1.055-3.341-0.656-6.794,0.842-9.675
						C446.192,142.12,448.79,139.81,452.131,138.755z"/>
				</g>
			</g>
			<g>
				<path fill="#CE963F" d="M678.428,980.636l2.503-0.533l2.503-0.533c3.427-0.73,6.826-0.001,9.55,1.766
					c2.724,1.768,4.774,4.575,5.503,8.002l7.106,33.373l7.106,33.373c0.73,3.427,0.001,6.826-1.767,9.55
					c-1.768,2.724-4.575,4.774-8.002,5.504l-2.503,0.533l-2.503,0.533c-3.427,0.73-6.826,0.001-9.55-1.767
					c-2.724-1.768-4.774-4.575-5.503-8.002l-7.106-33.373l-7.106-33.373c-0.73-3.427-0.001-6.826,1.767-9.55
					C672.194,983.415,675.001,981.365,678.428,980.636z"/>
				<g>
					<path fill="#CE963F" d="M722.013,971.356l2.503-0.533l2.503-0.533c3.427-0.73,6.826-0.001,9.55,1.767
						c2.724,1.768,4.774,4.575,5.504,8.002l7.106,33.373l7.106,33.373c0.73,3.427,0.001,6.826-1.766,9.55s-4.575,4.774-8.002,5.504
						l-2.503,0.533l-2.503,0.533c-3.427,0.73-6.826,0.001-9.55-1.766c-2.724-1.768-4.774-4.575-5.504-8.002l-7.106-33.373
						l-7.106-33.373c-0.73-3.427-0.001-6.826,1.767-9.55C715.779,974.135,718.586,972.085,722.013,971.356z"/>
				</g>
			</g>
		</g>
		<g>
			<g>
				<path fill="#CE963F" d="M365.826,178.423l2.244-1.231l2.244-1.231c3.072-1.685,6.536-1.966,9.654-1.057
					c3.118,0.909,5.888,3.007,7.574,6.079l16.41,29.915l16.41,29.915c1.685,3.072,1.966,6.536,1.057,9.654s-3.007,5.888-6.079,7.574
					l-2.244,1.231l-2.244,1.231c-3.072,1.685-6.536,1.966-9.654,1.057c-3.118-0.909-5.888-3.007-7.574-6.079l-16.41-29.915
					l-16.41-29.915c-1.685-3.072-1.966-6.536-1.057-9.654C360.656,182.879,362.754,180.109,365.826,178.423z"/>
				<g>
					<path fill="#CE963F" d="M404.896,156.992l2.244-1.231l2.244-1.231c3.072-1.685,6.536-1.966,9.654-1.057
						c3.118,0.909,5.888,3.007,7.574,6.079l16.41,29.915l16.41,29.915c1.685,3.072,1.966,6.536,1.057,9.654
						c-0.909,3.118-3.007,5.888-6.079,7.574l-2.244,1.231l-2.244,1.231c-3.072,1.685-6.536,1.966-9.654,1.057
						c-3.118-0.909-5.888-3.007-7.574-6.079l-16.41-29.915l-16.41-29.915c-1.685-3.072-1.966-6.536-1.057-9.654
						C399.726,161.448,401.824,158.677,404.896,156.992z"/>
					<path fill="#CE963F" d="M345.176,233.434l2.244-1.231l2.244-1.231c3.072-1.685,6.536-1.966,9.654-1.057
						c3.118,0.909,5.888,3.007,7.574,6.079l7.2,13.126l7.2,13.126c1.685,3.072,1.966,6.536,1.057,9.654
						c-0.909,3.118-3.007,5.888-6.079,7.574l-2.244,1.231l-2.244,1.231c-3.072,1.685-6.536,1.966-9.654,1.057
						c-3.118-0.909-5.888-3.007-7.574-6.079l-7.2-13.126l-7.2-13.126c-1.685-3.072-1.966-6.536-1.057-9.654
						S342.104,235.119,345.176,233.434z"/>
					<path fill="#CE963F" d="M326.757,199.855l2.244-1.231l2.244-1.231c3.072-1.685,6.536-1.966,9.654-1.057
						c3.118,0.909,5.888,3.007,7.574,6.079l1.231,2.244l1.231,2.244c1.685,3.072,1.966,6.536,1.057,9.654
						c-0.909,3.118-3.007,5.888-6.079,7.574l-2.244,1.231l-2.244,1.231c-3.072,1.685-6.536,1.966-9.654,1.057
						c-3.118-0.909-5.888-3.007-7.574-6.079l-1.231-2.244l-1.231-2.244c-1.685-3.072-1.966-6.536-1.057-9.654
						C321.586,204.311,323.684,201.54,326.757,199.855z"/>
				</g>
			</g>
			<g>
				<path fill="#CE963F" d="M784.661,941.957l2.244-1.231l2.244-1.231c3.072-1.685,6.536-1.966,9.654-1.057
					c3.118,0.909,5.888,3.007,7.574,6.079l16.41,29.915l16.41,29.915c1.685,3.072,1.966,6.536,1.057,9.654
					c-0.909,3.118-3.007,5.888-6.079,7.574l-2.244,1.231l-2.244,1.231c-3.072,1.685-6.536,1.966-9.654,1.057
					c-3.118-0.909-5.888-3.007-7.574-6.079l-16.41-29.915l-16.41-29.915c-1.685-3.072-1.966-6.536-1.057-9.654
					C779.491,946.413,781.589,943.642,784.661,941.957z"/>
				<g>
					<path fill="#CE963F" d="M823.731,920.526l2.244-1.231l2.244-1.231c3.072-1.685,6.536-1.966,9.654-1.057
						c3.118,0.909,5.888,3.007,7.574,6.079l16.41,29.915l16.41,29.915c1.685,3.072,1.966,6.536,1.057,9.654
						c-0.909,3.118-3.007,5.888-6.079,7.574l-2.244,1.231l-2.244,1.231c-3.072,1.685-6.536,1.966-9.654,1.057
						c-3.118-0.909-5.888-3.007-7.574-6.079l-16.41-29.915l-16.41-29.915c-1.685-3.072-1.966-6.536-1.057-9.654
						C818.561,924.982,820.659,922.211,823.731,920.526z"/>
					<path fill="#CE963F" d="M767.581,995.015l2.35-1.013l2.35-1.013c3.218-1.387,6.693-1.338,9.711-0.138s5.577,3.551,6.964,6.769
						l5.926,13.749l5.926,13.749c1.387,3.218,1.338,6.693,0.138,9.711c-1.2,3.017-3.551,5.577-6.769,6.964l-2.35,1.013l-2.35,1.013
						c-3.218,1.387-6.693,1.338-9.711,0.138c-3.018-1.2-5.577-3.551-6.964-6.769l-5.926-13.749l-5.925-13.749
						c-1.387-3.218-1.338-6.693-0.138-9.711S764.363,996.402,767.581,995.015z"/>
					<path fill="#CE963F" d="M752.423,959.844l2.35-1.013l2.35-1.013c3.218-1.387,6.693-1.338,9.711-0.138s5.577,3.551,6.964,6.769
						l1.013,2.35l1.013,2.35c1.387,3.218,1.338,6.693,0.138,9.711s-3.551,5.577-6.769,6.964l-2.35,1.013l-2.35,1.013
						c-3.218,1.387-6.693,1.338-9.711,0.138s-5.577-3.551-6.964-6.769l-1.013-2.35l-1.013-2.35
						c-1.387-3.218-1.338-6.693-0.138-9.711S749.205,961.23,752.423,959.844z"/>
				</g>
			</g>
		</g>
		<g>
			<g>
				<path fill="#CE963F" d="M241.858,277.047l1.724-1.891l1.724-1.891c2.36-2.59,5.547-3.978,8.791-4.128
					c3.244-0.15,6.545,0.937,9.135,3.297l25.218,22.984l25.218,22.984c2.59,2.36,3.978,5.547,4.128,8.791s-0.937,6.545-3.297,9.135
					l-1.724,1.891l-1.724,1.891c-2.36,2.59-5.547,3.978-8.791,4.128c-3.244,0.15-6.545-0.937-9.135-3.297l-25.218-22.984
					l-25.218-22.984c-2.59-2.36-3.978-5.547-4.128-8.791S239.498,279.637,241.858,277.047z"/>
				<g>
					<path fill="#CE963F" d="M271.876,244.112l1.724-1.891l1.724-1.891c2.36-2.59,5.547-3.978,8.791-4.128
						c3.244-0.15,6.545,0.937,9.135,3.297l25.218,22.984l25.218,22.984c2.59,2.36,3.978,5.547,4.128,8.791s-0.937,6.545-3.297,9.135
						l-1.724,1.891l-1.724,1.891c-2.36,2.59-5.547,3.978-8.791,4.128c-3.244,0.15-6.545-0.937-9.135-3.297l-25.218-22.984
						l-25.218-22.984c-2.59-2.36-3.978-5.547-4.128-8.791S269.515,246.702,271.876,244.112z"/>
					<path fill="#CE963F" d="M240.147,335.781l1.724-1.891l1.724-1.891c2.36-2.59,5.547-3.978,8.791-4.128
						c3.244-0.15,6.545,0.937,9.135,3.297l11.065,10.085l11.065,10.085c2.59,2.36,3.978,5.547,4.128,8.791s-0.937,6.545-3.297,9.135
						l-1.724,1.891l-1.724,1.891c-2.36,2.59-5.547,3.978-8.791,4.128c-3.244,0.15-6.545-0.937-9.135-3.297l-11.065-10.085
						l-11.065-10.085c-2.59-2.36-3.978-5.547-4.128-8.791C236.699,341.672,237.787,338.37,240.147,335.781z"/>
					<path fill="#CE963F" d="M211.841,309.982l1.724-1.891l1.724-1.891c2.36-2.59,5.547-3.978,8.791-4.128
						c3.244-0.15,6.545,0.937,9.135,3.297l1.891,1.724l1.891,1.724c2.59,2.36,3.978,5.547,4.128,8.791
						c0.15,3.244-0.937,6.545-3.297,9.135l-1.724,1.891l-1.724,1.891c-2.36,2.59-5.547,3.978-8.791,4.128
						c-3.244,0.15-6.545-0.937-9.135-3.297l-1.891-1.724l-1.891-1.724c-2.59-2.36-3.978-5.547-4.128-8.791
						C208.393,315.873,209.48,312.572,211.841,309.982z"/>
				</g>
			</g>
			<g>
				<path fill="#CE963F" d="M885.502,863.673l1.724-1.891l1.724-1.891c2.36-2.59,5.547-3.978,8.791-4.128s6.545,0.937,9.135,3.297
					l25.218,22.984l25.218,22.984c2.59,2.36,3.978,5.547,4.128,8.791s-0.937,6.545-3.297,9.135l-1.724,1.891l-1.724,1.891
					c-2.36,2.59-5.547,3.978-8.791,4.128s-6.545-0.937-9.135-3.297l-25.218-22.984l-25.218-22.984
					c-2.59-2.36-3.978-5.547-4.128-8.791C882.054,869.564,883.141,866.262,885.502,863.673z"/>
				<g>
					<path fill="#CE963F" d="M915.519,830.738l1.724-1.891l1.724-1.891c2.36-2.59,5.547-3.978,8.791-4.128s6.545,0.937,9.135,3.297
						l25.218,22.984l25.218,22.984c2.59,2.36,3.978,5.547,4.128,8.791c0.15,3.244-0.937,6.545-3.297,9.135l-1.724,1.891
						l-1.724,1.891c-2.36,2.59-5.547,3.978-8.791,4.128s-6.545-0.937-9.135-3.297l-25.218-22.984l-25.218-22.984
						c-2.59-2.36-3.978-5.547-4.128-8.791S913.159,833.327,915.519,830.738z"/>
					<path fill="#CE963F" d="M883.79,922.406l1.724-1.891l1.724-1.891c2.36-2.59,5.547-3.978,8.791-4.128s6.545,0.937,9.135,3.297
						l11.065,10.085l11.065,10.085c2.59,2.36,3.978,5.547,4.128,8.791c0.15,3.244-0.937,6.545-3.297,9.135l-1.724,1.891
						l-1.724,1.891c-2.36,2.59-5.547,3.978-8.791,4.128s-6.545-0.937-9.135-3.297l-11.065-10.085l-11.065-10.085
						c-2.59-2.36-3.978-5.547-4.128-8.791S881.43,924.996,883.79,922.406z"/>
					<path fill="#CE963F" d="M855.484,896.608l1.724-1.891l1.724-1.891c2.36-2.59,5.547-3.978,8.791-4.128s6.545,0.937,9.135,3.297
						l1.891,1.724l1.891,1.724c2.59,2.36,3.978,5.547,4.128,8.791s-0.937,6.545-3.297,9.135l-1.724,1.891l-1.724,1.891
						c-2.36,2.59-5.547,3.978-8.791,4.128c-3.244,0.15-6.545-0.937-9.135-3.297l-1.891-1.724l-1.891-1.724
						c-2.59-2.36-3.978-5.547-4.128-8.791S853.124,899.197,855.484,896.608z"/>
				</g>
			</g>
		</g>
		<g>
			<g>
				<path fill="#CE963F" d="M156.535,410.519l1.018-2.348l1.018-2.348c1.394-3.215,3.959-5.56,6.979-6.754s6.496-1.235,9.71,0.159
					l31.305,13.573l31.305,13.573c3.215,1.394,5.56,3.959,6.754,6.979c1.193,3.02,1.235,6.496-0.159,9.71l-1.018,2.348l-1.018,2.348
					c-1.394,3.215-3.959,5.56-6.979,6.754c-3.02,1.193-6.496,1.235-9.71-0.159l-31.305-13.573l-31.305-13.573
					c-3.215-1.394-5.56-3.959-6.754-6.979C155.183,417.209,155.141,413.733,156.535,410.519z"/>
				<g>
					<path fill="#CE963F" d="M174.261,369.634l1.018-2.348l1.018-2.348c1.394-3.215,3.959-5.56,6.979-6.754
						c3.02-1.193,6.496-1.235,9.71,0.159l31.305,13.573l31.305,13.573c3.215,1.394,5.56,3.959,6.754,6.979
						c1.193,3.02,1.235,6.496-0.159,9.71l-1.018,2.348l-1.018,2.348c-1.394,3.215-3.959,5.56-6.979,6.754
						c-3.02,1.193-6.496,1.235-9.71-0.159l-31.305-13.573l-31.305-13.573c-3.215-1.394-5.56-3.959-6.754-6.979
						C172.909,376.324,172.868,372.849,174.261,369.634z"/>
					<path fill="#CE963F" d="M173.947,466.638l1.018-2.348l1.018-2.348c1.394-3.215,3.959-5.56,6.979-6.754
						c3.02-1.193,6.496-1.235,9.71,0.159l13.736,5.955l13.736,5.955c3.215,1.394,5.56,3.959,6.754,6.979
						c1.193,3.02,1.235,6.496-0.159,9.71l-1.018,2.348l-1.018,2.348c-1.394,3.215-3.959,5.56-6.979,6.754
						c-3.02,1.193-6.496,1.235-9.71-0.159l-13.736-5.955l-13.736-5.955c-3.215-1.394-5.56-3.959-6.754-6.979
						C172.595,473.328,172.554,469.853,173.947,466.638z"/>
					<path fill="#CE963F" d="M138.809,451.403l1.018-2.348l1.018-2.348c1.394-3.215,3.959-5.56,6.979-6.754s6.496-1.235,9.71,0.159
						l2.348,1.018l2.348,1.018c3.215,1.394,5.56,3.959,6.754,6.979c1.193,3.02,1.235,6.496-0.159,9.71l-1.018,2.348l-1.018,2.348
						c-1.394,3.215-3.959,5.56-6.979,6.754c-3.02,1.193-6.496,1.235-9.71-0.159l-2.348-1.018l-2.348-1.018
						c-3.215-1.394-5.56-3.959-6.754-6.979C137.457,458.093,137.415,454.618,138.809,451.403z"/>
				</g>
			</g>
			<g>
				<path fill="#CE963F" d="M955.535,756.937l1.018-2.348l1.018-2.348c1.394-3.215,3.959-5.56,6.979-6.754
					c3.02-1.193,6.496-1.235,9.71,0.159l31.305,13.573l31.305,13.573c3.215,1.394,5.56,3.959,6.754,6.979s1.234,6.496-0.159,9.71
					l-1.018,2.348l-1.018,2.348c-1.394,3.215-3.959,5.56-6.979,6.754c-3.02,1.193-6.496,1.234-9.71-0.159l-31.305-13.573
					l-31.305-13.573c-3.215-1.394-5.56-3.959-6.754-6.979C954.183,763.627,954.141,760.151,955.535,756.937z"/>
				<g>
					<path fill="#CE963F" d="M973.261,716.052l1.018-2.348l1.018-2.348c1.394-3.215,3.959-5.56,6.979-6.754s6.496-1.234,9.71,0.159
						l31.305,13.573l31.305,13.573c3.215,1.394,5.56,3.959,6.754,6.979c1.193,3.02,1.234,6.496-0.159,9.71l-1.018,2.348
						l-1.018,2.348c-1.394,3.215-3.959,5.56-6.979,6.754s-6.496,1.234-9.71-0.159l-31.305-13.573l-31.305-13.573
						c-3.215-1.394-5.56-3.959-6.754-6.979C971.909,722.742,971.868,719.267,973.261,716.052z"/>
					<path fill="#CE963F" d="M972.947,813.056l1.018-2.348l1.018-2.348c1.394-3.215,3.959-5.56,6.979-6.754
						c3.02-1.193,6.496-1.235,9.71,0.159l13.736,5.955l13.736,5.955c3.215,1.394,5.56,3.959,6.754,6.979
						c1.193,3.02,1.235,6.496-0.159,9.71l-1.018,2.348l-1.018,2.348c-1.394,3.215-3.959,5.56-6.979,6.754
						c-3.02,1.193-6.496,1.235-9.71-0.159l-13.736-5.955l-13.736-5.955c-3.215-1.394-5.56-3.959-6.754-6.979
						C971.595,819.746,971.554,816.271,972.947,813.056z"/>
					<path fill="#CE963F" d="M937.809,797.821l1.018-2.348l1.018-2.348c1.394-3.215,3.959-5.56,6.979-6.754
						c3.02-1.193,6.496-1.234,9.71,0.159l2.348,1.018l2.348,1.018c3.215,1.394,5.56,3.959,6.754,6.979
						c1.193,3.02,1.234,6.496-0.159,9.71l-1.018,2.348l-1.018,2.348c-1.394,3.215-3.959,5.56-6.979,6.754
						c-3.02,1.193-6.496,1.235-9.71-0.159l-2.348-1.018l-2.348-1.018c-3.215-1.394-5.56-3.959-6.754-6.979
						C936.456,804.511,936.415,801.036,937.809,797.821z"/>
				</g>
			</g>
		</g>
		<g>
			<g>
				<path fill="#CE963F" d="M119.064,564.436l0.202-2.551l0.202-2.551c0.277-3.493,1.943-6.543,4.414-8.651
					c2.471-2.108,5.745-3.273,9.238-2.996l34.014,2.697l34.014,2.697c3.493,0.277,6.543,1.943,8.651,4.414s3.273,5.745,2.996,9.238
					l-0.202,2.551l-0.202,2.551c-0.277,3.493-1.943,6.543-4.414,8.651c-2.471,2.108-5.745,3.273-9.238,2.996l-34.014-2.697
					l-34.014-2.697c-3.493-0.277-6.543-1.943-8.651-4.414C119.952,571.204,118.787,567.929,119.064,564.436z"/>
				<g>
					<path fill="#CE963F" d="M122.586,520.014l0.202-2.551l0.202-2.551c0.277-3.493,1.943-6.543,4.414-8.651
						c2.471-2.108,5.745-3.273,9.238-2.996l34.014,2.697l34.014,2.697c3.493,0.277,6.543,1.943,8.651,4.414
						c2.108,2.471,3.273,5.745,2.996,9.238l-0.202,2.551l-0.202,2.551c-0.277,3.493-1.943,6.543-4.414,8.651
						c-2.471,2.108-5.745,3.273-9.238,2.996l-34.014-2.697l-34.014-2.697c-3.493-0.277-6.543-1.943-8.651-4.414
						C123.474,526.781,122.309,523.507,122.586,520.014z"/>
					<path fill="#CE963F" d="M153.721,611.886l0.202-2.551l0.202-2.551c0.277-3.493,1.943-6.543,4.414-8.651
						c2.471-2.108,5.745-3.273,9.238-2.996l14.924,1.183l14.924,1.183c3.493,0.277,6.543,1.943,8.651,4.414s3.273,5.745,2.996,9.238
						l-0.202,2.551l-0.202,2.551c-0.277,3.493-1.943,6.543-4.414,8.651c-2.471,2.108-5.745,3.273-9.238,2.996l-14.924-1.183
						l-14.924-1.183c-3.493-0.277-6.543-1.943-8.651-4.414C154.609,618.653,153.444,615.379,153.721,611.886z"/>
					<path fill="#CE963F" d="M115.542,608.859l0.202-2.551l0.202-2.551c0.277-3.493,1.943-6.543,4.414-8.651
						c2.471-2.108,5.745-3.273,9.238-2.996l2.551,0.202l2.551,0.202c3.493,0.277,6.543,1.943,8.651,4.414
						c2.108,2.471,3.273,5.745,2.996,9.238l-0.202,2.551l-0.202,2.551c-0.277,3.493-1.943,6.543-4.414,8.651
						c-2.471,2.108-5.745,3.273-9.238,2.996l-2.551-0.202l-2.551-0.202c-3.493-0.277-6.543-1.943-8.651-4.414
						C116.43,615.626,115.265,612.352,115.542,608.859z"/>
				</g>
			</g>
			<g>
				<path fill="#CE963F" d="M987.205,633.267l0.202-2.551l0.202-2.551c0.277-3.493,1.943-6.543,4.414-8.651
					c2.471-2.108,5.745-3.273,9.238-2.996l34.014,2.697l34.014,2.697c3.493,0.277,6.543,1.943,8.651,4.414
					c2.108,2.471,3.273,5.745,2.996,9.238l-0.202,2.551l-0.202,2.551c-0.277,3.493-1.943,6.543-4.414,8.651
					c-2.47,2.108-5.745,3.273-9.238,2.996l-34.014-2.697l-34.014-2.697c-3.493-0.277-6.543-1.943-8.651-4.414
					C988.093,640.034,986.928,636.76,987.205,633.267z"/>
				<g>
					<path fill="#CE963F" d="M990.727,588.844l0.202-2.551l0.202-2.551c0.277-3.493,1.943-6.543,4.414-8.651
						c2.471-2.108,5.745-3.273,9.238-2.996l34.014,2.697l34.014,2.697c3.493,0.277,6.543,1.943,8.651,4.414
						c2.108,2.471,3.273,5.745,2.996,9.238l-0.202,2.551l-0.202,2.551c-0.277,3.493-1.943,6.543-4.414,8.651
						c-2.471,2.108-5.745,3.273-9.238,2.996l-34.014-2.697l-34.014-2.697c-3.493-0.277-6.543-1.943-8.651-4.414
						S990.45,592.337,990.727,588.844z"/>
					<path fill="#CE963F" d="M1021.862,680.716l0.202-2.551l0.202-2.551c0.277-3.493,1.943-6.543,4.414-8.651
						c2.471-2.108,5.745-3.273,9.238-2.996l14.925,1.183l14.924,1.183c3.493,0.277,6.543,1.943,8.651,4.414
						c2.108,2.471,3.273,5.745,2.996,9.238l-0.202,2.551l-0.202,2.551c-0.277,3.493-1.943,6.543-4.414,8.651
						c-2.471,2.108-5.745,3.273-9.238,2.996l-14.925-1.183l-14.924-1.183c-3.493-0.277-6.543-1.943-8.651-4.414
						C1022.75,687.484,1021.585,684.209,1021.862,680.716z"/>
					<path fill="#CE963F" d="M983.683,677.689l0.202-2.551l0.202-2.551c0.277-3.493,1.943-6.543,4.414-8.651
						c2.471-2.108,5.745-3.273,9.238-2.996l2.551,0.202l2.551,0.202c3.493,0.277,6.543,1.943,8.651,4.414
						c2.108,2.471,3.273,5.745,2.996,9.238l-0.202,2.551l-0.202,2.551c-0.277,3.493-1.943,6.543-4.414,8.651
						c-2.471,2.108-5.745,3.273-9.238,2.996l-2.551-0.202l-2.551-0.202c-3.493-0.277-6.543-1.943-8.651-4.414
						S983.406,681.182,983.683,677.689z"/>
				</g>
			</g>
		</g>
		<g>
			<g>
				<path fill="#CE963F" d="M133.488,722.191l-0.635-2.479l-0.635-2.479c-0.87-3.394-0.282-6.82,1.373-9.614
					s4.375-4.958,7.769-5.828l33.053-8.47l33.053-8.47c3.394-0.87,6.82-0.281,9.614,1.373c2.794,1.654,4.958,4.375,5.827,7.769
					l0.635,2.479l0.635,2.479c0.87,3.394,0.281,6.82-1.373,9.614s-4.375,4.958-7.769,5.828l-33.053,8.47l-33.053,8.47
					c-3.394,0.87-6.82,0.281-9.614-1.373C136.521,728.306,134.358,725.585,133.488,722.191z"/>
				<g>
					<path fill="#CE963F" d="M122.426,679.024l-0.635-2.479l-0.635-2.479c-0.87-3.394-0.282-6.82,1.373-9.614
						c1.654-2.794,4.375-4.958,7.769-5.827l33.053-8.47l33.053-8.47c3.394-0.87,6.82-0.281,9.614,1.373s4.958,4.375,5.827,7.769
						l0.635,2.479l0.635,2.479c0.87,3.394,0.282,6.82-1.373,9.614c-1.654,2.794-4.375,4.958-7.769,5.828l-33.053,8.47l-33.053,8.47
						c-3.394,0.87-6.82,0.281-9.614-1.373C125.459,685.139,123.296,682.418,122.426,679.024z"/>
					<path fill="#CE963F" d="M181.65,755.851l-0.635-2.479l-0.635-2.479c-0.87-3.394-0.282-6.82,1.373-9.614
						c1.654-2.794,4.375-4.958,7.769-5.828l14.503-3.716l14.503-3.716c3.394-0.87,6.82-0.281,9.614,1.373s4.958,4.375,5.827,7.769
						l0.635,2.479l0.635,2.479c0.87,3.394,0.282,6.82-1.373,9.614c-1.654,2.794-4.375,4.958-7.769,5.827l-14.503,3.716
						l-14.503,3.716c-3.394,0.87-6.82,0.281-9.614-1.373C184.683,761.966,182.52,759.245,181.65,755.851z"/>
					<path fill="#CE963F" d="M144.55,765.358l-0.635-2.479l-0.635-2.479c-0.87-3.394-0.281-6.82,1.373-9.614
						c1.654-2.794,4.375-4.958,7.769-5.827l2.479-0.635l2.479-0.635c3.394-0.87,6.82-0.281,9.614,1.373
						c2.794,1.654,4.958,4.375,5.827,7.769l0.635,2.479l0.635,2.479c0.87,3.394,0.282,6.82-1.373,9.614
						c-1.654,2.794-4.375,4.958-7.769,5.828l-2.479,0.635l-2.479,0.635c-3.394,0.87-6.82,0.281-9.614-1.373
						S145.42,768.753,144.55,765.358z"/>
				</g>
			</g>
			<g>
				<path fill="#CE963F" d="M977.094,506.007l-0.635-2.479l-0.635-2.479c-0.87-3.394-0.282-6.82,1.373-9.614
					s4.375-4.958,7.769-5.827l33.053-8.47l33.053-8.47c3.394-0.87,6.82-0.282,9.614,1.373c2.794,1.654,4.958,4.375,5.827,7.769
					l0.635,2.479l0.635,2.479c0.87,3.394,0.281,6.82-1.373,9.614c-1.654,2.794-4.375,4.958-7.769,5.827l-33.053,8.47l-33.053,8.47
					c-3.394,0.87-6.82,0.281-9.614-1.373C980.127,512.121,977.964,509.401,977.094,506.007z"/>
				<g>
					<path fill="#CE963F" d="M966.032,462.84l-0.635-2.479l-0.635-2.479c-0.87-3.394-0.281-6.82,1.373-9.614
						c1.654-2.794,4.375-4.958,7.769-5.827l33.053-8.47l33.053-8.47c3.394-0.87,6.82-0.281,9.614,1.373
						c2.794,1.654,4.958,4.375,5.828,7.769l0.635,2.479l0.635,2.479c0.87,3.394,0.281,6.82-1.373,9.614
						c-1.654,2.794-4.375,4.958-7.769,5.827l-33.053,8.47l-33.053,8.47c-3.394,0.87-6.82,0.282-9.614-1.373
						C969.065,468.954,966.901,466.234,966.032,462.84z"/>
					<path fill="#CE963F" d="M1025.256,539.667l-0.635-2.479l-0.635-2.479c-0.87-3.394-0.281-6.82,1.373-9.614
						c1.654-2.794,4.375-4.958,7.769-5.828l14.503-3.716l14.503-3.716c3.394-0.87,6.82-0.281,9.614,1.373
						c2.794,1.654,4.958,4.375,5.828,7.769l0.635,2.479l0.635,2.479c0.87,3.394,0.281,6.82-1.373,9.614
						c-1.654,2.794-4.375,4.958-7.769,5.827l-14.503,3.716l-14.503,3.716c-3.394,0.87-6.82,0.281-9.614-1.373
						C1028.289,545.781,1026.126,543.061,1025.256,539.667z"/>
					<path fill="#CE963F" d="M988.156,549.174l-0.635-2.479l-0.635-2.479c-0.87-3.394-0.281-6.82,1.373-9.614
						c1.654-2.794,4.375-4.958,7.769-5.828l2.479-0.635l2.479-0.635c3.394-0.87,6.82-0.281,9.614,1.373s4.958,4.375,5.828,7.769
						l0.635,2.479l0.635,2.479c0.87,3.394,0.281,6.82-1.373,9.614c-1.654,2.794-4.375,4.958-7.769,5.828l-2.479,0.635l-2.479,0.635
						c-3.394,0.87-6.82,0.281-9.614-1.373C991.189,555.289,989.026,552.568,988.156,549.174z"/>
				</g>
			</g>
		</g>
		<g>
			<g>
				<path fill="#CE963F" d="M198.251,866.761l-1.404-2.139l-1.404-2.139c-1.923-2.929-2.476-6.361-1.816-9.54
					c0.66-3.18,2.532-6.108,5.462-8.03l28.525-18.723l28.525-18.723c2.929-1.923,6.361-2.476,9.54-1.817
					c3.18,0.66,6.108,2.532,8.03,5.462l1.404,2.139l1.404,2.139c1.923,2.929,2.476,6.361,1.816,9.54s-2.532,6.108-5.462,8.03
					l-28.525,18.723l-28.525,18.723c-2.929,1.923-6.361,2.476-9.54,1.816C203.101,871.563,200.173,869.69,198.251,866.761z"/>
				<g>
					<g>
						<path fill="#CE963F" d="M173.798,829.507l-1.404-2.139l-1.404-2.139c-1.923-2.929-2.476-6.361-1.816-9.54
							s2.532-6.108,5.462-8.03l28.525-18.723l28.525-18.723c2.929-1.923,6.361-2.476,9.54-1.816c3.18,0.66,6.108,2.532,8.03,5.462
							l1.404,2.139l1.404,2.139c1.923,2.929,2.476,6.361,1.816,9.54c-0.66,3.18-2.532,6.108-5.462,8.03l-28.525,18.723
							l-28.525,18.723c-2.929,1.923-6.361,2.476-9.54,1.817C178.649,834.309,175.721,832.437,173.798,829.507z"/>
						<path fill="#CE963F" d="M254.721,882.999l-1.404-2.139l-1.404-2.139c-1.923-2.929-2.476-6.361-1.816-9.54
							s2.532-6.108,5.462-8.03l12.516-8.215l12.516-8.215c2.929-1.923,6.361-2.476,9.54-1.816c3.18,0.66,6.108,2.532,8.03,5.462
							l1.404,2.139l1.404,2.139c1.923,2.929,2.476,6.361,1.816,9.54c-0.66,3.18-2.532,6.108-5.462,8.03l-12.516,8.215l-12.516,8.215
							c-2.929,1.923-6.361,2.476-9.54,1.816C259.572,887.801,256.644,885.928,254.721,882.999z"/>
						<path fill="#CE963F" d="M222.703,904.015l-1.404-2.139l-1.404-2.139c-1.923-2.929-2.476-6.361-1.816-9.54
							c0.66-3.18,2.532-6.108,5.462-8.03l2.139-1.404l2.139-1.404c2.929-1.923,6.361-2.476,9.54-1.816
							c3.18,0.66,6.108,2.532,8.03,5.462l1.404,2.139l1.404,2.139c1.923,2.929,2.476,6.361,1.816,9.54
							c-0.66,3.18-2.532,6.108-5.462,8.03l-2.139,1.404l-2.139,1.404c-2.929,1.923-6.361,2.476-9.54,1.816
							C227.554,908.817,224.626,906.944,222.703,904.015z"/>
					</g>
				</g>
			</g>
			<g>
				<path fill="#CE963F" d="M926.292,388.889l-1.404-2.139l-1.404-2.139c-1.923-2.929-2.476-6.361-1.816-9.54
					c0.66-3.18,2.532-6.108,5.462-8.03l28.525-18.723l28.525-18.723c2.929-1.923,6.361-2.476,9.54-1.816
					c3.18,0.66,6.108,2.532,8.03,5.462l1.404,2.139l1.404,2.139c1.923,2.929,2.476,6.361,1.816,9.54
					c-0.66,3.18-2.532,6.108-5.462,8.03l-28.525,18.723l-28.525,18.723c-2.929,1.923-6.361,2.476-9.54,1.816
					C931.143,393.691,928.215,391.819,926.292,388.889z"/>
				<g>
					<path fill="#CE963F" d="M901.84,351.636l-1.404-2.139l-1.404-2.139c-1.923-2.929-2.476-6.361-1.816-9.54
						c0.66-3.18,2.532-6.108,5.462-8.03l28.525-18.723l28.525-18.723c2.929-1.923,6.361-2.476,9.54-1.816s6.108,2.532,8.03,5.462
						l1.404,2.139l1.404,2.139c1.923,2.929,2.476,6.361,1.816,9.54c-0.66,3.18-2.532,6.108-5.462,8.03l-28.525,18.723
						l-28.525,18.723c-2.929,1.923-6.361,2.476-9.54,1.816C906.691,356.438,903.763,354.565,901.84,351.636z"/>
					<path fill="#CE963F" d="M982.763,405.127l-1.404-2.139l-1.404-2.139c-1.923-2.929-2.476-6.361-1.816-9.54
						c0.66-3.18,2.532-6.108,5.462-8.03l12.516-8.215l12.516-8.215c2.929-1.923,6.361-2.476,9.54-1.816s6.108,2.532,8.03,5.462
						l1.404,2.139l1.404,2.139c1.923,2.929,2.476,6.361,1.816,9.54c-0.66,3.18-2.532,6.108-5.462,8.03l-12.516,8.215l-12.516,8.215
						c-2.929,1.923-6.361,2.476-9.54,1.816C987.613,409.929,984.685,408.057,982.763,405.127z"/>
					<path fill="#CE963F" d="M950.745,426.143l-1.404-2.139l-1.404-2.139c-1.923-2.929-2.476-6.361-1.816-9.54
						c0.66-3.18,2.532-6.108,5.462-8.03l2.139-1.404l2.139-1.404c2.929-1.923,6.361-2.476,9.54-1.816
						c3.18,0.66,6.108,2.532,8.03,5.462l1.404,2.139l1.404,2.139c1.923,2.929,2.476,6.361,1.816,9.54
						c-0.66,3.18-2.532,6.108-5.462,8.03l-2.139,1.404l-2.139,1.404c-2.929,1.923-6.361,2.476-9.54,1.816
						C955.596,430.945,952.668,429.072,950.745,426.143z"/>
				</g>
			</g>
		</g>
		<g>
			<g>
				<path fill="#CE963F" d="M306.364,982.547l-2.022-1.569l-2.022-1.569c-2.768-2.148-4.404-5.215-4.81-8.437
					s0.417-6.599,2.565-9.367l20.919-26.956l20.919-26.956c2.148-2.768,5.215-4.404,8.437-4.81c3.222-0.406,6.599,0.417,9.367,2.565
					l2.022,1.569l2.022,1.569c2.768,2.148,4.404,5.215,4.81,8.437c0.406,3.222-0.417,6.599-2.565,9.367l-20.919,26.956
					l-20.919,26.956c-2.148,2.768-5.215,4.404-8.437,4.81S309.132,984.695,306.364,982.547z"/>
				<g>
					<path fill="#CE963F" d="M271.159,955.226l-2.022-1.569l-2.022-1.569c-2.768-2.148-4.404-5.215-4.81-8.437
						c-0.406-3.222,0.417-6.599,2.565-9.367l20.919-26.956l20.919-26.956c2.148-2.768,5.215-4.404,8.437-4.81
						c3.222-0.406,6.599,0.417,9.367,2.565l2.022,1.569l2.022,1.569c2.768,2.148,4.404,5.215,4.81,8.437
						c0.406,3.222-0.417,6.599-2.565,9.367l-20.919,26.956l-20.919,26.956c-2.148,2.768-5.215,4.404-8.437,4.81
						S273.927,957.374,271.159,955.226z"/>
					<path fill="#CE963F" d="M365.049,979.61l-2.022-1.569l-2.022-1.569c-2.768-2.148-4.404-5.215-4.81-8.437
						s0.417-6.599,2.565-9.367l9.179-11.828l9.179-11.828c2.148-2.768,5.215-4.404,8.437-4.81c3.222-0.406,6.599,0.417,9.367,2.565
						l2.022,1.569l2.022,1.569c2.768,2.148,4.404,5.215,4.81,8.437s-0.417,6.599-2.565,9.367l-9.179,11.828l-9.179,11.828
						c-2.148,2.768-5.215,4.404-8.437,4.81C371.194,982.582,367.817,981.759,365.049,979.61z"/>
					<path fill="#CE963F" d="M341.568,1009.867l-2.022-1.569l-2.022-1.569c-2.768-2.148-4.404-5.215-4.81-8.437
						c-0.406-3.222,0.417-6.599,2.565-9.367l1.569-2.022l1.569-2.022c2.148-2.768,5.215-4.404,8.437-4.81s6.599,0.417,9.367,2.565
						l2.022,1.569l2.022,1.569c2.768,2.148,4.404,5.215,4.81,8.437c0.406,3.222-0.417,6.599-2.565,9.367l-1.569,2.022l-1.569,2.022
						c-2.148,2.768-5.215,4.404-8.437,4.81S344.336,1012.015,341.568,1009.867z"/>
				</g>
			</g>
			<g>
				<path fill="#CE963F" d="M840.283,294.552l-2.022-1.569l-2.022-1.569c-2.768-2.148-4.404-5.215-4.81-8.437
					c-0.406-3.222,0.417-6.599,2.565-9.367l20.919-26.956l20.919-26.956c2.148-2.768,5.215-4.404,8.437-4.81
					c3.222-0.406,6.599,0.417,9.367,2.565l2.022,1.569l2.022,1.569c2.768,2.148,4.404,5.215,4.81,8.437s-0.417,6.599-2.565,9.367
					l-20.919,26.956l-20.919,26.956c-2.148,2.768-5.215,4.404-8.437,4.81S843.051,296.7,840.283,294.552z"/>
				<g>
					<path fill="#CE963F" d="M805.078,267.231l-2.022-1.569l-2.022-1.569c-2.768-2.148-4.404-5.215-4.81-8.437
						c-0.406-3.222,0.417-6.599,2.565-9.367l20.919-26.956l20.919-26.956c2.148-2.768,5.215-4.404,8.437-4.81
						c3.222-0.406,6.599,0.417,9.367,2.565l2.022,1.569l2.022,1.569c2.768,2.148,4.404,5.215,4.81,8.437s-0.417,6.599-2.565,9.367
						l-20.919,26.956l-20.919,26.956c-2.148,2.768-5.215,4.404-8.437,4.81S807.846,269.379,805.078,267.231z"/>
					<path fill="#CE963F" d="M898.968,291.616l-2.022-1.569l-2.022-1.569c-2.768-2.148-4.404-5.215-4.81-8.437
						s0.417-6.599,2.565-9.367l9.179-11.828l9.179-11.827c2.148-2.768,5.215-4.404,8.437-4.81c3.222-0.406,6.599,0.417,9.367,2.565
						l2.022,1.569l2.022,1.569c2.768,2.148,4.404,5.215,4.81,8.437s-0.417,6.599-2.565,9.367l-9.179,11.828l-9.179,11.828
						c-2.148,2.768-5.215,4.404-8.437,4.81S901.736,293.764,898.968,291.616z"/>
					<path fill="#CE963F" d="M875.487,321.872l-2.022-1.569l-2.022-1.569c-2.768-2.148-4.404-5.215-4.81-8.437
						s0.417-6.599,2.565-9.367l1.569-2.022l1.569-2.022c2.148-2.768,5.215-4.404,8.437-4.81c3.222-0.406,6.599,0.417,9.367,2.565
						l2.022,1.569l2.022,1.569c2.768,2.148,4.404,5.215,4.81,8.437c0.406,3.222-0.417,6.599-2.565,9.367l-1.569,2.022l-1.569,2.022
						c-2.148,2.768-5.215,4.404-8.437,4.81S878.255,324.02,875.487,321.872z"/>
				</g>
			</g>
		</g>
		<g>
			<g>
				<path fill="#CE963F" d="M446.161,1057.053l-2.421-0.829l-2.421-0.829c-3.315-1.135-5.856-3.507-7.284-6.423
					c-1.428-2.916-1.744-6.378-0.609-9.693l11.056-32.28l11.056-32.28c1.135-3.315,3.507-5.856,6.423-7.284
					c2.916-1.428,6.378-1.744,9.693-0.609l2.421,0.829l2.421,0.829c3.315,1.135,5.856,3.507,7.284,6.423
					c1.428,2.916,1.744,6.378,0.609,9.693l-11.056,32.28l-11.056,32.28c-1.135,3.315-3.507,5.856-6.423,7.284
					C452.938,1057.873,449.476,1058.189,446.161,1057.053z"/>
				<g>
					<path fill="#CE963F" d="M404.004,1042.614l-2.421-0.829l-2.421-0.829c-3.315-1.135-5.856-3.507-7.284-6.423
						c-1.428-2.916-1.744-6.378-0.609-9.693l11.056-32.28l11.056-32.28c1.135-3.315,3.507-5.856,6.423-7.284
						c2.916-1.428,6.378-1.744,9.693-0.609l2.421,0.829l2.421,0.829c3.315,1.135,5.856,3.507,7.284,6.423
						c1.428,2.916,1.744,6.378,0.609,9.693l-11.056,32.28l-11.056,32.28c-1.135,3.315-3.507,5.856-6.423,7.284
						C410.78,1043.434,407.319,1043.75,404.004,1042.614z"/>
					<path fill="#CE963F" d="M500.729,1035.26l-2.421-0.829l-2.421-0.829c-3.315-1.135-5.856-3.507-7.284-6.423
						s-1.744-6.378-0.609-9.693l4.851-14.164l4.851-14.164c1.135-3.315,3.507-5.856,6.423-7.284
						c2.916-1.428,6.378-1.744,9.693-0.609l2.421,0.829l2.421,0.829c3.315,1.135,5.856,3.507,7.284,6.423
						c1.428,2.916,1.744,6.378,0.609,9.693l-4.851,14.164l-4.851,14.164c-1.135,3.315-3.507,5.856-6.423,7.284
						C507.505,1036.08,504.044,1036.396,500.729,1035.26z"/>
					<path fill="#CE963F" d="M488.319,1071.493l-2.421-0.829l-2.421-0.829c-3.315-1.135-5.856-3.507-7.284-6.423
						s-1.744-6.378-0.609-9.693l0.829-2.421l0.829-2.421c1.135-3.315,3.507-5.856,6.423-7.284c2.916-1.428,6.378-1.744,9.693-0.609
						l2.421,0.829l2.421,0.829c3.315,1.135,5.856,3.507,7.284,6.423s1.744,6.378,0.609,9.693l-0.829,2.421l-0.829,2.421
						c-1.135,3.315-3.507,5.856-6.423,7.284C495.095,1072.312,491.634,1072.628,488.319,1071.493z"/>
				</g>
			</g>
			<g>
				<path fill="#CE963F" d="M728.345,233.173l-2.421-0.829l-2.421-0.829c-3.315-1.135-5.856-3.507-7.284-6.423
					c-1.428-2.916-1.744-6.378-0.609-9.693l11.056-32.28l11.056-32.28c1.135-3.315,3.507-5.856,6.423-7.284s6.378-1.744,9.693-0.609
					l2.421,0.829l2.421,0.829c3.315,1.135,5.856,3.507,7.284,6.423c1.428,2.916,1.744,6.378,0.609,9.693l-11.056,32.28
					l-11.056,32.28c-1.135,3.315-3.507,5.856-6.423,7.284C735.122,233.993,731.66,234.309,728.345,233.173z"/>
				<g>
					<path fill="#CE963F" d="M686.188,218.734l-2.421-0.829l-2.421-0.829c-3.315-1.135-5.856-3.507-7.284-6.423
						c-1.428-2.916-1.744-6.378-0.609-9.693l11.056-32.28l11.056-32.28c1.135-3.315,3.507-5.856,6.423-7.284
						c2.916-1.428,6.378-1.744,9.693-0.609l2.421,0.829l2.421,0.829c3.315,1.135,5.856,3.507,7.284,6.423
						c1.428,2.916,1.744,6.378,0.609,9.693l-11.056,32.28l-11.056,32.28c-1.135,3.315-3.507,5.856-6.423,7.284
						C692.964,219.554,689.503,219.869,686.188,218.734z"/>
					<path fill="#CE963F" d="M782.913,211.38l-2.421-0.829l-2.421-0.829c-3.315-1.135-5.856-3.507-7.284-6.423
						c-1.428-2.916-1.744-6.378-0.609-9.693l4.851-14.164l4.851-14.164c1.135-3.315,3.507-5.856,6.423-7.284
						c2.916-1.428,6.378-1.744,9.693-0.609l2.421,0.829l2.421,0.829c3.315,1.135,5.856,3.507,7.284,6.423
						c1.428,2.916,1.744,6.378,0.609,9.693l-4.851,14.164l-4.851,14.164c-1.135,3.315-3.507,5.856-6.423,7.284
						C789.689,212.2,786.228,212.515,782.913,211.38z"/>
					<path fill="#CE963F" d="M770.503,247.612l-2.421-0.829l-2.421-0.829c-3.315-1.135-5.856-3.507-7.284-6.423
						c-1.428-2.916-1.744-6.378-0.609-9.693l0.829-2.421l0.829-2.421c1.135-3.315,3.507-5.856,6.423-7.284
						c2.916-1.428,6.378-1.744,9.693-0.609l2.421,0.829l2.421,0.829c3.315,1.135,5.856,3.507,7.284,6.423
						c1.428,2.916,1.744,6.378,0.609,9.693l-0.829,2.421l-0.829,2.421c-1.135,3.315-3.507,5.856-6.423,7.284
						S773.818,248.748,770.503,247.612z"/>
				</g>
			</g>
		</g>
	</g>
	<g>
		<g>
			<g>
				<path fill="#ECB348" d="M644.846,945.834c-1.946,0-3.861-0.315-5.683-0.929c-1.823-0.614-3.553-1.528-5.13-2.726
					c-1.909-1.451-3.479-3.229-4.653-5.239c-1.174-2.009-1.952-4.25-2.277-6.624c-0.671-4.902,0.714-9.62,3.494-13.281
					c2.779-3.661,6.952-6.264,11.855-6.936c4.903-0.659,9.621,0.727,13.282,3.503c3.661,2.776,6.264,6.943,6.935,11.845
					c0.326,2.376,0.179,4.743-0.412,6.994s-1.625,4.385-3.075,6.294c-1.45,1.909-3.228,3.479-5.237,4.653
					c-2.009,1.174-4.25,1.951-6.626,2.276c-0.413,0.057-0.826,0.1-1.238,0.128C645.668,945.82,645.256,945.834,644.846,945.834z
					 M644.886,923.3c-0.103,0-0.206,0.003-0.311,0.01c-0.104,0.007-0.209,0.018-0.314,0.032c-1.25,0.171-2.315,0.836-3.024,1.771
					c-0.709,0.935-1.063,2.139-0.892,3.389l0,0l0,0c0.083,0.607,0.282,1.18,0.582,1.693s0.7,0.967,1.187,1.336
					c0.488,0.372,1.031,0.638,1.605,0.789c0.574,0.151,1.178,0.188,1.787,0.102c0.607-0.083,1.179-0.281,1.691-0.581
					c0.513-0.299,0.966-0.7,1.335-1.188c0.37-0.486,0.635-1.031,0.786-1.606c0.151-0.575,0.188-1.179,0.105-1.785
					c-0.157-1.147-0.728-2.138-1.541-2.841S646.013,923.3,644.886,923.3z"/>
				<path fill="#ECB348" d="M555.11,290.067c-4.415,0-8.551-1.633-11.738-4.389c-3.187-2.756-5.424-6.635-6.04-11.125l0,0l0,0
					c-0.326-2.376-0.179-4.743,0.412-6.994s1.625-4.385,3.075-6.294c1.45-1.909,3.228-3.479,5.238-4.652
					c2.01-1.174,4.251-1.951,6.627-2.276c2.372-0.326,4.739-0.18,6.989,0.41c2.251,0.59,4.386,1.625,6.296,3.075
					c1.909,1.449,3.479,3.227,4.652,5.236c1.174,2.009,1.951,4.249,2.276,6.624c0.671,4.903-0.715,9.622-3.493,13.284
					c-2.778,3.661-6.95,6.265-11.852,6.937c-0.41,0.055-0.82,0.097-1.227,0.125S555.513,290.067,555.11,290.067z M550.576,272.738
					c0.171,1.252,0.837,2.319,1.773,3.029c0.936,0.711,2.141,1.065,3.392,0.89c1.25-0.171,2.314-0.836,3.023-1.771
					c0.709-0.935,1.063-2.14,0.891-3.392c-0.083-0.605-0.282-1.177-0.582-1.69s-0.7-0.966-1.187-1.335
					c-0.486-0.372-1.028-0.636-1.601-0.787c-0.573-0.151-1.178-0.187-1.79-0.104c-0.607,0.083-1.179,0.281-1.692,0.581
					c-0.513,0.299-0.967,0.7-1.336,1.188c-0.37,0.486-0.634,1.03-0.785,1.605C550.531,271.527,550.493,272.131,550.576,272.738
					L550.576,272.738L550.576,272.738z"/>
			</g>
			<g>
				<path fill="#ECB348" d="M863.548,818.063c-1.947,0-3.862-0.316-5.685-0.931c-1.823-0.615-3.553-1.53-5.13-2.727
					c-3.94-2.991-6.296-7.307-6.92-11.861c-0.624-4.554,0.486-9.345,3.477-13.288c2.993-3.939,7.309-6.294,11.862-6.918
					s9.344,0.484,13.286,3.472c1.91,1.451,3.48,3.229,4.654,5.239c1.174,2.01,1.952,4.251,2.278,6.627
					c0.325,2.376,0.177,4.743-0.413,6.994s-1.625,4.385-3.075,6.294c-1.449,1.908-3.226,3.476-5.235,4.65
					c-2.009,1.174-4.249,1.952-6.624,2.278c-0.414,0.055-0.827,0.098-1.239,0.126S863.959,818.063,863.548,818.063z
					 M863.594,795.529c-0.693,0-1.382,0.156-2.011,0.46s-1.196,0.757-1.646,1.351c-0.763,1.005-1.046,2.228-0.887,3.391
					c0.159,1.163,0.76,2.265,1.766,3.029c0.488,0.37,1.035,0.631,1.61,0.78c0.575,0.149,1.179,0.186,1.78,0.111
					c0.606-0.083,1.178-0.282,1.691-0.582c0.513-0.3,0.967-0.7,1.337-1.187c0.37-0.488,0.634-1.033,0.785-1.608
					c0.151-0.575,0.188-1.179,0.104-1.786c-0.082-0.605-0.281-1.177-0.58-1.69s-0.701-0.968-1.188-1.338
					c-0.413-0.313-0.862-0.546-1.329-0.7C864.56,795.605,864.076,795.529,863.594,795.529z"/>
				<path fill="#ECB348" d="M336.391,417.832c-1.89,0-3.788-0.297-5.618-0.901c-1.83-0.604-3.592-1.514-5.212-2.741
					c0-0.002,0-0.002-0.001-0.003c0,0-0.001,0-0.001,0c-3.941-2.993-6.297-7.309-6.92-11.863s0.487-9.345,3.479-13.285
					c2.993-3.941,7.311-6.297,11.865-6.92s9.344,0.486,13.283,3.477c1.909,1.449,3.479,3.227,4.653,5.236s1.952,4.249,2.277,6.624
					c0.325,2.376,0.177,4.743-0.413,6.994c-0.591,2.251-1.625,4.385-3.075,6.294c-1.762,2.322-3.985,4.094-6.445,5.286
					C341.803,417.221,339.105,417.832,336.391,417.832z M333.642,403.538c1.004,0.765,2.227,1.048,3.39,0.889
					c1.163-0.16,2.265-0.762,3.029-1.767c0.37-0.488,0.635-1.033,0.786-1.607s0.188-1.178,0.105-1.783
					c-0.082-0.607-0.281-1.179-0.58-1.692c-0.3-0.513-0.701-0.966-1.189-1.337c-1.004-0.762-2.226-1.046-3.388-0.887
					s-2.266,0.76-3.031,1.768c-0.763,1.005-1.046,2.227-0.887,3.389C332.036,401.673,332.637,402.774,333.642,403.538
					L333.642,403.538L333.642,403.538z"/>
			</g>
			<g>
				<path fill="#ECB348" d="M927.873,573.065c-4.412,0-8.548-1.633-11.734-4.388c-3.186-2.756-5.423-6.634-6.039-11.126
					c-0.325-2.376-0.177-4.743,0.414-6.994c0.591-2.251,1.626-4.385,3.075-6.294s3.227-3.479,5.236-4.652
					c2.01-1.174,4.251-1.951,6.626-2.276c2.373-0.331,4.739-0.185,6.99,0.406s4.386,1.628,6.295,3.079
					c1.909,1.451,3.479,3.229,4.652,5.239c1.174,2.01,1.951,4.251,2.276,6.627c0.326,2.373,0.179,4.739-0.411,6.989
					c-0.591,2.25-1.625,4.384-3.074,6.294c-1.451,1.909-3.228,3.479-5.237,4.653c-2.009,1.174-4.249,1.952-6.625,2.279c0,0,0,0,0,0
					c0,0-0.001,0-0.003,0c-0.41,0.055-0.818,0.097-1.225,0.125C928.681,573.051,928.276,573.065,927.873,573.065z M927.896,550.534
					c-0.104,0-0.21,0.003-0.315,0.01c-0.106,0.007-0.212,0.018-0.318,0.032c-1.252,0.171-2.317,0.835-3.027,1.77
					c-0.71,0.935-1.064,2.14-0.893,3.393c0.171,1.25,0.84,2.319,1.777,3.03c0.937,0.711,2.141,1.066,3.383,0.886l0,0l0,0
					c0.607-0.083,1.179-0.282,1.692-0.583s0.966-0.702,1.337-1.19c0.37-0.486,0.635-1.03,0.786-1.604s0.188-1.178,0.105-1.783
					c-0.083-0.607-0.281-1.18-0.581-1.693c-0.299-0.513-0.7-0.967-1.188-1.336c-0.401-0.307-0.843-0.54-1.308-0.697
					C928.88,550.614,928.392,550.534,927.896,550.534z"/>
				<path fill="#ECB348" d="M272.078,662.836c-1.946,0-3.861-0.316-5.684-0.93s-3.553-1.529-5.13-2.725
					c-1.91-1.451-3.48-3.229-4.654-5.239s-1.951-4.25-2.276-6.624c-0.671-4.902,0.714-9.62,3.494-13.281s6.952-6.264,11.855-6.936
					c4.908-0.667,9.627,0.72,13.287,3.498c3.66,2.779,6.26,6.95,6.93,11.85c0.326,2.376,0.179,4.743-0.412,6.994
					c-0.591,2.251-1.625,4.385-3.075,6.294c-1.45,1.909-3.228,3.479-5.236,4.652c-2.009,1.174-4.249,1.951-6.623,2.276l0,0l0,0
					c-0.414,0.057-0.828,0.1-1.241,0.128S272.489,662.836,272.078,662.836z M272.119,640.302c-0.103,0-0.206,0.003-0.311,0.01
					c-0.104,0.007-0.209,0.018-0.314,0.032c-1.25,0.171-2.315,0.836-3.024,1.771c-0.709,0.935-1.063,2.139-0.892,3.389
					c0.083,0.607,0.282,1.18,0.582,1.693c0.3,0.513,0.7,0.967,1.187,1.336c0.489,0.372,1.035,0.638,1.609,0.789
					c0.574,0.151,1.177,0.188,1.78,0.102c0.001,0,0.002,0,0.002,0s0.002,0,0.002,0c0.605-0.083,1.177-0.281,1.689-0.581
					c0.513-0.299,0.966-0.7,1.336-1.188c0.37-0.486,0.635-1.031,0.786-1.606c0.151-0.575,0.188-1.179,0.105-1.785
					c-0.157-1.147-0.728-2.138-1.541-2.841S273.246,640.302,272.119,640.302z"/>
			</g>
			<g>
				<path fill="#ECB348" d="M800.089,354.354c-1.891,0-3.79-0.297-5.62-0.901c-1.83-0.604-3.593-1.515-5.211-2.744
					c-3.941-2.993-6.297-7.309-6.921-11.863s0.486-9.345,3.478-13.285c1.45-1.909,3.228-3.479,5.237-4.653
					c2.009-1.174,4.249-1.952,6.624-2.279c2.377-0.321,4.744-0.175,6.994,0.415c2.251,0.59,4.384,1.623,6.294,3.073
					c3.94,2.991,6.296,7.307,6.92,11.861c0.624,4.554-0.486,9.345-3.477,13.288c0,0,0,0-0.001,0c0,0-0.001,0.001-0.001,0.003
					c-1.764,2.322-3.987,4.093-6.447,5.284C805.498,353.744,802.8,354.354,800.089,354.354z M800.121,331.83
					c-0.105,0-0.211,0.004-0.316,0.011c-0.105,0.007-0.211,0.018-0.316,0.031c-0.606,0.083-1.178,0.282-1.691,0.582
					c-0.513,0.3-0.967,0.7-1.337,1.187c-0.764,1.007-1.047,2.231-0.887,3.394s0.761,2.265,1.767,3.029
					c1.004,0.762,2.225,1.046,3.388,0.888c1.162-0.158,2.265-0.759,3.03-1.766l0,0l0,0c0.764-1.007,1.047-2.231,0.888-3.394
					c-0.159-1.163-0.76-2.265-1.766-3.029c-0.402-0.305-0.844-0.538-1.309-0.696C801.106,331.911,800.617,331.83,800.121,331.83z"/>
				<path fill="#ECB348" d="M399.869,881.527c-1.891,0-3.789-0.297-5.619-0.901c-1.83-0.604-3.592-1.514-5.211-2.741
					c-3.941-2.994-6.298-7.312-6.922-11.866s0.486-9.345,3.478-13.286c1.45-1.909,3.228-3.479,5.237-4.653
					c2.009-1.174,4.249-1.952,6.624-2.279c2.377-0.318,4.745-0.171,6.996,0.418c2.251,0.589,4.384,1.62,6.293,3.071
					c3.94,2.993,6.296,7.309,6.919,11.863s-0.486,9.345-3.476,13.285c0,0,0,0-0.001,0c0,0-0.001,0.001-0.001,0.003
					c-1.763,2.32-3.986,4.092-6.446,5.283C405.279,880.916,402.582,881.527,399.869,881.527z M399.902,859.003
					c-0.105,0-0.21,0.004-0.316,0.011c-0.105,0.007-0.21,0.018-0.316,0.031c-0.606,0.083-1.178,0.282-1.691,0.582
					c-0.513,0.3-0.967,0.7-1.337,1.187c-0.764,1.007-1.047,2.231-0.887,3.394s0.761,2.265,1.767,3.029
					c1.007,0.764,2.23,1.046,3.392,0.886s2.263-0.761,3.026-1.764l0,0l0,0c0.764-1.007,1.047-2.231,0.888-3.394
					c-0.159-1.163-0.76-2.265-1.766-3.029c-0.402-0.305-0.844-0.539-1.309-0.696C400.886,859.084,400.398,859.003,399.902,859.003z"
					/>
			</g>
		</g>
		<g>
			<g>
				<path fill="#ECB348" d="M686.941,937.267c-1.543,0-3.076-0.201-4.567-0.598c-1.491-0.397-2.94-0.991-4.315-1.778
					c-2.081-1.191-3.868-2.752-5.293-4.593c-1.424-1.841-2.485-3.962-3.114-6.274c-1.3-4.774-0.538-9.633,1.744-13.623
					s6.081-7.111,10.855-8.412c4.777-1.299,9.637-0.534,13.627,1.748c3.99,2.282,7.111,6.083,8.41,10.855
					c0.63,2.312,0.791,4.678,0.496,6.986c-0.294,2.308-1.043,4.558-2.233,6.639c-1.19,2.082-2.75,3.87-4.591,5.294
					c-1.841,1.424-3.962,2.486-6.275,3.116c-0.784,0.214-1.575,0.374-2.367,0.48C688.527,937.214,687.732,937.267,686.941,937.267z
					 M686.964,914.727c-0.198,0-0.399,0.013-0.599,0.04c-0.201,0.026-0.402,0.066-0.603,0.12c-1.216,0.331-2.185,1.128-2.767,2.147
					c-0.582,1.019-0.776,2.26-0.444,3.479l0,0l0,0c0.161,0.591,0.432,1.132,0.795,1.602c0.363,0.47,0.82,0.868,1.351,1.172
					c0.532,0.304,1.107,0.494,1.696,0.57c0.589,0.075,1.193,0.034,1.783-0.126c0.59-0.162,1.131-0.432,1.601-0.796
					s0.868-0.82,1.171-1.351c0.304-0.53,0.496-1.105,0.571-1.694c0.075-0.589,0.034-1.194-0.127-1.785
					c-0.277-1.018-0.88-1.863-1.665-2.452C688.941,915.062,687.973,914.727,686.964,914.727z"/>
				<path fill="#ECB348" d="M513.036,298.641c-3.948,0-7.735-1.314-10.807-3.626c-3.072-2.311-5.429-5.62-6.515-9.608
					c-0.63-2.312-0.791-4.678-0.496-6.986c0.294-2.308,1.043-4.558,2.233-6.639c1.19-2.082,2.75-3.87,4.591-5.294
					c1.841-1.424,3.962-2.486,6.275-3.116c2.313-0.628,4.679-0.789,6.988-0.495s4.558,1.042,6.639,2.231
					c2.08,1.191,3.867,2.751,5.291,4.592c1.424,1.841,2.486,3.962,3.115,6.276c0.63,2.312,0.791,4.678,0.496,6.986
					c-0.294,2.308-1.044,4.558-2.234,6.639c-1.19,2.08-2.749,3.867-4.589,5.291c-1.84,1.424-3.962,2.486-6.275,3.115
					c-0.786,0.214-1.574,0.372-2.361,0.477C514.599,298.589,513.814,298.641,513.036,298.641z M513.038,276.106
					c-0.202,0-0.404,0.014-0.606,0.041c-0.202,0.027-0.403,0.068-0.603,0.122c-0.591,0.162-1.132,0.432-1.602,0.796
					c-0.47,0.363-0.868,0.82-1.172,1.352c-0.304,0.53-0.496,1.105-0.571,1.694c-0.075,0.589-0.034,1.194,0.127,1.785
					c0.331,1.217,1.125,2.182,2.142,2.761s2.258,0.775,3.482,0.453c0.59-0.162,1.131-0.432,1.601-0.796
					c0.47-0.363,0.868-0.82,1.171-1.351c0.304-0.53,0.496-1.104,0.571-1.693s0.034-1.192-0.127-1.783s-0.432-1.132-0.795-1.602
					c-0.364-0.47-0.82-0.868-1.352-1.172c-0.351-0.201-0.72-0.352-1.101-0.454C513.823,276.158,513.432,276.106,513.038,276.106z"/>
			</g>
			<g>
				<path fill="#ECB348" d="M887.252,782.233c-1.509,0-3.029-0.19-4.521-0.581c-1.492-0.39-2.957-0.981-4.359-1.782h-0.001h-0.001
					c-4.294-2.457-7.189-6.432-8.397-10.867c-1.208-4.434-0.729-9.328,1.726-13.622c1.19-2.082,2.75-3.87,4.591-5.294
					s3.961-2.486,6.273-3.116c2.315-0.628,4.682-0.789,6.991-0.495c2.308,0.294,4.558,1.042,6.639,2.231
					c2.08,1.19,3.866,2.749,5.29,4.589c1.424,1.84,2.485,3.961,3.115,6.275c0.631,2.312,0.791,4.678,0.497,6.987
					s-1.044,4.559-2.233,6.642c-1.655,2.893-3.999,5.151-6.708,6.686C893.445,781.422,890.37,782.233,887.252,782.233z
					 M885.009,768.266c0.53,0.303,1.105,0.494,1.695,0.568c0.589,0.075,1.194,0.034,1.783-0.124
					c0.591-0.161,1.132-0.432,1.602-0.795c0.469-0.363,0.867-0.818,1.171-1.349c0.304-0.532,0.496-1.107,0.571-1.697
					c0.075-0.59,0.034-1.194-0.127-1.785c-0.161-0.589-0.432-1.13-0.795-1.6c-0.363-0.469-0.819-0.868-1.349-1.171
					c-0.534-0.304-1.109-0.496-1.698-0.572c-0.589-0.076-1.192-0.035-1.78,0.128c-0.591,0.16-1.132,0.431-1.602,0.795
					c-0.47,0.364-0.868,0.821-1.172,1.353c-0.627,1.095-0.749,2.344-0.441,3.476C883.173,766.624,883.912,767.639,885.009,768.266
					L885.009,768.266L885.009,768.266z"/>
				<path fill="#ECB348" d="M312.687,453.655c-1.509,0-3.028-0.19-4.52-0.58c-1.492-0.39-2.957-0.981-4.358-1.782
					c-2.081-1.19-3.868-2.749-5.293-4.589c-1.424-1.84-2.486-3.961-3.116-6.275c-0.63-2.312-0.791-4.678-0.496-6.987
					c0.294-2.309,1.043-4.559,2.233-6.642c2.456-4.295,6.429-7.191,10.864-8.399c4.434-1.208,9.329-0.729,13.627,1.729
					c4.296,2.457,7.191,6.433,8.4,10.868c1.208,4.435,0.728,9.329-1.727,13.624c-1.655,2.893-4,5.151-6.71,6.686
					C318.879,452.843,315.804,453.655,312.687,453.655z M312.726,431.131c-0.795,0-1.58,0.207-2.272,0.599
					c-0.692,0.392-1.29,0.969-1.713,1.708c-0.304,0.53-0.496,1.105-0.571,1.694c-0.075,0.589-0.034,1.194,0.127,1.785
					c0.161,0.589,0.432,1.13,0.795,1.599c0.363,0.47,0.82,0.868,1.351,1.171c1.096,0.625,2.346,0.748,3.478,0.441
					s2.147-1.046,2.773-2.144c0.627-1.095,0.75-2.344,0.441-3.476c-0.309-1.132-1.048-2.147-2.145-2.774
					c-0.357-0.206-0.731-0.357-1.112-0.456C313.499,431.179,313.112,431.131,312.726,431.131z"/>
			</g>
			<g>
				<path fill="#ECB348" d="M919.28,530.989c-1.542,0-3.075-0.201-4.566-0.598s-2.94-0.991-4.314-1.778
					c-2.082-1.191-3.87-2.751-5.294-4.592c-1.424-1.841-2.486-3.962-3.116-6.276c-0.63-2.312-0.791-4.678-0.496-6.986
					c0.294-2.308,1.044-4.558,2.234-6.639c1.19-2.08,2.75-3.867,4.59-5.291c1.84-1.424,3.962-2.486,6.275-3.115
					c4.774-1.301,9.632-0.538,13.621,1.744c3.989,2.282,7.11,6.082,8.41,10.856c1.3,4.774,0.538,9.633-1.744,13.623
					c-2.282,3.99-6.082,7.112-10.856,8.412c-0.783,0.214-1.574,0.374-2.366,0.48C920.866,530.936,920.071,530.989,919.28,530.989z
					 M919.316,508.448c-0.202,0-0.405,0.014-0.607,0.041c-0.202,0.027-0.403,0.068-0.604,0.122
					c-0.591,0.162-1.132,0.432-1.602,0.796c-0.47,0.363-0.868,0.82-1.172,1.351c-0.303,0.53-0.494,1.104-0.569,1.693
					c-0.075,0.589-0.034,1.192,0.126,1.783c0.161,0.591,0.432,1.132,0.796,1.602c0.363,0.47,0.82,0.868,1.352,1.172
					c0.53,0.303,1.104,0.494,1.693,0.569s1.194,0.034,1.786-0.126c0.589-0.16,1.13-0.431,1.6-0.795
					c0.469-0.364,0.868-0.821,1.171-1.353c0.304-0.53,0.495-1.105,0.571-1.694c0.076-0.589,0.035-1.194-0.127-1.785
					c-0.162-0.589-0.432-1.13-0.795-1.599c-0.363-0.47-0.818-0.868-1.349-1.171c-0.351-0.201-0.721-0.352-1.102-0.454
					C920.101,508.5,919.709,508.448,919.316,508.448z"/>
				<path fill="#ECB348" d="M280.697,704.919c-3.948,0-7.735-1.314-10.807-3.626s-5.429-5.62-6.515-9.608
					c-1.301-4.774-0.538-9.633,1.743-13.623s6.081-7.112,10.855-8.412c2.315-0.628,4.683-0.789,6.992-0.495s4.558,1.042,6.637,2.231
					c2.081,1.191,3.868,2.751,5.293,4.592c1.424,1.841,2.486,3.962,3.116,6.276c0.63,2.312,0.791,4.678,0.496,6.986
					c-0.294,2.308-1.044,4.558-2.234,6.639c-1.19,2.08-2.749,3.867-4.589,5.291c-1.84,1.424-3.962,2.486-6.275,3.115
					c-0.786,0.214-1.574,0.372-2.361,0.477C282.26,704.867,281.476,704.919,280.697,704.919z M280.699,682.384
					c-0.202,0-0.405,0.014-0.607,0.041s-0.404,0.068-0.605,0.122c-1.218,0.331-2.188,1.128-2.77,2.147
					c-0.582,1.019-0.777,2.26-0.445,3.479c0.332,1.217,1.128,2.182,2.145,2.763s2.258,0.775,3.479,0.452
					c0.59-0.162,1.131-0.432,1.601-0.796c0.47-0.363,0.868-0.82,1.171-1.351c0.304-0.53,0.496-1.104,0.571-1.693
					c0.075-0.589,0.034-1.192-0.127-1.783c-0.161-0.591-0.432-1.132-0.795-1.602c-0.364-0.47-0.82-0.868-1.352-1.172
					c-0.351-0.201-0.721-0.352-1.101-0.454C281.483,682.436,281.092,682.384,280.699,682.384z"/>
			</g>
			<g>
				<path fill="#ECB348" d="M764.259,330.662c-1.509,0-3.029-0.19-4.521-0.58c-1.492-0.39-2.958-0.981-4.359-1.782
					c-2.081-1.19-3.868-2.749-5.293-4.589c-1.424-1.84-2.486-3.961-3.116-6.275c-0.63-2.314-0.79-4.68-0.496-6.988
					c0.295-2.308,1.044-4.558,2.233-6.64c1.19-2.08,2.749-3.867,4.589-5.291c1.84-1.424,3.962-2.486,6.275-3.115
					c2.314-0.628,4.681-0.789,6.989-0.495c2.308,0.294,4.558,1.042,6.638,2.231c4.296,2.457,7.191,6.432,8.399,10.867
					c1.208,4.434,0.728,9.328-1.728,13.622l0,0l0,0c-1.655,2.895-3.999,5.154-6.708,6.689
					C770.452,329.85,767.376,330.662,764.259,330.662z M764.298,308.137c-0.795,0-1.58,0.207-2.272,0.599s-1.29,0.968-1.713,1.705
					c-0.304,0.532-0.496,1.107-0.571,1.697s-0.034,1.194,0.127,1.785c0.16,0.591,0.43,1.132,0.794,1.601
					c0.363,0.469,0.819,0.866,1.35,1.17c0.53,0.303,1.106,0.494,1.695,0.569c0.59,0.075,1.194,0.034,1.784-0.126
					c0.591-0.162,1.132-0.432,1.602-0.795c0.47-0.363,0.867-0.818,1.171-1.349v-0.002v-0.002c0.627-1.097,0.75-2.346,0.442-3.477
					c-0.308-1.132-1.047-2.146-2.144-2.772c-0.357-0.206-0.731-0.357-1.112-0.456S764.683,308.137,764.298,308.137z"/>
				<path fill="#ECB348" d="M435.681,905.227c-1.509,0-3.028-0.19-4.52-0.58c-1.492-0.39-2.957-0.981-4.358-1.782
					c-4.296-2.457-7.191-6.433-8.4-10.868c-1.208-4.435-0.728-9.329,1.727-13.624c1.19-2.08,2.75-3.867,4.59-5.291
					s3.961-2.486,6.274-3.115c2.315-0.63,4.681-0.791,6.99-0.496c2.308,0.294,4.558,1.043,6.638,2.233
					c2.08,1.19,3.867,2.749,5.291,4.589c1.424,1.84,2.486,3.961,3.115,6.275c0.63,2.312,0.791,4.678,0.496,6.987
					s-1.043,4.559-2.233,6.642c-1.655,2.893-4,5.151-6.71,6.686C441.873,904.415,438.797,905.227,435.681,905.227z M435.718,882.699
					c-0.202,0-0.405,0.013-0.607,0.04s-0.403,0.068-0.604,0.123c-0.59,0.16-1.131,0.431-1.601,0.795s-0.868,0.821-1.171,1.353
					c-0.627,1.095-0.75,2.344-0.441,3.476s1.048,2.147,2.145,2.774c1.097,0.631,2.346,0.755,3.477,0.445s2.145-1.051,2.772-2.149
					c0.304-0.53,0.496-1.105,0.571-1.694c0.075-0.589,0.034-1.194-0.127-1.785c-0.161-0.589-0.432-1.13-0.795-1.6
					c-0.363-0.469-0.82-0.868-1.351-1.171c-0.352-0.201-0.722-0.352-1.103-0.454C436.503,882.75,436.111,882.699,435.718,882.699z"
					/>
			</g>
		</g>
		<g>
			<g>
				<path fill="#ECB348" d="M727.591,923.316c-1.154,0-2.309-0.113-3.45-0.338s-2.268-0.564-3.369-1.016
					c-2.218-0.911-4.191-2.226-5.842-3.866c-1.651-1.64-2.977-3.606-3.901-5.817c-1.908-4.567-1.781-9.484-0.035-13.736
					c1.746-4.252,5.111-7.839,9.677-9.748c2.213-0.924,4.539-1.389,6.865-1.397c2.327-0.007,4.655,0.444,6.87,1.354
					c2.218,0.911,4.192,2.226,5.842,3.866c1.651,1.64,2.978,3.606,3.901,5.817c0.924,2.213,1.39,4.539,1.398,6.866
					c0.007,2.327-0.444,4.656-1.354,6.873c-0.91,2.218-2.226,4.191-3.866,5.842c-1.641,1.65-3.606,2.978-5.818,3.903
					c-1.114,0.465-2.258,0.814-3.416,1.047C729.936,923.199,728.763,923.316,727.591,923.316z M727.591,900.772
					c-0.299,0-0.599,0.03-0.895,0.09c-0.296,0.06-0.588,0.15-0.873,0.269c-1.166,0.486-2.025,1.402-2.471,2.487
					c-0.446,1.085-0.479,2.34,0.009,3.505c0.236,0.565,0.575,1.066,0.996,1.485c0.422,0.419,0.926,0.755,1.492,0.988
					c0.566,0.23,1.16,0.345,1.754,0.343c0.594-0.002,1.187-0.12,1.753-0.357c0.565-0.235,1.066-0.574,1.485-0.995
					c0.419-0.421,0.754-0.926,0.986-1.492c0.233-0.566,0.348-1.16,0.346-1.754c-0.002-0.594-0.12-1.187-0.356-1.751
					c-0.236-0.565-0.575-1.066-0.996-1.485c-0.421-0.419-0.925-0.755-1.491-0.988c-0.281-0.114-0.568-0.201-0.859-0.259
					C728.18,900.801,727.885,900.772,727.591,900.772z"/>
				<path fill="#ECB348" d="M472.413,312.602c-1.154,0-2.309-0.113-3.45-0.338s-2.268-0.564-3.369-1.016
					c-2.218-0.91-4.191-2.226-5.842-3.866c-1.65-1.64-2.978-3.606-3.901-5.817c-1.908-4.567-1.781-9.484-0.035-13.736
					c1.746-4.252,5.111-7.839,9.677-9.748c2.212-0.922,4.537-1.389,6.864-1.397s4.655,0.442,6.872,1.354
					c2.218,0.91,4.192,2.226,5.842,3.866c1.651,1.64,2.978,3.606,3.901,5.817c0.924,2.213,1.39,4.539,1.398,6.866
					c0.007,2.327-0.444,4.656-1.354,6.873c-0.911,2.217-2.226,4.191-3.866,5.842c-1.641,1.651-3.606,2.978-5.818,3.903
					c-1.114,0.465-2.258,0.814-3.416,1.047C474.757,312.485,473.585,312.602,472.413,312.602z M472.413,290.058
					c-0.299,0-0.599,0.03-0.895,0.09s-0.588,0.15-0.873,0.269c-1.166,0.486-2.025,1.402-2.471,2.487
					c-0.446,1.085-0.479,2.34,0.009,3.505c0.236,0.565,0.575,1.066,0.996,1.485s0.926,0.755,1.492,0.988
					c0.566,0.23,1.161,0.345,1.755,0.344c0.594-0.002,1.188-0.12,1.752-0.357c0.565-0.235,1.066-0.574,1.485-0.995
					c0.419-0.421,0.754-0.926,0.986-1.492c0.233-0.566,0.348-1.16,0.346-1.754c-0.002-0.594-0.12-1.187-0.356-1.751
					c-0.236-0.565-0.575-1.066-0.996-1.485s-0.925-0.755-1.491-0.988c-0.281-0.114-0.568-0.201-0.859-0.259
					C473.002,290.087,472.707,290.058,472.413,290.058z"/>
			</g>
			<g>
				<path fill="#ECB348" d="M906.115,743.649c-1.134,0-2.276-0.108-3.413-0.331s-2.268-0.558-3.38-1.014
					c-2.218-0.91-4.191-2.226-5.841-3.866c-1.65-1.641-2.977-3.607-3.902-5.82c-0.924-2.213-1.39-4.539-1.397-6.866
					s0.444-4.654,1.355-6.87c0.91-2.217,2.225-4.191,3.866-5.842c1.64-1.651,3.606-2.978,5.819-3.903
					c2.21-0.922,4.535-1.387,6.862-1.394c2.327-0.007,4.656,0.443,6.876,1.352c4.577,1.881,7.963,5.448,9.734,9.689
					c1.772,4.241,1.929,9.156,0.049,13.733c-1.423,3.466-3.813,6.249-6.731,8.165C913.093,742.599,909.648,743.649,906.115,743.649z
					 M906.138,721.115c-0.299,0-0.598,0.03-0.893,0.09c-0.296,0.06-0.588,0.15-0.872,0.269c-0.564,0.235-1.065,0.574-1.484,0.995
					c-0.419,0.421-0.754,0.926-0.987,1.492c-0.233,0.566-0.348,1.16-0.346,1.754c0.002,0.594,0.12,1.187,0.356,1.751
					c0.237,0.565,0.576,1.066,0.997,1.485s0.925,0.754,1.491,0.986c1.166,0.485,2.421,0.444,3.505-0.01
					c1.084-0.454,1.996-1.321,2.476-2.49c0.478-1.167,0.437-2.42-0.015-3.502s-1.316-1.992-2.485-2.474
					c-0.281-0.114-0.569-0.201-0.86-0.259S906.433,721.115,906.138,721.115z"/>
				<path fill="#ECB348" d="M293.862,492.258c-1.154,0-2.309-0.113-3.45-0.339c-1.141-0.226-2.268-0.565-3.369-1.015
					c-2.218-0.911-4.191-2.226-5.841-3.866c-1.65-1.641-2.977-3.607-3.902-5.82c-0.924-2.211-1.39-4.536-1.397-6.863
					c-0.007-2.327,0.444-4.655,1.355-6.873c1.881-4.579,5.448-7.961,9.689-9.731c4.241-1.77,9.156-1.927,13.733-0.056
					c4.577,1.88,7.963,5.446,9.735,9.687c1.772,4.241,1.93,9.156,0.051,13.735c-0.911,2.218-2.225,4.191-3.866,5.842
					c-1.64,1.65-3.606,2.978-5.819,3.903c-1.114,0.465-2.258,0.814-3.416,1.047C296.207,492.142,295.034,492.258,293.862,492.258z
					 M293.867,469.718c-0.902,0-1.781,0.268-2.526,0.758c-0.745,0.49-1.355,1.2-1.718,2.085c-0.233,0.566-0.348,1.16-0.346,1.754
					c0.002,0.594,0.121,1.187,0.357,1.751c0.236,0.565,0.574,1.066,0.996,1.485c0.421,0.419,0.925,0.754,1.491,0.986
					c0.566,0.233,1.161,0.349,1.756,0.348c0.594-0.002,1.188-0.121,1.751-0.357c0.565-0.235,1.066-0.574,1.485-0.995
					c0.419-0.421,0.754-0.926,0.987-1.492c0.48-1.168,0.439-2.423-0.013-3.505c-0.452-1.082-1.317-1.992-2.485-2.47
					c-0.283-0.117-0.572-0.204-0.862-0.261C294.449,469.745,294.156,469.718,293.867,469.718z"/>
			</g>
			<g>
				<path fill="#ECB348" d="M905.381,490.359c-3.514,0-6.942-1.038-9.85-2.935c-2.909-1.897-5.298-4.654-6.735-8.092
					c-0.924-2.213-1.39-4.539-1.397-6.866c-0.007-2.327,0.444-4.656,1.355-6.873c0.911-2.218,2.226-4.191,3.866-5.842
					c1.641-1.651,3.606-2.978,5.818-3.903c2.212-0.922,4.537-1.389,6.865-1.397s4.656,0.442,6.873,1.354
					c2.218,0.91,4.191,2.226,5.842,3.866s2.978,3.606,3.903,5.817c0.924,2.213,1.389,4.539,1.397,6.866
					c0.007,2.327-0.444,4.656-1.354,6.873c-0.91,2.217-2.226,4.191-3.866,5.842c-1.64,1.65-3.606,2.978-5.817,3.903h-0.002h-0.002
					c-1.126,0.47-2.274,0.817-3.428,1.046C907.694,490.247,906.533,490.359,905.381,490.359z M905.358,467.825
					c-0.299,0-0.599,0.03-0.895,0.09c-0.296,0.06-0.588,0.15-0.873,0.269c-1.166,0.486-2.025,1.402-2.471,2.487
					c-0.446,1.085-0.479,2.34,0.009,3.505c0.487,1.165,1.405,2.023,2.491,2.469s2.342,0.478,3.504-0.008l0,0l0,0
					c0.565-0.235,1.066-0.574,1.485-0.995s0.755-0.926,0.988-1.492c0.232-0.566,0.347-1.16,0.345-1.754
					c-0.002-0.594-0.121-1.187-0.358-1.751c-0.235-0.565-0.574-1.066-0.995-1.485s-0.926-0.755-1.492-0.988
					c-0.281-0.114-0.569-0.201-0.86-0.259S905.652,467.825,905.358,467.825z"/>
				<path fill="#ECB348" d="M294.645,745.549c-1.154,0-2.309-0.113-3.45-0.338s-2.268-0.564-3.369-1.016
					c-2.218-0.911-4.191-2.226-5.842-3.866c-1.65-1.64-2.977-3.606-3.901-5.817c-0.924-2.213-1.39-4.539-1.398-6.866
					c-0.007-2.327,0.444-4.656,1.354-6.873c0.91-2.218,2.226-4.191,3.866-5.842s3.606-2.978,5.818-3.903
					c2.212-0.924,4.537-1.389,6.864-1.397s4.655,0.444,6.874,1.354c2.218,0.91,4.192,2.226,5.842,3.866
					c1.651,1.64,2.978,3.606,3.901,5.817c0.924,2.213,1.39,4.539,1.398,6.866s-0.444,4.656-1.354,6.873
					c-0.911,2.218-2.226,4.191-3.866,5.842s-3.606,2.978-5.818,3.903c-1.114,0.465-2.258,0.814-3.416,1.047
					C296.99,745.432,295.818,745.549,294.645,745.549z M294.644,723.005c-0.299,0-0.599,0.03-0.895,0.09
					c-0.296,0.06-0.588,0.15-0.873,0.269c-0.565,0.235-1.066,0.574-1.485,0.995s-0.754,0.926-0.986,1.492
					c-0.233,0.566-0.348,1.16-0.346,1.754c0.002,0.594,0.12,1.187,0.356,1.751s0.575,1.066,0.996,1.485s0.926,0.755,1.492,0.988
					c0.566,0.23,1.161,0.345,1.755,0.344c0.594-0.002,1.188-0.12,1.752-0.357c0.565-0.235,1.066-0.574,1.485-0.995
					c0.419-0.421,0.754-0.926,0.986-1.492c0.233-0.566,0.348-1.16,0.346-1.754c-0.002-0.594-0.12-1.187-0.356-1.751
					s-0.575-1.066-0.996-1.485s-0.926-0.755-1.492-0.988c-0.281-0.114-0.568-0.201-0.859-0.259
					C295.233,723.034,294.938,723.005,294.644,723.005z"/>
			</g>
			<g>
				<path fill="#ECB348" d="M725.678,311.812c-1.134,0-2.277-0.108-3.414-0.331c-1.137-0.222-2.269-0.558-3.381-1.014
					c-4.578-1.883-7.964-5.452-9.736-9.693c-1.772-4.242-1.929-9.156-0.05-13.732c1.879-4.579,5.445-7.963,9.687-9.734
					s9.157-1.928,13.734-0.053c4.577,1.88,7.963,5.447,9.735,9.688c1.772,4.242,1.93,9.158,0.051,13.737l0,0l0,0
					c-1.423,3.466-3.813,6.249-6.73,8.165C732.656,310.762,729.211,311.812,725.678,311.812z M725.708,289.278
					c-0.902,0-1.782,0.268-2.527,0.758c-0.745,0.49-1.355,1.2-1.718,2.085c-0.48,1.168-0.439,2.423,0.013,3.506
					s1.317,1.994,2.487,2.476c1.168,0.478,2.423,0.437,3.505-0.015c1.082-0.452,1.992-1.316,2.471-2.485
					c0.48-1.17,0.439-2.426-0.013-3.508c-0.452-1.083-1.317-1.992-2.485-2.47c-0.283-0.117-0.572-0.204-0.862-0.261
					C726.288,289.305,725.997,289.278,725.708,289.278z"/>
				<path fill="#ECB348" d="M474.276,924.09c-1.134,0-2.277-0.109-3.414-0.331c-1.137-0.222-2.269-0.558-3.381-1.014
					c-4.577-1.88-7.963-5.447-9.735-9.688c-1.772-4.242-1.93-9.158-0.051-13.737c1.879-4.579,5.445-7.964,9.686-9.735
					c4.241-1.771,9.157-1.929,13.736-0.052c4.577,1.88,7.963,5.447,9.735,9.688c1.772,4.242,1.93,9.158,0.051,13.737l0,0l0,0
					c-1.423,3.466-3.813,6.249-6.731,8.165C481.255,923.039,477.809,924.09,474.276,924.09z M474.305,901.555
					c-0.902,0-1.781,0.268-2.526,0.758c-0.745,0.49-1.355,1.2-1.718,2.085c-0.48,1.168-0.44,2.423,0.012,3.506
					c0.452,1.083,1.317,1.993,2.486,2.473c1.168,0.486,2.423,0.446,3.506-0.007c1.083-0.454,1.994-1.321,2.473-2.489
					c0.48-1.17,0.439-2.426-0.013-3.508c-0.452-1.083-1.317-1.992-2.485-2.47c-0.283-0.117-0.572-0.204-0.862-0.261
					C474.887,901.583,474.595,901.555,474.305,901.555z"/>
			</g>
		</g>
		<g>
			<g>
				<path fill="#ECB348" d="M766.091,904.205c-3.098,0-6.155-0.801-8.854-2.319c-2.699-1.518-5.039-3.751-6.703-6.617l0,0l0,0
					c-1.203-2.074-1.965-4.32-2.274-6.627c-0.308-2.307-0.162-4.674,0.453-6.992c0.616-2.317,1.665-4.445,3.078-6.294
					c1.413-1.849,3.191-3.42,5.265-4.622c2.072-1.204,4.318-1.969,6.624-2.278c2.306-0.309,4.674-0.161,6.991,0.461
					c2.316,0.615,4.444,1.664,6.293,3.076s3.419,3.19,4.622,5.262c2.483,4.28,2.993,9.171,1.812,13.613
					c-1.181,4.442-4.052,8.435-8.331,10.918c-1.414,0.821-2.894,1.425-4.403,1.825C769.156,904.011,767.619,904.205,766.091,904.205
					z M762.097,888.56c0.634,1.095,1.653,1.827,2.786,2.127c1.134,0.3,2.383,0.169,3.478-0.463c1.092-0.633,1.824-1.652,2.125-2.786
					c0.301-1.134,0.171-2.382-0.463-3.474c-0.307-0.53-0.708-0.985-1.18-1.346c-0.472-0.361-1.016-0.629-1.607-0.785
					c-0.591-0.158-1.195-0.195-1.784-0.116c-0.588,0.079-1.161,0.274-1.69,0.579c-0.53,0.308-0.984,0.71-1.345,1.182
					c-0.361,0.472-0.628,1.015-0.786,1.605c-0.157,0.592-0.194,1.197-0.115,1.786C761.596,887.459,761.79,888.031,762.097,888.56
					L762.097,888.56L762.097,888.56z"/>
				<path fill="#ECB348" d="M433.971,331.693c-0.773,0-1.55-0.05-2.325-0.151s-1.548-0.254-2.316-0.459
					c-2.316-0.615-4.444-1.664-6.293-3.076c-1.849-1.413-3.419-3.19-4.622-5.262c-2.483-4.28-2.993-9.171-1.813-13.613
					s4.051-8.435,8.33-10.918c4.278-2.487,9.169-2.997,13.612-1.815c4.443,1.181,8.437,4.054,10.921,8.332
					c2.483,4.28,2.993,9.171,1.813,13.613c-1.18,4.442-4.051,8.435-8.33,10.918c-1.386,0.804-2.85,1.412-4.357,1.819
					S435.532,331.693,433.971,331.693z M433.931,309.159c-0.39,0-0.782,0.049-1.168,0.151c-0.385,0.102-0.763,0.256-1.125,0.466
					c-1.091,0.633-1.823,1.652-2.124,2.786c-0.301,1.134-0.171,2.382,0.463,3.474c0.307,0.53,0.708,0.985,1.18,1.346
					c0.472,0.361,1.016,0.629,1.607,0.785c0.59,0.158,1.194,0.195,1.783,0.116c0.589-0.079,1.162-0.274,1.691-0.579
					c1.092-0.635,1.826-1.655,2.127-2.789s0.171-2.382-0.463-3.474c-0.424-0.733-1.021-1.303-1.71-1.69
					C435.504,309.363,434.723,309.159,433.931,309.159z"/>
			</g>
			<g>
				<path fill="#ECB348" d="M919.838,702.944c-0.762,0-1.53-0.048-2.299-0.148c-0.769-0.1-1.54-0.25-2.309-0.456l0,0l0,0
					c-4.783-1.271-8.602-4.37-10.908-8.346c-2.306-3.976-3.098-8.83-1.826-13.611c0.614-2.315,1.662-4.442,3.074-6.292
					c1.412-1.849,3.19-3.421,5.264-4.625c2.074-1.203,4.321-1.965,6.628-2.272c2.307-0.308,4.674-0.161,6.987,0.454
					c4.781,1.271,8.6,4.369,10.907,8.344s3.102,8.828,1.834,13.609c-1.069,4.014-3.423,7.349-6.501,9.681
					S923.806,702.944,919.838,702.944z M918.663,689.424c1.23,0.33,2.47,0.127,3.482-0.463c1.013-0.59,1.799-1.567,2.124-2.788
					c0.323-1.221,0.12-2.46-0.469-3.475c-0.589-1.015-1.564-1.807-2.785-2.131c-0.591-0.158-1.195-0.195-1.784-0.115
					c-0.589,0.08-1.163,0.275-1.691,0.582c-0.529,0.307-0.981,0.707-1.342,1.179c-0.36,0.471-0.628,1.013-0.786,1.602
					c-0.325,1.222-0.122,2.462,0.466,3.478C916.468,688.308,917.443,689.099,918.663,689.424L918.663,689.424L918.663,689.424z"/>
				<path fill="#ECB348" d="M280.191,532.96c-0.774,0-1.551-0.051-2.325-0.152s-1.548-0.254-2.317-0.458
					c-4.781-1.271-8.6-4.369-10.906-8.345c-2.306-3.976-3.099-8.829-1.83-13.612c0.616-2.317,1.664-4.444,3.077-6.293
					c1.413-1.849,3.19-3.419,5.264-4.624c2.074-1.201,4.319-1.962,6.625-2.27c2.306-0.308,4.673-0.162,6.992,0.452
					c2.315,0.614,4.442,1.661,6.291,3.074c1.849,1.413,3.42,3.19,4.623,5.264c1.203,2.074,1.967,4.32,2.275,6.626
					s0.161,4.673-0.455,6.989c-0.615,2.317-1.663,4.445-3.076,6.294c-1.412,1.849-3.189,3.42-5.263,4.622
					c-1.386,0.804-2.85,1.412-4.357,1.819C283.303,532.755,281.752,532.96,280.191,532.96z M280.151,510.423
					c-0.398,0-0.794,0.052-1.178,0.156c-0.384,0.104-0.758,0.259-1.111,0.464c-0.53,0.307-0.983,0.707-1.344,1.179
					c-0.36,0.472-0.628,1.014-0.784,1.605c-0.325,1.221-0.122,2.46,0.466,3.475c0.589,1.015,1.564,1.807,2.786,2.131
					c0.591,0.158,1.194,0.196,1.782,0.117c0.588-0.079,1.161-0.275,1.692-0.583c0.529-0.307,0.982-0.707,1.343-1.179
					c0.361-0.472,0.628-1.015,0.785-1.608c0.157-0.591,0.195-1.194,0.116-1.783c-0.079-0.589-0.273-1.162-0.58-1.693
					c-0.307-0.529-0.707-0.982-1.179-1.342s-1.015-0.628-1.606-0.786c-0.197-0.052-0.394-0.091-0.593-0.116
					C280.547,510.435,280.349,510.423,280.151,510.423z"/>
			</g>
			<g>
				<path fill="#ECB348" d="M886.295,451.883c-3.098,0-6.156-0.801-8.855-2.319c-2.699-1.518-5.04-3.751-6.704-6.617
					c-2.483-4.28-2.993-9.171-1.812-13.613s4.052-8.435,8.331-10.918c2.074-1.204,4.319-1.969,6.626-2.279
					c2.306-0.309,4.674-0.162,6.993,0.458c2.316,0.615,4.444,1.664,6.293,3.076c1.849,1.413,3.419,3.19,4.622,5.262
					c2.482,4.28,2.992,9.171,1.811,13.613c-1.18,4.442-4.051,8.435-8.33,10.918c-0.001,0-0.001,0.001-0.002,0.002
					c0,0.001-0.001,0.002-0.002,0.002c-1.412,0.819-2.892,1.423-4.4,1.822S887.821,451.883,886.295,451.883z M886.254,429.355
					c-0.398,0-0.794,0.053-1.178,0.157c-0.384,0.104-0.758,0.259-1.111,0.463c-1.093,0.635-1.827,1.655-2.128,2.789
					c-0.302,1.134-0.172,2.382,0.462,3.474c0.633,1.093,1.653,1.825,2.787,2.126s2.384,0.17,3.477-0.461
					c1.092-0.635,1.824-1.654,2.125-2.787c0.301-1.133,0.171-2.381-0.462-3.472c-0.307-0.53-0.708-0.985-1.18-1.346
					c-0.472-0.361-1.016-0.629-1.607-0.785c-0.196-0.052-0.393-0.091-0.591-0.117C886.649,429.368,886.451,429.355,886.254,429.355z
					"/>
				<path fill="#ECB348" d="M313.769,784.015c-0.774,0-1.551-0.05-2.325-0.151c-0.775-0.101-1.548-0.254-2.315-0.459
					c-2.317-0.615-4.444-1.664-6.293-3.076c-1.849-1.413-3.419-3.19-4.621-5.262c-2.483-4.28-2.994-9.171-1.814-13.613
					c1.18-4.442,4.051-8.435,8.331-10.918c4.278-2.485,9.17-2.995,13.613-1.814c4.443,1.181,8.437,4.053,10.92,8.331
					c2.483,4.28,2.993,9.172,1.813,13.614s-4.051,8.435-8.331,10.917l0,0l0,0c-1.386,0.804-2.85,1.412-4.357,1.819
					C316.881,783.81,315.33,784.015,313.769,784.015z M313.73,761.481c-0.39,0-0.782,0.049-1.168,0.151s-0.763,0.256-1.125,0.466
					c-1.091,0.633-1.823,1.652-2.124,2.786c-0.301,1.134-0.171,2.382,0.463,3.474c0.308,0.53,0.709,0.985,1.181,1.346
					s1.015,0.629,1.606,0.785c0.591,0.158,1.196,0.195,1.784,0.116s1.161-0.274,1.688-0.579l0,0l0,0
					c1.093-0.635,1.827-1.655,2.128-2.789c0.302-1.134,0.172-2.382-0.462-3.474c-0.424-0.733-1.021-1.303-1.71-1.69
					C315.302,761.685,314.521,761.481,313.73,761.481z"/>
			</g>
			<g>
				<path fill="#ECB348" d="M685.027,298.115c-0.774,0-1.551-0.051-2.325-0.152c-0.775-0.102-1.548-0.254-2.317-0.458
					c-2.315-0.614-4.442-1.661-6.291-3.074c-1.849-1.413-3.42-3.19-4.623-5.264c-1.203-2.074-1.967-4.32-2.275-6.626
					c-0.308-2.306-0.161-4.673,0.455-6.989c0.615-2.317,1.663-4.445,3.076-6.294c1.412-1.849,3.189-3.42,5.263-4.622
					c2.074-1.204,4.32-1.967,6.628-2.275s4.675-0.161,6.991,0.454c4.781,1.271,8.6,4.369,10.906,8.345
					c2.306,3.976,3.099,8.829,1.83,13.612l0,0l0,0c-0.616,2.317-1.664,4.444-3.077,6.293c-1.413,1.849-3.19,3.419-5.264,4.624
					c-1.386,0.803-2.849,1.41-4.356,1.816C688.138,297.909,686.588,298.115,685.027,298.115z M684.988,275.574
					c-0.398,0-0.794,0.053-1.179,0.157c-0.385,0.104-0.758,0.26-1.112,0.466c-0.529,0.307-0.982,0.707-1.343,1.179
					c-0.361,0.472-0.628,1.015-0.785,1.608c-0.157,0.591-0.195,1.194-0.116,1.783c0.079,0.589,0.273,1.162,0.58,1.693
					c0.307,0.529,0.707,0.981,1.179,1.342c0.472,0.36,1.015,0.628,1.606,0.786c0.591,0.158,1.197,0.196,1.786,0.117
					c0.589-0.079,1.163-0.275,1.691-0.583c0.529-0.307,0.982-0.707,1.343-1.179c0.361-0.472,0.628-1.014,0.785-1.605l0,0l0,0
					c0.325-1.221,0.122-2.46-0.466-3.475c-0.589-1.015-1.564-1.807-2.786-2.131c-0.196-0.052-0.393-0.091-0.59-0.117
					C685.383,275.587,685.185,275.574,684.988,275.574z"/>
				<path fill="#ECB348" d="M515.001,937.79c-0.761,0-1.528-0.048-2.296-0.148c-0.768-0.1-1.539-0.25-2.307-0.456
					c-4.783-1.271-8.603-4.369-10.91-8.345c-2.307-3.976-3.1-8.829-1.831-13.612c1.273-4.783,4.37-8.604,8.345-10.911
					s8.829-3.099,13.615-1.823c2.315,0.614,4.442,1.661,6.291,3.074s3.42,3.19,4.623,5.264c1.203,2.074,1.965,4.319,2.274,6.625
					c0.308,2.306,0.162,4.673-0.453,6.99c-1.066,4.012-3.42,7.348-6.499,9.68C522.775,936.46,518.97,937.79,515.001,937.79z
					 M515.006,915.259c-1.013,0-1.985,0.339-2.771,0.935c-0.786,0.595-1.387,1.446-1.659,2.469c-0.324,1.221-0.121,2.46,0.469,3.475
					c0.589,1.015,1.565,1.807,2.787,2.131c1.22,0.326,2.458,0.124,3.473-0.465c1.015-0.589,1.805-1.566,2.129-2.788l0,0l0,0
					c0.157-0.591,0.195-1.194,0.116-1.783c-0.079-0.589-0.274-1.162-0.581-1.693c-0.307-0.529-0.707-0.982-1.179-1.342
					c-0.472-0.36-1.014-0.628-1.605-0.786c-0.197-0.052-0.394-0.091-0.59-0.116C515.397,915.271,515.201,915.259,515.006,915.259z"
					/>
			</g>
		</g>
		<g>
			<g>
				<path fill="#ECB348" d="M801.773,880.297c-0.392,0-0.786-0.012-1.18-0.038s-0.788-0.064-1.183-0.116
					c-2.377-0.31-4.623-1.075-6.639-2.237c-2.016-1.162-3.803-2.722-5.265-4.623l0,0l0,0c-1.461-1.899-2.509-4.026-3.113-6.273
					c-0.605-2.247-0.766-4.612-0.455-6.99c0.31-2.377,1.074-4.623,2.235-6.639c1.161-2.016,2.72-3.803,4.62-5.263
					c3.923-3.019,8.707-4.158,13.265-3.563c4.558,0.596,8.889,2.927,11.904,6.849c3.016,3.919,4.156,8.703,3.562,13.261
					c-0.595,4.558-2.924,8.89-6.847,11.907c-1.585,1.219-3.328,2.15-5.167,2.776C805.672,879.976,803.739,880.297,801.773,880.297z
					 M801.728,857.766c-0.487,0-0.976,0.078-1.448,0.235s-0.925,0.395-1.341,0.715c-0.484,0.372-0.881,0.828-1.177,1.343
					c-0.296,0.514-0.491,1.087-0.57,1.693c-0.079,0.607-0.038,1.211,0.116,1.784c0.154,0.574,0.421,1.117,0.794,1.603h0h0.001
					c0.373,0.485,0.829,0.883,1.344,1.18c0.515,0.297,1.088,0.493,1.695,0.573c0.609,0.083,1.214,0.042,1.786-0.114
					c0.573-0.155,1.114-0.425,1.598-0.797c1.001-0.772,1.596-1.878,1.748-3.042c0.152-1.163-0.138-2.384-0.908-3.384
					c-0.451-0.586-1.017-1.033-1.642-1.334S802.416,857.766,801.728,857.766z"/>
				<path fill="#ECB348" d="M398.303,355.604c-0.392,0-0.784-0.012-1.178-0.038c-0.394-0.025-0.788-0.064-1.183-0.116
					c-2.377-0.31-4.622-1.074-6.638-2.235c-2.016-1.161-3.804-2.721-5.265-4.621c-3.015-3.921-4.155-8.704-3.56-13.261
					s2.924-8.888,6.845-11.907c3.923-3.019,8.707-4.158,13.264-3.562c4.558,0.596,8.89,2.928,11.908,6.852
					c1.461,1.899,2.509,4.027,3.113,6.274c0.605,2.247,0.766,4.613,0.455,6.989c-0.311,2.377-1.075,4.623-2.236,6.639
					s-2.721,3.804-4.622,5.266c-1.584,1.217-3.326,2.147-5.164,2.773C402.204,355.283,400.27,355.604,398.303,355.604z
					 M398.258,333.073c-0.487,0-0.976,0.077-1.447,0.235s-0.924,0.395-1.34,0.715c-1,0.769-1.595,1.874-1.746,3.038
					c-0.152,1.164,0.139,2.386,0.909,3.388c0.373,0.485,0.829,0.882,1.344,1.178c0.515,0.296,1.088,0.491,1.695,0.571
					c0.614,0.077,1.217,0.035,1.789-0.119s1.111-0.42,1.597-0.792c0.485-0.374,0.884-0.831,1.18-1.345
					c0.297-0.515,0.492-1.088,0.571-1.693c0.079-0.607,0.038-1.211-0.116-1.784c-0.154-0.574-0.421-1.117-0.794-1.603
					c-0.451-0.586-1.017-1.033-1.642-1.334S398.947,333.073,398.258,333.073z"/>
			</g>
			<g>
				<path fill="#ECB348" d="M928.166,660.806c-0.387,0-0.774-0.012-1.163-0.037c-0.389-0.025-0.78-0.062-1.173-0.113l0,0l0,0
					c-4.905-0.641-9.093-3.219-11.895-6.862c-2.802-3.643-4.218-8.352-3.58-13.257c0.643-4.907,3.222-9.091,6.866-11.891
					s8.353-4.216,13.257-3.584c2.376,0.31,4.621,1.074,6.638,2.235c2.017,1.161,3.805,2.721,5.267,4.621
					c1.462,1.899,2.51,4.027,3.114,6.274c0.605,2.247,0.766,4.613,0.456,6.989c-0.591,4.515-2.82,8.421-6.01,11.199
					C936.753,659.158,932.601,660.806,928.166,660.806z M927.559,647.4c1.268,0.16,2.47-0.202,3.397-0.916
					c0.926-0.714,1.577-1.781,1.74-3.033c0.08-0.607,0.039-1.211-0.115-1.784c-0.154-0.574-0.422-1.117-0.795-1.603
					c-0.372-0.485-0.828-0.882-1.343-1.178c-0.514-0.296-1.087-0.49-1.693-0.568c-1.248-0.165-2.452,0.196-3.384,0.911
					c-0.932,0.715-1.593,1.783-1.756,3.035c-0.163,1.252,0.198,2.454,0.913,3.385C925.239,646.579,926.308,647.237,927.559,647.4
					L927.559,647.4L927.559,647.4z"/>
				<path fill="#ECB348" d="M271.86,575.088c-0.386,0-0.774-0.012-1.164-0.037c-0.39-0.025-0.781-0.062-1.175-0.113
					c-4.906-0.641-9.094-3.219-11.896-6.862s-4.217-8.352-3.578-13.257c0.311-2.377,1.075-4.624,2.236-6.64
					c1.162-2.017,2.721-3.804,4.622-5.265c1.9-1.462,4.025-2.507,6.27-3.11c2.245-0.603,4.612-0.765,6.996-0.46
					c4.905,0.641,9.093,3.219,11.895,6.862c2.802,3.644,4.218,8.354,3.578,13.26c-0.59,4.513-2.818,8.419-6.008,11.196
					S276.296,575.088,271.86,575.088z M271.837,552.561c-0.503,0-0.996,0.082-1.465,0.241c-0.469,0.16-0.914,0.397-1.318,0.709
					c-0.485,0.372-0.882,0.828-1.179,1.343s-0.492,1.088-0.572,1.695c-0.163,1.252,0.199,2.453,0.914,3.383s1.785,1.587,3.038,1.75
					c1.245,0.16,2.447-0.202,3.379-0.915c0.932-0.714,1.593-1.78,1.758-3.03c0.163-1.253-0.199-2.456-0.914-3.386
					c-0.716-0.93-1.785-1.588-3.038-1.751c-0.1-0.013-0.201-0.023-0.302-0.029S271.936,552.561,271.837,552.561z"/>
			</g>
			<g>
				<path fill="#ECB348" d="M862.367,416.207c-2.694,0-5.373-0.602-7.82-1.778c-2.447-1.176-4.662-2.925-6.428-5.219
					c-3.017-3.926-4.156-8.712-3.561-13.27c0.596-4.558,2.926-8.889,6.849-11.904c1.899-1.459,4.027-2.506,6.274-3.11
					c2.247-0.605,4.614-0.767,6.99-0.457c2.377,0.31,4.622,1.074,6.638,2.235s3.804,2.72,5.265,4.621
					c3.016,3.924,4.155,8.709,3.56,13.266c-0.596,4.557-2.926,8.887-6.848,11.902l0,0l0,0c-1.627,1.252-3.402,2.18-5.248,2.796
					S864.276,416.207,862.367,416.207z M862.337,393.682c-0.503,0-0.996,0.082-1.465,0.242s-0.914,0.397-1.318,0.707
					c-1.002,0.77-1.597,1.876-1.748,3.041c-0.152,1.164,0.139,2.386,0.91,3.388c0.769,1,1.873,1.594,3.036,1.746
					s2.384-0.139,3.386-0.907c0-0.002,0-0.002,0-0.003c0,0,0.001,0,0.001,0c1.001-0.769,1.595-1.874,1.747-3.038
					c0.152-1.164-0.14-2.386-0.91-3.388c-0.372-0.485-0.828-0.882-1.342-1.178s-1.088-0.491-1.695-0.571
					c-0.101-0.013-0.202-0.023-0.302-0.029C862.537,393.686,862.437,393.682,862.337,393.682z"/>
				<path fill="#ECB348" d="M337.676,819.675c-2.694,0-5.374-0.602-7.821-1.778c-2.447-1.176-4.662-2.926-6.427-5.222
					c-3.016-3.923-4.156-8.707-3.561-13.264s2.925-8.888,6.847-11.904c3.924-3.019,8.709-4.158,13.266-3.563
					s8.887,2.927,11.904,6.849c3.015,3.923,4.155,8.707,3.56,13.264s-2.924,8.888-6.846,11.904c0,0.002,0,0.002,0,0.003
					c0,0-0.001,0-0.001,0c-1.627,1.25-3.402,2.178-5.248,2.793S339.585,819.675,337.676,819.675z M337.651,797.154
					c-0.488,0-0.977,0.078-1.449,0.235c-0.472,0.157-0.925,0.395-1.341,0.715c-1,0.769-1.595,1.874-1.746,3.038
					c-0.152,1.164,0.139,2.386,0.909,3.388c0.771,1,1.876,1.594,3.04,1.746c1.163,0.151,2.384-0.14,3.386-0.91
					c1-0.77,1.594-1.876,1.746-3.039c0.151-1.163-0.14-2.385-0.91-3.387c-0.45-0.586-1.015-1.032-1.639-1.332
					C339.022,797.307,338.338,797.154,337.651,797.154z"/>
			</g>
			<g>
				<path fill="#ECB348" d="M642.871,289.793c-0.386,0-0.774-0.012-1.164-0.037s-0.781-0.062-1.175-0.113
					c-4.907-0.641-9.095-3.219-11.896-6.862s-4.216-8.352-3.574-13.257c0.31-2.377,1.074-4.624,2.235-6.64
					c1.161-2.017,2.721-3.804,4.622-5.265c1.899-1.462,4.025-2.506,6.271-3.109c2.246-0.603,4.613-0.764,6.995-0.461
					c4.907,0.641,9.095,3.219,11.896,6.862c2.801,3.644,4.216,8.354,3.576,13.26c-0.001,0-0.001,0-0.001,0c0,0,0,0,0,0
					c-0.589,4.513-2.817,8.419-6.007,11.196C651.459,288.144,647.307,289.793,642.871,289.793z M642.85,267.266
					c-0.503,0-0.996,0.082-1.465,0.241c-0.469,0.159-0.914,0.397-1.318,0.709c-0.485,0.372-0.882,0.828-1.179,1.343
					c-0.296,0.515-0.491,1.088-0.57,1.695c-0.164,1.252,0.197,2.453,0.912,3.383c0.715,0.93,1.784,1.587,3.037,1.75
					c1.244,0.162,2.446-0.199,3.378-0.913c0.932-0.714,1.594-1.781,1.758-3.033l0,0l0,0c0.163-1.253-0.198-2.456-0.914-3.386
					c-0.715-0.93-1.784-1.588-3.037-1.751c-0.1-0.013-0.201-0.023-0.302-0.029C643.05,267.269,642.95,267.266,642.85,267.266z"/>
				<path fill="#ECB348" d="M557.179,946.105c-0.392,0-0.784-0.013-1.178-0.039c-0.394-0.026-0.789-0.064-1.184-0.115
					c-4.905-0.641-9.093-3.219-11.895-6.862c-2.802-3.644-4.218-8.354-3.578-13.26c0.641-4.905,3.217-9.087,6.86-11.886
					c3.643-2.799,8.353-4.214,13.264-3.586c2.376,0.31,4.621,1.074,6.637,2.235s3.804,2.721,5.266,4.621
					c1.461,1.899,2.509,4.026,3.114,6.273c0.605,2.246,0.767,4.612,0.457,6.99l0,0l0,0c-0.311,2.377-1.075,4.624-2.236,6.64
					c-1.162,2.017-2.721,3.804-4.622,5.265c-1.584,1.219-3.327,2.15-5.165,2.776C561.079,945.783,559.146,946.105,557.179,946.105z
					 M557.14,923.574c-1.134,0-2.194,0.421-3.009,1.13c-0.814,0.709-1.383,1.705-1.534,2.855c-0.163,1.253,0.199,2.456,0.914,3.386
					c0.716,0.93,1.785,1.588,3.038,1.751c0.604,0.078,1.208,0.038,1.782-0.116c0.574-0.154,1.119-0.421,1.604-0.794
					c0.485-0.372,0.882-0.828,1.179-1.343s0.491-1.088,0.57-1.695l0,0l0,0c0.079-0.607,0.038-1.211-0.116-1.784
					c-0.154-0.574-0.421-1.117-0.794-1.603c-0.373-0.485-0.829-0.882-1.343-1.178c-0.514-0.296-1.087-0.49-1.693-0.568
					c-0.1-0.013-0.2-0.023-0.3-0.029C557.338,923.577,557.239,923.574,557.14,923.574z"/>
			</g>
		</g>
		<g>
			<g>
				<path fill="#ECB348" d="M834.011,851.96c-2.397,0-4.722-0.467-6.872-1.359c-2.15-0.891-4.124-2.206-5.82-3.902l0,0l0,0
					c-3.499-3.498-5.249-8.094-5.249-12.69c0-4.596,1.75-9.192,5.249-12.69c3.498-3.498,8.095-5.248,12.692-5.248
					c4.597,0,9.193,1.749,12.692,5.248c3.499,3.498,5.249,8.094,5.249,12.69c0,4.596-1.75,9.192-5.249,12.69
					c-1.694,1.695-3.668,3.011-5.818,3.902C838.734,851.493,836.408,851.96,834.011,851.96z M834.011,829.433
					c-0.587,0-1.173,0.112-1.725,0.335c-0.552,0.223-1.069,0.558-1.516,1.003c-0.432,0.432-0.768,0.937-0.995,1.485
					c-0.227,0.549-0.346,1.142-0.346,1.752c0,0.612,0.119,1.206,0.346,1.755c0.227,0.549,0.563,1.053,0.995,1.486h0.001h0.001
					c0.867,0.87,2.054,1.303,3.24,1.302s2.372-0.436,3.238-1.302c0.433-0.432,0.769-0.937,0.996-1.486
					c0.227-0.549,0.347-1.143,0.347-1.755c0-0.61-0.119-1.203-0.346-1.752c-0.227-0.549-0.563-1.053-0.995-1.485
					c-0.447-0.445-0.964-0.78-1.516-1.003C835.184,829.545,834.597,829.433,834.011,829.433z"/>
				<path fill="#ECB348" d="M365.991,383.928c-2.298,0-4.597-0.437-6.758-1.312c-2.161-0.875-4.185-2.187-5.934-3.936
					c-3.499-3.498-5.249-8.095-5.249-12.692s1.75-9.193,5.249-12.692c3.498-3.497,8.095-5.245,12.691-5.245
					c4.596,0,9.192,1.748,12.691,5.245c3.499,3.498,5.249,8.095,5.249,12.692s-1.75,9.193-5.249,12.692
					c-1.749,1.749-3.773,3.061-5.934,3.936S368.288,383.928,365.991,383.928z M365.989,361.41c-0.586,0-1.172,0.111-1.724,0.334
					c-0.552,0.223-1.068,0.557-1.515,1.004c-0.893,0.894-1.34,2.067-1.34,3.241s0.447,2.346,1.34,3.241
					c0.894,0.893,2.067,1.339,3.24,1.339c1.173,0,2.346-0.446,3.24-1.339c0.893-0.894,1.34-2.067,1.34-3.241
					s-0.447-2.346-1.34-3.241c-0.447-0.447-0.964-0.782-1.516-1.004C367.163,361.521,366.576,361.41,365.989,361.41z"/>
			</g>
			<g>
				<path fill="#ECB348" d="M930.94,617.947c-4.949,0-9.436-2.013-12.686-5.263s-5.263-7.737-5.263-12.686
					c0-4.947,2.013-9.434,5.263-12.683c3.25-3.25,7.737-5.262,12.686-5.262s9.436,2.013,12.686,5.262
					c3.25,3.25,5.263,7.736,5.263,12.683c0,4.949-2.013,9.436-5.263,12.686S935.889,617.947,930.94,617.947z M930.94,595.42
					c-1.263,0-2.408,0.513-3.238,1.342c-0.83,0.829-1.344,1.974-1.344,3.237c0,1.263,0.514,2.408,1.344,3.238
					c0.83,0.83,1.975,1.344,3.238,1.344c1.263,0,2.408-0.514,3.238-1.344c0.83-0.83,1.344-1.975,1.344-3.238
					c0-1.263-0.514-2.408-1.344-3.237C933.349,595.933,932.203,595.42,930.94,595.42z"/>
				<path fill="#ECB348" d="M269.06,617.947c-4.948,0-9.435-2.013-12.686-5.263c-3.25-3.25-5.263-7.737-5.263-12.686
					c0-4.947,2.013-9.434,5.263-12.683c3.25-3.25,7.737-5.262,12.686-5.262c4.948,0,9.435,2.013,12.686,5.262
					c3.25,3.25,5.263,7.736,5.263,12.683c0,4.949-2.013,9.436-5.263,12.686S274.008,617.947,269.06,617.947z M269.06,595.42
					c-1.263,0-2.408,0.513-3.238,1.342s-1.344,1.974-1.344,3.237c0,1.263,0.514,2.408,1.344,3.238
					c0.83,0.83,1.975,1.344,3.238,1.344c1.263,0,2.408-0.514,3.238-1.344c0.83-0.83,1.344-1.975,1.344-3.238
					c0-1.263-0.514-2.408-1.344-3.237C271.468,595.933,270.323,595.42,269.06,595.42z"/>
			</g>
			<g>
				<path fill="#ECB348" d="M834.011,383.928c-2.297,0-4.595-0.437-6.756-1.312c-2.161-0.875-4.185-2.187-5.935-3.936
					c-3.499-3.498-5.249-8.095-5.249-12.692s1.75-9.193,5.249-12.692c3.498-3.498,8.095-5.248,12.692-5.248
					c4.597,0,9.193,1.749,12.692,5.248c3.499,3.498,5.249,8.095,5.249,12.692s-1.75,9.193-5.249,12.692
					c-1.749,1.749-3.773,3.061-5.934,3.936C838.607,383.491,836.309,383.928,834.011,383.928z M834.011,361.41
					c-0.587,0-1.173,0.112-1.725,0.335c-0.552,0.223-1.069,0.558-1.516,1.003c-0.893,0.894-1.34,2.067-1.34,3.241
					s0.447,2.346,1.34,3.241c0.894,0.891,2.067,1.338,3.241,1.339s2.346-0.445,3.241-1.339c0.893-0.894,1.34-2.067,1.34-3.241
					s-0.447-2.346-1.34-3.241c-0.447-0.445-0.964-0.78-1.516-1.003C835.184,361.522,834.597,361.41,834.011,361.41z"/>
				<path fill="#ECB348" d="M365.989,851.96c-2.397,0-4.723-0.467-6.873-1.359c-2.15-0.891-4.124-2.206-5.819-3.902
					c-3.498-3.498-5.248-8.094-5.247-12.69c0-4.596,1.75-9.192,5.249-12.69c3.498-3.498,8.095-5.248,12.691-5.248
					c4.596,0,9.192,1.749,12.691,5.248c3.498,3.498,5.248,8.093,5.248,12.689c0,4.595-1.748,9.191-5.247,12.691l0,0l0,0c0,0,0,0,0,0
					c0,0-0.001,0-0.001,0l0,0l0,0c-1.695,1.695-3.669,3.011-5.818,3.902C370.713,851.493,368.387,851.96,365.989,851.96z
					 M365.989,829.433c-0.586,0-1.172,0.111-1.724,0.334s-1.068,0.557-1.515,1.004c-0.893,0.893-1.339,2.066-1.339,3.239
					s0.446,2.346,1.339,3.239c0.869,0.87,2.056,1.303,3.241,1.302c1.186-0.001,2.371-0.436,3.237-1.302h0h0.001
					c0.432-0.432,0.768-0.937,0.995-1.486c0.227-0.549,0.346-1.143,0.346-1.755c0-0.61-0.119-1.203-0.346-1.752
					c-0.227-0.549-0.563-1.053-0.995-1.485c-0.447-0.447-0.964-0.782-1.516-1.004S366.576,829.433,365.989,829.433z"/>
			</g>
			<g>
				<path fill="#ECB348" d="M600.001,287.006c-4.948,0-9.435-2.013-12.686-5.262s-5.263-7.736-5.263-12.683
					c0-4.949,2.013-9.436,5.263-12.686c3.25-3.25,7.737-5.263,12.686-5.263c4.948,0,9.435,2.013,12.685,5.263
					c3.25,3.25,5.263,7.737,5.263,12.686c0,4.947-2.013,9.434-5.263,12.683C609.436,284.994,604.949,287.006,600.001,287.006z
					 M600.001,264.479c-1.263,0-2.408,0.514-3.238,1.344c-0.83,0.83-1.344,1.975-1.344,3.238s0.514,2.408,1.344,3.237
					c0.83,0.829,1.975,1.342,3.238,1.342c1.263,0,2.408-0.513,3.237-1.342s1.343-1.974,1.343-3.237s-0.514-2.408-1.343-3.238
					C602.409,264.993,601.264,264.479,600.001,264.479z"/>
				<path fill="#ECB348" d="M600.001,948.889c-4.948,0-9.435-2.013-12.686-5.263s-5.263-7.737-5.263-12.686
					s2.013-9.436,5.263-12.686s7.737-5.263,12.686-5.263c4.948,0,9.435,2.013,12.685,5.263c3.25,3.25,5.263,7.737,5.263,12.686
					s-2.013,9.436-5.263,12.686C609.436,946.876,604.949,948.889,600.001,948.889z M600.001,926.358
					c-1.263,0-2.408,0.514-3.238,1.344c-0.83,0.83-1.344,1.975-1.344,3.238s0.514,2.408,1.344,3.238
					c0.83,0.83,1.975,1.344,3.238,1.344c1.263,0,2.408-0.514,3.237-1.344c0.829-0.83,1.343-1.975,1.343-3.238
					s-0.514-2.408-1.343-3.238C602.409,926.872,601.264,926.358,600.001,926.358z"/>
			</g>
		</g>
	</g>
	<path fill="#CE963F" d="M584.752,497.052c16.953,0.229,24.74-20.561,26.302-42.585S607.951,409.182,600,404.47
		s-23.311,18.278-30.909,42.523C561.492,471.239,561.656,496.74,584.752,497.052z"/>
	<path fill="#CE963F" d="M582.052,548.241c5.966,0.894,11.214-8.023,12.347-17.399c1.133-9.376-1.85-19.212-12.347-20.154
		c-10.496-0.943-16.768,7.506-17.279,16.66C564.261,536.501,569.509,546.361,582.052,548.241z"/>
</g>
</svg>
