<?xml version="1.0" encoding="utf-8"?>
<!-- Generator: Adobe Illustrator 22.1.0, SVG Export Plug-In . SVG Version: 6.00 Build 0)  -->
<svg version="1.1" id="Layer_1" xmlns="http://www.w3.org/2000/svg" xmlns:xlink="http://www.w3.org/1999/xlink" x="0px" y="0px"
	 viewBox="0 0 1200 1200" style="enable-background:new 0 0 1200 1200;" xml:space="preserve">
<style type="text/css">
	.st0{fill:#FFFF2E;}
	.st1{fill:#0BAECF;}
	.st2{opacity:0.2;}
	.st3{fill:#212020;}
	.st4{fill:#FCFAB6;}
	.st5{fill:#24DAE8;}
	.st6{fill:#898500;}
	.st7{fill:#D1CB00;}
	.st8{fill:#FFFFFF;}
	.st9{opacity:0.24;}
</style>
<g>
	<g>
		<g>
			<polygon class="st0" points="600,377.2 367.4,377.2 211.7,576.1 464.6,576.1 			"/>
			<polygon class="st0" points="600,377.2 832.6,377.2 988.3,576.1 735.4,576.1 			"/>
		</g>
		<g>
			<polygon class="st1" points="599.7,989.6 464.6,576.1 211.7,576.1 599,989.6 			"/>
		</g>
		<g>
			<g class="st2">
				<polygon class="st3" points="600,377.2 735.4,576.1 765,576.1 629.6,377.2 				"/>
			</g>
			<g class="st2">
				<polygon class="st3" points="600,377.2 464.6,576.1 435,576.1 570.4,377.2 				"/>
			</g>
		</g>
		<g>
			<polygon class="st4" points="600,377.2 464.6,576.1 600,576.1 735.4,576.1 			"/>
		</g>
		<g>
			<polygon class="st1" points="601,989.6 988.3,576.1 735.4,576.1 600.3,989.6 			"/>
		</g>
		<g>
			<polygon class="st5" points="600.3,989.6 735.4,576.1 464.6,576.1 599.7,989.6 			"/>
			<polygon class="st6" points="599.7,989.6 464.6,576.1 211.7,576.1 599,989.6 			"/>
			<g class="st2">
				<polygon class="st3" points="599.7,989.6 464.6,576.1 435,576.1 599,989.6 				"/>
			</g>
			<polygon class="st7" points="601,989.6 988.3,576.1 735.4,576.1 600.3,989.6 			"/>
			<g class="st2">
				<polyline class="st3" points="734.9,576.1 764.5,576.1 600.5,989.6 				"/>
			</g>
			<polygon class="st0" points="600.3,989.6 735.4,576.1 464.6,576.1 599.7,989.6 			"/>
			<g class="st2">
				<polygon class="st3" points="468.8,588.6 464.6,576.1 211.7,576.1 223.5,588.6 				"/>
			</g>
			<g class="st2">
				<polygon class="st3" points="976.5,588.6 988.3,576.1 735.4,576.1 731.2,588.6 				"/>
			</g>
			<g class="st2">
				<polygon class="st3" points="731.2,588.6 735.4,576.1 464.6,576.1 468.8,588.6 				"/>
			</g>
		</g>
	</g>
	<g>
		<g>
			<path class="st8" d="M128,519.8c-1.3,0-2.7-0.5-3.7-1.5l-72.7-72.7c-2.1-2.1-2.1-5.4,0-7.5s5.4-2.1,7.5,0l72.7,72.7
				c2.1,2.1,2.1,5.4,0,7.5C130.7,519.3,129.3,519.8,128,519.8z"/>
		</g>
		<g>
			<path class="st8" d="M345.1,334.3c-2,0-3.8-1.1-4.7-3l-45.1-92.4c-1.3-2.6-0.2-5.8,2.4-7.1c2.6-1.3,5.8-0.2,7.1,2.4l45.1,92.4
				c1.3,2.6,0.2,5.8-2.4,7.1C346.6,334.2,345.8,334.3,345.1,334.3z"/>
		</g>
		<g>
			<path class="st8" d="M600.8,323.8c-2.9,0-5.3-2.4-5.3-5.3V215.7c0-2.9,2.4-5.3,5.3-5.3s5.3,2.4,5.3,5.3v102.8
				C606.1,321.4,603.7,323.8,600.8,323.8z"/>
		</g>
		<g>
			<path class="st8" d="M1072,519.8c-1.3,0-2.7-0.5-3.7-1.5c-2.1-2.1-2.1-5.4,0-7.5l72.7-72.7c2.1-2.1,5.4-2.1,7.5,0
				c2.1,2.1,2.1,5.4,0,7.5l-72.7,72.7C1074.7,519.3,1073.4,519.8,1072,519.8z"/>
		</g>
		<g>
			<path class="st8" d="M854.9,334.3c-0.8,0-1.6-0.2-2.3-0.5c-2.6-1.3-3.7-4.4-2.4-7.1l45.1-92.4c1.3-2.6,4.5-3.7,7.1-2.4
				c2.6,1.3,3.7,4.4,2.4,7.1l-45.1,92.4C858.8,333.2,856.9,334.3,854.9,334.3z"/>
		</g>
	</g>
	<g class="st9">
		<polygon class="st8" points="320,523.3 393.1,430 500.3,430 436.7,523.3 		"/>
	</g>
	<g class="st9">
		<polygon class="st8" points="333.4,628.8 426.4,628.8 476.1,781.2 		"/>
	</g>
	<g class="st9">
		<polygon class="st8" points="763.3,523.3 699.7,430 806.9,430 880,523.3 		"/>
	</g>
	<g class="st9">
		<polygon class="st8" points="564.4,523.3 600,471 635.6,523.3 		"/>
	</g>
	<g class="st9">
		<polygon class="st8" points="773.6,628.8 866.6,628.8 723.9,781.2 		"/>
	</g>
	<g class="st9">
		<polygon class="st8" points="537.4,628.8 662.6,628.8 600,820.6 		"/>
	</g>
</g>
</svg>
