<?xml version="1.0" encoding="utf-8"?>
<!-- Generator: Adobe Illustrator 22.1.0, SVG Export Plug-In . SVG Version: 6.00 Build 0)  -->
<svg version="1.1" width="777" height="612" id="Layer_1" xmlns="http://www.w3.org/2000/svg" xmlns:xlink="http://www.w3.org/1999/xlink" x="0px" y="0px"
	 viewBox="0 0 776.6 612.4" style="enable-background:new 0 0 776.6 612.4;" xml:space="preserve">
<style type="text/css">
	.st0{fill:#FFFF2E;}
	.st1{fill:#0BAECF;}
	.st2{opacity:0.2;}
	.st3{fill:#212020;}
	.st4{fill:#FCFAB6;}
	.st5{fill:#24DAE8;}
	.st6{fill:#898500;}
	.st7{fill:#D1CB00;}
	.st8{fill:#FFFFFF;}
	.st9{opacity:0.24;}
</style>
<g>
	<g>
		<g>
			<polygon class="st0" points="388.3,0 155.7,0 0,198.9 252.9,198.9 			"/>
			<polygon class="st0" points="388.3,0 620.9,0 776.6,198.9 523.7,198.9 			"/>
		</g>
		<g>
			<polygon class="st1" points="388,612.4 252.9,198.9 0,198.9 387.3,612.4 			"/>
		</g>
		<g>
			<g class="st2">
				<polygon class="st3" points="388.3,0 523.7,198.9 553.3,198.9 417.9,0 				"/>
			</g>
			<g class="st2">
				<polygon class="st3" points="388.3,0 252.9,198.9 223.3,198.9 358.7,0 				"/>
			</g>
		</g>
		<g>
			<polygon class="st4" points="388.3,0 252.9,198.9 388.3,198.9 523.7,198.9 			"/>
		</g>
		<g>
			<polygon class="st1" points="389.3,612.4 776.6,198.9 523.7,198.9 388.6,612.4 			"/>
		</g>
		<g>
			<polygon class="st5" points="388.6,612.4 523.7,198.9 252.9,198.9 388,612.4 			"/>
			<polygon class="st6" points="388,612.4 252.9,198.9 0,198.9 387.3,612.4 			"/>
			<g class="st2">
				<polygon class="st3" points="388,612.4 252.9,198.9 223.3,198.9 387.3,612.4 				"/>
			</g>
			<polygon class="st7" points="389.3,612.4 776.6,198.9 523.7,198.9 388.6,612.4 			"/>
			<g class="st2">
				<polyline class="st3" points="523.2,198.9 552.8,198.9 388.8,612.4 				"/>
			</g>
			<polygon class="st0" points="388.6,612.4 523.7,198.9 252.9,198.9 388,612.4 			"/>
			<g class="st2">
				<polygon class="st3" points="257.1,211.4 252.9,198.9 0,198.9 11.8,211.4 				"/>
			</g>
			<g class="st2">
				<polygon class="st3" points="764.8,211.4 776.6,198.9 523.7,198.9 519.5,211.4 				"/>
			</g>
			<g class="st2">
				<polygon class="st3" points="519.5,211.4 523.7,198.9 252.9,198.9 257.1,211.4 				"/>
			</g>
		</g>
	</g>
	<g>
		<g>
			<path class="st8" d="M-83.7,142.6c-1.3,0-2.7-0.5-3.7-1.5l-72.7-72.7c-2.1-2.1-2.1-5.4,0-7.5s5.4-2.1,7.5,0l72.7,72.7
				c2.1,2.1,2.1,5.4,0,7.5C-81,142.1-82.4,142.6-83.7,142.6z"/>
		</g>
		<g>
			<path class="st8" d="M133.4-42.9c-2,0-3.8-1.1-4.7-3l-45.1-92.4c-1.3-2.6-0.2-5.8,2.4-7.1s5.8-0.2,7.1,2.4l45.1,92.4
				c1.3,2.6,0.2,5.8-2.4,7.1C134.9-43,134.1-42.9,133.4-42.9z"/>
		</g>
		<g>
			<path class="st8" d="M389.1-53.4c-2.9,0-5.3-2.4-5.3-5.3v-102.8c0-2.9,2.4-5.3,5.3-5.3s5.3,2.4,5.3,5.3v102.8
				C394.4-55.8,392-53.4,389.1-53.4z"/>
		</g>
		<g>
			<path class="st8" d="M860.3,142.6c-1.3,0-2.7-0.5-3.7-1.5c-2.1-2.1-2.1-5.4,0-7.5l72.7-72.7c2.1-2.1,5.4-2.1,7.5,0s2.1,5.4,0,7.5
				l-72.7,72.7C863,142.1,861.7,142.6,860.3,142.6z"/>
		</g>
		<g>
			<path class="st8" d="M643.2-42.9c-0.8,0-1.6-0.2-2.3-0.5c-2.6-1.3-3.7-4.4-2.4-7.1l45.1-92.4c1.3-2.6,4.5-3.7,7.1-2.4
				s3.7,4.4,2.4,7.1L648-45.8C647.1-44,645.2-42.9,643.2-42.9z"/>
		</g>
	</g>
	<g class="st9">
		<polygon class="st8" points="108.3,146.1 181.4,52.8 288.6,52.8 225,146.1 		"/>
	</g>
	<g class="st9">
		<polygon class="st8" points="121.7,251.6 214.7,251.6 264.4,404 		"/>
	</g>
	<g class="st9">
		<polygon class="st8" points="551.6,146.1 488,52.8 595.2,52.8 668.3,146.1 		"/>
	</g>
	<g class="st9">
		<polygon class="st8" points="352.7,146.1 388.3,93.8 423.9,146.1 		"/>
	</g>
	<g class="st9">
		<polygon class="st8" points="561.9,251.6 654.9,251.6 512.2,404 		"/>
	</g>
	<g class="st9">
		<polygon class="st8" points="325.7,251.6 450.9,251.6 388.3,443.4 		"/>
	</g>
</g>
</svg>
