<?xml version="1.0" encoding="utf-8"?>
<!-- Designed by Vexels.com - 2018 All Rights Reserved - https://vexels.com/terms-and-conditions/  -->
<svg version="1.1" id="Layer_1" xmlns="http://www.w3.org/2000/svg" xmlns:xlink="http://www.w3.org/1999/xlink" x="0px" y="0px"
	 viewBox="0 0 1200 1200" enable-background="new 0 0 1200 1200" xml:space="preserve" width="1200px" height="1200px">
<g>
	<g>
		<g>
			<polygon fill="#24DAE8" points="600.002,377.23 367.416,377.23 211.733,576.053 464.645,576.053 			"/>
			<polygon fill="#24DAE8" points="600.002,377.23 832.587,377.23 988.27,576.053 735.358,576.053 			"/>
		</g>
		<g>
			<polygon fill="#0BAECF" points="599.658,989.564 464.646,576.053 211.734,576.053 599.016,989.564 			"/>
		</g>
		<g>
			<g opacity="0.2">
				<polygon fill="#212020" points="600.001,377.23 735.358,576.053 765.002,576.053 629.646,377.23 				"/>
			</g>
			<g opacity="0.2">
				<polygon fill="#212020" points="600,377.23 464.643,576.053 434.999,576.053 570.356,377.23 				"/>
			</g>
		</g>
		<g>
			<polygon fill="#BFE8EC" points="600.002,377.23 464.646,576.053 600.002,576.053 735.358,576.053 			"/>
		</g>
		<g>
			<polygon fill="#0BAECF" points="600.988,989.564 988.27,576.053 735.358,576.053 600.345,989.564 			"/>
		</g>
		<g>
			<polygon fill="#24DAE8" points="600.345,989.564 735.358,576.053 464.646,576.053 599.658,989.564 			"/>
			<polygon fill="#0BAECF" points="599.658,989.564 464.646,576.053 211.734,576.053 599.016,989.564 			"/>
			<g opacity="0.2">
				<polygon fill="#212020" points="599.658,989.564 464.646,576.053 434.999,576.053 599.016,989.564 				"/>
			</g>
			<polygon fill="#0BAECF" points="600.988,989.564 988.27,576.053 735.358,576.053 600.345,989.564 			"/>
			<g opacity="0.2">
				<polyline fill="#212020" points="734.864,576.053 764.511,576.053 600.493,989.564 				"/>
			</g>
			<polygon fill="#24DAE8" points="600.345,989.564 735.358,576.053 464.646,576.053 599.658,989.564 			"/>
			<g opacity="0.2">
				<polygon fill="#212020" points="468.754,588.635 464.646,576.053 211.734,576.053 223.519,588.635 				"/>
			</g>
			<g opacity="0.2">
				<polygon fill="#212020" points="976.487,588.635 988.27,576.053 735.358,576.053 731.249,588.635 				"/>
			</g>
			<g opacity="0.2">
				<polygon fill="#212020" points="731.249,588.635 735.358,576.053 464.646,576.053 468.754,588.635 				"/>
			</g>
		</g>
	</g>
	<g>
		<g>
			<path fill="#FFFFFF" d="M127.997,519.808c-1.349,0-2.699-0.515-3.73-1.546L51.545,445.54c-2.061-2.061-2.061-5.399,0-7.46
				c2.061-2.061,5.399-2.061,7.46,0l72.722,72.722c2.061,2.061,2.061,5.399,0,7.459
				C130.697,519.292,129.347,519.808,127.997,519.808z"/>
		</g>
		<g>
			<path fill="#FFFFFF" d="M345.071,334.324c-1.952,0-3.833-1.087-4.745-2.962l-45.114-92.417c-1.278-2.617-0.19-5.775,2.427-7.053
				c2.617-1.282,5.785-0.19,7.053,2.427l45.113,92.417c1.278,2.617,0.191,5.775-2.426,7.053
				C346.637,334.154,345.844,334.324,345.071,334.324z"/>
		</g>
		<g>
			<path fill="#FFFFFF" d="M600.819,323.774c-2.916,0-5.275-2.359-5.275-5.275V215.711c0-2.916,2.359-5.275,5.275-5.275
				c2.916,0,5.275,2.359,5.275,5.275v102.787C606.095,321.414,603.735,323.774,600.819,323.774z"/>
		</g>
		<g>
			<path fill="#FFFFFF" d="M1072.008,519.808c-1.349,0-2.699-0.515-3.73-1.546c-2.061-2.061-2.061-5.399,0-7.459l72.717-72.722
				c2.061-2.061,5.399-2.061,7.459,0c2.061,2.061,2.061,5.399,0,7.46l-72.716,72.722
				C1074.707,519.292,1073.358,519.808,1072.008,519.808z"/>
		</g>
		<g>
			<path fill="#FFFFFF" d="M854.929,334.324c-0.778,0-1.566-0.17-2.308-0.535c-2.617-1.278-3.704-4.436-2.426-7.053l45.119-92.417
				c1.278-2.617,4.451-3.709,7.053-2.427c2.617,1.278,3.704,4.436,2.427,7.053l-45.119,92.417
				C858.762,333.238,856.881,334.324,854.929,334.324z"/>
		</g>
	</g>
	<g opacity="0.24">
		<polygon fill="#FFFFFF" points="320.039,523.301 393.111,429.982 500.267,429.982 436.736,523.301 		"/>
	</g>
	<g opacity="0.24">
		<polygon fill="#FFFFFF" points="333.418,628.808 426.371,628.808 476.121,781.176 		"/>
	</g>
	<g opacity="0.24">
		<polygon fill="#FFFFFF" points="763.259,523.301 699.733,429.982 806.889,429.982 879.961,523.301 		"/>
	</g>
	<g opacity="0.24">
		<polygon fill="#FFFFFF" points="564.376,523.301 600,470.969 635.624,523.301 		"/>
	</g>
	<g opacity="0.24">
		<polygon fill="#FFFFFF" points="773.629,628.808 866.582,628.808 723.879,781.176 		"/>
	</g>
	<g opacity="0.24">
		<polygon fill="#FFFFFF" points="537.36,628.808 662.64,628.808 600,820.649 		"/>
	</g>
</g>
</svg>
