<?xml version="1.0" encoding="utf-8"?>
<!-- Designed by Vexels.com - 2018 All Rights Reserved - https://vexels.com/terms-and-conditions/  -->
<svg version="1.1" id="Layer_1" xmlns="http://www.w3.org/2000/svg" xmlns:xlink="http://www.w3.org/1999/xlink" x="0px" y="0px"
	 viewBox="0 0 1200 1200" enable-background="new 0 0 1200 1200" xml:space="preserve" width="1200px" height="1200px">
<g>
	<path fill="#97CCC7" d="M376.624,81.814c0,0,226.696,7.478,421.346,15.946L591.067,261.283L376.624,81.814z"/>
	<path fill="#A2E0DC" d="M966.816,382.702c-7.066-41.875-31.66-100.55-77.708-128.086c-26.338-15.756-56.336-18.656-86.715-8.401
		c-23.844,8.051-44.238,26.558-54.559,49.505c-10.329,22.947-10.646,50.495-0.85,73.686l6.266,14.832l9.27-13.168
		c2.373-3.383,4.633-6.896,6.824-10.479c13.449-22,28.235-47.812,51.608-60.612c28.525-15.621,55.992,4.234,71.423,28.641
		c18.997,30.048,29.951,69.461,29.408,104.957c-0.834,54.547-16.418,108.041-31.496,159.773
		c-5.905,20.253-12.011,41.204-17.175,61.999c-0.629,2.538-2.551,10.266,3.37,14.787c4.918,3.736,10.214,1.836,14.333-0.291
		c0.229,15.449,2.962,30.568,5.626,45.25c2.446,13.479,4.752,26.216,5.27,39.153c0,0,17.848-0.708,17.848-0.76
		c-0.699-17.621,2.344-37.152,5.292-56.045c1.102-7.048,2.187-13.991,3.062-20.725c3.177-24.494,8.063-48.987,15.385-77.073
		C962.527,525.825,978.79,453.689,966.816,382.702z"/>
	<g opacity="0.5">
		<path fill="#A2E0DC" d="M966.816,382.702c-7.065-41.875-31.659-100.55-77.707-128.086c-26.338-15.757-56.337-18.656-86.716-8.401
			c-17.823,6.018-33.711,17.883-44.912,33.073c8.607-7.106,18.382-12.785,28.903-16.337c30.379-10.255,60.377-7.355,86.715,8.401
			c46.049,27.537,70.641,86.211,77.708,128.086c11.975,70.987-4.29,143.122-23.52,216.94c-7.322,28.086-12.208,52.58-15.384,77.073
			c-0.876,6.734-1.96,13.678-3.061,20.726c-2.078,13.318-4.136,26.924-4.966,39.983c4.693-0.188,15.683-0.633,15.682-0.674
			c-0.698-17.621,2.346-37.152,5.292-56.045c1.102-7.048,2.187-13.991,3.061-20.726c3.177-24.494,8.064-48.987,15.386-77.073
			C962.528,525.825,978.791,453.689,966.816,382.702z"/>
	</g>
	<path fill="#A2E0DC" d="M238.197,72.223c0.097,0.04,11.832-9.592,12.769-10.152c13.12-7.835,28.642-11.156,43.759-11.894
		c72.25-3.525,128.164,46.599,194.851,63.726c65.77,16.892,134.704,22.641,202.11,13.103c36.493-5.164,72.338-14.854,106.284-29.246
		c-14.164,34.141-24.236,70.566-31.55,106.723c-21.307,105.334,6.003,213.703,61.131,304.431
		c48.73,80.197,87.228,165.474,101.997,258.951c17.535,110.982-3.657,225.479-78.383,312.143c0,0-195.465,150.66-493.731,9.897
		c-32.241-15.216-63.473-58.241-81.625-86.575c-86.769-135.438-38.598-302.752,30.55-434.377
		c50.639-96.392,91.841-216.711,58.314-325.469C364.674,243.485,327.137,108.734,238.197,72.223z"/>
	<g>
		<path fill="#FFFFFF" d="M855.595,640.832c-4.41-10.494-29.393-22.048-38.629-27.326c-59.613-34.07-131.379-49.387-198.494-32.009
			c-70.121,18.156-134.695,52.268-208.324,27.799c-23.483-7.804-45.015-25.357-63.033-42.055c-3.024,6.088,0,0-9.273,18.328
			c-57.34,113.337-112.582,272.847-32.09,398.487c24.523,38.279,48.868,65.079,66.791,73.539
			c79.62,37.578,158.751,56.645,235.211,56.676c123.68,0.051,203.859-50.469,218.885-60.756
			c60.648-72.362,84.599-171.632,67.467-280.071C887.174,729.563,874.574,686.004,855.595,640.832z"/>
	</g>
	<path opacity="0.53" fill="#FFFFFF" d="M387.552,1053.868c-86.764-149.126-38.586-333.354,30.569-478.288
		c50.642-106.138,91.85-238.622,58.327-358.372c0,0-19.197-75.828-62.636-133.755c-34.09-16.209-68.175-32.003-106.653-33.326
		c65.219,55.962,93.361,167.05,93.361,167.05c33.523,119.75-7.685,252.234-58.327,358.372
		c-68.297,143.136-116.042,324.574-33.643,472.699c14.793,17.493,31.685,33.54,48.884,41.657
		c26.687,12.594,52.512,22.768,77.488,31.013C415.916,1100.036,399.088,1073.696,387.552,1053.868z"/>
	<g opacity="0.5">
		<path fill="#A2E0DC" d="M929.548,767.965c-14.769-93.477-53.267-178.754-101.998-258.951
			c-55.127-90.728-82.437-199.097-61.131-304.431c7.314-36.157,17.386-72.583,31.55-106.724
			c-29.745,12.611-60.987,21.398-92.806,26.907c-8.993,26.052-15.95,52.987-21.372,79.783
			c-21.306,105.334,6.004,213.703,61.131,304.431c48.731,80.197,87.229,165.474,101.998,258.951
			c17.534,110.982-3.658,225.479-78.384,312.143c0,0-74.688,57.45-202.065,68.208c177.154,14.556,284.693-68.174,284.693-68.174
			C925.89,993.444,947.083,878.947,929.548,767.965z"/>
	</g>
</g>
</svg>
