<?xml version="1.0" encoding="utf-8"?>
<!-- Generator: Adobe Illustrator 22.1.0, SVG Export Plug-In . SVG Version: 6.00 Build 0)  -->
<svg version="1.1" id="Layer_1" width="100px" height="92px" xmlns="http://www.w3.org/2000/svg" xmlns:xlink="http://www.w3.org/1999/xlink" x="0px" y="0px"
	 viewBox="0 0 100 92" style="enable-background:new 0 0 100 92;" xml:space="preserve">
<style type="text/css">
	.st0{fill:none;stroke:#979797;stroke-width:2.28;stroke-linecap:round;stroke-miterlimit:10;}
	.st1{fill:#FF7733;}
	.st2{fill:#333333;}
	.st3{fill:none;stroke:#AD00AD;stroke-width:1.85;stroke-linecap:round;stroke-miterlimit:10;}
	.st4{fill:#332E2E;}
	.st5{fill:#F9CE1D;}
	.st6{fill:#AD00AD;}
	.st7{fill:#BF8F68;}
	.st8{fill:#FFFFFF;}
	.st9{fill:#F6BE1A;}
</style>
<g id="grid">
	<path class="st0" d="M78.7,91.3V76.9 M20.2,91.3V76.9"/>
	<path class="st1" d="M8.9,77.5h79.7c-3.3-12.7-17.9-19.9-26.5-19.9H8.9V77.5z"/>
	<path class="st2" d="M8.9,77.5v5.1h80.3c0-1.6-0.2-3.5-0.6-5.1H8.9z"/>
	<path class="st0" d="M100.1,82.2L100.1,82.2c0,5.5-4.5,9.9-9.9,9.9H68.1l0,0c-5.3,0-9.9-4.5-9.9-9.9 M42,82.2L42,82.2
		c0,5.5-4.5,9.9-9.9,9.9h-22c0,0,0,0-0.2,0c-5.3,0-9.9-4.5-9.9-9.9"/>
	<path class="st1" d="M60.1,65V41.4c0,0,0,0,0.2,0C66.8,42,72,47.5,71.4,54.1v13.6"/>
	<path class="st3" d="M49,70.5C49,55.1,40.6,59.4,36,57"/>
	<path class="st4" d="M60.5,73.2c2.7,0,4.7,2.5,4.7,5.1c-0.2,2.7-2.5,4.7-5.1,4.7H47.5l0,0c-0.8,0-1.2-0.6-1-1.2V70.7h5.1v3.7l0,0
		c0,2.1,1.6,3.7,3.7,3.7l0,0C57.8,77.9,60.1,75.9,60.5,73.2C60.1,73.2,60.1,73.2,60.5,73.2z"/>
	<path class="st5" d="M51.4,75.7c0.8,0,1.2-0.6,1-1.2c0-0.8-0.6-1.2-1.2-1.2h-2.1c-0.8,0-1.2,0.6-1.2,1.2c0,0.8,0.6,1.2,1.2,1.2
		H51.4L51.4,75.7z"/>
	<ellipse class="st6" cx="37.5" cy="43.4" rx="13.6" ry="16.2"/>
	<path class="st4" d="M23.9,41.8h26.9v1.6v2.7H23.9v-2.7C23.9,43,23.9,42.4,23.9,41.8z"/>
	<path class="st5" d="M49.2,41.8h2.1v4.3h-2.1V41.8z"/>
	<path class="st3" d="M37.5,30.9l18.3,7.8"/>
	<circle class="st7" cx="59.9" cy="40.4" r="4.3"/>
	<path class="st8" d="M53.7,43.8c1,0.6,2.1,0,2.7-1l2.9-6.6V36c0.2-1-0.2-2.1-1.2-2.7c-1-0.2-2.1,0.2-2.7,1.2l-2.9,7
		C52.5,42.2,52.7,43.2,53.7,43.8z"/>
	<circle class="st7" cx="37.5" cy="17.8" r="9.7"/>
	<path class="st4" d="M41,13.5L41,13.5c-1,0-1.8,0.8-1.8,1.8s0.8,1.8,1.8,1.6c1,0,1.8-0.8,1.6-1.8C42.8,14.3,42,13.5,41,13.5z"/>
	<path class="st7" d="M47.1,17.8h3.5l-5.5-6.4L47.1,17.8z"/>
	<path class="st6" d="M40.6,8.7L24.9,3.6l3.3,14.2L40.6,8.7z"/>
	<path class="st8" d="M29.3,19.6L42,10.4c0.8-0.8,1-1.8,0.6-2.9l0,0c-0.8-0.8-1.8-1-2.9-0.6L27,16.1l0,0c-0.8,0.8-1,1.8-0.6,2.9
		c0.6,0.6,1,0.8,1.8,0.8C28.8,19.8,29.1,19.6,29.3,19.6z"/>
	<circle class="st8" cx="23.7" cy="2" r="2.1"/>
	<path class="st8" d="M45.3,23.3c-3.5,0-3.9-3.9-3.9-3.9h5.7C46.9,20.8,46.3,22.3,45.3,23.3z"/>
	<path class="st9" d="M45.9,21.3c-1.2,0.6-2.7,0-3.5-1c-0.6-0.8-0.8-1.6-0.2-2.5c0.6,0.8,1.6,1,2.5,0.6c0.6-0.2,0.8-0.8,1.2-1
		c0.6-0.2,0.8-0.2,1.2,0c0.6,0.2,0.8,0.6,0.8,1C47.9,19.6,47.1,20.8,45.9,21.3z"/>
	<path class="st7" d="M38.7,18.2L38.7,18.2c0,1.2-0.8,2.5-2.1,2.5c-0.6,0-1-0.2-1.6-0.8c-2.7-2.7-1-7.8-1-7.8l4.3,4.5
		C38.3,16.9,38.7,17.4,38.7,18.2z"/>
</g>
</svg>
