<?xml version="1.0" encoding="utf-8"?>
<!-- Generator: Adobe Illustrator 22.1.0, SVG Export Plug-In . SVG Version: 6.00 Build 0)  -->
<svg version="1.1" id="Layer_1" xmlns="http://www.w3.org/2000/svg" xmlns:xlink="http://www.w3.org/1999/xlink" x="0px" y="0px"
	 viewBox="0 0 73 67.2" style="enable-background:new 0 0 73 67.2;" xml:space="preserve">
<style type="text/css">
	.st0{fill:none;stroke:#979797;stroke-width:2.28;stroke-linecap:round;stroke-miterlimit:10;}
	.st1{fill:#FF7733;}
	.st2{fill:#333333;}
	.st3{fill:none;stroke:#AD00AD;stroke-width:1.85;stroke-linecap:round;stroke-miterlimit:10;}
	.st4{fill:#332E2E;}
	.st5{fill:#F9CE1D;}
	.st6{fill:#AD00AD;}
	.st7{fill:#BF8F68;}
	.st8{fill:#FFFFFF;}
	.st9{fill:#F6BE1A;}
</style>
<g id="grid">
	<path class="st0" d="M55.1,63.8v-10 M14.2,63.8v-10"/>
	<path class="st1" d="M6.2,54.1h55.7c-2.2-8.9-12.4-13.9-18.6-13.9H6.2C6.2,40.2,6.2,54.1,6.2,54.1z"/>
	<path class="st2" d="M6.2,54.1v3.5h56.1c0-1.1-0.2-2.4-0.4-3.5H6.2z"/>
	<path class="st0" d="M69.9,57.5L69.9,57.5c0,3.9-3.2,6.9-6.9,6.9H47.6l0,0c-3.7,0-6.9-3.2-6.9-6.9 M29.4,57.5L29.4,57.5
		c0,3.9-3.2,6.9-6.9,6.9H7.2c0,0,0,0-0.2,0c-3.7,0-6.9-3.2-6.9-6.9"/>
	<path class="st1" d="M42.1,45.4V28.9c0,0,0,0,0.2,0c4.6,0.4,8.2,4.3,7.8,8.9v9.5"/>
	<path class="st3" d="M34.3,49.3c0-10.8-5.9-7.8-9.1-9.5"/>
	<path class="st4" d="M42.3,51.1c1.9,0,3.3,1.7,3.3,3.5c-0.2,1.9-1.7,3.3-3.5,3.3h-8.7l0,0c-0.6,0-0.9-0.4-0.7-0.9v-7.8h3.5v2.6l0,0
		c0,1.5,1.1,2.6,2.6,2.6l0,0C40.4,54.5,42.1,53,42.3,51.1C42.1,51.1,42.1,51.1,42.3,51.1z"/>
	<path class="st5" d="M35.9,52.8c0.6,0,0.9-0.4,0.7-0.9c0-0.6-0.4-0.9-0.9-0.9h-1.3c-0.6,0-0.9,0.4-0.9,0.9s0.4,0.9,0.9,0.9H35.9
		L35.9,52.8z"/>
	<ellipse class="st6" cx="26.3" cy="30.4" rx="9.5" ry="11.3"/>
	<path class="st4" d="M16.8,29.2h18.8v1.1v1.9H16.8v-1.9C16.8,30,16.8,29.6,16.8,29.2z"/>
	<path class="st5" d="M34.5,29.2h1.5v3h-1.5V29.2z"/>
	<path class="st3" d="M26.3,21.6L39.1,27"/>
	<circle class="st7" cx="41.9" cy="28.1" r="3"/>
	<path class="st8" d="M37.6,30.5c0.7,0.4,1.5,0,1.9-0.7l2-4.6V25c0.2-0.7-0.2-1.5-0.9-1.9c-0.7-0.2-1.5,0.2-1.9,0.9l-2,4.8
		C36.7,29.4,36.9,30.2,37.6,30.5z"/>
	<circle class="st7" cx="26.3" cy="12.3" r="6.7"/>
	<path class="st4" d="M28.7,9.4L28.7,9.4c-0.7,0-1.3,0.6-1.3,1.3c0,0.7,0.6,1.3,1.3,1.1c0.7,0,1.3-0.6,1.1-1.3
		C30,9.9,29.4,9.4,28.7,9.4z"/>
	<path class="st7" d="M33,12.3h2.4l-3.9-4.5L33,12.3z"/>
	<path class="st6" d="M28.3,6l-11-3.5l2.2,9.8L28.3,6z"/>
	<path class="st8" d="M20.5,13.6l8.9-6.5c0.6-0.6,0.7-1.3,0.4-2l0,0c-0.6-0.6-1.3-0.7-2-0.4l-8.9,6.5l0,0c-0.6,0.6-0.7,1.3-0.4,2
		c0.4,0.4,0.7,0.6,1.3,0.6C20.2,13.8,20.3,13.6,20.5,13.6z"/>
	<circle class="st8" cx="16.6" cy="1.4" r="1.5"/>
	<path class="st8" d="M31.7,16.2c-2.4,0-2.8-2.8-2.8-2.8H33C32.8,14.6,32.4,15.5,31.7,16.2z"/>
	<path class="st9" d="M32,14.8c-0.9,0.4-1.9,0-2.4-0.7c-0.4-0.6-0.6-1.1-0.2-1.7c0.4,0.6,1.1,0.7,1.7,0.4c0.4-0.2,0.6-0.6,0.9-0.7
		c0.4-0.2,0.6-0.2,0.9,0c0.4,0.2,0.6,0.4,0.6,0.7C33.5,13.6,33,14.6,32,14.8z"/>
	<path class="st7" d="M27,12.7L27,12.7c0,0.9-0.6,1.7-1.5,1.7c-0.4,0-0.7-0.2-1.1-0.6c-1.9-1.9-0.7-5.4-0.7-5.4l3,3.2
		C26.8,11.8,27,12.2,27,12.7z"/>
</g>
</svg>
