<?xml version="1.0" encoding="utf-8"?>
<!-- Generator: Adobe Illustrator 22.1.0, SVG Export Plug-In . SVG Version: 6.00 Build 0)  -->
<svg version="1.1" id="Layer_1" xmlns="http://www.w3.org/2000/svg" xmlns:xlink="http://www.w3.org/1999/xlink" x="0px" y="0px"
	 viewBox="0 0 271 619" style="enable-background:new 0 0 271 619;" xml:space="preserve">
<style type="text/css">
	.st0{fill:#440D00;}
</style>
<path class="st0" d="M192.4,23c-1,0-1.8,0.1-2.6,0.2c-1.7,0.2-3,0.5-4.2,1c-1.1,0.4-2.2,0.9-3.6,1.7c-1.1,0.7-2.2,1.4-3.1,2.1
	c-0.5,0.4-0.9,0.7-1.3,1.1c-0.4,0.4-0.9,0.9-1.4,1.4c-3.7,4.2-6,9.4-8.3,14.4l-0.6,1.2c-0.5,1.2-1.1,2.5-1.6,3.8
	c-0.5,1.3-0.9,2.7-1.2,4.4c-0.3,1.7-0.6,3.3-0.8,5c-0.5,3-0.8,6-1,8.9l0,0.1l0,0.1l-0.4,4.6l-0.1,0.8l0,0.2l0,0.1l-0.3,2.8l-0.1,0.6
	c-0.2,2.5-0.5,5.7-0.7,8.7c-0.1,1.3-0.1,2.7-0.1,4.6c0,0.5,0,1,0,1.5l0,0.3l0,0.2c0,0.1,0,0.2,0,0.3c0,0.5,0,1,0.1,1.5l0,0.8
	c0.1,3.6,0.3,7.5,0.4,9.1l0,0.7c0.1,1.2,0.1,2.3,0.1,3.4c0,1.7,0,3.4,0,5.1l0,4.6l0,4.6l0,3.1v0.1v0.1v0.1c0,3.8,0,8.9,0.2,13.8
	l0,1.6l0,0.2l0,0.8l0,0.2c0,1,0.1,2,0.1,3c-0.1,1.5-0.1,2.9-0.2,4.4c-0.1,1.7,0,3.4,0,4.8l0,0.1l0,0.2l0,0.1l0,1.1
	c0.1,3.8,0.3,7.9,0.5,12.1c0.1,2.2,0.3,4.5,0.4,6.5l0,0.2l0,0.3l0,0.6c0.1,1.5,0.1,2.9,0.2,4.3c0.1,1.9,0.2,3.7,0.2,6.1l0,0.1l0,0.1
	l0,0.1l0,0.2c0,1.6,0.1,3.4,0.2,5.1c0.1,2.9,0.4,6,0.5,8.2l0,0.2c0.1,1.3,0.2,2.5,0.3,3.8c0.2,2.7,0.3,5.4,0.4,8
	c0.1,1.4,0.1,2.7,0.2,4.1c0.2,3.1,0.3,6.2,0.4,9.2l0,0.3l0.1,2.9c0.1,3.2,0.3,6.4,0.5,9.4l0,0.3l0.2,2.8c0.1,2.1,0.2,4.4,0.2,6.3
	l0,0.2l0,0.2l0,0.2l0,0.2c0,1.5,0.1,3,0.1,4.5c0.1,3.9,0.4,8,0.7,12.5c0.1,0.9,0.1,1.7,0.2,2.5l0,0.1l0,0.2l0,0.2l0,0.4l0,0.4
	c0.1,0.6,0.1,1.2,0.2,1.8l0,0.6c0.1,1.6,0.3,3.6,0.4,5.4c0.3,4.3,0.6,8.7,0.9,13l0.2,2.6c0.2,3.1,0.5,6.2,0.7,9.3
	c0.3,3.5,0.4,7,0.6,10.2l0,0.1l0.1,1.3l0,0.1l0,0.2c0.2,3.9,0.4,8.3,0.5,12.5l0,0.9c0.1,3.4,0.2,7.1,0.4,10.9
	c0.1,1.9,0.2,3.7,0.3,5.6c0.1,2.1,0.2,4,0.3,6c0,5.1,0,10.6,0.2,16.1l0,0.2l0.1,1.8l0,1.2l0,1.2l0,1.2c0,6.2-0.1,11.2-0.3,15.8
	c-0.1,2-0.2,4.1-0.3,5.9l0,0.4l0,0.4l0,0.6l0,0.6l0,0.6c-0.1,1.2-0.1,2.5-0.2,3.7l-0.1,1.6l0,0.1l0,0.1l0,0.2
	c-0.1,3-0.3,6.8-0.5,10.4l0,0.1l-0.1,1l-0.1,1l-0.1,1c-0.1,0.9-0.2,1.7-0.3,2.4c-0.1,0.4-0.1,0.8-0.1,1.2c-0.1,0.6-0.1,1.2-0.2,1.8
	l0,0.4c-0.1,1-0.3,2-0.4,3l-0.1,0.6l-0.1,0.6l-0.1,0.1l-0.1,0.1l-0.2,0.4c-0.2,0.4-0.5,0.8-0.7,1.2c-0.5,0.8-0.9,1.5-1.4,2.2
	c-0.5,0.6-1,1.1-1.5,1.7c-1.5,1.7-2.7,2.9-4,4c-0.1,0.1-0.2,0.2-0.3,0.2c-1.2-1.1-2.2-2.1-3-3.1c-0.6-0.8-1.2-1.7-1.7-2.6
	c-0.6-0.9-1-1.9-1.5-3.1c-0.6-1.5-1.1-2.8-1.4-4c-0.4-1.3-0.8-2.8-1.2-4.5c-0.3-1.4-0.6-2.9-0.8-4.3l0-0.2l-0.1-0.4
	c-0.2-1.4-0.5-3-0.7-4.6c-0.4-3-0.7-6.1-0.8-8.2c-0.2-3-0.5-5.9-0.9-8.8c-0.3-2.2-0.5-4.6-0.6-5.9l0-0.1l0-0.1l0-0.2l-0.2-2.1
	c-0.1-1.4-0.3-2.9-0.5-4l0-0.3c-0.1-0.9-0.2-1.8-0.3-2.8l0-0.2c0-0.4-0.1-0.9-0.1-1.3c-0.1-1.3-0.3-2.7-0.4-4l0-0.3
	c-0.1-1.3-0.2-2.5-0.4-3.8c-0.3-2.5-0.5-5.3-0.6-8.7c0-1.3-0.1-2.5-0.1-3.8l0-0.1l0-0.1l0-0.1l0-0.1l0-0.1l0-0.2
	c0-1.1-0.1-2.3-0.1-3.5c-0.1-1.3-0.1-2.5-0.2-3.8l0-0.4l0-0.4l0-0.2c-0.1-1.3-0.2-2.5-0.2-3.8c0-0.9-0.1-1.8-0.1-2.7l0-0.3l0-0.3
	l0-1c0-1.5-0.1-3-0.1-4.6c-0.1-3.5-0.2-6.3-0.4-9c-0.1-1.3-0.2-2.5-0.4-4c-0.1-1-0.2-2-0.3-3l0-0.2l0-0.2l-0.1-1.1
	c-0.1-1.2-0.2-2.5-0.3-3.7l0-0.4c-0.1-1.4-0.2-2.9-0.4-4.3c-0.1-1.5-0.4-2.9-0.6-4.1c-0.2-1.4-0.5-2.8-0.8-4.1
	c-0.2-0.9-0.5-2.1-1-3.3c-0.4-1.1-0.8-2.2-1.4-3.4c-0.7-1.4-1.5-2.7-2.5-3.8c-0.4-0.4-0.9-0.8-1.2-1l-0.4-0.3
	c-0.3-0.3-0.7-0.4-1.1-0.6c-0.6-0.3-1.1-0.4-1.7-0.5c-0.1,0-0.3,0-0.4,0c-1.7,0-3.3,0.9-4.3,2.3c-0.9,1.4-1.3,2.9-1.6,4.7
	c-0.3,2-0.4,4.1-0.5,6c0,0.5,0,1-0.1,1.5c-0.1,1.6-0.1,2.9-0.1,4.1l0,1.5l0,3.1c0.1,5.5,0.3,11.3,0.6,16.8c0.2,5,0.1,10,0,14.8
	l0,0.1l0,1.4c0,1.4-0.1,2.8-0.1,4.2c0,0.4,0,0.8,0,1.2c0,1.2-0.1,2.2-0.1,3.1l-0.1,1.4l-0.1,1.4l0,0.5l0,0.1l0,0.1
	c0,0.3,0,0.6-0.1,0.9l-0.2,1.4c-0.1,1.2-0.3,2.4-0.4,3.5c-0.3,2.2-0.7,4.2-1.2,6.1c-0.6,2.6-1.3,4.8-2.1,6.9l-0.1,0.3l-0.1,0.2
	c-0.2,0.4-0.4,0.8-0.6,1.1c-0.3-0.2-0.6-0.3-0.8-0.5c-0.3-0.2-0.5-0.5-0.8-0.7c-0.2-0.2-0.4-0.4-0.6-0.8c-0.3-0.4-0.6-0.9-0.9-1.4
	c-0.3-0.5-0.5-1-0.7-1.4c-0.5-1.4-0.9-2.9-1.3-4.4l0-0.1l-0.2-0.6c-0.2-0.9-0.5-1.8-0.7-2.7l0-0.2l-0.1-0.4l-0.1-0.4l-0.1-0.5
	l-0.1-0.5l-0.4-1.3c-0.8-2.9-1.3-5.7-1.8-8.5c-0.2-0.9-0.3-1.7-0.5-2.5c-0.4-2-0.7-4-1-6.1c-0.1-0.9-0.3-1.8-0.4-2.7
	c-0.2-1.2-0.3-2.4-0.5-3.5l-0.2-1.1l0-0.1c-0.3-1.8-0.6-3.5-0.9-5.3l0-0.2c-0.3-1.8-0.7-3.9-1-6c-0.2-1.5-0.4-3-0.6-4.5
	c-0.2-1.5-0.4-2.9-0.6-4.4l-0.1-0.4c-0.2-1.1-0.3-2.2-0.5-3.3l-0.2-1.8c-0.4-3.5-0.8-6.9-1.3-10.4l-0.2-1.4
	c-0.2-1.3-0.3-2.5-0.5-3.8c-0.1-0.4-0.1-0.8-0.2-1.2l0-0.2c-0.1-0.5-0.2-1-0.2-1.5l-0.2-1.3l-0.2-1.1c-0.3-2.5-0.6-5.2-0.9-8.3
	c-0.1-1.4-0.2-2.8-0.3-4.2c-0.1-1.2-0.2-2.7-0.3-4.2c-0.1-0.8-0.2-1.6-0.2-2.4c-0.1-0.5-0.1-1.1-0.2-1.6c-0.1-0.7-0.1-1.4-0.2-2.2
	l0-0.1l-0.1-0.6l-0.1-1l0-0.1c-0.3-3-0.5-6-0.7-8.6c-0.1-1.6-0.2-3.3-0.2-4.8l0-0.1l0-0.3c0-1.1-0.1-2.4-0.2-3.6l0-0.7
	c-0.1-1.1-0.1-2.3-0.2-3.5c-0.1-0.6-0.1-1.3-0.2-1.9l0-0.4c-0.1-0.7-0.2-1.5-0.2-2.2c-0.1-1.3-0.2-2.6-0.3-4c-0.1-1.5-0.2-3-0.2-4.3
	l0-0.3c-0.1-2.9-0.3-5.7-0.6-8.5c-0.1-0.7-0.1-1.3-0.2-2c-0.1-0.8-0.2-1.5-0.2-2.3c-0.1-1.4-0.3-2.8-0.5-4.1l0-0.3
	c-0.3-2.5-0.7-5-1.4-7.4l-0.2-0.5c-0.2-0.7-0.6-1.8-0.9-2.8c-0.3-0.8-0.6-1.6-0.9-2.4l-0.5-1.3c-0.2-0.6-0.4-1.2-0.6-1.8l-0.1-0.2
	l-0.1-0.2c-0.3-0.9-0.6-1.8-1-2.7l0.2-0.3l0.2-0.5c0.2-0.4,0.4-0.8,0.6-1.3l0-0.1l0-0.1l0.3-0.6l0.3-0.6c0.2-0.5,0.5-1,0.7-1.5
	c0.8-1.8,1.3-3.3,1.6-4.7c0.4-1.8,0.6-3.6,0.8-5.3c0-0.4,0.1-0.7,0.1-1.1c0-0.1,0-0.2,0-0.3l0-0.1c0-0.3,0.1-0.6,0.1-0.9l0-0.7
	l0-0.7c0-0.2,0-0.4,0-0.6l0-0.1l0-0.1l0-0.1c0-0.8-0.1-1.4-0.2-1.9c-0.1-0.5-0.3-1-0.6-1.3c-0.3-0.4-0.7-0.8-1.2-1.1
	c-0.3-0.2-0.7-0.3-1.1-0.3c-0.1,0-0.2,0-0.3,0c-0.3,0-0.6,0.1-0.9,0.3c-0.2,0.1-0.4,0.3-0.7,0.4c-1.1,0.8-1.9,1.9-2.6,2.8
	c-0.9,1.2-1.5,2.4-2.1,3.6l-0.3,0.7c-0.6,1.2-1.2,2.3-1.8,3.5c0.1-0.5,0.2-1.2,0.3-2.1c0.2-1.3,0.3-2.7,0.4-3.9
	c0.2-2.5,0-4.9-0.5-7.2c-0.1-0.5-0.3-0.9-0.5-1.5c-0.2-0.5-0.5-0.9-0.8-1.2c-0.4-0.5-0.9-0.8-1.3-0.9c-0.2,0-0.3-0.1-0.5-0.1
	c-0.4,0-0.9,0.1-1.5,0.4c-0.4,0.2-0.8,0.5-1.1,0.8c-0.4,0.4-0.6,0.9-0.8,1.3c-0.3,0.7-0.5,1.5-0.7,2.4c-0.6,2.5-1,5.1-1.4,7.3
	l-0.1,0.6c-0.1,0.9-0.3,1.8-0.4,2.6l0,0.3l-0.1,0.6c0,0.1,0,0.3-0.1,0.4c-0.3,0-0.6,0.1-1,0.1c-0.3,0.1-0.7,0.1-1,0.2l-0.4-1.1
	l-0.8-2.3l0-0.1c-0.5-1.5-1.1-3-1.8-4.3c-0.4-0.7-0.9-1.4-1.4-2.1l-0.4-0.6c-0.7-1.1-1.4-2-2.1-2.7c-0.3-0.3-0.7-0.6-1.3-0.9
	c-0.5-0.3-1.1-0.5-1.6-0.5c-0.1,0-0.2,0-0.2,0c-0.3,0-0.5,0-0.6,0.1l-0.2,0.1c-0.3,0.1-0.5,0.2-0.7,0.4c-0.3,0.2-0.6,0.7-0.8,1.2
	c-0.5,1.2-0.5,2.4-0.4,3.3c0.1,1.2,0.4,2.3,0.9,3.6c0.7,1.7,1.7,3.4,3.2,5.3c0.2,0.3,0.4,0.5,0.6,0.8c0.5,0.7,1.1,1.4,1.7,2.1
	l0.4,0.5l0.6,0.7c-0.3,0.3-0.5,0.6-0.7,0.9c-0.9,1.2-1.5,2.6-2,3.9c-0.5,1.2-0.8,2.6-1.1,3.6l-0.1,0.2c-0.4,1.7-0.8,3.6-1.2,5.9
	c-2.8-1.9-5.8-3.8-8.2-5.3c-0.3-0.2-0.7-0.3-1.1-0.3c-0.8,0-1.6,0.5-2,1.1c-0.6,1-0.2,2.3,0.8,3c3.1,2,5.9,3.7,8.8,5.6l0.4,0.3
	l0.4,0.3c-0.3,2.1-0.6,4.3-0.9,6.6c-0.3,2.1-0.4,4.4-0.5,7l-1.6-1.5c-0.8-0.7-1.6-1.5-2.4-2.2c-0.2-0.2-0.4-0.2-0.6-0.2
	c-0.2,0-0.4,0.1-0.5,0.2c-0.1,0.1-0.2,0.4-0.2,0.6c0,0.2,0.1,0.4,0.2,0.5c1.3,1.1,2.6,2.3,3.9,3.4l1.2,1c0,2.5,0,4.9,0.1,7.1l0,2.2
	c0.1,5.7,0.3,11.5,0.6,17.2l-0.6-0.1c-0.4-0.1-0.8-0.1-1.2-0.2c-0.7-0.1-1.3-0.3-2.1-0.5c-0.4-0.1-0.7-0.3-1.1-0.4c0-2-0.1-4-0.2-6
	c0-0.8-0.7-1.4-1.4-1.4c-0.4,0-0.8,0.2-1,0.5c-0.3,0.3-0.4,0.6-0.4,1l0.1,2.4l0.1,2.4l-0.5-0.2l-0.7-0.3c-1.5-0.7-3.3-1.6-5-2.6
	c0-0.7,0.1-1.4,0.1-2.1c0.1-2.5,0.2-5,0.3-7.5l0-1l0-1l0-0.9c0-0.2-0.1-0.4-0.2-0.6c-0.2-0.2-0.4-0.3-0.6-0.3
	c-0.5,0-0.8,0.4-0.8,0.9c-0.2,3.8-0.3,7.6-0.5,11.4c-0.7-0.6-1.3-1.1-1.8-1.7c-0.4-0.5-1-1.1-1.4-1.8c-0.5-0.8-1-1.7-1.4-2.4
	c-1-2-1.9-4-2.7-5.9c-0.6-1.4-1.2-2.9-1.7-4.3l-0.2-0.6c0.2-0.7,0.4-1.4,0.6-2.1l0.3-1c0.6-2,1.2-4,1.8-6c0.1-0.2,0-0.4-0.1-0.6
	c-0.1-0.2-0.3-0.4-0.5-0.4c-0.1,0-0.1,0-0.2,0c-0.4,0-0.7,0.3-0.8,0.6c-0.7,2.3-1.3,4.6-2,6.9c-0.7-1.9-1.2-3.5-1.7-5
	c-0.4-1.4-0.9-2.9-1.5-4.8l-0.5-1.6c-0.9-2.9-1.8-5.7-2.5-7.9c0.2-0.8,0.4-1.6,0.6-2.4c0.9-3.7,1.8-7.5,2.8-11.2
	c0.1-0.6-0.2-1.1-0.8-1.3c-0.1,0-0.1,0-0.3,0c-0.5,0-0.9,0.3-1,0.8l0,0.1c-0.8,3.5-1.7,7-2.5,10.4l-0.6-1.9c-0.3-1-0.7-2.1-1-3.1
	c-0.4-1.1-0.8-2.1-1.3-3.3c-0.2-0.4-0.3-0.8-0.5-1.1l-0.1-0.1l-0.2-0.4c-0.6-1.3-1.2-2.4-1.9-3.4c-0.3-0.5-0.7-0.9-1.1-1.3
	c0.1-1.2,0.3-2.4,0.4-3.6l0-0.2l0-0.3l0.1-0.5l0.1-0.9l0-0.1c0.2-1.2,0.4-2.4,0.6-3.6c0.2-1-0.4-1.9-1.3-2.2c-0.1,0-0.3-0.1-0.4-0.1
	c-0.9,0-1.6,0.6-1.8,1.3c-0.2,1.2-0.4,2.4-0.6,3.7l-0.1,0.9c-0.1,0.4-0.1,0.8-0.1,1.2l0,0.1l0,0.5c-0.1,0.8-0.2,1.5-0.2,2.3
	c-0.3-0.1-0.7-0.1-1-0.1c-0.1,0-0.2,0-0.3,0c-0.8,0-1.6,0.2-2.6,0.7c-1.1,0.5-2,1.2-2.8,2.2l-1.2-2.2l-1.2-2.2
	c-0.2-0.4-0.6-0.6-1-0.6c-0.2,0-0.4,0.1-0.6,0.2c-0.6,0.3-0.7,1-0.4,1.6l0.5,1c0.8,1.5,1.6,3,2.5,4.5c-0.2,0.3-0.3,0.7-0.5,1
	c-0.3,0.6-0.5,1.2-0.6,1.7c-0.4,1.3-0.6,2.5-0.7,3.5c-0.2,2.4,0,4.7,0.2,7.3l0.1,1.2l-2-0.9l-0.1,0c-0.9-0.4-1.8-0.8-2.7-1.2
	c-0.4-0.2-0.7-0.2-1-0.2c-0.2,0-0.3,0-0.5,0.1c-0.5,0.1-0.9,0.4-1.1,0.9c-0.2,0.4-0.3,1-0.2,1.4c0.1,0.4,0.4,0.9,0.9,1.1
	c2.7,1.2,4.9,2.1,7,2.9c0.3,2.9,0.5,5.8,0.9,9c0.3,2.5,0.6,5.1,0.8,7.4c-1-0.3-2.1-0.6-3.1-0.9l-2.4-0.7c-0.1,0-0.2,0-0.3,0
	c-0.6,0-1.1,0.4-1.3,1c-0.2,0.7,0.2,1.4,0.9,1.6c2.2,0.6,4.3,1.2,6.5,1.9c0.2,0.9,0.3,1.9,0.5,2.7l0.2,1.3c0.5,2.8,1.2,5.7,2.2,9.1
	c0,0,0,0-0.1,0c-0.1,0-0.3,0-0.4,0c-1.9,0.2-3.9,0.3-6.4,0.5c-1.1,0.1-2,1-2,2.1c0,1.1,0.9,2,1.9,2c0,0,0.1,0,0.1,0l0.1,0l0.1,0
	c2.5-0.2,5-0.3,7.5-0.7l0.1,0l0.1,0l0.2,0.6l0.2,0.6c0.3,1,0.6,1.9,1,2.9c0.1,0.3,0.2,0.5,0.3,0.8l0.1,0.3c0.2,0.7,0.5,1.5,0.8,2.2
	l0.7,1.8l0.7,1.8c0.1,0.2,0.2,0.4,0.3,0.6c-1.3,0.3-2.6,0.6-3.9,1l-0.1,0l-0.3,0.1l-1.6,0.4c-0.2,0.1-0.4,0.2-0.6,0.4
	c-0.1,0.2-0.2,0.5-0.1,0.7c0.1,0.4,0.5,0.7,0.9,0.7c0.1,0,0.2,0,0.3,0l1-0.3l1-0.3c1-0.3,2.1-0.5,3.1-0.8c0.4-0.1,0.8-0.2,1.3-0.3
	c0.1,0.2,0.2,0.5,0.3,0.7l0.7,1.4l0.1,0.1c0.9,1.8,1.8,3.5,2.7,5.2l0.6,1l0,0.1c0.9,1.7,1.9,3.4,3,5.1c0.7,1.1,1.6,2.4,2.5,3.8
	c-0.2,0.2-0.5,0.4-0.7,0.6c-0.5,0.4-1.1,0.8-1.6,1.2l-0.4,0.3c-0.2,0.2-0.4,0.3-0.5,0.7c-0.1,0.3,0,0.6,0.1,0.8
	c0.2,0.3,0.4,0.4,0.7,0.5c0.1,0,0.2,0,0.3,0c0.2,0,0.4-0.1,0.6-0.2l0.4-0.3l0.1-0.1c0.5-0.4,1.1-0.8,1.6-1.2
	c0.3-0.2,0.5-0.4,0.7-0.6l0.3,0.5l0.1,0.1c1.8,2.6,3.4,4.3,5.1,5.6c0.9,0.7,2,1.2,2.9,1.6l0.1,0.1c0.5,0.2,1,0.5,1.4,0.7
	c0.5,0.2,0.9,0.4,1.4,0.6c-0.7,1.5-1.4,3.1-2.1,4.6c-0.2,0.6-0.3,1-0.2,1.4c0.1,0.5,0.4,0.9,0.9,1.1c0.3,0.2,0.6,0.2,0.9,0.2
	c0.2,0,0.3,0,0.5-0.1c0.4-0.1,0.9-0.4,1.1-0.9l0.1-0.2c0.7-1.5,1.5-3.3,2.2-5c0.7,0.3,1.4,0.5,2.2,0.8c1.1,0.4,2.2,0.7,3.3,1
	c0.3,0.1,0.7,0.2,1,0.3l0.1,0l0.1,0c0.7,0.2,1.4,0.4,2.1,0.6l1.5,0.3l2,0.5c0.1,0,0.2,0,0.3,0.1l-1.3,3.6l-0.5,1.5
	c-0.6,1.7-1.2,3.3-1.7,4.9c-0.1,0.2,0,0.5,0.1,0.7c0.1,0.2,0.3,0.3,0.5,0.4c0.1,0,0.2,0,0.2,0c0.2,0,0.3,0,0.4-0.1
	c0.2-0.1,0.3-0.3,0.4-0.5c1.3-3.7,2.4-6.9,3.5-10.1c0.1,0,0.3,0.1,0.4,0.1l1.5,0.3l0.2,0l0.8,0.1l1.5,0.3c0.3,3.4,0.7,6.4,1.2,9.6
	c0.2,1.6,0.4,3.1,0.6,4.7l0.1,0.5l-0.1,0l-0.1,0c-1,0.3-2,0.7-2.9,1.1l-0.1,0.1c-0.2,0.1-0.4,0.2-0.7,0.3c-0.4,0.2-0.9,0.4-1.3,0.6
	l-0.1,0l-0.6,0.3c-0.8,0.4-1.6,0.8-2.3,1.2c-1,0.6-1.9,1.3-2.7,2c-0.4,0.3-0.6,0.9-0.5,1.4c0,0.5,0.2,1,0.6,1.3
	c0.4,0.3,0.8,0.5,1.3,0.5c0.6,0,0.9-0.2,1.4-0.6c0.1-0.1,0.1-0.1,0.2-0.2c0.6-0.5,1.3-1,2-1.4c0.6-0.4,1.3-0.7,2-1l0.8-0.4l0.8-0.4
	l0.7-0.3l0.7-0.3c0.5-0.2,1-0.4,1.5-0.5c0.4,3.1,0.7,5.6,1.1,8c0.3,1.8,0.6,3.6,0.8,5.4l0,0.1c0.2,1.1,0.3,2.1,0.5,3.2l0.2,1
	l0.1,0.6c-0.5,0-0.9,0-1.4,0.1c-2.1,0.1-4.2,0.5-6.7,1.2c-1.5,0.4-2.3,2-1.9,3.5c0.3,1.2,1.5,2,2.7,2c0.2,0,0.5,0,0.8-0.1
	c1.3-0.4,2.5-0.7,3.5-0.9c0.8-0.1,1.7-0.2,2.5-0.3l0.5,0c0.2,0,0.4,0,0.6-0.1l0.2,2.4l0.1,1.1l0.1,0.8l0,0.3l0.1,0.8l0,0.1
	c0.2,2.2,0.5,5.6,0.8,8.8c0.2,1.8,0.5,3.6,0.7,5.4l0,0.2l-0.3,0c-0.3,0-0.6,0-0.8,0c-0.8,0-1.6,0.1-2.4,0.1l-1.8,0.1
	c-1.1,0-2,1-2,2.1c0,1.1,0.9,2,2,2l0.1,0l1.2,0c1,0,2-0.1,2.9-0.1c0.5,0,1-0.1,1.6-0.1c0.2,1.5,0.4,2.8,0.5,4
	c0.2,1.1,0.4,2.1,0.6,3.3l0,0.1l0.1,0.3l0.3,1.4l0.2,1.1c0.5,2.8,1.1,6.2,1.9,9.5l0,0.2l0,0.2c-0.3,0.1-0.6,0.2-1,0.3
	c-2,0.7-3.9,1.4-5.9,2.1l-1.5,0.5c-0.6,0.2-1,0.5-1.3,1c-0.3,0.5-0.4,1.1-0.2,1.7c0.3,0.9,1.1,1.6,2.1,1.6c0.2,0,0.4,0,0.6-0.1
	L71,378c1.8-0.6,3.8-1.3,5.8-2.1l0.5-0.2l0.4-0.1c0.3,1,0.6,2,0.9,2.9l0.1,0.2l0.2,0.5l0.1,0.4l0.2,0.6l0.3,0.9
	c0.2,0.6,0.4,1.3,0.6,1.9c0.3,1,0.6,2,0.9,3l0.3,0.9l0,0.1c0.4,1.2,0.8,2.6,1.2,4c0.2,0.6,0.3,1.2,0.5,1.7c0.3,1.1,0.6,2.3,1,3.5
	c-2.2,1-4.5,2-6.7,3.1l-1.5,0.7l-1.5,0.7c-0.3,0.1-0.5,0.5-0.6,0.8c-0.1,0.3,0,0.6,0.1,0.9c0.2,0.3,0.4,0.5,0.8,0.6
	c0.1,0,0.2,0,0.3,0c0.2,0,0.4-0.1,0.7-0.2c1.5-0.7,3-1.4,4.5-2.2l1.5-0.7l2.8-1.3l0.3-0.1l0.2-0.1c0.5,1.5,1.2,3.2,2.1,5.3
	c0.5,1.3,1,2.7,1.5,4.1c0.2,0.6,0.4,1.1,0.6,1.7c0.2,0.7,0.5,1.6,0.8,2.4l0.4,1.2l0.1,0.2c0.3,0.8,0.5,1.7,0.7,2.5
	c-0.9,0.3-1.9,0.6-2.9,0.9c-2.8,1-5.5,2-7.9,2.9c-0.5,0.2-0.7,0.4-0.9,0.7c-0.2,0.4-0.3,0.8-0.1,1.2c0.2,0.7,0.9,1.2,1.5,1.2
	c0.2,0,0.3,0,0.4-0.1c2.6-1,5.3-2,7.9-3c0.9-0.3,1.9-0.7,2.8-1c0.2,0.7,0.3,1.3,0.5,2c0.2,0.5,0.3,1.1,0.5,1.6l0.1,0.2l0.1,0.2
	c0.3,0.9,0.6,1.9,0.8,2.8l0.1,0.2l0,0.2c0.3,1.3,0.7,2.6,1.1,4c0.2,0.7,0.5,1.4,0.7,2.1l0.2,0.6l0.2,0.6c-1.1,0.3-2.2,0.7-3.1,1
	c-1.5,0.5-3.1,1-4.6,1.5l-0.5,0.2l-0.6,0.2c-1.6,0.5-3.2,1.1-4.8,1.6c-1.1,0.4-1.7,1.5-1.4,2.6c0.2,0.9,1.1,1.5,2,1.5
	c0.2,0,0.4,0,0.6-0.1c3.8-1.3,7.3-2.4,10.4-3.6l0.6-0.2c0.9-0.3,1.7-0.6,2.6-1c0.5,1.2,1,2.4,1.5,3.5c1.3,3,3,5.7,4.5,7.9
	c0.7,1,1.4,1.9,2.2,2.9l-0.1,0c-0.5,0.3-0.7,0.7-0.8,1.1c-0.1,0.5,0,0.9,0.2,1.4c0.2,0.4,0.6,0.7,1.1,0.8c0.1,0,0.3,0.1,0.5,0.1
	c0.4,0,0.7-0.1,0.9-0.3l0.3-0.2l0.3-0.2l0.3,0.3l0.5,0.5l0.8,0.8l1,1c0.7,0.7,1.4,1.4,2.1,2.2c0.4,0.4,0.8,0.8,1.1,1.3l0.1,0.1
	c0.5,0.6,1.1,1.2,1.7,1.8c1.1,1.1,2.3,2.2,3.4,3.1c1,0.8,2,1.6,3,2.4c-1.4,1.8-2.7,3.7-4.1,5.5c-0.3,0.4-0.3,1-0.2,1.4
	c0.1,0.4,0.4,0.8,0.8,1.1c0.3,0.2,0.6,0.2,0.9,0.2c0.2,0,0.3,0,0.5-0.1l0.3-0.1l0.1-0.1c0.3-0.2,0.5-0.4,0.6-0.7
	c1.1-1.5,2.5-3.4,3.8-5.2c2,1.5,3.9,2.7,5.7,3.6c2.7,1.4,5.5,2.4,8.4,3.4c-0.5,1.1-1,2.3-1.4,3.5c-0.1,0.4,0,0.9,0.2,1.2
	c0.2,0.4,0.6,0.6,1,0.7c0.1,0,0.3,0,0.4,0c0.3,0,0.6-0.1,0.8-0.2l0.2-0.1l0.2-0.1c0.2-0.2,0.3-0.5,0.4-0.7l0.5-1.3l0.8-2
	c0.8,0.3,1.9,0.7,3.2,0.9c2,0.4,4.1,0.7,6.2,1c1.3,0.1,2.6,0.2,3.7,0.2l0,0.3l0,0.4l0,0.2l0,0.2l0.1,1.5c0.1,1,0.1,1.9,0.2,2.9
	c0.1,1.1,0.2,2.1,0.2,3.2l0,0.3c0.1,1.8,0.3,4,0.5,6.1c0.6,6.9,0.7,13.8,0.8,19.7c0,6,0,12.1-0.1,17.5v0.1l0,0.6l0,0.1v0.1l0,0.9
	c0,2.9-0.1,5.9-0.1,8.8l0,0.1v0.1l0,0.3c0,3.4-0.1,6.7-0.1,10.1l0,3.6c0,2,0,4-0.1,6c0,1.5,0,3.1,0,4.7c0,1.1,0.1,2.1,0.1,3.1l0,0.6
	l0.1,1.1c0.1,1.2,0.1,2.4,0.1,3.6l0,1c0,0.5,0,1,0,1.4l0,0.2c0,1.1,0,2,0.1,2.8c0.2,3.8,0.4,6.8,0.5,9.6c0,0.8,0.1,1.6,0.1,2.5
	l0,0.2l0,0.2c0,0.6,0.1,1.2,0.1,1.8c0.1,1.6,0.2,3.2,0.2,4.8c0.1,3.5,0.4,6.7,0.7,9.7l0,0.3l0,0.1c0.3,3.1,0.7,6.4,1.3,9.6
	c0.6,3.4,1.7,6.4,3.3,9c0.7,1.3,1.7,2.5,3,4.1c0.6,0.7,1.4,1.3,2,1.8c0.9,0.7,1.7,1.3,2.4,1.7c2.1,1.5,4.8,1.9,7.6,2.2
	c0.9,0.1,1.6,0.2,2.3,0.2c0.2,0,0.4,0,0.5,0c1.4,0,2.5-0.1,3.5-0.4c1.5-0.4,3.1-1.1,4.8-1.9c0.2-0.1,0.3-0.2,0.5-0.3
	c0.2-0.1,0.4-0.2,0.7-0.3c0.4-0.2,0.7-0.3,1-0.5c0.3-0.1,0.5-0.4,0.7-0.5c0.2-0.2,0.3-0.2,0.4-0.3c0.5-0.4,1-0.9,1.4-1.3l0.2-0.2
	c0.5-0.5,1-1,1.5-1.6c1-1.2,2.1-2.5,3.1-3.9c0.9-1.2,1.7-2.4,2.3-3.7c0.7-1.4,1.3-2.9,1.8-4.3c0.4-1,0.9-2.6,1.4-4.1
	c0.2-0.6,0.3-1.3,0.4-1.8l0.1-0.3l0-0.2c0.1-0.6,0.2-1.3,0.4-1.9l0-0.3c0.3-1.7,0.5-3,0.7-4.4c0.2-1.8,0.4-3.6,0.5-5.1
	c0.2-3,0.4-6.1,0.3-9.1c0-2.1-0.1-4.2-0.2-5.8c0.2-5.8,0.3-11.7,0.4-18.3c0.1-3.2,0.1-6.3,0.2-9.5l0-0.3l0-0.9
	c0.2-10.2,0.3-19.4,0.4-28.9l0-5.2l0-1.8l0-0.5l0-0.5l0-2.1c0.1-10.2,0.2-19.8,0.3-29.4c0-3.5,0-6.5-0.1-9.6
	c-0.2-3.3-0.3-6.4-0.6-9.3c-0.1-0.8-0.1-1.5-0.2-2.3l0.1-0.8c0.1-0.8,0.1-1.5,0.2-2.2c0.1-1.2,0.2-2.4,0.2-3.7l0-1.1
	c0.1-1.5,0.1-3,0.1-4.5c0-1.4,0-2.8,0.1-4.1c0.1-3.2,0.2-6,0.4-8.6l0-0.2c0.1-1.2,0.2-2.5,0.2-3.7c0-1.1,0-2.1,0-3.1v-1.2
	c0-2.9,0-5.7,0-8.6c0-1.8,0-3.6,0-5.4l0-1.1l0-1l0-0.9c0.5-0.3,1.1-0.5,1.6-0.9c1.2-0.7,2.3-1.6,3.4-2.5l0.3-0.3l0.4-0.3
	c1.3-1,2.4-1.9,3.4-2.7c1.2-1,2.4-2,3.5-3c1.1-1,2.1-2,3.2-3.3c2.2-2.6,4.1-5.3,5.8-7.9l0.8-1.2c1-1.6,2.1-3.2,3.2-4.7l0.6-0.8
	c0.8-1,1.6-2,2.3-3c0.8-1.2,1.6-2.5,2.4-3.9c0.5-0.8,0.9-1.6,1.3-2.5c0.4-0.5,0.9-1.2,1.4-2.1c0.2-0.4,0.4-0.8,0.6-1.2l0.1-0.2
	l0.1-0.1c0.5-0.9,0.9-1.9,1.5-3.2c0.5-1.1,0.9-2.2,1.5-3.6c0.5-1.4,0.9-2.4,1.1-3.4c1.4-5.1,2.5-9.6,3.5-13.9c0.4-1.9,0.8-4,1.2-6.7
	l0.2-1.8l0-0.1c0.3-2,0.6-4,0.8-6c0.2-1.9,0.4-3.8,0.5-5.7l0-0.1l0-0.1l0.1-1.3c0.2-2.5,0.4-4.9,0.7-7.2c0.2-1.4,0.3-2.8,0.4-4.2
	l0-0.2l0-0.2l0-0.3c0.1-0.7,0.1-1.4,0.2-2.1l0-0.2c0.2-2.4,0.3-4.8,0.3-7.1c0-2.8,0.1-5.3,0.2-7.3c0-1.1,0.1-2.1,0.2-3.2l0-0.4
	c0.1-1.2,0.1-2.4,0.2-3.6c0-0.9,0-1.8,0-2.9l0-0.5c0-1.3-0.1-2.5-0.1-3.8c0-1.3-0.1-2.5-0.2-3.7c-0.1-1.1-0.1-2.3-0.2-3.4
	c-0.1-1.7,0-3.5,0-4.8v-0.1l0-0.1l0-0.6c0-0.5,0-0.9,0-1.4c0-2.1,0-4.6,0-7c0-2.3,0-4.8-0.1-7.2l0-0.6c0-1-0.1-2-0.1-3
	c0-0.6-0.1-1.2-0.1-1.8l0-0.1l0-0.1c0-0.5-0.1-1-0.1-1.4c-0.1-1.2-0.1-2.5-0.2-3.6l0-0.2l0-0.2l0-0.2l0-0.5c0-0.8-0.1-1.7-0.1-2.5
	c-0.1-2.4-0.3-4.8-0.6-7.1c-0.1-1.3-0.3-2.5-0.4-3.8l0-0.3l0-0.1c-0.2-1.4-0.3-3.1-0.6-4.7c-0.1-0.7-0.3-1.3-0.5-1.9l-0.1-0.2
	c-0.4-1.2-0.8-2.4-1.5-3.6c-0.7-1.2-1.8-2.3-3.3-3c-0.7-0.3-1.4-0.6-2.1-0.7c-0.4-0.1-0.9-0.1-1.3-0.1c-0.4,0-0.8,0-1.3,0.1
	c-0.8,0.1-1.6,0.5-2.5,1c-0.1,0.1-0.3,0.2-0.4,0.3c-0.2,0-0.4,0-0.6,0c-0.3,0-0.6,0-0.9,0.1c-0.5,0.2-1,0.4-1.5,0.6
	c-0.5,0.3-1,0.8-1.3,1.1c-0.5,0.5-0.8,1-1,1.4l0,0.1c-0.5,0.7-0.9,1.6-1.1,2.3l-0.1,0.2c-0.3,0.8-0.6,1.5-1,2.3l-0.4,1l-0.2,0.5
	c-0.2,0.6-0.5,1.3-0.8,1.9c-0.3,0.8-0.5,1.5-0.8,2.6c-0.5,1.6-0.7,3.3-1,4.7l0,0.1l-0.1,0.4c-0.3,1.8-0.5,3.9-0.7,5.3l-0.1,0.9
	c-0.3,2.6-0.5,5.3-0.7,7.3l0,0.1l0,0.1l0,0.2c-0.1,1.4-0.2,2.8-0.4,4.2l-0.1,0.6c-0.1,1.7-0.3,3.3-0.4,4.9c-0.1,1.4-0.2,2.8-0.2,4
	l0,0.3l0,0.3l-0.1,1.5c-0.2,4.2-0.5,8.8-0.7,11.8l0,0.1l0,0.3c-0.1,1.5-0.3,3.1-0.4,4.5l0,0.2l0,0.1l0,0.1l-0.2,1.5l-0.2,1.4
	l-0.2,1.4c0,0.3-0.1,0.5-0.1,0.8c-0.1,0.7-0.2,1.3-0.3,1.8l-0.2,1.2l0,0.1c-0.4,2-0.8,3.6-1.2,5.3l-0.2,0.6l0,0.1l0,0.1l0,0.1
	c-0.4,1.8-0.9,3.6-1.4,5.3l-0.2,0.8c-0.6,1.9-1.3,4.2-2.1,6.4c-0.5,1-1.1,2.3-1.9,3.4c-0.6,0.6-1.2,1.1-1.6,1.5
	c-0.1-0.1-0.3-0.2-0.4-0.3c-0.2-0.6-0.3-1.2-0.4-2c-0.1-1.4-0.2-2.8-0.2-4.1l0-0.2l0-0.1l0-1.1c-0.1-1.4-0.1-2.8-0.2-4.1l-0.1-2
	c-0.1-3.4-0.3-7.5-0.3-11.7c0-9.5,0-16.8,0.2-23.7c0.1-4.1,0.4-8.1,0.6-12l0-0.2l0-0.2l0-0.2l0-0.2c0.2-3.2,0.5-6.8,0.6-10.4
	c0.1-4.3,0.4-8.6,0.6-11.9c0.1-0.9,0.1-1.7,0.2-2.6c0.1-1.2,0.2-2.5,0.2-3.7c0.1-1.6,0.1-3.3,0.2-4.9l0.1-1.4
	c0.1-1.5,0.1-3.1,0.1-4.6l0-0.2l0-0.2c0-2,0.1-4.1,0.2-6.1c0.1-2.1,0.2-4.1,0.4-6.2l0.1-0.9l0.1-1.1c0.1-1.2,0.1-2.4,0.2-3.6
	l0.1-2.5l0.1-2.6l0.2-2.6l0-0.7l0-0.1c0.3-5.3,0.6-10.8,0.9-16.2c0.1-1.5,0-2.9,0-4.3l0-0.4l0-0.4c0.6,0,1.1-0.1,1.7-0.2l0.4-0.1
	c2.1-0.3,4.7-0.6,7.2-1l0.8-0.1c2.4-0.4,4.8-0.8,7.2-1.4c1.4-0.4,2.6-0.7,3.9-1.1c1.1-0.3,2.2-0.8,3.3-1.2c1-0.4,2.1-0.8,3.4-1.5
	l0.1-0.1c1.7-0.8,3.4-1.5,4.9-2.8c1-0.9,2-1.8,3-2.9c0.9-1.1,1.7-2.2,2.3-3.2c0.5-0.8,1.2-2,1.8-3.2c0.7-1.5,1.2-3.1,1.6-4.7
	c0.4-2.1,0.7-4.3,1.1-6.4l0.2-1.2c0-0.2,0-0.3,0.1-0.5l0-0.2l0.1-0.4c0.1-0.8,0.2-1.6,0.4-2.3c0.1-1.1,0.3-2.2,0.4-3.7
	c0.2-2.5,0.2-5,0.1-7.5c0-2.6-0.1-5-0.2-7.3c0-0.9-0.1-1.7-0.1-2.6c-0.1-1.7-0.2-3.5-0.3-5.2c-0.1-2.3-0.3-5.1-0.6-7.6
	c-0.3-2.6-0.5-5.1-0.8-7.7c-0.3-2.6-0.6-5.3-1-8.1c-0.3-2-0.6-4.5-1.1-6.9c-0.1-0.4-0.2-0.9-0.3-1.3l0-0.1l0-0.1l0-0.1
	c-0.2-1-0.4-1.9-0.6-2.9l-0.5-2.2l-0.5-2c-0.7-2.8-1.3-5-2-6.9c-0.5-1.5-1.2-3-2-4.8c-1-2-1.8-3.5-2.7-4.7c-1-1.4-2.2-2.5-3.4-3.4
	c-0.6-0.4-1.2-0.7-1.9-0.8c-0.2,0-0.3,0-0.5,0c-0.7,0-1.4,0.2-2,0.5c-1.4,0.6-2.5,1.5-3.3,2.7c-0.6,1-1,2-1.3,2.9
	c-0.4,1-0.6,2.1-0.9,3.1l-0.1,0.6c-0.3,1-0.5,2.1-0.8,3.6c-0.7,3.4-1.1,6.8-1.5,10.2l0,0.1l0,0.1l-0.1,0.4c-0.1,1.2-0.3,2.4-0.4,3.6
	c-0.1,0.5-0.1,1.1-0.2,1.6l0,0.1l-0.1,0.5l0,0.1c-0.2,1.3-0.4,3.2-0.7,4.8l0,0.2l-0.1,0.9l0,0.2l0,0.2c-0.1,0.7-0.2,1.6-0.4,2.4
	c-0.3,1.3-0.6,2.7-0.9,4.1c-0.4,1.9-0.9,3.8-1.5,5.8c-0.7,2-1.7,4.9-2.8,7.9c-0.4,1.1-0.8,2.3-1.3,3.4l-0.2,0.5l-0.2,0.4
	c-0.3,0.7-0.5,1.4-0.8,2l-0.2,0.5c-0.4,0.9-0.7,1.9-1.2,2.7c-0.8,1.1-1.7,2.3-2.8,3.4c-0.9,0.9-1.7,1.7-2.4,2.4l0.1-0.4l0-0.4
	c0.1-3.2,0.2-6,0.4-8.6l0.1-1.4c0.1-0.8,0.1-1.6,0.2-2.5c0.1-1.6,0.2-3.2,0.2-4.7c0.1-2.5,0-5.1-0.1-7.5l0-0.1l0-0.8
	c-0.1-3.6-0.3-6.3-0.4-8.7c-0.1-2.3-0.3-5.6-0.4-9l-0.1-3.1l0-0.2l0-0.2c-0.1-3.9-0.2-9.2-0.4-14.2l0-1.1c0-1.1-0.1-2.2-0.2-3.3
	l-0.1-1.3l-0.1-1.4c0-0.6-0.1-1.1-0.2-1.7l0-0.4l0-0.4c-0.1-1.2-0.3-2.4-0.6-4c-0.3-1.4-0.6-2.8-1.1-4.3c-0.6-2.2-1.6-4.5-2.9-7.1
	c-0.7-1.3-1.3-2.5-2.1-3.7c-1-1.4-2-2.5-3.1-3.5c-2.4-2.1-5.1-3.6-7.9-4.4c-1.2-0.3-2.4-0.5-3.6-0.6C193.9,23.1,193.1,23,192.4,23
	 M251.3,296.5c0-2-0.1-3.8-0.1-5.3c0-0.7,0-1.4-0.1-2l0,0.3C251.3,292.3,251.3,294.5,251.3,296.5"/>
<path class="st0" d="M59.3,176.5c-0.4,0-0.7,0.1-1.1,0.3c-0.6,0.3-1.1,0.6-1.6,1c-0.4,0.5-0.8,1-1.1,1.5c-0.2,0.3-0.3,0.7-0.3,1.1
	c0,0.4-0.1,0.7-0.1,1.1c0.1,1.4,0.6,2.7,1.8,3.5c1.7,1.2,3.8,2,5.8,2.7c1,0.4,2,0.7,3,1c1,0.3,2,0.6,3.1,0.6c1,0,1.9-0.8,2.1-1.8
	c0.1-0.6,0-1.2-0.3-1.7c0.8-1.1,0.7-2.8-0.4-3.8c-0.8-0.7-1.6-1.5-2.4-2.2c-0.7-0.7-1.5-1.3-2.3-1.7c-0.7-0.4-1.4-0.7-2.1-1
	c-0.7-0.3-1.5-0.6-2.3-0.7c-0.3-0.1-0.7-0.1-1-0.1C59.8,176.4,59.6,176.4,59.3,176.5 M60.3,182.2C60.3,182.2,60.4,182.2,60.3,182.2
	C60.3,182.2,60.3,182.3,60.3,182.2C60.3,182.3,60.3,182.2,60.3,182.2 M60.1,182.2c0,0-0.1,0.1-0.1,0.1
	C60,182.3,60.1,182.3,60.1,182.2 M60.5,182.3L60.5,182.3C60.5,182.3,60.4,182.3,60.5,182.3L60.5,182.3z"/>
<path class="st0" d="M98.8,178.9c-0.5,0.3-0.9,0.6-1.4,0.9c-0.4,0.3-0.8,0.6-1.2,1c-0.9,0.7-1.7,1.4-2.6,2.1
	c-2.1,1.7-4.1,3.4-6.2,5.2c-0.4,0.3-0.6,1-0.6,1.5c0,0.3,0.1,0.5,0.2,0.8c-0.3,0.4-0.5,1-0.4,1.5c0.1,0.6,0.3,1.2,0.8,1.6
	c0.6,0.6,1.6,0.8,2.4,0.5c0.1,0,0.1,0,0.2-0.1c0.3-0.1,0.5-0.2,0.7-0.4c0.3-0.2,0.6-0.4,0.9-0.6c0.4-0.2,0.7-0.4,1.1-0.6
	c0.9-0.4,1.7-0.7,2.6-1c1.6-0.6,2.9-1.6,4.3-2.5c0.6-0.4,1.2-0.8,1.8-1.3c0.5-0.4,0.8-0.9,1.1-1.5c0.3-0.6,0.6-1.3,0.8-1.9
	c0.2-0.5,0.2-1.2,0.2-1.7c0-1,0-2.2-0.6-3c-0.4-0.6-1-0.9-1.6-1.1c-0.2,0-0.3-0.1-0.5-0.1C100,178.3,99.3,178.6,98.8,178.9 M100,183
	C100,183,100,183,100,183c0,0.3-0.1,0.6-0.2,0.8c-0.2,0.4-0.3,0.8-0.6,1.2c-0.1,0.1-0.1,0.1-0.2,0.2c-1.2,0.9-2.4,1.7-3.7,2.3
	c-0.4,0.1-0.7,0.3-1.1,0.4C96.1,186.2,98,184.6,100,183c-0.1,0.1-0.2,0.1-0.2,0.2C99.8,183.1,99.9,183,100,183 M98.9,185.3
	C98.8,185.3,98.8,185.3,98.9,185.3C98.8,185.3,98.8,185.3,98.9,185.3"/>
<path class="st0" d="M97.1,182.6c-1.8,1.1-3.5,2.1-5.3,3.2c-0.7,0.4-1.4,0.9-2.2,1.3c-0.8,0.5-1.5,1.1-2.1,1.8
	c-0.4,0.4-0.6,0.9-0.7,1.4c-0.1,0.5-0.1,1.1,0.1,1.6c0.2,0.5,0.4,0.9,0.8,1.3c0.5,0.5,1.4,0.9,2.2,0.8c0.5-0.1,1-0.2,1.5-0.4
	c0.5-0.2,1.1-0.5,1.6-0.8c0.7-0.4,1.4-0.8,2.1-1.2c1.9-1.1,3.7-2.2,5.6-3.4c1.6-0.9,2-3.1,1-4.6c-0.6-1-1.7-1.5-2.8-1.5
	C98.3,182.1,97.7,182.3,97.1,182.6"/>
<path class="st0" d="M99.7,200.8c-2.7,0.9-5.2,2-7.8,3.2c-0.5,0.2-0.9,0.5-1.2,1c-0.3,0.5-0.3,1.1-0.1,1.6c0.2,0.5,0.5,0.9,1,1.2
	c0.4,0.2,1.1,0.4,1.6,0.1c2.6-1.1,5.1-2.3,7.7-3.4c0.5-0.2,0.9-0.5,1.1-0.9c0.2-0.5,0.3-1,0.1-1.5c-0.3-0.8-1-1.3-1.8-1.3
	C100.1,200.7,99.9,200.8,99.7,200.8"/>
<path class="st0" d="M107.8,224.2c-0.8,0.4-1.6,0.8-2.3,1.2c-0.7,0.4-1.3,0.7-2,1.1c-1.3,0.6-2.7,1.1-4.1,1.7
	c-0.7,0.2-1.3,0.5-2,0.7c-0.7,0.3-1.5,0.5-2.2,0.8c-0.3,0.1-0.5,0.3-0.6,0.5c-0.1,0.3-0.2,0.6-0.1,0.9c0.1,0.3,0.3,0.5,0.5,0.6
	c0.2,0.1,0.6,0.2,0.9,0.1c0.8-0.4,1.6-0.7,2.4-1c0.9-0.4,1.7-0.8,2.6-1.2c-0.1,0-0.1,0.1-0.2,0.1l0.3-0.1c-0.1,0-0.1,0.1-0.2,0.1
	c0.2-0.1,0.3-0.2,0.5-0.2c0,0,0,0-0.1,0l0.1,0c0,0,0.1,0,0.1-0.1c0,0-0.1,0-0.1,0c0.1,0,0.1-0.1,0.2-0.1c0.1,0,0.2-0.1,0.3-0.1
	l-0.2,0.1c0.1-0.1,0.2-0.1,0.3-0.2c0.1,0,0.2-0.1,0.3-0.1c-0.1,0-0.1,0.1-0.2,0.1c0.5-0.3,1.1-0.5,1.6-0.8c0.6-0.3,1.2-0.6,1.8-0.9
	c0.5-0.3,0.9-0.5,1.4-0.8c0.6-0.3,1.3-0.6,1.9-1c0.4-0.2,0.5-0.8,0.3-1.1c-0.1-0.2-0.3-0.3-0.5-0.4c-0.1,0-0.1,0-0.2,0
	C108.1,224,108,224.1,107.8,224.2 M101.9,229C101.9,229,101.9,229.1,101.9,229C101.9,229,101.9,229,101.9,229
	C102,229,101.9,229,101.9,229 M102,229C102,229,102,229,102,229C102,229,102,229,102,229"/>
<path class="st0" d="M103,241.3c-1.8,1.1-3.6,2.2-5.5,3.2c-0.4,0.2-0.8,0.5-1.3,0.8c-0.5,0.3-1,0.6-1.5,0.9c-1,0.6-2,1.3-2.8,2.1
	c-0.3,0.3-0.4,0.7-0.4,1.1c0,0.4,0.2,0.7,0.5,1c0.6,0.5,1.6,0.5,2.1-0.1c0.8-1,1.7-1.8,2.7-2.6c1.1-0.8,2.1-1.7,3.3-2.4
	c1.3-0.8,2.6-1.5,3.9-2.3c0.4-0.3,0.6-0.9,0.3-1.3c-0.2-0.3-0.5-0.4-0.8-0.4C103.3,241.1,103.2,241.2,103,241.3"/>
<path class="st0" d="M105.5,260.6c-0.5,0.5-0.9,1-1.4,1.4c-0.5,0.4-0.9,0.8-1.4,1.2c-0.9,0.8-1.7,1.6-2.5,2.5
	c-1.7,1.7-3.4,3.3-4.8,5.2c-0.2,0.3-0.4,0.6-0.3,1c0,0.3,0.2,0.7,0.4,0.9c0.5,0.5,1.4,0.5,1.8-0.1c0.4-0.5,0.9-1,1.3-1.5
	c0.4-0.4,0.8-0.9,1.2-1.3c0.7-0.8,1.5-1.7,2.2-2.5c0.8-0.9,1.5-1.8,2.3-2.7c0.9-1,1.8-1.9,2.7-2.8c0.4-0.4,0.3-1,0-1.3
	c-0.2-0.2-0.4-0.2-0.6-0.2C106,260.3,105.7,260.4,105.5,260.6"/>
<path class="st0" d="M108.1,277.6c-0.6,1.1-1.2,2.2-1.8,3.4c-0.5,1-1,2-1.5,3c-0.5,1-1.1,2-1.6,2.9c-0.5,0.9-1.1,1.8-1.7,2.7
	c-0.1,0.1-0.2,0.2-0.2,0.3c-0.6,0.8-1.2,1.5-1.8,2.3c-0.2,0.2-0.3,0.5-0.3,0.8c0,0.3,0.1,0.5,0.3,0.7c0.4,0.4,1.1,0.4,1.5-0.1
	c0.8-1,1.6-2,2.4-3.1c0.7-0.9,1.2-1.9,1.8-2.8c1.1-1.9,2.1-3.9,3.1-5.9c0.6-1.1,1.1-2.1,1.7-3.2c0.3-0.5,0.1-1.1-0.4-1.4
	c-0.2-0.1-0.3-0.1-0.5-0.1C108.6,277,108.2,277.2,108.1,277.6"/>
<path class="st0" d="M108.6,299.6c-0.7,1.1-1.4,2.3-2.1,3.4c-0.6,1-1.2,2.1-1.6,3.1c-0.5,1.2-1.1,2.4-1.6,3.6
	c-0.6,1.3-1.2,2.5-1.6,3.8c-0.3,0.9,0.4,1.9,1.3,2.1c0.9,0.2,1.9-0.4,2.1-1.3c0.2-1,0.6-2,0.8-2.9c0.3-0.9,0.6-1.8,0.9-2.8
	c0,0.1-0.1,0.2-0.1,0.3c0.2-0.6,0.4-1.1,0.6-1.7c0,0,0,0.1,0,0.1c0.4-1.1,0.9-2.1,1.4-3.2c0.6-1.2,1.3-2.3,2-3.5
	c0.3-0.5,0-1.2-0.5-1.5c-0.2-0.1-0.3-0.1-0.5-0.1C109.2,299.1,108.8,299.3,108.6,299.6"/>
<path class="st0" d="M109.9,319.8c-0.2,0.9-0.4,1.8-0.6,2.7c-0.3,0.9-0.5,1.7-0.8,2.6c-0.6,1.5-1.3,3-2,4.4
	c-0.4,0.7-0.8,1.4-1.2,2.1c-0.5,0.8-0.9,1.6-1.4,2.4c-0.4,0.7-0.1,1.7,0.6,2.1c0.4,0.2,0.8,0.2,1.2,0.1c0.4-0.1,0.7-0.4,0.9-0.7
	c0.4-0.6,0.8-1.2,1.2-1.9c0.3-0.6,0.6-1.1,0.9-1.7c0.6-1.3,1.1-2.6,1.5-3.9c0.4-1.2,0.7-2.5,1-3.8c0.3-1.3,0.6-2.6,0.8-3.8
	c0.1-0.5-0.2-1.1-0.8-1.2c-0.1,0-0.1,0-0.2,0C110.4,319,110,319.3,109.9,319.8"/>
<path class="st0" d="M113.5,341c-0.3,1.2-0.5,2.5-0.9,3.7c-0.7,1.7-1.6,3.3-2.4,4.9c-0.4,0.8-0.8,1.6-1.2,2.5
	c-0.4,0.7-0.7,1.5-1,2.2c-0.4,0.7-0.2,1.6,0.4,2.1c0.3,0.3,0.8,0.5,1.3,0.5c0.4,0,0.9-0.2,1.2-0.6c1.5-2,2.6-4.1,3.8-6.2
	c0.6-1.1,1.2-2.2,1.7-3.3c0.7-1.5,0.9-3.2,1.3-4.8c0.2-1.1-0.5-2.2-1.6-2.5c-0.1,0-0.3,0-0.4,0C114.6,339.4,113.7,340,113.5,341"/>
<path class="st0" d="M116.1,359.1c-0.4,0.3-0.9,0.8-1,1.4c-0.1,1-0.2,2.1-0.4,3.1c-0.2,1-0.4,2-0.7,3c-0.5,2.1-1,4.1-1.6,6.2
	c-0.2,0.8,0.3,1.7,1,2.1c0.9,0.5,2.1,0.2,2.6-0.8c0.9-2,1.6-4.2,2.2-6.4c0.3-1,0.6-2,0.8-3c0.2-1.1,0.4-2.2,0.5-3.3
	c0.1-0.6,0-1.1-0.3-1.6c-0.3-0.5-0.8-0.8-1.4-1c-0.2,0-0.3-0.1-0.5-0.1C116.8,358.8,116.4,358.9,116.1,359.1"/>
<path class="st0" d="M120,313.5c-0.4,0.3-0.7,0.7-0.8,1.1c-0.1,0.4,0,1,0.2,1.3c0.6,0.8,1.3,1.5,1.9,2.3c0.6,0.8,1.3,1.6,2,2.3
	c1.3,1.4,2.7,2.8,4.3,4c0.4,0.3,0.7,0.5,1.2,0.4c0.4,0,0.8-0.2,1.1-0.5c0.6-0.7,0.6-1.7-0.1-2.3c-1.4-1.3-2.7-2.7-4-4.1
	c-1.1-1.2-2.2-2.5-3.3-3.8c-0.1-0.1-0.1-0.1-0.2-0.2c-0.1-0.1-0.2-0.2-0.3-0.3c-0.2-0.2-0.5-0.4-0.8-0.4c-0.1,0-0.3,0-0.4,0
	C120.6,313.3,120.3,313.4,120,313.5 M122.5,314.1c0,0,0.1,0.1,0.1,0.1C122.5,314.2,122.5,314.1,122.5,314.1"/>
<path class="st0" d="M120.7,295.9c-0.5,0.3-0.8,0.8-0.9,1.3c-0.1,0.5-0.1,1.2,0.3,1.6c1.6,2,3.2,4,4.8,6c1.3,1.7,2.7,3.5,3.9,5.3
	c0.6,0.9,1.8,1.2,2.7,0.6c0.4-0.3,0.7-0.7,0.9-1.2c0.1-0.5,0-1-0.3-1.5c-1.1-1.9-2.3-3.7-3.6-5.5c-1.5-2.1-3.1-4-4.8-6
	c-0.4-0.5-0.7-0.8-1.3-0.9c-0.1,0-0.3-0.1-0.5-0.1C121.4,295.6,121,295.7,120.7,295.9"/>
<path class="st0" d="M122.8,332.7c-0.5,0.5-0.4,1.2,0.1,1.7c1.8,1.8,3.5,3.6,5.3,5.5c1.4,1.4,2.7,2.8,3.9,4.3
	c-0.1-0.1-0.1-0.1-0.2-0.2l0.2,0.3c0.2,0.2,0.4,0.4,0.7,0.5c0.3,0.1,0.6,0,0.8-0.1c0.5-0.3,0.7-1,0.3-1.4c-0.7-0.9-1.4-1.8-2.1-2.7
	c-0.7-0.8-1.4-1.5-2-2.3c-0.7-0.7-1.4-1.5-2.1-2.2c-1.1-1.1-2.1-2.2-3.2-3.3c-0.2-0.2-0.5-0.3-0.8-0.3
	C123.3,332.3,123,332.5,122.8,332.7"/>
<path class="st0" d="M121.8,348.1c-0.7,0.7-0.6,1.8,0.1,2.5c0.8,0.8,1.6,1.6,2.5,2.4c0.7,0.6,1.3,1.3,1.9,2c0.5,0.6,1,1.2,1.4,1.9
	c0.3,0.4,0.6,0.9,0.8,1.3c0.2,0.3,0.4,0.7,0.6,1.1c0.1,0.1,0.1,0.2,0.2,0.3c0.2,0.4,0.4,0.8,0.8,1c0.4,0.2,0.9,0.3,1.3,0.1
	c0.8-0.3,1.4-1.3,1.1-2.1c-0.4-1.1-0.9-2.2-1.6-3.2c-0.3-0.4-0.6-0.9-0.9-1.3c-0.3-0.4-0.6-0.8-1-1.2c-0.7-0.8-1.4-1.6-2.2-2.3
	c-0.9-0.8-1.7-1.7-2.6-2.6c-0.3-0.3-0.7-0.5-1.2-0.5C122.6,347.6,122.1,347.8,121.8,348.1"/>
<path class="st0" d="M125.4,277.3c-0.5,0.2-0.9,0.5-1.1,0.9c-0.3,0.5-0.2,1-0.1,1.5c0.6,3,1.2,5.9,1.9,8.8c0.2,1.1,0.5,2.1,0.7,3.2
	c0.2,0.7,0.3,1.4,0.5,2.1c0.1,0.3,0.2,0.6,0.3,0.9c0.1,0.3,0.2,0.5,0.3,0.8c0.2,0.5,0.5,0.8,1,1c0.6,0.4,1.5,0.2,2-0.3
	c0.5-0.5,0.6-1.4,0.2-2c-0.2-0.6-0.3-1.3-0.4-1.9c-0.1-0.6-0.3-1.2-0.4-1.8c-0.2-1-0.4-2.1-0.6-3.1c-0.6-2.9-1.2-5.8-1.8-8.7
	c-0.1-0.5-0.5-0.9-0.9-1.1c-0.3-0.2-0.6-0.2-0.9-0.2C125.8,277.2,125.6,277.2,125.4,277.3"/>
<path class="st0" d="M135.3,281c-1.3,4.7-2.6,9.5-3.5,14.3c-0.2,0.9,0.3,1.8,1.2,2c0.4,0.1,0.9,0,1.2-0.2c0.4-0.2,0.6-0.6,0.7-1
	c1.4-4.7,2.7-9.4,4-14.2c0.3-1-0.5-2.1-1.4-2.3c-0.1,0-0.3,0-0.4,0C136.3,279.5,135.6,280.1,135.3,281"/>
<path class="st0" d="M147.1,298.8c-1.6,3.5-3.2,6.9-4.8,10.4c-0.4,0.8-0.8,1.6-1.1,2.4c-0.3,0.7-0.7,1.4-1,2.1
	c-0.7,1.4-1.4,2.8-2.1,4.3c-0.1,0.2,0,0.5,0.2,0.6c0.2,0.1,0.5,0,0.6-0.2c0.8-1.4,1.5-2.8,2.2-4.2c0.4-0.7,0.7-1.4,1.1-2.1
	c0.4-0.8,0.8-1.6,1.2-2.4c0.6-1.3,1.2-2.5,1.8-3.8c1-2.2,2-4.3,3-6.5c0.1-0.3,0-0.6-0.2-0.8c-0.1,0-0.2-0.1-0.3-0.1
	C147.4,298.5,147.2,298.6,147.1,298.8"/>
<path class="st0" d="M149.2,322c-1.8,3.6-3.6,7.1-5.5,10.7c-1.6,3.2-3.2,6.3-4.9,9.5c-0.3,0.7-0.1,1.5,0.6,1.8
	c0.3,0.2,0.7,0.2,1,0.1c0.4-0.1,0.6-0.3,0.8-0.7c2-2.9,3.7-6,5.4-9.1c0.7-1.3,1.4-2.7,2.1-4c1.2-2.3,2.3-4.5,3.5-6.8
	c0.4-0.8,0.1-1.9-0.7-2.3c-0.2-0.1-0.5-0.2-0.8-0.2C150.1,321.1,149.5,321.5,149.2,322"/>
<path class="st0" d="M148.7,350c-0.9,1.9-1.7,3.9-2.6,5.9c-0.6,1.4-1.2,2.8-1.8,4.3c-1.1,2.6-2.3,5.2-3.3,7.9
	c-0.1,0.2-0.1,0.3,0,0.5c0.1,0.2,0.2,0.3,0.3,0.4c0.3,0.2,0.8,0,0.9-0.3c0.8-1.5,1.4-3,2-4.6c0.5-1.3,1.1-2.6,1.6-3.9
	c0.5-1.3,1.1-2.6,1.6-3.9c0.4-1,0.8-1.9,1.2-2.9c0.4-0.9,0.8-1.9,1.2-2.8c0.2-0.3,0.1-0.7-0.3-0.9c-0.1-0.1-0.2-0.1-0.3-0.1
	C149,349.7,148.8,349.8,148.7,350"/>
<path class="st0" d="M149.7,365.9c-0.1,0.1-0.3,0.2-0.4,0.4c-0.3,0.3-0.5,0.7-0.6,1.1c-0.3,1-0.7,1.9-1,2.9
	c-0.9,2.6-1.9,5.1-2.9,7.7c-1,2.7-2.1,5.4-3,8.2c-0.2,0.7,0.2,1.6,0.9,1.9c0.4,0.2,0.9,0.3,1.3,0.1c0.5-0.1,0.7-0.4,1-0.8
	c0.8-1.2,1.5-2.5,2.1-3.8c0.3-0.7,0.7-1.4,1-2.1c0.3-0.8,0.6-1.5,1-2.3c1.5-3.5,2.7-7.1,4-10.7c0.2-0.5,0-1.3-0.3-1.7
	c-0.3-0.5-0.8-0.9-1.4-1c-0.2,0-0.3-0.1-0.5-0.1C150.5,365.5,150.1,365.6,149.7,365.9"/>
<path class="st0" d="M149.9,388.7c-0.3,1.1-0.6,2.2-0.9,3.3c-0.3,1-0.5,1.9-0.8,2.9c-0.4,1.3-0.7,2.5-1.1,3.8c-0.5,1.5-1,3-1.4,4.5
	c-0.4,1.5-0.9,3-1.3,4.5c-0.2,0.6-0.3,1.3-0.5,1.9c-0.1,0.5,0.1,1.1,0.6,1.3c0.3,0.1,0.6,0.2,0.9,0.1c0.3-0.1,0.6-0.3,0.7-0.6
	c1.2-3,2.3-5.9,3.3-9c0.4-1.3,0.9-2.6,1.3-3.8l1.5-5.3c0.3-0.9,0.5-1.9,0.7-2.8c0.2-0.8-0.4-1.7-1.2-1.9c-0.1,0-0.2,0-0.3,0
	C150.7,387.5,150.1,388,149.9,388.7"/>
<path class="st0" d="M155.5,410.3c-0.3,0.1-0.7,0.4-0.9,0.7c-1,2.5-2,5-2.9,7.5c-0.8,2.3-1.7,4.6-2.4,6.9c-0.2,0.6,0.2,1.2,0.7,1.5
	c0.3,0.2,0.7,0.2,1,0.1c0.3-0.1,0.7-0.3,0.8-0.7c0.8-2.1,1.7-4.3,2.6-6.4c1-2.5,2-5,3-7.5c0.2-0.4,0.2-0.8,0.1-1.2
	c-0.1-0.4-0.4-0.7-0.7-0.9c-0.2-0.1-0.5-0.2-0.7-0.2C155.8,410.3,155.7,410.3,155.5,410.3"/>
<path class="st0" d="M160.1,422.4c-0.6,0-1.1,0.3-1.5,0.7c-0.4,0.5-0.6,1-0.6,1.6c0,2.6-0.1,5.2-0.2,7.8c-0.1,2.3-0.2,4.7-0.1,7
	c0,0.9,0.7,1.7,1.6,1.9c0.5,0.1,1.1,0,1.5-0.3c0.4-0.3,0.8-0.8,0.9-1.3c0.5-5.1,0.6-10.3,0.7-15.4c0-1.2-1.1-2.1-2.2-2.1
	C160.2,422.4,160.2,422.4,160.1,422.4"/>
<path class="st0" d="M164.8,414.7c-0.3,0.2-0.4,0.6-0.2,1c0.4,0.7,0.9,1.4,1.3,2.1c0.3,0.5,0.6,1.1,1,1.6c0.4,0.7,0.9,1.5,1.3,2.2
	c0.5,0.9,0.9,1.8,1.4,2.7c0.4,0.9,0.9,1.8,1.3,2.7c0.6,1.2,1.3,2.5,2.1,3.7c0.3,0.5,1,0.7,1.5,0.3c0.2-0.2,0.4-0.4,0.5-0.7
	c0-0.2,0-0.4,0-0.6c-0.1-0.2-0.2-0.3-0.3-0.5c-0.1-0.1-0.2-0.2-0.3-0.3c-0.6-0.7-1.1-1.5-1.6-2.2c-0.2-0.4-0.5-0.8-0.7-1.2
	c-0.3-0.5-0.6-1.1-0.9-1.6c-0.5-0.8-0.9-1.7-1.4-2.5c-0.2-0.3-0.4-0.7-0.6-1c-0.2-0.4-0.4-0.7-0.7-1.1c-0.9-1.5-1.8-2.9-2.7-4.4
	c-0.1-0.2-0.4-0.3-0.6-0.3C165.1,414.6,165,414.6,164.8,414.7"/>
<path class="st0" d="M164.5,384.2c-0.8,0.3-1.5,0.8-1.9,1.6c-0.4,0.8-0.5,1.7-0.2,2.5c0.3,0.9,0.8,1.4,1.6,1.9
	c1.7,1.1,3.3,2.2,5,3.1c1.4,0.8,3.1,1.3,4.6,1.9c0.4,0.2,0.7,0.3,1.1,0.5c1.1,0.6,2.6,0.4,3.5-0.6c0.5-0.6,0.8-1.3,0.8-2.1
	c0-0.7-0.4-1.5-0.9-2c-0.9-0.7-1.8-1.4-2.9-1.9c-0.8-0.5-1.7-0.9-2.6-1.3c-0.9-0.4-1.7-1-2.5-1.5c-1-0.6-2-1.3-3-2
	c-0.4-0.3-0.9-0.4-1.5-0.4C165.2,384.1,164.9,384.1,164.5,384.2"/>
<path class="st0" d="M164.7,368.6c-0.5,0.3-0.8,0.8-0.9,1.3c-0.1,0.5,0,1.1,0.3,1.6c0.1,0.1,0.2,0.3,0.3,0.4c0.3,0.3,0.6,0.4,1,0.5
	c1.2,0.4,2.5,0.9,3.8,1.3c0.9,0.3,1.7,0.5,2.6,0.7c0.9,0.2,1.7,0.5,2.6,0.7c1.1,0.3,2.2,0.4,3.3,0.5c0.3,0,0.6-0.1,0.9-0.3
	c0.4-0.3,0.7-0.7,0.8-1.2c0.2-1-0.4-2.1-1.4-2.3c-0.9-0.2-1.8-0.5-2.7-0.7c-0.9-0.3-1.7-0.5-2.6-0.8c-2.1-0.6-4.2-1.3-6.3-2.1
	c-0.1,0-0.3-0.1-0.4-0.1C165.4,368.3,165,368.4,164.7,368.6"/>
<path class="st0" d="M180,346.1c-1.3,0.3-2.6,0.5-3.9,0.8c-1.3,0.2-2.6,0.5-3.9,0.8c-1.1,0.2-2.2,0.5-3.3,0.7
	c-1.9,0.4-3.7,0.8-5.6,1.3c-0.4,0.1-0.9,0.5-1.1,0.9c-0.2,0.4-0.3,1-0.1,1.4c0.1,0.5,0.5,0.8,0.9,1.1c0.5,0.2,0.9,0.2,1.4,0.1
	c3-0.7,6-1.3,8.9-2.1c2.5-0.6,5.1-1.2,7.6-2.2c0.4-0.2,0.7-0.3,0.9-0.7c0.2-0.3,0.2-0.8,0.1-1.1c-0.1-0.4-0.4-0.7-0.7-0.9
	c-0.2-0.1-0.4-0.2-0.7-0.2C180.3,346,180.2,346,180,346.1"/>
<path class="st0" d="M181.3,319c-2.1,1.4-4.3,2.8-6.4,4.2c-2.3,1.5-4.6,3-6.9,4.5c-1.8,1.2-3.6,2.4-5.4,3.6
	c-0.6,0.4-0.7,1.1-0.4,1.7c0.4,0.6,1.1,0.8,1.7,0.4c3.1-2.1,6.2-4.2,9.4-6.3c1.9-1.3,3.8-2.6,5.7-3.9c1.2-0.8,2.3-1.6,3.5-2.5
	c0.2-0.2,0.4-0.4,0.5-0.7c0.1-0.3,0-0.6-0.1-0.8c-0.2-0.3-0.5-0.5-0.9-0.5C181.6,318.8,181.5,318.8,181.3,319"/>
<path class="st0" d="M175.4,300.5c-2,1.2-3.9,2.7-5.8,4.1c-2.3,1.7-4.5,3.5-6.7,5.3c-0.5,0.4-0.9,0.8-1.1,1.5
	c-0.1,0.6,0,1.3,0.3,1.8c0.3,0.5,0.9,0.9,1.5,1.1c0.6,0.1,1.4,0.1,1.8-0.3c2.2-1.8,4.4-3.5,6.6-5.3c2-1.6,4-3.2,5.9-4.9
	c0.7-0.7,0.7-1.9,0.2-2.6c-0.4-0.7-1.1-1-1.8-1C176.2,300.2,175.8,300.3,175.4,300.5"/>
<path class="st0" d="M175.7,281.3c-1.2,0.8-2.5,1.5-3.8,2.3c-1.1,0.6-2.2,1.2-3.4,1.7c-2.7,1.2-5.3,2.4-8,3.6
	c-0.3,0.2-0.6,0.3-0.8,0.6c-0.2,0.3-0.2,0.7-0.1,1c0.1,0.3,0.3,0.6,0.6,0.8c0.3,0.1,0.7,0.2,1,0.1c1.7-0.8,3.5-1.6,5.2-2.4
	c1.2-0.5,2.4-1.1,3.5-1.6c0.7-0.4,1.4-0.7,2.1-1.1c0.5-0.2,0.9-0.5,1.4-0.8c1.1-0.7,2.3-1.4,3.4-2.2c0.3-0.2,0.4-0.4,0.5-0.7
	c0.1-0.3,0-0.6-0.2-0.9c-0.2-0.3-0.6-0.5-1-0.5C176,281.1,175.8,281.1,175.7,281.3"/>
<path class="st0" d="M172.2,266.3c-4.4,0.8-8.4,2.8-12.4,4.7c-0.7,0.3-1.1,1.1-1.3,1.8c-0.2,0.7,0,1.5,0.4,2.2
	c0.4,0.6,1.1,1.1,1.8,1.3c0.3,0,0.5,0,0.8,0.1c0.5,0,1-0.2,1.4-0.4c0.5-0.2,1-0.5,1.5-0.7c1.7-0.8,3.4-1.6,5.2-2.2
	c1.5-0.6,2.9-1,4.4-1.4c1.4-0.4,2.8-0.8,4.2-1.1l0,0c0.7-0.1,1.2-0.3,1.7-0.8c0.5-0.5,0.7-1.1,0.7-1.8c0-0.6-0.3-1.3-0.8-1.7
	c-0.5-0.5-1.1-0.6-1.8-0.7c-0.1,0-0.1,0-0.2,0C175.9,265.5,174,266,172.2,266.3"/>
<path class="st0" d="M160.3,245.9c-0.2,0.2-0.4,0.6-0.3,0.9c0,0.3,0.2,0.6,0.4,0.9c0.1,0.1,0.2,0.1,0.3,0.2c0.2,0.1,0.4,0.2,0.7,0.1
	c2.7,0.2,5.3,0.5,8,0.6c1.1,0.1,2.2,0.2,3.3,0.2c0.6,0,1.2,0.1,1.8,0.1c0.7,0,1.5,0.1,2.2,0c0.3-0.1,0.6-0.1,0.8-0.4
	c0.2-0.2,0.3-0.5,0.3-0.8c0-0.6-0.6-1.1-1.2-1.1c-0.7,0.1-1.4,0-2.2-0.1c0,0,0.1,0,0.1,0c-4.4-0.4-8.8-0.8-13.2-1.1c0,0,0,0-0.1,0
	C160.8,245.5,160.5,245.7,160.3,245.9 M174.6,246.6c-0.1,0-0.2,0-0.2,0L174.6,246.6z"/>
<path class="st0" d="M151.7,222.5c0,0.8,0.4,1.5,0.9,2c0.6,0.6,1.3,0.8,2.2,0.8c2.8,0,5.6,0.1,8.5,0.1c2.5,0,5.1,0.1,7.6-0.5
	c0.4-0.1,0.8-0.4,1.1-0.7c0.5-0.5,0.7-1.2,0.7-1.8c0-0.6-0.3-1.3-0.8-1.7c-0.5-0.5-1.1-0.6-1.8-0.7c-0.2,0-0.3,0-0.5,0
	c-2.2-0.2-4.3-0.4-6.5-0.5c-2.8-0.1-5.7-0.2-8.5-0.2h0C152.9,219.4,151.7,221,151.7,222.5"/>
<path class="st0" d="M153.4,197.6c-1.3,0-2.3,1.2-2.2,2.5c0.1,1.3,1.2,2.2,2.5,2.2c6.8-0.1,13.5,0,20.3,0.2c0.8,0,1.6-0.7,1.8-1.5
	c0.2-1-0.4-2.1-1.5-2.3c-3.2-0.6-6.5-0.8-9.8-1c-1.4-0.1-2.8-0.1-4.2-0.1c-1,0-2,0-2.9,0C156,197.6,154.7,197.6,153.4,197.6"/>
<path class="st0" d="M152.1,183.5c0,0.6,0.3,1.1,0.7,1.5c0.4,0.4,1,0.6,1.6,0.6c4.7,0.1,9.5,0.1,14.2,0.4c0.3,0,0.7-0.1,1-0.3
	c0.4-0.3,0.7-0.7,0.9-1.2c0.2-1-0.4-2.2-1.5-2.3c-4.9-0.8-9.8-0.8-14.7-0.9c0,0,0,0,0,0C152.9,181.2,152,182.4,152.1,183.5"/>
<path class="st0" d="M149.5,158.6c-0.3,0.2-0.4,0.4-0.5,0.7c-0.1,0.6,0.3,1.3,0.9,1.4c5.6,0.9,11.2,1.8,16.7,2.7
	c0.7,0.1,1.3,0.2,2,0.3c0.6,0.1,1.2-0.2,1.3-0.8c0.1-0.6-0.2-1.2-0.8-1.3c-2.5-0.5-5-0.9-7.6-1.3c-2.7-0.4-5.5-0.9-8.2-1.3
	c-1-0.2-2-0.3-2.9-0.5c-0.1,0-0.2,0-0.3,0C149.9,158.4,149.7,158.5,149.5,158.6"/>
<path class="st0" d="M150.7,142.2c-0.3,0.4-0.5,0.8-0.5,1.3c0,0.5,0.2,0.9,0.6,1.2c0.4,0.4,0.8,0.5,1.3,0.5c4.5,0.2,9,0.5,13.5,0.8
	c0.6,0.1,1.3,0.2,1.9,0.3c0.9,0.2,1.7-0.3,1.9-1.2c0.2-0.9-0.4-1.7-1.2-1.9c-2.3-0.7-4.7-0.8-7.1-1c-1.3-0.1-2.6-0.2-3.8-0.2
	c-1.8-0.1-3.5-0.2-5.3-0.3c0,0,0,0,0,0C151.5,141.6,151,141.9,150.7,142.2"/>
<path class="st0" d="M151.5,122.7c-0.4,0.3-0.7,0.7-0.8,1.2c-0.1,0.5,0,1,0.2,1.4c0.3,0.4,0.7,0.7,1.2,0.8c2.8,0.9,5.6,1.9,8.4,2.8
	c1,0.4,2,0.8,3.1,1.2c0.6,0.2,1.3,0.5,1.9,0.7c0.9,0.4,1.8,0.7,2.6,1.3c0.6,0.4,1.6,0.2,2.1-0.4c0.3-0.3,0.5-0.8,0.5-1.3
	c0-0.4-0.2-0.9-0.6-1.2c-0.5-0.4-1.1-0.8-1.7-1.1l-1-0.5c-0.6-0.3-1.2-0.5-1.7-0.7c-1.2-0.5-2.4-0.9-3.6-1.4
	c-1.2-0.5-2.4-0.8-3.6-1.3c-1.9-0.6-3.7-1.3-5.6-1.9c-0.1,0-0.3-0.1-0.4-0.1C152.2,122.4,151.8,122.5,151.5,122.7"/>
<path class="st0" d="M152.3,110c-0.3,0.6-0.1,1.3,0.5,1.6c0.8,0.4,1.6,0.8,2.5,1.2c0.9,0.4,1.8,0.7,2.8,1c0.9,0.3,1.7,0.5,2.6,0.6
	c1.1,0.1,2.2,0.1,3.2,0c0.7-0.1,1.2-0.6,1.2-1.3c0-0.7-0.6-1.2-1.3-1.2c-0.9,0-1.8,0-2.7,0c-0.8-0.1-1.6-0.2-2.4-0.4
	c-0.9-0.2-1.7-0.4-2.5-0.7c-0.8-0.3-1.6-0.7-2.3-1.1c-0.2-0.1-0.4-0.1-0.5-0.1C153,109.4,152.5,109.6,152.3,110"/>
<path class="st0" d="M150.4,87.3c-0.4,0.8-0.1,1.8,0.7,2.3c1.9,1,3.8,2,5.8,2.9c1,0.4,1.9,0.8,2.9,1.1c0.9,0.3,1.8,0.5,2.8,0.7
	c0.6,0.1,1.3-0.2,1.6-0.8c0.4-0.7,0.1-1.7-0.6-2c-0.9-0.4-1.8-0.7-2.7-1c-1.2-0.4-2.3-0.9-3.4-1.4c-1.6-0.8-3.2-1.6-4.8-2.4
	c-0.2-0.1-0.5-0.2-0.8-0.2C151.3,86.4,150.7,86.8,150.4,87.3"/>
<path class="st0" d="M154.1,68.4c-0.5,1-0.2,2.4,0.9,2.9c0.8,0.4,1.5,0.7,2.3,1.1c0.7,0.3,1.5,0.6,2.2,0.8c2,0.7,3.9,1.6,5.7,2.6
	c0.8,0.4,1.8,0.2,2.4-0.4c0.7-0.8,0.7-2.2-0.1-2.9c-0.6-0.5-1.3-1-2-1.4c-0.6-0.4-1.3-0.7-1.9-0.9c-1.3-0.6-2.6-1-3.9-1.5
	c-0.4-0.2-0.8-0.3-1.1-0.5c-0.5-0.2-1-0.5-1.6-0.8c-0.3-0.2-0.7-0.2-1-0.2C155.2,67.3,154.4,67.7,154.1,68.4"/>
<path class="st0" d="M158.5,50.5c-0.3,0.7-0.1,1.5,0.6,1.8c0.9,0.5,1.8,1,2.7,1.4c0.8,0.4,1.5,0.8,2.3,1.2c0.8,0.4,1.5,0.8,2.3,1.3
	c0.6,0.4,1.3,0.7,1.9,1.2c0.2,0.1,0.3,0.2,0.5,0.4c0.5,0.5,1.3,0.5,1.8-0.1c0.5-0.5,0.5-1.4-0.1-1.8c-1.3-1.2-3-2.2-4.6-3
	c-1.8-1-3.7-1.9-5.5-2.9c-0.2-0.1-0.4-0.2-0.6-0.2C159.3,49.8,158.8,50,158.5,50.5"/>
<path class="st0" d="M163.5,33.8c-0.2,0.4-0.3,0.9-0.1,1.4c0.2,0.5,0.5,0.8,0.9,1c1.2,0.7,2.4,1.5,3.5,2.3c0.4,0.3,0.8,0.6,1.2,1
	c0.5,0.5,1,0.9,1.5,1.4c0.4,0.4,0.8,0.9,1.2,1.3c0.5,0.6,1,1.1,1.5,1.7c0.2,0.2,0.5,0.4,0.8,0.4c0.4,0.1,0.9,0,1.3-0.2
	c0.8-0.5,1.1-1.7,0.5-2.4c-0.7-1-1.5-1.9-2.3-2.8c-0.7-0.8-1.4-1.5-2.2-2.1c-0.8-0.7-1.6-1.3-2.5-1.8c-1-0.6-2-1.3-3-1.9
	c-0.2-0.2-0.5-0.2-0.8-0.2C164.5,32.8,163.8,33.2,163.5,33.8"/>
<path class="st0" d="M191.3,1.6c-0.4,0.3-0.8,0.7-1.2,1.1c-0.4,0.4-0.7,0.9-1,1.3c-0.5,0.8-0.9,1.8-1.2,2.7c-0.5,1.9-1,3.8-1.3,5.7
	c-0.2,0.9-0.3,1.8-0.4,2.7c-0.1,1-0.1,2-0.1,2.9c0,1.3,0,2.5,0,3.8c-0.1-0.2-0.2-0.4-0.4-0.6c-0.4-0.7-0.9-1.4-1.4-2.1
	c-0.5-0.7-0.9-1.5-1.4-2.2c-1.1-1.5-2.2-3-3.5-4.3c-0.7-0.7-1.5-1.3-2.4-1.9c-0.7-0.5-1.4-1-2.2-1.3c-1.2-0.5-2.6-0.9-3.9-0.6
	c-1.2,0.3-2,1.4-2.1,2.6c-0.1,0.5-0.1,1.1-0.1,1.6c0,0.6,0.1,1.1,0.2,1.7c0.2,0.8,0.5,1.5,0.8,2.1c0.4,0.8,0.8,1.6,1.2,2.3
	c0.4,0.7,0.7,1.5,1.1,2.2c0.2,0.4,0.5,0.8,0.7,1.2c0.2,0.3,0.3,0.5,0.5,0.8c0.3,0.5,0.7,1,1.1,1.4c0.3,0.4,0.7,0.7,1,1
	c0.3,0.3,0.6,0.6,0.9,0.8c0.7,0.5,1.4,1,2.1,1.5c0.6,0.5,1.2,0.9,1.7,1.4c0.8,0.6,1.6,1.2,2.5,1.8c0.7,0.4,1.6,0.1,2-0.6
	c0.4-0.7,0.1-1.6-0.6-2c-0.3-0.2-0.6-0.4-1-0.6c-0.5-0.4-1-0.8-1.5-1.2c-0.5-0.5-1.1-0.9-1.6-1.3c-0.6-0.4-1.1-0.8-1.6-1.3
	c-0.5-0.5-1-1-1.4-1.5c-0.6-0.8-1.1-1.7-1.6-2.6c-0.4-0.6-0.7-1.3-1-2c-0.6-1.1-1.2-2.2-1.7-3.3c-0.2-0.4-0.3-0.7-0.4-1.1
	c-0.1-0.6-0.1-1.2-0.1-1.8c0-0.1,0-0.1,0-0.2c0.1,0,0.2,0,0.4,0c0.3,0,0.6,0.1,1,0.2c0.8,0.3,1.5,0.8,2.2,1.2
	c0.4,0.3,0.9,0.7,1.3,1.1c0.5,0.4,0.9,0.9,1.3,1.4c1.2,1.5,2.3,3,3.3,4.6c0.5,0.8,1.1,1.6,1.6,2.4c0.5,0.9,1,1.7,1.4,2.6l0,0
	c0.1,0.1,0.1,0.2,0.2,0.4c0.3,0.6,0.6,1.3,0.9,1.9c0.4,0.8,0.8,1.7,1.7,1.9c0.4,0.1,0.9,0,1.2-0.2c0.4-0.2,0.7-0.7,0.8-1.1
	c0.1-0.5,0.1-1,0.1-1.5c0-0.8,0-1.5,0-2.3c0-2.9,0.1-5.8,0.2-8.6c0.2-1.5,0.4-2.9,0.7-4.3c0.3-1.5,0.7-3,1.1-4.4
	c0.2-0.6,0.5-1.1,0.8-1.6c0.3-0.4,0.7-0.8,1.1-1.1c0.4-0.3,0.8-0.6,1.2-0.8c0.2-0.1,0.4-0.1,0.6-0.2c0.2,0,0.3,0,0.5,0
	c0,0,0.1,0,0.1,0c0,0,0.1,0,0.1,0c0,0,0,0,0.1,0.1c0.1,0.1,0.1,0.2,0.1,0.2c0.2,0.5,0.4,1.1,0.5,1.6c0.5,3.2,0.5,6.3,0.3,9.5
	c-0.2,2.3-0.8,4.5-1.2,6.7c-0.2,1.1-0.4,2.3-0.6,3.4c-0.1,0.5-0.2,1-0.2,1.5c-0.1,1.1-0.3,2.3,0.6,3.1c0.7,0.6,1.5,0.6,2.3,0.2
	c0.5-0.3,0.9-0.8,1.3-1.3c0.3-0.4,0.6-0.8,0.9-1.3c0.3-0.5,0.6-1,0.9-1.5c0.5-0.9,1-1.8,1.5-2.8c0.2-0.5,0.5-0.9,0.7-1.4
	c0.2-0.4,0.4-0.9,0.6-1.3c0.3-0.4,0.5-0.9,0.8-1.3c0.3-0.4,0.5-0.8,0.8-1.2c0.6-0.7,1.2-1.5,1.8-2.2c0.7-0.7,1.4-1.4,2.1-2.1
	c0.6-0.5,1.2-1,1.9-1.3c0.6-0.2,1.2-0.4,1.8-0.6c0.2,0,0.5,0,0.7,0c0.1,0,0.2,0,0.3,0.1c0.1,0.2,0.1,0.5,0.2,0.7
	c0.1,0.7,0.1,1.4,0,2.1c-0.1,0.8-0.3,1.7-0.6,2.5c-0.9,2.2-2.3,4.1-3.7,6c-1.3,1.8-2.4,3.7-3.7,5.6c-0.3,0.4-0.6,0.9-1,1.3
	c0,0-0.1,0.1-0.1,0.1c-0.3,0.3-0.7,0.6-0.9,0.9c-0.4,0.4-0.6,1.1-0.4,1.7c0.1,0.4,0.4,0.8,0.8,1c0.4,0.2,0.9,0.3,1.3,0.1
	c0.2-0.1,0.5-0.2,0.7-0.4c0.2-0.2,0.5-0.4,0.7-0.6c0.3-0.3,0.6-0.5,1-0.8c0.7-0.6,1.3-1.2,2-1.7c1.2-1.1,2.4-2.2,3.6-3.3
	c0.7-0.6,1.5-1.1,2.3-1.5c0.3-0.1,0.7-0.2,1-0.3c0.5-0.1,1-0.1,1.5,0c0.4,0.1,0.8,0.2,1.2,0.3c0.2,0.1,0.4,0.2,0.6,0.3
	c0,0.1,0.1,0.1,0.1,0.2c0,0,0,0,0,0.1c0,0,0,0,0,0.1c0,0.2-0.1,0.5-0.2,0.7c-0.3,0.8-0.8,1.4-1.2,2.1c-0.2,0.3-0.4,0.6-0.6,0.8
	c-0.7,0.9-1.4,1.7-2.2,2.5c-0.7,0.7-1.5,1.4-2.3,2.1c-1.4,1.2-2.8,2.4-4.2,3.5c0.1,0,0.1-0.1,0.2-0.1c-0.1,0.1-0.1,0.1-0.2,0.2
	c-0.1,0.1-0.1,0.1-0.2,0.2c0.1,0,0.1-0.1,0.2-0.1c-0.8,0.6-1.5,1.3-2.4,1.8c-0.8,0.5-1.7,0.9-2.5,1.4c0,0,0,0,0,0
	c-0.4,0.2-0.7,0.4-0.9,0.8c-0.2,0.4-0.3,1-0.1,1.5c0.1,0.5,0.5,0.9,0.9,1.1c0.5,0.3,0.9,0.2,1.5,0.1c1-0.2,1.9-0.6,2.7-1.1
	c0.8-0.4,1.5-1,2.2-1.5c1.5-1.2,3-2.4,4.5-3.7c2.2-1.9,4.5-3.7,6.3-6c0.7-0.9,1.4-1.8,2-2.8c0.2-0.3,0.4-0.7,0.5-1
	c0.2-0.4,0.3-0.8,0.4-1.2c0.2-0.5,0.2-1.1,0.2-1.7c-0.1-1.2-0.7-2.3-1.5-3.2c-0.6-0.6-1.5-0.9-2.3-1.2c-0.9-0.3-2-0.5-2.9-0.4
	c-0.6,0-1.2,0.1-1.8,0.2c-0.5,0.1-1,0.3-1.4,0.4c-0.6,0.2-1.1,0.5-1.5,0.9c0.6-0.9,1.2-1.8,1.7-2.7c0.9-1.7,1.4-3.5,1.6-5.4
	c0-0.5,0.1-1,0.1-1.5c0-0.6-0.1-1.3-0.3-1.9C216,9.5,215.6,9,215,8.7c-0.9-0.5-1.9-0.7-2.9-0.7c-0.7,0-1.3,0.2-2,0.3
	c-1.4,0.3-2.6,1.1-3.7,1.9c-0.9,0.6-1.6,1.4-2.3,2.2c-0.7,0.7-1.3,1.5-1.9,2.3c-0.3,0.4-0.6,0.8-0.9,1.3c-0.3,0.4-0.6,0.8-0.8,1.2
	c-0.2,0.4-0.5,0.8-0.7,1.2c-0.2,0.4-0.4,0.8-0.6,1.3c-0.1,0.1-0.1,0.2-0.2,0.4c0.2-1.4,0.5-2.8,0.7-4.2c0.1-1.1,0.1-2.2,0.2-3.2
	c0-0.9,0-1.8,0-2.7c-0.1-2-0.2-4-0.6-6c-0.2-0.7-0.4-1.4-0.7-2c-0.2-0.5-0.5-0.9-0.9-1.2c-0.2-0.2-0.5-0.3-0.7-0.5
	c-0.4-0.2-0.8-0.3-1.3-0.3c-0.1,0-0.2,0-0.4,0C193.7,0,192.4,0.7,191.3,1.6 M195.7,3.3C195.8,3.3,195.8,3.3,195.7,3.3L195.7,3.3z
	 M213.2,11c0,0,0.1,0.1,0.1,0.1C213.3,11.1,213.3,11.1,213.2,11 M213.2,11.3C213.3,11.3,213.3,11.3,213.2,11.3
	C213.3,11.3,213.3,11.3,213.2,11.3 M213.5,11.4C213.5,11.4,213.5,11.4,213.5,11.4C213.5,11.4,213.5,11.4,213.5,11.4 M184.2,24.8
	c0,0,0,0.1,0.1,0.1C184.2,24.9,184.2,24.9,184.2,24.8 M205,40.3C205,40.3,204.9,40.3,205,40.3C204.9,40.3,205,40.3,205,40.3
	 M209.4,37.3L209.4,37.3C209.5,37.2,209.5,37.2,209.4,37.3C209.5,37.2,209.4,37.3,209.4,37.3"/>
<path class="st0" d="M171.5,23.3c-0.3,0.1-0.6,0.3-0.9,0.5c-0.4,0.2-0.7,0.6-1.1,0.9c-0.4,0.4-0.7,0.8-0.9,1.2
	c-0.4,0.8-0.5,1.8-0.5,2.7c0,0.5,0.3,1.1,0.5,1.6c0.3,0.6,0.8,1.2,1.3,1.7c0.6,0.7,1.2,1.4,1.8,2c1.3,1.3,2.6,2.5,4.2,3.5
	c0.3,0.2,0.7,0.3,1.1,0.2c0.6,0,1.1-0.3,1.5-0.7c0.8-0.8,0.8-2.3-0.1-3c-0.9-0.8-1.9-1.7-2.8-2.5c-1-0.9-1.8-1.8-2.7-2.8
	c-0.1-0.2-0.2-0.3-0.3-0.5c0-0.1,0-0.1,0-0.2c0.1-0.1,0.2-0.2,0.3-0.3h0c0.2,0,0.4,0.1,0.6,0.1c0.3,0.2,0.7,0.3,1,0.6
	c0.5,0.4,0.9,0.9,1.4,1.3c0.7,0.6,1.4,1.2,2,1.7c0.8,0.7,2.1,0.7,2.9-0.1c0.7-0.8,0.7-2.1-0.1-2.9c-0.6-0.5-1.3-1.1-1.9-1.6
	c-0.5-0.4-0.9-1-1.5-1.4c-0.3-0.3-0.7-0.6-1.1-0.8c-0.7-0.5-1.5-0.8-2.3-1.1c-0.5-0.2-1.1-0.2-1.6-0.2
	C172,23.2,171.7,23.3,171.5,23.3 M172.7,27.6C172.7,27.7,172.7,27.7,172.7,27.6C172.7,27.7,172.7,27.7,172.7,27.6 M172.5,27.8
	c0,0,0,0.1,0,0.1C172.5,27.9,172.5,27.9,172.5,27.8 M172.4,28.1c0,0,0,0.1,0,0.1C172.4,28.2,172.4,28.2,172.4,28.1 M172.5,28.3
	c0,0,0,0.1,0.1,0.1C172.5,28.3,172.5,28.3,172.5,28.3"/>
<path class="st0" d="M172.8,27.9c-0.7,0.8-0.7,2,0.1,2.8c0.7,0.7,1.4,1.4,2.1,2c0.3,0.3,0.6,0.5,0.8,0.8c0.3,0.3,0.7,0.6,1,0.9
	c0,0,0,0,0,0c0.3,0.5,1,0.8,1.5,0.8c0.3,0,0.6-0.1,0.8-0.3c0.4-0.3,0.6-0.6,0.7-1.1c0.1-0.3,0.1-0.5,0.1-0.8c0-0.4-0.2-0.8-0.4-1.1
	c-0.2-0.4-0.5-0.7-0.8-1c-0.3-0.3-0.6-0.6-1-0.9c-0.8-0.7-1.5-1.5-2.3-2.2c-0.4-0.3-0.8-0.5-1.3-0.5
	C173.7,27.3,173.1,27.5,172.8,27.9"/>
<path class="st0" d="M171.6,28.2c-0.5,0.5-0.5,1.4,0.1,1.9c0.9,0.9,1.9,1.8,2.9,2.7c0.3,0.3,0.6,0.6,0.9,0.8c0.3,0.3,0.7,0.6,1,0.9
	c1.5,1.2,3,2.5,4.7,3.5c0.4,0.3,1,0.1,1.4-0.2c0.2-0.2,0.3-0.5,0.3-0.8c0-0.3-0.1-0.6-0.4-0.8c-1.5-1.1-2.8-2.4-4.2-3.6
	c-1.6-1.4-3.2-2.9-4.8-4.5c-0.2-0.2-0.6-0.4-0.9-0.4C172.2,27.8,171.9,27.9,171.6,28.2"/>
<path class="st0" d="M170.3,12c-0.7,0.4-1.2,1.1-1.4,1.9c-0.2,0.7-0.1,1.7,0.4,2.3c2.2,2.6,4.4,5.3,6.4,8.1c0.9,1.3,1.8,2.5,2.8,3.7
	c0.6,0.7,1.2,1.4,1.9,2.1c0.2,0.2,0.5,0.4,0.7,0.6c0.8,0.7,1.7,1.1,2.8,1c0.7,0,1.3-0.3,1.8-0.8c0.6-0.6,0.9-1.7,0.6-2.6
	c-0.2-0.4-0.3-0.7-0.5-1.1c-0.1-0.2-0.3-0.4-0.4-0.5c-0.2-0.3-0.5-0.6-0.7-0.8c-0.7-0.9-1.4-1.7-2.1-2.6c-0.8-1-1.5-2.1-2.3-3.2
	c-1.8-2.5-3.7-4.8-5.6-7.1c-0.2-0.2-0.3-0.4-0.5-0.6c-0.4-0.4-0.9-0.6-1.4-0.8c-0.2,0-0.4-0.1-0.7-0.1
	C171.4,11.5,170.8,11.6,170.3,12"/>
<path class="st0" d="M173.9,14.2c-0.9,1-0.8,2.4,0.1,3.3c2.6,2.7,5.2,5.4,7.7,8.3c0.4,0.5,0.8,1.1,1.2,1.7c0.2,0.3,0.4,0.7,0.6,1
	c0.4,0.6,0.8,1.1,1.3,1.6c0.6,0.7,1.8,0.7,2.5,0.2c0.8-0.5,1.2-1.5,0.9-2.4c-0.1-0.4-0.2-0.9-0.4-1.3c-0.1-0.4-0.3-0.8-0.5-1.2
	c-0.3-0.6-0.7-1.2-1.1-1.7c-0.9-1.2-1.9-2.2-2.9-3.2c-2.1-2.1-4.1-4.3-6.2-6.4c-0.4-0.4-1-0.6-1.5-0.6
	C175,13.4,174.3,13.7,173.9,14.2"/>
<path class="st0" d="M172.1,12.4c-0.7,0.8-0.7,2.2,0.1,2.9c0.5,0.4,0.9,0.8,1.4,1.2c0.2,0.2,0.4,0.4,0.6,0.5
	c0.5,0.4,1.1,0.7,1.6,1.1c0.9,0.7,1.7,1.5,2.5,2.3c1,1.3,1.9,2.6,2.8,3.9c0.8,1.1,1.6,2.2,2.4,3.3c0.4,0.6,1.1,0.9,1.8,0.6
	c0.4-0.1,0.7-0.4,0.9-0.8c0.2-0.3,0.3-0.8,0.1-1.2c-0.4-0.9-0.8-1.8-1.2-2.7c-0.4-0.7-0.8-1.5-1.2-2.2c-0.5-0.9-1.1-1.8-1.7-2.7
	c-0.7-1-1.5-2-2.4-2.8c-0.9-0.8-1.8-1.5-2.8-2.1c-0.7-0.5-1.3-1.1-1.9-1.7c-0.4-0.4-0.9-0.5-1.4-0.5C173.1,11.8,172.5,12,172.1,12.4
	"/>
<path class="st0" d="M193.2,3.4c-0.2,0.1-0.4,0.3-0.5,0.4c-0.3,0.4-0.5,0.8-0.7,1.2L191,8.1c-0.4,1.2-0.9,2.4-1.1,3.7
	c-0.3,1.7-0.7,3.4-0.9,5.1c-0.1,0.9-0.3,1.8-0.3,2.7c-0.1,1.1-0.2,2.3-0.3,3.4c-0.1,0.9-0.1,1.7-0.2,2.6c0,0.4,0,0.8,0,1.2
	c0,0.5,0,1.1,0.2,1.5c0.1,0.3,0.3,0.6,0.4,0.9c0.3,0.4,0.7,0.7,1.1,1c0.6,0.3,1.3,0.4,2,0.2c0.4-0.1,0.8-0.4,1.1-0.7
	c0.3-0.3,0.5-0.7,0.6-1.2c0.2-0.6,0.2-1.4,0.2-2.1c0-0.3,0-0.7,0-1c0-0.5,0.1-1.1,0.1-1.6c0.1-1.2,0.2-2.4,0.2-3.6
	c0.1-0.9,0.2-1.9,0.3-2.8c0.2-1.2,0.4-2.5,0.6-3.7c0.1-0.4,0.2-0.9,0.2-1.3c0.2-0.9,0.5-1.8,0.8-2.7c0.4-1.2,0.9-2.4,1.3-3.6
	c0.2-0.6,0-1.5-0.4-2c-0.4-0.6-1-1-1.7-1.2c-0.2,0-0.4-0.1-0.6-0.1C194.2,3,193.7,3.1,193.2,3.4"/>
<path class="st0" d="M194.2,5.9c-1,0.1-2,1-1.9,2.1c0.1,0.8,0.2,1.7,0.2,2.5c0,0.7,0.1,1.4,0.1,2.1l0.1,2.4c0,0.3,0,0.6,0,0.8
	c0,1.4-0.1,2.8-0.1,4.2c0,0.4-0.1,0.9-0.1,1.3c0,0,0,0,0,0c0,0.1,0,0.3,0,0.4c0,0.3-0.1,0.6-0.1,1c-0.1,1-0.2,2.1-0.4,3.1
	c-0.2,1.1-0.3,2.2-0.6,3.3c-0.2,0.3-0.3,0.7-0.3,1c0,0.3,0.1,0.5,0.2,0.8c0.2,0.4,0.6,0.5,1,0.7c0.9,0.3,1.9-0.3,2.3-1.1
	c0.3-0.5,0.5-1.1,0.7-1.7c0.2-0.6,0.3-1.2,0.4-1.7c0.2-1.4,0.4-2.9,0.6-4.3c0,0,0,0,0,0c0,0,0,0.1,0,0.1c0,0,0,0,0-0.1
	c0,0,0,0.1,0,0.1c0,0,0,0,0,0c0-0.3,0.1-0.6,0.1-1c0-0.3,0-0.6,0.1-0.8c0,0,0,0,0,0c0-0.2,0-0.5,0.1-0.7c0,0.1,0,0.2,0,0.2
	c0.1-1,0.1-1.9,0.1-2.9c0-0.8,0.1-1.7,0-2.5c-0.1-1.2-0.1-2.3-0.2-3.5c-0.1-1.3-0.2-2.7-0.3-4c-0.1-1-0.9-1.9-2-1.9
	C194.2,5.9,194.2,5.9,194.2,5.9 M196.5,20.8c0,0.1,0,0.3,0,0.4c0,0,0,0.1,0,0.1C196.5,21.2,196.5,21,196.5,20.8 M196.3,23.3
	c0-0.1,0-0.2,0-0.3l0,0c0,0,0,0,0,0c0,0,0,0,0,0C196.3,23,196.3,23.1,196.3,23.3 M196.6,20.5c0-0.1,0-0.2,0-0.3
	C196.6,20.3,196.6,20.4,196.6,20.5"/>
<path class="st0" d="M193.4,4.8c-0.5,0-1,0.3-1.4,0.6c-0.3,0.4-0.6,1-0.5,1.4c0.5,2.9,0.7,5.8,0.8,8.7c0,1.9,0,3.8,0,5.7
	c0,2.1-0.1,4.3,0,6.4c0,0.8,0.6,1.4,1.3,1.6c0.4,0.1,0.9,0,1.3-0.2c0.3-0.2,0.7-0.6,0.8-1.1c0.2-2.2,0.4-4.5,0.5-6.7
	c0.1-1.8,0.1-3.7,0.1-5.5c0-3-0.3-6.1-0.8-9.1c0-0.2-0.1-0.3-0.1-0.5c-0.1-0.3-0.3-0.6-0.5-0.8C194.5,5,194,4.8,193.4,4.8
	C193.5,4.8,193.4,4.8,193.4,4.8"/>
<path class="st0" d="M195.6,3.5c-0.6,0-1.2,0.3-1.6,0.7c-0.4,0.4-0.7,1.1-0.6,1.7c0.3,1.9,0.5,3.8,0.7,5.6c0.1,0.7,0.2,1.3,0.2,2
	c0.1,1.6,0.2,3.2,0,4.8c-0.2,1.6-0.4,3.2-0.7,4.7c-0.1,0.7-0.2,1.4-0.3,2.1c-0.1,0.7-0.2,1.5-0.4,2.2c-0.1,0.3-0.2,0.6-0.2,0.9
	c0,0.5,0.2,1,0.6,1.3c0.4,0.4,0.9,0.5,1.4,0.5c0.5,0,1-0.2,1.3-0.6c0.2-0.3,0.4-0.5,0.6-0.9c0.2-0.4,0.4-0.9,0.5-1.3
	c0.1-0.3,0.2-0.6,0.2-0.8c0.2-0.6,0.3-1.3,0.4-1.9c0.3-1.6,0.6-3.1,0.8-4.7c0.4-2.7,0.3-5.4,0-8.2c-0.2-2-0.5-4-0.8-6
	c-0.1-0.6-0.3-1.1-0.7-1.6c-0.4-0.4-1-0.6-1.6-0.6C195.6,3.5,195.6,3.5,195.6,3.5 M193.2,26.9C193.2,26.9,193.2,26.9,193.2,26.9
	C193.2,26.9,193.2,26.9,193.2,26.9"/>
<path class="st0" d="M191.8,5.1c-0.8,1.6-1.6,3.3-2,5c-0.3,1.2-0.4,2.4-0.5,3.6c-0.2,1.5-0.3,3.1-0.4,4.6c-0.1,1.3-0.2,2.5-0.3,3.8
	c0,0.6,0,1.2,0,1.8c0,0.8,0.1,1.5,0.2,2.2c0.1,0.3,0.3,0.6,0.5,0.8c0.4,0.3,0.8,0.5,1.3,0.5c0.5,0,0.9-0.2,1.2-0.6
	c0.3-0.4,0.5-0.8,0.5-1.3c0-0.1,0-0.3,0-0.4c0.2-2.8,0.4-5.7,0.6-8.5c0.2-2.3,0.4-4.7,1.1-7c0.3-0.9,0.7-1.7,1.2-2.6
	c0.5-1,0.1-2.2-0.8-2.7c-0.3-0.2-0.6-0.2-0.9-0.2C192.9,4,192.2,4.4,191.8,5.1"/>
<path class="st0" d="M192.6,5.3c-0.6,2.4-1.1,4.7-1.6,7.1c-0.1,0.6-0.3,1.2-0.4,1.8c-0.1,0.4-0.1,0.9-0.2,1.3
	c-0.2,1.1-0.3,2.2-0.4,3.2c0,0.3,0,0.5,0.1,0.8c0.1,0.2,0.4,0.4,0.6,0.4c0.3,0.1,0.5,0,0.8-0.1c0.2-0.1,0.4-0.4,0.5-0.6
	c0.1-1,0.3-2.1,0.4-3.1c0.1-0.5,0.1-0.9,0.2-1.4c0.1-0.6,0.3-1.2,0.4-1.8c0.5-2.4,1.1-4.7,1.6-7.1c0.1-0.6-0.2-1.1-0.8-1.3
	c-0.1,0-0.2,0-0.2,0C193.1,4.5,192.7,4.8,192.6,5.3"/>
<path class="st0" d="M206.7,14c-1.2,1.4-2.4,2.8-3.5,4.3c-0.9,1.1-1.7,2.1-2.5,3.2c-0.8,1.2-1.6,2.3-2.3,3.5c-0.3,0.5-0.6,1-0.9,1.5
	c-0.2,0.3-0.4,0.6-0.5,1c-0.2,0.4-0.4,0.8-0.5,1.2c-0.2,0.6-0.2,1.1-0.3,1.7c0,0.4,0.1,0.7,0.3,1.1c0.3,0.5,0.8,0.8,1.4,1
	c0.6,0.1,1.2,0,1.7-0.3c0.5-0.3,0.8-0.8,1-1.3c0.4-0.9,1-1.7,1.5-2.5c0.4-0.6,0.7-1.1,1.1-1.7c0.6-0.9,1.3-1.8,1.9-2.7
	c1.7-2.2,3.5-4.3,5.3-6.4c0.9-1,0.9-2.6-0.1-3.6c-0.5-0.4-1.1-0.7-1.8-0.7C207.8,13.2,207.1,13.5,206.7,14"/>
<path class="st0" d="M211.9,11.3c-0.6,0-1.4,0.3-1.8,0.8c-1.5,2.1-3.1,4.2-4.5,6.3c-0.9,1.2-1.7,2.4-2.5,3.7c-0.9,1.5-1.8,3-2.7,4.5
	c-0.9,1.7-1.8,3.3-2.4,5.2c-0.3,1,0.3,2.1,1.2,2.5c1.1,0.6,2.5,0.2,3.1-1c0.7-1.3,1.5-2.6,2.3-3.8c0.9-1.4,1.7-2.7,2.6-4.1
	c0.7-1.1,1.4-2.2,2.2-3.3c0.9-1.2,1.7-2.5,2.6-3.7c0.7-1,1.4-1.9,2.1-2.9c0.1-0.2,0.3-0.4,0.4-0.6c0.2-0.4,0.3-0.9,0.3-1.4
	c0-0.7-0.3-1.3-0.8-1.8c-0.5-0.4-1.1-0.7-1.8-0.7C212,11.3,212,11.3,211.9,11.3"/>
<path class="st0" d="M208.7,13.9c-0.4,0.2-0.6,0.5-0.8,0.8c-0.2,0.3-0.3,0.5-0.3,0.9c0,0.3,0.1,0.5,0.3,0.8
	c-0.2,0.5-0.5,1.1-0.7,1.6c-0.2,0.7-0.5,1.3-0.8,2c-0.4,1-0.7,2-1.1,3c-0.9,2.4-1.9,4.9-3.2,7.1c-0.4,0.7-0.2,1.7,0.4,2.3
	c0.4,0.3,0.9,0.5,1.4,0.5c0.4,0,1-0.2,1.3-0.6c0.4-0.6,0.8-1.1,1.1-1.8c0.2-0.4,0.4-0.8,0.5-1.3c0.2-0.6,0.5-1.3,0.7-1.9
	c0.4-1.2,0.7-2.4,1.1-3.6c0.4-1.4,0.8-2.8,1.2-4.2c0.3-1.1,0.7-2.2,1-3.4c0.1-0.4,0.2-0.8,0.1-1.3c-0.1-0.5-0.4-0.7-0.8-1
	c-0.2-0.1-0.4-0.2-0.7-0.2C209.2,13.7,208.9,13.8,208.7,13.9"/>
<path class="st0" d="M211.3,14.6c-1.9,3.5-3.8,7-5.6,10.5c-0.7,1.4-1.5,2.8-2.2,4.3c-0.8,1.6-1.7,3.2-2.4,4.9
	c-0.3,0.6-0.4,1.2-0.2,1.8c0.2,0.6,0.6,1.1,1.1,1.4c0.6,0.3,1.2,0.4,1.8,0.2c0.6-0.2,1-0.6,1.4-1.1c1-1.5,1.9-3.1,2.8-4.6
	c0.7-1.4,1.5-2.7,2.2-4.1c1.9-3.6,3.7-7.1,5.7-10.7c0.7-1.2,0.2-2.8-1.1-3.5c-0.4-0.2-0.8-0.3-1.2-0.3
	C212.7,13.2,211.8,13.7,211.3,14.6"/>
<path class="st0" d="M210.6,11.7c-1.9,1.1-3.6,2.6-5.1,4.2c-1.5,1.7-2.9,3.5-4.2,5.4c-1.1,1.6-2.3,3.2-2.9,5.1
	c-0.3,0.9,0.3,2,1.1,2.4c1.1,0.6,2.4,0.2,3-0.9c0.1-0.3,0.3-0.5,0.4-0.7c0.7-0.9,1.4-1.9,2.1-2.8c1.8-2.3,3.5-4.8,5.8-6.7
	c0.8-0.6,1.6-1.2,2.5-1.7c1.2-0.7,1.5-2.3,0.8-3.5c-0.5-0.8-1.3-1.1-2.1-1.1C211.5,11.3,211.1,11.4,210.6,11.7"/>
<path class="st0" d="M218.7,23.6c-0.5,0-1.1,0.2-1.5,0.4c-0.3,0.2-0.6,0.3-0.8,0.5c-0.6,0.1-1.2,0.3-1.8,0.6
	c-0.8,0.4-1.5,0.8-2.2,1.3c-1.1,0.8-2,1.7-3,2.6c-0.3,0.3-0.6,0.6-0.9,0.8c-0.6,0.6-1,1.2-1.5,1.9c-0.5,0.7-0.8,1.5-0.9,2.3
	c-0.1,0.4-0.1,0.8,0,1.2c0,0.2,0.1,0.4,0.1,0.6c-0.1,0.4-0.1,0.8,0,1.3c0.2,0.6,0.6,1,1.1,1.3c0.9,0.5,1.9,0.3,2.5-0.3
	c0.2,0,0.3,0,0.5,0c0.4-0.1,0.9-0.2,1.3-0.3c0.5-0.1,1-0.4,1.4-0.6c0.4-0.2,0.8-0.4,1.2-0.6c0.5-0.3,1-0.6,1.4-0.9
	c0.9-0.6,1.9-1.3,2.6-2.1c0.5-0.6,1-1.3,1.5-2c0.3-0.4,0.5-0.9,0.7-1.4c0.2-0.5,0.5-1.1,0.7-1.6c0.3-0.7,0.5-1.3,0.5-2
	c0-0.5-0.1-1-0.4-1.4c-0.2-0.3-0.7-0.8-1.1-1c-0.5-0.2-0.9-0.4-1.4-0.4C218.8,23.6,218.8,23.6,218.7,23.6"/>
<path class="st0" d="M209.6,10.9c-0.3,1.8-0.6,3.7-1.1,5.5c-0.2,0.9,0.4,1.8,1.2,1.9c0.9,0.2,1.7-0.4,1.9-1.2
	c0.5-1.8,0.8-3.7,1.1-5.5c0.2-0.9-0.4-1.8-1.2-2c-0.1,0-0.2,0-0.3,0C210.4,9.6,209.7,10.2,209.6,10.9"/>
<path class="st0" d="M219.4,45.7c-0.8,0.6-1.7,1.2-2.4,1.9c-0.7,0.6-1.4,1.3-2,2c-0.6,0.6-1.1,1.2-1.6,1.9c-1,1.2-2.1,2.5-3,3.8
	c-0.1,0.2-0.2,0.5-0.2,0.8c0,0.4,0.2,0.7,0.5,1c0.6,0.5,1.5,0.5,2-0.1c0.9-1.1,1.8-2.1,2.7-3.2c1.2-1.4,2.3-2.8,3.7-4
	c0.6-0.5,1.3-1,1.9-1.5c0.3-0.2,0.6-0.5,0.7-1c0.1-0.4,0-0.8-0.2-1.1c-0.3-0.4-0.8-0.7-1.3-0.7C219.9,45.4,219.6,45.5,219.4,45.7"/>
<path class="st0" d="M222,56.5c-0.3,0.1-0.4,0.3-0.6,0.5c-0.1,0.1-0.1,0.2-0.2,0.2c0,0,0,0,0-0.1c0,0-0.1,0.1-0.1,0.1c0,0,0,0,0,0.1
	c0,0,0,0,0,0c-0.5,0.7-1,1.3-1.5,2c-0.6,0.7-1.2,1.4-1.8,2.1c-0.6,0.6-1.2,1.2-1.8,1.8c-0.3,0.3-0.6,0.6-0.9,1
	c-0.4,0.4-0.7,0.8-1,1.3c-0.2,0.3-0.4,0.6-0.4,1c0,0.4,0.2,0.7,0.4,0.9c0.5,0.5,1.4,0.5,1.9-0.1c0.8-1,1.7-2.1,2.5-3.1
	c0.8-1.1,1.6-2.1,2.4-3.2c0,0.1-0.1,0.1-0.1,0.2c0-0.1,0.1-0.1,0.1-0.2c0,0,0,0,0,0c0,0,0,0,0,0c0.7-1,1.4-2,2.1-3
	c0.1-0.2,0.1-0.5,0.1-0.8c-0.1-0.2-0.2-0.4-0.5-0.6c-0.1-0.1-0.3-0.1-0.5-0.1C222.2,56.5,222.1,56.5,222,56.5 M221.1,60.8
	C221.1,60.9,221.1,60.9,221.1,60.8L221.1,60.8L221.1,60.8z M221.2,57.3C221.2,57.3,221.2,57.3,221.2,57.3c0-0.1,0.1-0.1,0.1-0.1
	C221.3,57.2,221.2,57.3,221.2,57.3"/>
<path class="st0" d="M220.6,73.8c-1.4,2.6-3,5.2-4.6,7.7c-0.7,1.2-1.5,2.3-2.2,3.5c-0.8,1.2-1.5,2.5-2.2,3.7
	c-0.4,0.6-0.1,1.5,0.6,1.9c0.3,0.2,0.7,0.2,1.1,0.1c0.4-0.1,0.6-0.4,0.8-0.7c0.8-1.2,1.6-2.4,2.3-3.7c0.7-1.2,1.4-2.4,2.1-3.5
	c1.5-2.6,3.1-5.1,4.4-7.8c0.3-0.6,0.1-1.4-0.5-1.8c-0.2-0.1-0.4-0.1-0.6-0.1C221.3,73.1,220.8,73.3,220.6,73.8"/>
<path class="st0" d="M222.1,92.7c-2.4,1.8-4.7,3.6-6.9,5.6c-0.5,0.4-0.5,1.3-0.2,1.8c0.2,0.3,0.5,0.6,0.9,0.6c0.4,0.1,0.7,0,1.1-0.2
	c1.2-0.6,2.2-1.5,3.2-2.3c1.2-0.9,2.4-1.9,3.6-2.8c0.4-0.3,0.6-0.6,0.7-1c0.1-0.4,0-0.9-0.2-1.2c-0.3-0.5-0.9-0.8-1.4-0.8
	C222.7,92.4,222.4,92.5,222.1,92.7"/>
<path class="st0" d="M219.1,105.9c-0.4,0-0.7,0.2-0.9,0.4c-1.1,1-2.3,2.1-3.4,3.2c-1,1-2.1,1.9-3,3c-0.5,0.5-0.5,1.3,0.1,1.8
	c0.5,0.5,1.3,0.4,1.8-0.1c1-1,2.1-2,3.1-2.9c1.2-1,2.3-2.1,3.5-3.1c0.3-0.2,0.4-0.7,0.4-1c0-0.4-0.2-0.7-0.4-0.9
	C219.9,106.1,219.5,105.9,219.1,105.9C219.1,105.9,219.1,105.9,219.1,105.9"/>
<path class="st0" d="M222.8,103.5c-0.4,0.4-0.4,1,0.1,1.4c1.5,1.3,3,2.7,4.6,3.9c0.2,0.2,0.4,0.3,0.7,0.3c0.2,0,0.5-0.1,0.6-0.3
	c0.3-0.4,0.4-1-0.1-1.3c-1.6-1.3-3.1-2.6-4.6-3.9c-0.2-0.2-0.4-0.3-0.7-0.3C223.2,103.1,223,103.2,222.8,103.5"/>
<path class="st0" d="M225.9,81.1c-0.6,0-1.2,0.3-1.7,0.8c-0.4,0.5-0.7,1.1-0.6,1.8c0,0.7,0.3,1.2,0.8,1.7c1.5,1.6,3,3.3,4.6,4.9
	c1.4,1.4,2.7,3,4.3,4.2c0.5,0.4,1,0.6,1.6,0.6c0.6,0,1.1-0.3,1.5-0.7c0.4-0.4,0.6-1,0.6-1.6c0-0.6-0.3-1-0.7-1.5
	c-1.3-1.5-2.6-3-3.9-4.5c-1.5-1.7-3.1-3.4-4.6-5.1c-0.4-0.4-1.1-0.6-1.7-0.6C226,81.1,225.9,81.1,225.9,81.1"/>
<path class="st0" d="M229.7,69.7c-0.3,0-0.5,0.1-0.7,0.3c-0.2,0.2-0.3,0.5-0.3,0.8c0,0.2,0.1,0.6,0.3,0.7c1,0.7,2,1.5,2.9,2.3
	c0.4,0.3,0.7,0.6,1.1,0.9c0.3,0.2,0.5,0.5,0.8,0.7c0.4,0.3,0.7,0.7,1.1,1c0.3,0.3,0.6,0.6,0.9,0.9c0.5,0.5,1,1.1,1.5,1.6
	c0.1,0.1,0.2,0.3,0.3,0.4c0.1,0.2,0.3,0.3,0.5,0.4c0.2,0.1,0.5,0,0.6-0.1c0.4-0.3,0.5-0.8,0.3-1.2c-0.3-0.4-0.5-0.9-0.9-1.3
	c-0.3-0.4-0.6-0.8-0.9-1.1c-0.4-0.4-0.7-0.7-1-1.1c-0.3-0.3-0.6-0.6-0.9-0.9c-0.2-0.2-0.4-0.4-0.6-0.6c-0.1-0.1-0.2-0.2-0.3-0.3
	c-0.3-0.3-0.6-0.5-1-0.8c-0.5-0.4-0.9-0.8-1.4-1.1c-0.5-0.4-1.1-0.9-1.6-1.3C230.3,69.8,230,69.7,229.7,69.7
	C229.7,69.7,229.7,69.7,229.7,69.7"/>
<path class="st0" d="M228.1,54.4c-0.6,0.6-0.6,1.7,0.1,2.3c1.8,1.6,3.5,3.2,5,5c0.8,0.9,1.6,1.9,2.4,2.8l-0.1-0.1
	c0.3,0.3,0.6,0.7,0.8,1c0.4,0.5,0.9,1,1.2,1.6c0.3,0.5,1,0.7,1.5,0.5c0.3-0.1,0.6-0.3,0.7-0.6c0.2-0.3,0.2-0.6,0.1-1
	c-0.1-0.5-0.4-1-0.6-1.5c-0.1-0.3-0.3-0.6-0.5-0.8c-0.4-0.6-0.8-1.2-1.3-1.7c-0.8-1.1-1.7-2.1-2.6-3.2c-1.4-1.6-3-3-4.5-4.4
	c-0.3-0.3-0.7-0.4-1.1-0.4C228.8,53.9,228.4,54,228.1,54.4"/>
<path class="st0" d="M241.5,43.9c-0.4,0-0.8,0.4-0.7,0.8c0.2,4.1,0.4,8.1,0.6,12.2c0.1,1,0.1,2,0.2,3c0.1,1.2,0.1,2.4,0.3,3.6
	c0,0.4,0.3,0.7,0.7,0.7c0.4,0,0.7-0.4,0.7-0.7c-0.1-0.9-0.1-1.7-0.1-2.6c0-0.7-0.1-1.5-0.1-2.2c-0.1-1.6-0.1-3.1-0.2-4.7
	c-0.1-3.1-0.3-6.2-0.4-9.2C242.3,44.2,241.9,43.9,241.5,43.9C241.5,43.9,241.5,43.9,241.5,43.9"/>
<path class="st0" d="M256.7,55c-1.3,2.7-2.7,5.4-4,8c-0.5,1-1,2-1.5,3.1c-0.3,0.6-0.5,1.1-0.8,1.7c-0.3,0.6-0.5,1.2-0.8,1.8
	c-0.1,0.3-0.2,0.5-0.1,0.8c0.1,0.3,0.3,0.5,0.5,0.6c0.5,0.3,1.1,0.1,1.4-0.4c0.6-1.1,1.2-2.2,1.7-3.3c0.5-1,1-2,1.5-3.1
	c1.3-2.7,2.7-5.4,4-8.1c0.3-0.6,0.1-1.3-0.5-1.6c-0.2-0.1-0.4-0.1-0.5-0.1C257.3,54.4,256.9,54.6,256.7,55"/>
<path class="st0" d="M263.6,69c-1.4,0.6-2.8,1.3-4.1,2.1c-0.9,0.6-1.8,1.2-2.7,1.8c-0.7,0.5-1.4,1-2,1.5c-1,0.8-2.1,1.8-2.3,3.2
	c-0.1,0.6,0.2,1.2,0.8,1.3c0.6,0.1,1.2-0.3,1.3-0.8c0,0,0-0.1,0-0.1c0.1-0.2,0.2-0.4,0.3-0.5c0.4-0.5,0.8-1,1.2-1.4
	c0.5-0.5,1-0.9,1.5-1.4c0.5-0.4,0.9-0.8,1.4-1.1c0.4-0.3,0.7-0.5,1.1-0.8c0.7-0.5,1.5-1,2.3-1.4c0.5-0.2,1-0.5,1.5-0.7
	c0.4-0.2,0.7-0.6,0.5-1.1c-0.1-0.3-0.4-0.6-0.8-0.6C263.7,68.9,263.6,68.9,263.6,69"/>
<path class="st0" d="M266.8,84c-0.9,0.4-1.8,0.7-2.6,1.2c-1,0.5-1.9,1.2-2.8,2c-0.7,0.6-1.4,1.2-2,1.9c-1.2,1.1-2.3,2.2-3.4,3.4
	c-0.6,0.6-0.5,1.6,0.1,2.2c0.3,0.3,0.7,0.4,1.1,0.4c0.4,0,0.8-0.2,1-0.5c0.8-1,1.6-2.1,2.5-3.1c0.4-0.4,0.7-0.8,1.1-1.3
	c0.6-0.7,1.3-1.4,2-2c0.7-0.6,1.5-1.1,2.3-1.5c0.5-0.2,0.9-0.4,1.4-0.6c0.5-0.2,0.9-0.8,0.7-1.3c-0.1-0.4-0.6-0.8-1-0.8
	C267,83.9,266.9,84,266.8,84"/>
<path class="st0" d="M268.6,99c-0.6,0.4-1.2,0.9-1.8,1.3c-0.6,0.4-1.2,0.7-1.8,1.1c-1.2,0.8-2.4,1.5-3.6,2.3
	c-1.2,0.9-2.4,1.8-3.5,2.7c-0.6,0.5-1.3,1-1.8,1.5c-0.3,0.2-0.5,0.5-0.8,0.8c-0.3,0.3-0.5,0.6-0.7,0.9c-0.1,0.1-0.2,0.3-0.3,0.4
	c-0.2,0.3-0.2,0.7-0.2,1c0,0.5,0.3,1,0.6,1.3c0.8,0.7,2,0.7,2.8-0.1c1.2-1.3,2.6-2.4,3.9-3.5c1.5-1.2,3-2.3,4.5-3.4
	c0.7-0.5,1.5-1,2.2-1.5c0.8-0.6,1.7-1.2,2.5-1.8c0.4-0.3,0.7-0.7,0.8-1.1c0.1-0.5,0-1-0.2-1.4c-0.3-0.5-1-0.9-1.6-0.9
	C269.2,98.7,268.9,98.8,268.6,99"/>
<path class="st0" d="M267.6,120.3c-0.7,0.7-1.3,1.3-2.1,1.9c-1.1,0.8-2.2,1.6-3.4,2.3c-0.6,0.3-1.2,0.7-1.9,1
	c-0.6,0.3-1.3,0.7-1.9,1c-0.2,0.1-0.5,0.2-0.7,0.3c-0.6,0.2-1,0.9-0.8,1.5c0.2,0.6,0.9,1,1.5,0.8c0.5-0.2,1-0.4,1.6-0.6
	c0.2-0.1,0.4-0.2,0.6-0.3c0.4-0.2,0.8-0.4,1.2-0.7c0.5-0.3,0.9-0.5,1.4-0.8c0.5-0.3,0.9-0.6,1.3-0.9c0.8-0.6,1.6-1.2,2.4-1.9
	c0.8-0.7,1.5-1.5,2.3-2.2c0.4-0.4,0.3-1.1-0.1-1.5c-0.2-0.2-0.4-0.3-0.7-0.3C268.1,120,267.8,120.1,267.6,120.3"/>
<path class="st0" d="M264.9,134.2c-0.7,0.5-1.3,1.1-2,1.6c-0.7,0.5-1.3,0.9-2,1.3c-1.2,0.8-2.5,1.5-3.9,2.1
	c-0.3,0.1-0.5,0.2-0.8,0.3c-1,0.4-1.6,1.4-1.3,2.5c0.3,1,1.5,1.6,2.5,1.3c1.9-0.7,3.6-1.8,5.2-3c0.7-0.5,1.4-1.1,2.1-1.7
	c0.6-0.5,1.1-1,1.7-1.4c0.1-0.1,0.2-0.2,0.3-0.2c0.3-0.3,0.6-0.6,0.7-1c0.1-0.4,0-0.9-0.2-1.2c-0.2-0.4-0.6-0.6-1-0.7
	c-0.1,0-0.2,0-0.4,0C265.5,134,265.1,134,264.9,134.2 M266.7,136.9c-0.1,0.1-0.1,0.1-0.2,0.2C266.5,137.1,266.6,137,266.7,136.9"/>
<path class="st0" d="M254,146.7c-0.5,0-1.1,0.3-1.4,0.7c-0.4,0.4-0.6,1-0.6,1.5c0,0.5,0.3,1.1,0.7,1.4c1.5,1.1,3,2.2,4.5,3.3
	c0.6,0.4,1.1,0.7,1.7,1.1c0.3,0.2,0.6,0.3,0.9,0.5c0.3,0.2,0.6,0.3,0.9,0.5c0,0,0.1,0.1,0.1,0.1c0.6,0.5,1.5,0.6,2.1,0.2
	c0.8-0.5,1-1.6,0.5-2.4c-0.2-0.4-0.4-0.6-0.7-0.9c-0.2-0.2-0.4-0.3-0.6-0.5c-0.3-0.2-0.5-0.4-0.8-0.6c-0.6-0.4-1.2-0.8-1.8-1.3
	c-1.4-1-2.8-2-4.1-3.1c-0.4-0.3-0.9-0.6-1.4-0.6C254.1,146.7,254,146.7,254,146.7"/>
<path class="st0" d="M248,153.3c-1,0.7-1.3,2-0.7,3c2.2,3.6,4.5,7.3,6.9,10.8c0.6,0.9,1.9,1.3,2.9,0.6c0.9-0.6,1.2-1.9,0.6-2.8
	c-2.3-3.6-4.5-7.3-6.7-10.9c-0.4-0.7-1.1-1-1.9-1C248.7,153,248.3,153.1,248,153.3"/>
<path class="st0" d="M237.8,161.6c-1,0.3-1.5,1.4-1.2,2.4c0.6,2.3,1.3,4.6,1.9,6.9c0.6,2,1.2,4,2.1,5.8c0.2,0.4,0.4,0.7,0.8,0.9
	c0.4,0.2,0.8,0.2,1.2,0.1c0.8-0.3,1.3-1.2,1-2c-0.6-1.9-1-3.9-1.5-5.9c-0.6-2.4-1.2-4.7-1.9-7.1c-0.2-0.8-1-1.3-1.8-1.3
	C238.1,161.5,237.9,161.5,237.8,161.6"/>
<path class="st0" d="M226.1,165.9c-0.4,0-0.8,0.2-1,0.5c-0.3,0.3-0.5,0.7-0.4,1.1c0.2,1.5,0.5,3,0.8,4.6c0.3,1.3,0.6,2.7,0.9,4
	c0.2,0.6,0.8,1,1.4,0.9c0.4,0,0.7-0.2,0.9-0.4c0.2-0.2,0.4-0.7,0.4-1c-0.5-2.7-0.9-5.5-1.3-8.2c-0.1-0.4-0.2-0.8-0.5-1
	C226.9,166.1,226.5,165.9,226.1,165.9C226.1,165.9,226.1,165.9,226.1,165.9"/>
<path class="st0" d="M210.3,187.9c0,0.9,0.8,1.5,1.7,1.6c2.2,0,4.4,0,6.6,0c0.4,0,0.7,0,1.1,0c1.6,0,3.1,0,4.7-0.1
	c0.8-0.1,1.4-0.7,1.4-1.5c0-0.4-0.2-0.7-0.5-1c-0.3-0.3-0.7-0.4-1.1-0.4c-0.9-0.1-1.8-0.1-2.8-0.1c-1,0-2,0-3-0.1
	c-2.2,0-4.5-0.1-6.7-0.1h0C211,186.1,210.3,187,210.3,187.9"/>
<path class="st0" d="M225.2,196.2c-1.9,0.1-3.7,0.3-5.5,0.5c-2.1,0.2-4.2,0.6-6.4,0.8c-0.4,0.1-0.8,0.2-1.1,0.5
	c-0.3,0.3-0.5,0.7-0.4,1.2c0,0.4,0.2,0.8,0.5,1.1c0.3,0.3,0.8,0.5,1.2,0.4c2.1-0.3,4.2-0.6,6.4-1c1.8-0.3,3.7-0.6,5.5-0.8
	c0.4-0.1,0.7-0.2,1-0.4c0.3-0.3,0.4-0.6,0.4-1C226.7,196.7,226,196.1,225.2,196.2C225.3,196.1,225.3,196.1,225.2,196.2"/>
<path class="st0" d="M218.7,213.6c-0.8,0.1-1.7,0.3-2.5,0.5c-1.7,0.4-3.4,0.9-5.2,1.4c-1.1,0.3-1.7,1.5-1.3,2.6
	c0.3,1.1,1.5,1.6,2.6,1.3c2.5-0.7,5-1.4,7.5-1.9c0.5-0.1,0.9-0.2,1.4-0.2c0.8-0.1,1.4-0.6,1.6-1.4c0.2-0.9-0.4-1.9-1.3-2.1
	c-0.7-0.2-1.3-0.3-2-0.3C219.2,213.5,219,213.5,218.7,213.6"/>
<path class="st0" d="M220.4,236c-1.5,0.2-3.1,0.4-4.6,0.7c-0.1,0-0.3,0-0.4,0.1c-1.6,0.3-3.3,0.5-5,0.5c-1,0-1.7,0.9-1.7,1.8
	c0.1,1,0.9,1.7,1.8,1.7c0.6,0,1.2-0.1,1.8-0.1c0.4,0,0.8-0.1,1.2-0.1c0,0,0.1,0,0.1,0c0,0-0.1,0-0.1,0c0,0,0.1,0,0.1,0
	c0,0,0,0,0.1,0c0,0,0.1,0,0.1,0c0,0,0,0-0.1,0c0,0,0,0,0.1,0c0,0,0,0,0,0c0,0,0,0,0,0c0,0,0,0,0,0c0,0,0,0,0,0c0,0,0,0,0,0
	c0,0,0,0,0,0c0,0,0.1,0,0.1,0c0,0,0,0,0,0c0,0,0,0,0,0c0,0,0,0,0.1,0c0,0-0.1,0-0.1,0c0,0,0,0,0,0c0.1,0,0.3,0,0.4-0.1
	c0.1,0,0.3,0,0.4-0.1c0.2,0,0.5-0.1,0.7-0.1c0.1,0,0.2,0,0.3-0.1c0.2,0,0.3-0.1,0.5-0.1c-0.1,0-0.2,0-0.2,0c0,0,0,0,0,0
	c1.5-0.3,3.1-0.6,4.6-1c0.7-0.1,1.1-0.9,1.1-1.6c0-0.8-0.7-1.5-1.5-1.5C220.5,236,220.5,236,220.4,236 M214.2,240.5
	C214.1,240.5,214.1,240.5,214.2,240.5L214.2,240.5C214.1,240.5,214.2,240.5,214.2,240.5 M214,240.5C214,240.5,214,240.5,214,240.5
	C214,240.5,214,240.5,214,240.5C214,240.5,214,240.5,214,240.5 M214,240.5C214,240.5,214,240.5,214,240.5
	C214,240.5,214,240.5,214,240.5C214,240.5,214,240.5,214,240.5C214,240.5,214,240.5,214,240.5C214,240.5,214,240.5,214,240.5
	 M214.1,240.5C214.1,240.5,214,240.5,214.1,240.5C214.1,240.5,214.1,240.5,214.1,240.5C214.1,240.5,214.1,240.5,214.1,240.5
	 M214.4,240.5C214.4,240.5,214.4,240.5,214.4,240.5C214.4,240.5,214.4,240.5,214.4,240.5"/>
<path class="st0" d="M214.9,256.6c-1.2,0.1-2.5,0.3-3.7,0.5c-0.3,0-0.5,0.1-0.7,0.3c-0.2,0.2-0.3,0.5-0.3,0.7c0,0.3,0.1,0.5,0.3,0.7
	c0.2,0.2,0.5,0.3,0.7,0.3c1.2-0.2,2.4-0.4,3.6-0.6c1.2-0.2,2.3-0.3,3.5-0.4c0.5,0,0.9-0.5,0.9-0.9c0-0.2-0.1-0.5-0.3-0.6
	c-0.2-0.2-0.4-0.2-0.7-0.2c-0.2,0-0.4,0-0.5,0C216.8,256.4,215.9,256.5,214.9,256.6"/>
<path class="st0" d="M207.9,270.9c-0.5,0.2-1,0.6-1.3,1.1c-0.3,0.5-0.3,1.1-0.1,1.7c0.2,0.8,0.5,1.6,0.9,2.3
	c0.2,0.2,0.4,0.5,0.6,0.7c0.2,0.2,0.3,0.3,0.5,0.4c0.5,0.4,1,0.7,1.5,1c0.8,0.4,1.8,0.8,2.7,1c0.5,0.1,0.9,0.2,1.4,0.2
	c0.5,0,1,0,1.4-0.1c0.5-0.1,1-0.2,1.3-0.6c0.4-0.4,0.5-0.9,0.5-1.4c0-0.5-0.3-1-0.6-1.3c-0.4-0.4-0.9-0.5-1.4-0.5
	c-0.6-0.1-1.1-0.2-1.6-0.4c-0.8-0.3-1.5-0.6-2.2-1c-0.1-0.1-0.3-0.2-0.4-0.4c0,0,0,0,0,0c-0.2-0.4-0.3-0.8-0.4-1.2
	c-0.2-0.9-1.2-1.5-2.1-1.5C208.3,270.8,208.1,270.8,207.9,270.9 M211.1,273.6c0.1,0.1,0.1,0.2,0.2,0.2
	C211.2,273.8,211.1,273.7,211.1,273.6"/>
<path class="st0" d="M208.7,287.2c-0.4,0.4-0.4,1.1,0.1,1.5c0.8,0.7,1.6,1.2,2.5,1.7c0.8,0.4,1.6,0.7,2.4,1c0.9,0.3,1.9,0.6,2.8,0.9
	c0.5,0.2,1.1-0.3,1.2-0.8c0.1-0.3,0-0.5-0.1-0.8c-0.2-0.2-0.4-0.4-0.6-0.4c-0.5-0.2-1-0.4-1.6-0.6c-0.4-0.1-0.7-0.3-1.1-0.4
	c-1.1-0.4-2.2-1-3.2-1.6c-0.3-0.2-0.6-0.5-0.9-0.7c-0.2-0.2-0.5-0.3-0.7-0.3C209.2,286.9,208.9,287,208.7,287.2"/>
<path class="st0" d="M209.5,303.9c-0.3,0.3-0.4,0.6-0.4,1c0,0.4,0.2,0.7,0.4,1c0.3,0.3,0.6,0.4,1,0.4c2.1,0.1,4.1,0.2,6.2,0.2
	c0.7,0,1.3-0.7,1.3-1.4c0-0.3-0.2-0.7-0.4-0.9c-0.3-0.3-0.6-0.3-1-0.4c-2.1,0-4.1-0.2-6.2-0.3c0,0,0,0,0,0
	C210.1,303.5,209.7,303.7,209.5,303.9"/>
<path class="st0" d="M221,286.6c-0.6,0.2-1,0.6-1.3,1.1c-0.5,1-0.2,2.5,0.9,3c0.8,0.4,1.7,0.8,2.5,1.1c0.8,0.4,1.7,0.6,2.5,0.9
	c0.1,0,0.2,0.1,0.3,0.1c0.4,0.1,0.7,0.1,1.1,0c0.5-0.2,1-0.5,1.2-1c0.5-1,0.1-2.3-0.9-2.8c-1.5-0.9-3.1-1.5-4.7-2.3
	c-0.4-0.2-0.7-0.3-1.1-0.3C221.5,286.5,221.3,286.5,221,286.6 M225.2,292.6C225.2,292.6,225.3,292.6,225.2,292.6
	C225.3,292.6,225.2,292.6,225.2,292.6 M225.5,292.7L225.5,292.7c0.1,0,0.2,0.1,0.2,0.1C225.6,292.8,225.5,292.7,225.5,292.7"/>
<path class="st0" d="M220.9,279.2c-0.2,0.7,0.3,1.5,1.1,1.7c1.6,0.3,3.2,0.6,4.8,0.9c1.5,0.3,3.1,0.5,4.6,0.7c0.4,0,0.7,0,1-0.2
	c0.3-0.2,0.5-0.5,0.6-0.8c0.1-0.7-0.3-1.4-1-1.6c-1.5-0.2-3-0.6-4.5-0.9c-1.6-0.3-3.3-0.6-4.9-0.9c-0.1,0-0.2,0-0.3,0
	C221.7,278.1,221.1,278.5,220.9,279.2"/>
<path class="st0" d="M221.3,262.9c-0.2,0.9,0.4,1.8,1.3,2c1.5,0.3,2.9,0.5,4.4,0.9c1.3,0.3,2.7,0.6,4,1.1c0.3,0.1,0.6,0,0.9,0
	c0.4-0.1,0.7-0.4,0.9-0.8c0.2-0.4,0.2-0.8,0.1-1.3c-0.1-0.4-0.4-0.8-0.8-0.9c-2.8-1.1-5.8-1.7-8.7-2.2c-0.1,0-0.2,0-0.3,0
	C222.2,261.6,221.5,262.1,221.3,262.9"/>
<path class="st0" d="M224.3,243.7c-0.3,0.1-0.5,0.3-0.7,0.5c-0.3,0.5-0.1,1.3,0.5,1.5c2.1,0.9,4.2,1.8,6.3,2.8
	c0.3,0.1,0.5,0.2,0.8,0.1c0.3-0.1,0.5-0.3,0.6-0.5c0.3-0.5,0.1-1.2-0.4-1.4c-1-0.5-2-1-3-1.5c-1-0.5-2.1-1-3.2-1.4
	c-0.2-0.1-0.4-0.1-0.5-0.1C224.5,243.6,224.4,243.7,224.3,243.7"/>
<path class="st0" d="M228.2,224.5c-0.3,0.2-0.6,0.6-0.7,1c-0.1,0.4,0,0.9,0.2,1.2c2.6,3.3,5.3,6.6,7.9,10c0.2,0.3,0.5,0.5,0.9,0.6
	c0.4,0.1,0.7,0,1-0.2c0.6-0.4,0.8-1.3,0.4-1.9c-2.4-3.5-5-6.8-7.6-10.1c-0.3-0.3-0.5-0.6-1-0.7c-0.1,0-0.2,0-0.3,0
	C228.8,224.3,228.5,224.4,228.2,224.5"/>
<path class="st0" d="M235,215.1c-0.4,0.2-0.6,0.6-0.7,1.1c-0.1,0.5,0,0.9,0.2,1.3c0.2,0.4,0.5,0.9,0.7,1.3c-0.1-0.1-0.1-0.3-0.2-0.4
	c0.5,1.1,1,2.2,1.5,3.2c0.2,0.5,0.4,1.1,0.6,1.6c0.2,0.5,0.4,1,0.6,1.5c0.5,1.3,1,2.6,1.5,3.9c0.3,0.7,1,1.1,1.8,0.9
	c0.3-0.1,0.6-0.4,0.8-0.7c0.2-0.4,0.2-0.7,0.1-1.1c-0.4-1.9-1-3.8-1.7-5.7c-0.2-0.5-0.4-1-0.6-1.5c-0.1-0.4-0.3-0.7-0.5-1
	c-0.3-0.6-0.5-1.2-0.8-1.8c-0.3-0.7-0.7-1.4-1.1-2.2c-0.2-0.4-0.7-0.7-1.1-0.7c-0.1,0-0.2,0-0.4,0
	C235.6,214.8,235.2,214.9,235,215.1"/>
<path class="st0" d="M249.1,214c-0.4,0.1-0.9,0.5-1.1,0.9c-0.8,2-1.5,4.1-2.2,6.2c-0.5,1.7-1.1,3.4-1.5,5c-0.2,0.7,0.2,1.4,0.8,1.7
	c0.4,0.2,0.8,0.2,1.2,0.1c0.4-0.1,0.8-0.4,0.9-0.8c0.6-1.6,1.3-3.1,1.9-4.7c0.7-1.9,1.5-3.9,2.2-5.8c0.1-0.2,0.1-0.3,0.2-0.5
	c0.1-0.3,0.1-0.6,0-1c-0.1-0.5-0.5-0.8-0.9-1.1c-0.3-0.1-0.6-0.2-0.9-0.2C249.4,213.9,249.2,213.9,249.1,214"/>
<path class="st0" d="M257.1,225.7c-1.3,2.4-2.6,4.8-3.9,7.1c-0.6,1.1-1.2,2.1-1.8,3.2c-0.6,1-1.2,2-1.8,3c-0.3,0.4-0.1,1,0.2,1.3
	c0.2,0.2,0.5,0.3,0.8,0.3c0.3,0,0.6-0.1,0.8-0.4c0.7-1,1.5-2,2.1-3c0.6-1,1.3-2.1,1.9-3.1c1.4-2.4,2.7-4.8,4.1-7.2
	c0.4-0.6,0.1-1.5-0.6-1.8c-0.2-0.1-0.4-0.2-0.6-0.2C257.8,225,257.3,225.2,257.1,225.7"/>
<path class="st0" d="M258,251.6c-1.6,1.7-3.2,3.4-4.7,5.1c-1.4,1.5-2.8,3.2-3.6,5.1c-0.3,0.6-0.2,1.2,0.3,1.7c0.3,0.3,0.7,0.4,1,0.4
	c0.3,0,0.8-0.2,1-0.5c0.6-0.8,1.3-1.5,1.9-2.2c0.6-0.7,1.3-1.4,2-2.1c1.6-1.7,3.2-3.4,4.8-5.1c0.7-0.7,0.6-1.8-0.1-2.5
	c-0.3-0.3-0.8-0.5-1.2-0.5C258.8,251,258.4,251.2,258,251.6"/>
<path class="st0" d="M262.1,264.3c-2.4,2.5-4.7,5-7.2,7.4c-2.3,2.2-4.5,4.3-6.7,6.6c-0.6,0.6-0.5,1.7,0.1,2.3
	c0.3,0.3,0.7,0.4,1.2,0.4c0.5,0,0.8-0.2,1.1-0.5c1.1-1,2.3-2,3.4-3.1c1.1-1.1,2.3-2.1,3.4-3.2c0.9-0.9,1.9-1.8,2.8-2.8
	c1.5-1.6,3-3.1,4.5-4.7c0.7-0.7,0.6-1.8-0.1-2.5c-0.3-0.3-0.8-0.5-1.2-0.5C262.9,263.8,262.4,264,262.1,264.3"/>
<path class="st0" d="M262,282.7c-0.4,0-0.9,0.2-1.1,0.5c-1.5,2-3,4-4.5,5.9c-0.9,1.2-1.8,2.4-2.7,3.5c-2.3,2.8-4.5,5.5-6.8,8.3
	c-1,1.3-2.1,2.5-3.1,3.8c-0.5,0.6-0.5,1.4,0.1,2c0.6,0.5,1.5,0.5,2-0.1c2.4-2.6,4.7-5.3,7-8c1.2-1.4,2.3-2.8,3.5-4.2
	c1-1.2,1.9-2.4,2.9-3.7c1.4-1.8,2.7-3.5,4-5.3c0.3-0.4,0.5-0.7,0.4-1.2c0-0.4-0.2-0.8-0.5-1.1C262.9,282.9,262.5,282.7,262,282.7
	C262.1,282.7,262,282.7,262,282.7"/>
<path class="st0" d="M260.6,304.7c-0.5,0-1.1,0.2-1.4,0.6c-2.1,2.8-4.3,5.7-6.4,8.6c-1.9,2.7-3.9,5.3-5.7,8c-0.2,0.3-0.2,0.7-0.2,1
	c0,0.5,0.3,1,0.6,1.3c0.4,0.4,0.9,0.6,1.4,0.5c0.5,0,1.1-0.2,1.3-0.6c3.9-5.4,7.9-10.7,11.9-16.1c0.3-0.5,0.6-0.9,0.5-1.5
	c0-0.5-0.3-1-0.6-1.4C261.7,304.9,261.2,304.7,260.6,304.7C260.6,304.7,260.6,304.7,260.6,304.7"/>
<path class="st0" d="M256.6,336.4c-3.3,0.2-6.5,0.4-9.8,0.5c-1,0.1-1.8,0.9-1.7,1.9c0,0.5,0.2,0.9,0.6,1.2c0.4,0.4,0.8,0.5,1.3,0.5
	c1.5,0,3.1,0,4.6-0.1c1.7-0.1,3.4-0.1,5.2-0.2c1.1,0,1.9-1,1.9-2.1C258.6,337.2,257.7,336.4,256.6,336.4
	C256.7,336.4,256.6,336.4,256.6,336.4"/>
<path class="st0" d="M240,354.6c-0.2,0.1-0.4,0.3-0.6,0.4c-0.3,0.3-0.4,0.6-0.5,1c-0.1,0.4-0.1,0.7,0,1.1c0.1,0.2,0.1,0.3,0.2,0.5
	c0.2,0.3,0.5,0.5,0.8,0.7c0.5,0.4,1.3,0.4,2,0.5c0.4,0,0.7,0,1.1,0.1c0.6,0,1.2,0,1.8,0.1c1.2,0,2.4,0,3.6,0.1
	c2.9,0,5.8,0.1,8.7,0.1c1.2,0,2.1-1.2,2.1-2.3c0-0.6-0.3-1.1-0.7-1.5c-0.4-0.4-1-0.6-1.6-0.6c-5,0-9.9-0.1-14.9-0.1
	c-0.3-0.2-0.7-0.3-1-0.3C240.6,354.3,240.3,354.4,240,354.6"/>
<path class="st0" d="M235.6,372.8c-0.3,0.6-0.1,1.4,0.5,1.7c1,0.5,2,0.8,3.1,1.1c0.7,0.2,1.4,0.4,2.1,0.6c0.7,0.2,1.4,0.3,2,0.5
	c1.1,0.3,2.1,0.5,3.2,0.7c0.6,0.1,1.2-0.3,1.4-0.9c0.1-0.6-0.3-1.2-0.9-1.4c-1.7-0.4-3.4-0.8-5.2-1.3c-0.6-0.2-1.3-0.4-1.9-0.6
	c-0.5-0.1-1-0.3-1.5-0.5c-0.4-0.2-0.8-0.3-1.2-0.6c-0.2-0.1-0.4-0.2-0.6-0.2C236.3,372.1,235.9,372.4,235.6,372.8"/>
<path class="st0" d="M230.2,387.5c-0.9,0.6-1.1,1.7-0.6,2.6c0.3,0.6,0.7,1.1,1.1,1.6c0.5,0.6,1,1.2,1.6,1.7c1.5,1.6,3.3,3.1,5.2,4.2
	c0.9,0.5,2.2,0.1,2.7-0.8c0.5-1,0.1-2.1-0.8-2.7c-0.5-0.3-0.9-0.5-1.3-0.8c-1.1-0.8-2.1-1.8-3-2.8c-0.6-0.6-1.2-1.2-1.8-1.9
	c-0.1-0.2-0.3-0.3-0.4-0.5c-0.3-0.4-0.7-0.7-1.2-0.8c-0.1,0-0.3,0-0.4,0C230.8,387.3,230.5,387.4,230.2,387.5"/>
<path class="st0" d="M218,398.7c-0.4,0.4-0.4,1.3,0.1,1.7c1,0.8,2.1,1.5,3.2,2.1c1.1,0.6,2.1,1.2,3.2,1.8c1,0.5,1.9,1.1,2.9,1.6
	c1.5,0.8,3,1.5,4.6,2.3c0.7,0.4,1.6,0.1,2-0.6c0.4-0.7,0.1-1.7-0.6-2c-2.5-1.2-5-2.4-7.4-3.7c-1.1-0.6-2.2-1.1-3.3-1.7
	c-1.1-0.5-2.1-1.1-3.1-1.7c-0.2-0.1-0.3-0.1-0.5-0.1C218.5,398.3,218.2,398.5,218,398.7"/>
<path class="st0" d="M206.7,414.1c-0.5,0.9-0.1,2,0.8,2.5c1,0.6,1.9,1.2,2.9,1.7c1,0.5,1.9,1,2.9,1.5c2.4,1.2,4.8,2.3,7.2,3.5
	c1.1,0.5,2.4,0.2,3-0.9c0.6-1,0.2-2.5-0.9-3c-2.4-1.1-4.7-2.3-7.1-3.4c-1-0.5-2-0.9-3-1.3c-0.5-0.2-1-0.4-1.5-0.6
	c-0.6-0.2-1.2-0.5-1.8-0.8c-0.3-0.1-0.6-0.2-0.9-0.2C207.7,413.1,207.1,413.4,206.7,414.1"/>
<path class="st0" d="M215.5,433c-2.9,1.7-5.9,3.4-8.8,5.2c-2.7,1.6-5.4,3.1-8.1,4.7c-0.8,0.5-1,1.6-0.5,2.4c0.5,0.8,1.6,1,2.4,0.5
	c2.7-1.5,5.4-3,8.1-4.6c3-1.7,5.9-3.4,8.9-5.2c0.9-0.5,1.1-1.7,0.6-2.5c-0.4-0.5-0.9-0.8-1.5-0.8C216.2,432.8,215.8,432.9,215.5,433
	"/>
<path class="st0" d="M215.1,452c-3.5,2.1-7.1,4.2-10.6,6.4c-1.5,0.9-2.9,1.8-4.4,2.6c-1.7,1-3.4,2.1-5.1,3.1
	c-0.7,0.4-0.9,1.5-0.5,2.1c0.2,0.3,0.6,0.6,1,0.7c0.4,0.1,0.8,0,1.2-0.2c1.8-0.9,3.5-1.9,5.2-2.9c1.5-0.9,2.9-1.7,4.4-2.6
	c3.6-2.1,7.1-4.2,10.6-6.3c0.8-0.5,1-1.6,0.5-2.3c-0.3-0.5-0.9-0.8-1.4-0.8C215.7,451.7,215.4,451.8,215.1,452"/>
<path class="st0" d="M218.3,474.6c-3.2,1.8-6.4,3.6-9.6,5.4c-1.3,0.7-2.6,1.5-4,2.3c-1.5,0.9-3.1,1.8-4.5,2.8
	c-0.4,0.3-0.7,0.6-0.8,1.1c-0.1,0.5,0,1,0.2,1.4c0.5,0.8,1.7,1.1,2.5,0.6c1.4-1,3-1.8,4.5-2.7c1.4-0.8,2.7-1.5,4.1-2.3
	c3.2-1.8,6.4-3.6,9.6-5.4c0.9-0.5,1.1-1.8,0.6-2.6c-0.3-0.4-0.7-0.7-1.2-0.8c-0.1,0-0.3,0-0.4,0C219,474.3,218.7,474.4,218.3,474.6"
	/>
<path class="st0" d="M215,505.2c-1.9,0.7-3.8,1.4-5.8,2c-0.8,0.3-1.6,0.6-2.4,0.9c-0.7,0.3-1.5,0.6-2.2,0.9
	c-0.5,0.2-0.9,0.4-1.4,0.7c-0.5,0.3-0.9,0.7-1.2,1.2c-0.5,0.5-0.5,1.3,0.1,1.8c0.5,0.5,1.3,0.4,1.8-0.1c0.1-0.1,0.3-0.2,0.4-0.4
	c0.2-0.2,0.5-0.3,0.7-0.5c1.1-0.5,2.2-0.8,3.4-1.2l1.8-0.6c1.9-0.6,3.8-1.3,5.6-1.9c0.8-0.3,1.2-1.1,1-1.9c-0.2-0.6-0.8-1.1-1.4-1.1
	C215.3,505.1,215.2,505.1,215,505.2"/>
<path class="st0" d="M216.7,535.7c-2.5,0.7-4.9,1.3-7.4,2c-1,0.2-1.9,0.5-2.9,0.7c-1.2,0.3-2.5,0.6-3.6,1.3
	c-0.5,0.3-0.7,0.9-0.5,1.5c0.2,0.7,1,1,1.6,0.8c0.1,0,0.2-0.1,0.4-0.1c1-0.2,2-0.4,3-0.7c1-0.3,2-0.6,3-0.8c2.4-0.7,4.8-1.4,7.2-2
	c0.7-0.2,1.1-1,0.9-1.7c-0.2-0.6-0.7-0.9-1.3-0.9C217,535.7,216.8,535.7,216.7,535.7"/>
<path class="st0" d="M202.7,560.7c-0.1,0.4,0,0.7,0.2,1c0.2,0.3,0.5,0.6,0.9,0.6c1.1,0.2,2.3,0.1,3.4,0.1c0.8,0,1.7,0,2.5,0
	c0.2,0,0.4,0,0.7,0c0.6,0,1.2,0,1.8,0c1.2-0.1,2.3-0.1,3.4-0.2c0.6-0.1,1-0.5,1-1.1c0-0.5-0.5-1-1.1-1c-0.9,0.1-1.8,0.1-2.8,0.2
	c-0.6,0-1.1,0-1.7,0c-0.8,0-1.5-0.1-2.3-0.1c-0.6,0-1.2-0.1-1.8-0.1c-0.9-0.1-1.8-0.2-2.6-0.4c-0.1,0-0.2,0-0.3,0
	C203.4,559.7,202.8,560.1,202.7,560.7 M206.6,560.1c0,0,0.1,0,0.1,0C206.7,560.1,206.7,560.1,206.6,560.1 M206.8,560.1
	C206.8,560.1,206.8,560.1,206.8,560.1C206.8,560.1,206.8,560.1,206.8,560.1"/>
<path class="st0" d="M203.8,577.8c-0.5,0.3-0.8,0.8-0.9,1.3c-0.3,1.1,0.5,2.3,1.6,2.5c3.2,0.7,6.5,1,9.8,1.4c0.7,0.1,1.2,0,1.8-0.3
	c0.5-0.3,0.9-0.9,1-1.5c0.1-0.6,0-1.3-0.3-1.8c-0.3-0.5-0.9-1-1.5-1c-2.7-0.3-5.4-0.6-8.1-0.8c0.2,0,0.4,0,0.6,0.1
	c-1-0.1-2-0.2-3-0.2C204.5,577.5,204.1,577.6,203.8,577.8"/>
<path class="st0" d="M202.4,592.5c-0.4,0.1-0.7,0.3-1,0.6c-0.4,0.5-0.6,1.1-0.6,1.7c0.1,1.2,1.2,2.3,2.4,2.2c1.2-0.1,2.4-0.1,3.6,0
	c1.2,0,2.3,0.1,3.5,0.1c2.6,0.1,5.3,0.2,7.9,0.3c0.6,0,1.3-0.4,1.7-0.8c0.5-0.5,0.7-1.1,0.7-1.8c0-0.6-0.3-1.3-0.8-1.7
	c-0.5-0.5-1.1-0.6-1.8-0.7c-2.6-0.1-5.3-0.2-7.9-0.3c-1.2,0-2.3-0.1-3.5-0.1c-0.4,0-0.9,0-1.3,0C204.3,592,203.3,592.1,202.4,592.5"
	/>
<path class="st0" d="M202.5,605.1c-0.7,0-1.3,0.3-1.9,0.6c-0.5,0.3-0.7,1-0.5,1.5c0.2,0.7,1,1.1,1.6,0.8c0.1,0,0.2-0.1,0.4-0.1
	c0.2,0,0.4,0,0.6,0c1.2,0.2,2.3,0.6,3.5,0.9c0.4,0.1,0.8,0.3,1.2,0.4c0.3,0.1,0.6,0.2,0.9,0.3c0,0,0,0,0,0c1.8,0.7,3.7,1.4,5.5,2.1
	c0.4,0.2,0.8,0.2,1.2,0.1c0.4-0.1,0.7-0.4,0.9-0.8c0.2-0.4,0.2-0.8,0.1-1.2c-0.1-0.4-0.4-0.8-0.8-0.9c-2.1-0.8-4.2-1.7-6.4-2.4
	c-0.6-0.2-1.1-0.4-1.7-0.6c-0.4-0.1-0.7-0.2-1.1-0.3c-0.6-0.2-1.2-0.3-1.9-0.4c-0.4-0.1-0.9-0.1-1.3-0.1
	C202.8,605.1,202.6,605.1,202.5,605.1"/>
<path class="st0" d="M167.7,587.2c-1.3,0.4-2.6,0.7-4,1c-1.1,0.2-2.1,0.3-3.2,0.4c-1.1,0.1-2.2,0.3-3.3,0.4
	c-2.2,0.2-4.3,0.2-6.5,0.1c-0.6,0-1.2,0.4-1.6,0.8c-0.4,0.5-0.7,1.1-0.6,1.7c0,0.6,0.3,1.2,0.8,1.6c0.2,0.1,0.3,0.2,0.5,0.4
	c0.4,0.2,0.8,0.3,1.2,0.3c1.6,0.1,3.2,0.1,4.8,0c1.8-0.1,3.6-0.4,5.3-0.7c0.9-0.1,1.8-0.3,2.7-0.5c0.9-0.2,1.9-0.5,2.8-0.8
	c0.8-0.3,1.5-0.6,2.3-0.9c0.5-0.2,0.9-0.5,1.1-1c0.2-0.5,0.3-1,0.1-1.5c-0.3-0.8-1.1-1.4-1.9-1.4
	C168.1,587.2,167.9,587.2,167.7,587.2"/>
<path class="st0" d="M170.4,560.6c-1.7,0.3-3.5,0.7-5.2,1.1c-1.7,0.4-3.4,0.7-5,1.1c-3.8,0.8-7.7,1.7-11.5,2.6
	c-0.4,0.1-0.8,0.5-1,0.8c-0.2,0.4-0.3,0.9-0.1,1.3c0.1,0.4,0.4,0.8,0.8,1c0.4,0.2,0.8,0.2,1.3,0.1c3.8-0.9,7.7-1.7,11.5-2.6
	c1.7-0.4,3.3-0.7,5-1.1c1.7-0.4,3.4-0.8,5.1-1.4c0.8-0.3,1.2-1.1,1-1.9c-0.1-0.4-0.4-0.7-0.7-0.9c-0.2-0.1-0.4-0.2-0.7-0.2
	C170.8,560.6,170.6,560.6,170.4,560.6"/>
<path class="st0" d="M165.4,532.4c-1.4,0.9-2.9,1.9-4.4,2.7c-1.9,0.8-3.9,1.4-5.8,2.1c-0.9,0.3-1.7,0.6-2.6,0.9
	c-1.1,0.5-2.3,0.9-3.4,1.4c-0.6,0.2-1,0.5-1.3,1.1c-0.3,0.5-0.3,1.2-0.2,1.8c0.2,0.6,0.6,1,1.1,1.3c0.5,0.3,1.2,0.4,1.8,0.2
	c1.3-0.6,2.6-1.1,4-1.7c1.1-0.5,2.3-0.8,3.5-1.3c1.6-0.6,3.2-1.2,4.8-2c1-0.5,1.9-1.2,2.9-1.8c0.6-0.4,1.3-0.9,1.9-1.3
	c0.9-0.7,1.3-1.9,0.6-2.9c-0.4-0.6-1.1-1-1.8-1C166.1,532.1,165.7,532.2,165.4,532.4"/>
<path class="st0" d="M160.8,503.7c-0.7,0.3-1.4,0.6-2,1c-0.4,0.3-0.8,0.6-1.2,0.9c-0.8,0.6-1.6,1.3-2.4,1.9
	c-1.6,1.3-3.3,2.6-4.9,3.9c-0.3,0.2-0.5,0.4-0.5,0.8c-0.1,0.3,0,0.7,0.2,0.9c0.2,0.3,0.5,0.5,0.8,0.5c0.3,0.1,0.7,0,0.9-0.2
	c1.6-1.3,3.3-2.5,4.8-3.9c0.8-0.6,1.5-1.2,2.3-1.8c0.8-0.6,1.6-1.3,2.5-1.8c0.1,0,0.1-0.1,0.2-0.1c0.3-0.1,0.5-0.3,0.6-0.5
	c0.1-0.3,0.2-0.6,0.1-0.9c-0.1-0.4-0.6-0.8-1.1-0.8C161,503.6,160.9,503.6,160.8,503.7"/>
<path class="st0" d="M160.3,481.5c-0.6,0-1.1,0.3-1.6,0.7c-0.5,0.4-1,0.9-1.5,1.3c-1.6,1.4-3.3,2.7-4.9,4.1
	c-0.7,0.6-1.5,1.3-2.2,1.9c-0.4,0.4-0.8,0.7-1.2,1.1c-0.5,0.5-1,1-1.5,1.5c-0.5,0.6-0.9,1.2-1.3,1.8c-0.4,0.6-0.4,1.5-0.2,2.1
	c0.2,0.7,0.7,1.3,1.3,1.6c0.7,0.3,1.4,0.4,2.1,0.2c0.7-0.2,1.2-0.7,1.6-1.3c0.1-0.2,0.2-0.3,0.3-0.5c1-1.3,2.3-2.3,3.5-3.5
	c0.8-0.8,1.6-1.5,2.4-2.3c1.6-1.6,3.2-3.2,4.7-5c0.8-0.9,0.8-2.3-0.1-3.2c-0.4-0.4-1-0.6-1.5-0.6
	C160.3,481.5,160.3,481.5,160.3,481.5"/>
</svg>
