<?xml version="1.0" encoding="utf-8"?>
<!-- Generator: Adobe Illustrator 22.1.0, SVG Export Plug-In . SVG Version: 6.00 Build 0)  -->
<svg width="496px" height="728px" version="1.1" id="Layer_1" xmlns="http://www.w3.org/2000/svg" xmlns:xlink="http://www.w3.org/1999/xlink" x="0px" y="0px"
	 viewBox="0 0 496 728" style="enable-background:new 0 0 496 728;" xml:space="preserve">
<style type="text/css">
	.st0{fill:#97CCC7;}
	.st1{fill:#A2E0DC;}
	.st2{opacity:0.5;}
	.st3{fill:#FFFFFF;}
	.st4{opacity:0.53;fill:#FFFFFF;enable-background:new    ;}
</style>
<g>
	<path class="st0" d="M106,20.9c0,0,148.8,4.9,276.6,10.5L246.8,138.7L106,20.9z"/>
	<path class="st1" d="M493.4,218.4c-4.6-27.5-20.8-66-51-84.1c-17.3-10.3-37-12.2-56.9-5.5c-15.7,5.3-29,17.4-35.8,32.5
		c-6.8,15.1-7,33.1-0.6,48.4l4.1,9.7l6.1-8.6c1.6-2.2,3-4.5,4.5-6.9c8.8-14.4,18.5-31.4,33.9-39.8c18.7-10.3,36.8,2.8,46.9,18.8
		c12.5,19.7,19.7,45.6,19.3,68.9c-0.5,35.8-10.8,70.9-20.7,104.9c-3.9,13.3-7.9,27-11.3,40.7c-0.4,1.7-1.7,6.7,2.2,9.7
		c3.2,2.5,6.7,1.2,9.4-0.2c0.2,10.1,1.9,20.1,3.7,29.7c1.6,8.8,3.1,17.2,3.5,25.7c0,0,11.7-0.5,11.7-0.5
		c-0.5-11.6,1.5-24.4,3.5-36.8c0.7-4.6,1.4-9.2,2-13.6c2.1-16.1,5.3-32.2,10.1-50.6C490.6,312.3,501.3,265,493.4,218.4z"/>
	<g class="st2">
		<path class="st1" d="M493.4,218.4c-4.6-27.5-20.8-66-51-84.1c-17.3-10.3-37-12.2-56.9-5.5c-11.7,4-22.1,11.7-29.5,21.7
			c5.6-4.7,12.1-8.4,19-10.7c19.9-6.7,39.6-4.8,56.9,5.5c30.2,18.1,46.4,56.6,51,84.1c7.9,46.6-2.8,93.9-15.4,142.4
			c-4.8,18.4-8,34.5-10.1,50.6c-0.6,4.4-1.3,9-2,13.6c-1.4,8.7-2.7,17.7-3.3,26.2c3.1-0.1,10.3-0.4,10.3-0.4
			c-0.5-11.6,1.5-24.4,3.5-36.8c0.7-4.6,1.4-9.2,2-13.6c2.1-16.1,5.3-32.2,10.1-50.6C490.6,312.3,501.3,265,493.4,218.4z"/>
	</g>
	<path class="st1" d="M15.2,14.6c0.1,0,7.8-6.3,8.4-6.7c8.6-5.1,18.8-7.3,28.7-7.8c47.4-2.3,84.1,30.6,127.9,41.8
		c43.2,11.1,88.4,14.9,132.7,8.6c24-3.4,47.5-9.7,69.8-19.2c-9.3,22.4-15.9,46.3-20.7,70.1c-14,69.1,3.9,140.3,40.1,199.8
		c32,52.6,57.3,108.6,66.9,170c11.5,72.8-2.4,148-51.4,204.9c0,0-128.3,98.9-324.1,6.5c-21.2-10-41.7-38.2-53.6-56.8
		c-57-88.9-25.3-198.7,20.1-285.1c33.2-63.3,60.3-142.2,38.3-213.6C98.2,127,73.5,38.6,15.2,14.6z"/>
	<g>
		<path class="st3" d="M420.4,387.8c-2.9-6.9-19.3-14.5-25.4-17.9c-39.1-22.4-86.2-32.4-130.3-21c-46,11.9-88.4,34.3-136.7,18.2
			c-15.4-5.1-29.5-16.6-41.4-27.6c-2,4,0,0-6.1,12C42.9,425.9,6.7,530.6,59.5,613.1c16.1,25.1,32.1,42.7,43.8,48.3
			c52.3,24.7,104.2,37.2,154.4,37.2c81.2,0,133.8-33.1,143.7-39.9c39.8-47.5,55.5-112.7,44.3-183.8
			C441.1,446,432.9,417.5,420.4,387.8z"/>
	</g>
	<path class="st4" d="M113.2,658.9C56.3,561,87.9,440.1,133.3,345c33.2-69.7,60.3-156.6,38.3-235.2c0,0-12.6-49.8-41.1-87.8
		c-22.4-10.6-44.7-21-70-21.9c42.8,36.7,61.3,109.6,61.3,109.6c22,78.6-5,165.6-38.3,235.2c-44.8,94-76.2,213-22.1,310.3
		c9.7,11.5,20.8,22,32.1,27.3c17.5,8.3,34.5,14.9,50.9,20.4C131.8,689.2,120.8,671.9,113.2,658.9z"/>
	<g class="st2">
		<path class="st1" d="M469,471.3c-9.7-61.4-35-117.3-66.9-170c-36.2-59.6-54.1-130.7-40.1-199.8c4.8-23.7,11.4-47.6,20.7-70.1
			c-19.5,8.3-40,14-60.9,17.7c-5.9,17.1-10.5,34.8-14,52.4c-14,69.1,3.9,140.3,40.1,199.8c32,52.6,57.3,108.6,66.9,170
			c11.5,72.8-2.4,148-51.4,204.9c0,0-49,37.7-132.6,44.8c116.3,9.6,186.9-44.7,186.9-44.7C466.6,619.3,480.5,544.1,469,471.3z"/>
	</g>
</g>
</svg>
