<?xml version="1.0" encoding="utf-8"?>
<!-- Generator: Adobe Illustrator 22.1.0, SVG Export Plug-In . SVG Version: 6.00 Build 0)  -->
<svg width="26px" height="67px" version="1.1" id="Layer_1" xmlns="http://www.w3.org/2000/svg" xmlns:xlink="http://www.w3.org/1999/xlink" x="0px" y="0px"
	 viewBox="0 0 26 67" style="enable-background:new 0 0 26 67;" xml:space="preserve">
<style type="text/css">
	.st0{fill:#ED6306;}
	.st1{fill:#CE4500;}
	.st2{fill:#77DB0E;}
	.st3{fill:#89ED14;}
	.st4{fill:#56CC09;}
	.st5{fill:#1EA50A;}
	.st6{fill:#E5490C;}
	.st7{fill:#FF8500;}
	.st8{fill:#21BC19;}
	.st9{fill:#20A814;}
	.st10{fill:#1A5784;}
	.st11{fill:#0C486D;}
	.st12{fill:#5BC914;}
</style>
<path class="st0" d="M3.9,20c0,0.6-0.5,1.2-1.2,1.2H1.2C0.5,21.1,0,20.6,0,20v-3.6c0-0.6,0.5-1.2,1.2-1.2h1.6c0.6,0,1.2,0.5,1.2,1.2
	V20z"/>
<path class="st1" d="M2.7,15.2c0.6,0,1.2,0.5,1.2,1.2v3.6c0,0.6-0.5,1.2-1.2,1.2H1.2C0.5,21,0,20.5,0,19.9"/>
<path class="st2" d="M25.9,60.7c0,3.3-2.7,6.2-6.2,6.2H8c-3.3,0-6.2-2.7-6.2-6.2V13.5c0-3.3,2.7-6.2,6.2-6.2h11.8
	c3.3,0,6.2,2.7,6.2,6.2v47.2C26,60.7,25.9,60.7,25.9,60.7z"/>
<path class="st3" d="M4.5,60.7V13.5C4.5,11.1,6,9,8.1,8V7.4c-3.3,0-6.2,2.7-6.2,6.2v47.3c0,3.3,2.7,6.2,6.2,6.2v-0.6
	C6,65.3,4.5,63.2,4.5,60.7z"/>
<path class="st4" d="M8,7.4h11.8c3.3,0,6.2,2.7,6.2,6.2v47.3c0,3.3-2.7,6.2-6.2,6.2"/>
<path class="st2" d="M20.9,6.5c0,0.5-0.4,0.9-0.9,0.9H7.8C7.3,7.5,6.9,7,6.9,6.5l0,0c0-0.5,0.4-0.9,0.9-0.9h12.1
	C20.5,5.6,20.9,6,20.9,6.5L20.9,6.5z"/>
<path class="st5" d="M20.9,6.5c0,0.5-0.4,0.9-0.9,0.9H7.8C7.3,7.5,6.9,7,6.9,6.5l0,0c0-0.5,0.4-0.9,0.9-0.9h12.1
	C20.5,5.6,20.9,6,20.9,6.5L20.9,6.5z"/>
<path class="st6" d="M22.9,5.9c0,0.2-0.2,0.4-0.4,0.4H5.3c-0.2,0-0.4-0.2-0.4-0.4V0.5C4.9,0.2,5.1,0,5.3,0h17.1
	c0.2,0,0.4,0.2,0.4,0.4L22.9,5.9L22.9,5.9z"/>
<path class="st0" d="M5.3,6.3c-0.2,0-0.4-0.2-0.4-0.4V0.5C4.9,0.2,5.1,0,5.3,0h17.1c0.2,0,0.4,0.2,0.4,0.4"/>
<path class="st7" d="M4.9,0.5C4.9,0.3,5.1,0,5.3,0h17.1c0.2,0,0.4,0.2,0.4,0.4"/>
<g>
	<path class="st8" d="M23.3,60.7V13.5c0-2.4-1.5-4.5-3.6-5.5V7.4c3.3,0,6.2,2.7,6.2,6.2v47.3c0,3.3-2.7,6.2-6.2,6.2v-0.6
		C21.9,65.3,23.3,63.2,23.3,60.7z"/>
	<path class="st8" d="M13.9,36.4c-4,0-7.1-7.3-7.1-11.3S10,18,13.9,18s7.1,3.2,7.1,7.1S17.9,36.4,13.9,36.4z"/>
</g>
<path class="st9" d="M13.9,17.9c-1.4,0-2.5,0.3-3.7,0.9l3.4,17.4c0.1,0,0.1,0,0.2,0c4,0,7.1-7.3,7.1-11.3S17.9,17.9,13.9,17.9z"/>
<path class="st10" d="M13.9,32.2c-4,0-7.1-3.2-7.1-7.1S10,18,13.9,18s7.1,3.2,7.1,7.1S17.9,32.2,13.9,32.2z"/>
<g>
	<path class="st11" d="M13.9,17.9c4,0,7.1,3.2,7.1,7.1s-3.2,7.1-7.1,7.1"/>
	<polygon class="st11" points="14.9,24.8 10,20 12,18 17.8,19.6 	"/>
</g>
<path class="st7" d="M13.9,18.8c3.4,0,6.3,2.8,6.3,6.3s-2.8,6.3-6.3,6.3s-6.3-2.8-6.3-6.3S10.4,18.8,13.9,18.8 M13.9,17.1
	c-4.5,0-8,3.7-8,8s3.7,8,8,8s8-3.7,8-8S18.4,17.1,13.9,17.1L13.9,17.1z"/>
<path class="st6" d="M13.9,18.8c3.4,0,6.3,2.8,6.3,6.3s-2.8,6.3-6.3,6.3s-6.3-2.8-6.3-6.3S10.4,18.8,13.9,18.8 M13.9,17.5
	c-4.5,0-8,3.1-8,7.6s3.7,8,8,8s8-3.7,8-8S18.4,17.5,13.9,17.5L13.9,17.5z"/>
<g>
	<path class="st12" d="M18.5,24.2c0,0.4-0.4,0.4-0.4,0.4H10c-0.4,0-0.4-0.4-0.4-0.4l0,0c0-0.4,0.4-0.4,0.4-0.4h8.1
		C18.5,23.8,18.5,23.8,18.5,24.2L18.5,24.2z"/>
	<path class="st12" d="M18.5,26.1c0,0.4-0.4,0.4-0.4,0.4H10c-0.4,0-0.4-0.4-0.4-0.4l0,0c0-0.4,0.4-0.4,0.4-0.4h8.1
		C18.5,25.7,18.5,25.7,18.5,26.1L18.5,26.1z"/>
	<path class="st12" d="M18.5,28c0,0.4-0.4,0.4-0.4,0.4H10c-0.4,0-0.4-0.4-0.4-0.4l0,0c0-0.4,0.4-0.4,0.4-0.4h8.1
		C18.5,27.7,18.5,27.7,18.5,28L18.5,28z"/>
</g>
<g>
	<path class="st8" d="M8.8,57c0,0.2-0.1,0.3-0.3,0.3H6.4C6.1,57.4,6,57.3,6,57l0,0c0-0.2,0.1-0.3,0.3-0.3h2.1
		C8.6,56.7,8.8,56.9,8.8,57L8.8,57z"/>
	<path class="st8" d="M8.8,58.5c0,0.2-0.1,0.3-0.3,0.3H6.4c-0.2,0-0.3-0.1-0.3-0.3l0,0c0-0.2,0.1-0.3,0.3-0.3h2.1
		C8.6,58.2,8.8,58.3,8.8,58.5L8.8,58.5z"/>
	<path class="st8" d="M8.8,60c0,0.2-0.1,0.3-0.3,0.3H6.4C6.1,60.3,6,60.2,6,60l0,0c0-0.2,0.1-0.3,0.3-0.3h2.1
		C8.6,59.6,8.8,59.8,8.8,60L8.8,60z"/>
</g>
<path class="st4" d="M28.1,55.2c0,0.6-0.5,1.2-1.2,1.2l0,0c-0.6,0-1.2-0.5-1.2-1.2V51c0-0.6,0.5-1.2,1.2-1.2l0,0
	c0.6,0,1.2,0.5,1.2,1.2V55.2z"/>
<path class="st8" d="M27,49.8L27,49.8c0.6,0,1.2,0.5,1.2,1.2v4.2c0,0.6-0.5,1.2-1.2,1.2l0,0"/>
</svg>
