<?xml version="1.0" encoding="utf-8"?>
<!-- Generator: Adobe Illustrator 22.1.0, SVG Export Plug-In . SVG Version: 6.00 Build 0)  -->
<svg width="420px" height="282px" version="1.1" id="Layer_1" xmlns="http://www.w3.org/2000/svg" xmlns:xlink="http://www.w3.org/1999/xlink" x="0px" y="0px"
	 viewBox="0 0 421 281.9" style="enable-background:new 0 0 421 281.9;" xml:space="preserve">
<style type="text/css">
	.st0{fill:#495577;}
	.st1{fill:#E46A53;}
	.st2{fill:#EFEFEF;}
	.st3{fill:#61ACD2;}
</style>
<g>
	<rect x="15.5" y="171.9" class="st0" width="73.7" height="17.7"/>
	<path class="st1" d="M421,180.7c0,41.1-40.4,76.5-98.4,92.3c-20.9,5.7-44.1,8.9-68.5,8.9c-26.2,0-51-3.7-73.1-10.2
		c-27.6-8.2-50.9-20.8-67.4-36.4V126.1c16.5-15.6,39.8-28.2,67.4-36.4v0c22.1-6.5,46.9-10.2,73.1-10.2c24.4,0,47.6,3.2,68.5,8.9
		C380.6,104.3,421,139.7,421,180.7z"/>
	<polygon class="st2" points="116.9,101.4 116.9,270 80.4,281.1 80.4,80.4 	"/>
	<rect x="205.3" class="st1" width="92.9" height="42.6"/>
	<path class="st0" d="M322.5,39.3v52.5c-20.9-5.7-44.1-8.9-68.5-8.9c-26.2,0-51,3.7-73.1,10.2V39.3H322.5z"/>
	<path class="st2" d="M322.5,88.4V273c-20.9,5.7-44.1,8.9-68.5,8.9c-26.2,0-51-3.7-73.1-10.2v-182c22.1-6.5,46.9-10.2,73.1-10.2
		C278.5,79.6,301.6,82.7,322.5,88.4z"/>
	<g>
		<ellipse class="st0" cx="24.3" cy="145.6" rx="24.3" ry="35.2"/>
		<ellipse class="st0" cx="24.3" cy="215.9" rx="24.3" ry="35.2"/>
	</g>
	
		<ellipse transform="matrix(7.088900e-02 -0.9975 0.9975 7.088900e-02 54.6722 420.1696)" class="st1" cx="252.9" cy="180.7" rx="43.1" ry="43.1"/>
	<circle class="st3" cx="252.9" cy="180.7" r="28.8"/>
</g>
</svg>
